# https://github.com/mikedh/trimesh
v -0.04290000 -0.03322900 -0.11995700
v -0.05006900 -0.03108700 -0.11461700
v -0.03986800 -0.03419200 -0.10564200
v -0.04858600 -0.03236200 -0.10074000
v -0.05166400 -0.02695900 -0.11983900
v -0.04969300 -0.01539200 -0.11705700
v -0.01689200 -0.03890100 -0.11634800
v -0.00488000 -0.03972100 -0.11993400
v -0.00497900 -0.04136800 -0.11959700
v -0.00785900 -0.04102100 -0.09463500
v -0.05035800 -0.03124600 -0.09923300
v -0.05205100 -0.02854500 -0.09025100
v -0.05009000 -0.03218900 -0.07979400
v -0.05102500 -0.03094500 -0.06755400
v -0.05253200 -0.02677200 -0.04308600
v -0.05174900 -0.03019800 -0.03237600
v -0.05133700 -0.03126600 -0.01947400
v -0.05052000 -0.01518400 -0.03027200
v -0.04731200 0.00092100 -0.04472200
v 0.03225100 -0.04725300 -0.11278100
v 0.03408800 -0.04378500 -0.11989500
v 0.02986000 -0.04865700 -0.09182700
v 0.02963600 -0.04864800 -0.11976700
v 0.03430000 -0.04391300 -0.10785900
v 0.03550700 -0.03892700 -0.11501700
v 0.03315300 -0.04618300 -0.10022000
v 0.03474800 -0.04214500 -0.08799700
v 0.03554300 -0.03889200 -0.10145200
v 0.03388200 -0.04472100 -0.07586100
v 0.03205600 -0.04737000 -0.05494300
v 0.03336400 -0.04566000 -0.04395400
v 0.03439400 -0.04254300 -0.04576400
v 0.03247400 -0.04657300 0.00629500
v -0.04695200 -0.00098400 -0.11943000
v -0.04430700 0.01272400 -0.11962700
v 0.04484700 0.03641100 -0.11965000
v 0.02660200 0.04072400 -0.11985100
v 0.03633100 0.03838800 -0.11986600
v -0.04179400 0.02499600 -0.11986800
v -0.03734700 0.04395200 -0.11995000
v -0.03446500 0.05291800 -0.11089100
v -0.03235800 0.05409500 -0.11695700
v -0.03525800 0.05162300 -0.11967000
v -0.04762200 -0.00318900 -0.09485300
v -0.04354200 0.01859600 -0.08955200
v -0.02647200 0.05292000 -0.11966800
v -0.00861200 0.04862300 -0.11977700
v -0.01676100 0.05066100 -0.11975100
v -0.03181100 0.05407300 -0.10277000
v -0.04079500 0.03197300 -0.06583400
v -0.03871400 0.04066500 -0.04850100
v -0.03437700 0.05309400 -0.07626800
v -0.03576400 0.05219600 -0.05902700
v 0.03578100 -0.03659800 -0.11974900
v 0.03866900 -0.02373500 -0.11964000
v 0.04745400 0.01638400 -0.11963600
v 0.04476600 0.00516800 -0.11987200
v 0.04683700 0.02244600 -0.12005100
v 0.04880700 0.02261900 -0.11978000
v 0.05053900 0.03164400 -0.11975000
v 0.04976400 0.03512100 -0.11984000
v 0.04667600 0.03612900 -0.11023800
v 0.05079500 0.03330500 -0.10925400
v 0.04918100 0.03557100 -0.09482200
v 0.04617100 0.03625400 -0.08188100
v 0.04775200 0.03585500 -0.07237800
v 0.04650900 0.03594700 -0.01912100
v -0.05275400 -0.02724000 -0.02212200
v -0.05057600 -0.01459900 -0.00589700
v -0.04709100 0.00322700 -0.01494700
v -0.05078700 -0.03239200 0.02077800
v -0.04882800 -0.03309200 0.06634600
v -0.05225500 -0.02169000 0.05255400
v -0.05184900 -0.03119200 0.06622300
v -0.04974200 -0.03270000 0.08393600
v -0.05273500 -0.02945700 0.07316400
v -0.05250100 -0.02253900 0.07108300
v -0.05334200 -0.02745900 0.08465100
v -0.05062800 -0.01184200 0.08449400
v -0.04865200 -0.00266300 0.08465200
v -0.04600800 0.01134500 0.08230500
v -0.04379000 0.02206000 0.08412600
v -0.03089500 0.02180700 0.08495200
v -0.03770800 0.02589100 0.08468800
v -0.04120200 0.03267700 0.08448000
v -0.03733000 0.04631300 0.08447200
v 0.03350600 -0.04428300 0.01413600
v 0.03294600 -0.04562200 0.02905800
v -0.01125700 -0.04061600 0.08496200
v 0.02911800 -0.04930700 0.06274600
v 0.02995000 -0.04920700 0.05222200
v 0.03275100 -0.04569900 0.04523700
v 0.01297300 -0.04663700 0.08147300
v 0.02529200 -0.04877900 0.08511700
v 0.02567500 -0.04235500 0.08527400
v 0.03234300 -0.04621600 0.06424400
v 0.03275600 -0.04489600 0.07760800
v 0.03120400 -0.04777200 0.08474000
v 0.03406100 -0.03978100 0.08534000
v -0.04244300 -0.03469300 0.08140900
v -0.03927100 -0.03441400 0.08472600
v -0.02155000 -0.03806000 0.08493300
v 0.00015900 -0.04298600 0.08512000
v 0.03747300 -0.02417100 0.08517700
v 0.04003400 -0.00957600 0.08540200
v 0.04251700 0.00447900 0.08557600
v 0.03715500 0.01381700 0.08560400
v -0.04294900 0.02363700 -0.02637500
v -0.03479100 0.05305300 -0.01960200
v -0.03267300 0.05406900 -0.00802700
v -0.03280900 0.05404400 -0.04839300
v -0.03293400 0.05402700 -0.03328700
v -0.03223300 0.05400500 -0.01943700
v -0.03342900 0.05387200 0.00357600
v -0.03312500 0.05394100 0.01996300
v -0.03290400 0.05393300 0.04509200
v -0.03260000 0.05387200 0.06439000
v -0.03576300 0.05274400 0.07645000
v -0.03484200 0.05237900 0.08267700
v -0.02588600 0.05169300 0.08444100
v -0.01802500 0.05010100 0.08472700
v -0.03123700 0.05333700 0.08000400
v -0.03088600 0.04612600 0.08459300
v 0.04924600 0.02844100 0.03509700
v 0.04678800 0.03558300 0.05014300
v 0.00008900 0.03662400 0.08510300
v 0.04655800 0.01940600 0.08450100
v 0.04951800 0.03154900 0.08066300
v 0.04861600 0.03497900 0.06485700
v 0.04789100 0.03520700 0.07661300
v 0.02224400 0.03099300 0.08541400
v 0.02301700 0.03990600 0.08524900
v 0.03090600 0.03305600 0.08532900
v 0.03434200 0.03796200 0.08473100
v 0.04943800 0.03419400 0.08507600
v -0.02274900 0.04414200 0.08474800
f 91 98 90
f 90 23 91
f 78 107 83
f 84 83 86
f 107 135 133
f 135 132 133
f 131 83 107
f 107 133 131
f 131 133 132
f 118 86 119
f 8 23 1
f 1 58 8
f 40 58 1
f 1 5 40
f 61 135 63
f 80 84 86
f 78 83 80
f 83 84 80
f 102 107 78
f 102 103 107
f 78 101 102
f 101 103 102
f 95 103 94
f 100 93 94
f 90 98 94
f 94 23 90
f 94 93 23
f 1 23 9
f 23 93 10
f 10 3 23
f 93 3 10
f 22 91 23
f 23 20 22
f 22 20 91
f 95 94 99
f 107 103 99
f 99 103 95
f 99 94 98
f 83 131 126
f 121 132 135
f 83 126 121
f 121 131 132
f 121 126 131
f 78 12 76
f 17 74 76
f 13 93 100
f 13 3 93
f 100 94 75
f 75 101 78
f 78 76 75
f 75 76 74
f 89 103 101
f 89 94 103
f 101 75 89
f 89 75 94
f 23 3 7
f 7 9 23
f 7 3 1
f 1 9 7
f 24 28 27
f 27 28 32
f 98 96 97
f 97 99 98
f 129 130 135
f 43 40 53
f 106 135 107
f 107 99 106
f 32 28 124
f 122 117 118
f 118 119 122
f 122 130 117
f 122 121 130
f 135 130 134
f 134 121 135
f 130 121 134
f 86 83 123
f 123 121 86
f 12 17 16
f 16 76 12
f 17 76 16
f 14 17 12
f 14 13 17
f 12 5 2
f 2 5 1
f 78 80 79
f 79 80 82
f 85 86 118
f 118 53 85
f 85 80 86
f 82 80 85
f 59 124 28
f 25 28 24
f 25 59 28
f 72 13 100
f 100 75 72
f 71 75 74
f 13 72 71
f 71 72 75
f 71 74 17
f 17 13 71
f 32 99 87
f 99 97 87
f 26 20 24
f 40 47 37
f 62 37 46
f 43 42 46
f 46 40 43
f 118 114 109
f 109 114 42
f 41 42 43
f 43 53 41
f 41 53 118
f 118 109 41
f 42 114 112
f 105 99 135
f 135 106 105
f 105 106 99
f 135 127 128
f 63 135 128
f 128 124 63
f 120 122 119
f 121 122 120
f 120 119 86
f 86 121 120
f 83 121 136
f 136 123 83
f 121 123 136
f 12 2 11
f 11 2 13
f 11 14 12
f 13 14 11
f 4 2 1
f 13 2 4
f 1 3 4
f 3 13 4
f 39 35 45
f 39 40 5
f 5 35 39
f 50 53 40
f 40 39 50
f 45 108 50
f 50 39 45
f 50 108 82
f 82 85 50
f 70 108 45
f 82 108 81
f 81 79 82
f 108 70 81
f 81 70 79
f 58 61 60
f 60 59 58
f 60 61 63
f 63 124 60
f 124 59 60
f 21 59 54
f 23 8 21
f 21 8 58
f 21 20 23
f 54 25 21
f 24 20 21
f 21 25 24
f 54 59 55
f 55 25 54
f 31 87 88
f 88 87 97
f 29 26 24
f 31 26 29
f 29 87 31
f 32 87 29
f 24 27 29
f 29 27 32
f 33 26 31
f 31 88 33
f 33 96 98
f 33 88 96
f 117 130 125
f 125 67 117
f 130 67 125
f 62 61 36
f 36 37 62
f 58 40 38
f 40 37 38
f 38 61 58
f 38 36 61
f 37 36 38
f 49 46 42
f 117 65 113
f 65 46 113
f 46 49 113
f 48 37 47
f 48 46 37
f 48 47 40
f 40 46 48
f 62 46 64
f 64 46 65
f 64 61 62
f 135 61 64
f 64 129 135
f 130 129 64
f 52 109 42
f 42 41 52
f 52 41 109
f 115 112 114
f 115 114 118
f 124 128 104
f 104 99 32
f 32 124 104
f 104 128 127
f 135 99 104
f 104 127 135
f 51 85 53
f 53 50 51
f 51 50 85
f 15 6 5
f 15 5 12
f 45 35 34
f 34 35 5
f 5 6 34
f 19 70 45
f 58 59 57
f 57 21 58
f 59 21 57
f 59 25 56
f 56 55 59
f 25 55 56
f 92 97 96
f 96 88 92
f 92 88 97
f 30 33 98
f 26 33 30
f 20 26 30
f 98 91 30
f 91 20 30
f 117 113 110
f 112 115 110
f 110 49 42
f 110 113 49
f 66 64 65
f 66 65 117
f 117 67 66
f 66 67 130
f 130 64 66
f 6 15 18
f 18 19 45
f 70 19 18
f 15 73 18
f 117 110 116
f 116 110 115
f 118 117 116
f 116 115 118
f 42 112 111
f 111 110 42
f 112 110 111
f 68 73 15
f 68 12 78
f 68 15 12
f 44 34 6
f 6 18 44
f 45 34 44
f 44 18 45
f 69 73 79
f 69 18 73
f 79 70 69
f 70 18 69
f 77 68 78
f 73 68 77
f 78 79 77
f 79 73 77

