# https://github.com/mikedh/trimesh
v 0.03295510 -0.00212455 0.00525462
v 0.00162554 -0.00212455 0.00525462
v 0.03252879 -0.00610700 0.00525462
v 0.03278948 -0.00306208 -0.01597746
v 0.03284775 -0.00212455 -0.01996119
v 0.00162554 -0.03033356 0.00525462
v 0.00162554 -0.00212455 -0.03180355
v 0.03244291 -0.00679563 0.00525462
v 0.03243371 -0.00576683 -0.01496520
v 0.03241224 -0.00560643 -0.02069771
v 0.03240304 -0.00554005 -0.02308142
v 0.03229569 -0.00610700 -0.02714135
v 0.03238770 -0.00539901 -0.02714135
v 0.03276801 -0.00306208 -0.01800924
v 0.03283855 -0.00212455 -0.02097345
v 0.00247510 -0.03037781 0.00525462
v 0.00162554 -0.02863272 -0.03180355
v 0.03269134 -0.00212455 -0.03180355
v 0.03243678 -0.00683158 0.00525462
v 0.03235703 -0.00721876 0.00329903
v 0.03224049 -0.00712197 -0.01496520
v 0.03235397 -0.00618997 -0.01800924
v 0.03215154 -0.00712197 -0.02511320
v 0.03227729 -0.00610700 -0.02917313
v 0.03225582 -0.00610700 -0.03120128
v 0.03238157 -0.00534646 -0.02815724
v 0.03274655 -0.00306208 -0.02003739
v 0.03243984 -0.00484036 -0.02815724
v 0.03265453 -0.00245919 -0.03180355
v 0.03281095 -0.00212455 -0.02300523
v 0.00410369 -0.02996573 -0.00258224
v 0.00349028 -0.03034462 0.00525462
v 0.00795893 -0.02788048 -0.03180355
v 0.00707256 -0.02894246 -0.01553482
v 0.00552065 -0.02955366 -0.00786486
v 0.00450547 -0.02970853 -0.00684897
v 0.03235397 -0.00730173 0.00525462
v 0.03217608 -0.00813694 0.00127088
v 0.03211474 -0.00712197 -0.02917313
v 0.03215768 -0.00813694 -0.00076090
v 0.03209634 -0.00712197 -0.03120128
v 0.03209020 -0.00712197 -0.03180355
v 0.03224662 -0.00610700 -0.03180355
v 0.03238770 -0.00485695 -0.03180355
v 0.03236930 -0.00522477 -0.03018539
v 0.00450547 -0.02976108 -0.00583308
v 0.00552065 -0.02960621 -0.00684897
v 0.00552065 -0.02965599 -0.00583308
v 0.00552065 -0.02969747 -0.00482082
v 0.00423557 -0.02998233 -0.00177316
v 0.00450547 -0.03018422 0.00431492
v 0.00450547 -0.03021740 0.00525462
v 0.00450547 -0.03010954 0.00228314
v 0.01100447 -0.02751819 -0.03180355
v 0.01160867 -0.02744628 -0.03180355
v 0.01201965 -0.02739650 -0.03180355
v 0.00769516 -0.02888992 -0.01496520
v 0.00755101 -0.02906968 -0.01192479
v 0.00755101 -0.02928263 -0.00786486
v 0.03217301 -0.00813694 0.00525462
v 0.03217608 -0.00813694 0.00431492
v 0.03218221 -0.00813694 0.00228314
v 0.03188471 -0.00915191 0.00025499
v 0.03187551 -0.00915191 -0.00076090
v 0.03184484 -0.00813694 -0.03120128
v 0.03198899 -0.00753128 -0.03180355
v 0.00653583 -0.02952324 -0.00583308
v 0.00755101 -0.02943751 -0.00482082
v 0.00552065 -0.02973895 -0.00380493
v 0.00474163 -0.02991872 -0.00177316
v 0.00459441 -0.03001551 0.00019694
v 0.00534276 -0.02999892 0.00228314
v 0.00755101 -0.02979980 0.00525462
v 0.00552065 -0.03004594 0.00431492
v 0.00520475 -0.02997956 0.00127088
v 0.00755101 -0.02947899 -0.00380493
v 0.01262386 -0.02731077 -0.03180355
v 0.00813375 -0.02895076 -0.01266494
v 0.00755101 -0.02938773 -0.00583308
v 0.03188471 -0.00915191 0.00525462
v 0.03189085 -0.00915191 0.00228314
v 0.03138786 -0.01064809 0.00329903
v 0.03138479 -0.01063980 0.00228314
v 0.03066404 -0.01219682 -0.02612546
v 0.03097074 -0.01118185 -0.02714135
v 0.03139399 -0.00965525 -0.03056272
v 0.03183564 -0.00813694 -0.03180355
v 0.00856313 -0.02928816 -0.00482082
v 0.00856313 -0.02924115 -0.00583308
v 0.00755101 -0.02955366 -0.00177316
v 0.00755101 -0.02958961 -0.00076090
v 0.00653583 -0.02983575 0.00228314
v 0.00849259 -0.02965875 0.00525462
v 0.00856313 -0.02932688 -0.00380493
v 0.01303484 -0.02724716 -0.03180355
v 0.03154427 -0.01017794 0.00525462
v 0.03138786 -0.01064809 0.00525462
v 0.03120997 -0.01118185 0.00525462
v 0.03120384 -0.01118185 0.00329903
v 0.03044322 -0.01284397 -0.02511320
v 0.03044015 -0.01283291 -0.02612546
v 0.03065177 -0.01219682 -0.02714135
v 0.03084500 -0.01219682 0.00228314
v 0.03095847 -0.01118185 -0.02815724
v 0.03138479 -0.00962759 -0.03120128
v 0.03153814 -0.00909107 -0.03180355
v 0.03171296 -0.00853518 -0.03180355
v 0.03094007 -0.01118185 -0.02917313
v 0.00957831 -0.02910840 -0.00482082
v 0.00957831 -0.02914989 -0.00380493
v 0.00964272 -0.02900884 -0.00678729
v 0.00957831 -0.02906415 -0.00583308
v 0.00856313 -0.02954260 0.00228314
v 0.00856313 -0.02961450 0.00431492
v 0.00856313 -0.02964769 0.00525462
v 0.00957831 -0.02936836 0.00228314
v 0.01363904 -0.02713930 -0.03180355
v 0.03084193 -0.01219682 0.00525462
v 0.03084806 -0.01219682 0.00431492
v 0.03084806 -0.01219682 0.00329903
v 0.03028373 -0.01343304 -0.01699335
v 0.03032054 -0.01355196 -0.00482082
v 0.02997089 -0.01422400 -0.01496520
v 0.02995863 -0.01422400 -0.01597746
v 0.02959672 -0.01519196 -0.01090890
v 0.03043401 -0.01281355 -0.02714135
v 0.03027759 -0.01342751 -0.01800924
v 0.03000770 -0.01422400 -0.01192479
v 0.03042481 -0.01279972 -0.02815724
v 0.03063644 -0.01219682 -0.02815724
v 0.03032667 -0.01356856 -0.00278904
v 0.03120997 -0.01016688 -0.03120128
v 0.03130505 -0.00981565 -0.03180355
v 0.03137559 -0.00959717 -0.03180355
v 0.03060883 -0.01219682 -0.02917313
v 0.01028372 -0.02897565 -0.00482082
v 0.01090633 -0.02890098 -0.00380493
v 0.01059349 -0.02878483 -0.00786486
v 0.01016718 -0.02895353 -0.00583308
v 0.01107808 -0.02893417 -0.00216137
v 0.01068244 -0.02901990 -0.00180218
v 0.01314218 -0.02792473 -0.01652531
v 0.00957831 -0.02940432 0.00329903
v 0.00950777 -0.02947069 0.00525462
v 0.00957831 -0.02943751 0.00431492
v 0.01393961 -0.02708399 -0.03180355
v 0.03051375 -0.01295460 0.00525462
v 0.03051989 -0.01297395 0.00431492
v 0.03052602 -0.01299055 0.00329903
v 0.03002917 -0.01422400 -0.00989301
v 0.03003530 -0.01422400 -0.00887712
v 0.03003837 -0.01422400 -0.00786486
v 0.02960592 -0.01517536 -0.00989301
v 0.02934216 -0.01570083 -0.01090890
v 0.02933602 -0.01568700 -0.01192479
v 0.02817669 -0.01740996 -0.03180355
v 0.02899558 -0.01571189 -0.03180355
v 0.02927162 -0.01513941 -0.03180355
v 0.02959058 -0.01447567 -0.03180355
v 0.02971020 -0.01422400 -0.03180355
v 0.03040948 -0.01277207 -0.02917313
v 0.03032054 -0.01356303 -0.00177316
v 0.03003837 -0.01422400 -0.00684897
v 0.03057203 -0.01219682 -0.03018539
v 0.03084806 -0.01118185 -0.03180355
v 0.03039108 -0.01272782 -0.03018539
v 0.03038187 -0.01270293 -0.03070059
v 0.01160867 -0.02876823 -0.00380493
v 0.01262386 -0.02831191 -0.00989301
v 0.01160867 -0.02880972 -0.00278904
v 0.01262386 -0.02822341 -0.01192479
v 0.01113942 -0.02894523 -0.00148290
v 0.01059349 -0.02910840 0.00025499
v 0.01870881 -0.02618241 -0.03180355
v 0.01354396 -0.02783070 -0.01691716
v 0.00957831 -0.02945686 0.00525462
v 0.01059349 -0.02914159 0.00127088
v 0.01124370 -0.02897565 0.00025499
v 0.03049535 -0.01299055 0.00525462
v 0.02998623 -0.01422400 -0.00177316
v 0.03001383 -0.01422400 -0.00380493
v 0.03000156 -0.01422400 -0.00278904
v 0.02956298 -0.01508963 -0.00380493
v 0.02927468 -0.01558467 -0.00278904
v 0.02725045 -0.01964179 -0.01800924
v 0.02829630 -0.01766716 -0.01496520
v 0.02777798 -0.01828112 -0.02917313
v 0.02743447 -0.01894210 -0.02917313
v 0.02798960 -0.01776119 -0.03180355
v 0.03016105 -0.01317308 -0.03180355
v 0.03040948 -0.01248998 -0.03180355
v 0.03035734 -0.01263932 -0.03180355
v 0.01370958 -0.02783899 -0.01597746
v 0.01153200 -0.02885673 -0.00180218
v 0.01119156 -0.02895906 -0.00076090
v 0.01950624 -0.02599435 -0.03180355
v 0.01059349 -0.02918307 0.00431492
v 0.01059349 -0.02918307 0.00525462
v 0.01127130 -0.02898948 0.00127088
v 0.01169762 -0.02884291 -0.00076090
v 0.02944337 -0.01494858 0.00525462
v 0.03026533 -0.01349942 0.00329903
v 0.02996476 -0.01422400 -0.00076090
v 0.02955071 -0.01507580 -0.00278904
v 0.02925628 -0.01554319 -0.00076090
v 0.02843432 -0.01681536 0.00525462
v 0.02840978 -0.01685961 0.00525462
v 0.02841899 -0.01687344 0.00431492
v 0.02688241 -0.02031106 -0.01902512
v 0.02688548 -0.02031106 -0.02003739
v 0.02724739 -0.01962796 -0.01902512
v 0.02720138 -0.01953946 -0.02511320
v 0.02741300 -0.01890614 -0.03018539
v 0.02718604 -0.01952563 -0.02612546
v 0.02646836 -0.02101905 -0.02105327
v 0.02644690 -0.02099693 -0.02206916
v 0.02766143 -0.01833643 -0.03180355
v 0.01980681 -0.02588649 -0.03180355
v 0.01566940 -0.02751819 0.00228314
v 0.01432298 -0.02798834 0.00025499
v 0.01363904 -0.02822341 -0.00076090
v 0.01262386 -0.02857188 -0.00177316
v 0.01262386 -0.02854975 -0.00278904
v 0.01127130 -0.02899225 0.00228314
v 0.01566940 -0.02752648 0.00525462
v 0.01262386 -0.02857741 -0.00076090
v 0.02877169 -0.01619587 0.00525462
v 0.02949551 -0.01497348 0.00228314
v 0.02810001 -0.01736571 0.00525462
v 0.02685787 -0.02031106 -0.01800924
v 0.02647450 -0.02101352 -0.02003739
v 0.02687014 -0.02031106 -0.02105327
v 0.02738540 -0.01885636 -0.03120128
v 0.02751115 -0.01859640 -0.03180355
v 0.02641622 -0.02095268 -0.02308142
v 0.02600524 -0.02150580 -0.02206916
v 0.02549919 -0.02203126 -0.02409731
v 0.02547158 -0.02202849 -0.02511320
v 0.02543478 -0.02200360 -0.02612546
v 0.02600831 -0.02141177 -0.02409731
v 0.02001230 -0.02580905 -0.03180355
v 0.01661098 -0.02717525 0.00525462
v 0.02762770 -0.01810136 0.00525462
v 0.02646223 -0.02098863 -0.01902512
v 0.02597151 -0.02152792 -0.02105327
v 0.02550839 -0.02201466 -0.02308142
v 0.02664932 -0.02025299 -0.02714135
v 0.02720138 -0.01905272 -0.03180355
v 0.02736393 -0.01882871 -0.03180355
v 0.02597764 -0.02136475 -0.02511320
v 0.02634875 -0.02085588 -0.02511320
v 0.02447787 -0.02303240 -0.02815724
v 0.02445027 -0.02303240 -0.02917313
v 0.02441653 -0.02301028 -0.03018539
v 0.02540104 -0.02196212 -0.02714135
v 0.02073918 -0.02549378 -0.03180355
v 0.01669072 -0.02714483 0.00525462
v 0.02759089 -0.01815667 0.00525462
v 0.02725045 -0.01866554 0.00525462
v 0.02670452 -0.01934311 0.00525462
v 0.02659105 -0.01948139 0.00525462
v 0.02632728 -0.01981049 0.00498976
v 0.02602978 -0.02012853 0.00525462
v 0.02539184 -0.02083376 0.00525462
v 0.02535504 -0.02087248 0.00525462
v 0.02485818 -0.02138135 0.00525462
v 0.02438893 -0.02185149 0.00525462
v 0.02435212 -0.02188468 0.00525462
v 0.02448094 -0.02301028 -0.02714135
v 0.02345042 -0.02402248 -0.03180355
v 0.02563107 -0.02126243 -0.03120128
v 0.02538877 -0.02153622 -0.03180355
v 0.02395954 -0.02345001 -0.03180355
v 0.02413130 -0.02324535 -0.03180355
v 0.02437973 -0.02297156 -0.03120128
v 0.02436132 -0.02294114 -0.03180355
v 0.02506980 -0.02197318 -0.03180355
v 0.02166235 -0.02507064 -0.03180355
v 0.01720598 -0.02691805 0.00525462
v 0.02431225 -0.02191510 0.00525462
v 0.02345042 -0.02400589 -0.03120128
v 0.02304557 -0.02430181 -0.03180355
v 0.02216841 -0.02483557 -0.03180355
v 0.01968719 -0.02520339 0.00525462
v 0.02276954 -0.02448710 -0.03180355
v 0.02378472 -0.02231058 0.00525462
v 0.02316825 -0.02276691 0.00525462
v 0.02269593 -0.02310984 0.00525462
v 0.02194145 -0.02364083 0.00525462
v 0.02138632 -0.02402801 0.00525462
f 1 2 6
f 1 6 16
f 1 16 32
f 1 32 52
f 1 52 73
f 1 73 93
f 1 93 115
f 1 115 144
f 1 144 176
f 1 176 198
f 1 198 225
f 1 225 242
f 1 242 257
f 1 257 279
f 1 279 284
f 1 284 290
f 1 290 289
f 1 289 288
f 1 288 287
f 1 287 286
f 1 286 280
f 1 280 268
f 1 268 267
f 1 267 266
f 1 266 265
f 1 265 264
f 1 264 263
f 1 263 261
f 1 261 260
f 1 260 259
f 1 259 258
f 1 258 243
f 1 243 229
f 1 229 207
f 1 207 206
f 1 206 227
f 1 227 201
f 1 201 179
f 1 179 147
f 1 147 118
f 1 118 98
f 1 98 97
f 1 97 96
f 1 96 80
f 1 80 60
f 1 60 37
f 1 37 19
f 1 19 8
f 1 8 3
f 1 3 4
f 1 4 5
f 1 5 15
f 1 15 30
f 1 30 18
f 1 18 7
f 1 7 2
f 2 7 17
f 2 17 6
f 3 8 4
f 4 9 10
f 4 10 11
f 4 11 12
f 4 12 13
f 4 13 14
f 4 14 15
f 4 15 5
f 4 8 9
f 6 17 16
f 7 18 29
f 7 29 44
f 7 44 43
f 7 43 42
f 7 42 66
f 7 66 87
f 7 87 107
f 7 107 106
f 7 106 134
f 7 134 133
f 7 133 165
f 7 165 191
f 7 191 192
f 7 192 190
f 7 190 160
f 7 160 159
f 7 159 158
f 7 158 157
f 7 157 156
f 7 156 189
f 7 189 217
f 7 217 234
f 7 234 249
f 7 249 248
f 7 248 272
f 7 272 277
f 7 277 276
f 7 276 274
f 7 274 273
f 7 273 270
f 7 270 282
f 7 282 285
f 7 285 283
f 7 283 278
f 7 278 256
f 7 256 241
f 7 241 218
f 7 218 196
f 7 196 174
f 7 174 146
f 7 146 117
f 7 117 95
f 7 95 77
f 7 77 56
f 7 56 55
f 7 55 54
f 7 54 33
f 7 33 17
f 8 19 20
f 8 20 21
f 8 21 22
f 8 22 9
f 9 22 10
f 10 22 12
f 10 12 11
f 12 23 24
f 12 24 13
f 12 22 21
f 12 21 23
f 13 24 25
f 13 25 26
f 13 26 27
f 13 27 14
f 14 27 15
f 15 27 28
f 15 28 29
f 15 29 30
f 16 31 32
f 16 17 31
f 17 33 34
f 17 34 35
f 17 35 36
f 17 36 31
f 18 30 29
f 19 37 20
f 20 37 38
f 20 38 21
f 21 38 23
f 23 39 24
f 23 38 40
f 23 40 39
f 24 39 41
f 24 41 42
f 24 42 25
f 25 42 43
f 25 43 44
f 25 44 45
f 25 45 28
f 25 28 27
f 25 27 26
f 28 45 29
f 29 45 44
f 31 36 46
f 31 46 47
f 31 47 48
f 31 48 49
f 31 49 50
f 31 50 32
f 32 51 52
f 32 50 53
f 32 53 51
f 33 54 34
f 34 54 55
f 34 55 56
f 34 56 57
f 34 57 58
f 34 58 35
f 35 58 59
f 35 59 79
f 35 79 67
f 35 67 47
f 35 47 46
f 35 46 36
f 37 60 61
f 37 61 62
f 37 62 38
f 38 62 63
f 38 63 64
f 38 64 40
f 39 40 41
f 40 64 65
f 40 65 66
f 40 66 42
f 40 42 41
f 47 67 48
f 48 67 68
f 48 68 49
f 49 68 76
f 49 76 69
f 49 69 50
f 50 69 70
f 50 70 71
f 50 71 53
f 51 53 72
f 51 72 52
f 52 72 74
f 52 74 73
f 53 75 72
f 53 71 70
f 53 70 69
f 53 69 76
f 53 76 75
f 56 77 78
f 56 78 57
f 57 78 58
f 58 78 59
f 59 78 79
f 60 80 61
f 61 80 62
f 62 80 81
f 62 81 63
f 63 81 82
f 63 82 83
f 63 83 84
f 63 84 64
f 64 84 85
f 64 85 86
f 64 86 65
f 65 86 87
f 65 87 66
f 67 79 68
f 68 88 76
f 68 79 89
f 68 89 88
f 72 90 91
f 72 91 92
f 72 92 74
f 72 75 76
f 72 76 90
f 73 74 92
f 73 92 91
f 73 91 93
f 76 88 94
f 76 94 90
f 77 95 89
f 77 89 78
f 78 89 79
f 80 96 81
f 81 96 97
f 81 97 98
f 81 98 82
f 82 99 83
f 82 98 99
f 83 99 84
f 84 100 101
f 84 101 102
f 84 102 104
f 84 104 85
f 84 99 103
f 84 103 100
f 85 104 86
f 86 105 106
f 86 106 107
f 86 107 87
f 86 104 108
f 86 108 105
f 88 109 110
f 88 110 94
f 88 89 111
f 88 111 112
f 88 112 109
f 89 95 111
f 90 94 91
f 91 94 93
f 93 113 114
f 93 114 115
f 93 94 113
f 94 110 116
f 94 116 113
f 95 117 111
f 98 118 119
f 98 119 120
f 98 120 103
f 98 103 99
f 100 121 101
f 100 103 122
f 100 122 121
f 101 123 124
f 101 124 125
f 101 125 126
f 101 126 102
f 101 121 127
f 101 127 128
f 101 128 123
f 102 126 129
f 102 129 130
f 102 130 104
f 103 120 131
f 103 131 122
f 104 130 108
f 105 108 132
f 105 132 133
f 105 133 134
f 105 134 106
f 108 130 135
f 108 135 132
f 109 136 137
f 109 137 110
f 109 112 138
f 109 138 139
f 109 139 136
f 110 137 140
f 110 140 141
f 110 141 116
f 111 117 112
f 112 117 142
f 112 142 138
f 113 116 143
f 113 143 114
f 114 143 115
f 115 143 145
f 115 145 144
f 116 141 140
f 116 140 143
f 117 146 142
f 118 147 148
f 118 148 149
f 118 149 131
f 118 131 119
f 119 131 120
f 121 122 150
f 121 150 127
f 122 131 150
f 123 128 125
f 123 125 124
f 125 128 150
f 125 150 151
f 125 151 152
f 125 152 153
f 125 153 154
f 125 154 155
f 125 155 156
f 125 156 157
f 125 157 158
f 125 158 159
f 125 159 160
f 125 160 129
f 125 129 126
f 127 150 128
f 129 160 161
f 129 161 130
f 130 161 135
f 131 149 162
f 131 162 153
f 131 153 163
f 131 163 152
f 131 152 151
f 131 151 150
f 132 135 133
f 133 164 165
f 133 135 164
f 135 161 166
f 135 166 167
f 135 167 164
f 136 168 137
f 136 139 138
f 136 138 169
f 136 169 168
f 137 168 170
f 137 170 140
f 138 171 169
f 138 142 171
f 140 172 173
f 140 173 143
f 140 170 172
f 142 146 174
f 142 174 175
f 142 175 169
f 142 169 171
f 143 173 177
f 143 177 145
f 144 145 176
f 145 177 178
f 145 178 176
f 147 179 180
f 147 180 148
f 148 180 162
f 148 162 149
f 152 163 153
f 153 181 182
f 153 182 183
f 153 183 154
f 153 162 181
f 154 183 184
f 154 184 185
f 154 185 186
f 154 186 155
f 155 186 187
f 155 187 156
f 156 187 188
f 156 188 189
f 160 190 161
f 161 190 166
f 162 180 182
f 162 182 181
f 164 167 191
f 164 191 165
f 166 190 167
f 167 190 192
f 167 192 191
f 168 169 174
f 168 174 170
f 169 175 193
f 169 193 174
f 170 194 195
f 170 195 172
f 170 174 196
f 170 196 194
f 172 195 173
f 173 195 177
f 174 193 175
f 176 197 198
f 176 178 199
f 176 199 197
f 177 195 178
f 178 195 194
f 178 194 200
f 178 200 199
f 179 201 202
f 179 202 180
f 180 203 204
f 180 204 183
f 180 183 182
f 180 202 203
f 183 204 184
f 184 204 205
f 184 205 206
f 184 206 207
f 184 207 208
f 184 208 185
f 185 209 210
f 185 210 211
f 185 211 186
f 185 208 207
f 185 207 209
f 186 211 187
f 187 212 188
f 187 211 212
f 188 213 189
f 188 212 214
f 188 214 215
f 188 215 216
f 188 216 213
f 189 213 217
f 194 196 200
f 196 218 219
f 196 219 220
f 196 220 221
f 196 221 222
f 196 222 223
f 196 223 200
f 197 199 224
f 197 224 198
f 198 224 225
f 199 200 222
f 199 222 226
f 199 226 224
f 200 223 222
f 201 227 205
f 201 205 228
f 201 228 202
f 202 228 205
f 202 205 203
f 203 205 204
f 205 227 206
f 207 229 209
f 209 230 231
f 209 231 210
f 209 229 230
f 210 231 215
f 210 215 232
f 210 232 212
f 210 212 211
f 212 232 214
f 213 233 234
f 213 234 217
f 213 216 235
f 213 235 233
f 214 232 215
f 215 231 236
f 215 236 237
f 215 237 238
f 215 238 216
f 216 238 239
f 216 239 240
f 216 240 235
f 218 241 242
f 218 242 225
f 218 225 219
f 219 225 220
f 220 225 226
f 220 226 221
f 221 226 222
f 224 226 225
f 229 243 244
f 229 244 231
f 229 231 230
f 231 245 246
f 231 246 236
f 231 244 245
f 233 247 248
f 233 248 249
f 233 249 234
f 233 235 247
f 235 240 250
f 235 250 251
f 235 251 247
f 236 246 237
f 237 252 253
f 237 253 238
f 237 246 252
f 238 253 254
f 238 254 239
f 239 255 240
f 239 254 255
f 240 255 250
f 241 256 257
f 241 257 242
f 243 258 244
f 244 258 259
f 244 259 260
f 244 260 261
f 244 261 262
f 244 262 263
f 244 263 264
f 244 264 265
f 244 265 266
f 244 266 267
f 244 267 245
f 245 267 268
f 245 268 246
f 246 269 270
f 246 270 252
f 246 268 269
f 247 251 250
f 247 250 255
f 247 255 271
f 247 271 248
f 248 271 272
f 252 270 253
f 253 270 273
f 253 273 254
f 254 273 274
f 254 274 275
f 254 275 255
f 255 275 276
f 255 276 277
f 255 277 271
f 256 278 279
f 256 279 257
f 261 263 262
f 268 280 281
f 268 281 269
f 269 281 270
f 270 281 282
f 271 277 272
f 274 276 275
f 278 283 279
f 279 283 285
f 279 285 282
f 279 282 281
f 279 281 284
f 280 286 281
f 281 286 287
f 281 287 288
f 281 288 289
f 281 289 290
f 281 290 284

