# https://github.com/mikedh/trimesh
v -0.00102485 -0.00612236 0.03853064
v -0.00102485 -0.00515825 0.03845573
v -0.00666070 0.00081586 0.03817889
v -0.00516899 -0.00252852 0.03831894
v -0.02298362 -0.01834632 0.03804536
v -0.00102485 -0.01834632 0.03754054
v -0.00361493 0.00081586 0.03764802
v -0.00463162 0.00081586 0.03787274
v -0.00481433 0.00081586 0.03790531
v -0.00564616 0.00081586 0.03804536
v -0.00582887 0.00081586 0.03807467
v -0.00102485 0.00081586 0.03705852
v -0.00684341 0.00081586 0.03817238
v -0.02298362 0.00074271 0.03758939
v -0.02298362 -0.01834632 0.00525824
v -0.00102485 -0.01834632 0.00525824
v -0.00102485 0.00081586 0.00525824
v -0.02298362 0.00081586 0.03758614
v -0.02298362 0.00081586 0.00525824
f 1 2 3
f 1 3 4
f 1 4 5
f 1 5 6
f 1 6 16
f 1 16 17
f 1 17 12
f 1 12 2
f 2 7 8
f 2 8 9
f 2 9 10
f 2 10 11
f 2 11 3
f 2 12 7
f 3 11 10
f 3 10 9
f 3 9 8
f 3 8 7
f 3 7 12
f 3 12 17
f 3 17 19
f 3 19 18
f 3 18 13
f 3 13 4
f 4 13 14
f 4 14 5
f 5 14 18
f 5 18 19
f 5 19 15
f 5 15 16
f 5 16 6
f 13 18 14
f 15 19 17
f 15 17 16

