# https://github.com/mikedh/trimesh
v -0.02916786 -0.01422181 0.04253603
v -0.03237744 -0.00305814 0.04252508
v -0.02967289 -0.01422181 0.04253603
v -0.02923542 -0.01480710 0.04244480
v -0.02594942 -0.01834632 0.04147053
v -0.02608122 0.02178318 0.04156540
v -0.03279829 -0.00305814 0.04252508
v -0.02646774 0.02178318 0.04158730
v -0.02697166 0.02126467 0.04161649
v -0.02955438 -0.01480710 0.04244480
v -0.03272630 -0.00407552 0.04250319
v -0.03260337 -0.00474330 0.04241926
v -0.02599262 -0.01834632 0.04147418
v -0.02539123 -0.01834632 0.04084291
v -0.02243306 0.02178318 0.03775224
v -0.02561495 0.02178318 0.04125889
v -0.03323908 -0.00305814 0.04185732
v -0.02901835 0.01825182 0.04167852
v -0.02982462 0.01723051 0.04169312
v -0.03072392 0.01520361 0.04161284
v -0.03155788 0.01280354 0.04139025
v -0.03358352 0.00302649 0.04039044
v -0.02676345 0.02178318 0.04158365
v -0.02958982 -0.01486209 0.04185732
v -0.02760959 -0.01798100 0.03983215
v -0.02733603 -0.01834632 0.03983215
v -0.02754424 -0.01787102 0.04057289
v -0.02702371 -0.01834632 0.04087940
v -0.02663387 -0.01834632 0.04142674
v -0.03280605 -0.00508504 0.04190111
v -0.03057883 -0.01290589 0.04156176
v -0.03156009 -0.01174710 0.03945995
v -0.02994091 -0.01422181 0.04185732
v -0.03042710 -0.01355010 0.04084291
v -0.03313498 -0.00407552 0.04185732
v -0.02298461 -0.01834632 0.03804416
v -0.02243306 0.00082283 0.03757344
v -0.02243306 0.02178318 0.00526189
v -0.03361121 0.00201304 0.04046707
v -0.03345284 -0.00103124 0.04114578
v -0.03347388 -0.00204469 0.04110928
v -0.03348495 -0.00305814 0.04107280
v -0.03345284 -0.00407552 0.04099617
v -0.02870492 0.01907672 0.04160919
v -0.02961751 0.01791793 0.04156176
v -0.03060541 0.01601280 0.04150702
v -0.03163319 0.01315707 0.04081736
v -0.03247933 0.01042704 0.04013136
v -0.03256129 0.00975140 0.04040138
v -0.03261334 0.00911898 0.04050720
v -0.03355251 0.00354500 0.04033935
v -0.03360013 0.00505732 0.03948914
v -0.03365440 0.00302649 0.03983215
v -0.02694619 0.02178318 0.04120781
v -0.02755753 0.02091507 0.04149607
v -0.03158667 -0.01179817 0.03881774
v -0.03063975 -0.01392327 0.02866633
v -0.03034072 -0.01446535 0.02765557
v -0.02945581 -0.01568699 0.03069880
v -0.02766829 -0.01809492 0.03779603
v -0.02764724 -0.01805957 0.03881774
v -0.02745675 -0.01834632 0.03881774
v -0.03256018 -0.00667985 0.04139390
v -0.03146263 -0.01148785 0.04013501
v -0.03333322 -0.00503005 0.04078088
v -0.03348052 -0.00533251 0.04010217
v -0.03335094 -0.00605528 0.03979201
v -0.03257679 -0.00876567 0.03945266
v -0.03182700 -0.01117753 0.03881774
v -0.03356802 -0.00465295 0.04040138
v -0.02298461 -0.01834632 0.00525824
v -0.02243306 0.00082283 0.00526189
v -0.02654305 0.02178318 0.00526189
v -0.02298461 0.00081890 0.00525824
v -0.03368320 0.00201304 0.03983215
v -0.03360678 0.00100352 0.04056194
v -0.03360124 -0.00001386 0.04064222
v -0.03359460 -0.00103124 0.04063492
v -0.03359127 -0.00204469 0.04060208
v -0.03358463 -0.00305814 0.04056194
v -0.03357909 -0.00407552 0.04048896
v -0.02932402 0.01850322 0.04084656
v -0.02965849 0.01799256 0.04084656
v -0.03010482 0.01723051 0.04084656
v -0.03044815 0.01661773 0.04084656
v -0.02881899 0.01923777 0.04084656
v -0.03067408 0.01611100 0.04084656
v -0.03102184 0.01520361 0.04084656
v -0.03154791 0.01377771 0.04045612
v -0.03185580 0.01317278 0.03983215
v -0.03212825 0.01215933 0.03983215
v -0.03239184 0.01111053 0.03981025
v -0.03263549 0.01010493 0.03981025
v -0.03284370 0.00911898 0.03983215
v -0.03302866 0.00810160 0.03983215
v -0.03318814 0.00708815 0.03983215
v -0.03357023 0.00568975 0.03937603
v -0.03362450 0.00604720 0.03884328
v -0.03367766 0.00505732 0.03881774
v -0.02704143 0.02178318 0.04084656
v -0.03158889 -0.01180210 0.03861704
v -0.03066854 -0.01398612 0.02663386
v -0.03065414 -0.01395470 0.02765557
v -0.03183254 -0.01117753 0.03861704
v -0.03184805 -0.01117753 0.03779603
v -0.03035622 -0.01449678 0.02663386
v -0.02947132 -0.01571449 0.02968074
v -0.02768711 -0.01811849 0.03678527
v -0.02752099 -0.01834632 0.03726328
v -0.02750216 -0.01834632 0.03779603
v -0.02757858 -0.01817741 0.03861704
v -0.02746672 -0.01834632 0.03861704
v -0.03357909 -0.00568211 0.03942711
v -0.03260005 -0.00883638 0.03881774
v -0.03216812 -0.01016408 0.03881774
v -0.03365994 -0.00407552 0.03983215
v -0.03361121 -0.00503005 0.03979201
v -0.02842804 -0.01834632 0.00525824
v -0.02690742 0.02178318 0.01400115
v -0.03367323 0.00081890 0.00525824
v -0.02830621 0.01955988 0.00526189
v -0.02754978 0.02089543 0.01243940
v -0.03367987 0.00081890 0.03983215
v -0.03370092 0.00404387 0.03881774
v -0.03371642 -0.00204469 0.03881774
v -0.03371753 -0.00305814 0.03881774
v -0.03371531 -0.00407552 0.03881774
v -0.03367655 -0.00001386 0.03983215
v -0.02723857 0.02143751 0.01751510
v -0.02723303 0.02143751 0.01649704
v -0.02755975 0.02091507 0.01345381
v -0.02838042 0.01961880 0.00939617
v -0.02870270 0.01910422 0.00838175
v -0.02870270 0.01908850 0.00736370
v -0.02915789 0.01824396 0.00526189
v -0.02917672 0.01820468 0.00526189
v -0.02944474 0.01763904 0.00526189
v -0.03166309 0.01394662 0.03881774
v -0.02704032 0.02178318 0.04024448
v -0.03197652 0.01317278 0.03881774
v -0.03161768 0.01390341 0.03983215
v -0.03227665 0.01215933 0.03881774
v -0.03256239 0.01074521 0.03945995
v -0.03355473 0.00761059 0.03832513
v -0.03346169 0.00708815 0.03898559
v -0.03351818 0.00636538 0.03919723
v -0.03359127 0.00708815 0.03847838
v -0.03367766 0.00607470 0.03779967
v -0.03159664 -0.01181388 0.03779603
v -0.03067630 -0.01400969 0.02561945
v -0.03041935 -0.01457534 0.02258716
v -0.03037284 -0.01451642 0.02561945
v -0.03217255 -0.01016408 0.03861704
v -0.03186355 -0.01117753 0.03475279
v -0.03125663 -0.01320836 0.00533487
v -0.03218805 -0.01016408 0.03779603
v -0.03221796 -0.01016408 0.03475279
v -0.03222682 -0.01016408 0.03374203
v -0.03224343 -0.01016408 0.03171321
v -0.03224897 -0.01016408 0.03069880
v -0.03225450 -0.01016408 0.02968074
v -0.02965517 -0.01600124 0.01751145
v -0.02999960 -0.01523526 0.02258716
v -0.02895411 -0.01726609 0.01345381
v -0.02770483 -0.01813813 0.03577450
v -0.02755310 -0.01834632 0.03620143
v -0.03358906 -0.00572139 0.03881774
v -0.03343290 -0.00622812 0.03881774
v -0.03315159 -0.00711980 0.03881774
v -0.03282598 -0.00813325 0.03881774
v -0.03366880 -0.00508897 0.03881774
v -0.03260226 -0.00884031 0.03861704
v -0.02842804 -0.01834632 0.00533487
v -0.02864290 -0.01803207 0.00525824
v -0.02694729 0.02178318 0.01498272
v -0.03368098 0.00100352 0.00526189
v -0.03364776 0.00201304 0.00526189
v -0.03357798 0.00263368 0.00526189
v -0.03357245 0.00268082 0.00526189
v -0.03304084 0.00708815 0.00526189
v -0.03287582 0.00810160 0.00526189
v -0.03268865 0.00911898 0.00526189
v -0.03256572 0.00973962 0.00526189
v -0.03243392 0.01024634 0.00526189
v -0.03220356 0.01108303 0.00526189
v -0.03186687 0.01215933 0.00526189
v -0.03159110 0.01288996 0.00526189
v -0.02967621 0.01713231 0.00526189
v -0.02873039 0.01899423 0.00526189
v -0.02869606 0.01904922 0.00526189
v -0.03353701 -0.00305814 0.00525824
v -0.02836934 0.01961487 0.00838175
v -0.02697609 0.02178318 0.01597524
v -0.03374743 0.00100352 0.01345381
v -0.03372639 -0.00204469 0.03779603
v -0.03371864 -0.00204469 0.03861704
v -0.03371531 -0.00407552 0.03861704
v -0.02699270 0.02178318 0.01751510
v -0.02698938 0.02178318 0.01698600
v -0.02698606 0.02178318 0.01649704
v -0.03188349 0.01341240 0.03811714
v -0.03198206 0.01317278 0.03779967
v -0.03232649 0.01215933 0.03779967
v -0.03243392 0.01173117 0.03811714
v -0.03264435 0.01103197 0.03779967
v -0.03355916 0.00762237 0.03811714
v -0.03358352 0.00740240 0.03811714
v -0.03360899 0.00708815 0.03811714
v -0.03362450 0.00708815 0.03779967
v -0.03368874 0.00302649 0.01751510
v -0.03372861 0.00201304 0.01649704
v -0.03122673 -0.01327907 0.00525824
v -0.03081363 -0.01422181 0.00525824
v -0.03080144 -0.01422181 0.00634928
v -0.03071727 -0.01413146 0.01751145
v -0.03069845 -0.01409611 0.02055834
v -0.03043818 -0.01460284 0.02055834
v -0.03043043 -0.01459105 0.02157275
v -0.02938825 -0.01658653 0.01345381
v -0.03125663 -0.01320836 0.00525824
v -0.03147925 -0.01257593 0.00533487
v -0.03315491 -0.00711980 0.03861704
v -0.03247379 -0.00946095 0.03171321
v -0.03230434 -0.01016408 0.00837811
v -0.03196101 -0.01117753 0.00736370
v -0.03247711 -0.00946488 0.03069880
v -0.03248265 -0.00946095 0.02968074
v -0.02937497 -0.01656689 0.01446822
v -0.02861189 -0.01796922 0.00939617
v -0.02858198 -0.01792601 0.01142134
v -0.02835937 -0.01834632 0.00837811
v -0.03366769 -0.00508897 0.03861704
v -0.03345948 -0.00407552 0.00525824
v -0.03329778 -0.00508897 0.00525824
v -0.03274292 -0.00813325 0.00525824
v -0.03259230 -0.00893065 0.00525824
v -0.03249483 -0.00944131 0.00533487
v -0.03249926 -0.00946095 0.00634928
v -0.03250148 -0.00947666 0.00736370
v -0.03250480 -0.00948452 0.00837811
v -0.03250480 -0.00948452 0.00939617
v -0.03263438 -0.00895030 0.03171321
v -0.03317042 -0.00711980 0.03678527
v -0.03316267 -0.00711980 0.03779603
v -0.03371199 -0.00407552 0.03779603
v -0.03370646 -0.00407552 0.03678527
v -0.02840810 -0.01834632 0.00634928
v -0.02863514 -0.01800457 0.00736370
v -0.02864068 -0.01802029 0.00634928
v -0.02864290 -0.01803207 0.00533487
v -0.02910030 -0.01726609 0.00525824
v -0.03369317 0.00100352 0.00634928
v -0.03370424 0.00100352 0.00736370
v -0.03371199 0.00100352 0.00838175
v -0.03356580 0.00766165 0.03678892
v -0.03356026 0.00763023 0.03614305
v -0.03321472 0.00911898 0.03069515
v -0.03325127 0.00911898 0.03272397
v -0.03326899 0.00911898 0.03373838
v -0.03297439 0.01013243 0.03373838
v -0.03251477 0.01158976 0.03576720
v -0.03353147 -0.00313277 0.00525824
v -0.03354476 -0.00332918 0.00736370
v -0.03370978 -0.00001386 0.01142134
v -0.03370092 -0.00001386 0.01041058
v -0.03371753 -0.00001386 0.01243940
v -0.03374300 0.00081890 0.01345381
v -0.03372196 -0.00001386 0.01345381
v -0.03232649 0.01215933 0.03678892
v -0.03252031 0.01158976 0.03678892
v -0.03250369 0.01153476 0.03779967
v -0.03294781 0.01013243 0.03576720
v -0.03356469 0.00764201 0.03779967
v -0.03052789 -0.01476389 0.00525824
v -0.03052789 -0.01476389 0.00533487
v -0.03045147 -0.01462640 0.01852586
v -0.03013029 -0.01523526 0.01650069
v -0.02939933 -0.01659831 0.01243940
v -0.02906708 -0.01726609 0.00837811
v -0.02862518 -0.01798886 0.00837811
v -0.03149143 -0.01254058 0.00525824
v -0.03230434 -0.01016408 0.00736370
v -0.03196101 -0.01117753 0.00634928
v -0.02838485 -0.01834632 0.00736370
v -0.03355251 -0.00357665 0.00974647
v -0.03250037 -0.00940596 0.00525824
v -0.03249262 -0.00944131 0.00525824
v -0.03228773 -0.01016408 0.00533487
v -0.03229880 -0.01016408 0.00634928
v -0.03362782 -0.00204469 0.01142134
v -0.02908258 -0.01726609 0.00736370
v -0.02909476 -0.01726609 0.00634928
v -0.02910030 -0.01726609 0.00533487
v -0.02973158 -0.01616229 0.00525824
v -0.03325127 0.00911898 0.03475279
v -0.03296996 0.01013243 0.03475279
v -0.02973158 -0.01616229 0.00533487
v -0.02942037 -0.01663367 0.00939617
v -0.03015466 -0.01523526 0.01446822
v -0.03165312 -0.01206921 0.00533487
v -0.03165202 -0.01206921 0.00525824
v -0.03195437 -0.01117753 0.00533487
v -0.03228552 -0.01016408 0.00525824
v -0.03195215 -0.01117753 0.00525824
f 1 2 7
f 1 7 3
f 1 3 10
f 1 10 4
f 1 4 5
f 1 5 6
f 1 6 2
f 2 6 8
f 2 8 9
f 2 9 7
f 3 7 11
f 3 11 12
f 3 12 10
f 4 10 13
f 4 13 5
f 5 13 29
f 5 29 28
f 5 28 26
f 5 26 62
f 5 62 112
f 5 112 110
f 5 110 109
f 5 109 166
f 5 166 231
f 5 231 284
f 5 284 247
f 5 247 173
f 5 173 118
f 5 118 71
f 5 71 36
f 5 36 14
f 5 14 15
f 5 15 16
f 5 16 6
f 6 16 15
f 6 15 38
f 6 38 73
f 6 73 119
f 6 119 175
f 6 175 193
f 6 193 200
f 6 200 199
f 6 199 198
f 6 198 139
f 6 139 100
f 6 100 54
f 6 54 23
f 6 23 8
f 7 17 11
f 7 9 18
f 7 18 19
f 7 19 20
f 7 20 21
f 7 21 22
f 7 22 17
f 8 23 9
f 9 23 19
f 9 19 18
f 10 24 25
f 10 25 26
f 10 26 27
f 10 27 28
f 10 28 29
f 10 29 13
f 10 12 30
f 10 30 31
f 10 31 32
f 10 32 33
f 10 33 34
f 10 34 24
f 11 17 35
f 11 35 12
f 12 35 30
f 14 36 37
f 14 37 15
f 15 37 72
f 15 72 38
f 17 22 39
f 17 39 40
f 17 40 41
f 17 41 42
f 17 42 43
f 17 43 35
f 19 23 44
f 19 44 45
f 19 45 46
f 19 46 20
f 20 46 21
f 21 46 47
f 21 47 48
f 21 48 49
f 21 49 50
f 21 50 51
f 21 51 22
f 22 51 52
f 22 52 53
f 22 53 39
f 23 54 55
f 23 55 44
f 24 34 56
f 24 56 57
f 24 57 58
f 24 58 59
f 24 59 60
f 24 60 61
f 24 61 62
f 24 62 25
f 25 62 26
f 26 28 27
f 30 35 63
f 30 63 31
f 31 64 32
f 31 63 65
f 31 65 66
f 31 66 67
f 31 67 68
f 31 68 64
f 32 56 34
f 32 34 33
f 32 64 68
f 32 68 69
f 32 69 56
f 35 43 70
f 35 70 65
f 35 65 63
f 36 71 72
f 36 72 37
f 38 72 71
f 38 71 74
f 38 74 120
f 38 120 73
f 39 53 75
f 39 75 76
f 39 76 40
f 40 76 77
f 40 77 41
f 41 77 42
f 42 77 78
f 42 78 79
f 42 79 80
f 42 80 81
f 42 81 43
f 43 81 70
f 44 55 45
f 45 82 83
f 45 83 84
f 45 84 85
f 45 85 46
f 45 55 86
f 45 86 82
f 46 87 88
f 46 88 89
f 46 89 47
f 46 85 87
f 47 90 91
f 47 91 48
f 47 89 90
f 48 92 93
f 48 93 49
f 48 91 92
f 49 93 94
f 49 94 95
f 49 95 96
f 49 96 51
f 49 51 50
f 51 96 97
f 51 97 52
f 52 97 98
f 52 98 99
f 52 99 53
f 53 99 75
f 54 100 55
f 55 100 86
f 56 101 102
f 56 102 103
f 56 103 57
f 56 69 104
f 56 104 105
f 56 105 101
f 57 103 106
f 57 106 58
f 58 106 59
f 59 106 107
f 59 107 108
f 59 108 60
f 60 108 109
f 60 109 110
f 60 110 111
f 60 111 61
f 61 111 112
f 61 112 62
f 65 70 66
f 66 70 113
f 66 113 67
f 67 113 68
f 68 113 114
f 68 114 115
f 68 115 69
f 69 115 104
f 70 81 116
f 70 116 117
f 70 117 113
f 71 118 174
f 71 174 251
f 71 251 294
f 71 294 274
f 71 274 213
f 71 213 212
f 71 212 220
f 71 220 281
f 71 281 301
f 71 301 304
f 71 304 303
f 71 303 287
f 71 287 286
f 71 286 236
f 71 236 235
f 71 235 234
f 71 234 233
f 71 233 262
f 71 262 191
f 71 191 120
f 71 120 74
f 73 120 121
f 73 121 122
f 73 122 119
f 75 123 77
f 75 77 76
f 75 99 124
f 75 124 125
f 75 125 126
f 75 126 127
f 75 127 123
f 77 123 128
f 77 128 116
f 77 116 79
f 77 79 78
f 79 116 80
f 80 116 81
f 82 86 129
f 82 129 130
f 82 130 131
f 82 131 83
f 83 131 132
f 83 132 133
f 83 133 134
f 83 134 84
f 84 134 135
f 84 135 85
f 85 135 136
f 85 136 137
f 85 137 138
f 85 138 87
f 86 100 139
f 86 139 129
f 87 138 140
f 87 140 141
f 87 141 88
f 88 141 90
f 88 90 89
f 90 140 142
f 90 142 91
f 90 141 140
f 91 142 143
f 91 143 92
f 92 143 93
f 93 143 144
f 93 144 94
f 94 144 145
f 94 145 95
f 95 145 146
f 95 146 97
f 95 97 96
f 97 146 144
f 97 144 147
f 97 147 98
f 98 147 99
f 99 147 148
f 99 148 124
f 101 149 150
f 101 150 102
f 101 105 149
f 102 150 151
f 102 151 152
f 102 152 106
f 102 106 103
f 104 115 153
f 104 153 156
f 104 156 105
f 105 154 155
f 105 155 149
f 105 156 157
f 105 157 158
f 105 158 159
f 105 159 160
f 105 160 161
f 105 161 154
f 106 152 162
f 106 162 163
f 106 163 107
f 107 163 162
f 107 162 164
f 107 164 108
f 108 164 165
f 108 165 109
f 109 165 166
f 110 112 111
f 113 167 168
f 113 168 169
f 113 169 170
f 113 170 114
f 113 117 171
f 113 171 167
f 114 170 172
f 114 172 156
f 114 156 153
f 114 153 115
f 116 127 171
f 116 171 117
f 116 128 127
f 118 173 250
f 118 250 174
f 119 122 175
f 120 176 177
f 120 177 178
f 120 178 179
f 120 179 180
f 120 180 181
f 120 181 182
f 120 182 183
f 120 183 184
f 120 184 185
f 120 185 186
f 120 186 187
f 120 187 188
f 120 188 137
f 120 137 136
f 120 136 135
f 120 135 189
f 120 189 190
f 120 190 121
f 120 191 176
f 121 190 122
f 122 190 192
f 122 192 131
f 122 131 193
f 122 193 175
f 123 127 128
f 124 148 194
f 124 194 195
f 124 195 196
f 124 196 125
f 125 196 126
f 126 196 195
f 126 195 127
f 127 195 194
f 127 194 197
f 127 197 171
f 129 139 198
f 129 198 130
f 130 198 199
f 130 199 200
f 130 200 131
f 131 200 193
f 131 192 132
f 132 192 134
f 132 134 133
f 134 192 190
f 134 190 189
f 134 189 135
f 137 188 138
f 138 188 187
f 138 187 201
f 138 201 140
f 140 201 202
f 140 202 203
f 140 203 142
f 142 203 204
f 142 204 205
f 142 205 144
f 142 144 143
f 144 206 207
f 144 207 147
f 144 146 145
f 144 205 206
f 147 207 208
f 147 208 148
f 148 208 209
f 148 209 210
f 148 210 211
f 148 211 194
f 149 155 212
f 149 212 213
f 149 213 214
f 149 214 215
f 149 215 216
f 149 216 150
f 150 216 217
f 150 217 218
f 150 218 151
f 151 218 219
f 151 219 162
f 151 162 152
f 154 161 155
f 155 220 212
f 155 161 221
f 155 221 220
f 156 172 222
f 156 222 223
f 156 223 157
f 157 223 158
f 158 223 159
f 159 223 160
f 160 223 161
f 161 224 225
f 161 225 221
f 161 223 226
f 161 226 227
f 161 227 224
f 162 219 228
f 162 228 164
f 164 228 229
f 164 229 230
f 164 230 165
f 165 230 166
f 166 230 229
f 166 229 231
f 167 171 232
f 167 232 233
f 167 233 234
f 167 234 235
f 167 235 236
f 167 236 237
f 167 237 238
f 167 238 239
f 167 239 240
f 167 240 241
f 167 241 224
f 167 224 242
f 167 242 243
f 167 243 168
f 168 243 244
f 168 244 222
f 168 222 169
f 169 222 172
f 169 172 170
f 171 197 245
f 171 245 246
f 171 246 232
f 173 247 248
f 173 248 249
f 173 249 250
f 174 250 293
f 174 293 251
f 176 252 177
f 176 191 252
f 177 253 254
f 177 254 211
f 177 211 210
f 177 210 209
f 177 209 255
f 177 255 256
f 177 256 178
f 177 252 253
f 178 256 179
f 179 256 180
f 180 256 257
f 180 257 181
f 181 257 182
f 182 257 183
f 183 257 184
f 184 257 185
f 185 257 258
f 185 258 259
f 185 259 260
f 185 260 186
f 186 260 261
f 186 261 202
f 186 202 187
f 187 202 201
f 191 262 263
f 191 263 264
f 191 264 265
f 191 265 253
f 191 253 252
f 194 211 254
f 194 254 266
f 194 266 267
f 194 267 197
f 197 267 268
f 197 268 245
f 202 261 269
f 202 269 270
f 202 270 203
f 203 270 271
f 203 271 204
f 204 271 205
f 205 271 270
f 205 270 272
f 205 272 273
f 205 273 206
f 206 273 207
f 207 209 208
f 207 273 209
f 209 273 255
f 213 274 275
f 213 275 214
f 214 275 276
f 214 276 215
f 215 276 216
f 216 276 217
f 217 276 277
f 217 277 218
f 218 277 278
f 218 278 219
f 219 278 279
f 219 279 248
f 219 248 280
f 219 280 229
f 219 229 228
f 220 221 281
f 221 225 281
f 222 244 223
f 223 244 242
f 223 242 226
f 224 227 242
f 224 241 240
f 224 240 282
f 224 282 283
f 224 283 225
f 225 283 281
f 226 242 227
f 229 280 231
f 231 280 284
f 232 246 285
f 232 285 233
f 233 285 263
f 233 263 262
f 236 286 237
f 237 286 287
f 237 287 303
f 237 303 288
f 237 288 289
f 237 289 238
f 238 289 239
f 239 289 240
f 240 289 282
f 242 244 243
f 245 268 266
f 245 266 246
f 246 266 290
f 246 290 285
f 247 284 280
f 247 280 248
f 248 279 291
f 248 291 249
f 249 291 292
f 249 292 250
f 250 292 293
f 251 293 297
f 251 297 294
f 253 265 264
f 253 264 266
f 253 266 254
f 255 273 259
f 255 259 256
f 256 259 258
f 256 258 257
f 259 273 295
f 259 295 296
f 259 296 260
f 260 296 270
f 260 270 261
f 261 270 269
f 263 285 290
f 263 290 264
f 264 290 266
f 266 268 267
f 270 296 272
f 272 296 295
f 272 295 273
f 274 294 297
f 274 297 275
f 275 297 292
f 275 292 298
f 275 298 299
f 275 299 276
f 276 299 277
f 277 299 298
f 277 298 278
f 278 298 291
f 278 291 279
f 281 283 300
f 281 300 301
f 282 289 283
f 283 289 302
f 283 302 300
f 288 303 304
f 288 304 302
f 288 302 289
f 291 298 292
f 292 297 293
f 300 302 301
f 301 302 304

