# https://github.com/mikedh/trimesh
v -0.00102485 -0.03147540 0.04206843
v -0.02329842 -0.02177154 0.04238846
v -0.02214491 -0.02268007 0.04241392
v -0.01832490 -0.02588949 0.04237028
v -0.01832490 -0.02589637 0.04237028
v -0.00158819 -0.03147540 0.04207571
v -0.00102485 -0.03222175 0.04163203
v -0.00102485 -0.03061223 0.04179204
v -0.02343255 -0.02177154 0.04238846
v -0.00102753 -0.01834769 0.03754075
v -0.02594614 -0.01834769 0.04147201
v -0.02246682 -0.02291786 0.04241392
v -0.01833563 -0.02589637 0.04237028
v -0.00260221 -0.03147540 0.04206843
v -0.00260221 -0.03218051 0.04157384
v -0.00158819 -0.03220800 0.04161021
v -0.00102485 -0.03229597 0.04129018
v -0.00102485 -0.02881440 0.03818081
v -0.02343255 -0.02187737 0.04238846
v -0.02598370 -0.01834769 0.04147201
v -0.02663021 -0.01834769 0.04142837
v -0.00102753 -0.01834769 0.00526146
v -0.02311332 -0.02253163 0.04186114
v -0.02260631 -0.02305668 0.04186114
v -0.02203760 -0.02356386 0.04186114
v -0.02153059 -0.02400507 0.04186114
v -0.02138305 -0.02387312 0.04237391
v -0.00361892 -0.03147540 0.04197024
v -0.01781789 -0.02706056 0.04159202
v -0.01448610 -0.02906043 0.04149383
v -0.01249562 -0.03006656 0.04144292
v -0.01024492 -0.03097372 0.04136291
v -0.00463294 -0.03210079 0.04147201
v -0.00361892 -0.03215028 0.04153020
v -0.00361892 -0.03230559 0.04084650
v -0.00260221 -0.03233858 0.04084650
v -0.00102485 -0.03238806 0.04084650
v -0.00102485 -0.03186576 0.03818081
v -0.02357741 -0.02202444 0.04186114
v -0.02649339 -0.01884938 0.04139928
v -0.02701918 -0.01834769 0.04087923
v -0.00102753 -0.03020538 0.00526146
v -0.02843022 -0.01834769 0.00526146
v -0.02470947 -0.02113790 0.04084650
v -0.02423733 -0.02164371 0.04084650
v -0.02373032 -0.02216601 0.04084650
v -0.02322331 -0.02267457 0.04084650
v -0.02271362 -0.02318038 0.04084650
v -0.02220124 -0.02368757 0.04084650
v -0.02169423 -0.02417139 0.04084650
v -0.02114698 -0.02467995 0.04084650
v -0.02063729 -0.02513765 0.04084650
v -0.02050316 -0.02500020 0.04160294
v -0.01941671 -0.02595410 0.04148656
v -0.01833026 -0.02690936 0.04135564
v -0.00543503 -0.03203894 0.04140655
v -0.01639611 -0.02798284 0.04148292
v -0.01256268 -0.03011466 0.04084650
v -0.01833026 -0.02690936 0.04134837
v -0.01970643 -0.02612041 0.00526146
v -0.01173645 -0.03044042 0.04084650
v -0.01027980 -0.03098471 0.04084650
v -0.00555575 -0.03206918 0.04084650
v -0.00463294 -0.03222312 0.04084650
v -0.00313873 -0.03097097 0.01796080
v -0.00260221 -0.03116340 0.02055739
v -0.00158551 -0.03140256 0.02359767
v -0.00102485 -0.03230697 0.04039192
v -0.00102753 -0.03150427 0.02516872
v -0.00102753 -0.03144516 0.02415408
v -0.00102753 -0.03141080 0.02359767
v -0.00102753 -0.03134757 0.02258303
v -0.00102753 -0.03121700 0.02055739
v -0.00102753 -0.03020813 0.00530147
v -0.02457534 -0.02101144 0.04157384
v -0.02521648 -0.02057436 0.04084650
v -0.02658192 -0.01895659 0.04084650
v -0.02616075 -0.01946515 0.04084650
v -0.02565374 -0.02006717 0.04084650
v -0.02733304 -0.01834769 0.03983187
v -0.00462757 -0.03003494 0.00526146
v -0.02840877 -0.01834769 0.00634883
v -0.02829073 -0.01854424 0.00526146
v -0.02829073 -0.01854424 0.00533420
v -0.02627342 -0.01960947 0.03983187
v -0.02576373 -0.02016339 0.03983187
v -0.02528622 -0.02067057 0.03983187
v -0.02477922 -0.02118188 0.03983187
v -0.02222807 -0.02370819 0.03983187
v -0.02171837 -0.02420438 0.03983187
v -0.02118990 -0.02471156 0.03983187
v -0.02068290 -0.02518163 0.03983187
v -0.02003102 -0.02564209 0.04084650
v -0.02006322 -0.02568607 0.03983187
v -0.02202687 -0.02463184 0.00526146
v -0.02152255 -0.02497821 0.00526146
v -0.02021612 -0.02580290 0.00526146
v -0.01889897 -0.02654925 0.00526146
v -0.01883459 -0.02658224 0.00526146
v -0.01821223 -0.02686125 0.00526146
v -0.01598031 -0.02779178 0.00526146
v -0.01547062 -0.02800208 0.00526146
v -0.01482411 -0.02824949 0.00526146
v -0.01027175 -0.03098334 0.04029736
v -0.01293020 -0.02887350 0.00526146
v -0.01242319 -0.02897247 0.00526146
v -0.01177937 -0.02907280 0.00526146
v -0.00666098 -0.02980128 0.00526146
v -0.00592863 -0.02990437 0.00526146
v -0.00555575 -0.03001982 0.00634883
v -0.00536529 -0.02998409 0.00533420
v -0.00534919 -0.02998134 0.00526146
v -0.00463026 -0.03017377 0.00736347
v -0.00463026 -0.03010779 0.00634883
v -0.00260221 -0.03110017 0.01953912
v -0.00158551 -0.03133933 0.02258303
v -0.00158551 -0.03127336 0.02157203
v -0.02671605 -0.01910091 0.03983187
v -0.02722306 -0.01849201 0.03983187
v -0.02745376 -0.01834769 0.03881723
v -0.02730354 -0.01857173 0.03881723
v -0.00469732 -0.03003082 0.00526146
v -0.02827732 -0.01853187 0.00634883
v -0.02833633 -0.01834769 0.00911999
v -0.02825586 -0.01858960 0.00526146
v -0.02679652 -0.01917376 0.03881723
v -0.02632171 -0.01968094 0.03881723
v -0.02422928 -0.02267045 0.01649884
v -0.02414344 -0.02259210 0.02055739
v -0.02426684 -0.02271168 0.01446957
v -0.02428025 -0.02272955 0.01345130
v -0.02433659 -0.02278316 0.00939638
v -0.02439024 -0.02283126 0.00526146
v -0.02272167 -0.02412465 0.00533420
v -0.02272167 -0.02412465 0.00526146
v -0.01376449 -0.02863297 0.00526146
v -0.01299458 -0.02885838 0.00526146
v -0.02748327 -0.01834769 0.03818081
v -0.02731963 -0.01859235 0.03818081
v -0.02778640 -0.01916276 0.00526146
v -0.02739743 -0.01870918 0.03272941
v -0.02755034 -0.01834769 0.03619881
v -0.02735450 -0.01865008 0.03577332
v -0.02734109 -0.01862809 0.03678432
v -0.02732768 -0.01860335 0.03780259
v -0.02681262 -0.01918063 0.03818081
v -0.02663557 -0.01937031 0.03818081
v -0.02542572 -0.02182926 0.00526146
v -0.02502333 -0.02222237 0.00526146
v -0.02751814 -0.01834769 0.03726436
v -0.02734109 -0.01966857 0.00526146
v -0.02682067 -0.01918475 0.03780259
v -0.02585762 -0.02134270 0.00526146
f 1 2 3
f 1 3 4
f 1 4 5
f 1 5 6
f 1 6 7
f 1 7 17
f 1 17 37
f 1 37 68
f 1 68 38
f 1 38 18
f 1 18 8
f 1 8 2
f 2 9 3
f 2 8 10
f 2 10 11
f 2 11 20
f 2 20 9
f 3 9 12
f 3 12 5
f 3 5 4
f 5 13 6
f 5 12 13
f 6 13 14
f 6 14 7
f 7 14 15
f 7 15 16
f 7 16 17
f 8 18 10
f 9 19 12
f 9 20 21
f 9 21 19
f 10 22 43
f 10 43 82
f 10 82 124
f 10 124 142
f 10 142 150
f 10 150 138
f 10 138 120
f 10 120 80
f 10 80 41
f 10 41 21
f 10 21 20
f 10 20 11
f 10 18 22
f 12 19 23
f 12 23 24
f 12 24 25
f 12 25 26
f 12 26 27
f 12 27 13
f 13 28 14
f 13 27 29
f 13 29 30
f 13 30 31
f 13 31 32
f 13 32 28
f 14 28 33
f 14 33 34
f 14 34 15
f 15 34 35
f 15 35 16
f 16 35 17
f 17 35 36
f 17 36 37
f 18 38 42
f 18 42 22
f 19 39 23
f 19 21 40
f 19 40 39
f 21 41 40
f 22 42 81
f 22 81 122
f 22 122 112
f 22 112 109
f 22 109 108
f 22 108 107
f 22 107 106
f 22 106 105
f 22 105 137
f 22 137 136
f 22 136 103
f 22 103 102
f 22 102 101
f 22 101 100
f 22 100 99
f 22 99 98
f 22 98 60
f 22 60 97
f 22 97 96
f 22 96 95
f 22 95 135
f 22 135 133
f 22 133 149
f 22 149 148
f 22 148 153
f 22 153 151
f 22 151 140
f 22 140 125
f 22 125 83
f 22 83 43
f 23 39 44
f 23 44 45
f 23 45 24
f 24 45 46
f 24 46 47
f 24 47 48
f 24 48 49
f 24 49 50
f 24 50 51
f 24 51 52
f 24 52 25
f 25 52 53
f 25 53 26
f 26 53 27
f 27 53 54
f 27 54 55
f 27 55 29
f 28 32 56
f 28 56 33
f 29 57 30
f 29 55 57
f 30 58 31
f 30 57 55
f 30 55 59
f 30 59 60
f 30 60 58
f 31 58 32
f 32 58 61
f 32 61 62
f 32 62 63
f 32 63 56
f 33 56 64
f 33 64 35
f 33 35 34
f 35 64 65
f 35 65 66
f 35 66 67
f 35 67 36
f 36 67 37
f 37 67 69
f 37 69 70
f 37 70 71
f 37 71 72
f 37 72 73
f 37 73 74
f 37 74 42
f 37 42 68
f 38 68 42
f 39 75 76
f 39 76 44
f 39 40 75
f 40 41 77
f 40 77 78
f 40 78 79
f 40 79 75
f 41 80 77
f 42 74 81
f 43 83 84
f 43 84 82
f 44 76 85
f 44 85 86
f 44 86 45
f 45 86 87
f 45 87 46
f 46 87 88
f 46 88 47
f 47 88 48
f 48 88 89
f 48 89 49
f 49 89 90
f 49 90 91
f 49 91 50
f 50 91 51
f 51 91 92
f 51 92 52
f 52 93 55
f 52 55 54
f 52 54 53
f 52 92 93
f 55 93 94
f 55 94 95
f 55 95 96
f 55 96 97
f 55 97 60
f 55 60 59
f 56 63 64
f 58 60 98
f 58 98 99
f 58 99 100
f 58 100 101
f 58 101 102
f 58 102 61
f 61 102 103
f 61 103 104
f 61 104 62
f 62 104 63
f 63 104 105
f 63 105 106
f 63 106 64
f 64 106 107
f 64 107 108
f 64 108 109
f 64 109 110
f 64 110 111
f 64 111 112
f 64 112 65
f 65 112 113
f 65 113 114
f 65 114 81
f 65 81 74
f 65 74 115
f 65 115 66
f 66 115 67
f 67 115 116
f 67 116 72
f 67 72 71
f 67 71 70
f 67 70 69
f 72 116 73
f 73 116 117
f 73 117 74
f 74 117 115
f 75 79 76
f 76 79 118
f 76 118 85
f 77 80 119
f 77 119 78
f 78 119 118
f 78 118 79
f 80 120 121
f 80 121 119
f 81 114 122
f 82 84 123
f 82 123 124
f 83 125 84
f 84 125 123
f 85 118 126
f 85 126 86
f 86 126 127
f 86 127 87
f 87 127 88
f 88 127 128
f 88 128 129
f 88 129 89
f 89 129 128
f 89 128 90
f 90 128 130
f 90 130 91
f 91 130 92
f 92 94 93
f 92 130 131
f 92 131 132
f 92 132 133
f 92 133 94
f 94 133 134
f 94 134 95
f 95 134 135
f 103 136 104
f 104 136 137
f 104 137 105
f 109 112 111
f 109 111 110
f 112 122 114
f 112 114 113
f 115 117 116
f 118 119 121
f 118 121 126
f 120 138 139
f 120 139 121
f 121 139 126
f 123 125 140
f 123 140 141
f 123 141 124
f 124 141 143
f 124 143 144
f 124 144 142
f 126 139 145
f 126 145 146
f 126 146 147
f 126 147 127
f 127 147 148
f 127 148 130
f 127 130 128
f 130 148 131
f 131 148 132
f 132 148 149
f 132 149 133
f 133 135 134
f 138 150 145
f 138 145 139
f 140 151 141
f 141 152 146
f 141 146 143
f 141 151 153
f 141 153 148
f 141 148 152
f 142 144 145
f 142 145 150
f 143 146 144
f 144 146 145
f 146 152 148
f 146 148 147

