# https://github.com/mikedh/trimesh
v 0.03027044 -0.01340399 0.00533348
v 0.03027044 -0.01340399 0.00526142
v 0.03023062 -0.01340399 0.01243861
v 0.02945566 -0.01491601 0.02055980
v 0.02945872 -0.01491973 0.01954736
v 0.02874810 -0.01625485 0.02562564
v 0.02874810 -0.01625485 0.02460598
v 0.02876648 -0.01619713 0.00526142
v -0.00101873 -0.01340399 0.00526142
v 0.03022143 -0.01340399 0.01347628
v 0.02939440 -0.01480801 0.03069507
v 0.02919530 -0.01537222 0.02460598
v 0.02873890 -0.01625485 0.02765053
v 0.02874503 -0.01625485 0.02663808
v 0.02841422 -0.01684886 0.02866297
v 0.02841422 -0.01685445 0.02765053
v 0.02840197 -0.01686376 0.00526142
v -0.00101873 -0.01340399 0.03726336
v -0.00101873 -0.03020378 0.00526142
v 0.03001008 -0.01340399 0.03171833
v 0.02915242 -0.01531450 0.03069507
v 0.02987224 -0.01340399 0.03983231
v 0.02871440 -0.01625485 0.02968263
v 0.02723801 -0.01866998 0.00736558
v 0.02840503 -0.01683769 0.02968263
v 0.02658864 -0.01914109 0.03983231
v 0.02724413 -0.01866998 0.00533348
v 0.02758720 -0.01816163 0.00634953
v 0.02762395 -0.01810577 0.00526142
v 0.02809260 -0.01737025 0.00526142
v 0.02838053 -0.01689914 0.00526142
v -0.00101873 -0.03147372 0.04206978
v -0.00058071 -0.01340399 0.03734623
v 0.00248235 -0.03037509 0.00526142
v -0.00101873 -0.03121676 0.02055980
v 0.02985386 -0.01340399 0.04003047
v 0.02950161 -0.01396634 0.04059615
v 0.02845098 -0.01593271 0.04058894
v 0.02740035 -0.01789722 0.04057093
v 0.02953530 -0.01402593 0.03983231
v 0.02838666 -0.01681348 0.03069507
v 0.02868684 -0.01625485 0.03069507
v 0.02666521 -0.01939061 0.00526142
v 0.02618737 -0.01964944 0.03983231
v 0.02709711 -0.01839626 0.03983231
v 0.02652125 -0.01907778 0.04084836
v 0.02615062 -0.01958427 0.04084836
v 0.02724413 -0.01866998 0.00526142
v 0.02758720 -0.01816163 0.00526142
v -0.00101873 -0.03222228 0.04163382
v -0.00056539 -0.03223346 0.04164462
v 0.00045154 -0.03225580 0.04166624
v 0.00146541 -0.03225580 0.04164462
v 0.00045154 -0.03147372 0.04203735
v 0.02378288 -0.02031421 0.04181757
v 0.02682756 -0.01625671 0.04175632
v 0.02780774 -0.01420841 0.04163382
v 0.02808647 -0.01340399 0.04154734
v 0.00349622 -0.03034343 0.00526142
v 0.00248235 -0.03044026 0.00634953
v 0.00045154 -0.03168042 0.02765053
v -0.00056233 -0.03154076 0.02562564
v -0.00101873 -0.03144393 0.02415200
v -0.00101873 -0.03141041 0.02360435
v -0.00101873 -0.03134710 0.02258469
v 0.02965782 -0.01340399 0.04083394
v 0.02829170 -0.01566271 0.04126631
v 0.02726557 -0.01769052 0.04124829
v 0.02704503 -0.01825660 0.04088439
v 0.02658557 -0.01948744 0.00526142
v 0.02430053 -0.02184671 0.04136359
v 0.02637116 -0.01888599 0.04138521
v -0.00101873 -0.03238615 0.04084836
v -0.00056539 -0.03239918 0.04084836
v 0.00045154 -0.03242711 0.04084836
v 0.00247929 -0.03219994 0.04158337
v 0.00146541 -0.03147372 0.04197610
v 0.00146541 -0.03241408 0.04084836
v 0.02276900 -0.02234203 0.04172749
v 0.02276900 -0.02132905 0.04181036
v 0.02378288 -0.02132905 0.04170947
v 0.02479675 -0.01929937 0.04177794
v 0.02581368 -0.01828453 0.04172028
v 0.02865008 -0.01422517 0.04158697
v 0.02887981 -0.01340399 0.04156176
v 0.02873890 -0.01340399 0.04156896
v 0.00451010 -0.03021681 0.00526142
v 0.00397406 -0.03096723 0.01701804
v 0.00248235 -0.03147559 0.02460598
v 0.00146541 -0.03181635 0.02968263
v 0.00248235 -0.03055758 0.00837802
v 0.02962107 -0.01340399 0.04089880
v 0.02930557 -0.01360882 0.04127351
v 0.02847242 -0.01498677 0.04146808
v 0.02744629 -0.01701459 0.04143925
v 0.02602197 -0.02013545 0.00526142
v 0.02449657 -0.02132905 0.04144646
v 0.02371549 -0.02224892 0.04148609
v 0.02332954 -0.02290438 0.04140683
v 0.02535116 -0.02087656 0.00526142
v 0.02688575 -0.01731997 0.04158697
v 0.00349316 -0.03210870 0.04148609
v 0.00247929 -0.03147372 0.04186801
v 0.00247929 -0.03232098 0.04084836
v 0.01161027 -0.02922246 0.04153293
v 0.00248235 -0.03153145 0.02562564
v 0.02276900 -0.02313714 0.04148969
v 0.02763008 -0.01625671 0.04154014
v 0.02935458 -0.01340399 0.04132756
v 0.00755478 -0.02979784 0.00526142
v 0.00411190 -0.03098586 0.01769541
v 0.02952611 -0.01340399 0.04106454
v 0.02157134 -0.02403467 0.04141763
v 0.01847459 -0.02709781 0.04052769
v 0.01905351 -0.02678312 0.03983231
v 0.01962324 -0.02627477 0.03983231
v 0.02438323 -0.02185602 0.00526142
v 0.02485494 -0.02138491 0.00533348
v 0.02485494 -0.02138491 0.00526142
v 0.00958253 -0.03012371 0.04146447
v 0.00424667 -0.03203421 0.04140683
v 0.00349316 -0.03217573 0.04084836
v 0.00422523 -0.03101006 0.01852770
v 0.01024721 -0.03001571 0.04140322
v 0.01240054 -0.02905859 0.04143925
v 0.00856865 -0.02964515 0.00526142
v 0.00856865 -0.02965074 0.00533348
v 0.01307748 -0.02885190 0.04133476
v 0.01668270 -0.02806424 0.04049166
v 0.01721874 -0.02793575 0.04036195
v 0.01854504 -0.02713505 0.03983231
v 0.01894936 -0.02571055 0.00526142
v 0.02146720 -0.02396764 0.00526142
v 0.02193585 -0.02363991 0.00526142
v 0.02269242 -0.02310735 0.00526142
v 0.02316107 -0.02277031 0.00526142
v 0.02377981 -0.02231782 0.00526142
v 0.02430666 -0.02192120 0.00526142
v 0.02434648 -0.02188768 0.00526142
v 0.00856559 -0.03079406 0.04115461
v 0.00441514 -0.03204352 0.04084836
v 0.00755172 -0.03149235 0.03983231
v 0.00922108 -0.03101751 0.04045563
v 0.00856559 -0.03113482 0.04064299
v 0.00653784 -0.03166179 0.03983231
v 0.01092415 -0.02987419 0.04126991
v 0.01448342 -0.02906418 0.04052048
v 0.00958253 -0.02945708 0.00526142
v 0.01721874 -0.02793575 0.04026827
v 0.01502252 -0.02888542 0.03983231
v 0.01719729 -0.02691533 0.00526142
v 0.01722486 -0.02689857 0.00526142
v 0.01769964 -0.02657270 0.00526142
v 0.01059027 -0.03024102 0.04089880
v 0.00922108 -0.03101751 0.04007371
v 0.01059946 -0.02918149 0.00526142
v 0.01220144 -0.02998219 0.04039438
v 0.01161027 -0.03008833 0.04057093
v 0.01667657 -0.02714995 0.00533348
v 0.01220144 -0.02998219 0.04018540
v 0.01668270 -0.02714436 0.00526142
v 0.01566270 -0.02752609 0.00526142
f 1 2 9
f 1 9 18
f 1 18 33
f 1 33 58
f 1 58 86
f 1 86 85
f 1 85 109
f 1 109 112
f 1 112 92
f 1 92 66
f 1 66 36
f 1 36 22
f 1 22 20
f 1 20 10
f 1 10 3
f 1 3 4
f 1 4 5
f 1 5 6
f 1 6 7
f 1 7 2
f 2 7 8
f 2 8 17
f 2 17 31
f 2 31 30
f 2 30 29
f 2 29 49
f 2 49 48
f 2 48 43
f 2 43 70
f 2 70 96
f 2 96 100
f 2 100 119
f 2 119 117
f 2 117 139
f 2 139 138
f 2 138 137
f 2 137 136
f 2 136 135
f 2 135 134
f 2 134 133
f 2 133 132
f 2 132 153
f 2 153 152
f 2 152 151
f 2 151 161
f 2 161 162
f 2 162 156
f 2 156 148
f 2 148 126
f 2 126 110
f 2 110 87
f 2 87 59
f 2 59 34
f 2 34 19
f 2 19 9
f 3 10 4
f 4 10 11
f 4 11 12
f 4 12 13
f 4 13 14
f 4 14 5
f 5 14 6
f 6 14 15
f 6 15 16
f 6 16 7
f 7 16 17
f 7 17 8
f 9 19 35
f 9 35 65
f 9 65 64
f 9 64 63
f 9 63 73
f 9 73 50
f 9 50 32
f 9 32 18
f 10 20 11
f 11 21 13
f 11 13 12
f 11 20 22
f 11 22 21
f 13 21 23
f 13 23 15
f 13 15 14
f 15 24 16
f 15 23 25
f 15 25 26
f 15 26 24
f 16 24 27
f 16 27 28
f 16 28 29
f 16 29 30
f 16 30 31
f 16 31 17
f 18 32 33
f 19 34 35
f 21 22 23
f 22 36 37
f 22 37 38
f 22 38 39
f 22 39 40
f 22 40 41
f 22 41 42
f 22 42 23
f 23 42 25
f 24 43 27
f 24 26 44
f 24 44 43
f 25 42 41
f 25 41 39
f 25 39 45
f 25 45 26
f 26 45 39
f 26 39 46
f 26 46 47
f 26 47 44
f 27 43 48
f 27 48 49
f 27 49 28
f 28 49 29
f 32 50 51
f 32 51 52
f 32 52 53
f 32 53 54
f 32 54 55
f 32 55 56
f 32 56 57
f 32 57 58
f 32 58 33
f 34 59 60
f 34 60 61
f 34 61 62
f 34 62 63
f 34 63 64
f 34 64 65
f 34 65 35
f 36 66 37
f 37 66 67
f 37 67 68
f 37 68 38
f 38 68 39
f 39 68 69
f 39 69 46
f 39 41 40
f 43 44 70
f 44 47 71
f 44 71 70
f 46 69 68
f 46 68 72
f 46 72 71
f 46 71 47
f 50 73 51
f 51 73 74
f 51 74 75
f 51 75 52
f 52 75 53
f 53 76 77
f 53 77 54
f 53 75 78
f 53 78 76
f 54 77 79
f 54 79 80
f 54 80 55
f 55 80 79
f 55 79 81
f 55 81 82
f 55 82 56
f 56 82 83
f 56 83 84
f 56 84 85
f 56 85 86
f 56 86 57
f 57 86 58
f 59 87 88
f 59 88 89
f 59 89 90
f 59 90 91
f 59 91 60
f 60 91 90
f 60 90 61
f 61 90 75
f 61 75 62
f 62 75 74
f 62 74 73
f 62 73 63
f 66 92 67
f 67 92 93
f 67 93 94
f 67 94 68
f 68 94 95
f 68 95 72
f 70 71 96
f 71 72 97
f 71 97 98
f 71 98 99
f 71 99 100
f 71 100 96
f 72 95 101
f 72 101 81
f 72 81 97
f 75 90 78
f 76 102 103
f 76 103 77
f 76 78 104
f 76 104 102
f 77 103 105
f 77 105 79
f 78 90 106
f 78 106 88
f 78 88 104
f 79 105 107
f 79 107 99
f 79 99 98
f 79 98 81
f 81 83 82
f 81 98 97
f 81 101 83
f 83 101 84
f 84 101 108
f 84 108 95
f 84 95 94
f 84 94 109
f 84 109 85
f 87 110 88
f 88 111 104
f 88 106 89
f 88 110 111
f 89 106 90
f 92 112 93
f 93 109 94
f 93 112 109
f 95 108 101
f 99 107 113
f 99 113 114
f 99 114 115
f 99 115 116
f 99 116 117
f 99 117 118
f 99 118 100
f 100 118 119
f 102 120 103
f 102 104 121
f 102 121 120
f 103 120 105
f 104 122 121
f 104 111 123
f 104 123 122
f 105 120 124
f 105 124 125
f 105 125 113
f 105 113 107
f 110 126 127
f 110 127 111
f 111 127 123
f 113 125 128
f 113 128 114
f 114 129 130
f 114 130 131
f 114 131 115
f 114 128 129
f 115 131 132
f 115 132 133
f 115 133 134
f 115 134 135
f 115 135 136
f 115 136 137
f 115 137 138
f 115 138 139
f 115 139 117
f 115 117 116
f 117 119 118
f 120 121 124
f 121 140 124
f 121 122 141
f 121 141 142
f 121 142 143
f 121 143 144
f 121 144 140
f 122 123 141
f 123 127 145
f 123 145 141
f 124 140 146
f 124 146 125
f 125 146 147
f 125 147 129
f 125 129 128
f 126 148 127
f 127 148 142
f 127 142 145
f 129 147 130
f 130 149 131
f 130 147 150
f 130 150 149
f 131 149 151
f 131 151 152
f 131 152 153
f 131 153 132
f 140 154 146
f 140 144 154
f 141 145 142
f 142 155 143
f 142 148 156
f 142 156 155
f 143 157 158
f 143 158 144
f 143 155 160
f 143 160 157
f 144 158 154
f 146 154 158
f 146 158 147
f 147 158 157
f 147 157 150
f 149 150 159
f 149 159 151
f 150 157 160
f 150 160 159
f 151 159 161
f 155 156 162
f 155 162 160
f 159 162 161
f 159 160 162

