# https://github.com/mikedh/trimesh
v 0.02568400 0.00081586 0.03827733
v 0.02544086 0.00081586 0.03835375
v 0.02568400 -0.01340399 0.03788860
v 0.02568400 0.00081586 0.00526156
v 0.02480556 0.00081586 0.03854313
v 0.02461732 0.00081586 0.03857968
v 0.02378333 0.00081586 0.03872255
v 0.02360032 0.00081586 0.03873916
v 0.01363679 -0.00407674 0.03919767
v 0.01261978 -0.00509145 0.03920099
v 0.00653342 -0.00711947 0.03880561
v 0.00450464 -0.00813418 0.03860294
v 0.00025360 -0.01340399 0.03742013
v 0.02568400 -0.01340399 0.00526156
v -0.00102223 0.00081586 0.00526156
v 0.01363679 0.00081586 0.03870594
v 0.01566557 -0.00103122 0.03894848
v 0.01667996 -0.00103122 0.03894184
v 0.01566557 -0.00204593 0.03903487
v 0.01363679 -0.00306203 0.03912790
v 0.01261978 -0.00407674 0.03914783
v -0.00056994 -0.00610616 0.03857968
v 0.00247585 -0.00711947 0.03869929
v 0.00349024 -0.00813418 0.03857968
v -0.00058824 -0.01340399 0.03735035
v 0.00146146 -0.00711947 0.03863284
v -0.00102223 -0.01340399 0.00526156
v -0.00102223 0.00081586 0.03705798
v -0.00102223 -0.00515826 0.03845675
v 0.01465118 -0.00204593 0.03903819
v -0.00102223 -0.00612286 0.03852984
v 0.00044445 -0.00711947 0.03854313
v -0.00070066 -0.01340399 0.03733042
v -0.00102223 -0.01340399 0.03726729
f 1 2 3
f 1 3 14
f 1 14 4
f 1 4 15
f 1 15 28
f 1 28 16
f 1 16 8
f 1 8 7
f 1 7 6
f 1 6 5
f 1 5 2
f 2 5 3
f 3 5 6
f 3 6 7
f 3 7 8
f 3 8 9
f 3 9 10
f 3 10 11
f 3 11 12
f 3 12 13
f 3 13 25
f 3 25 33
f 3 33 34
f 3 34 27
f 3 27 14
f 4 14 27
f 4 27 15
f 8 16 17
f 8 17 18
f 8 18 19
f 8 19 9
f 9 19 20
f 9 20 21
f 9 21 10
f 10 21 22
f 10 22 23
f 10 23 11
f 11 23 24
f 11 24 12
f 12 24 13
f 13 24 23
f 13 23 26
f 13 26 25
f 15 27 34
f 15 34 31
f 15 31 29
f 15 29 28
f 16 29 20
f 16 20 30
f 16 30 17
f 16 28 29
f 17 30 19
f 17 19 18
f 19 30 20
f 20 29 22
f 20 22 21
f 22 31 32
f 22 32 26
f 22 26 23
f 22 29 31
f 25 26 32
f 25 32 31
f 25 31 33
f 31 34 33

