# https://github.com/mikedh/trimesh
v 0.00027998 0.01216153 0.03901328
v -0.00564507 0.00607411 0.03855071
v -0.00564507 0.00505817 0.03851436
v -0.00653883 0.00302835 0.03840202
v 0.00027998 0.01199528 0.03900337
v 0.00027998 0.01301122 0.03891746
v -0.02243306 0.02178318 0.03775771
v -0.02243306 0.00081791 0.03757268
v -0.00658329 0.00404428 0.03843836
v -0.00638097 0.00230385 0.03834915
v -0.00593409 0.00230385 0.03834915
v 0.00027998 0.01114764 0.03887781
v 0.00027998 0.01317541 0.03888772
v 0.00027998 0.02178318 0.03729844
v -0.02243306 0.02178318 0.00526155
v -0.00684342 0.00081791 0.03817403
v -0.00666111 0.00100057 0.03820047
v -0.02243306 0.00081791 0.00526155
v -0.00666111 0.00081791 0.03817734
v -0.00582738 0.00081791 0.03807491
v -0.00564507 0.00100057 0.03807821
v -0.00481356 0.00081791 0.03790640
v -0.00463125 0.00081791 0.03787336
v 0.00027998 0.00083433 0.03697794
v 0.00027998 0.02178318 0.00526155
v 0.00027998 0.00081791 0.00526155
v -0.00564507 0.00081791 0.03804517
v 0.00027998 0.00081791 0.03697463
f 1 2 3
f 1 3 4
f 1 4 5
f 1 5 12
f 1 12 24
f 1 24 28
f 1 28 26
f 1 26 25
f 1 25 14
f 1 14 13
f 1 13 6
f 1 6 7
f 1 7 8
f 1 8 2
f 2 9 3
f 2 8 9
f 3 9 4
f 4 10 11
f 4 11 5
f 4 9 8
f 4 8 10
f 5 11 12
f 6 13 7
f 7 13 14
f 7 14 25
f 7 25 15
f 7 15 18
f 7 18 8
f 8 16 17
f 8 17 10
f 8 18 26
f 8 26 28
f 8 28 23
f 8 23 22
f 8 22 27
f 8 27 20
f 8 20 19
f 8 19 16
f 10 17 11
f 11 17 19
f 11 19 20
f 11 20 21
f 11 21 12
f 12 21 22
f 12 22 23
f 12 23 24
f 15 25 26
f 15 26 18
f 16 19 17
f 20 27 21
f 21 27 22
f 23 28 24

