# https://github.com/mikedh/trimesh
v -0.00509085 -0.00212455 -0.05575545
v -0.00509085 0.03144332 -0.05927790
v 0.00044603 0.03164234 -0.05934115
v 0.00146026 0.03163496 -0.05934747
v 0.01363661 -0.00212455 -0.05573648
v -0.00509085 -0.00212455 0.00525824
v -0.00509085 0.03217305 -0.05922731
v -0.00462883 0.03219517 -0.05923996
v -0.00361460 0.03222834 -0.05926526
v -0.00158428 0.03227625 -0.05930952
v -0.00057005 0.03229836 -0.05932849
v 0.00044603 0.03231679 -0.05934115
v 0.00146026 0.03236839 -0.05934747
v 0.00349057 0.03245684 -0.05933482
v 0.00450297 0.03144332 -0.05929055
v 0.01371392 -0.00212086 -0.05573648
v 0.01371392 -0.00212455 -0.05566059
v 0.01371392 -0.00212455 0.00525824
v -0.00509085 0.03510305 0.00525824
v 0.00349057 0.03308338 -0.05918304
v -0.00509085 0.03268166 -0.05892376
v 0.00450297 0.03309812 -0.05917672
v 0.00611544 0.03298755 -0.05912613
v 0.00816231 0.03195561 -0.05911348
v 0.00816231 0.03192981 -0.05911348
v 0.01160630 0.03042611 -0.05893641
v 0.01262237 0.02941259 -0.05879096
v 0.01371392 0.02729709 -0.05844314
v 0.01371392 0.03207354 0.00525824
v -0.00462883 0.03516202 0.00525824
v -0.00509085 0.03511780 0.00378476
v -0.00509085 0.03296176 -0.05868978
v -0.00509085 0.03327871 -0.05841152
v 0.00146026 0.03401950 -0.05813959
v 0.00247450 0.03403056 -0.05816489
v 0.00551720 0.03303547 -0.05913878
v 0.00450297 0.03357356 -0.05860124
v 0.00551720 0.03341876 -0.05860124
v 0.00648542 0.03316078 -0.05863286
v 0.00957782 0.03212145 -0.05843049
v 0.01236835 0.03107108 -0.05836093
v 0.01160630 0.03123324 -0.05853800
v 0.01363661 0.02941259 -0.05863918
v 0.01267207 0.03049982 -0.05857594
v 0.01363661 0.03020498 -0.05837990
v 0.01371392 0.02933519 -0.05862021
v 0.01207568 0.03294702 0.00228598
v 0.01353353 0.03216937 0.00525824
v 0.01371392 0.03208460 -0.00583400
v -0.00361460 0.03528733 0.00525824
v -0.00462883 0.03518782 0.00228598
v -0.00462883 0.03522099 -0.00177401
v -0.00509085 0.03512148 0.00329781
v -0.00509085 0.03380206 -0.05772221
v -0.00462883 0.03378732 -0.05783604
v -0.00361460 0.03421115 -0.05738704
v -0.00259852 0.03425169 -0.05739968
v -0.00259852 0.03463499 -0.05657124
v 0.00326785 0.03400476 -0.05813327
v -0.00158428 0.03464973 -0.05657124
v 0.00394339 0.03397528 -0.05806370
v 0.00551720 0.03380574 -0.05758308
v 0.00728061 0.03305390 -0.05831034
v 0.00653328 0.03353670 -0.05758308
v 0.01022208 0.03199983 -0.05822180
v 0.01371392 0.03018286 -0.05836093
v 0.01089946 0.03187452 -0.05782971
v 0.01153083 0.03169393 -0.05752616
v 0.01304390 0.03088680 -0.05779177
v 0.01371392 0.02941259 -0.05861389
v 0.01371392 0.03014601 -0.05837357
v 0.01206095 0.03294333 0.00329781
v 0.01262237 0.03265954 -0.00076218
v 0.01207752 0.03294702 0.00025598
v 0.01156948 0.03316078 0.00025598
v 0.01156764 0.03315709 0.00126782
v 0.01262237 0.03263006 0.00525824
v 0.01371392 0.03208460 -0.00786400
v -0.00259852 0.03541264 0.00525824
v -0.00361460 0.03532787 0.00025598
v -0.00361460 0.03534261 -0.00177401
v -0.00462883 0.03522836 -0.00279217
v -0.00361460 0.03532050 0.00126782
v -0.00509085 0.03513254 0.00174212
v -0.00509085 0.03408216 -0.05726688
v -0.00462883 0.03412639 -0.05733012
v -0.00361460 0.03452811 -0.05657124
v -0.00259852 0.03476398 -0.05555308
v -0.00158428 0.03478978 -0.05555308
v -0.00057005 0.03458708 -0.05657124
v -0.00057005 0.03473818 -0.05555308
v 0.00349057 0.03423327 -0.05657124
v 0.00349057 0.03437332 -0.05555308
v 0.00432074 0.03402319 -0.05738704
v 0.00459684 0.03394948 -0.05766529
v 0.00044603 0.03479716 -0.05454125
v 0.00499628 0.03397528 -0.05706451
v 0.00553929 0.03392737 -0.05665978
v 0.00754751 0.03380574 -0.05454125
v 0.00653328 0.03373572 -0.05657124
v 0.00795615 0.03292859 -0.05796252
v 0.00758985 0.03316446 -0.05760838
v 0.00754751 0.03366201 -0.05555308
v 0.00754751 0.03345193 -0.05657124
v 0.01371392 0.03049982 -0.05766529
v 0.01114243 0.03197035 -0.05715305
v 0.00957782 0.03243473 -0.05758308
v 0.00952260 0.03275168 -0.05653330
v 0.01267207 0.03113373 -0.05750719
v 0.01313961 0.03094208 -0.05711511
v 0.01371392 0.03053667 -0.05751984
v 0.01156948 0.03314603 0.00228598
v 0.01155476 0.03313129 0.00329781
v 0.01202230 0.03292859 0.00430965
v 0.01207752 0.03294702 -0.00076218
v 0.01207568 0.03294702 -0.00177401
v 0.01207200 0.03294702 -0.00279217
v 0.01156764 0.03315709 -0.00177401
v 0.01059206 0.03352196 0.00025598
v 0.01059206 0.03352196 0.00126782
v 0.01201862 0.03289542 0.00525824
v 0.01371392 0.03208092 -0.00989400
v 0.01262237 0.03265954 -0.00482217
v -0.00252673 0.03542001 0.00525824
v -0.00259852 0.03542001 0.00430965
v -0.00259852 0.03542738 0.00329781
v -0.00361460 0.03534630 -0.00279217
v -0.00462883 0.03523205 -0.00380401
v -0.00259852 0.03543107 0.00228598
v -0.00509085 0.03515096 -0.00279217
v -0.00509085 0.03425907 -0.05660919
v -0.00462883 0.03435489 -0.05657124
v -0.00361460 0.03464236 -0.05555308
v -0.00361460 0.03470502 -0.05454125
v -0.00361460 0.03476030 -0.05352941
v -0.00414472 0.03499986 -0.04804020
v -0.00259852 0.03481558 -0.05454125
v -0.00158428 0.03485981 -0.05454125
v -0.00057005 0.03493720 -0.05352941
v 0.00044603 0.03498512 -0.05290334
v 0.00146026 0.03502197 -0.05227094
v -0.00057005 0.03485981 -0.05454125
v 0.00146026 0.03496300 -0.05277686
v 0.00146026 0.03485612 -0.05352941
v 0.00208058 0.03500723 -0.05209387
v 0.00244136 0.03491509 -0.05246699
v 0.00349057 0.03450968 -0.05454125
v 0.00459684 0.03408585 -0.05665978
v 0.00349057 0.03476398 -0.05251125
v 0.00521533 0.03401582 -0.05638785
v 0.00450297 0.03446914 -0.05352941
v 0.00630687 0.03403056 -0.05454125
v 0.00647990 0.03388683 -0.05552779
v 0.00856175 0.03357724 -0.05454125
v 0.00699714 0.03397159 -0.05394679
v 0.00751254 0.03390525 -0.05358000
v 0.00856175 0.03368412 -0.05352941
v 0.00821385 0.03302441 -0.05728585
v 0.00856175 0.03336717 -0.05555308
v 0.00855623 0.03310918 -0.05653330
v 0.00888940 0.03289910 -0.05684317
v 0.01124552 0.03202563 -0.05657124
v 0.00933853 0.03307969 -0.05555308
v 0.00984657 0.03287330 -0.05555308
v 0.01002696 0.03293964 -0.05487009
v 0.00914710 0.03299124 -0.05616651
v 0.01262237 0.03129958 -0.05657124
v 0.01012636 0.03298755 -0.05419343
v 0.01371392 0.03068778 -0.05657757
v 0.01262237 0.03159074 -0.05454125
v 0.01371392 0.03115216 -0.05348514
v 0.01371392 0.03093471 -0.05497128
v 0.01371392 0.03081309 -0.05577442
v 0.01059206 0.03350722 0.00228598
v 0.01059206 0.03347773 0.00329781
v 0.00763219 0.03448020 0.00525824
v 0.01147008 0.03309812 0.00525824
v 0.01193946 0.03292859 0.00525824
v 0.01197628 0.03291384 0.00525824
v 0.01262237 0.03265217 -0.00786400
v 0.01205359 0.03293964 -0.00888216
v 0.01200205 0.03292122 -0.02511580
v 0.01152346 0.03313866 -0.01294215
v 0.01059206 0.03348142 -0.01395399
v 0.00914710 0.03400476 0.00126782
v 0.00915078 0.03400476 0.00228598
v 0.00909924 0.03399002 -0.01699582
v 0.00910660 0.03399002 -0.01598398
v 0.00856175 0.03417061 -0.01801398
v 0.00965882 0.03383154 0.00228598
v 0.00913053 0.03400108 0.00329781
v 0.01371392 0.03207723 -0.01091216
v 0.01345438 0.03212883 -0.03525945
v 0.01262237 0.03257477 -0.03322946
v -0.00158428 0.03551583 0.00525824
v -0.00361460 0.03533893 -0.00482217
v -0.00462883 0.03522468 -0.00888216
v -0.00509085 0.03515096 -0.00327280
v -0.00509085 0.03432540 -0.05610959
v -0.00509085 0.03438806 -0.05555308
v -0.00462883 0.03446914 -0.05555308
v -0.00509085 0.03442491 -0.05509776
v -0.00509085 0.03446177 -0.05454125
v -0.00509085 0.03452442 -0.05352941
v -0.00509085 0.03464605 -0.05149942
v -0.00462883 0.03478241 -0.05048126
v -0.00462883 0.03484138 -0.04946942
v -0.00259852 0.03507725 -0.04743943
v -0.00361091 0.03501460 -0.04840700
v -0.00303477 0.03499249 -0.04990578
v -0.00259852 0.03486349 -0.05352941
v -0.00509085 0.03475661 -0.04946942
v -0.00509085 0.03479347 -0.04843229
v -0.00509085 0.03481558 -0.04743943
v -0.00509085 0.03482295 -0.04699043
v -0.00509085 0.03504408 -0.02916947
v -0.00509085 0.03505514 -0.02815763
v -0.00462883 0.03510674 -0.02815763
v -0.00361460 0.03520625 -0.02713947
v -0.00259852 0.03531313 -0.02511580
v -0.00158428 0.03534630 -0.03018763
v -0.00158428 0.03532787 -0.03221762
v -0.00158428 0.03525047 -0.03931944
v -0.00158428 0.03523942 -0.04033128
v -0.00259852 0.03513254 -0.04439127
v -0.00259852 0.03511780 -0.04540943
v -0.00158428 0.03490403 -0.05352941
v -0.00062343 0.03498143 -0.05256184
v 0.00044603 0.03506620 -0.05149942
v 0.00146026 0.03508831 -0.05149942
v 0.00244136 0.03503303 -0.05142353
v 0.00275613 0.03496669 -0.05170811
v 0.00349057 0.03463868 -0.05352941
v 0.00300094 0.03499617 -0.05103144
v 0.00340038 0.03488561 -0.05142353
v 0.00450297 0.03457602 -0.05251125
v 0.00964409 0.03316815 -0.05453492
v 0.00957782 0.03332662 -0.05352941
v 0.00714992 0.03400108 -0.05327013
v 0.00725852 0.03402688 -0.05251125
v 0.00776472 0.03391631 -0.05251125
v 0.00786964 0.03393842 -0.05149942
v 0.00795799 0.03395685 -0.05048126
v 0.00856175 0.03372466 -0.05251125
v 0.00957782 0.03344456 -0.05149942
v 0.00957782 0.03339296 -0.05251125
v 0.01203518 0.03190769 -0.05454125
v 0.01020919 0.03302810 -0.05352941
v 0.01294082 0.03184872 -0.05149942
v 0.01371392 0.03143594 -0.05149942
v 0.00963673 0.03382049 0.00329781
v 0.00754751 0.03450968 0.00525824
v 0.01262237 0.03257109 -0.03424762
v 0.01262237 0.03256740 -0.03525945
v 0.01198916 0.03291753 -0.02713947
v 0.01059206 0.03347405 -0.01598398
v 0.01059206 0.03347773 -0.01497215
v 0.00856175 0.03420010 0.00228598
v 0.00754751 0.03453548 0.00329781
v 0.00856175 0.03419641 0.00329781
v 0.00960728 0.03381311 -0.01699582
v 0.00856175 0.03416693 -0.01902581
v 0.00754751 0.03446914 -0.01801398
v 0.00754751 0.03452811 0.00430965
v 0.01371392 0.03198141 -0.03728945
v 0.01345438 0.03212514 -0.03627129
v -0.00259852 0.03536473 -0.01497215
v -0.00057005 0.03552689 0.00525824
v -0.00057005 0.03551952 0.00329781
v -0.00057005 0.03536841 -0.03221762
v -0.00158428 0.03539421 -0.02105581
v -0.00259852 0.03532787 -0.02308580
v -0.00361460 0.03531681 -0.00989400
v -0.00462883 0.03522099 -0.00989400
v -0.00509085 0.03513254 -0.01091216
v -0.00509085 0.03513622 -0.00989400
v -0.00509085 0.03470502 -0.05048126
v -0.00057005 0.03513991 -0.04743943
v -0.00158428 0.03508831 -0.04845126
v -0.00259852 0.03505514 -0.04845126
v -0.00265742 0.03502197 -0.04952634
v -0.00361460 0.03530576 -0.01192399
v -0.00361460 0.03521362 -0.02613396
v -0.00259852 0.03532050 -0.02410396
v -0.00158428 0.03535367 -0.02916947
v -0.00057005 0.03532419 -0.03728945
v -0.00057005 0.03530945 -0.03830128
v -0.00057005 0.03529101 -0.03931944
v -0.00057005 0.03525416 -0.04134944
v -0.00057005 0.03506620 -0.05048126
v 0.00044603 0.03510305 -0.05048126
v 0.00146026 0.03513622 -0.05048126
v 0.00247450 0.03509199 -0.05048126
v 0.00306353 0.03501092 -0.05048126
v 0.00653328 0.03417798 -0.05251125
v 0.01040983 0.03312024 -0.05149942
v 0.01031963 0.03307969 -0.05251125
v 0.00356972 0.03490403 -0.05048126
v 0.00551720 0.03444334 -0.05149942
v 0.00736344 0.03404899 -0.05149942
v 0.00653328 0.03440280 -0.04743943
v 0.00653328 0.03444334 -0.04642127
v 0.00653328 0.03447651 -0.04540943
v 0.00801874 0.03397159 -0.04946942
v 0.00856175 0.03375415 -0.05149942
v 0.00957782 0.03347773 -0.05048126
v 0.01059206 0.03324186 -0.04743943
v 0.01124552 0.03302441 -0.04743943
v 0.01117925 0.03300230 -0.04845126
v 0.01082583 0.03282539 -0.05251125
v 0.01305494 0.03191138 -0.05048126
v 0.01243462 0.03211408 -0.05149942
v 0.01363661 0.03160916 -0.05048126
v 0.01371392 0.03156863 -0.05048126
v 0.00660507 0.03479347 0.00525824
v 0.01345254 0.03212145 -0.03728945
v 0.01262237 0.03253792 -0.03931944
v 0.01191554 0.03289173 -0.03728945
v 0.01192290 0.03289542 -0.03627129
v 0.01149401 0.03310549 -0.02511580
v 0.01137436 0.03306495 -0.04134944
v 0.00653328 0.03481927 0.00329781
v 0.00907531 0.03398265 -0.02004397
v 0.00906611 0.03397897 -0.02130877
v 0.01136700 0.03306127 -0.04236128
v 0.00856175 0.03415956 -0.02004397
v 0.00754751 0.03446177 -0.01902581
v 0.00653328 0.03454285 -0.04134944
v 0.01371392 0.03197772 -0.03830128
v 0.00051781 0.03544212 0.00525824
v 0.00044603 0.03547529 0.00329781
v 0.00044603 0.03547898 0.00228598
v 0.00146026 0.03543107 -0.00177401
v 0.00247450 0.03537947 -0.00888216
v 0.00247450 0.03537210 -0.01091216
v 0.00044603 0.03534998 -0.03018763
v -0.00158428 0.03537947 -0.02410396
v 0.00044603 0.03534261 -0.03119946
v 0.00146026 0.03516939 -0.04845126
v 0.00044603 0.03515096 -0.04845126
v 0.00044603 0.03512885 -0.04946942
v -0.00057005 0.03509568 -0.04946942
v -0.00158428 0.03506251 -0.04946942
v 0.00146026 0.03515834 -0.04946942
v 0.00044603 0.03516939 -0.04743943
v 0.00247450 0.03511043 -0.04946942
v 0.00313531 0.03502197 -0.04946942
v 0.00551720 0.03466079 -0.04642127
v 0.00450297 0.03479347 -0.04845126
v 0.00368385 0.03494826 -0.04845126
v 0.00551720 0.03469027 -0.04540943
v 0.01091787 0.03287699 -0.05149942
v 0.01112403 0.03297650 -0.04910263
v 0.01311200 0.03194086 -0.04987416
v 0.00450297 0.03474924 -0.04946942
v 0.00551720 0.03462025 -0.04743943
v 0.00653328 0.03450600 -0.04439127
v 0.00754751 0.03417798 -0.04642127
v 0.00754751 0.03420010 -0.04540943
v 0.00754751 0.03422221 -0.04439127
v 0.00856175 0.03380943 -0.04946942
v 0.00856175 0.03378363 -0.05048126
v 0.00957782 0.03350353 -0.04946942
v 0.00957782 0.03354776 -0.04743943
v 0.01059206 0.03326397 -0.04642127
v 0.01129521 0.03303547 -0.04642127
v 0.01183638 0.03285856 -0.04540943
v 0.01180141 0.03283645 -0.04642127
v 0.01175171 0.03279959 -0.04743943
v 0.01262237 0.03245684 -0.04642127
v 0.01262237 0.03238681 -0.04743943
v 0.01371392 0.03167182 -0.04950737
v 0.00653328 0.03481558 0.00430965
v 0.00653328 0.03481190 0.00525824
v 0.01371392 0.03197035 -0.03931944
v 0.01371392 0.03195561 -0.04134944
v 0.01371392 0.03194823 -0.04236128
v 0.01262237 0.03253055 -0.04033128
v 0.01262237 0.03249001 -0.04540943
v 0.01186400 0.03286593 -0.04337944
v 0.00574177 0.03496300 0.00329781
v 0.00493370 0.03497774 -0.02207397
v 0.00442566 0.03507725 -0.02207397
v 0.01135596 0.03305758 -0.04337944
v 0.00853966 0.03414113 -0.02308580
v 0.01134491 0.03305390 -0.04439127
v 0.01059206 0.03331926 -0.04236128
v 0.00888756 0.03392737 -0.03525945
v 0.00754751 0.03427012 -0.04033128
v 0.00653328 0.03453548 -0.04236128
v 0.00427840 0.03505883 -0.02916947
v 0.00515826 0.03500723 0.00525824
v 0.00247450 0.03537578 -0.00279217
v 0.00247450 0.03538315 -0.00380401
v 0.00247450 0.03538315 -0.00482217
v 0.00349057 0.03527259 -0.00989400
v 0.00349057 0.03526890 -0.01091216
v 0.00349057 0.03525416 -0.01497215
v 0.00349057 0.03522836 -0.02207397
v 0.00247450 0.03529101 -0.02613396
v 0.00146026 0.03531313 -0.02916947
v 0.00349057 0.03520994 -0.02511580
v 0.00349057 0.03519150 -0.02713947
v 0.00551720 0.03470502 -0.04439127
v 0.00653328 0.03452074 -0.04337944
v 0.01371392 0.03176765 -0.04845126
v 0.01371392 0.03175290 -0.04861569
v 0.00754751 0.03423695 -0.04337944
v 0.01059206 0.03328240 -0.04540943
v 0.00957782 0.03356987 -0.04642127
v 0.00847155 0.03385734 -0.04849553
v 0.01132835 0.03304652 -0.04540943
v 0.01185111 0.03286225 -0.04439127
v 0.01371392 0.03190769 -0.04642127
v 0.01371392 0.03185241 -0.04743943
v 0.00566446 0.03495932 0.00525824
v 0.01371392 0.03193718 -0.04378417
v 0.01339547 0.03208828 -0.04540943
v 0.00520796 0.03503671 0.00025598
v 0.00349057 0.03527627 -0.00380401
v 0.00349057 0.03527627 -0.00279217
v 0.00349057 0.03521730 -0.02410396
v 0.00834823 0.03406742 -0.03728945
v 0.01059206 0.03329714 -0.04439127
v 0.01059206 0.03330820 -0.04337944
v 0.00957782 0.03366938 -0.03931944
v 0.00887467 0.03392000 -0.03627129
v 0.00754751 0.03425907 -0.04134944
v 0.00562949 0.03496300 0.00525824
v 0.00830589 0.03405636 -0.03931944
v 0.00883417 0.03390894 -0.03830128
v 0.00824330 0.03403793 -0.04236128
v 0.01371392 0.03192244 -0.04540943
f 1 2 3
f 1 3 4
f 1 4 5
f 1 5 17
f 1 17 18
f 1 18 6
f 1 6 19
f 1 19 31
f 1 31 53
f 1 53 84
f 1 84 130
f 1 130 198
f 1 198 276
f 1 276 275
f 1 275 217
f 1 217 216
f 1 216 215
f 1 215 214
f 1 214 213
f 1 213 212
f 1 212 277
f 1 277 205
f 1 205 204
f 1 204 203
f 1 203 202
f 1 202 200
f 1 200 199
f 1 199 131
f 1 131 85
f 1 85 54
f 1 54 33
f 1 33 32
f 1 32 21
f 1 21 7
f 1 7 2
f 2 7 8
f 2 8 9
f 2 9 10
f 2 10 11
f 2 11 12
f 2 12 3
f 3 12 13
f 3 13 4
f 4 13 14
f 4 14 15
f 4 15 16
f 4 16 5
f 5 16 17
f 6 18 29
f 6 29 48
f 6 48 77
f 6 77 121
f 6 121 179
f 6 179 178
f 6 178 177
f 6 177 176
f 6 176 252
f 6 252 315
f 6 315 374
f 6 374 416
f 6 416 429
f 6 429 392
f 6 392 330
f 6 330 268
f 6 268 195
f 6 195 124
f 6 124 79
f 6 79 50
f 6 50 30
f 6 30 19
f 7 20 8
f 7 21 20
f 8 20 9
f 9 20 10
f 10 20 11
f 11 13 12
f 11 20 13
f 13 20 14
f 14 20 22
f 14 22 23
f 14 23 24
f 14 24 15
f 15 24 25
f 15 25 26
f 15 26 16
f 16 26 27
f 16 27 28
f 16 28 46
f 16 46 70
f 16 70 71
f 16 71 66
f 16 66 105
f 16 105 111
f 16 111 169
f 16 169 173
f 16 173 172
f 16 172 171
f 16 171 250
f 16 250 314
f 16 314 372
f 16 372 407
f 16 407 406
f 16 406 415
f 16 415 414
f 16 414 433
f 16 433 417
f 16 417 377
f 16 377 376
f 16 376 375
f 16 375 329
f 16 329 265
f 16 265 192
f 16 192 122
f 16 122 78
f 16 78 49
f 16 49 29
f 16 29 18
f 16 18 17
f 19 30 31
f 20 21 32
f 20 32 33
f 20 33 34
f 20 34 35
f 20 35 22
f 22 36 23
f 22 35 37
f 22 37 36
f 23 36 37
f 23 37 38
f 23 38 39
f 23 39 40
f 23 40 41
f 23 41 42
f 23 42 24
f 24 42 26
f 24 26 25
f 26 43 27
f 26 42 44
f 26 44 45
f 26 45 43
f 27 43 28
f 28 43 46
f 29 47 48
f 29 49 47
f 30 50 31
f 31 51 52
f 31 52 53
f 31 50 51
f 33 54 55
f 33 55 34
f 34 55 56
f 34 56 57
f 34 57 58
f 34 58 35
f 35 59 37
f 35 58 60
f 35 60 59
f 37 59 61
f 37 61 38
f 38 61 62
f 38 62 39
f 39 63 40
f 39 62 64
f 39 64 63
f 40 63 65
f 40 65 41
f 41 66 45
f 41 45 44
f 41 44 42
f 41 65 67
f 41 67 68
f 41 68 69
f 41 69 66
f 43 70 46
f 43 45 70
f 45 66 71
f 45 71 70
f 47 72 48
f 47 49 73
f 47 73 74
f 47 74 75
f 47 75 76
f 47 76 72
f 48 72 77
f 49 78 115
f 49 115 74
f 49 74 73
f 50 79 51
f 51 79 52
f 52 80 81
f 52 81 82
f 52 82 53
f 52 79 83
f 52 83 80
f 53 82 84
f 54 85 86
f 54 86 55
f 55 86 56
f 56 86 87
f 56 87 58
f 56 58 57
f 58 87 88
f 58 88 89
f 58 89 60
f 59 60 90
f 59 90 61
f 60 89 91
f 60 91 90
f 61 92 93
f 61 93 94
f 61 94 95
f 61 95 62
f 61 90 91
f 61 91 96
f 61 96 92
f 62 97 98
f 62 98 99
f 62 99 100
f 62 100 64
f 62 95 97
f 63 101 65
f 63 64 101
f 64 102 101
f 64 100 103
f 64 103 154
f 64 154 104
f 64 104 102
f 65 101 67
f 66 69 105
f 67 106 68
f 67 101 107
f 67 107 108
f 67 108 106
f 68 106 69
f 69 106 109
f 69 109 110
f 69 110 111
f 69 111 105
f 72 76 112
f 72 112 113
f 72 113 114
f 72 114 77
f 74 115 75
f 75 115 116
f 75 116 117
f 75 117 118
f 75 118 119
f 75 119 120
f 75 120 76
f 76 120 112
f 77 114 121
f 78 122 123
f 78 123 115
f 79 124 125
f 79 125 83
f 80 83 125
f 80 125 126
f 80 126 81
f 81 127 128
f 81 128 82
f 81 126 129
f 81 129 127
f 82 128 130
f 82 130 84
f 85 131 132
f 85 132 87
f 85 87 86
f 87 132 201
f 87 201 133
f 87 133 88
f 88 133 134
f 88 134 135
f 88 135 136
f 88 136 137
f 88 137 138
f 88 138 89
f 89 138 139
f 89 139 140
f 89 140 141
f 89 141 142
f 89 142 91
f 91 142 143
f 91 143 96
f 92 96 144
f 92 144 145
f 92 145 93
f 93 145 146
f 93 146 147
f 93 147 94
f 94 148 95
f 94 147 148
f 95 148 97
f 96 143 144
f 97 148 149
f 97 149 150
f 97 150 98
f 98 150 151
f 98 151 152
f 98 152 153
f 98 153 99
f 99 154 103
f 99 103 100
f 99 153 152
f 99 152 155
f 99 155 156
f 99 156 157
f 99 157 154
f 101 102 158
f 101 158 107
f 102 104 159
f 102 159 160
f 102 160 161
f 102 161 158
f 104 154 159
f 106 162 109
f 106 108 163
f 106 163 164
f 106 164 165
f 106 165 162
f 107 158 161
f 107 161 108
f 108 160 166
f 108 166 163
f 108 161 160
f 109 167 110
f 109 162 165
f 109 165 168
f 109 168 167
f 110 169 111
f 110 167 170
f 110 170 171
f 110 171 172
f 110 172 173
f 110 173 169
f 112 174 113
f 112 120 174
f 113 174 175
f 113 175 176
f 113 176 177
f 113 177 178
f 113 178 114
f 114 178 179
f 114 179 121
f 115 123 116
f 116 123 117
f 117 123 180
f 117 180 181
f 117 181 182
f 117 182 118
f 118 183 184
f 118 184 119
f 118 182 183
f 119 185 186
f 119 186 120
f 119 184 187
f 119 187 188
f 119 188 189
f 119 189 185
f 120 186 190
f 120 190 191
f 120 191 174
f 122 180 123
f 122 192 193
f 122 193 194
f 122 194 182
f 122 182 180
f 124 195 125
f 125 195 126
f 126 195 129
f 127 129 195
f 127 195 196
f 127 196 197
f 127 197 128
f 128 198 130
f 128 197 198
f 131 199 132
f 132 199 200
f 132 200 201
f 133 201 202
f 133 202 203
f 133 203 204
f 133 204 134
f 134 204 205
f 134 205 206
f 134 206 207
f 134 207 136
f 134 136 135
f 136 208 209
f 136 209 210
f 136 210 211
f 136 211 137
f 136 207 212
f 136 212 213
f 136 213 214
f 136 214 215
f 136 215 216
f 136 216 217
f 136 217 218
f 136 218 219
f 136 219 220
f 136 220 221
f 136 221 222
f 136 222 223
f 136 223 224
f 136 224 225
f 136 225 226
f 136 226 208
f 137 211 138
f 138 211 227
f 138 227 228
f 138 228 229
f 138 229 139
f 139 229 230
f 139 230 140
f 140 230 141
f 141 145 143
f 141 143 142
f 141 230 145
f 143 145 144
f 145 230 231
f 145 231 232
f 145 232 146
f 146 232 233
f 146 233 147
f 147 233 148
f 148 233 149
f 149 233 232
f 149 232 234
f 149 234 235
f 149 235 236
f 149 236 155
f 149 155 151
f 149 151 150
f 151 155 152
f 154 237 163
f 154 163 159
f 154 157 238
f 154 238 237
f 155 236 235
f 155 235 156
f 156 239 240
f 156 240 157
f 156 235 234
f 156 234 239
f 157 240 241
f 157 241 242
f 157 242 243
f 157 243 244
f 157 244 245
f 157 245 246
f 157 246 238
f 159 163 166
f 159 166 160
f 163 237 164
f 164 237 165
f 165 237 168
f 167 168 247
f 167 247 170
f 168 237 238
f 168 238 248
f 168 248 249
f 168 249 250
f 168 250 247
f 170 247 250
f 170 250 171
f 174 191 251
f 174 251 175
f 175 251 176
f 176 251 191
f 176 191 252
f 180 182 181
f 182 194 253
f 182 253 254
f 182 254 255
f 182 255 256
f 182 256 257
f 182 257 184
f 182 184 183
f 184 257 187
f 185 258 186
f 185 189 258
f 186 258 259
f 186 259 260
f 186 260 190
f 187 189 188
f 187 257 256
f 187 256 261
f 187 261 262
f 187 262 189
f 189 263 259
f 189 259 258
f 189 262 263
f 190 260 191
f 191 260 264
f 191 264 252
f 192 265 193
f 193 265 329
f 193 329 266
f 193 266 254
f 193 254 253
f 193 253 194
f 195 267 196
f 195 268 269
f 195 269 270
f 195 270 271
f 195 271 272
f 195 272 267
f 196 267 273
f 196 273 274
f 196 274 197
f 197 274 275
f 197 275 276
f 197 276 198
f 200 202 201
f 205 277 207
f 205 207 206
f 207 277 212
f 208 278 279
f 208 279 280
f 208 280 209
f 208 226 278
f 209 280 281
f 209 281 210
f 210 281 229
f 210 229 228
f 210 228 227
f 210 227 211
f 217 275 274
f 217 274 218
f 218 274 282
f 218 282 272
f 218 272 283
f 218 283 219
f 219 283 220
f 220 283 284
f 220 284 221
f 221 285 270
f 221 270 286
f 221 286 222
f 221 284 272
f 221 272 285
f 222 286 223
f 223 286 224
f 224 226 225
f 224 286 287
f 224 287 226
f 226 287 288
f 226 288 289
f 226 289 278
f 229 281 290
f 229 290 291
f 229 291 292
f 229 292 230
f 230 292 293
f 230 293 231
f 231 293 234
f 231 234 232
f 234 293 294
f 234 294 240
f 234 240 295
f 234 295 239
f 238 246 296
f 238 296 297
f 238 297 248
f 239 295 240
f 240 294 298
f 240 298 299
f 240 299 300
f 240 300 242
f 240 242 241
f 242 300 301
f 242 301 302
f 242 302 243
f 243 302 303
f 243 303 304
f 243 304 244
f 244 305 306
f 244 306 245
f 244 304 305
f 245 306 307
f 245 307 308
f 245 308 309
f 245 309 246
f 246 309 296
f 248 297 310
f 248 310 311
f 248 311 312
f 248 312 249
f 249 312 313
f 249 313 314
f 249 314 250
f 252 264 315
f 254 266 316
f 254 316 317
f 254 317 318
f 254 318 319
f 254 319 255
f 255 320 256
f 255 319 320
f 256 320 319
f 256 319 321
f 256 321 261
f 259 322 315
f 259 315 264
f 259 264 260
f 259 263 322
f 261 321 323
f 261 323 262
f 262 323 324
f 262 324 321
f 262 321 325
f 262 325 326
f 262 326 263
f 263 326 327
f 263 327 390
f 263 390 328
f 263 328 322
f 266 329 316
f 267 272 273
f 268 330 331
f 268 331 332
f 268 332 333
f 268 333 334
f 268 334 335
f 268 335 269
f 269 335 336
f 269 336 270
f 270 285 337
f 270 337 271
f 270 336 338
f 270 338 339
f 270 339 286
f 271 337 272
f 272 337 285
f 272 284 283
f 272 282 273
f 273 282 274
f 278 340 279
f 278 289 340
f 279 340 341
f 279 341 342
f 279 342 343
f 279 343 280
f 280 343 281
f 281 343 291
f 281 291 290
f 286 344 287
f 286 339 344
f 287 344 288
f 288 344 289
f 289 344 345
f 289 345 340
f 291 343 342
f 291 342 292
f 292 342 341
f 292 341 344
f 292 344 293
f 293 344 346
f 293 346 347
f 293 347 294
f 294 348 349
f 294 349 298
f 294 347 350
f 294 350 351
f 294 351 348
f 296 352 297
f 296 309 353
f 296 353 352
f 297 352 354
f 297 354 311
f 297 311 310
f 298 349 355
f 298 355 299
f 299 355 300
f 300 355 349
f 300 349 301
f 301 349 356
f 301 356 348
f 301 348 302
f 302 348 303
f 303 351 357
f 303 357 304
f 303 348 351
f 304 358 359
f 304 359 360
f 304 360 361
f 304 361 362
f 304 362 305
f 304 357 358
f 305 362 306
f 306 362 361
f 306 361 363
f 306 363 307
f 307 364 410
f 307 410 365
f 307 365 366
f 307 366 308
f 307 363 364
f 308 366 367
f 308 367 368
f 308 368 309
f 309 368 369
f 309 369 370
f 309 370 371
f 309 371 353
f 311 354 372
f 311 372 313
f 311 313 312
f 313 372 314
f 315 322 373
f 315 373 374
f 316 329 375
f 316 375 376
f 316 376 377
f 316 377 378
f 316 378 317
f 317 378 318
f 318 378 379
f 318 379 380
f 318 380 325
f 318 325 321
f 318 321 319
f 321 324 323
f 322 381 373
f 322 328 382
f 322 382 383
f 322 383 381
f 325 380 384
f 325 384 326
f 326 385 327
f 326 384 386
f 326 386 387
f 326 387 388
f 326 388 385
f 327 385 389
f 327 389 390
f 328 390 391
f 328 391 383
f 328 383 382
f 330 392 393
f 330 393 331
f 331 393 394
f 331 394 332
f 332 394 395
f 332 395 333
f 333 395 334
f 334 395 396
f 334 396 397
f 334 397 398
f 334 398 335
f 335 398 399
f 335 399 400
f 335 400 336
f 336 400 338
f 338 400 401
f 338 401 339
f 339 346 344
f 339 401 400
f 339 400 346
f 340 345 344
f 340 344 341
f 346 400 402
f 346 402 403
f 346 403 347
f 347 403 391
f 347 391 350
f 348 356 349
f 350 391 404
f 350 404 351
f 351 404 390
f 351 390 405
f 351 405 357
f 352 353 371
f 352 371 406
f 352 406 354
f 354 406 407
f 354 407 372
f 357 360 359
f 357 359 358
f 357 405 408
f 357 408 360
f 360 408 409
f 360 409 365
f 360 365 410
f 360 410 411
f 360 411 361
f 361 411 410
f 361 410 364
f 361 364 363
f 365 409 412
f 365 412 366
f 366 412 367
f 367 412 386
f 367 386 413
f 367 413 379
f 367 379 370
f 367 370 368
f 368 370 369
f 370 414 415
f 370 415 371
f 370 379 414
f 371 415 406
f 373 381 374
f 374 381 416
f 377 417 378
f 378 417 379
f 379 413 380
f 379 417 418
f 379 418 414
f 380 413 386
f 380 386 384
f 381 398 397
f 381 397 396
f 381 396 419
f 381 419 420
f 381 420 421
f 381 421 416
f 381 383 399
f 381 399 398
f 383 391 422
f 383 422 399
f 385 388 423
f 385 423 389
f 386 412 424
f 386 424 425
f 386 425 387
f 387 425 426
f 387 426 388
f 388 426 427
f 388 427 423
f 389 423 428
f 389 428 390
f 390 428 408
f 390 408 405
f 390 404 391
f 391 403 402
f 391 402 422
f 392 429 393
f 393 421 394
f 393 429 421
f 394 421 420
f 394 420 395
f 395 420 396
f 396 420 419
f 399 422 400
f 400 422 402
f 408 424 409
f 408 428 423
f 408 423 430
f 408 430 431
f 408 431 432
f 408 432 424
f 409 424 412
f 414 418 433
f 416 421 429
f 417 433 418
f 423 427 431
f 423 431 430
f 424 432 431
f 424 431 426
f 424 426 425
f 426 431 427

