# https://github.com/mikedh/trimesh
v 0.01972074 -0.00212455 -0.03180989
v 0.01972074 -0.00212455 -0.05549622
v 0.00162247 -0.00212455 -0.03180989
v 0.01972074 -0.02591914 -0.03180989
v 0.01769585 -0.00212455 -0.05566165
v 0.01972074 -0.01926947 -0.05843057
v 0.01823263 -0.02180458 -0.05911941
v 0.00162247 -0.00212455 -0.05569962
v 0.00162247 -0.02863165 -0.03180989
v 0.01950461 -0.02599353 -0.03180989
v 0.01262210 -0.02859159 -0.05149878
v 0.01363720 -0.02825396 -0.05251306
v 0.01950638 -0.02600498 -0.03323367
v 0.01972074 -0.02591914 -0.03323367
v 0.01668074 -0.00212455 -0.05574301
v 0.01972074 -0.02031099 -0.05858515
v 0.01824503 -0.02233965 -0.05913297
v 0.01668074 -0.02437117 -0.05940145
v 0.01817240 -0.02180458 -0.05911941
v 0.01574536 -0.00212455 -0.05575386
v 0.01566564 -0.00212455 -0.05575386
v 0.01160699 -0.02639984 -0.05950993
v 0.00162247 -0.02785624 -0.05914111
v 0.00162247 -0.03104945 -0.05046823
v 0.00187049 -0.02860304 -0.03180989
v 0.01871095 -0.02618238 -0.03180989
v 0.01121725 -0.02897787 -0.04743896
v 0.01127925 -0.02900362 -0.04845324
v 0.01133063 -0.02901793 -0.05048450
v 0.01262210 -0.02860304 -0.05251306
v 0.01363720 -0.02824538 -0.05352733
v 0.01429268 -0.02799644 -0.05251306
v 0.01933808 -0.02595061 -0.04135331
v 0.01972074 -0.02577893 -0.04033903
v 0.01972074 -0.02049411 -0.05853905
v 0.01822909 -0.02290332 -0.05913026
v 0.01735393 -0.02437117 -0.05923602
v 0.01668074 -0.02506361 -0.05927128
v 0.01562666 -0.02541555 -0.05934450
v 0.01465053 -0.02538693 -0.05946654
v 0.01262210 -0.02639984 -0.05948824
v 0.00957855 -0.02741560 -0.05950451
v 0.00162247 -0.02789916 -0.05914111
v 0.00288560 -0.02848286 -0.03180989
v 0.00196793 -0.02859159 -0.03180989
v 0.00162247 -0.03115246 -0.05131708
v 0.01201799 -0.02739557 -0.03180989
v 0.01160699 -0.02744707 -0.03180989
v 0.00732159 -0.02795639 -0.03180989
v 0.01363720 -0.02714091 -0.03180989
v 0.00302201 -0.03097506 -0.05193269
v 0.00450480 -0.03065173 -0.05149878
v 0.00653501 -0.03017103 -0.05048450
v 0.00856345 -0.02969033 -0.04946751
v 0.00957855 -0.02948718 -0.04946751
v 0.01059366 -0.02918674 -0.04845324
v 0.01059366 -0.02922680 -0.04946751
v 0.01133240 -0.02900648 -0.05149878
v 0.01183907 -0.02885483 -0.05149878
v 0.01059366 -0.02923539 -0.05048450
v 0.01262210 -0.02859159 -0.05352733
v 0.01262210 -0.02852864 -0.05454161
v 0.01369389 -0.02812234 -0.05453076
v 0.01419170 -0.02795066 -0.05418363
v 0.01425016 -0.02798214 -0.05352733
v 0.01930088 -0.02593917 -0.04236758
v 0.01708289 -0.02686337 -0.04642469
v 0.01972074 -0.02575318 -0.04135331
v 0.01972074 -0.02120943 -0.05834107
v 0.01805724 -0.02357859 -0.05892957
v 0.01721752 -0.02490624 -0.05914111
v 0.01972074 -0.02122660 -0.05833565
v 0.01526172 -0.02594203 -0.05917365
v 0.01465053 -0.02609081 -0.05929568
v 0.01059366 -0.02741560 -0.05948010
v 0.00957855 -0.02826540 -0.05935264
v 0.00162247 -0.02867171 -0.05910585
v 0.00162247 -0.02842278 -0.05912754
v 0.00162247 -0.02832549 -0.05913568
v 0.00162247 -0.03127263 -0.05236119
v 0.01262210 -0.02731259 -0.03180989
v 0.01303310 -0.02724964 -0.03180989
v 0.00162247 -0.03128694 -0.05251306
v 0.00247459 -0.03112957 -0.05251306
v 0.00311058 -0.03099795 -0.05251306
v 0.00551991 -0.03043999 -0.05149878
v 0.00856345 -0.02973897 -0.05048450
v 0.00957855 -0.02950149 -0.05048450
v 0.01059366 -0.02920391 -0.05149878
v 0.01178769 -0.02885197 -0.05251306
v 0.01169911 -0.02883480 -0.05352733
v 0.01152373 -0.02882908 -0.05453889
v 0.01262210 -0.02835124 -0.05555860
v 0.01106666 -0.02892923 -0.05487789
v 0.01044662 -0.02903510 -0.05555860
v 0.01095151 -0.02889203 -0.05555860
v 0.01160699 -0.02869746 -0.05555860
v 0.01336615 -0.02803650 -0.05555860
v 0.01407123 -0.02788485 -0.05485891
v 0.01795095 -0.02575032 -0.05454161
v 0.01733268 -0.02597350 -0.05534977
v 0.01927431 -0.02491196 -0.05519248
v 0.01475683 -0.02769028 -0.05352733
v 0.01972074 -0.02569882 -0.04236758
v 0.01972074 -0.02237684 -0.05761969
v 0.01810685 -0.02476031 -0.05791258
v 0.01828932 -0.02492626 -0.05723730
v 0.01739114 -0.02500638 -0.05860142
v 0.01668074 -0.02541555 -0.05860142
v 0.01598275 -0.02579610 -0.05860142
v 0.01972074 -0.02339833 -0.05691729
v 0.01926013 -0.02393053 -0.05713425
v 0.01947981 -0.02413082 -0.05657287
v 0.01547608 -0.02604789 -0.05860142
v 0.01321203 -0.02694920 -0.05916280
v 0.01262210 -0.02709227 -0.05928484
v 0.01154321 -0.02743563 -0.05933637
v 0.01059366 -0.02808514 -0.05927399
v 0.00822331 -0.02897787 -0.05914924
v 0.00754834 -0.02899504 -0.05915467
v 0.00162247 -0.02890634 -0.05905975
v 0.00169865 -0.02875469 -0.05909229
v 0.00162247 -0.03134989 -0.05336461
v 0.00162247 -0.03135561 -0.05352733
v 0.00733576 -0.03002797 -0.05149878
v 0.00653501 -0.03021395 -0.05149878
v 0.00312830 -0.03100367 -0.05352733
v 0.01113044 -0.02894640 -0.05419990
v 0.01059720 -0.02882622 -0.05664067
v 0.01160699 -0.02849431 -0.05657287
v 0.01059366 -0.02838272 -0.05860142
v 0.00257380 -0.03108951 -0.05463110
v 0.00297772 -0.03096647 -0.05502976
v 0.00348970 -0.03080910 -0.05555860
v 0.00551991 -0.03017962 -0.05758715
v 0.00619842 -0.02999649 -0.05758715
v 0.00608326 -0.02997074 -0.05813768
v 0.01026060 -0.02899217 -0.05634507
v 0.01167608 -0.02818529 -0.05763867
v 0.01228196 -0.02800503 -0.05733765
v 0.01317836 -0.02794780 -0.05614167
v 0.01387282 -0.02779043 -0.05555860
v 0.01465053 -0.02738698 -0.05555860
v 0.01534853 -0.02701215 -0.05555860
v 0.01871095 -0.02530968 -0.05454161
v 0.01677109 -0.02620813 -0.05563724
v 0.01845939 -0.02502069 -0.05657287
v 0.01913612 -0.02482898 -0.05587047
v 0.01876410 -0.02512083 -0.05554232
v 0.01972074 -0.02444271 -0.05561555
v 0.01972074 -0.02472025 -0.05454161
v 0.01933631 -0.02494629 -0.05454161
v 0.01678526 -0.02667452 -0.05149878
v 0.01916270 -0.02586191 -0.04439614
v 0.01871095 -0.02539266 -0.05352733
v 0.01972074 -0.02496918 -0.05149878
v 0.01972074 -0.02561584 -0.04341983
v 0.01972074 -0.02440837 -0.05567521
v 0.01615459 -0.02588480 -0.05806174
v 0.01774014 -0.02513514 -0.05757901
v 0.01972074 -0.02378174 -0.05658643
v 0.01466116 -0.02674605 -0.05765766
v 0.01411021 -0.02689198 -0.05804276
v 0.01262210 -0.02743849 -0.05860142
v 0.01116410 -0.02795352 -0.05915195
v 0.00890005 -0.02886914 -0.05891872
v 0.00551991 -0.03005086 -0.05825158
v 0.00450480 -0.03013956 -0.05836006
v 0.00348970 -0.03017389 -0.05838989
v 0.00247459 -0.03020251 -0.05841159
v 0.00162247 -0.03022826 -0.05842786
v 0.00162247 -0.02937273 -0.05894584
v 0.00162247 -0.03132127 -0.05437889
v 0.00247459 -0.03116104 -0.05352733
v 0.00450480 -0.03068893 -0.05251306
v 0.01059366 -0.02862879 -0.05758715
v 0.01005156 -0.02892636 -0.05702306
v 0.00987618 -0.02886914 -0.05758715
v 0.00953249 -0.02875755 -0.05859057
v 0.01136074 -0.02804795 -0.05860142
v 0.00162247 -0.03131269 -0.05455517
v 0.00286611 -0.03095217 -0.05555860
v 0.00450480 -0.03039994 -0.05758715
v 0.00916401 -0.02896642 -0.05824344
v 0.00856345 -0.02929261 -0.05758715
v 0.01356457 -0.02764164 -0.05651592
v 0.01520149 -0.02693204 -0.05614709
v 0.01652662 -0.02608795 -0.05657287
v 0.01769585 -0.02544416 -0.05657287
v 0.01972074 -0.02484042 -0.05307714
v 0.01972074 -0.02537549 -0.04642469
v 0.00348970 -0.03052583 -0.05758715
v 0.00247459 -0.03059164 -0.05758715
v 0.00162247 -0.03064028 -0.05758715
v 0.00162247 -0.03115532 -0.05555860
v 0.00215394 -0.03098936 -0.05614709
v 0.00235767 -0.03104945 -0.05555860
v 0.00348970 -0.03071754 -0.05657287
v 0.00162247 -0.03100940 -0.05622031
f 1 2 5
f 1 5 15
f 1 15 20
f 1 20 21
f 1 21 8
f 1 8 3
f 1 3 9
f 1 9 25
f 1 25 45
f 1 45 44
f 1 44 49
f 1 49 48
f 1 48 47
f 1 47 81
f 1 81 82
f 1 82 50
f 1 50 26
f 1 26 10
f 1 10 4
f 1 4 14
f 1 14 34
f 1 34 68
f 1 68 104
f 1 104 157
f 1 157 191
f 1 191 156
f 1 156 190
f 1 190 151
f 1 151 150
f 1 150 158
f 1 158 161
f 1 161 111
f 1 111 105
f 1 105 72
f 1 72 69
f 1 69 35
f 1 35 16
f 1 16 6
f 1 6 2
f 2 6 7
f 2 7 5
f 3 8 23
f 3 23 43
f 3 43 79
f 3 79 78
f 3 78 77
f 3 77 121
f 3 121 172
f 3 172 171
f 3 171 194
f 3 194 199
f 3 199 195
f 3 195 181
f 3 181 173
f 3 173 124
f 3 124 123
f 3 123 83
f 3 83 80
f 3 80 46
f 3 46 24
f 3 24 9
f 4 10 11
f 4 11 12
f 4 12 13
f 4 13 14
f 5 7 15
f 6 16 7
f 7 16 17
f 7 17 18
f 7 18 19
f 7 19 21
f 7 21 20
f 7 20 15
f 8 21 19
f 8 19 22
f 8 22 23
f 9 24 25
f 10 26 27
f 10 27 28
f 10 28 29
f 10 29 11
f 11 29 30
f 11 30 12
f 12 30 31
f 12 31 32
f 12 32 13
f 13 32 14
f 14 33 34
f 14 32 33
f 16 35 36
f 16 36 17
f 17 36 18
f 18 36 37
f 18 37 38
f 18 38 39
f 18 39 40
f 18 40 22
f 18 22 19
f 22 40 41
f 22 41 42
f 22 42 23
f 23 42 43
f 24 44 45
f 24 45 25
f 24 46 47
f 24 47 48
f 24 48 49
f 24 49 44
f 26 50 51
f 26 51 52
f 26 52 53
f 26 53 54
f 26 54 55
f 26 55 27
f 27 55 56
f 27 56 28
f 28 56 57
f 28 57 29
f 29 58 59
f 29 59 30
f 29 57 60
f 29 60 58
f 30 61 31
f 30 59 61
f 31 61 62
f 31 62 63
f 31 63 64
f 31 64 65
f 31 65 32
f 32 65 66
f 32 66 67
f 32 67 33
f 33 66 68
f 33 68 34
f 33 67 66
f 35 69 36
f 36 70 71
f 36 71 37
f 36 69 72
f 36 72 70
f 37 71 38
f 38 71 73
f 38 73 74
f 38 74 39
f 39 74 41
f 39 41 40
f 41 74 75
f 41 75 42
f 42 75 76
f 42 76 77
f 42 77 78
f 42 78 79
f 42 79 43
f 46 80 81
f 46 81 47
f 50 82 80
f 50 80 83
f 50 83 51
f 51 83 84
f 51 84 52
f 52 84 55
f 52 55 53
f 53 55 54
f 55 84 85
f 55 85 86
f 55 86 87
f 55 87 88
f 55 88 57
f 55 57 56
f 57 88 60
f 58 60 89
f 58 89 90
f 58 90 61
f 58 61 59
f 60 88 89
f 61 90 91
f 61 91 92
f 61 92 62
f 62 93 63
f 62 92 94
f 62 94 95
f 62 95 96
f 62 96 97
f 62 97 93
f 63 98 99
f 63 99 64
f 63 93 98
f 64 100 65
f 64 99 101
f 64 101 102
f 64 102 100
f 65 100 103
f 65 103 104
f 65 104 66
f 66 104 68
f 70 105 71
f 70 72 105
f 71 106 107
f 71 107 108
f 71 108 109
f 71 109 110
f 71 110 73
f 71 105 111
f 71 111 112
f 71 112 113
f 71 113 106
f 73 110 114
f 73 114 115
f 73 115 116
f 73 116 74
f 74 116 75
f 75 116 117
f 75 117 118
f 75 118 76
f 76 118 119
f 76 119 120
f 76 120 121
f 76 121 122
f 76 122 77
f 77 122 121
f 80 82 81
f 83 123 84
f 84 123 85
f 85 123 124
f 85 124 86
f 86 124 87
f 87 125 88
f 87 124 126
f 87 126 125
f 88 125 89
f 89 91 90
f 89 125 127
f 89 127 91
f 91 127 128
f 91 128 94
f 91 94 92
f 93 97 129
f 93 129 130
f 93 130 131
f 93 131 98
f 94 128 127
f 94 127 132
f 94 132 133
f 94 133 134
f 94 134 135
f 94 135 95
f 95 135 136
f 95 136 137
f 95 137 96
f 96 137 138
f 96 138 97
f 97 138 129
f 98 131 139
f 98 139 140
f 98 140 141
f 98 141 142
f 98 142 99
f 99 142 143
f 99 143 144
f 99 144 101
f 100 102 145
f 100 145 103
f 101 144 146
f 101 146 147
f 101 147 148
f 101 148 149
f 101 149 102
f 102 148 150
f 102 150 151
f 102 151 152
f 102 152 145
f 102 149 148
f 103 153 154
f 103 154 104
f 103 145 155
f 103 155 156
f 103 156 153
f 104 154 157
f 106 158 150
f 106 150 107
f 106 113 158
f 107 147 159
f 107 159 160
f 107 160 108
f 107 150 148
f 107 148 147
f 108 160 109
f 109 160 159
f 109 159 110
f 110 159 114
f 111 161 112
f 112 161 113
f 113 161 158
f 114 159 162
f 114 162 163
f 114 163 164
f 114 164 165
f 114 165 115
f 115 165 116
f 116 165 118
f 116 118 117
f 118 165 166
f 118 166 119
f 119 166 137
f 119 137 167
f 119 167 168
f 119 168 169
f 119 169 170
f 119 170 171
f 119 171 120
f 120 171 172
f 120 172 121
f 124 173 174
f 124 174 175
f 124 175 126
f 125 126 175
f 125 175 174
f 125 174 127
f 127 174 132
f 129 176 130
f 129 138 177
f 129 177 178
f 129 178 176
f 130 176 131
f 131 176 179
f 131 179 166
f 131 166 165
f 131 165 180
f 131 180 139
f 132 174 173
f 132 173 181
f 132 181 182
f 132 182 134
f 132 134 133
f 134 182 135
f 135 182 183
f 135 183 137
f 135 137 136
f 137 183 167
f 137 166 179
f 137 179 184
f 137 184 185
f 137 185 138
f 138 185 177
f 139 180 140
f 140 180 164
f 140 164 163
f 140 163 186
f 140 186 141
f 141 186 142
f 142 186 162
f 142 162 159
f 142 159 187
f 142 187 143
f 143 187 144
f 144 187 188
f 144 188 146
f 145 152 155
f 146 188 189
f 146 189 147
f 147 189 159
f 151 190 152
f 152 190 156
f 152 156 155
f 153 156 191
f 153 191 154
f 154 191 157
f 159 188 187
f 159 189 188
f 162 186 163
f 164 180 165
f 167 183 192
f 167 192 168
f 168 192 193
f 168 193 194
f 168 194 169
f 169 194 171
f 169 171 170
f 176 178 184
f 176 184 179
f 177 185 178
f 178 185 184
f 181 195 196
f 181 196 197
f 181 197 198
f 181 198 182
f 182 198 183
f 183 198 196
f 183 196 192
f 192 196 199
f 192 199 193
f 193 199 194
f 195 199 196
f 196 198 197

