# https://github.com/mikedh/trimesh
v -0.03300755 -0.00212455 -0.05727012
v -0.03292320 -0.00212090 -0.05759296
v -0.03290071 -0.00212090 -0.05764993
v -0.03265047 -0.00212090 -0.05826395
v -0.03261392 -0.00212090 -0.05830193
v -0.03196162 -0.00212090 -0.05879567
v -0.03146677 -0.00212090 -0.05908052
v -0.03096630 -0.00212090 -0.05929574
v -0.02726901 -0.00212455 -0.05727012
v -0.03319312 -0.00212455 -0.05656749
v -0.03294007 -0.00204427 -0.05758663
v -0.03266172 -0.00204427 -0.05827661
v -0.03202629 -0.00102988 -0.05880200
v -0.03275450 -0.00102988 -0.05832725
v -0.03282760 -0.00001548 -0.05832725
v -0.03159611 0.00404575 -0.05915649
v -0.03101410 0.00302770 -0.05938437
v -0.03020435 -0.00212090 -0.05929574
v -0.00509085 -0.00212455 -0.05574458
v -0.03335057 -0.00212455 -0.05554835
v -0.03320436 -0.00204427 -0.05656749
v -0.03312001 -0.00102988 -0.05758663
v -0.03325216 -0.00001548 -0.05758663
v -0.03205440 0.00201696 -0.05884631
v -0.03283885 0.00099891 -0.05833357
v -0.03327184 0.00099891 -0.05758663
v -0.03159330 0.00506014 -0.05916281
v -0.03101410 0.00506014 -0.05940969
v -0.00666256 0.03144172 -0.05930840
v -0.00564756 0.03144172 -0.05928942
v -0.00509085 0.03144172 -0.05927675
v -0.00509085 -0.00212455 0.00525824
v -0.03342367 -0.00212455 -0.05452921
v -0.03343210 -0.00204427 -0.05452921
v -0.03356988 -0.00073067 -0.05423169
v -0.03343773 -0.00102988 -0.05554835
v -0.03342648 -0.00001548 -0.05656749
v -0.03333089 -0.00102988 -0.05656749
v -0.03279105 0.00201696 -0.05833357
v -0.03318187 0.00201696 -0.05758663
v -0.03257174 0.00607454 -0.05814367
v -0.03268140 0.00404575 -0.05827028
v -0.03273482 0.00302770 -0.05831459
v -0.03344335 0.00099891 -0.05656749
v -0.03337587 0.00201696 -0.05656749
v -0.03155675 0.00589939 -0.05913749
v -0.03097755 0.00708164 -0.05934639
v -0.02999910 0.00912137 -0.05937171
v -0.02593910 0.01823998 -0.05934639
v -0.02390911 0.02129412 -0.05935271
v -0.00767755 0.03144172 -0.05931474
v -0.00509085 0.03217515 -0.05922611
v -0.00509085 0.03510522 0.00525824
v -0.03355581 -0.00212455 0.00525824
v -0.03345460 -0.00212455 -0.05359236
v -0.03353894 -0.00139842 -0.05351640
v -0.03358956 -0.00089122 -0.05351640
v -0.03367390 -0.00001548 -0.05351640
v -0.03359518 -0.00002643 -0.05455453
v -0.03356425 0.00030562 -0.05520652
v -0.03271233 0.00607454 -0.05758663
v -0.03254082 0.00663647 -0.05809936
v -0.03327184 0.00303135 -0.05656749
v -0.03148364 0.00708164 -0.05908052
v -0.03194756 0.00617306 -0.05873870
v -0.03209658 0.00506014 -0.05871971
v -0.03356988 0.00099891 -0.05523817
v -0.03369640 0.00201696 -0.05351640
v -0.03355581 0.00164112 -0.05513689
v -0.03349396 0.00199141 -0.05550404
v -0.03344054 0.00404575 -0.05452921
v -0.03338150 0.00607454 -0.05351640
v -0.03334776 0.00506014 -0.05452921
v -0.03151738 0.00657444 -0.05910584
v -0.03085103 0.00810333 -0.05930840
v -0.03097474 0.00708893 -0.05934639
v -0.02695410 0.01723289 -0.05932106
v -0.02289411 0.02230851 -0.05934006
v -0.02492410 0.02027972 -0.05932739
v -0.02745457 0.01873988 -0.05910584
v -0.02583226 0.02025418 -0.05916281
v -0.02485100 0.02122114 -0.05918814
v -0.02060544 0.02516925 -0.05923878
v -0.01965511 0.02606323 -0.05918814
v -0.00863913 0.03141982 -0.05922611
v -0.00826237 0.03199635 -0.05913117
v -0.00767755 0.03204743 -0.05915649
v -0.00666256 0.03209852 -0.05918814
v -0.00564756 0.03214961 -0.05921346
v -0.00666256 0.03260937 -0.05889062
v -0.00509085 0.03268235 -0.05892227
v -0.00509085 0.03511252 0.00431506
v -0.00559976 0.03504319 0.00525824
v -0.03367953 0.00099891 0.00525824
v -0.03374419 -0.00001548 -0.03626064
v -0.03375544 -0.00001548 -0.04438212
v -0.03358393 -0.00212455 -0.02493616
v -0.03347990 -0.00212455 -0.05144647
v -0.03347709 -0.00204427 -0.05250992
v -0.03362048 -0.00102988 -0.05047797
v -0.03373857 -0.00001548 -0.05047797
v -0.03371327 -0.00001548 -0.05250992
v -0.03379199 0.00099891 -0.05250992
v -0.03373014 0.00099891 -0.05351640
v -0.03259986 0.00701960 -0.05758030
v -0.03315094 0.00404575 -0.05656749
v -0.03257737 0.00708528 -0.05764993
v -0.03249302 0.00731152 -0.05790946
v -0.03169451 0.01013577 -0.05825128
v -0.03183510 0.00912137 -0.05838421
v -0.03192788 0.00810333 -0.05849183
v -0.03210220 0.00701960 -0.05847917
v -0.03323529 0.00607454 -0.05452921
v -0.03135993 0.00810333 -0.05899823
v -0.03353614 0.00231617 -0.05488369
v -0.03377231 0.00201696 -0.05250992
v -0.03355301 0.00459673 -0.05304164
v -0.03348552 0.00498352 -0.05343411
v -0.03326059 0.00708893 -0.05351640
v -0.03345741 0.00607454 -0.05250992
v -0.02704970 0.01834215 -0.05921346
v -0.02593910 0.01925803 -0.05928942
v -0.02872262 0.01723289 -0.05842220
v -0.02857360 0.01797361 -0.05826395
v -0.02775261 0.01925803 -0.05844119
v -0.02755860 0.01986375 -0.05822596
v -0.02722121 0.01925803 -0.05895392
v -0.02648175 0.01979442 -0.05911217
v -0.02548643 0.02083070 -0.05913117
v -0.03116312 0.00912137 -0.05889062
v -0.03157924 0.01078527 -0.05815633
v -0.02446300 0.02184145 -0.05913117
v -0.02032990 0.02584430 -0.05909951
v -0.01906747 0.02673828 -0.05904887
v -0.01839268 0.02691343 -0.05911850
v -0.00863913 0.03238313 -0.05879567
v -0.00767755 0.03255463 -0.05887163
v -0.01579474 0.03019744 -0.05828294
v -0.01449857 0.03101845 -0.05818798
v -0.00767755 0.03320414 -0.05835889
v -0.00666256 0.03324792 -0.05838421
v -0.00564756 0.03327347 -0.05840320
v -0.00509085 0.03295966 -0.05868806
v -0.00509085 0.03512711 0.00227678
v -0.00562788 0.03505413 0.00329593
v -0.00613397 0.03499210 0.00329593
v -0.00607211 0.03498480 0.00525824
v -0.03364860 0.00201696 0.00525824
v -0.03379199 0.00201696 -0.05148445
v -0.03378637 0.00099891 -0.03728611
v -0.03381449 0.00099891 -0.05047797
v -0.03375544 -0.00001548 -0.04743321
v -0.03358393 -0.00212455 -0.02613887
v -0.03350239 -0.00212455 -0.04946516
v -0.03355301 -0.00154437 -0.05106033
v -0.03353332 -0.00212455 -0.04669259
v -0.03364298 -0.00102988 -0.04845235
v -0.03380605 0.00099891 -0.05148445
v -0.03358956 -0.00185818 -0.04438212
v -0.03259705 0.00708164 -0.05755498
v -0.03277137 0.00708893 -0.05656749
v -0.03252395 0.00850471 -0.05698527
v -0.03256612 0.00782966 -0.05723214
v -0.03311158 0.00708893 -0.05452921
v -0.03248740 0.00833321 -0.05727012
v -0.03244522 0.00814347 -0.05757397
v -0.03226528 0.00912137 -0.05758030
v -0.03356425 0.00470255 -0.05250992
v -0.03352489 0.00520975 -0.05250992
v -0.03333651 0.00708893 -0.05250992
v -0.03304129 0.00810333 -0.05351640
v -0.03292601 0.00810333 -0.05452921
v -0.03257737 0.00875283 -0.05630796
v -0.03346303 0.00607454 -0.05148445
v -0.03334776 0.00708893 -0.05148445
v -0.02952956 0.01581346 -0.05815633
v -0.02843302 0.01865231 -0.05795377
v -0.02061106 0.02708493 -0.05825761
v -0.02825308 0.01925073 -0.05759929
v -0.02831775 0.01940398 -0.05727012
v -0.02818560 0.01961197 -0.05727012
v -0.02773011 0.02008268 -0.05758030
v -0.02766826 0.02098761 -0.05637125
v -0.02449393 0.02390308 -0.05713719
v -0.03142460 0.01146032 -0.05782084
v -0.03047708 0.01363507 -0.05801707
v -0.03199255 0.01013577 -0.05758030
v -0.03165796 0.01113192 -0.05752333
v -0.01984911 0.02740603 -0.05842220
v -0.01993627 0.02638799 -0.05896025
v -0.01877225 0.02730021 -0.05886530
v -0.01680130 0.02943482 -0.05839054
v -0.01173755 0.03205109 -0.05820697
v -0.00869255 0.03310562 -0.05827661
v -0.01645828 0.03002230 -0.05820064
v -0.01517618 0.03086154 -0.05777653
v -0.01225208 0.03195256 -0.05809936
v -0.00933079 0.03301439 -0.05816266
v -0.00509085 0.03379891 -0.05772589
v -0.00509085 0.03407623 -0.05727012
v -0.00509085 0.03327712 -0.05841587
v -0.00509085 0.03513076 0.00173240
v -0.00509085 0.03514535 -0.00127438
v -0.00509085 0.03515265 -0.00327468
v -0.00613116 0.03499210 0.00227678
v -0.00760445 0.03466370 0.00525824
v -0.00665974 0.03487534 0.00525824
v -0.03357831 0.00263362 0.00525824
v -0.03339836 0.00607454 -0.02713902
v -0.03351926 0.00509298 -0.03119026
v -0.03345460 0.00607454 -0.04133736
v -0.03351926 0.00511852 -0.03220307
v -0.03357831 -0.00212455 -0.04133736
v -0.03356988 -0.00212455 -0.04295785
v -0.03243960 0.00909948 -0.05660547
v -0.03232151 0.00911407 -0.05727012
v -0.03311720 0.00810333 -0.05148445
v -0.03310033 0.00810333 -0.05250992
v -0.03274325 0.00911772 -0.05351640
v -0.03254082 0.00965046 -0.05410509
v -0.03264766 0.00916881 -0.05447857
v -0.03261954 0.00890609 -0.05554835
v -0.03216406 0.01013212 -0.05656749
v -0.03335057 0.00708893 -0.05047797
v -0.03312564 0.00810333 -0.05047797
v -0.03075824 0.01324828 -0.05764360
v -0.02851175 0.01985645 -0.05616869
v -0.02839647 0.01959373 -0.05683968
v -0.02130272 0.02678572 -0.05758663
v -0.02079663 0.02724548 -0.05758663
v -0.02017526 0.02775268 -0.05758663
v -0.01951171 0.02799715 -0.05819431
v -0.02803658 0.02031256 -0.05659914
v -0.02829244 0.02043662 -0.05554835
v -0.02778635 0.02111897 -0.05554835
v -0.02726901 0.02162252 -0.05554835
v -0.02457265 0.02397241 -0.05656749
v -0.02346206 0.02489923 -0.05714352
v -0.03204597 0.01013577 -0.05727012
v -0.03194756 0.01045687 -0.05727012
v -0.03150333 0.01261702 -0.05589650
v -0.03158205 0.01152235 -0.05727012
v -0.01883692 0.02822338 -0.05833990
v -0.00869255 0.03334645 -0.05758663
v -0.00767755 0.03355078 -0.05758663
v -0.01832802 0.02890208 -0.05808670
v -0.01661292 0.03012446 -0.05758663
v -0.01569633 0.03064991 -0.05749801
v -0.01529145 0.03093817 -0.05709288
v -0.01508339 0.03100020 -0.05727012
v -0.01481348 0.03108048 -0.05749801
v -0.01376755 0.03147821 -0.05758663
v -0.01240110 0.03200730 -0.05758663
v -0.01173755 0.03226272 -0.05758663
v -0.00953885 0.03309102 -0.05758663
v -0.00546199 0.03404339 -0.05720049
v -0.00509085 0.03407988 -0.05725746
v -0.00509085 0.03513806 -0.00990226
v -0.00583312 0.03493737 -0.02814550
v -0.00665974 0.03479871 -0.02411958
v -0.00767474 0.03456518 -0.02613887
v -0.00861664 0.03441558 0.00525824
v -0.03357269 0.00268106 0.00525824
v -0.03330558 0.00708893 -0.04033087
v -0.03332245 0.00708893 -0.04336931
v -0.03343773 0.00607454 -0.03626064
v -0.03304129 0.00708893 0.00525824
v -0.03287540 0.00810333 0.00525824
v -0.03334776 0.00708893 -0.04945250
v -0.03253238 0.01062472 -0.03525416
v -0.03265891 0.01002630 -0.04033087
v -0.03286696 0.00911772 -0.04641407
v -0.03152301 0.01369345 -0.04188174
v -0.03151457 0.01366061 -0.04336931
v -0.03222029 0.01115016 -0.04845235
v -0.03259986 0.00982926 -0.05047797
v -0.03242835 0.01029997 -0.05250992
v -0.03182947 0.01216456 -0.05351640
v -0.03157080 0.01283596 -0.05452921
v -0.03176762 0.01216456 -0.05452921
v -0.03153988 0.01273014 -0.05521918
v -0.03313407 0.00810333 -0.04438212
v -0.03313407 0.00810333 -0.04641407
v -0.03313126 0.00810333 -0.04845235
v -0.03253519 0.01063202 -0.03422869
v -0.03051363 0.01574048 -0.05506093
v -0.02855111 0.01993308 -0.05554835
v -0.02133646 0.02683315 -0.05727012
v -0.02241332 0.02588444 -0.05713086
v -0.02136177 0.02686964 -0.05699793
v -0.01966917 0.02810662 -0.05758663
v -0.02027085 0.02782201 -0.05656749
v -0.01976195 0.02820514 -0.05656749
v -0.01806372 0.02973403 -0.05452921
v -0.01905623 0.02870869 -0.05656749
v -0.02857642 0.01996227 -0.05452921
v -0.02829525 0.02047676 -0.05452921
v -0.02778635 0.02114816 -0.05452921
v -0.02735336 0.02168090 -0.05351640
v -0.02732243 0.02166630 -0.05452921
v -0.02676572 0.02208958 -0.05554835
v -0.02351267 0.02495032 -0.05656749
v -0.03114906 0.01419335 -0.05452921
v -0.00906650 0.03329536 -0.05727012
v -0.00970474 0.03343767 -0.05554835
v -0.00869255 0.03340483 -0.05727012
v -0.00613959 0.03397406 -0.05705490
v -0.01879475 0.02867220 -0.05768158
v -0.01845454 0.02898236 -0.05727012
v -0.01733270 0.02993107 -0.05611172
v -0.01686316 0.03016095 -0.05649786
v -0.01586503 0.03071559 -0.05656749
v -0.01598593 0.03078856 -0.05554835
v -0.01536174 0.03096736 -0.05656749
v -0.01132705 0.03300710 -0.05452921
v -0.01327270 0.03195621 -0.05609273
v -0.01125114 0.03297426 -0.05508625
v -0.01173474 0.03248166 -0.05656749
v -0.01106838 0.03290493 -0.05576990
v -0.01039078 0.03303264 -0.05637125
v -0.01019959 0.03295966 -0.05704857
v -0.00962883 0.03312386 -0.05727012
v -0.00509085 0.03425867 -0.05659914
v -0.00509085 0.03505413 -0.02814550
v -0.00532422 0.03502494 -0.02814550
v -0.00580782 0.03493372 -0.02917097
v -0.00665974 0.03476587 -0.02917097
v -0.00767474 0.03455059 -0.02917097
v -0.00868974 0.03428786 -0.03422869
v -0.00868974 0.03439733 0.00525824
v -0.03256612 0.00974169 0.00525824
v -0.03249302 0.01049701 -0.04235649
v -0.03264766 0.00998981 -0.04235649
v -0.03133744 0.01420065 -0.04133736
v -0.03137680 0.01409118 -0.04227420
v -0.03133463 0.01419335 -0.04336931
v -0.03132619 0.01419335 -0.04438212
v -0.03152301 0.01369345 -0.03970420
v -0.03123341 0.01419335 -0.05148445
v -0.03121935 0.01419335 -0.05250992
v -0.03150051 0.01361682 -0.04540126
v -0.03120529 0.01419335 -0.05351640
v -0.03141335 0.01334315 -0.05452921
v -0.03243116 0.01024888 0.00525824
v -0.03220342 0.01108813 0.00525824
v -0.03187727 0.01216456 0.00329593
v -0.03146115 0.01348911 -0.00178712
v -0.03077230 0.01520774 -0.05452921
v -0.03053612 0.01577697 -0.05452921
v -0.03031119 0.01629512 -0.05452921
v -0.02987539 0.01723289 -0.05452921
v -0.02143206 0.02692438 -0.05554835
v -0.02096252 0.02724183 -0.05661813
v -0.02579852 0.02314776 -0.05351640
v -0.02427181 0.02471314 -0.05148445
v -0.02443207 0.02485910 -0.04810419
v -0.02446300 0.02488829 -0.04743321
v -0.02329336 0.02576402 -0.04945250
v -0.02031865 0.02785849 -0.05554835
v -0.01924461 0.02882181 -0.05452921
v -0.01815651 0.02978147 -0.05351640
v -0.01917432 0.02878167 -0.05554835
v -0.01755201 0.03006973 -0.05452921
v -0.01792314 0.02965011 -0.05554835
v -0.01765322 0.03014636 -0.05351640
v -0.03056143 0.01584265 -0.05250992
v -0.03033369 0.01637539 -0.04945250
v -0.03058673 0.01587549 -0.04540126
v -0.03054737 0.01579522 -0.02411958
v -0.03054456 0.01578427 -0.02208763
v -0.02946489 0.01767440 0.00329593
v -0.02917529 0.01823633 0.00329593
v -0.02869169 0.01905369 0.00525824
v -0.02837960 0.01961562 -0.00178712
v -0.02757548 0.02092923 -0.01497264
v -0.02777791 0.02117370 -0.05351640
v -0.02735617 0.02167360 -0.05250992
v -0.02640865 0.02277557 -0.05047797
v -0.02546113 0.02385930 -0.04845235
v -0.02639178 0.02276462 -0.05148445
v -0.02681352 0.02213336 -0.05452921
v -0.02544707 0.02384105 -0.04912966
v -0.02584632 0.02319155 -0.05250992
v -0.01072536 0.03309467 -0.05546605
v -0.01071974 0.03326252 -0.05452921
v -0.00970474 0.03361282 -0.05452921
v -0.00868974 0.03353254 -0.05656749
v -0.00979752 0.03318954 -0.05664978
v -0.00767474 0.03374418 -0.05656749
v -0.00671598 0.03392662 -0.05665611
v -0.00573753 0.03412366 -0.05665611
v -0.01741424 0.02997851 -0.05554835
v -0.01681255 0.03034340 -0.05554835
v -0.01681255 0.03049300 -0.05452921
v -0.01681255 0.03062071 -0.05351640
v -0.01611245 0.03084695 -0.05452921
v -0.01397280 0.03181391 -0.05452921
v -0.01622210 0.03089803 -0.05351640
v -0.01193155 0.03282465 -0.05351640
v -0.01142265 0.03305089 -0.05351640
v -0.01071974 0.03335739 -0.05351640
v -0.00736265 0.03401420 -0.05527615
v -0.00509085 0.03432435 -0.05610539
v -0.00509085 0.03504683 -0.02917097
v -0.00529891 0.03502129 -0.02917097
v -0.00665974 0.03475492 -0.03016479
v -0.00509085 0.03482425 -0.04698377
v -0.00564474 0.03474033 -0.04540126
v -0.00767474 0.03440463 -0.04133736
v -0.00767474 0.03452504 -0.03220307
v -0.00868974 0.03424408 -0.03829892
v -0.00943764 0.03406163 -0.03829892
v -0.00946575 0.03407258 -0.03626064
v -0.00965694 0.03412366 0.00525824
v -0.01019115 0.03397406 0.00024483
v -0.01019115 0.03397406 0.00126398
v -0.03090726 0.01520774 -0.04540126
v -0.03133744 0.01420065 -0.04033087
v -0.03089882 0.01520774 -0.04641407
v -0.03085946 0.01520774 -0.05047797
v -0.03083697 0.01520774 -0.05250992
v -0.03082572 0.01520774 -0.05351640
v -0.03186602 0.01216456 0.00525824
v -0.03162704 0.01292718 0.00227678
v -0.03162422 0.01290893 0.00329593
v -0.03117155 0.01419335 -0.00178712
v -0.03117999 0.01419335 -0.00280626
v -0.03055299 0.01583171 -0.05351640
v -0.02147142 0.02696087 -0.05452921
v -0.02333272 0.02580051 -0.04845235
v -0.02450236 0.02492842 -0.04641407
v -0.01878350 0.02927427 -0.05351640
v -0.01820430 0.02981066 -0.05250992
v -0.01769540 0.03018649 -0.05250992
v -0.01672539 0.03073748 -0.05252891
v -0.03058392 0.01587549 -0.04641407
v -0.03090726 0.01520774 -0.04336931
v -0.03082853 0.01520774 -0.02512606
v -0.03048270 0.01567116 -0.00076798
v -0.02917811 0.01820714 0.00525824
v -0.02866920 0.01908288 0.00525824
v -0.02778635 0.02037824 -0.00075532
v -0.02788475 0.02027607 -0.00178712
v -0.02755579 0.02090368 -0.01192788
v -0.02716498 0.02142913 -0.01396616
v -0.02480039 0.02430811 -0.00888312
v -0.02438990 0.02481531 -0.00888312
v -0.02440958 0.02483720 -0.01294702
v -0.02545550 0.02386294 -0.04743321
v -0.02451361 0.02494302 -0.04540126
v -0.00859415 0.03386824 -0.05444059
v -0.00868974 0.03370769 -0.05554835
v -0.00970474 0.03370404 -0.05351640
v -0.00878815 0.03390838 -0.05351640
v -0.01628115 0.03092358 -0.05286440
v -0.01579474 0.03123373 -0.05148445
v -0.01432144 0.03197081 -0.05028174
v -0.01149856 0.03308373 -0.05250992
v -0.01156323 0.03310197 -0.05148445
v -0.01071974 0.03339388 -0.05250992
v -0.00509085 0.03438638 -0.05554835
v -0.00803744 0.03395216 -0.05471911
v -0.00868974 0.03423313 -0.03930541
v -0.00509085 0.03480601 -0.04791429
v -0.00564474 0.03472573 -0.04641407
v -0.00767474 0.03438638 -0.04235649
v -0.00936453 0.03403609 -0.04133736
v -0.01071974 0.03342307 -0.05148445
v -0.01071974 0.03343767 -0.05047797
v -0.00992686 0.03387554 -0.03930541
v -0.00998590 0.03390473 -0.03422869
v -0.00999153 0.03390838 -0.03321588
v -0.00969349 0.03411271 0.00525824
v -0.01071974 0.03376607 -0.00483188
v -0.01071974 0.03378067 0.00227678
v -0.01173474 0.03331725 -0.02917097
v -0.01173474 0.03332820 -0.02613887
v -0.01246858 0.03306913 -0.02512606
v -0.01071974 0.03378067 0.00525824
v -0.01017147 0.03396676 0.00431506
v -0.03160735 0.01285785 0.00525824
v -0.03161579 0.01288339 0.00431506
v -0.03114906 0.01419335 -0.00076798
v -0.02381351 0.02551590 -0.04643306
v -0.02339177 0.02585160 -0.04677488
v -0.01937394 0.02892397 -0.05130087
v -0.02394285 0.02545022 -0.04540126
v -0.01884255 0.02940563 -0.05047797
v -0.01823242 0.02984350 -0.05148445
v -0.01826335 0.02986904 -0.05047797
v -0.01829428 0.02988728 -0.04945250
v -0.01772352 0.03019379 -0.05148445
v -0.01692220 0.03070464 -0.05047797
v -0.01688284 0.03069734 -0.05148445
v -0.01641329 0.03099655 -0.05047797
v -0.01637393 0.03097101 -0.05148445
v -0.03041241 0.01551790 0.00525824
v -0.03011157 0.01623309 0.00431506
v -0.02944240 0.01764156 0.00525824
v -0.02830088 0.01955724 0.00525824
v -0.02747144 0.02080151 -0.00178712
v -0.02464013 0.02418405 0.00525824
v -0.02710593 0.02135250 -0.00584469
v -0.02620340 0.02250920 -0.00685117
v -0.02478352 0.02429352 -0.00685117
v -0.02531492 0.02368050 -0.00990226
v -0.02437303 0.02480071 -0.00685117
v -0.02334397 0.02579322 0.00525824
v -0.02334397 0.02580051 0.00431506
v -0.02346206 0.02590998 -0.04235649
v -0.02345362 0.02590268 -0.04438212
v -0.02346206 0.02592093 -0.03930541
v -0.02346206 0.02591728 -0.04033087
v -0.00819208 0.03398135 -0.05404179
v -0.00970474 0.03372958 -0.05250992
v -0.00897934 0.03393392 -0.05148445
v -0.00891467 0.03392297 -0.05250992
v -0.00827924 0.03399595 -0.05351640
v -0.00840577 0.03402149 -0.05250992
v -0.00767474 0.03415650 -0.05250992
v -0.01489220 0.03177012 -0.04945250
v -0.01445359 0.03202919 -0.04845235
v -0.01376474 0.03232110 -0.04845235
v -0.01211712 0.03291588 -0.05047797
v -0.00509085 0.03442652 -0.05508625
v -0.00768880 0.03403609 -0.05444059
v -0.00868974 0.03419664 -0.04133736
v -0.00921552 0.03398501 -0.04641407
v -0.00509085 0.03479506 -0.04842703
v -0.00564474 0.03468559 -0.04845235
v -0.00767474 0.03426597 -0.04845235
v -0.01274974 0.03271883 -0.04845235
v -0.01274974 0.03273343 -0.04743321
v -0.01171225 0.03314211 -0.04540126
v -0.01071974 0.03358362 -0.03930541
v -0.01173474 0.03327712 -0.03321588
v -0.01173474 0.03330996 -0.03016479
v -0.01071974 0.03364931 -0.03321588
v -0.01277785 0.03278816 -0.04235649
v -0.01247139 0.03306913 -0.02411958
v -0.01246014 0.03306548 -0.02613887
v -0.01291844 0.03283195 -0.03321588
v -0.01453231 0.03208392 -0.04336931
v -0.01173474 0.03336834 0.00525824
v -0.01247139 0.03306913 -0.02310044
v -0.02343394 0.02588444 -0.04540126
v -0.02234303 0.02684045 -0.04438212
v -0.02125211 0.02778917 -0.04336931
v -0.02012184 0.02871599 -0.04336931
v -0.02014152 0.02873788 -0.04235649
v -0.01961012 0.02909912 -0.04336931
v -0.01963261 0.02910277 -0.04235649
v -0.01830271 0.02989823 -0.04845235
v -0.01779381 0.03020109 -0.04845235
v -0.01838425 0.02994932 -0.03422869
v -0.01704310 0.03078492 -0.02814550
v -0.01642454 0.03100385 -0.04945250
v -0.01579474 0.03138334 -0.04743321
v -0.01501310 0.03181755 -0.04743321
v -0.01496249 0.03179931 -0.04845235
v -0.02616685 0.02246541 -0.00280626
v -0.02708906 0.02133060 -0.00381274
v -0.02379383 0.02524223 0.00525824
v -0.02429430 0.02469125 0.00227678
v -0.02568887 0.02313681 -0.00584469
v -0.02433366 0.02473868 -0.00178712
v -0.02287161 0.02622014 0.00525824
v -0.02237958 0.02686964 -0.03016479
v -0.02289411 0.02639528 -0.04336931
v -0.02239364 0.02688059 -0.03626064
v -0.02236271 0.02685505 -0.04336931
v -0.02239364 0.02688059 -0.03543774
v -0.00564474 0.03437179 -0.05452921
v -0.00665974 0.03420394 -0.05452921
v -0.00564474 0.03455423 -0.05148445
v -0.00665974 0.03426597 -0.05351640
v -0.00902995 0.03394486 -0.05047797
v -0.00852104 0.03405068 -0.05047797
v -0.00767474 0.03422583 -0.05047797
v -0.00564474 0.03465640 -0.04945250
v -0.00564474 0.03461262 -0.05047797
v -0.01450420 0.03205473 -0.04743321
v -0.01376474 0.03235394 -0.04743321
v -0.00509085 0.03446301 -0.05452921
v -0.00868974 0.03415650 -0.04336931
v -0.00509085 0.03475492 -0.04945250
v -0.01376474 0.03238313 -0.04540126
v -0.01239266 0.03302169 -0.03422869
v -0.01242359 0.03303264 -0.03220307
v -0.01376474 0.03240868 -0.04336931
v -0.01298029 0.03282830 -0.02411958
v -0.01452388 0.03206933 -0.04641407
v -0.01503278 0.03181755 -0.04641407
v -0.01503559 0.03181755 -0.04540126
v -0.01653138 0.03105128 -0.02713902
v -0.01579474 0.03143442 -0.02106849
v -0.01579474 0.03143442 -0.01903654
v -0.01503278 0.03182485 -0.01497264
v -0.01235892 0.03306913 0.00525824
v -0.01246858 0.03306913 -0.02208763
v -0.01297186 0.03282830 -0.02106849
v -0.02127180 0.02780376 -0.04235649
v -0.02076289 0.02823068 -0.04235649
v -0.02015277 0.02875248 -0.04133736
v -0.01884255 0.02959537 -0.04336931
v -0.01964105 0.02910277 -0.04033087
v -0.01963824 0.02910642 -0.03930541
v -0.01838425 0.02994932 -0.03321588
v -0.01704310 0.03078492 -0.02713902
v -0.01652295 0.03105858 0.00329593
v -0.02224181 0.02675653 0.00525824
v -0.02225024 0.02676382 0.00431506
v -0.02226992 0.02677477 0.00126398
v -0.02119026 0.02773808 -0.00787031
v -0.02119307 0.02774173 -0.00888312
v -0.02128304 0.02781471 -0.03829892
v -0.02128023 0.02780741 -0.04133736
v -0.02128304 0.02781471 -0.03930541
v -0.00509085 0.03464546 -0.05148445
v -0.00509085 0.03461262 -0.05204149
v -0.00509085 0.03470384 -0.05047797
v -0.01579474 0.03143077 -0.00178712
v -0.01579474 0.03141618 0.00525824
v -0.02077132 0.02824163 -0.04133736
v -0.02077132 0.02824163 -0.04033087
v -0.02015277 0.02874883 -0.04033087
v -0.01831396 0.02990188 0.00431506
v -0.01783598 0.03023393 0.00525824
v -0.01703185 0.03076667 0.00525824
v -0.01652576 0.03105128 0.00525824
v -0.02169073 0.02720169 0.00525824
v -0.02174977 0.02717615 0.00329593
v -0.02068979 0.02814311 -0.00888312
v -0.02067292 0.02814311 -0.00685117
v -0.01830552 0.02990188 0.00525824
v -0.01884255 0.02947496 0.00525824
f 1 2 3
f 1 3 4
f 1 4 5
f 1 5 6
f 1 6 7
f 1 7 8
f 1 8 18
f 1 18 9
f 1 9 19
f 1 19 32
f 1 32 54
f 1 54 97
f 1 97 153
f 1 153 213
f 1 213 214
f 1 214 156
f 1 156 154
f 1 154 98
f 1 98 55
f 1 55 33
f 1 33 20
f 1 20 10
f 1 10 2
f 2 11 3
f 2 10 11
f 3 11 12
f 3 12 4
f 4 12 5
f 5 12 6
f 6 13 7
f 6 12 14
f 6 14 15
f 6 15 13
f 7 13 16
f 7 16 8
f 8 17 18
f 8 16 17
f 9 18 19
f 10 20 21
f 10 21 22
f 10 22 11
f 11 22 12
f 12 22 23
f 12 23 14
f 13 24 16
f 13 15 24
f 14 23 15
f 15 25 24
f 15 23 26
f 15 26 25
f 16 27 28
f 16 28 17
f 16 24 25
f 16 25 27
f 17 28 29
f 17 29 30
f 17 30 18
f 18 30 31
f 18 31 19
f 19 31 52
f 19 52 91
f 19 91 143
f 19 143 201
f 19 201 199
f 19 199 200
f 19 200 257
f 19 257 323
f 19 323 403
f 19 403 461
f 19 461 525
f 19 525 584
f 19 584 620
f 19 620 619
f 19 619 621
f 19 621 586
f 19 586 529
f 19 529 464
f 19 464 407
f 19 407 404
f 19 404 324
f 19 324 258
f 19 258 204
f 19 204 203
f 19 203 202
f 19 202 144
f 19 144 92
f 19 92 53
f 19 53 32
f 20 33 34
f 20 34 35
f 20 35 36
f 20 36 37
f 20 37 38
f 20 38 21
f 21 38 23
f 21 23 22
f 23 38 37
f 23 37 26
f 25 26 39
f 25 39 27
f 26 40 41
f 26 41 42
f 26 42 43
f 26 43 39
f 26 37 44
f 26 44 45
f 26 45 40
f 27 46 47
f 27 47 28
f 27 39 43
f 27 43 46
f 28 47 48
f 28 48 49
f 28 49 50
f 28 50 51
f 28 51 29
f 29 51 52
f 29 52 30
f 30 52 31
f 32 53 93
f 32 93 147
f 32 147 207
f 32 207 206
f 32 206 262
f 32 262 330
f 32 330 414
f 32 414 473
f 32 473 479
f 32 479 544
f 32 544 599
f 32 599 623
f 32 623 630
f 32 630 629
f 32 629 628
f 32 628 635
f 32 635 636
f 32 636 631
f 32 631 611
f 32 611 567
f 32 567 508
f 32 508 563
f 32 563 502
f 32 502 500
f 32 500 441
f 32 441 373
f 32 373 440
f 32 440 499
f 32 499 497
f 32 497 481
f 32 481 423
f 32 423 345
f 32 345 344
f 32 344 331
f 32 331 268
f 32 268 267
f 32 267 263
f 32 263 208
f 32 208 148
f 32 148 94
f 32 94 54
f 33 55 56
f 33 56 34
f 34 56 57
f 34 57 58
f 34 58 35
f 35 58 59
f 35 59 36
f 36 59 37
f 37 59 60
f 37 60 44
f 40 61 62
f 40 62 41
f 40 45 63
f 40 63 61
f 41 62 64
f 41 64 65
f 41 65 42
f 42 65 66
f 42 66 43
f 43 66 46
f 44 60 67
f 44 67 68
f 44 68 69
f 44 69 70
f 44 70 45
f 45 70 71
f 45 71 72
f 45 72 73
f 45 73 63
f 46 66 74
f 46 74 47
f 47 75 76
f 47 76 48
f 47 74 64
f 47 64 75
f 48 76 75
f 48 75 77
f 48 77 49
f 49 77 50
f 50 78 51
f 50 77 79
f 50 79 80
f 50 80 81
f 50 81 82
f 50 82 83
f 50 83 78
f 51 78 83
f 51 83 84
f 51 84 85
f 51 85 86
f 51 86 87
f 51 87 88
f 51 88 89
f 51 89 52
f 52 89 90
f 52 90 91
f 53 92 93
f 54 94 95
f 54 95 96
f 54 96 97
f 55 98 99
f 55 99 100
f 55 100 101
f 55 101 102
f 55 102 56
f 56 102 57
f 57 102 58
f 58 102 103
f 58 103 104
f 58 104 59
f 59 104 60
f 60 104 67
f 61 105 62
f 61 63 106
f 61 106 105
f 62 105 107
f 62 107 108
f 62 108 109
f 62 109 110
f 62 110 111
f 62 111 112
f 62 112 64
f 63 73 113
f 63 113 106
f 64 74 65
f 64 112 111
f 64 111 110
f 64 110 114
f 64 114 75
f 65 74 66
f 67 104 68
f 68 115 69
f 68 104 116
f 68 116 117
f 68 117 118
f 68 118 115
f 69 115 70
f 70 115 71
f 71 115 118
f 71 118 72
f 72 119 113
f 72 113 73
f 72 118 117
f 72 117 120
f 72 120 170
f 72 170 119
f 75 114 80
f 75 80 77
f 77 80 121
f 77 121 122
f 77 122 79
f 79 122 80
f 80 123 124
f 80 124 125
f 80 125 126
f 80 126 127
f 80 127 128
f 80 128 129
f 80 129 81
f 80 122 121
f 80 114 130
f 80 130 109
f 80 109 131
f 80 131 123
f 81 129 82
f 82 129 132
f 82 132 83
f 83 132 133
f 83 133 84
f 84 133 134
f 84 134 135
f 84 135 86
f 84 86 85
f 86 136 137
f 86 137 87
f 86 135 134
f 86 134 138
f 86 138 139
f 86 139 136
f 87 137 88
f 88 137 89
f 89 137 90
f 90 137 140
f 90 140 141
f 90 141 91
f 91 141 142
f 91 142 143
f 92 144 145
f 92 145 146
f 92 146 93
f 93 146 147
f 94 148 149
f 94 149 150
f 94 150 95
f 95 150 151
f 95 151 96
f 96 151 152
f 96 152 153
f 96 153 97
f 98 154 155
f 98 155 99
f 99 155 100
f 100 155 154
f 100 154 156
f 100 156 157
f 100 157 101
f 101 151 158
f 101 158 102
f 101 157 159
f 101 159 152
f 101 152 151
f 102 158 103
f 103 158 149
f 103 149 116
f 103 116 104
f 105 160 107
f 105 106 160
f 106 161 162
f 106 162 163
f 106 163 160
f 106 113 164
f 106 164 161
f 107 160 163
f 107 163 108
f 108 163 165
f 108 165 166
f 108 166 167
f 108 167 109
f 109 167 131
f 109 130 114
f 109 114 110
f 113 119 164
f 116 149 168
f 116 168 117
f 117 168 169
f 117 169 120
f 119 170 171
f 119 171 172
f 119 172 173
f 119 173 162
f 119 162 164
f 120 169 149
f 120 149 174
f 120 174 175
f 120 175 170
f 123 131 124
f 124 131 176
f 124 176 177
f 124 177 125
f 125 177 126
f 126 178 127
f 126 177 179
f 126 179 180
f 126 180 181
f 126 181 182
f 126 182 183
f 126 183 184
f 126 184 178
f 127 129 128
f 127 178 129
f 129 178 132
f 131 185 186
f 131 186 176
f 131 167 187
f 131 187 188
f 131 188 185
f 132 178 133
f 133 178 189
f 133 189 190
f 133 190 134
f 134 190 191
f 134 191 192
f 134 192 138
f 136 139 193
f 136 193 194
f 136 194 137
f 137 194 140
f 138 195 139
f 138 192 195
f 139 195 196
f 139 196 197
f 139 197 198
f 139 198 193
f 140 199 141
f 140 194 200
f 140 200 199
f 141 199 142
f 142 201 143
f 142 199 201
f 144 202 146
f 144 146 145
f 146 202 203
f 146 203 204
f 146 204 205
f 146 205 206
f 146 206 207
f 146 207 147
f 148 208 209
f 148 209 210
f 148 210 149
f 149 211 174
f 149 169 168
f 149 158 151
f 149 151 150
f 149 210 212
f 149 212 211
f 152 159 213
f 152 213 153
f 156 214 159
f 156 159 157
f 159 214 213
f 161 164 162
f 162 173 215
f 162 215 216
f 162 216 167
f 162 167 165
f 162 165 163
f 165 167 166
f 167 216 187
f 170 175 217
f 170 217 218
f 170 218 171
f 171 219 220
f 171 220 221
f 171 221 222
f 171 222 173
f 171 173 172
f 171 218 219
f 173 223 215
f 173 222 223
f 174 224 175
f 174 211 224
f 175 224 225
f 175 225 217
f 176 186 177
f 177 180 179
f 177 186 226
f 177 226 227
f 177 227 228
f 177 228 180
f 178 229 230
f 178 230 231
f 178 231 232
f 178 232 189
f 178 184 229
f 180 228 181
f 181 228 233
f 181 233 182
f 182 233 183
f 183 233 227
f 183 227 234
f 183 234 235
f 183 235 184
f 184 235 236
f 184 236 237
f 184 237 238
f 184 238 229
f 185 188 186
f 186 188 226
f 187 216 239
f 187 239 240
f 187 240 241
f 187 241 242
f 187 242 188
f 188 242 226
f 189 232 243
f 189 243 190
f 190 243 195
f 190 195 191
f 191 195 192
f 193 198 194
f 194 198 244
f 194 244 245
f 194 245 200
f 195 232 246
f 195 246 247
f 195 247 196
f 195 243 232
f 196 247 248
f 196 248 249
f 196 249 250
f 196 250 251
f 196 251 252
f 196 252 197
f 197 252 253
f 197 253 254
f 197 254 255
f 197 255 198
f 198 255 244
f 200 245 256
f 200 256 257
f 204 258 205
f 205 258 259
f 205 259 260
f 205 260 261
f 205 261 206
f 206 261 262
f 208 263 209
f 209 264 265
f 209 265 266
f 209 266 210
f 209 263 267
f 209 267 268
f 209 268 264
f 210 266 211
f 210 211 212
f 211 269 224
f 211 266 269
f 215 223 239
f 215 239 216
f 217 225 270
f 217 270 271
f 217 271 272
f 217 272 273
f 217 273 274
f 217 274 275
f 217 275 276
f 217 276 277
f 217 277 218
f 218 277 278
f 218 278 219
f 219 278 279
f 219 279 220
f 220 279 280
f 220 280 281
f 220 281 221
f 221 281 223
f 221 223 222
f 223 281 241
f 223 241 240
f 223 240 239
f 224 269 282
f 224 282 283
f 224 283 284
f 224 284 225
f 225 284 285
f 225 285 270
f 226 242 227
f 227 286 287
f 227 287 234
f 227 233 228
f 227 242 286
f 229 288 230
f 229 238 289
f 229 289 288
f 230 288 290
f 230 290 231
f 231 291 246
f 231 246 232
f 231 290 292
f 231 292 293
f 231 293 294
f 231 294 295
f 231 295 291
f 234 287 296
f 234 296 297
f 234 297 235
f 235 297 298
f 235 298 299
f 235 299 300
f 235 300 236
f 236 300 301
f 236 301 237
f 237 302 289
f 237 289 238
f 237 301 302
f 241 281 303
f 241 303 286
f 241 286 242
f 244 255 304
f 244 304 305
f 244 305 306
f 244 306 307
f 244 307 245
f 245 307 256
f 246 291 308
f 246 308 309
f 246 309 247
f 247 309 310
f 247 310 311
f 247 311 312
f 247 312 248
f 248 312 249
f 249 312 313
f 249 313 314
f 249 314 315
f 249 315 316
f 249 316 250
f 250 316 251
f 251 316 317
f 251 317 252
f 252 317 318
f 252 318 253
f 253 318 254
f 254 318 319
f 254 319 320
f 254 320 321
f 254 321 255
f 255 321 320
f 255 320 322
f 255 322 305
f 255 305 304
f 256 307 323
f 256 323 257
f 258 324 325
f 258 325 259
f 259 325 405
f 259 405 326
f 259 326 327
f 259 327 260
f 260 327 328
f 260 328 261
f 261 328 329
f 261 329 330
f 261 330 262
f 264 268 265
f 265 282 269
f 265 269 266
f 265 268 331
f 265 331 282
f 270 285 273
f 270 273 332
f 270 332 271
f 271 332 333
f 271 333 272
f 272 333 332
f 272 332 273
f 273 334 335
f 273 335 336
f 273 336 337
f 273 337 274
f 273 285 338
f 273 338 418
f 273 418 334
f 274 337 339
f 274 339 340
f 274 340 341
f 274 341 277
f 274 277 275
f 275 277 276
f 277 341 342
f 277 342 278
f 278 342 279
f 279 342 343
f 279 343 281
f 279 281 280
f 281 343 303
f 282 331 285
f 282 285 283
f 283 285 284
f 285 331 344
f 285 344 345
f 285 345 346
f 285 346 347
f 285 347 338
f 286 303 348
f 286 348 349
f 286 349 350
f 286 350 287
f 287 350 351
f 287 351 296
f 288 289 290
f 289 302 290
f 290 352 353
f 290 353 292
f 290 302 301
f 290 301 354
f 290 354 355
f 290 355 356
f 290 356 357
f 290 357 358
f 290 358 352
f 291 295 309
f 291 309 308
f 292 353 359
f 292 359 360
f 292 360 361
f 292 361 362
f 292 362 293
f 293 362 294
f 294 363 364
f 294 364 295
f 294 362 361
f 294 361 365
f 294 365 363
f 295 364 309
f 296 351 366
f 296 366 367
f 296 367 368
f 296 368 369
f 296 369 370
f 296 370 371
f 296 371 372
f 296 372 297
f 297 372 373
f 297 373 374
f 297 374 375
f 297 375 376
f 297 376 298
f 298 376 299
f 299 376 377
f 299 377 378
f 299 378 379
f 299 379 380
f 299 380 300
f 300 381 301
f 300 380 382
f 300 382 357
f 300 357 383
f 300 383 381
f 301 381 383
f 301 383 354
f 303 343 342
f 303 342 348
f 305 384 385
f 305 385 386
f 305 386 452
f 305 452 387
f 305 387 306
f 305 322 388
f 305 388 384
f 306 387 389
f 306 389 307
f 307 389 390
f 307 390 391
f 307 391 323
f 309 364 310
f 310 364 392
f 310 392 311
f 311 392 363
f 311 363 393
f 311 393 312
f 312 393 394
f 312 394 313
f 313 394 395
f 313 395 396
f 313 396 314
f 314 396 397
f 314 397 315
f 315 385 317
f 315 317 316
f 315 397 398
f 315 398 399
f 315 399 400
f 315 400 401
f 315 401 385
f 317 385 384
f 317 384 319
f 317 319 318
f 319 384 320
f 320 384 388
f 320 388 322
f 323 391 402
f 323 402 403
f 324 404 405
f 324 405 325
f 326 406 327
f 326 405 407
f 326 407 408
f 326 408 409
f 326 409 406
f 327 406 410
f 327 410 328
f 328 410 329
f 329 410 411
f 329 411 412
f 329 412 413
f 329 413 330
f 330 413 415
f 330 415 416
f 330 416 414
f 334 417 336
f 334 336 335
f 334 418 437
f 334 437 417
f 336 417 419
f 336 419 337
f 337 419 420
f 337 420 421
f 337 421 422
f 337 422 339
f 338 347 418
f 339 422 340
f 340 422 342
f 340 342 341
f 342 422 348
f 345 423 346
f 346 424 347
f 346 423 424
f 347 424 425
f 347 425 426
f 347 426 427
f 347 427 418
f 348 422 349
f 349 422 350
f 350 422 428
f 350 428 351
f 351 428 366
f 352 429 359
f 352 359 353
f 352 358 430
f 352 430 429
f 354 383 355
f 355 383 356
f 356 383 357
f 357 431 358
f 357 382 431
f 358 431 430
f 359 429 430
f 359 430 432
f 359 432 360
f 360 432 361
f 361 432 433
f 361 433 434
f 361 434 365
f 363 394 393
f 363 392 364
f 363 365 394
f 365 395 394
f 365 434 435
f 365 435 395
f 366 428 422
f 366 422 421
f 366 421 420
f 366 420 419
f 366 419 417
f 366 417 367
f 367 417 436
f 367 436 368
f 368 436 417
f 368 417 437
f 368 437 369
f 369 437 370
f 370 437 438
f 370 438 427
f 370 427 439
f 370 439 371
f 371 439 440
f 371 440 372
f 372 440 373
f 373 441 442
f 373 442 443
f 373 443 374
f 374 443 444
f 374 444 375
f 375 444 445
f 375 445 376
f 376 445 446
f 376 446 447
f 376 447 448
f 376 448 377
f 377 448 378
f 378 448 449
f 378 449 450
f 378 450 379
f 379 450 431
f 379 431 382
f 379 382 380
f 385 401 386
f 386 451 452
f 386 401 453
f 386 453 454
f 386 454 451
f 387 452 389
f 389 452 390
f 390 452 391
f 391 452 402
f 395 435 455
f 395 455 398
f 395 398 396
f 396 398 397
f 398 455 399
f 399 455 456
f 399 456 457
f 399 457 458
f 399 458 400
f 400 458 401
f 401 458 459
f 401 459 460
f 401 460 453
f 402 461 403
f 402 452 462
f 402 462 461
f 404 407 405
f 406 409 463
f 406 463 410
f 407 464 465
f 407 465 408
f 408 465 409
f 409 465 466
f 409 466 463
f 410 463 411
f 411 463 412
f 412 463 467
f 412 467 468
f 412 468 469
f 412 469 470
f 412 470 413
f 413 470 471
f 413 471 472
f 413 472 415
f 414 416 473
f 415 474 475
f 415 475 479
f 415 479 416
f 415 472 476
f 415 476 477
f 415 477 478
f 415 478 474
f 416 479 480
f 416 480 473
f 418 427 437
f 423 481 482
f 423 482 425
f 423 425 424
f 425 482 426
f 426 483 439
f 426 439 427
f 426 482 481
f 426 481 483
f 427 438 437
f 430 431 484
f 430 484 485
f 430 485 486
f 430 486 432
f 431 450 487
f 431 487 484
f 432 486 433
f 433 486 488
f 433 488 489
f 433 489 434
f 434 489 490
f 434 490 491
f 434 491 492
f 434 492 493
f 434 493 494
f 434 494 435
f 435 494 495
f 435 495 496
f 435 496 455
f 439 483 497
f 439 497 498
f 439 498 499
f 439 499 440
f 441 500 442
f 442 501 443
f 442 500 502
f 442 502 501
f 443 501 503
f 443 503 444
f 444 504 505
f 444 505 506
f 444 506 445
f 444 503 504
f 445 506 446
f 446 506 505
f 446 505 507
f 446 507 447
f 447 507 508
f 447 508 448
f 448 508 509
f 448 509 450
f 448 450 449
f 450 510 511
f 450 511 487
f 450 509 512
f 450 512 513
f 450 513 510
f 451 454 514
f 451 514 462
f 451 462 452
f 453 460 468
f 453 468 515
f 453 515 516
f 453 516 517
f 453 517 454
f 454 518 514
f 454 517 519
f 454 519 520
f 454 520 518
f 455 496 456
f 456 496 521
f 456 521 457
f 457 521 458
f 458 521 522
f 458 522 523
f 458 523 459
f 459 524 468
f 459 468 460
f 459 523 524
f 461 462 525
f 462 514 526
f 462 526 525
f 463 466 527
f 463 527 528
f 463 528 467
f 464 529 530
f 464 530 465
f 465 530 466
f 466 530 531
f 466 531 585
f 466 585 527
f 467 528 515
f 467 515 468
f 468 524 532
f 468 532 469
f 469 532 533
f 469 533 534
f 469 534 470
f 470 535 536
f 470 536 537
f 470 537 538
f 470 538 471
f 470 534 539
f 470 539 535
f 471 538 537
f 471 537 476
f 471 476 472
f 473 480 479
f 474 478 475
f 475 478 540
f 475 540 545
f 475 545 479
f 476 541 478
f 476 478 477
f 476 537 541
f 478 541 542
f 478 542 543
f 478 543 540
f 479 545 544
f 481 497 483
f 484 487 546
f 484 546 485
f 485 546 547
f 485 547 488
f 485 488 486
f 487 511 546
f 488 490 489
f 488 547 548
f 488 548 549
f 488 549 490
f 490 549 491
f 491 549 550
f 491 550 551
f 491 551 552
f 491 552 553
f 491 553 493
f 491 493 492
f 493 495 494
f 493 553 554
f 493 554 555
f 493 555 556
f 493 556 557
f 493 557 495
f 495 557 558
f 495 558 559
f 495 559 560
f 495 560 496
f 496 560 521
f 497 499 498
f 501 561 562
f 501 562 503
f 501 502 561
f 502 563 564
f 502 564 561
f 503 562 565
f 503 565 504
f 504 565 505
f 505 565 566
f 505 566 507
f 507 566 508
f 508 567 509
f 508 566 563
f 509 567 568
f 509 568 512
f 510 569 511
f 510 513 570
f 510 570 569
f 511 569 571
f 511 571 547
f 511 547 546
f 512 568 572
f 512 572 570
f 512 570 513
f 514 573 574
f 514 574 526
f 514 518 520
f 514 520 575
f 514 575 576
f 514 576 573
f 515 577 516
f 515 528 577
f 516 577 578
f 516 578 579
f 516 579 517
f 517 579 530
f 517 530 580
f 517 580 519
f 519 580 520
f 520 580 581
f 520 581 575
f 521 560 522
f 522 560 582
f 522 582 523
f 523 582 583
f 523 583 524
f 524 583 532
f 525 526 574
f 525 574 573
f 525 573 584
f 527 585 577
f 527 577 528
f 529 586 580
f 529 580 530
f 530 579 531
f 531 579 578
f 531 578 585
f 532 583 587
f 532 587 533
f 533 587 539
f 533 539 534
f 535 539 536
f 536 588 589
f 536 589 537
f 536 539 588
f 537 589 541
f 539 587 590
f 539 590 589
f 539 589 588
f 540 543 591
f 540 591 545
f 541 589 542
f 542 589 590
f 542 590 592
f 542 592 543
f 543 592 593
f 543 593 594
f 543 594 556
f 543 556 595
f 543 595 596
f 543 596 597
f 543 597 598
f 543 598 591
f 544 545 600
f 544 600 601
f 544 601 599
f 545 591 601
f 545 601 600
f 547 571 602
f 547 602 548
f 548 602 603
f 548 603 549
f 549 603 550
f 550 603 604
f 550 604 551
f 551 604 552
f 552 605 553
f 552 604 606
f 552 606 555
f 552 555 605
f 553 605 555
f 553 555 554
f 555 606 607
f 555 607 608
f 555 608 609
f 555 609 556
f 556 609 610
f 556 610 595
f 556 594 593
f 556 593 558
f 556 558 557
f 558 593 559
f 559 593 592
f 559 592 582
f 559 582 560
f 561 565 562
f 561 564 566
f 561 566 565
f 563 566 564
f 567 611 612
f 567 612 613
f 567 613 568
f 568 614 615
f 568 615 616
f 568 616 572
f 568 613 614
f 569 570 617
f 569 617 571
f 570 572 616
f 570 616 618
f 570 618 617
f 571 617 602
f 573 576 584
f 575 581 621
f 575 621 619
f 575 619 620
f 575 620 576
f 576 620 584
f 577 585 578
f 580 586 581
f 581 586 621
f 582 592 583
f 583 592 587
f 587 592 590
f 591 598 601
f 595 610 596
f 596 610 597
f 597 610 598
f 598 610 622
f 598 622 623
f 598 623 599
f 598 599 601
f 602 617 624
f 602 624 603
f 603 624 604
f 604 624 625
f 604 625 616
f 604 616 626
f 604 626 627
f 604 627 628
f 604 628 607
f 604 607 606
f 607 628 608
f 608 628 629
f 608 629 609
f 609 629 610
f 610 629 630
f 610 630 623
f 610 623 622
f 611 631 612
f 612 631 632
f 612 632 614
f 612 614 613
f 614 633 615
f 614 632 634
f 614 634 633
f 615 633 626
f 615 626 616
f 616 625 624
f 616 624 618
f 617 618 624
f 626 633 627
f 627 634 635
f 627 635 628
f 627 633 634
f 631 636 632
f 632 636 634
f 634 636 635

