# https://github.com/mikedh/trimesh
v 0.02510712 0.00230995 0.03857221
v 0.02479849 0.00201434 0.03862562
v 0.02479849 0.00099928 0.03856888
v 0.02510712 0.00137325 0.03851213
v 0.02510712 0.01900849 0.03850211
v 0.02378508 0.00099928 0.03874246
v 0.02378508 0.00081764 0.03872243
v 0.02461622 0.00081764 0.03857889
v 0.02480578 0.00081764 0.03854217
v 0.02510712 0.00089956 0.03846206
v 0.02510712 0.00099928 0.03847541
v 0.00754877 0.01520470 0.03888266
v 0.00551954 0.01418965 0.03907292
v 0.00450613 0.01330815 0.03924317
v 0.00380623 0.01275433 0.03934665
v 0.00450613 0.01280063 0.03935332
v 0.00525221 0.01275967 0.03934331
v 0.00556328 0.01219338 0.03935332
v 0.00621944 0.01187639 0.03933997
v 0.00814904 0.00973409 0.03933330
v 0.02510712 0.01900849 0.00526158
v 0.00027998 0.01900849 0.03716355
v 0.00814904 0.00960944 0.03933330
v 0.02360039 0.00081764 0.03873912
v 0.02510712 0.00081764 0.03844870
v 0.00247447 0.01418965 0.03892271
v 0.00349030 0.01418965 0.03898279
v 0.00247447 0.01317638 0.03913301
v 0.00044523 0.01317638 0.03891270
v 0.00027998 0.01301076 0.03891603
v 0.00027998 0.01216132 0.03901284
v 0.00380623 0.01260652 0.03934665
v 0.00457904 0.01222543 0.03936000
v 0.02510712 0.00081764 0.00526158
v 0.00027998 0.01900849 0.00526158
v 0.00027998 0.01317638 0.03888933
v 0.00146106 0.01418965 0.03879920
v 0.00802995 0.00960944 0.03933330
v 0.01363648 0.00081764 0.03870574
v 0.00027998 0.01199571 0.03900283
v 0.00496544 0.01162708 0.03933997
v 0.00027998 0.00081764 0.00526158
v 0.00027998 0.01114627 0.03887932
v 0.00027998 0.00081764 0.03697661
f 1 2 3
f 1 3 4
f 1 4 11
f 1 11 10
f 1 10 25
f 1 25 34
f 1 34 21
f 1 21 5
f 1 5 2
f 2 5 6
f 2 6 3
f 3 6 7
f 3 7 8
f 3 8 9
f 3 9 10
f 3 10 11
f 3 11 4
f 5 12 13
f 5 13 14
f 5 14 15
f 5 15 16
f 5 16 17
f 5 17 18
f 5 18 19
f 5 19 20
f 5 20 6
f 5 21 35
f 5 35 22
f 5 22 12
f 6 20 23
f 6 23 24
f 6 24 7
f 7 24 39
f 7 39 44
f 7 44 42
f 7 42 34
f 7 34 25
f 7 25 9
f 7 9 8
f 9 25 10
f 12 26 27
f 12 27 13
f 12 22 26
f 13 27 14
f 14 27 15
f 15 28 29
f 15 29 30
f 15 30 31
f 15 31 32
f 15 32 33
f 15 33 16
f 15 27 26
f 15 26 28
f 16 33 18
f 16 18 17
f 18 33 23
f 18 23 20
f 18 20 19
f 21 34 42
f 21 42 35
f 22 36 37
f 22 37 26
f 22 35 42
f 22 42 44
f 22 44 43
f 22 43 40
f 22 40 31
f 22 31 30
f 22 30 36
f 23 33 38
f 23 38 24
f 24 38 39
f 26 37 29
f 26 29 28
f 29 37 36
f 29 36 30
f 31 40 32
f 32 41 33
f 32 40 41
f 33 41 38
f 38 41 39
f 39 41 40
f 39 40 43
f 39 43 44

