# https://github.com/mikedh/trimesh
v -0.02653278 0.02178681 0.00525824
v -0.02694167 0.02178681 0.01498342
v -0.02670179 0.02212480 0.01548858
v -0.02517525 0.02351074 0.00525824
v 0.00028518 0.02178681 0.00525824
v 0.00028518 0.01901171 0.00526188
v -0.02696893 0.02178681 0.01597920
v -0.02671814 0.02214583 0.01649889
v -0.02333796 0.02579907 0.00525824
v -0.02379047 0.02524760 0.00525824
v -0.02470094 0.02410587 0.00525824
v 0.00028518 0.03545857 0.00525824
v 0.02800817 0.01901171 0.00526188
v 0.02377203 0.01901009 0.03796988
v 0.00028518 0.01901171 0.03715945
v -0.02703436 0.02178681 0.04084818
v -0.02698529 0.02178681 0.01800346
v -0.02697984 0.02178681 0.01698951
v -0.02672360 0.02215230 0.01751648
v -0.02510983 0.02446488 0.04084818
v -0.02629290 0.02265363 0.01649889
v -0.02460280 0.02504222 0.04084818
v -0.02279277 0.02629231 0.00525824
v -0.00049444 0.03552002 0.00525824
v 0.00028518 0.03546019 0.00526188
v 0.00044874 0.03544725 0.00526188
v 0.00566622 0.03495885 0.00526188
v 0.00653308 0.03481331 0.00526188
v 0.00754713 0.03450927 0.00526188
v 0.00763436 0.03448016 0.00526188
v 0.01197954 0.03291311 0.00526188
v 0.01262286 0.03262848 0.00526188
v 0.01353333 0.03216920 0.00526188
v 0.01404036 0.03189266 0.00526188
v 0.01603031 0.03080105 0.00526188
v 0.01672270 0.03040969 0.00526188
v 0.01735513 0.03003450 0.00526188
v 0.01786761 0.02968034 0.00526188
v 0.01854364 0.02917415 0.00526188
v 0.01909974 0.02873913 0.00526188
v 0.02134593 0.02696183 0.00526188
v 0.02182024 0.02658179 0.00526188
v 0.02189657 0.02651872 0.00526188
v 0.02245266 0.02604650 0.00526188
v 0.02295969 0.02552900 0.00526188
v 0.02492238 0.02342988 0.00526188
v 0.02539125 0.02292208 0.00526188
v 0.02584376 0.02231402 0.00526188
v 0.02628536 0.02168169 0.00526188
v 0.02709769 0.02042513 0.00526188
v 0.02858061 0.01912491 0.04084818
v 0.02865149 0.01901009 0.04083365
v 0.02804633 0.01901009 0.03796988
v 0.02721764 0.01901009 0.04106624
v 0.02757201 0.01901009 0.04133880
v 0.02792639 0.01901009 0.04153505
v -0.02675631 0.02178681 0.04158593
v -0.02693622 0.02178681 0.04120433
v -0.02595488 0.02332800 0.03983423
v -0.02548601 0.02391666 0.04143693
v -0.02551327 0.02395708 0.04084818
v -0.02551327 0.02394738 0.03983423
v -0.02457009 0.02503252 0.04152415
v -0.02355058 0.02597858 0.04148781
v -0.02403580 0.02555002 0.04084818
v -0.02233481 0.02683246 0.01852679
v -0.02224212 0.02676292 0.00525824
v -0.00057077 0.03552487 0.00525824
v 0.00247685 0.03539550 0.01548131
v 0.00247685 0.03538256 0.01446736
v 0.00349091 0.03527744 0.01345705
v 0.00573165 0.03496532 0.00634851
v 0.00653308 0.03482301 0.00634851
v 0.01160881 0.03350176 0.04084818
v 0.01270464 0.03313304 0.04084455
v 0.01315715 0.03297941 0.04118253
v 0.02132957 0.02794023 0.04016131
v 0.02240360 0.02702328 0.04084818
v 0.02291063 0.02655106 0.04084818
v 0.02343401 0.02604327 0.04084818
v 0.02623084 0.02269406 0.04084818
v 0.02438810 0.02496621 0.04084818
v 0.02534218 0.02387946 0.04113529
v 0.02656886 0.02218949 0.04084818
v 0.02741391 0.02091353 0.04084818
v 0.02741936 0.02092161 0.04151324
v 0.02853700 0.01905537 0.04153505
v 0.02855336 0.01901009 0.04153505
v 0.02684146 0.02127416 0.04171313
v -0.02646190 0.02178681 0.04158956
v -0.02491901 0.02429023 0.04156776
v -0.02663091 0.02208114 0.04156776
v -0.01028062 0.03295839 0.04237092
v -0.01028062 0.03296647 0.04237092
v -0.02242204 0.02690685 0.04139332
v -0.02243294 0.02691655 0.04084818
v -0.02061745 0.02808740 0.04153141
v -0.01655033 0.03112449 0.04152415
v -0.01948891 0.02901405 0.04147690
v -0.01836036 0.02994394 0.04138605
v -0.02122262 0.02777851 0.02258258
v -0.02121716 0.02777366 0.02156863
v -0.01830039 0.02990027 0.00525824
v -0.00151395 0.03551517 0.00525824
v -0.00057077 0.03553134 0.00736609
v 0.00247685 0.03539873 0.01649889
v 0.00349091 0.03529685 0.01649889
v 0.00349091 0.03528876 0.01446736
v 0.00577526 0.03496532 0.00736609
v 0.00653308 0.03482786 0.00736609
v 0.01315715 0.03297941 0.04137151
v 0.01000595 0.03395296 0.04084818
v 0.00935172 0.03404514 0.04145146
v 0.02132957 0.02794023 0.04057198
v 0.02232182 0.02693596 0.04138605
v 0.02339040 0.02598990 0.04144420
v 0.02438264 0.02495975 0.04146237
v 0.02534218 0.02387946 0.04142966
v 0.02651434 0.02211025 0.04167679
v 0.02479699 0.02332638 0.04185123
v -0.01017704 0.03295839 0.04237092
v 0.00592792 0.03394811 0.04238546
v -0.00322040 0.03501060 0.04138241
v -0.00767461 0.03405970 0.04150961
v -0.01065681 0.03317347 0.04194935
v -0.01173629 0.03307159 0.04162954
v -0.01477300 0.03207863 0.04153141
v 0.00592792 0.03399824 0.04238546
v -0.00158482 0.03510279 0.04146963
v -0.00259888 0.03505265 0.04143329
v -0.02074285 0.02818120 0.04084818
v -0.01954888 0.02906903 0.02765232
v -0.01955433 0.02906418 0.02663838
v -0.01534545 0.03198160 0.04140422
v -0.01836581 0.02995202 0.04084818
v -0.01667027 0.03119726 0.04084818
v -0.01834400 0.02993423 0.02156863
v -0.01782607 0.03023342 0.00525824
v -0.00158482 0.03551355 0.00525824
v -0.00158482 0.03551517 0.00634851
v -0.00057077 0.03552972 0.00838004
v 0.00247685 0.03539711 0.01751284
v 0.00449951 0.03522246 0.04084818
v 0.00349091 0.03529847 0.01751284
v 0.00561716 0.03508823 0.04094631
v 0.00529004 0.03503971 0.01041157
v 0.00611328 0.03501546 0.04026307
v 0.01262286 0.03307644 0.04145873
v 0.01429660 0.03205761 0.04144783
v 0.02117147 0.02778013 0.04124795
v 0.00611328 0.03501546 0.04067374
v 0.00648401 0.03489902 0.04094631
v 0.00602060 0.03499120 0.04134971
v 0.00754713 0.03427963 0.04175311
v 0.02050088 0.02800816 0.04143693
v 0.02375022 0.02532038 0.04155686
v 0.02474792 0.02426759 0.04159683
v 0.02556571 0.02332638 0.04164045
v 0.00622232 0.03399824 0.04238546
v 0.00622232 0.03394811 0.04238546
v -0.00463244 0.03510279 0.03881665
v -0.00420174 0.03500252 0.04040844
v -0.00666055 0.03471789 0.03983423
v -0.00767461 0.03454485 0.03983423
v -0.00666055 0.03449149 0.04084818
v -0.00827977 0.03399824 0.04140058
v -0.00057077 0.03525480 0.04084818
v -0.01229783 0.03298264 0.04140422
v -0.01071678 0.03358586 0.04084818
v 0.00145735 0.03511411 0.04146237
v 0.00145735 0.03533404 0.04084818
v 0.00044874 0.03531787 0.04084818
v 0.00028518 0.03530817 0.04084818
v -0.01534545 0.03198160 0.04114255
v -0.01173629 0.03327374 0.04084818
v -0.01245049 0.03303763 0.04084818
v -0.01023701 0.03399016 0.03939813
v -0.01024791 0.03399339 0.03373964
v -0.01254317 0.03309747 0.02156863
v -0.01703009 0.03077032 0.00634851
v -0.01703555 0.03077841 0.00838004
v -0.01773884 0.03029325 0.00525824
v -0.00259888 0.03541005 0.00525824
v -0.00158482 0.03551194 0.00736609
v -0.00259888 0.03541005 0.00533456
v -0.00259888 0.03540682 0.01142552
v -0.00463244 0.03516262 0.03678512
v -0.00057077 0.03552487 0.00939762
v 0.00145735 0.03541167 0.03069780
v 0.00247685 0.03537771 0.02866627
v 0.00349091 0.03527906 0.03983423
v 0.00247685 0.03532919 0.03983423
v 0.00349091 0.03526612 0.04084818
v 0.00449951 0.03507206 0.04144420
v 0.00534456 0.03503971 0.04141149
v 0.00654943 0.03434109 0.04195299
v 0.00349091 0.03508661 0.04145873
v 0.00247685 0.03510279 0.04146600
v -0.00463244 0.03515453 0.03780270
v -0.00553201 0.03504942 0.03780270
v -0.00533574 0.03502031 0.03881665
v -0.00515037 0.03499443 0.03933634
v -0.00457247 0.03502516 0.03973975
v -0.00666055 0.03484403 0.03881665
v -0.00767461 0.03470172 0.03881665
v -0.00869412 0.03434756 0.03983423
v -0.00864505 0.03408395 0.04084091
v -0.00937016 0.03402088 0.04049566
v -0.00970817 0.03383329 0.04084091
v -0.01004619 0.03393517 0.04007409
v 0.00145735 0.03536639 0.03983423
v 0.00247685 0.03530332 0.04084818
v -0.00361293 0.03522407 0.03678512
v -0.01253772 0.03309908 0.02055832
v -0.01252681 0.03309908 0.01954437
v -0.01173083 0.03337400 0.00634851
v -0.01173083 0.03336753 0.00525824
v -0.01578706 0.03141558 0.00525824
v -0.01651761 0.03105495 0.00525824
v -0.00970817 0.03408880 0.03977609
v -0.00869412 0.03450442 0.03881665
v -0.00869412 0.03452545 0.03780270
v -0.00869412 0.03452545 0.03777363
v -0.01067861 0.03379286 0.00525824
v -0.01071678 0.03377992 0.00525824
v -0.01702464 0.03076386 0.00525824
v -0.00354206 0.03529523 0.00525824
v -0.00463244 0.03518526 0.02258258
v -0.00158482 0.03548930 0.01040794
v -0.00361293 0.03523054 0.03577117
v -0.00463244 0.03518526 0.02360016
v -0.00560288 0.03506074 0.03171175
v -0.00559198 0.03505912 0.03272570
v -0.00554291 0.03505265 0.03678512
v -0.00603904 0.03497664 0.03780270
v -0.00767461 0.03473730 0.03780270
v -0.00666055 0.03488608 0.03780270
v -0.01173083 0.03338209 0.00838004
v -0.01165996 0.03339826 0.00525824
v -0.00969182 0.03411144 0.00525824
v -0.01016068 0.03396266 0.00525824
v -0.00767461 0.03473730 0.03777363
v -0.00767461 0.03468878 0.00939762
v -0.00868867 0.03439607 0.00533456
v -0.00455612 0.03517071 0.00525824
v -0.00607175 0.03498311 0.00525824
v -0.00610991 0.03498635 0.03171175
v -0.00868867 0.03439445 0.00525824
v -0.00666055 0.03487314 0.00525824
v -0.00767461 0.03468393 0.00838004
v -0.00767461 0.03467423 0.00736609
v -0.00767461 0.03464997 0.00533456
v -0.00767461 0.03464835 0.00525824
v -0.00760373 0.03466452 0.00525824
f 1 2 3
f 1 3 4
f 1 4 11
f 1 11 10
f 1 10 9
f 1 9 23
f 1 23 67
f 1 67 103
f 1 103 138
f 1 138 182
f 1 182 226
f 1 226 219
f 1 219 218
f 1 218 217
f 1 217 239
f 1 239 225
f 1 225 224
f 1 224 241
f 1 241 240
f 1 240 248
f 1 248 253
f 1 253 254
f 1 254 249
f 1 249 246
f 1 246 245
f 1 245 227
f 1 227 183
f 1 183 139
f 1 139 104
f 1 104 68
f 1 68 24
f 1 24 12
f 1 12 5
f 1 5 13
f 1 13 6
f 1 6 2
f 2 7 8
f 2 8 3
f 2 6 7
f 3 8 9
f 3 9 10
f 3 10 11
f 3 11 4
f 5 12 13
f 6 13 53
f 6 53 14
f 6 14 15
f 6 15 16
f 6 16 17
f 6 17 18
f 6 18 7
f 7 18 8
f 8 18 19
f 8 19 20
f 8 20 21
f 8 21 9
f 9 22 23
f 9 21 22
f 12 24 25
f 12 25 26
f 12 26 27
f 12 27 28
f 12 28 29
f 12 29 30
f 12 30 31
f 12 31 32
f 12 32 33
f 12 33 34
f 12 34 35
f 12 35 36
f 12 36 37
f 12 37 38
f 12 38 39
f 12 39 40
f 12 40 41
f 12 41 42
f 12 42 43
f 12 43 44
f 12 44 45
f 12 45 46
f 12 46 47
f 12 47 48
f 12 48 49
f 12 49 50
f 12 50 13
f 13 50 51
f 13 51 52
f 13 52 53
f 14 53 52
f 14 52 88
f 14 88 56
f 14 56 55
f 14 55 54
f 14 54 15
f 15 54 55
f 15 55 56
f 15 56 57
f 15 57 58
f 15 58 16
f 16 59 17
f 16 58 60
f 16 60 61
f 16 61 59
f 17 59 61
f 17 61 19
f 17 19 18
f 19 61 62
f 19 62 20
f 20 62 61
f 20 61 60
f 20 60 63
f 20 63 22
f 20 22 21
f 22 63 64
f 22 64 65
f 22 65 23
f 23 65 66
f 23 66 67
f 24 68 69
f 24 69 25
f 25 69 26
f 26 69 70
f 26 70 71
f 26 71 27
f 27 71 72
f 27 72 28
f 28 73 29
f 28 72 73
f 29 73 74
f 29 74 30
f 30 74 75
f 30 75 76
f 30 76 31
f 31 76 32
f 32 76 33
f 33 76 34
f 34 76 35
f 35 76 36
f 36 76 37
f 37 76 77
f 37 77 38
f 38 77 39
f 39 77 40
f 40 77 41
f 41 77 42
f 42 77 43
f 43 77 44
f 44 77 78
f 44 78 79
f 44 79 80
f 44 80 45
f 45 80 46
f 46 80 47
f 47 81 48
f 47 80 82
f 47 82 83
f 47 83 81
f 48 81 49
f 49 84 85
f 49 85 51
f 49 51 50
f 49 81 84
f 51 85 86
f 51 86 52
f 52 86 87
f 52 87 88
f 56 88 89
f 56 89 90
f 56 90 57
f 57 91 92
f 57 92 58
f 57 90 93
f 57 93 94
f 57 94 91
f 58 92 60
f 60 92 63
f 63 92 91
f 63 91 94
f 63 94 64
f 64 95 96
f 64 96 66
f 64 66 65
f 64 94 97
f 64 97 98
f 64 98 99
f 64 99 100
f 64 100 95
f 66 101 102
f 66 102 67
f 66 96 101
f 67 102 103
f 68 104 105
f 68 105 106
f 68 106 69
f 69 106 107
f 69 107 108
f 69 108 71
f 69 71 70
f 71 108 72
f 72 108 109
f 72 109 73
f 73 109 110
f 73 110 74
f 74 111 75
f 74 110 112
f 74 112 113
f 74 113 111
f 75 111 76
f 76 111 114
f 76 114 77
f 77 114 78
f 78 115 116
f 78 116 79
f 78 114 115
f 79 116 80
f 80 116 117
f 80 117 118
f 80 118 82
f 81 83 118
f 81 118 86
f 81 86 84
f 82 118 83
f 84 86 85
f 86 118 119
f 86 119 87
f 87 119 89
f 87 89 88
f 89 119 120
f 89 120 90
f 90 120 93
f 93 120 121
f 93 121 160
f 93 160 122
f 93 122 128
f 93 128 94
f 94 123 124
f 94 124 125
f 94 125 126
f 94 126 127
f 94 127 98
f 94 98 97
f 94 128 129
f 94 129 130
f 94 130 123
f 95 100 131
f 95 131 96
f 96 131 132
f 96 132 133
f 96 133 101
f 98 127 134
f 98 134 100
f 98 100 99
f 100 135 131
f 100 134 136
f 100 136 135
f 101 133 103
f 101 103 102
f 103 133 137
f 103 137 136
f 103 136 138
f 104 139 140
f 104 140 105
f 105 140 141
f 105 141 142
f 105 142 106
f 106 142 143
f 106 143 144
f 106 144 107
f 107 144 143
f 107 143 145
f 107 145 146
f 107 146 109
f 107 109 108
f 109 146 145
f 109 145 147
f 109 147 110
f 110 147 112
f 111 113 148
f 111 148 149
f 111 149 115
f 111 115 150
f 111 150 114
f 112 147 151
f 112 151 152
f 112 152 153
f 112 153 113
f 113 154 148
f 113 153 154
f 114 150 115
f 115 149 155
f 115 155 116
f 116 156 157
f 116 157 117
f 116 155 156
f 117 157 158
f 117 158 118
f 118 158 119
f 119 158 120
f 120 158 157
f 120 157 156
f 120 156 159
f 120 159 160
f 120 160 121
f 122 160 159
f 122 159 128
f 123 161 162
f 123 162 163
f 123 163 164
f 123 164 165
f 123 165 166
f 123 166 124
f 123 130 167
f 123 167 161
f 124 166 125
f 125 166 126
f 126 168 134
f 126 134 127
f 126 166 169
f 126 169 168
f 128 159 170
f 128 170 129
f 129 170 171
f 129 171 172
f 129 172 130
f 130 172 173
f 130 173 167
f 131 135 132
f 132 135 133
f 133 135 136
f 133 136 137
f 134 174 136
f 134 168 175
f 134 175 176
f 134 176 177
f 134 177 178
f 134 178 179
f 134 179 174
f 136 174 180
f 136 180 181
f 136 181 182
f 136 182 138
f 139 183 140
f 140 184 141
f 140 183 185
f 140 185 186
f 140 186 187
f 140 187 184
f 141 184 188
f 141 188 189
f 141 189 190
f 141 190 142
f 142 190 143
f 143 191 192
f 143 192 193
f 143 193 194
f 143 194 195
f 143 195 153
f 143 153 145
f 143 190 191
f 145 153 151
f 145 151 147
f 148 154 159
f 148 159 149
f 149 159 155
f 151 153 152
f 153 159 196
f 153 196 154
f 153 195 159
f 154 196 159
f 155 159 156
f 159 195 194
f 159 194 197
f 159 197 198
f 159 198 170
f 161 199 200
f 161 200 201
f 161 201 202
f 161 202 203
f 161 203 162
f 161 167 199
f 162 202 204
f 162 204 205
f 162 205 163
f 162 203 202
f 163 205 164
f 164 205 221
f 164 221 206
f 164 206 165
f 165 206 207
f 165 207 166
f 166 207 208
f 166 208 209
f 166 209 169
f 167 173 199
f 168 169 175
f 169 209 208
f 169 208 206
f 169 206 210
f 169 210 175
f 170 198 171
f 171 211 172
f 171 198 197
f 171 197 194
f 171 194 212
f 171 212 211
f 172 211 213
f 172 213 199
f 172 199 173
f 174 179 214
f 174 214 215
f 174 215 216
f 174 216 217
f 174 217 218
f 174 218 219
f 174 219 180
f 175 210 177
f 175 177 176
f 177 210 220
f 177 220 221
f 177 221 222
f 177 222 178
f 178 222 223
f 178 223 224
f 178 224 225
f 178 225 214
f 178 214 179
f 180 182 181
f 180 219 226
f 180 226 182
f 183 227 228
f 183 228 231
f 183 231 185
f 184 229 211
f 184 211 188
f 184 187 230
f 184 230 213
f 184 213 229
f 185 231 186
f 186 231 187
f 187 199 213
f 187 213 230
f 187 231 232
f 187 232 233
f 187 233 234
f 187 234 200
f 187 200 199
f 188 211 189
f 189 211 192
f 189 192 190
f 190 192 191
f 192 211 212
f 192 212 193
f 193 212 194
f 200 234 235
f 200 235 205
f 200 205 204
f 200 204 201
f 201 204 202
f 205 236 221
f 205 235 237
f 205 237 236
f 206 221 220
f 206 220 210
f 206 208 207
f 211 229 213
f 214 225 238
f 214 238 216
f 214 216 215
f 216 238 225
f 216 225 239
f 216 239 217
f 221 236 222
f 222 236 242
f 222 242 223
f 223 240 241
f 223 241 224
f 223 242 243
f 223 243 244
f 223 244 240
f 227 245 228
f 228 245 246
f 228 246 232
f 228 232 231
f 232 246 247
f 232 247 233
f 233 247 236
f 233 236 237
f 233 237 234
f 234 237 235
f 236 247 242
f 240 244 248
f 242 247 246
f 242 246 249
f 242 249 243
f 243 249 250
f 243 250 244
f 244 250 251
f 244 251 252
f 244 252 253
f 244 253 248
f 249 254 252
f 249 252 251
f 249 251 250
f 252 254 253

