# https://github.com/mikedh/trimesh
v 0.02568448 -0.01340399 0.00526180
v 0.03027269 -0.01340399 0.00526180
v 0.02568448 -0.01340399 0.03788803
v 0.02510795 0.00082247 0.00526180
v 0.03049468 -0.01298519 0.00526180
v 0.03027269 -0.01340399 0.00526891
v 0.02510795 0.00100332 0.03847477
v 0.02510795 0.00082247 0.03844632
v 0.02794504 -0.01340399 0.04139780
v 0.02510795 0.01900849 0.00526180
v 0.03051291 -0.01295029 0.00526180
v 0.03023624 -0.01340399 0.01244135
v 0.02510795 0.00137770 0.03851033
v 0.02809165 -0.01340399 0.04154715
v 0.02722438 0.01900849 0.04106709
v 0.02510795 0.00231365 0.03856723
v 0.02801545 0.01900849 0.00526180
v 0.02510795 0.01900849 0.03849966
v 0.03084176 -0.01219201 0.00526180
v 0.03084176 -0.01219201 0.00533292
v 0.03138930 -0.01065325 0.03982960
v 0.03022878 -0.01340399 0.01347614
v 0.02874190 -0.01340399 0.04156848
v 0.02793096 0.01900849 0.04153648
v 0.02757808 0.01900849 0.04133734
v 0.02741655 0.01884351 0.04122355
v 0.02826561 0.01861824 0.00526180
v 0.02865824 0.01900849 0.04083595
v 0.02942032 0.01783776 0.04102086
v 0.03086827 -0.01211904 0.00526180
v 0.03242224 -0.00766137 0.04035944
v 0.03151355 -0.00997428 0.04048390
v 0.03053362 -0.01198261 0.04055858
v 0.02985769 -0.01340399 0.04002518
v 0.02987425 -0.01340399 0.03982960
v 0.03001756 -0.01340399 0.03171838
v 0.03120955 -0.01117674 0.00533292
v 0.03356950 0.00100332 0.04155781
v 0.03291759 0.00201859 0.04156848
v 0.03167507 0.01012805 0.04158626
v 0.03115405 0.01012805 0.04158626
v 0.03016583 0.01317386 0.04157560
v 0.02888272 -0.01340399 0.04155781
v 0.02962575 -0.01219201 0.04155426
v 0.03072911 0.01317386 0.04157560
v 0.03058746 0.01418596 0.04156848
v 0.02856132 0.01900849 0.04153292
v 0.02857541 0.01811061 0.00526180
v 0.02942032 0.01783776 0.04141913
v 0.03049302 0.01501404 0.04084662
v 0.03071751 0.01322462 0.00526180
v 0.03046652 0.01387820 0.00526180
v 0.03026357 0.01435094 0.00526180
v 0.02930269 0.01657502 0.00526180
v 0.02901774 0.01723177 0.00526180
v 0.03120955 -0.01117674 0.00526180
v 0.03242224 -0.00766137 0.04027766
v 0.03344359 -0.00372403 0.04048746
v 0.03344276 -0.00269290 0.04136935
v 0.03243881 -0.00565939 0.04136935
v 0.02947499 -0.01292808 0.04145469
v 0.02935819 -0.01340399 0.04132667
v 0.02952883 -0.01340399 0.04105997
v 0.02970361 -0.01324218 0.04089640
v 0.02965888 -0.01340399 0.04082883
v 0.03353305 0.00201859 0.04152225
v 0.03159224 0.01114332 0.04157915
v 0.03356784 0.00082247 0.04155070
v 0.03356950 0.00100332 0.04086795
v 0.03347838 -0.00204566 0.04140846
v 0.03352643 -0.00103039 0.04146536
v 0.03355707 -0.00001512 0.04151514
v 0.03148456 0.01192381 0.04147958
v 0.03045989 0.01491886 0.04145469
v 0.02953380 0.01723177 0.04151514
v 0.03078129 0.01418596 0.04084662
v 0.03073656 0.01317386 0.00526180
v 0.03155579 -0.01013609 0.00526180
v 0.03308740 -0.00509147 0.03982960
v 0.03344359 -0.00372403 0.04029188
v 0.03188382 -0.00914620 0.00526180
v 0.03190535 -0.00907323 0.00526180
v 0.03217374 -0.00813094 0.00526180
v 0.03353719 -0.00103039 0.04084662
v 0.03347341 0.00281494 0.04142980
v 0.03247360 0.00790398 0.04142269
v 0.03353305 0.00201859 0.04091773
v 0.03356784 0.00082247 0.04098530
v 0.03305758 -0.00095742 0.00526180
v 0.03307084 -0.00001512 0.00526180
v 0.03173637 0.01114332 0.04084662
v 0.03150278 0.01201582 0.04084662
v 0.03073739 0.01317386 0.00533647
v 0.03106044 0.01215859 0.00526180
v 0.03108778 0.01215859 0.00736339
v 0.03107535 0.01215859 0.00634993
v 0.03235266 -0.00729651 0.00526180
v 0.03243632 -0.00682695 0.00526180
v 0.03244212 -0.00679205 0.00526180
v 0.03252910 -0.00610357 0.00533292
v 0.03253572 -0.00603377 0.00526180
v 0.03297061 -0.00197269 0.00526180
v 0.03300209 -0.00204566 0.00736339
v 0.03305593 -0.00103039 0.00526180
v 0.03347341 0.00281494 0.04108842
v 0.03267489 0.00708859 0.04084662
v 0.03249514 0.00798964 0.04084662
v 0.03302693 0.00081613 0.00526180
v 0.03301617 0.00100332 0.00526180
v 0.03294907 0.00201859 0.00526180
v 0.03286706 0.00310366 0.00526180
v 0.03271713 0.00505805 0.00526180
v 0.03241313 0.00760574 0.01885991
v 0.03248602 0.00686650 0.00736339
v 0.03247443 0.00682525 0.00526180
v 0.03235100 0.00729799 0.00526180
v 0.03185234 0.00918893 0.00526180
v 0.03129818 0.01128292 0.00526180
v 0.03252744 -0.00610357 0.00526180
v 0.03260945 0.00607332 0.00526180
v 0.03261028 0.00607332 0.00533647
v 0.03264921 0.00607332 0.00939386
v 0.03267572 0.00607332 0.01243779
v 0.03249597 0.00690457 0.00939386
f 1 2 6
f 1 6 12
f 1 12 22
f 1 22 36
f 1 36 35
f 1 35 34
f 1 34 65
f 1 65 63
f 1 63 62
f 1 62 43
f 1 43 23
f 1 23 14
f 1 14 9
f 1 9 3
f 1 3 8
f 1 8 4
f 1 4 10
f 1 10 17
f 1 17 27
f 1 27 48
f 1 48 55
f 1 55 54
f 1 54 53
f 1 53 52
f 1 52 51
f 1 51 77
f 1 77 94
f 1 94 118
f 1 118 117
f 1 117 116
f 1 116 115
f 1 115 120
f 1 120 112
f 1 112 111
f 1 111 110
f 1 110 109
f 1 109 108
f 1 108 90
f 1 90 89
f 1 89 104
f 1 104 102
f 1 102 101
f 1 101 119
f 1 119 99
f 1 99 98
f 1 98 97
f 1 97 83
f 1 83 82
f 1 82 81
f 1 81 78
f 1 78 56
f 1 56 30
f 1 30 19
f 1 19 11
f 1 11 5
f 1 5 2
f 2 5 6
f 3 7 8
f 3 9 7
f 4 8 7
f 4 7 13
f 4 13 16
f 4 16 18
f 4 18 10
f 5 11 12
f 5 12 6
f 7 9 13
f 9 14 15
f 9 15 16
f 9 16 13
f 10 18 15
f 10 15 25
f 10 25 24
f 10 24 47
f 10 47 28
f 10 28 17
f 11 19 20
f 11 20 21
f 11 21 22
f 11 22 12
f 14 23 24
f 14 24 25
f 14 25 26
f 14 26 15
f 15 18 16
f 15 26 25
f 17 28 29
f 17 29 27
f 19 30 20
f 20 30 21
f 21 31 32
f 21 32 33
f 21 33 34
f 21 34 35
f 21 35 36
f 21 36 22
f 21 30 37
f 21 37 31
f 23 38 39
f 23 39 40
f 23 40 41
f 23 41 42
f 23 42 24
f 23 43 44
f 23 44 38
f 24 42 45
f 24 45 46
f 24 46 47
f 27 29 48
f 28 47 49
f 28 49 29
f 29 50 51
f 29 51 52
f 29 52 53
f 29 53 54
f 29 54 55
f 29 55 48
f 29 49 50
f 30 56 37
f 31 37 56
f 31 56 57
f 31 57 80
f 31 80 58
f 31 58 59
f 31 59 60
f 31 60 32
f 32 60 61
f 32 61 62
f 32 62 33
f 33 62 63
f 33 63 64
f 33 64 65
f 33 65 34
f 38 66 67
f 38 67 40
f 38 40 39
f 38 44 68
f 38 68 88
f 38 88 69
f 38 69 87
f 38 87 66
f 40 67 45
f 40 45 42
f 40 42 41
f 43 61 44
f 43 62 61
f 44 61 60
f 44 60 59
f 44 59 70
f 44 70 71
f 44 71 72
f 44 72 68
f 45 67 46
f 46 67 73
f 46 73 74
f 46 74 75
f 46 75 47
f 47 75 49
f 49 75 74
f 49 74 50
f 50 74 76
f 50 76 77
f 50 77 51
f 56 78 57
f 57 79 80
f 57 78 81
f 57 81 82
f 57 82 83
f 57 83 79
f 58 80 84
f 58 84 71
f 58 71 70
f 58 70 59
f 63 65 64
f 66 85 86
f 66 86 67
f 66 87 105
f 66 105 85
f 67 86 73
f 68 72 88
f 69 88 84
f 69 84 89
f 69 89 90
f 69 90 87
f 71 84 72
f 72 84 88
f 73 86 91
f 73 91 92
f 73 92 76
f 73 76 74
f 76 92 93
f 76 93 77
f 77 93 95
f 77 95 96
f 77 96 94
f 79 83 80
f 80 83 97
f 80 97 98
f 80 98 99
f 80 99 100
f 80 100 101
f 80 101 102
f 80 102 103
f 80 103 104
f 80 104 84
f 84 104 89
f 85 105 106
f 85 106 86
f 86 106 107
f 86 107 91
f 87 90 108
f 87 108 109
f 87 109 110
f 87 110 111
f 87 111 112
f 87 112 105
f 91 107 113
f 91 113 114
f 91 114 115
f 91 115 116
f 91 116 117
f 91 117 118
f 91 118 95
f 91 95 92
f 92 95 93
f 94 96 118
f 95 118 96
f 99 119 100
f 100 119 101
f 102 104 103
f 105 112 120
f 105 120 121
f 105 121 122
f 105 122 123
f 105 123 106
f 106 123 124
f 106 124 107
f 107 124 113
f 113 124 114
f 114 124 123
f 114 123 122
f 114 122 115
f 115 122 121
f 115 121 120

