# https://github.com/mikedh/trimesh
v 0.01972074 -0.02592179 -0.03323389
v 0.02001508 -0.02580531 -0.03323389
v 0.02001894 -0.02581230 -0.03222017
v 0.01980943 -0.02588684 -0.03180718
v 0.01972074 -0.02591946 -0.03222017
v 0.01972074 -0.02577736 -0.04033794
v 0.02074129 -0.02549085 -0.03323389
v 0.02074129 -0.02550249 -0.03222017
v 0.01984542 -0.02572612 -0.04033794
v 0.02001379 -0.02580998 -0.03180718
v 0.01972074 -0.02591713 -0.03180718
v 0.01972074 -0.02575174 -0.04135166
v 0.02215900 -0.02483395 -0.03425029
v 0.02167700 -0.02507155 -0.03323389
v 0.02167186 -0.02507388 -0.03222017
v 0.02074129 -0.02549550 -0.03180718
v 0.02218470 -0.02484327 -0.03323389
v 0.02212815 -0.02481997 -0.03526400
v 0.01972074 -0.00212455 -0.03180718
v 0.01972074 -0.02569816 -0.04236805
v 0.01984670 -0.02568884 -0.04135166
v 0.02209088 -0.02479435 -0.03627772
v 0.02277081 -0.02447755 -0.03425029
v 0.02277081 -0.02450551 -0.03323389
v 0.02217956 -0.02483861 -0.03222017
v 0.02196492 -0.02492946 -0.03180718
v 0.02166286 -0.02506922 -0.03180718
v 0.02277081 -0.02450318 -0.03222017
v 0.02277081 -0.02444028 -0.03526400
v 0.01972074 -0.00212455 -0.05549539
v 0.03269222 -0.00212455 -0.03180718
v 0.01972074 -0.02565391 -0.04293659
v 0.01981071 -0.02564692 -0.04236805
v 0.02147135 -0.02500400 -0.03830783
v 0.02204075 -0.02475242 -0.03729411
v 0.02277081 -0.02437506 -0.03627772
v 0.02339934 -0.02399071 -0.03526400
v 0.02343404 -0.02403264 -0.03323389
v 0.02345589 -0.02403264 -0.03222017
v 0.02217057 -0.02483395 -0.03180718
v 0.02304716 -0.02430285 -0.03180718
v 0.02277081 -0.02448687 -0.03180718
v 0.02336977 -0.02395111 -0.03627772
v 0.02885939 -0.00212455 -0.05849899
v 0.02324381 -0.01570500 -0.05913458
v 0.01972074 -0.01927132 -0.05842927
v 0.03265623 -0.00245765 -0.03180718
v 0.03279248 -0.00306097 -0.04135166
v 0.03282589 -0.00212455 -0.03830783
v 0.01972074 -0.02562129 -0.04334690
v 0.02083383 -0.02513212 -0.04138920
v 0.02133125 -0.02492713 -0.04033794
v 0.02140066 -0.02496673 -0.03932423
v 0.02197777 -0.02471049 -0.03830783
v 0.02285179 -0.02413979 -0.03825419
v 0.02328880 -0.02387191 -0.03787874
v 0.02332093 -0.02389986 -0.03729411
v 0.02190836 -0.02466624 -0.03932423
v 0.02268341 -0.02415842 -0.03932423
v 0.02422580 -0.02277243 -0.04135166
v 0.02413326 -0.02324530 -0.03180718
v 0.02396102 -0.02345028 -0.03180718
v 0.02345332 -0.02402332 -0.03180718
v 0.02536588 -0.02087163 -0.05251325
v 0.02540829 -0.02092055 -0.05149953
v 0.02987351 -0.00212455 -0.05853654
v 0.02885939 -0.00306097 -0.05859285
v 0.02626689 -0.01159592 -0.05914530
v 0.02419752 -0.01458455 -0.05918017
v 0.02382992 -0.01531599 -0.05920430
v 0.02312813 -0.01625241 -0.05913994
v 0.01972074 -0.02031024 -0.05858481
v 0.01972074 -0.01985834 -0.05851777
v 0.03265109 -0.00250424 -0.03180718
v 0.03272307 -0.00407659 -0.04338177
v 0.03274364 -0.00407659 -0.04439817
v 0.03280662 -0.00306097 -0.04236805
v 0.03284132 -0.00212455 -0.03932423
v 0.01972074 -0.02553743 -0.04439817
v 0.01972717 -0.02537205 -0.04642559
v 0.02040453 -0.02497838 -0.04642559
v 0.02012562 -0.02481532 -0.05048314
v 0.02105105 -0.02476407 -0.04439817
v 0.02098164 -0.02472214 -0.04541188
v 0.02254460 -0.02406525 -0.04135166
v 0.02240449 -0.02396741 -0.04338177
v 0.02224254 -0.02384861 -0.04575783
v 0.02318983 -0.02379969 -0.03932423
v 0.02390447 -0.02256511 -0.04642559
v 0.02480034 -0.02129791 -0.05251325
v 0.02091224 -0.02467788 -0.04642559
v 0.01984542 -0.02464527 -0.05454336
v 0.02084154 -0.02463362 -0.04743931
v 0.02074129 -0.02451715 -0.04946942
v 0.02074129 -0.02433546 -0.05149953
v 0.02175669 -0.02440068 -0.04338177
v 0.02161916 -0.02412581 -0.04743931
v 0.02148035 -0.02403264 -0.04946942
v 0.02542500 -0.02094850 -0.05048314
v 0.02436204 -0.02294247 -0.03180718
v 0.02532989 -0.02083669 -0.05307106
v 0.02579903 -0.02031257 -0.05251325
v 0.02585559 -0.02031257 -0.05149953
v 0.02987351 -0.00509221 -0.05857409
v 0.02885939 -0.00712113 -0.05884494
v 0.02885939 -0.00610551 -0.05882617
v 0.02885939 -0.00509221 -0.05876449
v 0.02885939 -0.00407659 -0.05868672
v 0.03094804 -0.00212455 -0.05824154
v 0.02727458 -0.01053371 -0.05913189
v 0.02481319 -0.01423747 -0.05919894
v 0.02516023 -0.01342684 -0.05918017
v 0.02480162 -0.01515992 -0.05919358
v 0.02371809 -0.01624309 -0.05916944
v 0.02311271 -0.01679516 -0.05912385
v 0.01972717 -0.02031257 -0.05858481
v 0.01972074 -0.02049426 -0.05853922
v 0.03236446 -0.00507125 -0.03180718
v 0.03224878 -0.00610551 -0.03180718
v 0.03243130 -0.00568388 -0.04033794
v 0.03255726 -0.00509221 -0.04439817
v 0.03274621 -0.00407659 -0.04541188
v 0.03281304 -0.00306097 -0.04439817
v 0.03209069 -0.00712113 -0.03180718
v 0.03285160 -0.00212455 -0.04135166
v 0.01972074 -0.02545590 -0.04541992
v 0.01972074 -0.02505059 -0.05048314
v 0.01972074 -0.02496906 -0.05149953
v 0.01998552 -0.02473379 -0.05251325
v 0.02134153 -0.02393247 -0.05149953
v 0.02318854 -0.02278407 -0.04946942
v 0.02425022 -0.02180339 -0.05149953
v 0.02418081 -0.02175214 -0.05251325
v 0.02240321 -0.02295179 -0.05352696
v 0.02291091 -0.02257908 -0.05352696
v 0.02359856 -0.02207127 -0.05352696
v 0.02062561 -0.02413746 -0.05454336
v 0.01972074 -0.02471981 -0.05454336
v 0.01972074 -0.02444960 -0.05558926
v 0.01972074 -0.02444261 -0.05561608
v 0.02047265 -0.02403264 -0.05534253
v 0.02736456 -0.01882874 -0.03180718
v 0.02680673 -0.01959511 -0.03180718
v 0.02626818 -0.02033354 -0.03180718
v 0.02539030 -0.02153551 -0.03180718
v 0.02480162 -0.02234148 -0.03180718
v 0.02113331 -0.02376941 -0.05454336
v 0.02346489 -0.02197577 -0.05430200
v 0.02517308 -0.02068761 -0.05374955
v 0.02559724 -0.02033354 -0.05345724
v 0.02616021 -0.01955085 -0.05352696
v 0.02624890 -0.01967198 -0.05251325
v 0.02626303 -0.01970226 -0.05149953
v 0.03067298 -0.00509221 -0.05827104
v 0.02738384 -0.01079228 -0.05913189
v 0.02738384 -0.01053371 -0.05913189
v 0.03113569 -0.00212455 -0.05816645
v 0.02547385 -0.01422350 -0.05916676
v 0.02446230 -0.01590067 -0.05916944
v 0.02333378 -0.01679516 -0.05912385
v 0.01972074 -0.02120939 -0.05834345
v 0.03243130 -0.00568155 -0.04135166
v 0.03209583 -0.00712113 -0.03729411
v 0.03255469 -0.00509221 -0.04541188
v 0.03254570 -0.00509221 -0.04642559
v 0.03273464 -0.00407659 -0.04642559
v 0.03278862 -0.00306097 -0.04946942
v 0.03279890 -0.00306097 -0.04845302
v 0.03282461 -0.00212455 -0.05243548
v 0.03198915 -0.00753111 -0.03180718
v 0.01972074 -0.02488753 -0.05251325
v 0.01972074 -0.02484094 -0.05307911
v 0.02128755 -0.02389287 -0.05228798
v 0.02120272 -0.02382998 -0.05352696
v 0.01972074 -0.02443562 -0.05562948
v 0.01972074 -0.02441000 -0.05567507
v 0.02020402 -0.02382299 -0.05602103
v 0.02078242 -0.02360635 -0.05563217
v 0.02148806 -0.02306593 -0.05555708
v 0.02220655 -0.02279339 -0.05489467
v 0.02751108 -0.01859580 -0.03180718
v 0.02449700 -0.02101372 -0.05431809
v 0.02548541 -0.02001208 -0.05432882
v 0.02647126 -0.01904537 -0.05352696
v 0.02638771 -0.01889163 -0.05418936
v 0.02836454 -0.01576789 -0.05407405
v 0.02838125 -0.01579818 -0.05352696
v 0.02653295 -0.01916650 -0.05251325
v 0.02777200 -0.01726803 -0.04845302
v 0.02824757 -0.01657387 -0.04642559
v 0.02855348 -0.01610566 -0.04541188
v 0.02826814 -0.01661114 -0.04541188
v 0.02838253 -0.01680681 -0.03830783
v 0.02839796 -0.01683476 -0.03729411
v 0.03135934 -0.00229925 -0.05806454
v 0.03130793 -0.00306097 -0.05802164
v 0.03125651 -0.00407659 -0.05792241
v 0.03049946 -0.00610551 -0.05818791
v 0.02652653 -0.01523679 -0.05830859
v 0.02598155 -0.01422350 -0.05896831
v 0.02618463 -0.01345945 -0.05905681
v 0.02636458 -0.01278392 -0.05912653
v 0.03150201 -0.00212455 -0.05783928
v 0.02532989 -0.01477091 -0.05911849
v 0.02513966 -0.01544644 -0.05904876
v 0.02480162 -0.01624309 -0.05893344
v 0.02400986 -0.01657620 -0.05903803
v 0.01972074 -0.02122803 -0.05833540
v 0.03242873 -0.00566991 -0.04236805
v 0.03209198 -0.00712113 -0.03830783
v 0.03183620 -0.00813675 -0.03180718
v 0.03180149 -0.00813675 -0.04439817
v 0.03241716 -0.00562332 -0.04642559
v 0.03242616 -0.00565826 -0.04338177
v 0.03241331 -0.00561167 -0.04703704
v 0.03250328 -0.00517607 -0.04739908
v 0.03269608 -0.00407659 -0.04845302
v 0.03272178 -0.00407659 -0.04743931
v 0.03277320 -0.00306097 -0.05048314
v 0.03281690 -0.00212455 -0.05344919
v 0.01972074 -0.02378339 -0.05658420
v 0.02128626 -0.02288657 -0.05609880
v 0.02199576 -0.02258607 -0.05555708
v 0.02766147 -0.01833723 -0.03180718
v 0.02322967 -0.02178709 -0.05498049
v 0.02488645 -0.02039643 -0.05466136
v 0.02624119 -0.01866568 -0.05486517
v 0.02527719 -0.01977448 -0.05500731
v 0.02537616 -0.01885902 -0.05616584
v 0.02546870 -0.01794589 -0.05732169
v 0.02564480 -0.01828366 -0.05653056
v 0.02618463 -0.01758949 -0.05657347
v 0.02714477 -0.01747535 -0.05454336
v 0.02746481 -0.01696754 -0.05454336
v 0.02631445 -0.01776420 -0.05604784
v 0.02645969 -0.01799015 -0.05537203
v 0.02720903 -0.01655989 -0.05576625
v 0.02824757 -0.01558154 -0.05475254
v 0.02854834 -0.01524145 -0.05446559
v 0.02911260 -0.01416293 -0.05451922
v 0.02939922 -0.01378790 -0.05416523
v 0.02917301 -0.01434463 -0.05352696
v 0.02869615 -0.01523679 -0.05352696
v 0.02842495 -0.01587505 -0.05149953
v 0.02732600 -0.01775488 -0.05251325
v 0.02768589 -0.01726803 -0.05048314
v 0.02851106 -0.01602879 -0.04743931
v 0.02857533 -0.01613361 -0.04439817
v 0.02878227 -0.01523679 -0.05149953
v 0.02882211 -0.01523679 -0.05048314
v 0.02886067 -0.01523679 -0.04946942
v 0.02889795 -0.01523679 -0.04845302
v 0.02904190 -0.01523679 -0.04439817
v 0.02906761 -0.01523679 -0.04338177
v 0.02866788 -0.01625241 -0.03830783
v 0.02868715 -0.01625241 -0.03729411
v 0.02817431 -0.01740780 -0.03222017
v 0.02816531 -0.01739848 -0.03323389
v 0.02799051 -0.01776187 -0.03180718
v 0.03161255 -0.00212455 -0.05765155
v 0.03162798 -0.00306097 -0.05751478
v 0.03154957 -0.00407659 -0.05741555
v 0.03119225 -0.00509687 -0.05759255
v 0.03038250 -0.00661798 -0.05809673
v 0.02639285 -0.01590533 -0.05817986
v 0.02585816 -0.01624775 -0.05841854
v 0.02572706 -0.01515992 -0.05883958
v 0.02554839 -0.01702344 -0.05827104
v 0.02483376 -0.01732394 -0.05842390
v 0.02451757 -0.01793424 -0.05820132
v 0.01972074 -0.02237643 -0.05761937
v 0.03179764 -0.00813675 -0.04541188
v 0.03178607 -0.00813675 -0.04743931
v 0.03171538 -0.00853508 -0.03180718
v 0.03137734 -0.00959263 -0.04946942
v 0.03151872 -0.00908715 -0.04946942
v 0.03203799 -0.00712113 -0.04743931
v 0.03177836 -0.00813675 -0.04845302
v 0.03240431 -0.00556974 -0.04771285
v 0.03202385 -0.00712113 -0.04845302
v 0.03176036 -0.00813675 -0.04946942
v 0.03239017 -0.00550219 -0.04845302
v 0.03250071 -0.00499671 -0.04845302
v 0.03265752 -0.00407659 -0.04946942
v 0.03269993 -0.00306097 -0.05352696
v 0.03273464 -0.00306097 -0.05251325
v 0.03275649 -0.00306097 -0.05149953
v 0.03279248 -0.00212455 -0.05446559
v 0.01972074 -0.02339904 -0.05691674
v 0.02519365 -0.01770130 -0.05799750
v 0.02411140 -0.01962772 -0.05682824
v 0.02251632 -0.02208059 -0.05555708
v 0.02333378 -0.02087163 -0.05614171
v 0.02425408 -0.02078078 -0.05499390
v 0.02474635 -0.01924337 -0.05649838
v 0.02513581 -0.01862142 -0.05684165
v 0.02584659 -0.01727968 -0.05761400
v 0.02638642 -0.01686039 -0.05723319
v 0.02735299 -0.01678585 -0.05509044
v 0.02754065 -0.01623378 -0.05547930
v 0.02846479 -0.01490601 -0.05526476
v 0.02652781 -0.01708168 -0.05657347
v 0.02930411 -0.01357592 -0.05484104
v 0.02942364 -0.01383914 -0.05352696
v 0.02951233 -0.01322651 -0.05451922
v 0.03001875 -0.01219458 -0.05352696
v 0.03034522 -0.01156331 -0.05277070
v 0.03039407 -0.01171705 -0.05209221
v 0.02921671 -0.01441218 -0.05149953
v 0.02923599 -0.01444712 -0.05048314
v 0.02928354 -0.01454262 -0.04743931
v 0.02931182 -0.01460552 -0.04541188
v 0.02932468 -0.01463347 -0.04439817
v 0.02925270 -0.01447973 -0.04946942
v 0.02939280 -0.01478488 -0.03729411
v 0.02914473 -0.01527173 -0.03830783
v 0.02939794 -0.01479420 -0.03627772
v 0.02915373 -0.01530201 -0.03627772
v 0.02871415 -0.01625241 -0.03425029
v 0.02841081 -0.01688135 -0.03425029
v 0.02817688 -0.01741013 -0.03180718
v 0.03243516 -0.00212455 -0.05611221
v 0.03241845 -0.00258111 -0.05608002
v 0.03145574 -0.00476144 -0.05725733
v 0.03085550 -0.00610551 -0.05758719
v 0.03053673 -0.00702096 -0.05755501
v 0.03045190 -0.00779899 -0.05719296
v 0.02705736 -0.01524378 -0.05755232
v 0.02727458 -0.01558387 -0.05693820
v 0.02622448 -0.01658319 -0.05790900
v 0.03153929 -0.00908948 -0.03180718
v 0.03114726 -0.01016567 -0.04946942
v 0.03110999 -0.01016567 -0.05048314
v 0.03135292 -0.00951576 -0.05048314
v 0.03149816 -0.00901028 -0.05048314
v 0.03137605 -0.00959729 -0.03180718
v 0.03130407 -0.00981626 -0.03180718
v 0.03105086 -0.01057564 -0.03180718
v 0.03051746 -0.01216896 -0.03180718
v 0.03035936 -0.01263950 -0.03180718
v 0.03016142 -0.01317293 -0.03180718
v 0.03198915 -0.00712113 -0.04946942
v 0.03171666 -0.00813675 -0.05048314
v 0.03221280 -0.00610551 -0.04946942
v 0.03234519 -0.00529720 -0.05048314
v 0.03243387 -0.00468690 -0.05149953
v 0.03256754 -0.00407659 -0.05149953
v 0.03250456 -0.00415812 -0.05251593
v 0.03212282 -0.00610551 -0.05149953
v 0.03240302 -0.00454946 -0.05285383
v 0.03249942 -0.00393217 -0.05352696
v 0.03257911 -0.00314483 -0.05461040
v 0.03278476 -0.00212455 -0.05454872
v 0.02742625 -0.01588436 -0.05626238
v 0.02828742 -0.01456359 -0.05594057
v 0.02943778 -0.01289806 -0.05517894
v 0.03040820 -0.01174734 -0.05149953
v 0.02973341 -0.01321020 -0.05251325
v 0.02945192 -0.01390903 -0.05149953
v 0.03033879 -0.00952275 -0.05586548
v 0.02982852 -0.01219458 -0.05454336
v 0.03246343 -0.00374815 -0.05431809
v 0.03145317 -0.00883092 -0.05126354
v 0.03099302 -0.01016567 -0.05149953
v 0.02948020 -0.01397425 -0.04946942
v 0.03044933 -0.01184284 -0.04845302
v 0.02969228 -0.01422350 -0.03323389
v 0.02970642 -0.01422350 -0.03222017
v 0.02971156 -0.01422350 -0.03180718
v 0.03073210 -0.01118129 -0.04845302
v 0.02940693 -0.01481284 -0.03425029
v 0.02916272 -0.01532065 -0.03425029
v 0.02899692 -0.01570966 -0.03180718
v 0.02841981 -0.01689999 -0.03222017
v 0.02842109 -0.01690464 -0.03180718
v 0.03261125 -0.00212455 -0.05555708
v 0.03249300 -0.00280474 -0.05555708
v 0.03044034 -0.00884722 -0.05622752
v 0.03233747 -0.00331255 -0.05555708
v 0.03071283 -0.01118129 -0.04946942
v 0.03068583 -0.01118129 -0.05048314
v 0.03236832 -0.00443998 -0.05352696
v 0.03194416 -0.00712113 -0.05048314
v 0.03240045 -0.00353850 -0.05499658
v 0.02976168 -0.01321020 -0.05149953
v 0.02978996 -0.01321020 -0.05048314
f 1 2 3
f 1 3 4
f 1 4 5
f 1 5 11
f 1 11 19
f 1 19 30
f 1 30 46
f 1 46 73
f 1 73 72
f 1 72 117
f 1 117 161
f 1 161 208
f 1 208 271
f 1 271 289
f 1 289 221
f 1 221 176
f 1 176 175
f 1 175 140
f 1 140 139
f 1 139 138
f 1 138 172
f 1 172 171
f 1 171 128
f 1 128 127
f 1 127 126
f 1 126 79
f 1 79 50
f 1 50 32
f 1 32 20
f 1 20 12
f 1 12 6
f 1 6 2
f 2 7 8
f 2 8 3
f 2 6 9
f 2 9 7
f 3 8 10
f 3 10 4
f 4 10 16
f 4 16 27
f 4 27 26
f 4 26 40
f 4 40 42
f 4 42 41
f 4 41 63
f 4 63 62
f 4 62 61
f 4 61 100
f 4 100 146
f 4 146 145
f 4 145 144
f 4 144 143
f 4 143 142
f 4 142 181
f 4 181 224
f 4 224 259
f 4 259 321
f 4 321 375
f 4 375 373
f 4 373 369
f 4 369 341
f 4 341 340
f 4 340 339
f 4 339 338
f 4 338 337
f 4 337 336
f 4 336 331
f 4 331 274
f 4 274 211
f 4 211 170
f 4 170 124
f 4 124 119
f 4 119 118
f 4 118 74
f 4 74 47
f 4 47 31
f 4 31 19
f 4 19 11
f 4 11 5
f 6 12 9
f 7 13 14
f 7 14 8
f 7 9 13
f 8 15 16
f 8 16 10
f 8 14 17
f 8 17 15
f 9 12 18
f 9 18 13
f 12 20 21
f 12 21 22
f 12 22 18
f 13 18 23
f 13 23 24
f 13 24 17
f 13 17 14
f 15 25 26
f 15 26 27
f 15 27 16
f 15 17 25
f 17 24 28
f 17 28 25
f 18 22 29
f 18 29 23
f 19 31 49
f 19 49 78
f 19 78 125
f 19 125 169
f 19 169 220
f 19 220 288
f 19 288 353
f 19 353 376
f 19 376 322
f 19 322 260
f 19 260 203
f 19 203 157
f 19 157 109
f 19 109 66
f 19 66 44
f 19 44 30
f 20 32 33
f 20 33 34
f 20 34 22
f 20 22 21
f 22 34 35
f 22 35 36
f 22 36 29
f 23 29 37
f 23 37 38
f 23 38 24
f 24 38 39
f 24 39 28
f 25 28 40
f 25 40 26
f 28 39 41
f 28 41 42
f 28 42 40
f 29 36 43
f 29 43 37
f 30 44 45
f 30 45 46
f 31 47 48
f 31 48 49
f 32 50 51
f 32 51 33
f 33 51 52
f 33 52 53
f 33 53 34
f 34 53 35
f 35 53 54
f 35 54 36
f 36 55 56
f 36 56 57
f 36 57 43
f 36 54 58
f 36 58 59
f 36 59 55
f 37 43 60
f 37 60 38
f 38 61 62
f 38 62 39
f 38 60 61
f 39 62 63
f 39 63 41
f 43 57 64
f 43 64 65
f 43 65 60
f 44 66 67
f 44 67 68
f 44 68 69
f 44 69 70
f 44 70 45
f 45 70 71
f 45 71 72
f 45 72 73
f 45 73 46
f 47 74 48
f 48 75 76
f 48 76 77
f 48 77 78
f 48 78 49
f 48 74 75
f 50 79 80
f 50 80 51
f 51 80 81
f 51 81 52
f 52 81 82
f 52 82 129
f 52 129 83
f 52 83 54
f 52 54 53
f 54 83 84
f 54 84 58
f 55 59 56
f 56 59 85
f 56 85 86
f 56 86 87
f 56 87 88
f 56 88 89
f 56 89 90
f 56 90 64
f 56 64 57
f 58 84 129
f 58 129 91
f 58 91 92
f 58 92 93
f 58 93 94
f 58 94 95
f 58 95 96
f 58 96 59
f 59 96 97
f 59 97 98
f 59 98 85
f 60 65 99
f 60 99 61
f 61 99 100
f 64 90 101
f 64 101 102
f 64 102 65
f 65 102 103
f 65 103 99
f 66 104 105
f 66 105 106
f 66 106 107
f 66 107 108
f 66 108 67
f 66 109 104
f 67 108 68
f 68 110 111
f 68 111 112
f 68 112 70
f 68 70 69
f 68 108 110
f 70 113 114
f 70 114 115
f 70 115 71
f 70 112 111
f 70 111 113
f 71 115 72
f 72 116 117
f 72 115 116
f 74 118 75
f 75 118 119
f 75 119 76
f 76 120 121
f 76 121 122
f 76 122 123
f 76 123 77
f 76 119 124
f 76 124 120
f 77 125 78
f 77 123 125
f 79 126 80
f 80 126 127
f 80 127 82
f 80 82 81
f 82 127 128
f 82 128 129
f 83 129 84
f 85 98 86
f 86 98 130
f 86 130 87
f 87 89 88
f 87 130 131
f 87 131 89
f 89 131 132
f 89 132 90
f 90 132 133
f 90 133 134
f 90 134 135
f 90 135 136
f 90 136 101
f 91 129 92
f 92 137 95
f 92 95 94
f 92 94 93
f 92 129 138
f 92 138 139
f 92 139 140
f 92 140 141
f 92 141 137
f 95 137 96
f 96 137 97
f 97 137 98
f 98 137 130
f 99 103 142
f 99 142 143
f 99 143 144
f 99 144 145
f 99 145 146
f 99 146 100
f 101 136 147
f 101 147 148
f 101 148 149
f 101 149 150
f 101 150 151
f 101 151 102
f 102 151 152
f 102 152 103
f 103 152 153
f 103 153 142
f 104 154 105
f 104 109 154
f 105 155 156
f 105 156 106
f 105 154 155
f 106 156 107
f 107 110 108
f 107 156 110
f 109 157 154
f 110 156 111
f 111 156 155
f 111 155 113
f 113 158 159
f 113 159 114
f 113 155 158
f 114 159 160
f 114 160 115
f 115 160 116
f 116 160 117
f 117 160 161
f 120 162 121
f 120 124 163
f 120 163 162
f 121 164 122
f 121 162 164
f 122 164 165
f 122 165 166
f 122 166 167
f 122 167 168
f 122 168 123
f 123 168 169
f 123 169 125
f 124 170 163
f 128 171 129
f 129 171 172
f 129 172 138
f 130 137 173
f 130 173 132
f 130 132 131
f 132 173 134
f 132 134 133
f 134 174 147
f 134 147 135
f 134 173 174
f 135 147 136
f 137 141 147
f 137 147 174
f 137 174 173
f 140 175 141
f 141 175 176
f 141 176 177
f 141 177 178
f 141 178 179
f 141 179 180
f 141 180 147
f 142 153 181
f 147 180 148
f 148 180 182
f 148 182 149
f 149 182 183
f 149 183 150
f 150 183 151
f 151 184 152
f 151 183 185
f 151 185 186
f 151 186 184
f 152 184 186
f 152 186 187
f 152 187 188
f 152 188 189
f 152 189 190
f 152 190 191
f 152 191 192
f 152 192 193
f 152 193 153
f 153 193 194
f 153 194 181
f 154 157 195
f 154 195 196
f 154 196 197
f 154 197 198
f 154 198 155
f 155 199 200
f 155 200 201
f 155 201 202
f 155 202 158
f 155 198 199
f 157 203 195
f 158 202 204
f 158 204 159
f 159 204 205
f 159 205 206
f 159 206 207
f 159 207 160
f 160 207 161
f 161 207 208
f 162 209 164
f 162 163 210
f 162 210 209
f 163 170 211
f 163 211 212
f 163 212 272
f 163 272 210
f 164 213 165
f 164 209 214
f 164 214 213
f 165 213 215
f 165 215 216
f 165 216 217
f 165 217 218
f 165 218 166
f 166 218 167
f 167 219 220
f 167 220 168
f 167 218 219
f 168 220 169
f 176 221 177
f 177 221 222
f 177 222 178
f 178 222 179
f 179 222 223
f 179 223 182
f 179 182 180
f 181 194 224
f 182 223 225
f 182 225 226
f 182 226 183
f 183 227 185
f 183 226 228
f 183 228 229
f 183 229 230
f 183 230 231
f 183 231 232
f 183 232 227
f 185 233 234
f 185 234 186
f 185 227 235
f 185 235 236
f 185 236 237
f 185 237 233
f 186 234 238
f 186 238 239
f 186 239 240
f 186 240 241
f 186 241 242
f 186 242 243
f 186 243 187
f 187 243 244
f 187 244 245
f 187 245 188
f 188 245 246
f 188 246 189
f 189 246 247
f 189 247 191
f 189 191 190
f 191 248 192
f 191 247 249
f 191 249 250
f 191 250 251
f 191 251 252
f 191 252 248
f 192 248 193
f 193 248 194
f 194 248 253
f 194 253 254
f 194 254 255
f 194 255 256
f 194 256 257
f 194 257 258
f 194 258 259
f 194 259 224
f 195 203 260
f 195 260 261
f 195 261 196
f 196 261 197
f 197 261 262
f 197 262 263
f 197 263 198
f 198 263 264
f 198 264 265
f 198 265 199
f 199 266 267
f 199 267 200
f 199 265 266
f 200 267 205
f 200 205 201
f 201 204 202
f 201 205 204
f 205 267 266
f 205 266 206
f 206 266 268
f 206 268 269
f 206 269 208
f 206 208 207
f 208 269 270
f 208 270 271
f 209 210 214
f 210 272 273
f 210 273 213
f 210 213 214
f 211 274 275
f 211 275 212
f 212 275 276
f 212 276 272
f 213 273 277
f 213 277 278
f 213 278 215
f 215 279 216
f 215 278 280
f 215 280 281
f 215 281 279
f 216 279 282
f 216 282 283
f 216 283 284
f 216 284 217
f 217 284 285
f 217 285 286
f 217 286 218
f 218 286 287
f 218 287 219
f 219 287 220
f 220 287 286
f 220 286 288
f 221 289 290
f 221 290 222
f 222 290 291
f 222 291 223
f 223 292 225
f 223 291 293
f 223 293 292
f 225 292 294
f 225 294 226
f 226 294 228
f 227 232 235
f 228 294 292
f 228 292 295
f 228 295 296
f 228 296 229
f 229 296 230
f 230 290 297
f 230 297 231
f 230 296 291
f 230 291 290
f 231 297 232
f 232 297 298
f 232 298 235
f 233 237 299
f 233 299 300
f 233 300 234
f 234 300 301
f 234 301 238
f 235 298 302
f 235 302 236
f 236 302 237
f 237 300 299
f 237 302 298
f 237 298 300
f 238 301 239
f 239 301 240
f 240 301 303
f 240 303 241
f 241 304 242
f 241 303 305
f 241 305 306
f 241 306 307
f 241 307 308
f 241 308 304
f 242 304 309
f 242 309 250
f 242 250 249
f 242 249 243
f 243 249 244
f 244 246 245
f 244 249 247
f 244 247 246
f 248 252 253
f 250 309 251
f 251 309 310
f 251 310 252
f 252 310 253
f 253 311 312
f 253 312 313
f 253 313 254
f 253 310 314
f 253 314 311
f 254 313 315
f 254 315 316
f 254 316 256
f 254 256 255
f 256 316 315
f 256 315 317
f 256 317 318
f 256 318 319
f 256 319 320
f 256 320 257
f 257 321 259
f 257 259 258
f 257 320 321
f 260 322 261
f 261 322 323
f 261 323 262
f 262 324 263
f 262 323 324
f 263 324 325
f 263 325 264
f 264 325 326
f 264 326 327
f 264 327 265
f 265 327 328
f 265 328 329
f 265 329 330
f 265 330 268
f 265 268 266
f 268 330 290
f 268 290 270
f 268 270 269
f 270 290 289
f 270 289 271
f 272 276 273
f 273 276 278
f 273 278 277
f 274 331 275
f 275 332 333
f 275 333 334
f 275 334 335
f 275 335 276
f 275 331 336
f 275 336 337
f 275 337 338
f 275 338 339
f 275 339 340
f 275 340 341
f 275 341 332
f 276 335 281
f 276 281 278
f 278 281 280
f 279 281 342
f 279 342 282
f 281 335 343
f 281 343 342
f 282 342 344
f 282 344 345
f 282 345 284
f 282 284 283
f 284 345 346
f 284 346 347
f 284 347 285
f 285 348 349
f 285 349 350
f 285 350 351
f 285 351 352
f 285 352 353
f 285 353 288
f 285 288 286
f 285 347 348
f 290 330 297
f 291 296 293
f 292 293 295
f 293 296 295
f 297 330 298
f 298 354 300
f 298 330 354
f 300 354 301
f 301 355 303
f 301 354 329
f 301 329 355
f 303 355 356
f 303 356 305
f 304 308 357
f 304 357 358
f 304 358 359
f 304 359 314
f 304 314 310
f 304 310 309
f 305 356 360
f 305 360 361
f 305 361 306
f 306 361 362
f 306 362 363
f 306 363 307
f 307 363 364
f 307 364 308
f 308 364 334
f 308 334 333
f 308 333 357
f 311 314 359
f 311 359 365
f 311 365 312
f 312 365 366
f 312 366 313
f 313 366 315
f 315 341 367
f 315 367 368
f 315 368 369
f 315 369 317
f 315 366 370
f 315 370 332
f 315 332 341
f 317 371 372
f 317 372 318
f 317 369 371
f 318 372 319
f 319 372 373
f 319 373 374
f 319 374 320
f 320 374 321
f 321 374 375
f 322 376 323
f 323 376 377
f 323 377 324
f 324 378 327
f 324 327 325
f 324 377 379
f 324 379 360
f 324 360 378
f 325 327 326
f 327 329 328
f 327 378 356
f 327 356 355
f 327 355 329
f 329 354 330
f 332 370 366
f 332 366 380
f 332 380 381
f 332 381 333
f 333 381 357
f 334 364 363
f 334 363 335
f 335 363 362
f 335 362 382
f 335 382 351
f 335 351 343
f 341 369 368
f 341 368 367
f 342 343 383
f 342 383 349
f 342 349 344
f 343 349 383
f 343 351 350
f 343 350 349
f 344 349 345
f 345 349 346
f 346 349 348
f 346 348 347
f 351 382 362
f 351 362 352
f 352 362 384
f 352 384 377
f 352 377 353
f 353 377 376
f 356 378 360
f 357 385 358
f 357 381 366
f 357 366 386
f 357 386 385
f 358 385 365
f 358 365 359
f 360 379 361
f 361 379 384
f 361 384 362
f 365 385 386
f 365 386 366
f 366 381 380
f 369 373 371
f 371 373 372
f 373 375 374
f 377 384 379

