# https://github.com/mikedh/trimesh
v 0.02987376 -0.00212455 -0.05853547
v 0.02885797 -0.00212455 -0.05849761
v 0.03015803 0.00708778 -0.05916647
v 0.03054464 0.00708778 -0.05916647
v 0.03094641 -0.00212455 -0.05823890
v 0.01371581 0.02831533 -0.05852916
v 0.01371581 0.02933668 -0.05861750
v 0.02008537 0.02272631 -0.05913492
v 0.02110496 0.02168821 -0.05917278
v 0.01371771 -0.00212455 -0.05574016
v 0.01371392 -0.00212120 -0.05574016
v 0.02178721 0.02132654 -0.05920433
v 0.03050484 0.00810245 -0.05916647
v 0.03105064 0.00708778 -0.05877525
v 0.03152253 0.00302913 -0.05824521
v 0.03150927 0.00201447 -0.05821366
v 0.03148084 0.00099981 -0.05818211
v 0.03145052 -0.00001485 -0.05815056
v 0.03141830 -0.00102952 -0.05811901
v 0.03139935 -0.00161889 -0.05810008
v 0.03113403 -0.00212455 -0.05816318
v 0.02008537 0.02288035 -0.05913492
v 0.01371392 0.02129306 -0.05686964
v 0.01371392 0.02222735 -0.05690119
v 0.01371392 0.02540863 -0.05696429
v 0.01371392 0.03024754 -0.05696429
v 0.01371581 0.02941370 -0.05860488
v 0.02175878 0.02196615 -0.05917278
v 0.02036017 0.02288035 -0.05913492
v 0.01371392 -0.00212455 -0.05565813
v 0.02380174 0.01923024 -0.05917278
v 0.02269877 0.02119594 -0.05916647
v 0.02343219 0.02027505 -0.05915385
v 0.03041009 0.00872196 -0.05912861
v 0.03146000 0.00708778 -0.05827045
v 0.03150737 0.00607312 -0.05836510
v 0.03184471 0.00201447 -0.05758267
v 0.03182196 0.00099981 -0.05758267
v 0.03177648 -0.00001485 -0.05758267
v 0.03160971 -0.00199060 -0.05767101
v 0.03161160 -0.00212455 -0.05765208
v 0.03150169 -0.00212455 -0.05784137
v 0.01371392 0.03068622 -0.05659200
v 0.01371581 0.03018056 -0.05835879
v 0.01371581 0.03014707 -0.05837141
v 0.02231216 0.02183555 -0.05912861
v 0.01371392 -0.00212455 0.00525824
v 0.02328626 0.02079410 -0.05910968
v 0.02682638 0.01621974 -0.05882573
v 0.02784028 0.01520173 -0.05866167
v 0.02888829 0.01418037 -0.05839665
v 0.02957244 0.01318245 -0.05831462
v 0.03054464 0.01013177 -0.05838403
v 0.03064698 0.00908362 -0.05866167
v 0.03103927 0.00803212 -0.05852285
v 0.03141072 0.00764702 -0.05813794
v 0.03169689 0.00708778 -0.05758267
v 0.03197168 0.00646492 -0.05696429
v 0.03200958 0.00607312 -0.05696429
v 0.03179164 0.00607312 -0.05758267
v 0.03244168 0.00100316 -0.05615030
v 0.03245873 -0.00001485 -0.05616923
v 0.03211382 0.00133133 -0.05696429
v 0.03245873 -0.00102952 -0.05615030
v 0.03210434 0.00029993 -0.05696429
v 0.03206265 -0.00070469 -0.05696429
v 0.03200579 -0.00168587 -0.05696429
v 0.03198495 -0.00202744 -0.05696429
v 0.03243220 -0.00212455 -0.05610614
v 0.01371771 0.03062594 -0.05696429
v 0.01371581 0.03053553 -0.05752588
v 0.01371581 0.03049869 -0.05766470
v 0.01371392 0.03099765 -0.05454127
v 0.01409105 0.03090389 -0.05380931
v 0.01430331 0.03000978 -0.05820735
v 0.01617191 0.02886786 -0.05808115
v 0.02437976 0.02187573 -0.05813163
v 0.02475120 0.02126292 -0.05828307
v 0.02539366 0.02090795 -0.05815056
v 0.03294957 -0.00212455 0.00525824
v 0.01371392 0.03207259 0.00525824
v 0.02479858 0.02027505 -0.05863012
v 0.02581248 0.01824907 -0.05874370
v 0.02682638 0.01723441 -0.05857964
v 0.02855285 0.01520173 -0.05828307
v 0.02943788 0.01383211 -0.05818842
v 0.03044041 0.01084840 -0.05820735
v 0.03033997 0.01152484 -0.05794233
v 0.03119657 0.00908027 -0.05753850
v 0.03131217 0.00832346 -0.05784768
v 0.03149979 0.00803212 -0.05753850
v 0.03167225 0.00807566 -0.05696429
v 0.03182196 0.00747289 -0.05696429
v 0.03203801 0.00708778 -0.05656676
v 0.03190914 0.00708778 -0.05696429
v 0.03214224 0.00607312 -0.05656676
v 0.03240377 0.00345107 -0.05604935
v 0.03241514 0.00277128 -0.05607459
v 0.03264067 -0.00001485 -0.05555086
v 0.03266530 -0.00102952 -0.05555086
v 0.03243409 -0.00204418 -0.05611244
v 0.03262171 -0.00204418 -0.05555086
v 0.03260655 -0.00212455 -0.05555086
v 0.01643155 0.03007005 -0.05047765
v 0.01573603 0.03016047 -0.05247160
v 0.01537216 0.03004326 -0.05454127
v 0.01884595 0.02766567 -0.05656676
v 0.01444923 0.03009350 -0.05758267
v 0.01371392 0.03114834 -0.05348750
v 0.01371392 0.03143298 -0.05148724
v 0.01426161 0.03099765 -0.05250946
v 0.01512579 0.03091393 -0.04981510
v 0.01559958 0.03069961 -0.04946806
v 0.01824709 0.02791013 -0.05712204
v 0.02016876 0.02679835 -0.05683809
v 0.02126604 0.02587076 -0.05708418
v 0.01995650 0.02687537 -0.05696429
v 0.02227426 0.02485610 -0.05708418
v 0.02507527 0.02158440 -0.05758267
v 0.02553769 0.02108209 -0.05758267
v 0.02629005 0.01972920 -0.05803067
v 0.02645872 0.01905611 -0.05820104
v 0.02560212 0.02027505 -0.05825783
v 0.03295905 -0.00204418 0.00525824
v 0.03284723 -0.00212455 -0.04134714
v 0.01371392 0.03208598 -0.00685057
v 0.01465580 0.03156024 0.00525824
v 0.01550672 0.03112155 -0.00685057
v 0.01465580 0.03158703 -0.00888238
v 0.01406262 0.03190515 -0.00685057
v 0.02589587 0.01934075 -0.05839665
v 0.02748778 0.01723441 -0.05821997
v 0.02785165 0.01617286 -0.05835879
v 0.02735513 0.01778025 -0.05811270
v 0.02839935 0.01580785 -0.05815056
v 0.02951937 0.01399285 -0.05758267
v 0.02986808 0.01318245 -0.05758267
v 0.03028122 0.01185971 -0.05775303
v 0.03054654 0.01116987 -0.05759529
v 0.03178596 0.00810914 -0.05656676
v 0.03155096 0.00850429 -0.05696429
v 0.03087250 0.01013177 -0.05758267
v 0.03142588 0.00871526 -0.05716621
v 0.03229575 0.00704090 -0.05551931
v 0.03236397 0.00607312 -0.05578433
v 0.03237914 0.00506516 -0.05590422
v 0.03260087 0.00100316 -0.05555086
v 0.03246631 0.00506516 -0.05539942
v 0.03282449 -0.00102952 -0.05454127
v 0.03279607 -0.00204418 -0.05454127
v 0.03278091 -0.00212455 -0.05454758
v 0.01803104 0.02880089 -0.05250946
v 0.01656231 0.03014707 -0.04946806
v 0.01707021 0.02984569 -0.04946806
v 0.01978973 0.02711313 -0.05652259
v 0.01912075 0.02782976 -0.05454127
v 0.01842144 0.02784315 -0.05696429
v 0.01371392 0.03157028 -0.05047765
v 0.01521487 0.03095747 -0.04914625
v 0.01579667 0.03073310 -0.04843953
v 0.02026162 0.02688877 -0.05615030
v 0.02112770 0.02601475 -0.05696429
v 0.02127742 0.02588750 -0.05696429
v 0.02216434 0.02499004 -0.05696429
v 0.02326731 0.02381799 -0.05694536
v 0.02608159 0.02025495 -0.05765208
v 0.02535386 0.02147724 -0.05696429
v 0.02561728 0.02116581 -0.05696429
v 0.02592808 0.02075391 -0.05696429
v 0.02638860 0.01990334 -0.05734920
v 0.03296663 -0.00197051 0.00525824
v 0.03305191 -0.00102952 0.00525824
v 0.03282070 -0.00212455 -0.05243374
v 0.01406452 0.03190515 -0.00787279
v 0.01406073 0.03190515 -0.00888238
v 0.01371392 0.03207929 -0.00989829
v 0.01595208 0.03085031 0.00525824
v 0.01601462 0.03083356 -0.00685057
v 0.01548777 0.03112825 -0.00989829
v 0.01465580 0.03158703 -0.01090788
v 0.01603736 0.03080342 0.00525824
v 0.01668549 0.03044176 0.00431175
v 0.02741956 0.01790080 -0.05758267
v 0.02847705 0.01595185 -0.05758267
v 0.02983397 0.01349723 -0.05696429
v 0.02853390 0.01624988 -0.05648473
v 0.02931280 0.01460901 -0.05696429
v 0.02935639 0.01452529 -0.05696429
v 0.02954401 0.01415024 -0.05696429
v 0.03037977 0.01369481 -0.05302057
v 0.03042714 0.01178604 -0.05726717
v 0.03022815 0.01214435 -0.05759529
v 0.02996852 0.01318245 -0.05696429
v 0.03030396 0.01246918 -0.05656676
v 0.03045367 0.01186306 -0.05696429
v 0.03132544 0.00939505 -0.05675606
v 0.03117951 0.01004470 -0.05647842
v 0.03201148 0.00810914 -0.05555086
v 0.03208539 0.00810914 -0.05454127
v 0.03232038 0.00721503 -0.05454127
v 0.03242273 0.00665580 -0.05515333
v 0.03244168 0.00607312 -0.05527322
v 0.03278280 -0.00001485 -0.05454127
v 0.03266530 0.00404380 -0.05047765
v 0.03295147 0.00100316 -0.03424212
v 0.03295715 0.00100316 -0.03321990
v 0.03293820 -0.00001485 -0.03525171
v 0.03282639 -0.00204418 -0.05250946
v 0.03281881 -0.00204418 -0.05351905
v 0.03281312 -0.00212455 -0.05344333
v 0.03278848 -0.00212455 -0.05445923
v 0.01665138 0.03022075 -0.04843953
v 0.01715928 0.02989257 -0.04843953
v 0.01820729 0.02890470 -0.05098245
v 0.01371392 0.03167074 -0.04949961
v 0.01528878 0.03099765 -0.04843953
v 0.01586680 0.03077329 -0.04742994
v 0.02030900 0.02692895 -0.05555086
v 0.02081500 0.02650032 -0.05555086
v 0.02131342 0.02592434 -0.05656676
v 0.02137786 0.02599131 -0.05555086
v 0.02230647 0.02488623 -0.05656676
v 0.02188386 0.02545217 -0.05555086
v 0.02193503 0.02550575 -0.05454127
v 0.02226289 0.02585736 -0.04789688
v 0.02426226 0.02278659 -0.05656676
v 0.02523825 0.02172504 -0.05656676
v 0.02617445 0.02054629 -0.05656676
v 0.02628248 0.02022481 -0.05696429
v 0.02566656 0.02121604 -0.05656676
v 0.02643219 0.01997031 -0.05696429
v 0.02664445 0.01958186 -0.05696429
v 0.03305381 -0.00095584 0.00525824
v 0.01396218 0.03185157 -0.03829311
v 0.01371392 0.03207594 -0.01090788
v 0.01737722 0.03004326 0.00328953
v 0.01737722 0.03004326 0.00227994
v 0.01589901 0.03078333 -0.04539813
v 0.01589333 0.03078333 -0.04642034
v 0.01673477 0.03041162 0.00525824
v 0.02690219 0.01926038 -0.05656676
v 0.02784597 0.01824907 -0.05454127
v 0.02840503 0.01683256 -0.05555086
v 0.02823257 0.01751905 -0.05454127
v 0.02830459 0.01765300 -0.05375252
v 0.02937913 0.01473626 -0.05616293
v 0.02942651 0.01483337 -0.05555086
v 0.02853580 0.01728129 -0.05346226
v 0.02936966 0.01572413 -0.05305211
v 0.03041577 0.01377183 -0.05250946
v 0.03062803 0.01318245 -0.05250946
v 0.03086681 0.01216444 -0.05351905
v 0.03050295 0.01320255 -0.05343071
v 0.03040440 0.01274377 -0.05522274
v 0.03003106 0.01318245 -0.05656676
v 0.03058065 0.01150809 -0.05696429
v 0.03071710 0.01216444 -0.05454127
v 0.03108286 0.01114978 -0.05454127
v 0.03166277 0.00912046 -0.05555086
v 0.03077774 0.01114978 -0.05656676
v 0.03139556 0.00963616 -0.05607459
v 0.03150548 0.00996099 -0.05454127
v 0.03177838 0.00912046 -0.05454127
v 0.03137661 0.01059724 -0.05369573
v 0.03150548 0.01020879 -0.05342440
v 0.03139177 0.01064412 -0.05302057
v 0.03216119 0.00810914 -0.03220400
v 0.03243599 0.00670938 -0.05454127
v 0.03244168 0.00671942 -0.05351905
v 0.03248716 0.00607312 -0.05454127
v 0.03255917 0.00506516 -0.05351905
v 0.03260845 0.00404380 -0.05351905
v 0.03267857 0.00302913 -0.05250946
v 0.03262171 0.00506516 -0.05047765
v 0.03263308 0.00506516 -0.04946806
v 0.03264825 0.00506516 -0.04742994
v 0.03280365 0.00302913 -0.04033123
v 0.03289082 0.00201447 -0.03525171
v 0.03289272 0.00201447 -0.03424212
v 0.03301401 0.00100316 0.00431175
v 0.03307276 -0.00001485 0.00431175
v 0.01678594 0.03020400 -0.04748673
v 0.01718960 0.02991267 -0.04786533
v 0.01770129 0.02948068 -0.04843953
v 0.01827931 0.02896163 -0.04946806
v 0.02046251 0.02704951 -0.05250946
v 0.02036585 0.02696579 -0.05454127
v 0.01371392 0.03176786 -0.04843953
v 0.01465580 0.03130908 -0.04843953
v 0.01383521 0.03179465 -0.04742994
v 0.01465580 0.03138610 -0.04742994
v 0.01536079 0.03103449 -0.04742994
v 0.01538732 0.03105123 -0.04642034
v 0.01668549 0.03029442 -0.04642034
v 0.02097040 0.02664096 -0.05250946
v 0.02087375 0.02654385 -0.05454127
v 0.02147830 0.02608842 -0.05351905
v 0.02315929 0.02470540 -0.04946806
v 0.02432101 0.02285021 -0.05536156
v 0.02152757 0.02613531 -0.05250946
v 0.02157874 0.02617884 -0.05148724
v 0.02167918 0.02625921 -0.04946806
v 0.02172846 0.02629939 -0.04843953
v 0.02228942 0.02588750 -0.04722171
v 0.02529890 0.02179202 -0.05494510
v 0.02571583 0.02126292 -0.05555086
v 0.02622373 0.02065680 -0.05555086
v 0.02723573 0.01961870 -0.05351905
v 0.02717319 0.01948475 -0.05454127
v 0.02647389 0.02003729 -0.05656676
v 0.03306707 -0.00001485 0.00525824
v 0.01395650 0.03184822 -0.03930902
v 0.01371392 0.03196878 -0.03978226
v 0.01371392 0.03197548 -0.03829311
v 0.01737722 0.03003992 0.00431175
v 0.01788512 0.02968160 0.00431175
v 0.01788512 0.02968160 0.00328953
v 0.01851620 0.02913576 -0.02915629
v 0.01728057 0.02997964 -0.03627393
v 0.01668549 0.03030112 -0.04539813
v 0.01736774 0.03003322 0.00525824
v 0.02745367 0.01897574 -0.05454127
v 0.02809233 0.01815865 -0.05346226
v 0.02835765 0.01775681 -0.05307735
v 0.02867983 0.01723441 -0.05250946
v 0.03019973 0.01435451 -0.05148724
v 0.03045367 0.01384215 -0.05148724
v 0.03067541 0.01318245 -0.05148724
v 0.03095589 0.01216444 -0.05250946
v 0.03132923 0.01046329 -0.05454127
v 0.03142778 0.01075463 -0.02309241
v 0.03216309 0.00810914 -0.03119441
v 0.03236018 0.00725522 -0.03424212
v 0.03251369 0.00607312 -0.05250946
v 0.03250611 0.00607312 -0.05351905
v 0.03247200 0.00682658 0.00525824
v 0.03259708 0.00613340 0.00525824
v 0.03260655 0.00607312 0.00525824
v 0.03254591 0.00607312 -0.04235042
v 0.03254401 0.00607312 -0.04337263
v 0.03265962 0.00506516 -0.04539813
v 0.03258002 0.00506516 -0.05250946
v 0.03273542 0.00404380 -0.04235042
v 0.03281502 0.00302913 -0.03829311
v 0.03294578 0.00201447 0.00525824
v 0.03301401 0.00100316 0.00525824
v 0.03306328 0.00006217 0.00525824
v 0.01720476 0.02992941 -0.04718385
v 0.02124141 0.02686533 -0.04662857
v 0.02004557 0.02773934 -0.04742994
v 0.02121109 0.02684189 -0.04742994
v 0.01832858 0.02899846 -0.04843953
v 0.02111443 0.02676822 -0.04946806
v 0.01371392 0.03185157 -0.04742994
v 0.01371392 0.03190515 -0.04642034
v 0.01389206 0.03181809 -0.04642034
v 0.01371392 0.03192190 -0.04539813
v 0.01371392 0.03193194 -0.04438854
v 0.01371392 0.03194869 -0.04235042
v 0.01721613 0.02993611 -0.04642034
v 0.01726351 0.02996959 -0.03930902
v 0.01725593 0.02996624 -0.04033123
v 0.01723698 0.02995285 -0.04337263
v 0.02319530 0.02474559 -0.04843953
v 0.02165834 0.02650032 -0.04633832
v 0.02230647 0.02590090 -0.04642034
v 0.02321993 0.02476568 -0.04742994
v 0.02637913 0.02085772 -0.05047765
v 0.02595272 0.02136673 -0.05047765
v 0.02635828 0.02083428 -0.05148724
v 0.02625784 0.02071373 -0.05454127
v 0.02727174 0.01969237 -0.05250946
v 0.02762234 0.01917667 -0.05250946
v 0.02755222 0.01911639 -0.05351905
v 0.01787564 0.02968160 0.00525824
v 0.01855031 0.02917595 0.00431175
v 0.01855410 0.02917260 0.00525824
v 0.02019150 0.02785655 -0.03220400
v 0.01851051 0.02913241 -0.03017850
v 0.02813023 0.01832609 -0.05250946
v 0.02943599 0.01585473 -0.05148724
v 0.02875942 0.01723441 -0.04843953
v 0.02921046 0.01642737 -0.04337263
v 0.02947199 0.01592841 -0.04235042
v 0.02947768 0.01592841 -0.04134714
v 0.02900958 0.01723441 0.00328953
v 0.02901337 0.01723441 0.00525824
v 0.02929954 0.01657806 0.00126404
v 0.02989840 0.01520173 -0.00177736
v 0.03024711 0.01439804 -0.00076146
v 0.03046315 0.01389908 0.00024813
v 0.03046505 0.01389573 0.00126404
v 0.03073416 0.01318245 0.00525824
v 0.03105822 0.01216444 0.00525824
v 0.03127806 0.01135405 0.00525824
v 0.03142967 0.01078477 0.00525824
v 0.03271458 0.00506516 0.00525824
v 0.03286998 0.00302913 0.00525824
v 0.02083964 0.02718346 -0.04633832
v 0.02125846 0.02688207 -0.04539813
v 0.02074488 0.02727387 -0.04539813
v 0.01774488 0.02957444 -0.04337263
v 0.02074488 0.02739777 -0.03728352
v 0.02014602 0.02782306 -0.03930902
v 0.02011759 0.02779962 -0.04235042
v 0.01777141 0.02959454 -0.03930902
v 0.02541640 0.02192931 -0.05148724
v 0.02582764 0.02129306 -0.05351905
v 0.02231595 0.02591764 -0.04539813
v 0.02176636 0.02642330 -0.04539813
v 0.02325404 0.02481256 -0.04438854
v 0.02363497 0.02426672 -0.04742994
v 0.02729258 0.01971581 -0.05148724
v 0.02731533 0.01974595 -0.04946806
v 0.02764508 0.01920680 -0.05148724
v 0.02815298 0.01836962 -0.05148724
v 0.01906010 0.02877410 0.00525824
v 0.02135322 0.02694905 -0.03525171
v 0.02134943 0.02694905 -0.03627393
v 0.02074488 0.02740782 -0.03627393
v 0.01967981 0.02823161 -0.03321990
v 0.02841261 0.01786397 -0.05148724
v 0.02876700 0.01723441 -0.04742994
v 0.02815487 0.01838302 -0.05047765
v 0.02842777 0.01789076 -0.04742994
v 0.02921236 0.01643406 -0.04235042
v 0.02856612 0.01810173 0.00328953
v 0.02900579 0.01723441 0.00227994
v 0.02856991 0.01810842 0.00525824
v 0.02929954 0.01657806 0.00525824
v 0.02989840 0.01520173 -0.00076146
v 0.03046505 0.01389573 0.00227994
v 0.03046505 0.01389238 0.00431175
v 0.03046315 0.01389238 0.00525824
v 0.02128121 0.02689882 -0.04337263
v 0.02177773 0.02643334 -0.04438854
v 0.02130205 0.02691556 -0.04134714
v 0.02134185 0.02694570 -0.03728352
v 0.02183080 0.02646348 -0.03930902
v 0.02185733 0.02648023 -0.03627393
v 0.02232353 0.02592434 -0.04438854
v 0.02613465 0.02158105 -0.03321990
v 0.02326352 0.02482596 -0.04337263
v 0.02651558 0.02102181 -0.03728352
v 0.02733049 0.01976939 -0.04782116
v 0.02735323 0.01979953 -0.04539813
v 0.02736081 0.01980622 -0.04438854
v 0.02135512 0.02695909 0.00525824
v 0.02186112 0.02648357 -0.03525171
v 0.02190660 0.02651371 0.00525824
v 0.02245809 0.02603819 0.00431175
v 0.02245430 0.02603819 0.00227994
v 0.02826100 0.01861743 0.00525824
v 0.03024711 0.01439804 0.00126404
v 0.02238418 0.02597792 -0.03321990
v 0.02237660 0.02597792 -0.03424212
v 0.02336775 0.02493981 -0.02713079
v 0.02394766 0.02423993 -0.02823503
v 0.02522309 0.02271961 -0.02915629
v 0.02615740 0.02161119 -0.02915629
v 0.02654969 0.02108209 -0.03220400
v 0.02654021 0.02106199 -0.03424212
v 0.02611760 0.02155426 -0.03525171
v 0.02655348 0.02108879 -0.03119441
v 0.02655727 0.02110218 -0.02915629
v 0.02628626 0.02167481 0.00525824
v 0.02781564 0.01931061 0.00525824
v 0.02245809 0.02603819 0.00525824
v 0.02296598 0.02552584 0.00525824
v 0.02296409 0.02552249 0.00328953
v 0.02495967 0.02338936 0.00525824
v 0.02538987 0.02291384 0.00431175
v 0.02430774 0.02385148 -0.02511791
v 0.02522878 0.02272631 -0.02815300
v 0.02616308 0.02161453 -0.02815300
v 0.02584470 0.02230772 0.00525824
v 0.02624647 0.02168821 -0.00380917
v 0.02623320 0.02175518 0.00525824
v 0.02539366 0.02291384 0.00525824
f 1 2 3
f 1 3 4
f 1 4 5
f 1 5 21
f 1 21 42
f 1 42 41
f 1 41 69
f 1 69 103
f 1 103 151
f 1 151 211
f 1 211 210
f 1 210 173
f 1 173 125
f 1 125 80
f 1 80 47
f 1 47 30
f 1 30 10
f 1 10 2
f 2 6 7
f 2 7 8
f 2 8 9
f 2 9 3
f 2 10 11
f 2 11 6
f 3 9 12
f 3 12 4
f 4 12 13
f 4 13 14
f 4 14 15
f 4 15 16
f 4 16 17
f 4 17 18
f 4 18 19
f 4 19 20
f 4 20 5
f 5 20 21
f 6 11 7
f 7 22 8
f 7 11 23
f 7 23 24
f 7 24 25
f 7 25 26
f 7 26 27
f 7 27 28
f 7 28 29
f 7 29 22
f 8 22 12
f 8 12 9
f 10 30 11
f 11 30 47
f 11 47 81
f 11 81 126
f 11 126 176
f 11 176 235
f 11 235 314
f 11 314 313
f 11 313 359
f 11 359 358
f 11 358 357
f 11 357 355
f 11 355 354
f 11 354 288
f 11 288 215
f 11 215 158
f 11 158 110
f 11 110 109
f 11 109 73
f 11 73 43
f 11 43 26
f 11 26 25
f 11 25 24
f 11 24 23
f 12 31 13
f 12 22 29
f 12 29 28
f 12 28 32
f 12 32 31
f 13 31 33
f 13 33 34
f 13 34 14
f 14 35 36
f 14 36 15
f 14 34 35
f 15 37 38
f 15 38 16
f 15 36 37
f 16 38 39
f 16 39 17
f 17 39 18
f 18 39 19
f 19 39 20
f 20 39 40
f 20 40 41
f 20 41 42
f 20 42 21
f 26 43 44
f 26 44 45
f 26 45 27
f 27 45 46
f 27 46 28
f 28 46 32
f 31 32 33
f 32 46 48
f 32 48 33
f 33 48 34
f 34 48 49
f 34 49 50
f 34 50 51
f 34 51 52
f 34 52 53
f 34 53 54
f 34 54 55
f 34 55 35
f 35 55 56
f 35 56 57
f 35 57 58
f 35 58 59
f 35 59 60
f 35 60 36
f 36 60 61
f 36 61 62
f 36 62 63
f 36 63 37
f 37 63 62
f 37 62 64
f 37 64 65
f 37 65 38
f 38 65 66
f 38 66 39
f 39 66 67
f 39 67 40
f 40 67 68
f 40 68 41
f 41 68 69
f 43 70 71
f 43 71 72
f 43 72 44
f 43 73 74
f 43 74 70
f 44 46 45
f 44 72 75
f 44 75 76
f 44 76 46
f 46 76 77
f 46 77 78
f 46 78 79
f 46 79 48
f 47 80 124
f 47 124 171
f 47 171 172
f 47 172 233
f 47 233 311
f 47 311 347
f 47 347 346
f 47 346 345
f 47 345 398
f 47 398 397
f 47 397 338
f 47 338 337
f 47 337 336
f 47 336 396
f 47 396 395
f 47 395 394
f 47 394 393
f 47 393 434
f 47 434 430
f 47 430 387
f 47 387 429
f 47 429 453
f 47 453 467
f 47 467 466
f 47 466 478
f 47 478 476
f 47 476 479
f 47 479 471
f 47 471 469
f 47 469 468
f 47 468 450
f 47 450 448
f 47 448 417
f 47 417 377
f 47 377 375
f 47 375 321
f 47 321 240
f 47 240 181
f 47 181 177
f 47 177 127
f 47 127 81
f 48 82 83
f 48 83 49
f 48 79 82
f 49 83 84
f 49 84 50
f 50 84 85
f 50 85 51
f 51 85 52
f 52 85 86
f 52 86 87
f 52 87 53
f 53 55 54
f 53 87 56
f 53 56 55
f 56 87 88
f 56 88 89
f 56 89 90
f 56 90 91
f 56 91 92
f 56 92 93
f 56 93 94
f 56 94 95
f 56 95 57
f 57 95 58
f 58 95 96
f 58 96 59
f 59 96 97
f 59 97 61
f 59 61 60
f 61 97 98
f 61 98 99
f 61 99 100
f 61 100 62
f 62 100 64
f 64 100 101
f 64 101 66
f 64 66 65
f 66 101 67
f 67 101 68
f 68 101 69
f 69 101 102
f 69 102 103
f 70 74 104
f 70 104 105
f 70 105 106
f 70 106 107
f 70 107 71
f 71 108 72
f 71 107 108
f 72 108 75
f 73 109 74
f 74 109 110
f 74 110 111
f 74 111 112
f 74 112 113
f 74 113 104
f 75 108 114
f 75 114 115
f 75 115 76
f 76 116 77
f 76 115 117
f 76 117 116
f 77 116 79
f 77 79 78
f 79 116 118
f 79 118 119
f 79 119 120
f 79 120 121
f 79 121 122
f 79 122 123
f 79 123 82
f 80 125 124
f 81 127 128
f 81 128 129
f 81 129 130
f 81 130 126
f 82 123 131
f 82 131 84
f 82 84 83
f 84 131 123
f 84 123 122
f 84 122 132
f 84 132 133
f 84 133 85
f 85 133 132
f 85 132 134
f 85 134 135
f 85 135 86
f 86 135 136
f 86 136 137
f 86 137 88
f 86 88 87
f 88 137 138
f 88 138 139
f 88 139 140
f 88 140 141
f 88 141 142
f 88 142 89
f 89 143 91
f 89 91 90
f 89 142 143
f 91 143 141
f 91 141 92
f 92 141 140
f 92 140 93
f 93 140 94
f 94 140 144
f 94 144 145
f 94 145 96
f 94 96 95
f 96 145 146
f 96 146 97
f 97 146 99
f 97 99 98
f 99 147 148
f 99 148 149
f 99 149 100
f 99 146 145
f 99 145 147
f 100 149 150
f 100 150 102
f 100 102 101
f 102 150 151
f 102 151 103
f 104 152 106
f 104 106 105
f 104 113 153
f 104 153 154
f 104 154 152
f 106 152 107
f 107 155 108
f 107 152 156
f 107 156 155
f 108 155 157
f 108 157 114
f 110 158 112
f 110 112 111
f 112 158 159
f 112 159 113
f 113 159 160
f 113 160 153
f 114 157 155
f 114 155 115
f 115 155 161
f 115 161 162
f 115 162 116
f 115 116 117
f 116 162 163
f 116 163 118
f 118 120 119
f 118 163 164
f 118 164 165
f 118 165 120
f 120 166 121
f 120 165 167
f 120 167 168
f 120 168 169
f 120 169 166
f 121 166 170
f 121 170 134
f 121 134 122
f 122 134 132
f 124 125 171
f 125 172 171
f 125 173 172
f 126 130 174
f 126 174 175
f 126 175 176
f 127 177 128
f 128 178 179
f 128 179 180
f 128 180 129
f 128 177 181
f 128 181 182
f 128 182 178
f 129 174 130
f 129 180 174
f 134 170 183
f 134 183 184
f 134 184 135
f 135 184 136
f 136 185 137
f 136 184 186
f 136 186 187
f 136 187 188
f 136 188 189
f 136 189 190
f 136 190 185
f 137 191 192
f 137 192 138
f 137 185 193
f 137 193 194
f 137 194 195
f 137 195 191
f 138 192 139
f 139 192 191
f 139 191 196
f 139 196 140
f 140 196 197
f 140 197 198
f 140 198 144
f 141 143 142
f 144 198 199
f 144 199 200
f 144 200 201
f 144 201 145
f 145 201 202
f 145 202 148
f 145 148 147
f 148 202 149
f 149 203 204
f 149 204 205
f 149 205 206
f 149 206 207
f 149 207 208
f 149 208 209
f 149 209 150
f 149 202 203
f 150 209 210
f 150 210 211
f 150 211 151
f 152 154 156
f 153 160 154
f 154 160 212
f 154 212 213
f 154 213 214
f 154 214 161
f 154 161 156
f 155 156 161
f 158 215 216
f 158 216 159
f 159 216 160
f 160 216 217
f 160 217 212
f 161 218 219
f 161 219 220
f 161 220 162
f 161 214 218
f 162 220 163
f 163 220 164
f 164 220 221
f 164 221 222
f 164 222 165
f 165 222 223
f 165 223 224
f 165 224 225
f 165 225 226
f 165 226 227
f 165 227 167
f 166 169 228
f 166 228 229
f 166 229 170
f 167 227 168
f 168 227 230
f 168 230 228
f 168 228 169
f 170 184 183
f 170 229 231
f 170 231 232
f 170 232 184
f 172 173 208
f 172 208 207
f 172 207 233
f 173 210 209
f 173 209 208
f 174 180 175
f 175 180 234
f 175 234 235
f 175 235 176
f 178 182 236
f 178 236 237
f 178 237 238
f 178 238 179
f 179 238 239
f 179 239 180
f 180 239 234
f 181 240 182
f 182 240 236
f 184 232 241
f 184 241 242
f 184 242 186
f 185 190 193
f 186 242 243
f 186 243 187
f 187 243 244
f 187 244 245
f 187 245 188
f 188 246 189
f 188 245 246
f 189 246 247
f 189 247 190
f 190 248 249
f 190 249 250
f 190 250 251
f 190 251 252
f 190 252 253
f 190 253 254
f 190 254 194
f 190 194 255
f 190 255 193
f 190 247 248
f 191 195 256
f 191 256 197
f 191 197 196
f 193 255 194
f 194 254 257
f 194 257 258
f 194 258 259
f 194 259 260
f 194 260 195
f 195 260 256
f 197 256 261
f 197 261 198
f 198 261 259
f 198 259 262
f 198 262 263
f 198 263 199
f 199 263 264
f 199 264 265
f 199 265 266
f 199 266 267
f 199 267 200
f 200 268 201
f 200 267 269
f 200 269 268
f 201 270 203
f 201 203 202
f 201 268 270
f 203 270 271
f 203 271 272
f 203 272 273
f 203 273 274
f 203 274 204
f 204 274 275
f 204 275 205
f 205 275 276
f 205 276 277
f 205 277 278
f 205 278 206
f 206 278 279
f 206 279 280
f 206 280 281
f 206 281 207
f 207 281 233
f 212 217 282
f 212 282 213
f 213 282 283
f 213 283 284
f 213 284 214
f 214 284 285
f 214 285 286
f 214 286 287
f 214 287 218
f 215 288 289
f 215 289 216
f 216 289 290
f 216 290 291
f 216 291 292
f 216 292 217
f 217 292 293
f 217 293 239
f 217 239 294
f 217 294 282
f 218 287 295
f 218 295 296
f 218 296 219
f 219 221 220
f 219 296 221
f 221 223 222
f 221 296 297
f 221 297 225
f 221 225 224
f 221 224 223
f 225 298 227
f 225 227 299
f 225 299 226
f 225 297 300
f 225 300 301
f 225 301 302
f 225 302 303
f 225 303 304
f 225 304 298
f 226 299 227
f 227 305 306
f 227 306 230
f 227 298 305
f 228 230 307
f 228 307 308
f 228 308 309
f 228 309 310
f 228 310 231
f 228 231 229
f 230 306 307
f 231 310 241
f 231 241 232
f 233 281 311
f 234 312 313
f 234 313 314
f 234 314 235
f 234 239 293
f 234 293 312
f 236 240 315
f 236 315 316
f 236 316 317
f 236 317 237
f 237 317 318
f 237 318 319
f 237 319 238
f 238 319 239
f 239 319 320
f 239 320 294
f 240 321 315
f 241 310 309
f 241 309 322
f 241 322 242
f 242 322 323
f 242 323 244
f 242 244 243
f 244 323 245
f 245 323 324
f 245 324 248
f 245 248 246
f 246 248 247
f 248 324 249
f 249 324 250
f 250 324 325
f 250 325 326
f 250 326 327
f 250 327 251
f 251 327 328
f 251 328 329
f 251 329 264
f 251 264 262
f 251 262 252
f 252 262 330
f 252 330 258
f 252 258 257
f 252 257 253
f 253 257 254
f 256 260 261
f 258 330 259
f 259 330 262
f 259 261 260
f 262 264 263
f 264 329 265
f 265 329 266
f 266 329 328
f 266 328 267
f 267 331 332
f 267 332 333
f 267 333 269
f 267 328 331
f 268 269 334
f 268 334 335
f 268 335 270
f 269 333 336
f 269 336 337
f 269 337 338
f 269 338 339
f 269 339 340
f 269 340 341
f 269 341 276
f 269 276 334
f 270 335 274
f 270 274 342
f 270 342 271
f 271 342 273
f 271 273 272
f 273 342 274
f 274 335 275
f 275 335 334
f 275 334 276
f 276 341 343
f 276 343 278
f 276 278 277
f 278 343 341
f 278 341 344
f 278 344 279
f 279 344 345
f 279 345 280
f 280 345 346
f 280 346 281
f 281 346 347
f 281 347 311
f 282 294 348
f 282 348 283
f 283 348 349
f 283 349 350
f 283 350 351
f 283 351 352
f 283 352 284
f 284 352 285
f 285 352 353
f 285 353 286
f 286 353 287
f 287 353 295
f 288 354 290
f 288 290 289
f 290 354 355
f 290 355 356
f 290 356 291
f 291 356 292
f 292 356 293
f 293 356 357
f 293 357 358
f 293 358 359
f 293 359 312
f 294 360 348
f 294 320 319
f 294 319 361
f 294 361 362
f 294 362 363
f 294 363 360
f 295 353 302
f 295 302 301
f 295 301 300
f 295 300 297
f 295 297 296
f 298 304 364
f 298 364 306
f 298 306 305
f 302 353 303
f 303 353 351
f 303 351 304
f 304 349 365
f 304 365 366
f 304 366 367
f 304 367 368
f 304 368 369
f 304 369 370
f 304 370 364
f 304 351 349
f 306 364 371
f 306 371 307
f 307 371 372
f 307 372 308
f 308 372 373
f 308 373 374
f 308 374 309
f 309 374 323
f 309 323 322
f 312 359 313
f 315 321 375
f 315 375 316
f 316 376 317
f 316 375 377
f 316 377 376
f 317 376 378
f 317 378 318
f 318 378 379
f 318 379 319
f 319 379 361
f 323 374 380
f 323 380 324
f 324 380 325
f 325 380 326
f 326 380 381
f 326 381 382
f 326 382 383
f 326 383 384
f 326 384 327
f 327 384 385
f 327 385 386
f 327 386 387
f 327 387 388
f 327 388 389
f 327 389 390
f 327 390 391
f 327 391 392
f 327 392 393
f 327 393 328
f 328 393 394
f 328 394 331
f 331 394 332
f 332 394 395
f 332 395 396
f 332 396 336
f 332 336 333
f 338 397 341
f 338 341 339
f 339 341 340
f 341 397 398
f 341 398 345
f 341 345 344
f 348 360 399
f 348 399 349
f 349 351 350
f 349 399 400
f 349 400 365
f 351 353 352
f 355 357 356
f 360 401 399
f 360 363 402
f 360 402 403
f 360 403 404
f 360 404 405
f 360 405 401
f 361 379 362
f 362 379 363
f 363 379 406
f 363 406 402
f 364 370 407
f 364 407 408
f 364 408 371
f 365 409 366
f 365 400 410
f 365 410 409
f 366 409 411
f 366 411 412
f 366 412 368
f 366 368 367
f 368 413 372
f 368 372 370
f 368 370 369
f 368 412 411
f 368 411 414
f 368 414 413
f 370 372 371
f 370 371 407
f 371 408 407
f 372 413 415
f 372 415 373
f 373 380 374
f 373 415 416
f 373 416 380
f 376 377 417
f 376 417 418
f 376 418 378
f 378 418 419
f 378 419 420
f 378 420 421
f 378 421 379
f 379 421 406
f 380 416 422
f 380 422 381
f 381 422 382
f 382 423 383
f 382 422 424
f 382 424 423
f 383 423 424
f 383 424 425
f 383 425 426
f 383 426 385
f 383 385 384
f 385 426 427
f 385 427 428
f 385 428 386
f 386 428 427
f 386 427 429
f 386 429 387
f 387 430 388
f 388 430 431
f 388 431 389
f 389 431 454
f 389 454 432
f 389 432 392
f 389 392 390
f 390 392 391
f 392 432 393
f 393 432 433
f 393 433 434
f 399 401 400
f 400 401 435
f 400 435 436
f 400 436 410
f 401 405 437
f 401 437 435
f 402 406 420
f 402 420 403
f 403 420 438
f 403 438 404
f 404 438 405
f 405 438 437
f 406 421 420
f 409 410 436
f 409 436 439
f 409 439 440
f 409 440 441
f 409 441 442
f 409 442 443
f 409 443 411
f 411 443 444
f 411 444 445
f 411 445 414
f 413 414 415
f 414 445 415
f 415 445 446
f 415 446 447
f 415 447 416
f 416 447 424
f 416 424 422
f 417 448 418
f 418 449 419
f 418 448 450
f 418 450 451
f 418 451 452
f 418 452 449
f 419 440 438
f 419 438 420
f 419 449 440
f 424 447 427
f 424 427 425
f 425 427 426
f 427 447 429
f 429 447 453
f 430 434 433
f 430 433 432
f 430 432 454
f 430 454 431
f 435 437 436
f 436 437 438
f 436 438 439
f 438 440 439
f 440 449 455
f 440 455 456
f 440 456 441
f 441 456 457
f 441 457 458
f 441 458 459
f 441 459 442
f 442 459 460
f 442 460 461
f 442 461 462
f 442 462 444
f 442 444 463
f 442 463 443
f 443 463 444
f 444 462 446
f 444 446 445
f 446 462 447
f 447 462 461
f 447 461 464
f 447 464 465
f 447 465 466
f 447 466 467
f 447 467 453
f 449 452 455
f 450 468 451
f 451 468 469
f 451 469 452
f 452 469 470
f 452 470 455
f 455 457 456
f 455 470 471
f 455 471 457
f 457 471 472
f 457 472 473
f 457 473 474
f 457 474 458
f 458 474 459
f 459 474 460
f 460 464 461
f 460 474 472
f 460 472 475
f 460 475 464
f 464 475 472
f 464 472 465
f 465 472 476
f 465 476 477
f 465 477 478
f 465 478 466
f 469 471 470
f 471 479 472
f 472 479 476
f 472 474 473
f 476 478 477

