# https://github.com/mikedh/trimesh
v 0.00162247 -0.00212455 0.00525193
v -0.03356088 -0.00212455 0.00525193
v 0.00162247 -0.03033511 0.00525193
v 0.00162247 -0.00212455 -0.05568964
v -0.03353676 -0.00306327 0.00525193
v -0.03358156 -0.00212455 -0.02392020
v -0.00368777 -0.03007884 0.00525193
v -0.00057606 -0.03150995 -0.05352311
v 0.00044051 -0.03154163 -0.05352311
v 0.00145362 -0.03139189 -0.05352311
v 0.00162247 -0.03134870 -0.05352311
v 0.00162247 -0.01642132 -0.05617742
v 0.00161903 -0.02785297 -0.05913581
v -0.03020451 -0.00212455 -0.05929418
v -0.03345406 -0.00407686 0.00525193
v -0.03358156 -0.00212455 -0.03017907
v -0.03357811 -0.00212455 -0.04134113
v -0.00470088 -0.03002989 0.00525193
v -0.00158917 -0.03136886 -0.05352311
v -0.00158917 -0.03132567 -0.05453035
v -0.00057606 -0.03145812 -0.05453035
v -0.00535217 -0.02997805 0.00525193
v -0.00442865 -0.03100604 -0.05148961
v -0.00260573 -0.03124504 -0.05250319
v 0.00044051 -0.03148116 -0.05453035
v 0.00145362 -0.03134870 -0.05453035
v 0.00162247 -0.03131415 -0.05454302
v 0.00162247 -0.01726214 -0.05620276
v 0.00161903 -0.02789617 -0.05913581
v -0.00057261 -0.02842888 -0.05923084
v 0.00145707 -0.02784722 -0.05914215
v -0.02999775 -0.00509332 -0.05944622
v 0.00162247 -0.02014453 -0.05622177
v -0.03096607 -0.00212455 -0.05929418
v -0.03344372 -0.00414884 0.00525193
v -0.03349541 -0.00306327 -0.03829405
v -0.03339547 -0.00407686 -0.03525331
v -0.03357122 -0.00212455 -0.04296286
v -0.03354365 -0.00250752 -0.04033388
v -0.00493521 -0.03093693 -0.05148961
v -0.00564852 -0.03083615 -0.05148961
v -0.00431149 -0.03099740 -0.05250319
v -0.00300202 -0.03102908 -0.05622177
v -0.00312952 -0.03096861 -0.05708965
v -0.00593109 -0.02990607 0.00525193
v -0.00564852 -0.03083903 -0.05047603
v -0.00666509 -0.03071233 -0.05047603
v -0.00057606 -0.03128535 -0.05555027
v 0.00044051 -0.03125944 -0.05555027
v 0.00145362 -0.03117881 -0.05555027
v 0.00162247 -0.03115001 -0.05555027
v 0.00162247 -0.03100604 -0.05622177
v 0.00161903 -0.02832521 -0.05912948
v 0.00044051 -0.02842888 -0.05918649
v -0.00463196 -0.02842888 -0.05926251
v -0.02999775 -0.00610691 -0.05946523
v 0.00101943 -0.02895007 -0.05911047
v 0.00044051 -0.02900766 -0.05912315
v -0.00057261 -0.02907677 -0.05914848
v -0.00158573 -0.02911420 -0.05916116
v -0.00260229 -0.02914300 -0.05917382
v -0.00361885 -0.02916603 -0.05918016
v -0.03101086 -0.00509332 -0.05940822
v -0.03162080 -0.00509332 -0.05919283
v -0.03160013 -0.00407686 -0.05915482
v -0.03155877 -0.00333682 -0.05912948
v -0.03146573 -0.00212455 -0.05908514
v -0.03328176 -0.00516531 0.00525193
v -0.03348507 -0.00306327 -0.04033388
v -0.03338514 -0.00407686 -0.03728047
v -0.03321628 -0.00509044 -0.03626689
v -0.03321973 -0.00509044 -0.03525331
v -0.03323007 -0.00509044 -0.03220623
v -0.03347818 -0.00306327 -0.04134113
v -0.03353676 -0.00212455 -0.04641537
v -0.00666509 -0.03067778 -0.05148961
v -0.00463196 -0.03069505 -0.05758377
v -0.00352925 -0.03085630 -0.05748874
v -0.00260229 -0.03085343 -0.05761544
v -0.00260229 -0.03097437 -0.05710232
v -0.00767820 -0.03051076 -0.05148961
v -0.00666509 -0.02980241 0.00525193
v -0.00767820 -0.03052804 -0.04946245
v -0.00767820 -0.03053956 -0.05047603
v -0.01174100 -0.02907965 0.00525193
v -0.01242330 -0.02897310 0.00525193
v -0.00197512 -0.03097149 -0.05710232
v -0.00057261 -0.03076416 -0.05758377
v 0.00161903 -0.03064034 -0.05758377
v 0.00161903 -0.03022857 -0.05841997
v 0.00161903 -0.02937048 -0.05893943
v 0.00161903 -0.02890400 -0.05905346
v 0.00161903 -0.02867076 -0.05909780
v 0.00139848 -0.02842024 -0.05913581
v -0.00463196 -0.02917179 -0.05918016
v -0.00767475 -0.02842888 -0.05926251
v -0.02999775 -0.00712338 -0.05945255
v 0.00044051 -0.02951445 -0.05895210
v -0.00057261 -0.02958356 -0.05897111
v -0.00158573 -0.02962099 -0.05898378
v -0.00260229 -0.02964979 -0.05899645
v -0.00361885 -0.02967283 -0.05900912
v -0.03101086 -0.00610691 -0.05938287
v -0.03261324 -0.00212455 -0.05829961
v -0.03195851 -0.00212455 -0.05880006
v -0.03158289 -0.00610691 -0.05917382
v -0.03265459 -0.00212455 -0.05826160
v -0.03310946 -0.00610691 0.00525193
v -0.03336446 -0.00407686 -0.03930763
v -0.03320595 -0.00509044 -0.03728047
v -0.03257878 -0.00783750 -0.04033388
v -0.03298540 -0.00610691 -0.03728047
v -0.03248918 -0.00944426 0.00525193
v -0.03258912 -0.00893747 0.00525193
v -0.03339892 -0.00306327 -0.04844887
v -0.03346440 -0.00212455 -0.05250319
v -0.03334034 -0.00306327 -0.05352311
v -0.03336446 -0.00306327 -0.05148961
v -0.00564508 -0.03057987 -0.05656385
v -0.01012139 -0.02993774 -0.05453035
v -0.00941842 -0.02999533 -0.05555027
v -0.00927368 -0.02997229 -0.05612674
v -0.00564508 -0.03048197 -0.05758377
v -0.00564508 -0.03017674 -0.05842631
v -0.00463196 -0.03030632 -0.05848966
v -0.00161674 -0.03084479 -0.05749508
v -0.00361885 -0.03036103 -0.05850232
v -0.00260229 -0.03034663 -0.05848966
v -0.00158573 -0.03031784 -0.05847699
v 0.00145707 -0.03023145 -0.05842631
v -0.00869476 -0.03030056 -0.04641537
v -0.00869476 -0.03030920 -0.04742895
v -0.01017997 -0.02994350 -0.05352311
v -0.01293330 -0.02887520 0.00525193
v -0.00564508 -0.02915739 -0.05918016
v -0.01072099 -0.02808621 -0.05919916
v -0.00666164 -0.02911420 -0.05918016
v -0.00767475 -0.02905661 -0.05918016
v -0.03104188 -0.00705715 -0.05928152
v -0.02187904 -0.02007830 -0.05917382
v -0.02286459 -0.01926340 -0.05917382
v -0.02549731 -0.01781788 -0.05912948
v -0.00463196 -0.02967859 -0.05899645
v -0.03153465 -0.00667418 -0.05912948
v -0.03290270 -0.00212455 -0.05764712
v -0.03258567 -0.00280411 -0.05818558
v -0.03319561 -0.00407686 -0.05250319
v -0.03317838 -0.00509044 -0.03930763
v -0.03257189 -0.00780870 -0.04134113
v -0.03246851 -0.00834429 -0.04033388
v -0.03275453 -0.00712050 -0.03829405
v -0.03247195 -0.00836733 -0.03930763
v -0.03247540 -0.00949610 0.00525193
v -0.03227898 -0.00915055 -0.03829405
v -0.03345061 -0.00212455 -0.05360546
v -0.03332311 -0.00306327 -0.05453035
v -0.03317838 -0.00407686 -0.05352311
v -0.01072099 -0.02979952 -0.05453035
v -0.01072099 -0.02967859 -0.05555027
v -0.01174100 -0.02937624 -0.05555027
v -0.01229580 -0.02899326 -0.05622810
v -0.01169965 -0.02907677 -0.05654485
v -0.01072099 -0.02937336 -0.05656385
v -0.00964585 -0.02972754 -0.05650050
v -0.00821233 -0.02996078 -0.05710232
v -0.00767475 -0.03003852 -0.05733671
v -0.00675123 -0.03018250 -0.05767245
v -0.00647211 -0.03004716 -0.05828060
v -0.00919787 -0.02893855 -0.05910414
v -0.00869132 -0.02898462 -0.05914215
v -0.00564508 -0.02966707 -0.05893310
v -0.00965274 -0.03006444 -0.04337463
v -0.00965274 -0.03006732 -0.04438821
v -0.01366040 -0.02903933 -0.03829405
v -0.01416696 -0.02890975 -0.03829405
v -0.01580035 -0.02848359 -0.03525331
v -0.01299878 -0.02885793 0.00525193
v -0.01415318 -0.02890688 -0.03423339
v -0.01275067 -0.02925242 -0.03220623
v -0.01174100 -0.02951157 -0.03423339
v -0.01156181 -0.02800559 -0.05916748
v -0.01442541 -0.02693441 -0.05912315
v -0.03066971 -0.00813985 -0.05920550
v -0.01680658 -0.02538235 -0.05892676
v -0.01680658 -0.02618862 -0.05842631
v -0.01744753 -0.02598129 -0.05819825
v -0.02447041 -0.01985945 -0.05814124
v -0.02548697 -0.01884875 -0.05816024
v -0.02582812 -0.01814327 -0.05848332
v -0.02645874 -0.01778909 -0.05812857
v -0.02663793 -0.01726501 -0.05834395
v -0.02759935 -0.01594620 -0.05823626
v -0.02848841 -0.01475696 -0.05810956
v -0.03052842 -0.01073141 -0.05812223
v -0.03053877 -0.01179107 -0.05715300
v -0.03160357 -0.00690742 -0.05859735
v -0.03206533 -0.00610691 -0.05758377
v -0.03246851 -0.00533232 -0.05676657
v -0.03255121 -0.00465564 -0.05713399
v -0.03245817 -0.00407686 -0.05783716
v -0.03251675 -0.00348368 -0.05803354
v -0.03292338 -0.00212455 -0.05759010
v -0.03303365 -0.00509044 -0.04946245
v -0.03293371 -0.00610691 -0.04134113
v -0.03256500 -0.00777415 -0.04236105
v -0.03246162 -0.00831550 -0.04134113
v -0.03225141 -0.00915055 -0.04134113
v -0.03226520 -0.00915055 -0.04033388
v -0.03227898 -0.01016702 0.00525193
v -0.03341960 -0.00212455 -0.05453035
v -0.03315426 -0.00407686 -0.05453035
v -0.03334378 -0.00212455 -0.05555027
v -0.03324385 -0.00306327 -0.05555027
v -0.03297162 -0.00509044 -0.05250319
v -0.03299574 -0.00509044 -0.05148961
v -0.03301642 -0.00509044 -0.05047603
v -0.01580035 -0.02848071 -0.03626689
v -0.01174100 -0.02948854 -0.05453035
v -0.01255769 -0.02906813 -0.05555027
v -0.01236472 -0.02898462 -0.05618376
v -0.01405669 -0.02785297 -0.05785617
v -0.01337783 -0.02795952 -0.05819192
v -0.01169965 -0.02872547 -0.05753942
v -0.01065552 -0.02905085 -0.05753942
v -0.00970443 -0.02933017 -0.05758377
v -0.00714752 -0.02994638 -0.05807789
v -0.01026957 -0.02895295 -0.05814757
v -0.01275067 -0.02805742 -0.05841997
v -0.01557292 -0.02705823 -0.05838830
v -0.01477001 -0.02717629 -0.05867337
v -0.01174100 -0.02952021 -0.03525331
v -0.01174100 -0.02952309 -0.03626689
v -0.01174100 -0.02952885 -0.03930763
v -0.01725800 -0.02790769 -0.03017907
v -0.01673766 -0.02813517 -0.03525331
v -0.01377067 -0.02863332 0.00525193
v -0.01275067 -0.02925818 -0.03321981
v -0.01624488 -0.02687394 -0.05793852
v -0.01760949 -0.02608208 -0.05758377
v -0.01947031 -0.02495619 -0.05720367
v -0.02124843 -0.02373239 -0.05688060
v -0.02230290 -0.02278216 -0.05697562
v -0.02334703 -0.02178297 -0.05696295
v -0.02725820 -0.01747810 -0.05622810
v -0.02769584 -0.01627158 -0.05750141
v -0.02736503 -0.01662288 -0.05778648
v -0.02825409 -0.01540773 -0.05758377
v -0.02560758 -0.01898696 -0.05758377
v -0.02583502 -0.01930083 -0.05622810
v -0.02606934 -0.01903303 -0.05622810
v -0.02636569 -0.01869325 -0.05622810
v -0.02653110 -0.01889194 -0.05529054
v -0.02682401 -0.01835923 -0.05560095
v -0.02951876 -0.01376065 -0.05713399
v -0.03038714 -0.01242456 -0.05657019
v -0.03060079 -0.01191776 -0.05657019
v -0.03083512 -0.01118349 -0.05657019
v -0.03246851 -0.00575849 -0.05622810
v -0.03256500 -0.00541583 -0.05622810
v -0.03261324 -0.00503573 -0.05648783
v -0.03283378 -0.00407686 -0.05657019
v -0.03304054 -0.00306327 -0.05657019
v -0.03260979 -0.00407686 -0.05733037
v -0.03319216 -0.00212455 -0.05657019
v -0.03254087 -0.00765609 -0.04540179
v -0.03245473 -0.00828094 -0.04236105
v -0.03286135 -0.00610691 -0.04641537
v -0.03223418 -0.00915055 -0.04236105
v -0.03194127 -0.01016702 -0.03829405
v -0.03196540 -0.01016702 -0.03626689
v -0.03194127 -0.01118061 0.00430803
v -0.03192404 -0.01124396 0.00525193
v -0.03290959 -0.00509044 -0.05453035
v -0.03294405 -0.00509044 -0.05352311
v -0.03306121 -0.00407686 -0.05555027
v -0.03324385 -0.00212455 -0.05622810
v -0.03310946 -0.00306327 -0.05622810
v -0.03253398 -0.00763305 -0.04594025
v -0.01672043 -0.02812653 -0.03626689
v -0.01580035 -0.02846055 -0.03728047
v -0.01562116 -0.02807470 -0.05250319
v -0.01270587 -0.02911708 -0.05453035
v -0.01580035 -0.02834537 -0.04134113
v -0.01478034 -0.02830506 -0.05453035
v -0.01306770 -0.02885793 -0.05555027
v -0.01434615 -0.02795088 -0.05718467
v -0.01472176 -0.02770036 -0.05754576
v -0.01586238 -0.02715613 -0.05759644
v -0.01727178 -0.02790769 -0.03119265
v -0.01478034 -0.02826186 0.00525193
v -0.01547988 -0.02800271 0.00525193
v -0.01875355 -0.02711294 -0.02004959
v -0.01877767 -0.02712734 -0.02208309
v -0.01878112 -0.02713598 -0.02309667
v -0.01878112 -0.02714462 -0.02411025
v -0.01724421 -0.02788753 -0.03525331
v -0.01726144 -0.02789905 -0.03321981
v -0.01636204 -0.02694305 -0.05726069
v -0.01842618 -0.02586611 -0.05622810
v -0.01961504 -0.02504833 -0.05657019
v -0.01536271 -0.02795952 -0.05521452
v -0.02142073 -0.02393396 -0.05622810
v -0.02147931 -0.02388789 -0.05622810
v -0.02250965 -0.02297220 -0.05629778
v -0.02433602 -0.02072331 -0.05686159
v -0.02348487 -0.02192406 -0.05628512
v -0.02856078 -0.01558050 -0.05622810
v -0.02837814 -0.01560930 -0.05676023
v -0.02744428 -0.01775453 -0.05494846
v -0.02848152 -0.01575903 -0.05608240
v -0.02508379 -0.02042960 -0.05555027
v -0.02640705 -0.01875084 -0.05597471
v -0.02621407 -0.01954559 -0.05453035
v -0.02664482 -0.01904167 -0.05453035
v -0.02957389 -0.01386143 -0.05657019
v -0.02996329 -0.01321354 -0.05657019
v -0.03011491 -0.01298030 -0.05622810
v -0.03039403 -0.01245911 -0.05622810
v -0.03066971 -0.01201567 -0.05555027
v -0.03149674 -0.01059607 -0.05352311
v -0.03062492 -0.01195232 -0.05622810
v -0.03073863 -0.01167013 -0.05622810
v -0.03089370 -0.01118349 -0.05622810
v -0.03143472 -0.01038299 -0.05453035
v -0.03279932 -0.00509044 -0.05555027
v -0.03273729 -0.00477082 -0.05622810
v -0.03244439 -0.00824351 -0.04337463
v -0.03221006 -0.00915055 -0.04337463
v -0.03151053 -0.01065078 -0.05250319
v -0.03185513 -0.01016702 -0.04337463
v -0.03150019 -0.01163845 -0.03017907
v -0.03124864 -0.01321354 0.00328812
v -0.03164492 -0.01206462 0.00430803
v -0.03164837 -0.01207326 0.00525193
v -0.03265459 -0.00604356 -0.05453035
v -0.03188614 -0.00915055 -0.05352311
v -0.03253398 -0.00661371 -0.05401723
v -0.03232033 -0.00813697 -0.04844887
v -0.03208945 -0.00915055 -0.04742895
v -0.03215493 -0.00915055 -0.04540179
v -0.01720631 -0.02787025 -0.03728047
v -0.01669630 -0.02811501 -0.03728047
v -0.01666529 -0.02810061 -0.03829405
v -0.01616562 -0.02786161 -0.05148961
v -0.01556603 -0.02805454 -0.05352311
v -0.01651367 -0.02803151 -0.04236105
v -0.01636549 -0.02795664 -0.04641537
v -0.01546265 -0.02801711 -0.05453035
v -0.01377067 -0.02856709 -0.05555027
v -0.01426345 -0.02820716 -0.05622810
v -0.01451500 -0.02802287 -0.05657019
v -0.01502501 -0.02780690 -0.05657019
v -0.01511805 -0.02784722 -0.05622177
v -0.01520420 -0.02788177 -0.05589869
v -0.01876389 -0.02714750 -0.02613108
v -0.01595542 -0.02780690 0.00525193
v -0.01825733 -0.02684227 0.00525193
v -0.01920842 -0.02684803 -0.01700251
v -0.01924632 -0.02685955 -0.01902967
v -0.01927389 -0.02687106 -0.02106317
v -0.01928767 -0.02687682 -0.02208309
v -0.01929112 -0.02687970 -0.02309667
v -0.01928767 -0.02687970 -0.02411025
v -0.01781624 -0.02760822 -0.03220623
v -0.01781624 -0.02759670 -0.03321981
v -0.02118296 -0.02578837 -0.02916548
v -0.01909470 -0.02677028 -0.04033388
v -0.01858469 -0.02705247 -0.04033388
v -0.01781624 -0.02761686 -0.03119265
v -0.01653090 -0.02705247 -0.05622810
v -0.01714773 -0.02680483 -0.05555027
v -0.01966328 -0.02508001 -0.05622810
v -0.02145174 -0.02392244 -0.05619643
v -0.01483548 -0.02811789 -0.05555027
v -0.01597265 -0.02771476 -0.05453035
v -0.01663772 -0.02712158 -0.05555027
v -0.02353311 -0.02189239 -0.05622810
v -0.02204100 -0.02357978 -0.05555027
v -0.02261303 -0.02307299 -0.05555027
v -0.02312304 -0.02254892 -0.05555027
v -0.02410514 -0.02149790 -0.05555027
v -0.02720651 -0.01821813 -0.05458103
v -0.02749253 -0.01783804 -0.05427063
v -0.02570752 -0.02009269 -0.05453035
v -0.02633468 -0.01968956 -0.05352311
v -0.02673441 -0.01917989 -0.05352311
v -0.02998741 -0.01321354 -0.05622810
v -0.02724097 -0.01840818 -0.05352311
v -0.02933612 -0.01446613 -0.05555027
v -0.03003221 -0.01321354 -0.05555027
v -0.03040437 -0.01252822 -0.05555027
v -0.03058356 -0.01285648 -0.04946245
v -0.03121417 -0.01118061 -0.05352311
v -0.03163459 -0.01008927 -0.05352311
v -0.03251331 -0.00655324 -0.05453035
v -0.03206878 -0.00813697 -0.05453035
v -0.03157945 -0.00987619 -0.05453035
v -0.03126587 -0.01118061 -0.05250319
v -0.03060079 -0.01290544 -0.04844887
v -0.02949464 -0.01575903 -0.04134113
v -0.03034924 -0.01438262 -0.02916548
v -0.03092472 -0.01321354 -0.02613108
v -0.03094194 -0.01321354 -0.02513017
v -0.03095917 -0.01321354 -0.02411025
v -0.03106944 -0.01321354 -0.01396177
v -0.03115559 -0.01321354 -0.00584045
v -0.03116593 -0.01321354 -0.00483320
v -0.03080066 -0.01422713 0.00025371
v -0.03125553 -0.01321354 0.00430803
v -0.03077998 -0.01422713 -0.00177979
v -0.03147607 -0.01258005 0.00525193
v -0.03195506 -0.00915055 -0.05148961
v -0.01713739 -0.02783858 -0.03930763
v -0.01902233 -0.02674436 -0.04337463
v -0.01612427 -0.02783282 -0.05250319
v -0.01683414 -0.02768596 -0.04742895
v -0.01894652 -0.02671269 -0.04540179
v -0.01833659 -0.02691425 -0.04801810
v -0.01606569 -0.02778099 -0.05352311
v -0.01486649 -0.02795376 -0.05622810
v -0.01426690 -0.02820716 -0.05622177
v -0.01984592 -0.02652552 -0.02916548
v -0.01883280 -0.02657735 0.00525193
v -0.02040072 -0.02592082 -0.00076621
v -0.02050755 -0.02598129 -0.00686036
v -0.02052133 -0.02598993 -0.00787395
v -0.02055924 -0.02601297 -0.01091469
v -0.02067295 -0.02607920 -0.02208309
v -0.02068329 -0.02608496 -0.02309667
v -0.01984592 -0.02656583 -0.02309667
v -0.01984592 -0.02650824 -0.01801609
v -0.02121052 -0.02580564 -0.02613108
v -0.02187560 -0.02536220 -0.02713832
v -0.02116573 -0.02577685 -0.03017907
v -0.02046619 -0.02597554 -0.04033388
v -0.01984592 -0.02634123 -0.04033388
v -0.02061093 -0.02603889 -0.03321981
v -0.01725800 -0.02687394 -0.05476474
v -0.01781624 -0.02637867 -0.05555027
v -0.02025599 -0.02481509 -0.05555027
v -0.02153445 -0.02398004 -0.05555027
v -0.01680313 -0.02732027 -0.05352311
v -0.02211337 -0.02364889 -0.05453035
v -0.02341939 -0.02286566 -0.05212943
v -0.02336770 -0.02281959 -0.05280727
v -0.02270952 -0.02314210 -0.05453035
v -0.02330567 -0.02275624 -0.05352311
v -0.02321263 -0.02266410 -0.05453035
v -0.02583157 -0.02021075 -0.05352311
v -0.02472197 -0.02113508 -0.05453035
v -0.02545251 -0.02084425 -0.05213577
v -0.02549731 -0.02089896 -0.05148961
v -0.02554211 -0.02096231 -0.05047603
v -0.02638982 -0.01974139 -0.05250319
v -0.02676198 -0.01923460 -0.05250319
v -0.02727199 -0.01846289 -0.05250319
v -0.02859179 -0.01695115 -0.04540179
v -0.02906045 -0.01625431 -0.04438821
v -0.02756145 -0.01796186 -0.05250319
v -0.02944639 -0.01567265 -0.04337463
v -0.02947396 -0.01571872 -0.04253842
v -0.02948430 -0.01575327 -0.04186059
v -0.02921551 -0.01628598 -0.04033388
v -0.02925686 -0.01635221 -0.03728047
v -0.02952565 -0.01582238 -0.03829405
v -0.03063870 -0.01399101 -0.02309667
v -0.03059390 -0.01391902 -0.02713832
v -0.03065937 -0.01403708 -0.02004959
v -0.03072485 -0.01417530 -0.00888753
v -0.03076964 -0.01422713 -0.00279337
v -0.03052498 -0.01477424 -0.00076621
v -0.03081444 -0.01422713 0.00328812
v -0.03052154 -0.01476560 -0.00177979
v -0.03081444 -0.01422713 0.00430803
v -0.03125208 -0.01321354 0.00525193
v -0.01984592 -0.02631820 -0.04134113
v -0.01984592 -0.02628652 -0.04236105
v -0.01981491 -0.02620014 -0.04540179
v -0.01828834 -0.02688546 -0.04869593
v -0.01890862 -0.02668101 -0.04641537
v -0.01976322 -0.02617422 -0.04641537
v -0.01822976 -0.02684803 -0.04946245
v -0.01970808 -0.02611951 0.00525193
v -0.02037315 -0.02590355 0.00025371
v -0.02087971 -0.02557528 0.00025371
v -0.02093485 -0.02560120 -0.00177979
v -0.02105546 -0.02567894 -0.00990744
v -0.02107958 -0.02569910 -0.01193461
v -0.02110025 -0.02571926 -0.01396177
v -0.02116917 -0.02577973 -0.02106317
v -0.02120363 -0.02579124 -0.02411025
v -0.02121052 -0.02579700 -0.02513017
v -0.02187560 -0.02536508 -0.02613108
v -0.02245797 -0.02494755 -0.02713832
v -0.02187560 -0.02533628 -0.02814557
v -0.02113816 -0.02574805 -0.03220623
v -0.02043863 -0.02595826 -0.04134113
v -0.02110370 -0.02571350 -0.03423339
v -0.01856402 -0.02605040 -0.05453035
v -0.02032491 -0.02485828 -0.05487244
v -0.02077978 -0.02459913 -0.05453035
v -0.02002511 -0.02567607 -0.04946245
v -0.02019741 -0.02578261 -0.04742895
v -0.02160681 -0.02403474 -0.05453035
v -0.01737171 -0.02694881 -0.05352311
v -0.01814361 -0.02679044 -0.05047603
v -0.01951855 -0.02601009 -0.04946245
v -0.02217540 -0.02370360 -0.05352311
v -0.02346074 -0.02289734 -0.05148961
v -0.02409480 -0.02258923 -0.04946245
v -0.02403277 -0.02252012 -0.05047603
v -0.02465994 -0.02208244 -0.04946245
v -0.02459447 -0.02201333 -0.05047603
v -0.02450487 -0.02192406 -0.05148961
v -0.02381223 -0.02224945 -0.05352311
v -0.02516650 -0.02149790 -0.04946245
v -0.02519751 -0.02151517 -0.04844887
v -0.02678611 -0.01925188 -0.05148961
v -0.02542150 -0.02182040 -0.03446145
v -0.02730989 -0.01856367 -0.05047603
v -0.02729266 -0.01852336 -0.05148961
v -0.02862625 -0.01698570 -0.04438821
v -0.02911903 -0.01625431 -0.04337463
v -0.02922930 -0.01615352 -0.04225969
v -0.02919484 -0.01626870 -0.04134113
v -0.02867450 -0.01703465 -0.04236105
v -0.02871929 -0.01710088 -0.03930763
v -0.02929477 -0.01640692 -0.03321981
v -0.02953599 -0.01583966 -0.03728047
v -0.02874686 -0.01714120 -0.03728047
v -0.02876065 -0.01715847 -0.03626689
v -0.02860902 -0.01796474 -0.02004959
v -0.02954977 -0.01587421 -0.03525331
v -0.03040093 -0.01453236 -0.02106317
v -0.03049052 -0.01470801 -0.00686036
v -0.03023897 -0.01528967 0.00328812
v -0.03052498 -0.01477712 0.00025371
v -0.02942916 -0.01665168 -0.01294185
v -0.02942916 -0.01666320 -0.01193461
v -0.02943606 -0.01666608 -0.00888753
v -0.02972896 -0.01616504 -0.00483320
v -0.02942227 -0.01662864 -0.01497535
v -0.03052498 -0.01477712 0.00430803
v -0.03052498 -0.01477424 0.00525193
v -0.03081100 -0.01422713 0.00525193
v -0.02031802 -0.02586035 -0.04540179
v -0.02027322 -0.02583156 -0.04641537
v -0.01969085 -0.02612527 -0.04742895
v -0.02025599 -0.02577685 0.00525193
v -0.02024565 -0.02582292 0.00430803
v -0.02076255 -0.02561847 0.00115960
v -0.02152066 -0.02497058 0.00525193
v -0.02156546 -0.02501378 0.00328812
v -0.02158958 -0.02503393 0.00228087
v -0.02161026 -0.02505121 0.00126095
v -0.02164816 -0.02509440 -0.00177979
v -0.02166539 -0.02510304 -0.00279337
v -0.02245797 -0.02494467 -0.02613108
v -0.02563170 -0.02204212 -0.00686036
v -0.02563170 -0.02204500 -0.00787395
v -0.02350899 -0.02396564 -0.02713832
v -0.02454967 -0.02297508 -0.02814557
v -0.02349520 -0.02395412 -0.02814557
v -0.02418784 -0.02266122 -0.04641537
v -0.02416717 -0.02264394 -0.04742895
v -0.02414304 -0.02262666 -0.04844887
v -0.02243384 -0.02492739 -0.02814557
v -0.02142417 -0.02492451 -0.04641537
v -0.02173087 -0.02414129 -0.05250319
v -0.02125532 -0.02479206 -0.04946245
v -0.02187560 -0.02440908 -0.04844887
v -0.02358824 -0.02299236 -0.04946245
v -0.02363304 -0.02303555 -0.04844887
v -0.02468751 -0.02211699 -0.04844887
v -0.02549042 -0.02190967 -0.03017907
v -0.02591772 -0.02132512 -0.03017907
v -0.02635191 -0.02068875 -0.03119265
v -0.02732023 -0.01859823 -0.04946245
v -0.02865382 -0.01701450 -0.04337463
v -0.02756489 -0.01893513 -0.03321981
v -0.02932923 -0.01645587 -0.02916548
v -0.02902943 -0.01726214 -0.01902967
v -0.02854699 -0.01787547 -0.02513017
v -0.02858490 -0.01793018 -0.02208309
v -0.02821963 -0.01843986 -0.02208309
v -0.02822996 -0.01845713 -0.02106317
v -0.02823686 -0.01847441 -0.02004959
v -0.02861592 -0.01797913 -0.01902967
v -0.02938437 -0.01655953 -0.02106317
v -0.02943950 -0.01668047 0.00328812
v -0.03023897 -0.01528967 0.00430803
v -0.02905011 -0.01726214 -0.01700251
v -0.02907423 -0.01726214 -0.01396177
v -0.02908457 -0.01726214 -0.01193461
v -0.02909146 -0.01726214 -0.00787395
v -0.02943606 -0.01666896 -0.00787395
v -0.02941538 -0.01671791 0.00525193
v -0.02086248 -0.02537084 -0.04641537
v -0.02299209 -0.02354235 -0.04844887
v -0.02202722 -0.02462504 0.00525193
v -0.02211681 -0.02467112 0.00126095
v -0.02271986 -0.02412113 0.00525193
v -0.02319196 -0.02375831 0.00525193
v -0.02390527 -0.02340989 -0.00483320
v -0.02452210 -0.02293189 -0.00483320
v -0.02504244 -0.02254028 -0.00584045
v -0.02504934 -0.02254892 -0.00686036
v -0.02614171 -0.02142591 -0.00686036
v -0.02562481 -0.02203060 -0.00584045
v -0.02611759 -0.02143167 -0.00483320
v -0.02613482 -0.02142879 -0.00584045
v -0.02614171 -0.02142303 -0.00787395
v -0.02562481 -0.02203636 -0.00990744
v -0.02505967 -0.02245965 -0.02713832
v -0.02505623 -0.02245389 -0.02814557
v -0.02551799 -0.02194422 -0.02814557
v -0.02597285 -0.02132512 -0.02814557
v -0.02640705 -0.02076650 -0.02713832
v -0.02759246 -0.01897257 -0.03119265
v -0.02643117 -0.02080105 -0.02513017
v -0.02772685 -0.01914534 -0.02106317
v -0.02824719 -0.01848017 -0.01902967
v -0.02825064 -0.01849457 -0.01801609
v -0.02862625 -0.01799065 -0.01700251
v -0.02909490 -0.01726214 0.00228087
v -0.02943950 -0.01668047 0.00430803
v -0.02863659 -0.01801081 -0.00990744
v -0.02863659 -0.01801369 -0.00888753
v -0.02862970 -0.01799641 -0.01497535
v -0.02863659 -0.01803384 0.00228087
v -0.02909490 -0.01726214 0.00525193
v -0.02435325 -0.02285703 0.00525193
v -0.02441183 -0.02284551 0.00362386
v -0.02442906 -0.02285990 0.00228087
v -0.02438771 -0.02282823 0.00525193
v -0.02652421 -0.02092487 -0.00483320
v -0.02442561 -0.02279368 0.00525193
v -0.02559035 -0.02199605 -0.00381329
v -0.02607968 -0.02142015 -0.00279337
v -0.02610036 -0.02142879 -0.00381329
v -0.02651732 -0.02091335 -0.00279337
v -0.02652421 -0.02091623 -0.00381329
v -0.02651732 -0.02091623 -0.00787395
v -0.02695496 -0.02031154 -0.00990744
v -0.02826443 -0.01850608 -0.01497535
v -0.02825753 -0.01849745 -0.01700251
v -0.02650698 -0.02090472 -0.01091469
v -0.02613137 -0.02141727 -0.00990744
v -0.02555934 -0.02197877 -0.02208309
v -0.02553522 -0.02196150 -0.02613108
v -0.02552488 -0.02195574 -0.02713832
v -0.02603488 -0.02132512 -0.02513017
v -0.02735124 -0.01966077 -0.02004959
v -0.02737192 -0.01968956 -0.01598893
v -0.02692394 -0.02031154 -0.01396177
v -0.02827132 -0.01851472 -0.01193461
v -0.02829199 -0.01853200 -0.00279337
v -0.02830233 -0.01854064 0.00228087
v -0.02863659 -0.01803384 0.00525193
v -0.02740982 -0.01974139 0.00126095
v -0.02740982 -0.01974427 0.00025371
v -0.02779233 -0.01923460 0.00126095
v -0.02778888 -0.01923460 -0.00076621
v -0.02501143 -0.02222929 0.00525193
v -0.02548008 -0.02188951 0.00228087
v -0.02551799 -0.02192694 0.00025371
v -0.02604522 -0.02138272 -0.00076621
v -0.02650698 -0.02089608 -0.00177979
v -0.02830233 -0.01854064 0.00328812
v -0.02829889 -0.01854352 0.00430803
v -0.02831612 -0.01850608 0.00525193
v -0.02739259 -0.01972700 0.00228087
v -0.02779233 -0.01917989 0.00430803
v -0.02829199 -0.01854064 0.00525193
v -0.02542150 -0.02182616 0.00525193
v -0.02543184 -0.02183480 0.00485283
v -0.02579022 -0.02141439 0.00525193
v -0.02683090 -0.02023955 0.00525193
v -0.02778199 -0.01915973 0.00525193
f 1 2 5
f 1 5 15
f 1 15 35
f 1 35 68
f 1 68 108
f 1 108 114
f 1 114 113
f 1 113 153
f 1 153 209
f 1 209 272
f 1 272 334
f 1 334 411
f 1 411 475
f 1 475 545
f 1 545 544
f 1 544 597
f 1 597 631
f 1 631 659
f 1 659 671
f 1 671 674
f 1 674 679
f 1 679 678
f 1 678 677
f 1 677 675
f 1 675 664
f 1 664 637
f 1 637 635
f 1 635 632
f 1 632 603
f 1 603 602
f 1 602 600
f 1 600 552
f 1 552 549
f 1 549 483
f 1 483 423
f 1 423 357
f 1 357 356
f 1 356 291
f 1 291 290
f 1 290 236
f 1 236 177
f 1 177 134
f 1 134 86
f 1 86 85
f 1 85 82
f 1 82 45
f 1 45 22
f 1 22 18
f 1 18 7
f 1 7 3
f 1 3 11
f 1 11 27
f 1 27 51
f 1 51 52
f 1 52 33
f 1 33 28
f 1 28 12
f 1 12 4
f 1 4 14
f 1 14 34
f 1 34 67
f 1 67 105
f 1 105 104
f 1 104 107
f 1 107 145
f 1 145 202
f 1 202 264
f 1 264 276
f 1 276 212
f 1 212 210
f 1 210 155
f 1 155 116
f 1 116 75
f 1 75 38
f 1 38 17
f 1 17 16
f 1 16 6
f 1 6 2
f 2 6 5
f 3 7 8
f 3 8 9
f 3 9 10
f 3 10 11
f 4 12 13
f 4 13 14
f 5 6 16
f 5 16 17
f 5 17 15
f 7 18 8
f 8 19 20
f 8 20 21
f 8 21 9
f 8 18 22
f 8 22 23
f 8 23 24
f 8 24 19
f 9 21 25
f 9 25 26
f 9 26 10
f 10 26 27
f 10 27 11
f 12 28 13
f 13 29 30
f 13 30 31
f 13 31 32
f 13 32 14
f 13 28 33
f 13 33 52
f 13 52 29
f 14 32 34
f 15 17 36
f 15 36 37
f 15 37 35
f 17 38 39
f 17 39 36
f 19 24 40
f 19 40 41
f 19 41 42
f 19 42 20
f 20 42 43
f 20 43 44
f 20 44 21
f 21 44 25
f 22 45 46
f 22 46 23
f 23 46 47
f 23 47 24
f 24 47 40
f 25 44 48
f 25 48 49
f 25 49 50
f 25 50 26
f 26 50 51
f 26 51 27
f 29 52 53
f 29 53 54
f 29 54 30
f 30 55 56
f 30 56 32
f 30 32 31
f 30 54 57
f 30 57 58
f 30 58 59
f 30 59 60
f 30 60 61
f 30 61 62
f 30 62 55
f 32 56 63
f 32 63 34
f 34 63 64
f 34 64 65
f 34 65 66
f 34 66 67
f 35 37 68
f 36 39 38
f 36 38 69
f 36 69 37
f 37 69 70
f 37 70 71
f 37 71 72
f 37 72 73
f 37 73 68
f 38 74 69
f 38 75 74
f 40 47 41
f 41 76 43
f 41 43 42
f 41 47 76
f 43 76 44
f 44 77 78
f 44 78 79
f 44 79 80
f 44 80 48
f 44 76 81
f 44 81 77
f 45 82 47
f 45 47 46
f 47 83 84
f 47 84 81
f 47 81 76
f 47 82 85
f 47 85 86
f 47 86 83
f 48 80 87
f 48 87 49
f 49 52 50
f 49 87 88
f 49 88 89
f 49 89 52
f 50 52 51
f 52 89 90
f 52 90 91
f 52 91 92
f 52 92 93
f 52 93 53
f 53 93 94
f 53 94 54
f 54 94 57
f 55 62 95
f 55 95 96
f 55 96 56
f 56 97 63
f 56 96 97
f 57 94 93
f 57 93 92
f 57 92 91
f 57 91 58
f 58 91 98
f 58 98 59
f 59 98 99
f 59 99 100
f 59 100 60
f 60 100 101
f 60 101 61
f 61 101 102
f 61 102 62
f 62 102 95
f 63 97 103
f 63 103 64
f 64 104 105
f 64 105 65
f 64 103 106
f 64 106 107
f 64 107 104
f 65 105 66
f 66 105 67
f 68 73 108
f 69 74 70
f 70 74 109
f 70 109 110
f 70 110 71
f 71 110 111
f 71 111 112
f 71 112 113
f 71 113 72
f 72 113 73
f 73 113 114
f 73 114 108
f 74 75 115
f 74 115 109
f 75 116 117
f 75 117 118
f 75 118 115
f 77 81 119
f 77 119 120
f 77 120 121
f 77 121 122
f 77 122 123
f 77 123 124
f 77 124 125
f 77 125 78
f 78 125 79
f 79 88 126
f 79 126 87
f 79 87 80
f 79 125 127
f 79 127 128
f 79 128 129
f 79 129 130
f 79 130 90
f 79 90 88
f 81 120 119
f 81 84 120
f 83 86 131
f 83 131 84
f 84 131 132
f 84 132 133
f 84 133 120
f 86 134 131
f 87 126 88
f 88 90 89
f 90 130 99
f 90 99 98
f 90 98 91
f 95 135 96
f 95 102 135
f 96 136 97
f 96 135 137
f 96 137 138
f 96 138 136
f 97 139 103
f 97 136 140
f 97 140 141
f 97 141 142
f 97 142 139
f 99 130 100
f 100 130 129
f 100 129 128
f 100 128 101
f 101 128 102
f 102 128 127
f 102 127 143
f 102 143 135
f 103 139 106
f 106 139 144
f 106 144 107
f 107 144 146
f 107 146 145
f 109 115 118
f 109 118 117
f 109 117 147
f 109 147 110
f 110 148 149
f 110 149 111
f 110 147 148
f 111 149 206
f 111 206 150
f 111 150 112
f 112 150 151
f 112 151 152
f 112 152 113
f 113 152 154
f 113 154 153
f 116 155 117
f 117 155 156
f 117 156 157
f 117 157 147
f 120 133 158
f 120 158 122
f 120 122 121
f 122 158 159
f 122 159 160
f 122 160 161
f 122 161 162
f 122 162 163
f 122 163 164
f 122 164 165
f 122 165 166
f 122 166 167
f 122 167 123
f 123 167 168
f 123 168 124
f 124 168 169
f 124 169 125
f 125 169 170
f 125 170 171
f 125 171 143
f 125 143 127
f 131 172 132
f 131 134 172
f 132 172 173
f 132 173 133
f 133 173 174
f 133 174 175
f 133 175 176
f 133 176 158
f 134 177 176
f 134 176 178
f 134 178 179
f 134 179 180
f 134 180 172
f 135 143 137
f 136 138 170
f 136 170 181
f 136 181 182
f 136 182 140
f 137 143 138
f 138 143 171
f 138 171 170
f 139 183 144
f 139 142 183
f 140 182 142
f 140 142 141
f 142 182 184
f 142 184 185
f 142 185 186
f 142 186 187
f 142 187 188
f 142 188 189
f 142 189 190
f 142 190 191
f 142 191 192
f 142 192 193
f 142 193 183
f 144 183 193
f 144 193 194
f 144 194 195
f 144 195 196
f 144 196 197
f 144 197 198
f 144 198 199
f 144 199 200
f 144 200 201
f 144 201 146
f 145 146 202
f 146 201 202
f 147 157 203
f 147 203 148
f 148 203 204
f 148 204 205
f 148 205 149
f 149 205 266
f 149 266 206
f 150 206 207
f 150 207 208
f 150 208 152
f 150 152 151
f 152 208 154
f 153 154 208
f 153 208 209
f 155 210 156
f 156 211 157
f 156 210 212
f 156 212 213
f 156 213 211
f 157 211 214
f 157 214 215
f 157 215 216
f 157 216 203
f 158 176 217
f 158 217 218
f 158 218 160
f 158 160 159
f 160 219 220
f 160 220 161
f 160 218 219
f 161 220 221
f 161 221 222
f 161 222 162
f 162 222 223
f 162 223 224
f 162 224 225
f 162 225 163
f 163 225 165
f 163 165 164
f 165 225 226
f 165 226 166
f 166 226 167
f 167 226 168
f 168 226 169
f 169 181 170
f 169 226 227
f 169 227 222
f 169 222 228
f 169 228 229
f 169 229 230
f 169 230 181
f 172 180 231
f 172 231 232
f 172 232 173
f 173 232 233
f 173 233 174
f 174 233 178
f 174 178 175
f 175 178 176
f 176 234 235
f 176 235 217
f 176 177 236
f 176 236 234
f 178 233 232
f 178 232 231
f 178 231 237
f 178 237 179
f 179 237 231
f 179 231 180
f 181 230 182
f 182 230 229
f 182 229 185
f 182 185 184
f 185 229 186
f 186 229 238
f 186 238 239
f 186 239 240
f 186 240 241
f 186 241 242
f 186 242 187
f 187 242 243
f 187 243 188
f 188 190 189
f 188 243 190
f 190 244 245
f 190 245 246
f 190 246 247
f 190 247 193
f 190 193 192
f 190 192 191
f 190 243 248
f 190 248 249
f 190 249 250
f 190 250 251
f 190 251 252
f 190 252 253
f 190 253 244
f 193 247 254
f 193 254 195
f 193 195 194
f 195 254 255
f 195 255 256
f 195 256 257
f 195 257 258
f 195 258 197
f 195 197 196
f 197 258 198
f 198 258 259
f 198 259 260
f 198 260 199
f 199 260 261
f 199 261 262
f 199 262 263
f 199 263 200
f 200 263 262
f 200 262 202
f 200 202 201
f 202 262 264
f 203 265 266
f 203 266 205
f 203 205 267
f 203 267 204
f 203 216 265
f 204 267 205
f 206 266 207
f 207 266 268
f 207 268 269
f 207 269 208
f 208 269 270
f 208 270 209
f 209 271 272
f 209 270 271
f 211 273 274
f 211 274 214
f 211 213 275
f 211 275 273
f 212 276 213
f 213 276 264
f 213 264 277
f 213 277 275
f 214 274 278
f 214 278 215
f 215 278 265
f 215 265 216
f 217 235 279
f 217 279 280
f 217 280 218
f 218 281 282
f 218 282 219
f 218 280 283
f 218 283 281
f 219 282 284
f 219 284 285
f 219 285 286
f 219 286 220
f 220 286 221
f 221 286 287
f 221 287 229
f 221 229 222
f 222 229 228
f 222 227 223
f 223 227 224
f 224 227 225
f 225 227 226
f 229 287 288
f 229 288 238
f 234 289 235
f 234 236 290
f 234 290 291
f 234 291 292
f 234 292 293
f 234 293 294
f 234 294 295
f 234 295 289
f 235 296 279
f 235 289 297
f 235 297 296
f 238 298 299
f 238 299 300
f 238 300 239
f 238 288 301
f 238 301 298
f 239 300 240
f 240 300 302
f 240 302 241
f 241 302 303
f 241 303 304
f 241 304 242
f 242 304 243
f 243 305 248
f 243 304 306
f 243 306 305
f 244 307 308
f 244 308 245
f 244 253 309
f 244 309 310
f 244 310 307
f 245 308 254
f 245 254 246
f 246 254 247
f 248 305 249
f 249 305 306
f 249 306 311
f 249 311 252
f 249 252 250
f 250 252 312
f 250 312 251
f 251 312 252
f 252 311 313
f 252 313 314
f 252 314 253
f 253 314 309
f 254 308 307
f 254 307 310
f 254 310 315
f 254 315 316
f 254 316 255
f 255 316 317
f 255 317 318
f 255 318 319
f 255 319 320
f 255 320 321
f 255 321 256
f 256 321 320
f 256 320 322
f 256 322 257
f 257 322 323
f 257 323 324
f 257 324 325
f 257 325 258
f 258 325 259
f 259 325 260
f 260 326 261
f 260 325 326
f 261 326 275
f 261 275 262
f 262 277 264
f 262 275 277
f 265 327 266
f 265 278 327
f 266 327 268
f 268 327 328
f 268 328 329
f 268 329 330
f 268 330 269
f 269 331 270
f 269 330 329
f 269 329 331
f 270 331 332
f 270 332 333
f 270 333 271
f 271 333 334
f 271 334 272
f 273 335 336
f 273 336 337
f 273 337 274
f 273 275 325
f 273 325 335
f 274 337 278
f 275 326 325
f 278 338 339
f 278 339 340
f 278 340 328
f 278 328 327
f 278 337 338
f 279 296 341
f 279 341 342
f 279 342 280
f 280 342 343
f 280 343 283
f 281 344 345
f 281 345 282
f 281 283 343
f 281 343 346
f 281 346 347
f 281 347 344
f 282 345 284
f 284 348 301
f 284 301 349
f 284 349 285
f 284 345 348
f 285 349 350
f 285 350 286
f 286 351 352
f 286 352 287
f 286 350 351
f 287 352 288
f 288 352 353
f 288 353 354
f 288 354 301
f 289 355 297
f 289 295 355
f 291 356 292
f 292 356 357
f 292 357 358
f 292 358 359
f 292 359 293
f 293 359 360
f 293 360 361
f 293 361 294
f 294 361 295
f 295 361 362
f 295 362 363
f 295 363 355
f 296 297 364
f 296 364 365
f 296 365 366
f 296 366 367
f 296 367 368
f 296 368 341
f 297 355 369
f 297 369 364
f 298 370 299
f 298 301 370
f 299 370 371
f 299 371 300
f 300 371 372
f 300 372 373
f 300 373 302
f 301 354 374
f 301 374 349
f 301 348 375
f 301 375 376
f 301 376 370
f 302 373 303
f 303 373 304
f 304 377 306
f 304 373 378
f 304 378 379
f 304 379 380
f 304 380 381
f 304 381 377
f 306 377 311
f 309 314 382
f 309 382 383
f 309 383 315
f 309 315 310
f 311 377 313
f 313 377 381
f 313 381 384
f 313 384 385
f 313 385 314
f 314 385 386
f 314 386 382
f 315 383 316
f 316 387 317
f 316 383 388
f 316 388 389
f 316 389 387
f 317 387 390
f 317 390 391
f 317 391 318
f 318 391 319
f 319 391 392
f 319 392 393
f 319 393 320
f 320 394 335
f 320 335 395
f 320 395 396
f 320 396 397
f 320 397 324
f 320 324 322
f 320 393 398
f 320 398 329
f 320 329 340
f 320 340 339
f 320 339 394
f 322 324 323
f 324 397 325
f 325 397 396
f 325 396 395
f 325 395 335
f 328 340 329
f 329 398 399
f 329 399 400
f 329 400 401
f 329 401 402
f 329 402 331
f 331 402 403
f 331 403 404
f 331 404 405
f 331 405 406
f 331 406 407
f 331 407 332
f 332 408 409
f 332 409 333
f 332 407 410
f 332 410 408
f 333 409 334
f 334 409 411
f 335 394 336
f 336 394 412
f 336 412 337
f 337 412 339
f 337 339 338
f 339 412 394
f 341 413 343
f 341 343 342
f 341 368 414
f 341 414 413
f 343 413 346
f 344 415 345
f 344 347 416
f 344 416 417
f 344 417 418
f 344 418 415
f 345 415 419
f 345 419 348
f 346 413 347
f 347 413 417
f 347 417 416
f 348 419 375
f 349 374 420
f 349 420 421
f 349 421 350
f 350 421 420
f 350 420 351
f 351 420 352
f 352 420 353
f 353 420 374
f 353 374 354
f 355 422 364
f 355 364 369
f 355 363 422
f 357 423 358
f 358 423 424
f 358 424 425
f 358 425 426
f 358 426 359
f 359 426 427
f 359 427 360
f 360 427 361
f 361 428 429
f 361 429 430
f 361 430 362
f 361 427 431
f 361 431 428
f 362 430 432
f 362 432 363
f 363 432 422
f 364 422 365
f 365 422 366
f 366 422 432
f 366 432 433
f 366 433 434
f 366 434 435
f 366 435 436
f 366 436 437
f 366 437 367
f 367 436 414
f 367 414 368
f 367 437 436
f 370 376 371
f 371 376 375
f 371 375 438
f 371 438 439
f 371 439 372
f 372 439 438
f 372 438 440
f 372 440 373
f 373 440 441
f 373 441 378
f 375 419 442
f 375 442 438
f 378 441 443
f 378 443 444
f 378 444 445
f 378 445 446
f 378 446 379
f 379 446 445
f 379 445 447
f 379 447 448
f 379 448 449
f 379 449 450
f 379 450 380
f 380 450 384
f 380 384 381
f 382 386 388
f 382 388 383
f 384 450 385
f 385 449 451
f 385 451 452
f 385 452 453
f 385 453 454
f 385 454 386
f 385 450 449
f 386 454 455
f 386 455 456
f 386 456 388
f 387 389 390
f 388 456 457
f 388 457 458
f 388 458 459
f 388 459 389
f 389 459 458
f 389 458 390
f 390 458 460
f 390 460 461
f 390 461 391
f 391 461 392
f 392 461 399
f 392 399 398
f 392 398 393
f 399 461 462
f 399 462 400
f 400 462 463
f 400 463 464
f 400 464 465
f 400 465 401
f 401 465 466
f 401 466 467
f 401 467 402
f 402 467 466
f 402 466 403
f 403 466 404
f 404 466 468
f 404 468 469
f 404 469 470
f 404 470 405
f 405 470 406
f 406 470 407
f 407 470 410
f 408 471 472
f 408 472 409
f 408 410 473
f 408 473 471
f 409 472 474
f 409 474 545
f 409 545 475
f 409 475 411
f 410 470 473
f 413 414 417
f 414 436 476
f 414 476 477
f 414 477 478
f 414 478 417
f 415 418 479
f 415 479 419
f 417 478 480
f 417 480 418
f 418 480 481
f 418 481 479
f 419 479 482
f 419 482 442
f 423 483 424
f 424 483 484
f 424 484 485
f 424 485 486
f 424 486 425
f 425 487 488
f 425 488 426
f 425 486 487
f 426 488 489
f 426 489 427
f 427 489 490
f 427 490 428
f 427 428 431
f 428 490 429
f 429 491 492
f 429 492 432
f 429 432 430
f 429 490 491
f 432 492 493
f 432 493 433
f 433 493 494
f 433 494 495
f 433 495 496
f 433 496 434
f 434 496 435
f 435 497 477
f 435 477 476
f 435 476 436
f 435 496 498
f 435 498 494
f 435 494 497
f 438 442 499
f 438 499 500
f 438 500 440
f 440 500 441
f 441 500 501
f 441 501 502
f 441 502 503
f 441 503 504
f 441 504 443
f 442 505 499
f 442 482 506
f 442 506 507
f 442 507 505
f 443 504 508
f 443 508 444
f 444 508 509
f 444 509 510
f 444 510 511
f 444 511 512
f 444 512 513
f 444 513 445
f 445 513 447
f 447 513 514
f 447 514 515
f 447 515 448
f 448 515 449
f 449 515 514
f 449 514 451
f 451 514 513
f 451 513 452
f 452 513 512
f 452 512 453
f 453 512 516
f 453 516 517
f 453 517 454
f 454 518 455
f 454 517 519
f 454 519 518
f 455 518 520
f 455 520 521
f 455 521 456
f 456 521 457
f 457 522 523
f 457 523 458
f 457 521 522
f 458 523 461
f 458 461 460
f 461 523 462
f 462 523 524
f 462 524 525
f 462 525 463
f 463 525 526
f 463 526 527
f 463 527 464
f 464 528 529
f 464 529 465
f 464 527 530
f 464 530 531
f 464 531 532
f 464 532 528
f 465 529 466
f 466 529 533
f 466 533 468
f 468 533 534
f 468 534 535
f 468 535 469
f 469 535 473
f 469 473 470
f 471 536 537
f 471 537 472
f 471 473 538
f 471 538 539
f 471 539 540
f 471 540 541
f 471 541 536
f 472 537 543
f 472 543 474
f 473 535 542
f 473 542 538
f 474 543 544
f 474 544 545
f 477 497 478
f 478 546 547
f 478 547 481
f 478 481 480
f 478 497 546
f 479 481 548
f 479 548 482
f 481 547 548
f 482 548 507
f 482 507 506
f 483 549 550
f 483 550 484
f 484 551 485
f 484 550 552
f 484 552 551
f 485 551 552
f 485 552 553
f 485 553 554
f 485 554 486
f 486 554 555
f 486 555 556
f 486 556 557
f 486 557 487
f 487 557 488
f 488 557 558
f 488 558 489
f 489 558 493
f 489 493 490
f 490 493 491
f 491 493 492
f 493 558 494
f 494 558 559
f 494 559 560
f 494 560 561
f 494 561 562
f 494 562 563
f 494 563 564
f 494 564 565
f 494 565 566
f 494 566 567
f 494 567 497
f 494 498 496
f 494 496 495
f 497 567 566
f 497 566 568
f 497 568 546
f 499 505 500
f 500 505 507
f 500 507 501
f 501 507 502
f 502 507 548
f 502 548 503
f 503 548 547
f 503 547 504
f 504 569 508
f 504 547 569
f 508 569 570
f 508 570 571
f 508 571 572
f 508 572 509
f 509 572 510
f 510 512 511
f 510 572 573
f 510 573 566
f 510 566 512
f 512 566 574
f 512 574 516
f 516 574 517
f 517 574 519
f 518 519 575
f 518 575 576
f 518 576 577
f 518 577 527
f 518 527 526
f 518 526 578
f 518 578 520
f 519 574 575
f 520 578 526
f 520 526 579
f 520 579 521
f 521 579 522
f 522 579 523
f 523 579 524
f 524 579 525
f 525 579 526
f 527 577 580
f 527 580 530
f 528 581 533
f 528 533 529
f 528 532 582
f 528 582 581
f 530 580 583
f 530 583 531
f 531 583 584
f 531 584 532
f 532 584 585
f 532 585 586
f 532 586 587
f 532 587 588
f 532 588 582
f 533 581 589
f 533 589 534
f 534 589 535
f 535 589 542
f 536 590 626
f 536 626 591
f 536 591 543
f 536 543 537
f 536 541 590
f 538 542 592
f 538 592 593
f 538 593 539
f 539 593 594
f 539 594 540
f 540 594 595
f 540 595 596
f 540 596 541
f 541 596 590
f 542 589 582
f 542 582 592
f 543 591 544
f 544 591 597
f 546 568 598
f 546 598 547
f 547 598 599
f 547 599 572
f 547 572 571
f 547 571 570
f 547 570 569
f 549 552 550
f 552 600 553
f 553 600 554
f 554 600 555
f 555 601 556
f 555 600 602
f 555 602 601
f 556 601 557
f 557 601 603
f 557 603 604
f 557 604 558
f 558 604 605
f 558 605 606
f 558 606 607
f 558 607 559
f 559 608 560
f 559 607 606
f 559 606 609
f 559 609 610
f 559 610 611
f 559 611 608
f 560 608 612
f 560 612 613
f 560 613 562
f 560 562 561
f 562 613 614
f 562 614 615
f 562 615 574
f 562 574 564
f 562 564 563
f 564 574 565
f 565 574 566
f 566 573 568
f 568 573 598
f 572 599 573
f 573 599 598
f 574 615 575
f 575 615 616
f 575 616 617
f 575 617 576
f 576 617 618
f 576 618 577
f 577 618 580
f 580 618 619
f 580 619 583
f 581 582 589
f 582 588 592
f 583 619 618
f 583 618 585
f 583 585 584
f 585 618 620
f 585 620 586
f 586 620 621
f 586 621 587
f 587 622 588
f 587 621 622
f 588 622 623
f 588 623 624
f 588 624 592
f 590 625 631
f 590 631 626
f 590 596 595
f 590 595 625
f 591 626 597
f 592 624 593
f 593 624 594
f 594 627 628
f 594 628 595
f 594 624 629
f 594 629 627
f 595 628 630
f 595 630 625
f 597 626 631
f 601 602 603
f 603 632 633
f 603 633 634
f 603 634 604
f 604 634 605
f 605 634 606
f 606 634 633
f 606 633 632
f 606 632 635
f 606 635 609
f 608 611 636
f 608 636 612
f 609 635 637
f 609 637 638
f 609 638 639
f 609 639 640
f 609 640 610
f 610 640 641
f 610 641 611
f 611 641 642
f 611 642 636
f 612 643 644
f 612 644 645
f 612 645 646
f 612 646 647
f 612 647 648
f 612 648 613
f 612 636 643
f 613 648 649
f 613 649 615
f 613 615 614
f 615 649 650
f 615 650 651
f 615 651 616
f 616 651 652
f 616 652 620
f 616 620 617
f 617 620 618
f 620 652 653
f 620 653 621
f 621 653 623
f 621 623 622
f 623 653 654
f 623 654 655
f 623 655 647
f 623 647 646
f 623 646 624
f 624 646 645
f 624 645 656
f 624 656 629
f 625 630 659
f 625 659 631
f 627 657 658
f 627 658 628
f 627 629 657
f 628 658 630
f 629 656 657
f 630 658 669
f 630 669 659
f 636 644 643
f 636 642 660
f 636 660 661
f 636 661 662
f 636 662 663
f 636 663 644
f 637 664 665
f 637 665 666
f 637 666 638
f 638 666 639
f 639 666 667
f 639 667 668
f 639 668 640
f 640 668 641
f 641 668 660
f 641 660 642
f 644 663 656
f 644 656 645
f 647 655 648
f 648 655 653
f 648 653 652
f 648 652 650
f 648 650 649
f 650 652 651
f 653 655 654
f 656 663 657
f 657 663 658
f 658 663 662
f 658 662 669
f 659 669 670
f 659 670 671
f 660 662 661
f 660 668 672
f 660 672 673
f 660 673 674
f 660 674 670
f 660 670 662
f 662 670 669
f 664 675 676
f 664 676 665
f 665 676 667
f 665 667 666
f 667 676 677
f 667 677 678
f 667 678 672
f 667 672 668
f 670 674 671
f 672 678 679
f 672 679 673
f 673 679 674
f 675 677 676

