# https://github.com/mikedh/trimesh
v 0.02915100 0.10914300 -0.08126500
v -0.03430600 0.09879100 -0.04270900
v -0.03109300 0.10983200 -0.08097500
v -0.03262800 0.06887300 -0.07894800
v -0.03502700 0.02472900 -0.05597500
v -0.03334400 0.09319000 -0.06786100
v -0.00427300 0.11150800 -0.07448300
v -0.00363100 0.10927200 -0.08163600
v -0.03591000 0.08136300 -0.02790600
v -0.03599700 0.02814400 -0.03560900
v -0.03026600 0.11023800 -0.03782800
v -0.03350300 0.00428700 -0.07988200
v 0.02749500 0.00734800 -0.08209600
v 0.03431900 0.09798400 -0.03482400
v 0.02553200 -0.01289100 -0.08360100
v 0.01642000 -0.02304900 -0.08362400
v 0.03244400 0.10295800 -0.06839300
v 0.02960700 0.10834400 -0.04400400
v 0.03387800 0.09677000 -0.05436000
v 0.03329000 0.10316700 0.05710200
v -0.03138500 0.10946800 0.04349500
v -0.03639800 0.03737400 -0.01057800
v -0.03620800 0.08740300 0.01038500
v 0.02729500 0.10694300 0.07760100
v -0.01565000 0.11123200 -0.00973800
v -0.03540100 0.09736000 0.03610700
v 0.00850000 0.11135700 -0.02590300
v 0.02945600 0.10728400 0.01883800
v -0.03217400 0.06877300 0.07907500
v -0.02602800 0.11042600 0.01730300
v -0.03619600 0.07764500 0.02668500
v -0.00490600 0.11141000 0.01843800
v 0.02826800 0.07698200 0.07706600
v 0.00544400 0.11147100 0.02242900
v -0.03200000 0.10894000 0.07864200
v 0.02774600 0.04738700 0.07757700
v 0.03544700 0.09654500 0.00795500
v -0.02633700 0.10919500 0.07940600
v 0.02789900 0.03137300 0.07753700
v -0.00810400 0.10923400 0.07901200
v -0.01422200 0.11039600 0.06290900
v -0.03178800 0.09749400 0.07891400
v 0.03479900 0.09966000 0.04070600
v 0.00629300 0.11076300 0.06927700
v -0.03491000 0.08331500 0.05697200
v -0.03428200 0.10262800 0.06699300
v 0.03486900 0.09068800 -0.03038600
v 0.03513200 0.08946500 0.02580800
v -0.03422000 -0.00509900 -0.07483700
v -0.03604800 0.01470400 0.00594700
v -0.03308400 -0.10155600 -0.01862900
v -0.03579900 -0.01240100 -0.01913700
v -0.03354200 -0.10113900 -0.04698100
v 0.01336900 -0.09751900 -0.08203700
v -0.01278200 -0.10173900 -0.07628900
v 0.02634800 -0.10051600 -0.07953900
v 0.02655300 -0.04766000 -0.08209400
v 0.03018800 -0.09093600 -0.06057700
v 0.03092300 -0.08315800 -0.04629600
v -0.03449500 -0.07678800 -0.08191700
v -0.02017000 -0.09549200 -0.08198400
v -0.03402600 -0.10046300 -0.08127700
v -0.03258900 -0.10165900 0.01308700
v 0.02641900 -0.07972000 -0.08131200
v 0.02575900 -0.10049900 -0.02775000
v 0.03069800 -0.09176700 -0.01500800
v 0.03271800 -0.08129300 0.01561300
v 0.01048500 -0.10096400 0.01083900
v -0.02473600 -0.10104400 -0.07953300
v -0.03269400 0.01749400 0.07897600
v -0.03261500 -0.10122000 0.02688800
v -0.03349400 -0.03786300 0.07873900
v -0.03380500 -0.06810300 0.07817800
v -0.03356400 -0.09110500 0.07831500
v -0.03315300 -0.00444600 0.07879000
v -0.03435700 -0.09368500 0.04712600
v -0.03201200 -0.10083300 0.07473500
v -0.02990600 -0.09839100 0.08005800
v -0.01710300 -0.10038700 0.07578600
v 0.02718700 -0.04190200 0.07749300
v 0.02639300 -0.04842300 0.07755000
v -0.00873000 -0.10143400 0.03419000
v 0.00098800 -0.10100300 0.07194300
v 0.02754900 -0.00252700 0.07770400
v 0.03302600 -0.08236000 0.04728600
v 0.02796400 -0.09949700 0.07651000
v 0.02671300 -0.10032500 0.03797200
v 0.03191300 -0.09189400 0.05999200
v 0.00564600 -0.09697800 0.07993700
f 76 62 53
f 22 23 9
f 55 53 69
f 53 62 69
f 43 48 37
f 78 86 89
f 89 38 78
f 86 20 33
f 20 24 33
f 28 24 20
f 77 63 83
f 78 38 29
f 7 1 3
f 44 24 1
f 1 34 44
f 35 3 46
f 3 26 46
f 73 72 46
f 2 26 3
f 23 26 2
f 2 9 23
f 31 26 23
f 31 46 26
f 31 76 73
f 31 23 22
f 5 9 6
f 6 49 5
f 6 2 3
f 9 2 6
f 3 1 8
f 8 16 3
f 3 16 60
f 5 49 60
f 62 76 60
f 76 52 60
f 60 52 22
f 24 89 84
f 40 89 24
f 38 89 40
f 24 44 40
f 40 44 38
f 18 20 1
f 18 28 20
f 1 24 18
f 24 28 18
f 51 53 55
f 55 63 51
f 82 63 55
f 83 63 82
f 79 83 86
f 79 77 83
f 79 86 78
f 78 77 79
f 73 76 74
f 76 77 74
f 74 77 78
f 78 72 74
f 74 72 73
f 70 72 78
f 78 29 70
f 70 29 72
f 75 29 35
f 72 29 75
f 35 46 75
f 75 46 72
f 42 38 35
f 35 29 42
f 42 29 38
f 17 14 19
f 1 20 17
f 20 43 17
f 17 43 37
f 37 14 17
f 21 3 35
f 35 30 21
f 27 34 1
f 1 7 27
f 27 7 34
f 11 7 3
f 3 21 11
f 11 21 30
f 25 11 30
f 7 11 25
f 38 44 41
f 35 38 41
f 41 30 35
f 73 46 45
f 45 31 73
f 46 31 45
f 50 31 22
f 76 31 50
f 22 52 50
f 50 52 76
f 4 6 3
f 49 6 4
f 3 60 4
f 10 9 5
f 5 60 10
f 22 9 10
f 10 60 22
f 62 60 61
f 61 54 62
f 61 60 16
f 16 54 61
f 55 69 56
f 56 69 62
f 62 54 56
f 81 89 86
f 86 33 39
f 39 84 86
f 63 77 71
f 71 51 63
f 71 77 76
f 71 76 53
f 53 51 71
f 83 82 68
f 68 82 55
f 55 56 68
f 68 56 65
f 37 67 47
f 47 14 37
f 19 14 47
f 34 7 32
f 7 25 32
f 32 44 34
f 32 41 44
f 32 25 30
f 30 41 32
f 12 60 49
f 49 4 12
f 12 4 60
f 59 47 67
f 86 56 88
f 88 20 86
f 88 43 20
f 80 84 89
f 89 81 80
f 86 84 80
f 80 81 86
f 24 84 36
f 84 39 36
f 36 33 24
f 36 39 33
f 83 68 87
f 87 68 65
f 86 83 87
f 87 56 86
f 65 56 87
f 15 8 1
f 16 8 15
f 15 54 16
f 64 56 54
f 54 15 64
f 64 15 57
f 58 59 67
f 67 88 58
f 58 64 17
f 56 64 58
f 58 17 19
f 19 47 58
f 47 59 58
f 48 43 85
f 43 88 85
f 85 88 67
f 37 48 85
f 85 67 37
f 13 15 1
f 57 15 13
f 13 64 57
f 1 17 13
f 17 64 13
f 66 88 56
f 56 58 66
f 66 58 88

