# https://github.com/mikedh/trimesh
v -0.02596300 -0.03075400 -0.10649900
v -0.00025300 -0.02528400 -0.11176400
v 0.00375800 -0.02756000 -0.11090500
v -0.00664900 -0.03052400 -0.10868900
v -0.01482600 -0.02290100 -0.11174600
v -0.05160600 -0.02192600 -0.10398300
v -0.01682500 -0.03120600 -0.10520800
v -0.03991900 -0.02950100 -0.10789200
v -0.04423500 -0.02836100 -0.09920200
v 0.00229900 -0.03043900 -0.10823300
v -0.05005800 -0.02033800 -0.10941300
v -0.04617800 -0.02713500 -0.10768900
v -0.05137700 -0.01118700 -0.11164600
v -0.00323800 -0.03133300 -0.09535300
v -0.05029500 -0.00439100 -0.11188500
v 0.00963700 -0.03012500 -0.09169400
v -0.04707400 0.00806000 -0.01596900
v -0.04188400 -0.02563100 -0.11126000
v -0.02597200 -0.02910800 -0.10984600
v -0.04886600 -0.02496400 -0.09817800
v -0.04469500 -0.01454300 -0.02010800
v -0.05502100 -0.01211800 -0.10709200
v -0.05503500 -0.01125400 -0.09844100
v -0.05624300 0.00058200 -0.10739000
v -0.02669500 -0.03095900 -0.09754900
v -0.01853900 -0.02891400 -0.11053700
v -0.04131600 -0.01629000 0.00077700
v -0.04828800 -0.00229200 -0.02556000
v -0.03755100 -0.01929400 0.00607600
v 0.01770300 -0.02955200 -0.10643700
v 0.02065700 -0.02789400 -0.10956600
v 0.02350100 -0.02860500 -0.08995300
v 0.03919200 -0.01903900 -0.02694500
v 0.03373200 -0.02445600 -0.07595800
v 0.04172400 -0.01529700 -0.04548000
v 0.04233300 -0.01435400 -0.00671700
v 0.04524700 -0.00739900 0.00734900
v 0.01241800 -0.02436600 -0.11179900
v -0.01710400 0.03346500 -0.11033600
v -0.02142500 0.02928800 -0.11159600
v -0.01050600 0.03211100 -0.11124600
v 0.00317900 0.03484000 -0.10756900
v -0.05397100 -0.00046700 -0.11035700
v -0.01521000 0.03579600 -0.10737100
v -0.03355200 0.03566200 -0.10697300
v -0.05536900 0.01193400 -0.10771400
v -0.05224200 0.00871400 -0.11115600
v -0.02085000 0.03615500 -0.09766600
v -0.05614900 0.00373900 -0.09811800
v 0.01264800 0.03159300 -0.11071900
v -0.04934200 0.01800300 -0.11203100
v 0.02495400 0.02719700 -0.11205400
v 0.03472600 0.01698400 -0.11160900
v -0.05237800 0.02109500 -0.10916600
v -0.04658900 0.02876900 -0.11118000
v -0.03706400 0.02601600 -0.11158600
v -0.02925100 0.03272500 -0.11031100
v 0.02819800 0.03170900 -0.10809200
v -0.05334400 0.02246400 -0.10189000
v -0.04878400 0.03050000 -0.10754100
v -0.04676600 0.03195200 -0.09854900
v -0.03991300 0.03488100 -0.10447100
v -0.00028400 0.03250000 -0.11132000
v 0.01858600 0.03366800 -0.10488700
v 0.02469300 0.03232800 -0.08921700
v 0.00824500 0.03549800 -0.09401200
v 0.02542400 -0.02496100 -0.11118500
v 0.04412100 0.00480200 -0.06993000
v 0.03612100 -0.02294400 -0.10856100
v 0.03031400 -0.02639400 -0.10596400
v 0.04393200 0.01031400 -0.06426600
v 0.03300000 -0.02027100 -0.11176600
v 0.03907100 0.02324500 -0.10788800
v 0.03886100 -0.01136800 -0.11028200
v 0.04060400 -0.00187200 -0.10931900
v 0.04160100 -0.00753600 -0.10691700
v 0.03792700 -0.00247200 -0.11126900
v 0.04141400 0.01337200 -0.10791600
v 0.04133400 0.01828400 -0.08691100
v 0.03606500 0.02691200 -0.05017200
v 0.03484700 0.02874000 -0.10929900
v 0.03351200 -0.02481700 -0.08786100
v 0.03870800 -0.01893700 -0.10761300
v 0.04230300 0.01928400 -0.03307600
v 0.03649500 0.02706700 -0.08766800
v 0.04387000 -0.00926700 -0.04393900
v 0.04443100 -0.00791400 -0.03298200
v 0.03186100 0.02998900 -0.08812300
v 0.03574100 0.00438500 -0.11161900
v 0.04240300 -0.01435400 -0.02775100
v 0.03953600 0.00954300 -0.11056000
v 0.04186700 0.00670900 -0.10728900
v 0.03712000 -0.02193900 -0.08096900
v 0.04555500 -0.00137200 -0.02496700
v 0.03958600 -0.01882600 -0.05798100
v 0.04048800 -0.01667700 -0.07378000
v 0.04252500 0.01574000 -0.07369400
v 0.04577500 0.00669000 -0.02607600
v 0.04121800 -0.01292000 -0.08963500
v 0.04505600 0.00161300 -0.04807400
v 0.04280900 -0.01068600 -0.06506100
v 0.04290200 -0.00567100 -0.08370100
v 0.03711400 -0.02174700 -0.06068700
v 0.03985300 0.02341200 -0.04652300
v 0.04388500 -0.00002400 -0.07419200
v 0.04442800 -0.00461300 -0.05305300
v 0.04352500 0.01524600 -0.04813600
v 0.04527200 0.01201400 -0.01430500
v 0.04258000 -0.00110000 -0.09496000
v 0.04604000 0.00086200 -0.00321900
v 0.04007800 0.02306500 -0.06372900
v 0.04611200 0.00279100 0.00962700
v 0.04231100 0.01910900 -0.01195500
v 0.04311100 0.01730300 0.00023300
v -0.03592100 -0.01899000 0.01784900
v -0.04490300 0.00694500 0.00256500
v -0.03841200 -0.01473100 0.02316500
v -0.03179500 -0.02082400 0.02457800
v -0.04417100 0.01239900 0.00126300
v -0.03856100 -0.01154900 0.03026100
v -0.03397700 -0.01806400 0.03335800
v -0.04233400 0.01964100 -0.00054300
v -0.04062000 0.01818600 0.01328400
v -0.04595200 -0.00499500 -0.00479600
v -0.04312000 0.00243500 0.01876600
v -0.04273000 -0.00767200 0.01284300
v -0.03818300 0.01745500 0.02936100
v -0.03272400 0.02251200 0.04262100
v -0.00089900 -0.02471100 0.06722700
v 0.04298300 0.01532500 0.07945300
v 0.04214600 -0.00143700 0.09045500
v -0.02819700 -0.01917800 0.05350400
v -0.02670600 -0.02127000 0.03897000
v -0.02555400 0.01647900 0.10246400
v -0.02873000 0.01063900 0.10219800
v 0.00512600 -0.02499000 0.06939200
v 0.01990000 -0.02434200 0.07442100
v -0.01039500 0.02530900 0.10404600
v 0.03945800 0.00339900 0.09745000
v 0.03279900 0.02050100 0.09156800
v 0.04524100 0.00762500 0.07993200
v 0.03658700 -0.01004000 0.09546700
v 0.03253700 -0.00721300 0.10797500
v 0.02856700 -0.01157200 0.10957000
v 0.03713200 0.01369300 0.09619100
v -0.00227500 -0.02270100 0.09620600
v 0.03704100 -0.00561800 0.09971200
v 0.03595600 -0.00196900 0.10502600
v 0.00592100 -0.02355900 0.08907800
v 0.03449800 0.00359100 0.10989700
v 0.00701200 -0.02191900 0.10673300
v 0.01882300 -0.02123100 0.09533900
v -0.02749700 -0.00996700 0.10189600
v -0.01420100 -0.01924400 0.10394300
v -0.02041500 -0.01621200 0.10350400
v 0.00468600 0.02680900 0.10669900
v 0.01422800 0.02488200 0.10852400
v -0.02450300 0.02576100 0.05659600
v -0.00579800 -0.02164500 0.10516200
v 0.03257800 0.01062800 0.10953100
v 0.00499500 -0.02151500 0.10865800
v 0.00042000 -0.02228300 0.10607300
v -0.01241800 0.02820200 0.06251800
v 0.02189800 0.02165400 0.10905600
v 0.01735400 -0.01929500 0.10920800
v 0.02321200 -0.01701800 0.10744900
v 0.02888000 -0.02186300 0.07639100
v 0.03853300 -0.01753800 0.07866400
v 0.02868400 -0.02050800 0.08420500
v 0.04227300 -0.01268300 0.07903000
v -0.01860000 -0.02201700 0.05850400
v -0.00831000 -0.02393900 0.06396200
v 0.04544300 -0.00187200 0.07958800
v -0.00279400 -0.00798200 0.13698300
v 0.00320400 -0.01057900 0.13765900
v 0.01496800 -0.00496200 0.13808400
v 0.01002900 -0.00272300 0.13852000
v 0.01746800 0.00366600 0.13810900
v 0.00696000 -0.01299600 0.13022200
v -0.00272300 0.02668600 0.10647500
v 0.00948700 -0.00892900 0.13723300
v -0.00869600 -0.00426500 0.13814600
v -0.03138200 0.00392400 0.10116400
v -0.00222400 -0.00504500 0.13849500
v -0.00863400 0.01139300 0.13771300
v -0.01020100 0.00694600 0.13833400
v -0.02112300 0.02046800 0.10291500
v -0.00197300 0.01423300 0.13796400
v 0.00657200 0.01534600 0.13766100
v 0.01162900 0.00985800 0.13849500
v 0.01307300 0.01188800 0.13757700
v -0.03376700 0.02501400 0.02555400
v -0.03710800 0.02391700 0.01141300
v -0.03140200 0.02718000 0.01406800
v 0.01597200 0.02904100 0.07283700
v 0.02426000 0.02760500 0.07603300
v 0.03587300 0.02348300 0.07766700
v -0.00357900 0.02923900 0.06591800
v 0.04084800 0.01911100 0.07848900
v 0.03317200 0.02479800 0.07755400
v 0.00669000 0.02960600 0.06994900
f 66 44 48
f 73 91 81
f 201 66 48
f 195 66 201
f 40 55 41
f 41 63 40
f 55 57 41
f 56 55 40
f 13 15 5
f 5 18 13
f 13 18 11
f 11 22 13
f 6 22 11
f 170 36 37
f 37 173 170
f 168 33 170
f 170 33 36
f 69 72 74
f 61 62 60
f 134 122 127
f 24 49 46
f 44 63 39
f 63 41 39
f 39 41 57
f 98 68 71
f 91 73 78
f 78 68 92
f 78 71 68
f 196 66 195
f 196 65 66
f 108 71 107
f 98 71 108
f 112 98 108
f 48 44 45
f 44 39 45
f 45 39 57
f 45 57 55
f 55 60 45
f 45 60 62
f 134 185 187
f 192 187 158
f 62 158 163
f 131 139 150
f 131 170 173
f 66 65 64
f 55 56 51
f 51 15 13
f 13 47 51
f 51 56 40
f 43 47 13
f 43 22 24
f 13 22 43
f 24 46 43
f 43 46 47
f 70 31 69
f 18 5 2
f 2 5 15
f 20 27 6
f 23 22 6
f 23 49 24
f 24 22 23
f 6 11 12
f 12 8 9
f 18 8 12
f 12 11 18
f 9 20 12
f 12 20 6
f 37 36 90
f 69 74 83
f 83 74 76
f 37 90 86
f 86 90 35
f 168 170 142
f 109 76 92
f 37 94 110
f 112 173 110
f 110 173 37
f 110 98 112
f 110 94 98
f 76 109 105
f 92 68 105
f 105 109 92
f 75 74 91
f 76 74 75
f 92 76 75
f 75 78 92
f 91 78 75
f 103 33 168
f 168 34 103
f 167 137 32
f 167 34 168
f 32 34 167
f 16 137 14
f 32 137 16
f 183 122 119
f 59 122 61
f 61 60 59
f 119 122 59
f 59 17 119
f 59 46 49
f 49 17 59
f 107 71 97
f 71 78 97
f 111 73 81
f 85 111 81
f 104 111 85
f 65 196 200
f 112 108 141
f 141 173 112
f 141 131 173
f 139 131 141
f 150 139 141
f 141 145 150
f 198 201 48
f 48 45 198
f 180 201 198
f 198 163 180
f 198 45 62
f 62 163 198
f 158 187 138
f 180 163 138
f 138 163 158
f 138 187 185
f 128 122 134
f 134 187 128
f 187 192 128
f 61 122 193
f 193 192 61
f 122 128 193
f 193 128 192
f 61 192 194
f 194 192 158
f 194 62 61
f 194 158 62
f 148 131 150
f 42 63 44
f 42 50 63
f 44 66 42
f 66 64 42
f 40 63 52
f 63 50 52
f 52 51 40
f 52 50 81
f 52 89 72
f 77 74 72
f 72 89 77
f 91 74 77
f 82 34 32
f 32 70 82
f 82 70 69
f 82 103 34
f 67 72 69
f 69 31 67
f 9 8 25
f 14 137 136
f 136 25 14
f 129 25 136
f 18 2 26
f 115 20 9
f 6 27 21
f 21 23 6
f 35 90 95
f 36 33 95
f 95 90 36
f 69 83 95
f 95 83 35
f 87 94 37
f 37 86 87
f 99 83 76
f 35 83 96
f 96 86 35
f 94 87 106
f 106 87 86
f 98 94 100
f 100 68 98
f 100 105 68
f 94 106 100
f 100 106 105
f 159 171 9
f 32 16 30
f 30 10 31
f 14 10 30
f 30 16 14
f 30 70 32
f 31 70 30
f 143 148 176
f 175 184 182
f 177 184 175
f 175 176 177
f 186 183 182
f 182 184 186
f 153 155 182
f 182 183 153
f 134 127 135
f 183 186 135
f 135 185 134
f 135 186 185
f 54 59 60
f 46 59 54
f 54 60 55
f 55 51 54
f 47 46 54
f 54 51 47
f 79 78 73
f 79 97 78
f 79 73 107
f 107 97 79
f 107 73 84
f 73 111 84
f 84 108 107
f 84 114 108
f 84 111 104
f 65 200 88
f 108 114 130
f 130 141 108
f 199 145 130
f 145 141 130
f 170 131 147
f 131 148 147
f 147 142 170
f 143 142 147
f 147 148 143
f 81 50 58
f 50 42 58
f 58 42 64
f 58 64 65
f 58 88 81
f 65 88 58
f 81 91 53
f 53 52 81
f 89 52 53
f 91 77 53
f 53 77 89
f 72 67 38
f 38 52 72
f 51 52 38
f 15 51 38
f 38 2 15
f 7 10 14
f 14 25 7
f 129 136 162
f 162 146 129
f 162 159 146
f 162 175 159
f 19 8 18
f 18 26 19
f 3 26 2
f 2 38 3
f 3 38 67
f 3 67 31
f 31 10 3
f 27 20 29
f 29 115 27
f 20 115 29
f 118 115 9
f 23 21 124
f 183 125 124
f 124 125 17
f 33 103 93
f 93 95 33
f 69 95 93
f 93 82 69
f 103 82 93
f 101 96 83
f 86 96 101
f 83 99 101
f 101 99 76
f 76 106 101
f 101 106 86
f 76 105 102
f 102 106 76
f 105 106 102
f 137 167 152
f 167 165 152
f 169 167 168
f 168 165 169
f 169 165 167
f 168 142 144
f 144 142 143
f 143 176 144
f 172 25 129
f 129 146 172
f 146 159 172
f 9 25 172
f 172 159 9
f 181 175 179
f 176 175 181
f 179 165 181
f 182 155 174
f 174 175 182
f 155 153 121
f 27 115 121
f 122 183 123
f 183 135 123
f 123 127 122
f 123 135 127
f 119 17 116
f 17 125 116
f 116 183 119
f 116 125 183
f 150 145 160
f 190 184 177
f 190 186 184
f 189 190 191
f 80 88 200
f 200 197 80
f 81 88 80
f 80 85 81
f 104 85 80
f 199 104 80
f 80 197 199
f 114 84 113
f 113 84 104
f 199 130 113
f 113 130 114
f 113 104 199
f 1 25 8
f 1 7 25
f 149 136 137
f 137 162 149
f 149 162 136
f 151 162 137
f 137 152 151
f 151 152 165
f 151 165 179
f 9 171 133
f 133 118 9
f 49 23 28
f 23 124 28
f 28 17 49
f 28 124 17
f 183 124 126
f 120 153 126
f 126 153 183
f 126 27 120
f 126 21 27
f 126 124 21
f 166 165 168
f 168 144 166
f 166 144 176
f 166 181 165
f 176 181 166
f 27 121 117
f 117 121 153
f 120 27 117
f 117 153 120
f 150 160 178
f 178 160 191
f 178 148 150
f 178 176 148
f 191 190 178
f 177 176 178
f 178 190 177
f 188 189 180
f 180 138 188
f 188 138 185
f 185 186 188
f 186 190 188
f 190 189 188
f 157 200 196
f 10 7 4
f 7 1 4
f 4 3 10
f 26 3 4
f 4 19 26
f 8 19 4
f 4 1 8
f 175 162 161
f 162 151 161
f 179 175 161
f 161 151 179
f 171 159 154
f 154 133 171
f 159 175 154
f 154 174 155
f 175 174 154
f 180 189 156
f 189 157 156
f 195 201 156
f 156 201 180
f 156 196 195
f 156 157 196
f 140 145 199
f 199 197 140
f 164 189 191
f 164 157 189
f 191 160 164
f 164 140 197
f 164 160 145
f 145 140 164
f 164 197 200
f 200 157 164
f 118 133 132
f 133 154 132
f 132 154 155
f 155 121 132
f 115 118 132
f 132 121 115

