# https://github.com/mikedh/trimesh
v -0.04178940 -0.00572094 0.01205100
v -0.04174297 -0.00161737 -0.01661052
v -0.04134623 -0.00862846 0.00999143
v -0.04000265 -0.01362121 0.00982220
v -0.03876319 -0.01671757 0.01183706
v -0.03692018 0.01950245 0.01100365
v -0.04156852 0.00472880 0.01155287
v -0.04215800 0.00036950 0.01147624
v -0.04120976 -0.00105082 -0.01963761
v -0.04120695 -0.00145213 -0.01972701
v -0.04081161 -0.00799109 -0.01783987
v -0.04180768 0.00344226 -0.00478956
v -0.04124212 0.00509864 -0.01822944
v -0.04011661 -0.01214187 -0.01189108
v -0.03779244 -0.02001460 0.01108668
v -0.03589597 -0.02069131 0.01123675
v -0.02778670 -0.00105082 0.00876208
v -0.03537823 0.01950245 0.01031075
v -0.03693425 0.01950245 0.01085996
v -0.03715653 0.01912081 0.01093979
v -0.03927530 0.01490708 0.01085358
v -0.02778670 -0.01932214 0.00915164
v -0.02778670 -0.01073730 0.00899837
v -0.04148129 0.00669207 0.00852898
v -0.03879274 0.01079957 -0.02038799
v -0.03945256 -0.00609865 -0.02036244
v -0.03873787 -0.01454579 -0.01862858
v -0.04127026 0.00752222 -0.00857342
v -0.03996045 0.01208219 -0.01699689
v -0.03820325 -0.01743363 -0.01109279
v -0.03726908 -0.02069131 0.01075778
v -0.03648686 -0.02069131 -0.00835309
v -0.02778670 -0.02069131 0.00914845
v -0.02778670 -0.02038836 0.00915164
v -0.02778670 -0.00105082 -0.01825498
v -0.03398964 0.01950245 0.00958591
v -0.03693003 0.01950245 0.00839487
v -0.03762221 0.01791296 -0.01551847
v -0.03677949 0.01950245 -0.01268297
v -0.03881947 0.01561527 -0.00150064
v -0.04043457 0.01104744 -0.00667031
v -0.03793595 0.01596543 -0.01888722
v -0.03602540 0.01950245 -0.01899259
v -0.03424992 0.01950245 -0.02048059
v -0.03833550 0.00607437 -0.02051891
v -0.03538245 -0.01694183 -0.02053807
v -0.03812165 -0.00082656 -0.02050294
v -0.03451863 -0.02069131 -0.02001439
v -0.03505184 -0.02069131 -0.01958332
v -0.03616046 -0.02069131 -0.01399854
v -0.02778670 -0.02069131 -0.01851043
v -0.03398964 0.01950245 -0.02049656
v -0.02778670 -0.00833732 -0.01865093
v -0.03662192 0.01950245 -0.01569729
v -0.03655157 0.01950245 -0.01655304
v -0.03467198 0.01368742 -0.02057000
v -0.03308502 -0.02069131 -0.02056361
v -0.02943275 -0.02069131 -0.01998566
v -0.02973242 -0.02069131 -0.02024430
v -0.03398964 0.01924278 -0.02049975
v -0.02988436 -0.02069131 -0.02026984
f 1 2 3
f 1 3 4
f 1 4 5
f 1 5 6
f 1 6 7
f 1 7 8
f 1 8 2
f 2 9 10
f 2 10 11
f 2 11 3
f 2 8 12
f 2 12 13
f 2 13 9
f 3 11 14
f 3 14 4
f 4 15 5
f 4 14 15
f 5 15 16
f 5 16 6
f 6 17 18
f 6 18 36
f 6 36 52
f 6 52 44
f 6 44 43
f 6 43 55
f 6 55 54
f 6 54 39
f 6 39 37
f 6 37 19
f 6 19 20
f 6 20 21
f 6 21 7
f 6 16 22
f 6 22 23
f 6 23 17
f 7 21 24
f 7 24 8
f 8 24 12
f 9 13 25
f 9 25 10
f 10 26 27
f 10 27 11
f 10 25 26
f 11 27 14
f 12 24 28
f 12 28 13
f 13 28 29
f 13 29 25
f 14 27 30
f 14 30 15
f 15 31 16
f 15 30 32
f 15 32 31
f 16 31 32
f 16 32 50
f 16 50 49
f 16 49 48
f 16 48 57
f 16 57 61
f 16 61 59
f 16 59 58
f 16 58 51
f 16 51 33
f 16 33 34
f 16 34 22
f 17 35 52
f 17 52 36
f 17 36 18
f 17 23 22
f 17 22 34
f 17 34 33
f 17 33 51
f 17 51 53
f 17 53 35
f 19 37 20
f 20 38 21
f 20 37 39
f 20 39 38
f 21 38 40
f 21 40 29
f 21 29 41
f 21 41 24
f 24 41 28
f 25 29 42
f 25 42 43
f 25 43 44
f 25 44 45
f 25 45 26
f 26 46 27
f 26 45 47
f 26 47 46
f 27 46 48
f 27 48 49
f 27 49 50
f 27 50 30
f 28 41 29
f 29 40 38
f 29 38 42
f 30 50 32
f 35 53 52
f 38 39 54
f 38 54 55
f 38 55 42
f 42 55 43
f 44 52 45
f 45 52 56
f 45 56 46
f 45 46 47
f 46 57 48
f 46 56 57
f 51 58 53
f 52 53 59
f 52 59 60
f 52 60 56
f 53 58 59
f 56 60 57
f 57 60 61
f 59 61 60

