# https://github.com/mikedh/trimesh
v 0.02214508 -0.03611499 0.01029943
v 0.02459296 -0.03501669 0.01156882
v 0.02214508 -0.03545516 0.01171872
v 0.02214508 -0.03591278 0.00966793
v 0.02214680 -0.03570632 -0.01649160
v 0.02214680 -0.03572335 -0.01617904
v 0.03064899 -0.02933575 0.01187500
v 0.02231205 -0.03563395 -0.01645971
v 0.02835431 -0.03103215 -0.01341063
v 0.02214680 -0.01437247 0.00884825
v 0.02214508 -0.03309892 0.00966793
v 0.02214680 -0.03120031 -0.02064740
v 0.02214680 -0.03256679 -0.02060275
v 0.02214680 -0.03349056 -0.02029338
v 0.02214680 -0.03479107 -0.01892193
v 0.02214680 -0.03484428 -0.01881349
v 0.02214680 -0.03542536 -0.01731766
v 0.03268545 -0.02677092 0.00699201
v 0.03531753 -0.02324827 0.00966793
v 0.03582880 -0.02253948 0.00966793
v 0.03402817 -0.02411882 0.01134556
v 0.03107246 -0.02842263 -0.00589639
v 0.02881737 -0.03042766 -0.01736550
v 0.02214680 -0.01437247 -0.01831275
v 0.03523490 -0.01437247 0.00958182
v 0.03401784 -0.01437247 -0.02057085
v 0.02412473 -0.03054899 -0.02070800
v 0.03045618 -0.02594081 -0.02063464
v 0.02810642 -0.02981679 -0.01979583
v 0.03501628 -0.02320357 -0.01122270
v 0.03598717 -0.02227130 0.00966793
v 0.03889468 -0.01662229 0.00966793
v 0.03972958 -0.01437247 0.00966793
v 0.03694085 -0.01437247 0.00966793
v 0.03225681 -0.02651125 -0.01742929
v 0.03786010 -0.01437247 -0.02001271
v 0.03490438 -0.01947872 -0.02055810
v 0.03393866 -0.01460022 -0.02057404
v 0.02899124 -0.02395493 -0.02068567
v 0.03809937 -0.01766312 -0.00336081
v 0.03606119 -0.02078987 -0.01726982
v 0.03916150 -0.01437247 -0.01605146
v 0.03814241 -0.01437247 -0.01997125
v 0.03802707 -0.01475773 -0.01997762
v 0.03914085 -0.01437247 -0.01659366
v 0.03889640 -0.01437247 -0.01747075
f 1 2 3
f 1 3 11
f 1 11 4
f 1 4 5
f 1 5 6
f 1 6 2
f 2 7 3
f 2 6 8
f 2 8 9
f 2 9 7
f 3 7 10
f 3 10 11
f 4 11 12
f 4 12 13
f 4 13 14
f 4 14 15
f 4 15 16
f 4 16 17
f 4 17 5
f 5 17 8
f 5 8 6
f 7 18 19
f 7 19 20
f 7 20 21
f 7 21 10
f 7 9 22
f 7 22 18
f 8 17 23
f 8 23 9
f 9 23 22
f 10 24 11
f 10 21 25
f 10 25 34
f 10 34 33
f 10 33 42
f 10 42 45
f 10 45 46
f 10 46 43
f 10 43 36
f 10 36 26
f 10 26 24
f 11 24 12
f 12 26 27
f 12 27 13
f 12 24 26
f 13 27 28
f 13 28 14
f 14 29 15
f 14 28 29
f 15 29 16
f 16 29 23
f 16 23 17
f 18 22 30
f 18 30 19
f 19 30 20
f 20 31 21
f 20 30 31
f 21 31 32
f 21 32 33
f 21 33 34
f 21 34 25
f 22 23 35
f 22 35 30
f 23 29 35
f 26 36 37
f 26 37 38
f 26 38 39
f 26 39 27
f 27 39 28
f 28 39 37
f 28 37 35
f 28 35 29
f 30 40 31
f 30 35 41
f 30 41 40
f 31 40 32
f 32 40 42
f 32 42 33
f 35 37 41
f 36 43 37
f 37 39 38
f 37 43 44
f 37 44 41
f 40 41 45
f 40 45 42
f 41 44 45
f 43 46 44
f 44 46 45

