# https://github.com/mikedh/trimesh
v -0.03398866 0.01924489 -0.02050287
v -0.03398866 0.01445787 -0.02047047
v -0.03398866 0.01950245 -0.02049698
v -0.03395630 0.01950245 -0.02049698
v -0.00092348 0.01950245 -0.01759853
v -0.02993319 -0.00105414 -0.01849104
v -0.03398866 -0.00105414 -0.01834376
v -0.00092348 -0.00105414 -0.01669424
v -0.03398866 0.01950245 0.00958916
v -0.00092348 0.01950245 0.00855527
v -0.03398866 -0.00105414 0.00902067
v -0.00092348 -0.00105414 0.00845806
v -0.03158710 -0.00105414 0.00902656
f 1 2 7
f 1 7 11
f 1 11 9
f 1 9 3
f 1 3 4
f 1 4 5
f 1 5 2
f 2 6 7
f 2 5 8
f 2 8 6
f 3 9 10
f 3 10 5
f 3 5 4
f 5 10 12
f 5 12 8
f 6 8 12
f 6 12 13
f 6 13 11
f 6 11 7
f 9 11 13
f 9 13 12
f 9 12 10

