# https://github.com/mikedh/trimesh
v 0.02214507 -0.03345540 0.00969416
v 0.01779709 -0.03345540 0.00960208
v 0.02214507 -0.03345540 -0.02030738
v 0.02214507 -0.00105414 0.00874074
v -0.00007556 -0.00105414 0.00845857
v -0.00007556 -0.02898024 0.00893677
v -0.00007556 -0.03345540 0.00893677
v 0.02127504 -0.03345540 -0.02055688
v 0.02214507 -0.03256734 -0.02060440
v 0.02214507 -0.00105414 -0.01769068
v -0.00007556 -0.00105414 -0.01670161
v -0.00007556 -0.03345540 -0.01793126
v 0.01594174 -0.03345540 -0.02047074
v 0.02214507 -0.03120038 -0.02064895
v 0.01667039 -0.00105414 -0.01745306
v 0.01628540 -0.03313189 -0.02047371
v 0.01452141 -0.03345540 -0.02032520
v -0.00007556 -0.02724220 -0.01833817
v -0.00007556 -0.03253563 -0.01807977
v 0.00899235 -0.03345540 -0.01944010
v -0.00007556 -0.02928789 -0.01835896
f 1 2 7
f 1 7 12
f 1 12 20
f 1 20 17
f 1 17 13
f 1 13 8
f 1 8 3
f 1 3 9
f 1 9 14
f 1 14 10
f 1 10 4
f 1 4 5
f 1 5 2
f 2 5 6
f 2 6 7
f 3 8 9
f 4 10 15
f 4 15 11
f 4 11 5
f 5 11 18
f 5 18 21
f 5 21 19
f 5 19 12
f 5 12 7
f 5 7 6
f 8 13 9
f 9 13 14
f 10 14 15
f 11 15 14
f 11 14 16
f 11 16 13
f 11 13 17
f 11 17 18
f 12 19 20
f 13 16 14
f 17 20 19
f 17 19 21
f 17 21 18

