# https://github.com/mikedh/trimesh
v 0.01783615 0.03348566 -0.02074080
v 0.00554734 0.03753956 -0.02069539
v 0.00401600 0.04019857 -0.02005964
v 0.01894085 0.03576568 -0.01988773
v 0.01790091 0.03348566 -0.02073107
v -0.00092085 0.02968241 -0.01839244
v -0.01638662 0.03110999 -0.01976448
v -0.01638662 0.03124681 -0.01985530
v -0.01638662 0.03356194 -0.02062403
v -0.00634149 0.03851550 -0.02056889
v 0.00246943 0.04151113 -0.01607651
v 0.00664442 0.04074103 -0.01813619
v 0.01246884 0.03850460 -0.01966393
v -0.01254303 0.03860147 -0.01959581
v -0.00607865 0.04087422 -0.01774372
v -0.00092085 0.04125927 -0.01673820
v 0.02177497 0.03555862 -0.01690038
v 0.02252921 0.03442891 -0.01808430
v 0.02252921 0.03348566 -0.01980989
v 0.02236541 0.03348566 -0.02000126
v 0.01481537 0.03878915 -0.01663441
v -0.00297407 0.02968241 -0.01841839
v -0.00092085 0.02968241 0.00897702
v -0.00853184 0.02968241 -0.01841839
v -0.01638662 0.02968241 -0.01820755
v -0.01638662 0.03583228 -0.02006289
v -0.01638662 0.03711092 -0.01966717
v 0.00011528 0.04182110 -0.00164251
v 0.00716249 0.04172666 0.01165623
v -0.00092085 0.04166369 -0.00433470
v 0.01091084 0.04106190 0.01216547
v -0.01186879 0.03994914 -0.01426334
v -0.00885944 0.04125322 0.01239577
v -0.00560248 0.04133192 -0.00102299
v 0.01891418 0.03718479 -0.00644952
v 0.01763426 0.03804690 0.00908730
v 0.02114263 0.03619068 0.01160433
v 0.02218257 0.03553320 0.00279797
v 0.02252921 0.03529829 0.00130916
v 0.02252921 0.03510213 -0.01527534
v 0.02252921 0.03492414 -0.01704310
v 0.02252921 0.03348566 0.01002146
v 0.02252921 0.03467108 0.01111779
v 0.02252921 0.03522201 0.01161406
v -0.01402485 0.02968241 0.00926246
v -0.01638662 0.02968241 0.00927218
v -0.01638662 0.03729860 -0.01874274
v -0.00079895 0.04205116 0.01139998
v -0.00092085 0.04173271 -0.00152899
v -0.00092085 0.04203784 0.01141945
v 0.01583246 0.03881942 0.01218493
v -0.01638662 0.03815830 -0.01393574
v -0.01638662 0.03854456 0.01055341
v -0.01392200 0.03951687 0.01119239
v -0.01638662 0.03847554 0.01152000
v -0.00092085 0.04203905 0.01141620
v -0.00092085 0.04203300 0.01108860
v 0.02252921 0.03526923 0.01021932
v 0.02252921 0.03529950 0.00355048
f 1 2 3
f 1 3 4
f 1 4 5
f 1 5 6
f 1 6 7
f 1 7 8
f 1 8 9
f 1 9 2
f 2 9 10
f 2 10 3
f 3 11 12
f 3 12 13
f 3 13 4
f 3 10 14
f 3 14 15
f 3 15 16
f 3 16 11
f 4 17 18
f 4 18 19
f 4 19 20
f 4 20 5
f 4 13 21
f 4 21 17
f 5 20 6
f 6 22 7
f 6 20 19
f 6 19 42
f 6 42 23
f 6 23 45
f 6 45 46
f 6 46 25
f 6 25 24
f 6 24 22
f 7 22 24
f 7 24 25
f 7 25 46
f 7 46 55
f 7 55 53
f 7 53 52
f 7 52 47
f 7 47 27
f 7 27 26
f 7 26 9
f 7 9 8
f 9 26 10
f 10 26 27
f 10 27 14
f 11 28 29
f 11 29 12
f 11 16 30
f 11 30 28
f 12 29 31
f 12 31 21
f 12 21 13
f 14 27 32
f 14 32 15
f 15 32 33
f 15 33 34
f 15 34 30
f 15 30 16
f 17 21 35
f 17 35 36
f 17 36 37
f 17 37 38
f 17 38 39
f 17 39 40
f 17 40 41
f 17 41 18
f 18 41 40
f 18 40 39
f 18 39 59
f 18 59 58
f 18 58 44
f 18 44 43
f 18 43 42
f 18 42 19
f 21 31 35
f 23 42 43
f 23 43 44
f 23 44 45
f 27 47 32
f 28 48 29
f 28 30 49
f 28 49 48
f 29 48 50
f 29 50 33
f 29 33 31
f 30 34 49
f 31 51 36
f 31 36 35
f 31 33 51
f 32 47 52
f 32 52 53
f 32 53 54
f 32 54 33
f 33 54 55
f 33 55 44
f 33 44 51
f 33 50 56
f 33 56 48
f 33 48 57
f 33 57 34
f 34 57 48
f 34 48 49
f 36 51 37
f 37 44 58
f 37 58 59
f 37 59 38
f 37 51 44
f 38 59 39
f 44 55 46
f 44 46 45
f 48 56 50
f 53 55 54

