# https://github.com/mikedh/trimesh
v -0.01604668 -0.03905153 0.01176566
v -0.01604668 -0.02069323 0.00880942
v -0.03121616 -0.02810951 0.01207600
v -0.02133584 -0.03685738 0.01158969
v -0.01811373 -0.03790144 -0.01434779
v -0.01604668 -0.03871190 -0.01551557
v -0.03589248 -0.02069323 0.01123776
v -0.01604668 -0.02069323 -0.01806548
v -0.03726983 -0.02069323 0.01075785
v -0.03289265 -0.02675816 0.01098181
v -0.02495683 -0.03418162 0.01021395
v -0.02422141 -0.03436851 -0.01583551
v -0.02012885 -0.03542516 -0.01989873
v -0.01604668 -0.03707661 -0.01987634
v -0.01604668 -0.03242235 -0.02036585
v -0.02973079 -0.02069323 -0.02024747
v -0.03648455 -0.02069323 -0.00835532
v -0.03569097 -0.02220452 -0.00708516
v -0.03394384 -0.02423155 -0.01715685
v -0.03063240 -0.02875105 -0.01107801
v -0.02530584 -0.03370002 -0.00538629
v -0.02911379 -0.02995684 -0.01580351
v -0.02853626 -0.03041508 -0.01759517
v -0.02467222 -0.03289676 -0.01923646
v -0.02554059 -0.02929195 -0.02060900
v -0.01776057 -0.03417983 -0.02059300
v -0.01604668 -0.03556532 -0.02036265
v -0.01604668 -0.03458415 -0.02059300
v -0.03308378 -0.02069323 -0.02056101
v -0.02988244 -0.02069323 -0.02026986
v -0.03616047 -0.02069323 -0.01399585
v -0.03505112 -0.02069323 -0.01958519
v -0.03417859 -0.02215061 -0.01981235
v -0.03044335 -0.02499169 -0.02058980
v -0.03451306 -0.02069323 -0.02001071
f 1 2 3
f 1 3 4
f 1 4 5
f 1 5 6
f 1 6 14
f 1 14 27
f 1 27 28
f 1 28 15
f 1 15 8
f 1 8 2
f 2 7 3
f 2 8 16
f 2 16 30
f 2 30 29
f 2 29 35
f 2 35 32
f 2 32 31
f 2 31 17
f 2 17 9
f 2 9 7
f 3 7 9
f 3 9 10
f 3 10 11
f 3 11 4
f 4 11 12
f 4 12 5
f 5 12 6
f 6 12 13
f 6 13 14
f 8 15 16
f 9 17 18
f 9 18 10
f 10 18 19
f 10 19 20
f 10 20 11
f 11 20 21
f 11 21 12
f 12 21 20
f 12 20 22
f 12 22 23
f 12 23 24
f 12 24 13
f 13 24 25
f 13 25 26
f 13 26 27
f 13 27 14
f 15 28 29
f 15 29 30
f 15 30 16
f 17 31 18
f 18 31 19
f 19 22 20
f 19 31 32
f 19 32 33
f 19 33 23
f 19 23 22
f 23 33 24
f 24 33 34
f 24 34 25
f 25 34 29
f 25 29 28
f 25 28 26
f 26 28 27
f 29 34 33
f 29 33 35
f 32 35 33

