# https://github.com/mikedh/trimesh
v 0.01788948 0.03346610 -0.02074100
v 0.01783615 0.03348389 -0.02073799
v 0.01787043 0.03348389 -0.02073498
v 0.01790091 0.03348389 -0.02073197
v 0.02236541 0.03348389 -0.02000321
v 0.02252921 0.03337577 -0.02000923
v 0.02252921 0.03274210 -0.02019594
v 0.02252921 0.02973251 -0.02068077
v -0.01638662 0.02272791 -0.01844631
v -0.01261160 0.02736479 -0.01866012
v -0.01638662 0.02968050 -0.01820841
v 0.01262884 0.03348389 -0.02019895
v 0.02252921 0.03348389 -0.01981048
v 0.02252921 0.02942457 -0.02062356
v -0.01638662 0.01950345 -0.01814819
v -0.01638662 0.02189443 -0.01837705
v -0.01638662 0.02593459 -0.01839813
v -0.01638662 0.02968050 0.00927361
v -0.00092085 0.03348389 -0.01829574
v 0.00075143 0.03348389 -0.01854870
v 0.02252921 0.03348389 0.01002345
v 0.02252921 0.02361478 -0.01840717
v 0.02228923 0.02361478 -0.01842222
v 0.02178259 0.02361478 -0.01845234
v -0.00092085 0.01950345 -0.01759710
v -0.01638662 0.01950345 0.00880684
v -0.01638662 0.02853223 0.00924651
v -0.00092085 0.03348389 0.00919832
v 0.02252921 0.02560201 0.00934889
v 0.02252921 0.02361478 0.00904775
v -0.00092085 0.01950345 0.00855388
f 1 2 3
f 1 3 4
f 1 4 5
f 1 5 6
f 1 6 7
f 1 7 8
f 1 8 9
f 1 9 2
f 2 9 10
f 2 10 11
f 2 11 12
f 2 12 20
f 2 20 19
f 2 19 28
f 2 28 21
f 2 21 13
f 2 13 5
f 2 5 4
f 2 4 3
f 5 13 6
f 6 13 21
f 6 21 29
f 6 29 30
f 6 30 22
f 6 22 14
f 6 14 8
f 6 8 7
f 8 14 15
f 8 15 16
f 8 16 9
f 9 16 15
f 9 15 26
f 9 26 27
f 9 27 18
f 9 18 11
f 9 11 17
f 9 17 10
f 10 17 11
f 11 18 28
f 11 28 19
f 11 19 20
f 11 20 12
f 14 22 23
f 14 23 24
f 14 24 15
f 15 25 31
f 15 31 26
f 15 24 25
f 18 27 21
f 18 21 28
f 21 27 26
f 21 26 29
f 22 30 31
f 22 31 25
f 22 25 23
f 23 25 24
f 26 31 30
f 26 30 29

