# https://github.com/mikedh/trimesh
v 0.02252921 -0.00105414 -0.01773273
v -0.00092118 0.02361354 -0.01797808
v 0.01394566 0.02361354 -0.01846069
v 0.02252921 0.01655321 -0.01843373
v 0.02252921 -0.00105414 0.00875165
v -0.00092118 -0.00105414 -0.01669740
v -0.00092118 0.02361354 0.00866807
v 0.02178311 0.02361354 -0.01845260
v 0.02252921 0.02148143 -0.01845530
v 0.02252921 0.02361354 0.00904823
v 0.01803886 0.02361354 0.00907789
v -0.00092118 -0.00105414 0.00845777
v 0.02229046 0.02361354 -0.01842294
v 0.02252921 0.02361354 -0.01840677
f 1 2 3
f 1 3 4
f 1 4 9
f 1 9 14
f 1 14 10
f 1 10 5
f 1 5 12
f 1 12 6
f 1 6 2
f 2 6 12
f 2 12 7
f 2 7 11
f 2 11 10
f 2 10 14
f 2 14 13
f 2 13 8
f 2 8 3
f 3 8 9
f 3 9 4
f 5 10 11
f 5 11 12
f 7 12 11
f 8 13 9
f 9 13 14

