# https://github.com/mikedh/trimesh
v -0.00007556 -0.02069131 0.00861600
v -0.00007556 -0.00105414 0.00846083
v -0.02778529 -0.01932450 0.00915498
v -0.02543908 -0.02069131 0.00911415
v -0.00007556 -0.02069131 -0.01764465
v -0.00007556 -0.00105414 -0.01670279
v -0.02778529 -0.00105414 0.00876299
v -0.02778529 -0.01073912 0.00899982
v -0.02778529 -0.02038950 0.00915226
v -0.02778529 -0.02069131 0.00914954
v -0.02778529 -0.02069131 -0.01851302
v -0.02555571 -0.01418212 -0.01859196
v -0.02778529 -0.00833806 -0.01865457
v -0.02778529 -0.00105414 -0.01825442
f 1 2 3
f 1 3 4
f 1 4 10
f 1 10 11
f 1 11 5
f 1 5 6
f 1 6 2
f 2 6 14
f 2 14 7
f 2 7 8
f 2 8 3
f 3 8 7
f 3 7 14
f 3 14 13
f 3 13 11
f 3 11 10
f 3 10 9
f 3 9 4
f 4 9 10
f 5 11 12
f 5 12 13
f 5 13 6
f 6 13 14
f 11 13 12

