# https://github.com/mikedh/trimesh
v -0.01638662 0.03847648 0.01152312
v -0.01638662 0.03854545 0.01055429
v -0.01841006 0.03762089 0.01179312
v -0.01638662 0.01950245 0.00881040
v -0.01938758 0.03735992 0.00977605
v -0.01638662 0.03815773 -0.01393643
v -0.02244687 0.03534676 0.01180582
v -0.03174744 0.02657088 0.01166288
v -0.03481679 0.02286331 0.01154218
v -0.03691866 0.01950245 0.01100217
v -0.01638662 0.01950245 -0.01815163
v -0.02733450 0.03235125 0.01154218
v -0.01968929 0.03684917 -0.01369820
v -0.01638662 0.03729841 -0.01874564
v -0.01733196 0.03674479 -0.01968270
v -0.03173336 0.02808261 0.01076076
v -0.03443664 0.02376364 0.00996028
v -0.03693275 0.01950245 0.01086241
v -0.03395793 0.01950245 -0.02049906
v -0.01638662 0.03355915 -0.02062294
v -0.02586217 0.03273897 -0.01705892
v -0.01638662 0.03711014 -0.01966682
v -0.02402982 0.03290674 -0.01953023
v -0.02113345 0.03240531 -0.02063882
v -0.03223218 0.02647022 -0.01648398
v -0.03522710 0.02242712 -0.00745958
v -0.03692872 0.01950245 0.00839428
v -0.03424757 0.01950245 -0.02048318
v -0.02979842 0.02609368 -0.02063565
v -0.01638662 0.03582955 -0.02006388
v -0.02971596 0.02828206 -0.01900929
v -0.03389759 0.02343930 -0.01911729
v -0.03662098 0.01950245 -0.01569939
v -0.03677988 0.01950245 -0.01268490
v -0.03602562 0.01950245 -0.01899658
v -0.03386742 0.02022942 -0.02048953
v -0.03655058 0.01950245 -0.01655386
f 1 2 3
f 1 3 4
f 1 4 11
f 1 11 20
f 1 20 30
f 1 30 22
f 1 22 14
f 1 14 6
f 1 6 2
f 2 5 3
f 2 6 5
f 3 7 8
f 3 8 9
f 3 9 4
f 3 5 7
f 4 9 10
f 4 10 18
f 4 18 27
f 4 27 34
f 4 34 33
f 4 33 37
f 4 37 35
f 4 35 28
f 4 28 19
f 4 19 11
f 5 12 7
f 5 6 13
f 5 13 12
f 6 14 15
f 6 15 13
f 7 12 8
f 8 12 16
f 8 16 9
f 9 16 10
f 10 16 17
f 10 17 18
f 11 19 20
f 12 13 21
f 12 21 16
f 13 15 21
f 14 22 15
f 15 23 21
f 15 22 24
f 15 24 23
f 16 21 25
f 16 25 26
f 16 26 17
f 17 26 18
f 18 26 27
f 19 28 29
f 19 29 20
f 20 29 24
f 20 24 30
f 21 23 31
f 21 31 25
f 22 30 24
f 23 24 29
f 23 29 31
f 25 31 32
f 25 32 33
f 25 33 34
f 25 34 26
f 26 34 27
f 28 35 32
f 28 32 36
f 28 36 29
f 29 36 32
f 29 32 31
f 32 35 37
f 32 37 33

