# https://github.com/mikedh/trimesh
v 0.02953463 -0.00105414 -0.01878111
v 0.02871595 -0.00105414 -0.01870130
v 0.03336184 0.01636416 -0.02074080
v 0.03336184 -0.00105414 -0.01827567
v 0.02253770 -0.00105414 -0.01773476
v 0.03294932 0.01734425 -0.02073488
v 0.03294826 0.01735146 -0.02073488
v 0.03295463 0.01735146 -0.02073488
v 0.03336184 0.01692627 -0.02070828
v 0.03336184 -0.00105414 0.00926046
v 0.02252921 -0.00105414 -0.01773180
v 0.02252921 0.01655333 -0.01843232
v 0.02252921 0.01735146 -0.01843824
v 0.03336184 0.01735146 -0.02065803
v 0.03336184 0.00579391 0.00943189
v 0.02252921 -0.00105414 0.00875206
v 0.02252921 0.01735146 0.00888803
v 0.03336184 0.01735146 0.00942303
v 0.03336184 0.00619207 0.00943780
v 0.03273405 0.00742620 0.00941711
v 0.02252921 0.01142045 0.00888803
v 0.03157390 0.01735146 0.00945554
v 0.03336184 0.00700461 0.00944667
f 1 2 3
f 1 3 4
f 1 4 10
f 1 10 16
f 1 16 11
f 1 11 5
f 1 5 2
f 2 5 3
f 3 5 6
f 3 6 7
f 3 7 8
f 3 8 9
f 3 9 14
f 3 14 18
f 3 18 23
f 3 23 19
f 3 19 15
f 3 15 10
f 3 10 4
f 5 11 12
f 5 12 6
f 6 12 7
f 7 12 13
f 7 13 17
f 7 17 22
f 7 22 18
f 7 18 14
f 7 14 8
f 8 14 9
f 10 15 16
f 11 16 21
f 11 21 17
f 11 17 13
f 11 13 12
f 15 19 16
f 16 19 20
f 16 20 21
f 17 21 22
f 18 22 23
f 19 23 20
f 20 23 22
f 20 22 21

