# https://github.com/mikedh/trimesh
v -0.00007556 -0.04222273 0.00680961
v -0.00165454 -0.04216793 0.00520195
v -0.00007556 -0.04219744 -0.00756682
v -0.00007556 -0.04216793 0.01023546
v -0.00486252 -0.04189815 0.01145077
v -0.00007556 -0.04217214 -0.00984434
v -0.00007556 -0.04189183 0.01143482
v -0.01184910 -0.04081904 0.01194200
v -0.00830500 -0.04138178 0.00942525
v -0.00713249 -0.04146398 -0.00236425
v -0.01129880 -0.04057666 -0.01820161
v -0.00007556 -0.04213842 -0.01114577
v -0.00007556 -0.02069534 0.00861504
v -0.01604667 -0.03905074 0.01176656
v -0.01604667 -0.03871352 -0.01551580
v -0.00234397 -0.04166631 -0.01786030
v -0.01604667 -0.03707799 -0.01987945
v -0.01231497 -0.03858705 -0.01985712
v -0.00411211 -0.03980738 -0.02046956
v -0.00007556 -0.04168107 -0.01700863
v -0.01604667 -0.02069534 0.00880962
v -0.00007556 -0.02069534 -0.01764340
v -0.00007556 -0.04143236 -0.01851740
v -0.01604667 -0.03556682 -0.02036430
v -0.01604667 -0.03458466 -0.02059715
v -0.00067745 -0.03831517 -0.02064500
v -0.00007556 -0.03950599 -0.02055249
v -0.01604667 -0.02069534 -0.01806764
v -0.00007556 -0.03807069 -0.02059077
v -0.01604667 -0.03242222 -0.02036748
v -0.00007556 -0.03844374 -0.02064181
f 1 2 3
f 1 3 6
f 1 6 12
f 1 12 20
f 1 20 23
f 1 23 27
f 1 27 31
f 1 31 29
f 1 29 22
f 1 22 13
f 1 13 7
f 1 7 4
f 1 4 2
f 2 4 5
f 2 5 3
f 3 5 6
f 4 7 5
f 5 7 8
f 5 8 9
f 5 9 10
f 5 10 6
f 6 10 11
f 6 11 12
f 7 13 8
f 8 10 9
f 8 13 14
f 8 14 15
f 8 15 11
f 8 11 10
f 11 16 12
f 11 15 17
f 11 17 18
f 11 18 19
f 11 19 16
f 12 16 20
f 13 21 14
f 13 22 28
f 13 28 21
f 14 21 28
f 14 28 30
f 14 30 25
f 14 25 24
f 14 24 17
f 14 17 15
f 16 19 23
f 16 23 20
f 17 24 18
f 18 24 19
f 19 24 25
f 19 25 26
f 19 26 27
f 19 27 23
f 22 29 30
f 22 30 28
f 25 30 26
f 26 31 27
f 26 30 29
f 26 29 31

