# https://github.com/mikedh/trimesh
v 0.02546356 0.03315977 0.01164000
v 0.02855803 0.03095357 0.01133855
v 0.02463206 0.03386433 0.00811779
v 0.02252921 0.03526633 0.01021843
v 0.02252921 0.03521652 0.01161462
v 0.04125230 0.00993060 0.01161144
v 0.03412962 0.02365175 0.01154481
v 0.03146151 0.02771899 0.01129095
v 0.03180684 0.02703578 -0.01365643
v 0.02778827 0.03131652 -0.00416233
v 0.02508543 0.03354408 -0.00974075
v 0.02252921 0.03529836 0.00354844
v 0.02252921 0.01734985 0.00888570
v 0.03336179 -0.00105414 0.00926013
v 0.04130439 -0.00105414 0.01115133
v 0.04173075 0.00512678 0.01144009
v 0.04190245 0.00451473 0.00204754
v 0.04131982 0.00817632 -0.00815734
v 0.03993078 0.01494793 0.01136076
v 0.03736492 0.01892621 0.01124336
v 0.03439006 0.02442037 0.00935215
v 0.03657973 0.01978734 -0.01698190
v 0.03313028 0.02397201 -0.01973938
v 0.02903455 0.02940567 -0.01826703
v 0.02252921 0.03492117 -0.01704219
v 0.02252921 0.03509909 -0.01527791
v 0.02252921 0.03529480 0.00131137
v 0.02252921 0.01734985 -0.01843521
v 0.03336179 -0.00105414 -0.01827338
v 0.04219762 -0.00105414 0.00988842
v 0.04223813 -0.00093316 0.00979957
v 0.04195647 0.00237259 -0.01368181
v 0.04110375 0.00553599 -0.01815914
v 0.03975330 0.01237522 -0.01721037
v 0.03762344 0.01734985 -0.01705806
v 0.03633279 0.02063780 -0.00751636
v 0.03872502 0.01147850 -0.02037084
v 0.03610900 0.01734985 -0.02015189
v 0.03515211 0.01949555 -0.02006938
v 0.03059722 0.02485449 -0.02059930
v 0.02377742 0.03254417 -0.02004717
v 0.02252921 0.03442656 -0.01808299
v 0.03564020 -0.00105414 -0.02008842
v 0.02252921 0.02972948 -0.02068180
v 0.04222656 -0.00105414 0.00981861
v 0.04221112 -0.00105414 0.00847953
v 0.04185615 -0.00105414 -0.01342161
v 0.04162850 -0.00105414 -0.01728970
v 0.04150117 -0.00105414 -0.01814328
v 0.04132754 -0.00105414 -0.01855261
v 0.04031470 0.00259320 -0.02040257
v 0.03729933 0.00702696 -0.02077700
v 0.03336179 0.01692640 -0.02071036
v 0.02252921 0.03273988 -0.02019314
v 0.03294701 0.01734985 -0.02073575
v 0.02252921 0.03337327 -0.02000592
v 0.03813082 -0.00105414 -0.02076748
v 0.04019509 -0.00105414 -0.02022170
v 0.03845493 -0.00105414 -0.02071988
f 1 2 3
f 1 3 4
f 1 4 5
f 1 5 6
f 1 6 7
f 1 7 2
f 2 8 9
f 2 9 10
f 2 10 11
f 2 11 3
f 2 7 8
f 3 11 12
f 3 12 4
f 4 12 27
f 4 27 26
f 4 26 25
f 4 25 42
f 4 42 56
f 4 56 54
f 4 54 44
f 4 44 28
f 4 28 13
f 4 13 5
f 5 13 14
f 5 14 15
f 5 15 16
f 5 16 6
f 6 16 17
f 6 17 18
f 6 18 19
f 6 19 7
f 7 20 21
f 7 21 8
f 7 19 20
f 8 21 9
f 9 21 22
f 9 22 23
f 9 23 24
f 9 24 10
f 10 24 11
f 11 25 26
f 11 26 27
f 11 27 12
f 11 24 25
f 13 28 29
f 13 29 14
f 14 29 43
f 14 43 57
f 14 57 59
f 14 59 58
f 14 58 50
f 14 50 49
f 14 49 48
f 14 48 47
f 14 47 46
f 14 46 45
f 14 45 30
f 14 30 15
f 15 30 16
f 16 30 31
f 16 31 17
f 17 31 32
f 17 32 18
f 18 33 34
f 18 34 19
f 18 32 33
f 19 34 35
f 19 35 22
f 19 22 36
f 19 36 21
f 19 21 20
f 21 36 22
f 22 35 37
f 22 37 38
f 22 38 39
f 22 39 23
f 23 40 41
f 23 41 24
f 23 39 40
f 24 41 42
f 24 42 25
f 28 43 29
f 28 44 43
f 30 45 31
f 31 45 46
f 31 46 47
f 31 47 32
f 32 47 48
f 32 48 33
f 33 37 34
f 33 48 49
f 33 49 50
f 33 50 51
f 33 51 37
f 34 37 35
f 37 51 52
f 37 52 53
f 37 53 40
f 37 40 38
f 38 40 39
f 40 44 54
f 40 54 41
f 40 53 55
f 40 55 44
f 41 54 56
f 41 56 42
f 43 44 57
f 44 55 52
f 44 52 57
f 50 58 51
f 51 58 59
f 51 59 57
f 51 57 52
f 52 55 53

