# https://github.com/mikedh/trimesh
v -0.00721877 0.08422689 -0.01696538
v 0.00095545 0.08419068 -0.01696538
v 0.00776525 0.08235622 -0.10238112
v -0.01358606 0.08419068 -0.01696538
v 0.01356710 0.08258552 -0.01696538
v 0.00073419 0.07511489 -0.10937396
v -0.01545445 0.08099243 -0.10248967
v -0.01426212 0.08201828 -0.08745462
v 0.01453817 0.08205449 -0.02510710
v 0.02100379 0.07964073 -0.01696538
v 0.02271239 0.07891659 -0.01696538
v 0.02171673 0.07685281 -0.08093220
v 0.03009991 0.07063735 -0.10937396
v -0.02523893 0.08217519 -0.01696538
v -0.03582239 0.06609946 -0.10937396
v -0.03207331 0.07783040 -0.10227256
v -0.03115141 0.08058210 -0.03502191
v 0.02303198 0.07873556 -0.01696538
v 0.03073910 0.07206148 -0.07595669
v 0.03098494 -0.01797224 -0.10934682
v 0.00015646 -0.03087385 -0.10937396
v 0.03838476 0.06323914 -0.10554734
v 0.05126684 0.02867391 -0.10590920
v -0.03228227 0.08083554 -0.01696538
v -0.04566832 -0.01507571 -0.10937396
v -0.04930677 0.05890642 -0.10935586
v -0.03337627 0.07867521 -0.06980517
v -0.04929448 0.06602705 -0.10121414
v -0.04293949 0.07429421 -0.03077917
v 0.03221415 0.07271320 -0.01696538
v 0.03463568 0.07050459 -0.01696538
v 0.04102755 0.06457878 -0.01696538
v 0.04927552 0.00748099 -0.10043615
v 0.04170361 -0.01120161 -0.06420548
v 0.04057274 -0.01645157 -0.01696538
v 0.03672533 -0.02016877 -0.01696538
v 0.02880925 -0.02663768 -0.01696538
v 0.01152662 -0.03605140 -0.05846103
v 0.00511016 -0.03217729 -0.09551493
v -0.00262154 -0.03267212 -0.10426276
v -0.02064170 -0.02854457 -0.10937396
v 0.04502247 0.05935296 -0.01696538
v 0.04689086 0.05255819 -0.07801926
v 0.04884530 0.04409792 -0.10070754
v 0.05336878 0.03894452 -0.03868569
v 0.05384817 0.02566877 -0.06558052
v -0.03809642 0.07762522 -0.01696538
v -0.03574863 -0.02494804 -0.10081609
v -0.04699587 -0.02265496 -0.02336116
v -0.05820622 -0.01225160 -0.01696538
v -0.05282230 -0.01210677 -0.06939808
v -0.06303700 0.00862753 -0.10927444
v -0.06284033 0.03987382 -0.10359333
v -0.05927563 0.04875650 -0.10328575
v -0.06255761 0.04938408 -0.01696538
v -0.05569864 0.06024606 -0.01696538
v -0.05247812 0.06469947 -0.01696538
v -0.04513977 0.07289423 -0.01696538
v 0.05504050 0.01525334 -0.01696538
v 0.05413088 0.00898960 -0.01696538
v 0.05079974 -0.00038791 -0.01696538
v 0.05011138 0.00038450 -0.03426202
v 0.04544040 -0.01022403 -0.01696538
v 0.04880842 -0.00412925 -0.01696538
v 0.02695315 -0.02798940 -0.01696538
v 0.01215351 -0.03583416 -0.01696538
v 0.01152662 -0.03605140 -0.05239093
v 0.00243049 -0.03765656 -0.01696538
v -0.01070971 -0.03906861 -0.01696538
v -0.01163162 -0.03889965 -0.02033967
v -0.01761785 -0.03460313 -0.06218814
v 0.04628855 0.05748229 -0.01696538
v 0.05077515 0.04922719 -0.01696538
v 0.05285251 0.04326517 -0.01696538
v 0.05502820 0.03409283 -0.01696538
v 0.05622053 0.02511360 -0.01696538
v -0.04242322 -0.02667389 -0.01696538
v -0.01881018 -0.03538761 -0.05122395
v -0.02217820 -0.03760828 -0.02018588
v -0.02445223 -0.03700484 -0.01696538
v -0.03370815 -0.03000490 -0.04534381
v -0.05271167 -0.01767052 -0.01696538
v -0.05965669 -0.01009127 -0.01696538
v -0.06387286 0.00227931 -0.05623563
v -0.06762194 0.00793961 -0.01696538
v -0.06849467 0.01275508 -0.01696538
v -0.06536020 0.02368947 -0.09064799
v -0.06334430 0.04477378 -0.05068116
v -0.06735151 0.02892736 -0.05570190
v -0.06731463 0.03560144 -0.01696538
v -0.06513894 0.04371172 -0.01696538
v -0.01271332 -0.03900827 -0.01696538
v -0.02211674 -0.03784966 -0.01696538
v -0.06461038 -0.00029136 -0.01696538
v -0.06935512 0.02478774 -0.01696538
f 1 2 3
f 1 3 4
f 1 4 14
f 1 14 24
f 1 24 47
f 1 47 58
f 1 58 57
f 1 57 56
f 1 56 55
f 1 55 91
f 1 91 90
f 1 90 95
f 1 95 86
f 1 86 85
f 1 85 94
f 1 94 83
f 1 83 50
f 1 50 82
f 1 82 77
f 1 77 80
f 1 80 93
f 1 93 92
f 1 92 69
f 1 69 68
f 1 68 66
f 1 66 65
f 1 65 37
f 1 37 36
f 1 36 35
f 1 35 63
f 1 63 64
f 1 64 61
f 1 61 60
f 1 60 59
f 1 59 76
f 1 76 75
f 1 75 74
f 1 74 73
f 1 73 72
f 1 72 42
f 1 42 32
f 1 32 31
f 1 31 30
f 1 30 18
f 1 18 11
f 1 11 10
f 1 10 5
f 1 5 2
f 2 5 3
f 3 6 7
f 3 7 8
f 3 8 4
f 3 5 9
f 3 9 10
f 3 10 11
f 3 11 12
f 3 12 13
f 3 13 6
f 4 8 14
f 5 10 9
f 6 13 21
f 6 21 41
f 6 41 25
f 6 25 15
f 6 15 16
f 6 16 7
f 7 16 8
f 8 16 17
f 8 17 14
f 11 18 19
f 11 19 12
f 12 19 13
f 13 20 21
f 13 19 22
f 13 22 23
f 13 23 20
f 14 17 24
f 15 25 26
f 15 26 16
f 16 27 17
f 16 26 28
f 16 28 29
f 16 29 27
f 17 27 24
f 18 30 19
f 19 30 31
f 19 31 32
f 19 32 22
f 20 23 33
f 20 33 34
f 20 34 35
f 20 35 36
f 20 36 37
f 20 37 38
f 20 38 39
f 20 39 21
f 21 39 40
f 21 40 41
f 22 32 42
f 22 42 43
f 22 43 44
f 22 44 23
f 23 44 45
f 23 45 46
f 23 46 33
f 24 27 47
f 25 41 48
f 25 48 49
f 25 49 50
f 25 50 51
f 25 51 52
f 25 52 26
f 26 52 53
f 26 53 54
f 26 54 28
f 27 29 47
f 28 54 55
f 28 55 56
f 28 56 57
f 28 57 58
f 28 58 29
f 29 58 47
f 33 46 59
f 33 59 60
f 33 60 61
f 33 61 62
f 33 62 34
f 34 63 35
f 34 62 64
f 34 64 63
f 37 65 38
f 38 40 39
f 38 65 66
f 38 66 67
f 38 67 68
f 38 68 69
f 38 69 70
f 38 70 40
f 40 70 71
f 40 71 41
f 41 71 48
f 42 72 43
f 43 72 73
f 43 73 44
f 44 73 74
f 44 74 45
f 45 74 75
f 45 75 76
f 45 76 46
f 46 76 59
f 48 77 49
f 48 71 78
f 48 78 79
f 48 79 80
f 48 80 81
f 48 81 77
f 49 82 50
f 49 77 82
f 50 83 52
f 50 52 51
f 52 83 84
f 52 84 85
f 52 85 86
f 52 86 87
f 52 87 53
f 53 88 54
f 53 87 89
f 53 89 90
f 53 90 91
f 53 91 88
f 54 88 55
f 55 88 91
f 61 64 62
f 66 68 67
f 69 92 70
f 70 92 93
f 70 93 79
f 70 79 78
f 70 78 71
f 77 81 80
f 79 93 80
f 83 94 84
f 84 94 85
f 86 95 87
f 87 95 89
f 89 95 90

