# https://github.com/mikedh/trimesh
v -0.04452940 0.04030321 0.08437700
v -0.04452940 0.06600769 0.08191706
v -0.06307179 0.02350843 0.08079621
v -0.05005045 -0.00452371 0.08311728
v -0.04452940 -0.00765324 0.08274035
v -0.03295102 -0.01420187 0.08193691
v -0.04452940 0.07486171 0.07286095
v -0.05775522 0.06295612 0.07738405
v -0.03295102 0.01296157 0.06947854
v -0.07236228 0.02227221 0.07190872
v -0.07145947 0.01037776 0.07134333
v -0.06371225 -0.00601608 0.07543991
v -0.07066082 0.03894448 0.07032166
v -0.05268945 -0.02664204 0.07306925
v -0.04452940 -0.02819010 0.07546966
v -0.04452940 -0.01141759 0.08233367
v -0.03295102 -0.02585130 0.08068710
v -0.04452940 0.07508445 0.05538353
v -0.05262386 0.06812374 0.03020890
v -0.06377398 0.05453645 0.05241772
v -0.03295102 0.01296157 -0.01695633
v -0.07041390 0.03316432 0.03561480
v -0.07063382 0.02211629 0.00799016
v -0.06919086 0.01031094 -0.00050057
v -0.06300621 -0.00966906 0.02374166
v -0.06514363 0.04372231 -0.01695633
v -0.06731578 0.03561448 -0.01695633
v -0.05891654 -0.01227515 -0.01001297
v -0.04768153 -0.02626337 0.00372496
v -0.04452940 -0.03188762 0.07072834
v -0.04452940 -0.03188762 0.07073826
v -0.03459075 -0.03826919 0.06788157
v -0.03295102 -0.03629792 0.07127389
v -0.03295102 -0.03036184 0.07884216
v -0.04452940 0.07331364 -0.01695633
v -0.04514286 0.07290158 -0.01695633
v -0.05248110 0.06470465 -0.01695633
v -0.05570268 0.06023866 -0.01695633
v -0.06256251 0.04937997 -0.01695633
v -0.03295102 -0.03213264 -0.01695633
v -0.06935290 0.02477806 -0.01695633
v -0.06849253 0.01274997 -0.01695633
v -0.06762058 0.00793873 -0.01695633
v -0.05965731 -0.01009227 -0.01695633
v -0.06461892 -0.00029160 -0.01695633
v -0.05820663 -0.01225287 -0.01695633
v -0.05271645 -0.01767665 -0.01695633
v -0.04452940 -0.02484896 -0.01695633
v -0.04243056 -0.02667545 -0.01695633
v -0.03340243 -0.03461621 -0.00428966
v -0.03295102 -0.03482782 -0.00369452
v -0.03295102 -0.03848080 0.06065056
v -0.03295102 -0.03869240 0.06805020
v -0.03295102 -0.03473873 -0.00492448
f 1 2 3
f 1 3 4
f 1 4 5
f 1 5 6
f 1 6 2
f 2 7 8
f 2 8 3
f 2 6 9
f 2 9 7
f 3 10 11
f 3 11 12
f 3 12 4
f 3 8 13
f 3 13 10
f 4 12 14
f 4 14 15
f 4 15 16
f 4 16 5
f 5 16 17
f 5 17 6
f 6 17 34
f 6 34 33
f 6 33 53
f 6 53 52
f 6 52 51
f 6 51 54
f 6 54 40
f 6 40 21
f 6 21 9
f 7 18 8
f 7 9 18
f 8 18 19
f 8 19 20
f 8 20 13
f 9 21 18
f 10 13 22
f 10 22 23
f 10 23 11
f 11 23 24
f 11 24 25
f 11 25 12
f 12 25 14
f 13 20 26
f 13 26 27
f 13 27 22
f 14 25 28
f 14 28 29
f 14 29 30
f 14 30 31
f 14 31 15
f 15 31 32
f 15 32 33
f 15 33 34
f 15 34 16
f 16 34 17
f 18 21 35
f 18 35 36
f 18 36 19
f 19 37 20
f 19 36 37
f 20 38 39
f 20 39 26
f 20 37 38
f 21 40 49
f 21 49 48
f 21 48 47
f 21 47 46
f 21 46 44
f 21 44 45
f 21 45 43
f 21 43 42
f 21 42 41
f 21 41 27
f 21 27 26
f 21 26 39
f 21 39 38
f 21 38 37
f 21 37 36
f 21 36 35
f 22 27 41
f 22 41 23
f 23 41 42
f 23 42 24
f 24 42 43
f 24 43 25
f 25 44 28
f 25 43 45
f 25 45 44
f 28 44 46
f 28 46 29
f 29 46 47
f 29 47 48
f 29 48 49
f 29 49 50
f 29 50 32
f 29 32 30
f 30 32 31
f 32 50 51
f 32 51 52
f 32 52 53
f 32 53 33
f 40 54 49
f 49 54 50
f 50 54 51

