# https://github.com/mikedh/trimesh
v -0.04452629 0.01295350 -0.01695633
v -0.04452629 0.07332002 -0.01695633
v -0.03294716 0.01295350 -0.01695633
v -0.04452629 0.01295350 0.07218464
v -0.03810024 0.07763287 -0.01695633
v -0.04452629 0.07508009 0.05538206
v -0.03946729 0.07941982 0.07112333
v -0.03294716 0.08048124 -0.01695633
v -0.03294716 0.01295350 0.06948671
v -0.04452629 0.04032870 0.08437494
v -0.03317614 0.08102538 -0.00293103
v -0.03294716 0.08097835 -0.00658118
v -0.04452629 0.07486512 0.07285913
v -0.03294716 0.08062231 0.07182756
v -0.03294716 0.08158296 0.06839563
v -0.03514397 0.08070964 0.02783733
v -0.04035826 0.07706185 0.07302774
v -0.03984476 0.07735072 0.07302774
v -0.03294716 0.05098992 0.08428568
v -0.03294716 0.06607146 0.08334338
v -0.04179445 0.06664920 0.08285735
v -0.04452629 0.06602444 0.08192498
v -0.03294716 0.08107241 -0.00267314
v -0.03294716 0.08144861 0.03137837
v -0.03294716 0.06889296 0.08314501
f 1 2 5
f 1 5 8
f 1 8 3
f 1 3 9
f 1 9 4
f 1 4 10
f 1 10 22
f 1 22 13
f 1 13 6
f 1 6 2
f 2 6 7
f 2 7 5
f 3 8 12
f 3 12 23
f 3 23 24
f 3 24 15
f 3 15 14
f 3 14 25
f 3 25 20
f 3 20 19
f 3 19 9
f 4 9 10
f 5 7 11
f 5 11 12
f 5 12 8
f 6 13 7
f 7 14 15
f 7 15 16
f 7 16 11
f 7 13 17
f 7 17 18
f 7 18 14
f 9 19 10
f 10 19 20
f 10 20 21
f 10 21 22
f 11 23 12
f 11 16 24
f 11 24 23
f 13 22 17
f 14 18 21
f 14 21 25
f 15 24 16
f 17 22 18
f 18 22 21
f 20 25 21

