# https://github.com/mikedh/trimesh
v -0.01098942 -0.04018105 -0.05245912
v -0.01008462 -0.03605685 -0.05121409
v -0.00579736 -0.03605685 -0.05591913
v -0.00403229 -0.03605685 -0.05785371
v -0.01057921 -0.04170353 -0.05263019
v -0.01057921 -0.04170353 -0.05262842
v -0.01004946 -0.04170353 -0.05181721
v -0.00139759 -0.03605685 -0.05121409
v 0.00229897 -0.06163843 -0.04340173
v 0.01153451 -0.03605685 -0.05845330
v 0.01162124 -0.03743409 -0.06141424
v 0.00865836 -0.04170353 -0.06026267
v -0.00516212 -0.06163843 -0.05487690
v 0.01152982 -0.03605685 -0.05238506
v 0.00829504 -0.06163843 -0.04517935
v 0.01295500 -0.05999075 -0.04755656
v 0.01267840 -0.06163843 -0.04765179
v 0.01186736 -0.04170353 -0.05124583
f 1 2 3
f 1 3 4
f 1 4 5
f 1 5 6
f 1 6 7
f 1 7 2
f 2 8 14
f 2 14 10
f 2 10 4
f 2 4 3
f 2 7 9
f 2 9 8
f 4 10 11
f 4 11 12
f 4 12 13
f 4 13 5
f 5 13 6
f 6 13 9
f 6 9 7
f 8 9 14
f 9 13 17
f 9 17 15
f 9 15 14
f 10 14 11
f 11 16 17
f 11 17 12
f 11 14 18
f 11 18 16
f 12 17 13
f 14 15 18
f 15 17 16
f 15 16 18

