# https://github.com/mikedh/trimesh
v 0.04890751 0.05793872 0.07276351
v 0.04832651 0.05920858 0.07265509
v 0.04735949 0.05793872 0.07441933
v 0.04877493 0.05793872 0.06521376
v 0.02604978 0.07917336 0.07516839
v 0.04616240 0.05871400 -0.00192582
v 0.04239177 0.06527179 0.02799722
v 0.03469454 0.07322776 0.05432279
v 0.04090223 0.05793872 0.07962334
v 0.04660302 0.05793872 -0.00131474
v 0.00907220 0.08517242 0.02561205
v 0.00907220 0.08524727 0.03016556
v 0.00907220 0.08497458 0.07550350
v 0.00907220 0.06834350 0.08373332
v 0.02770308 0.06130718 0.08352634
v 0.02276656 0.07899959 -0.01475842
v 0.04654063 0.05793872 -0.00314797
v 0.04625598 0.05793872 -0.01150592
v 0.04601032 0.05793872 -0.01695633
v 0.04503550 0.05937165 -0.01695633
v 0.04104651 0.06459276 -0.01695633
v 0.03465554 0.07053033 -0.01695633
v 0.03223017 0.07271448 -0.01695633
v 0.02305121 0.07875096 -0.01695633
v 0.03475303 0.05793872 0.08223519
v 0.00907220 0.08516440 0.02514882
v 0.02796434 0.05793872 0.08325037
v 0.02969173 0.05793872 0.08342778
v 0.00907220 0.06008010 0.07161035
v 0.00907610 0.05793872 0.07098942
v 0.02273147 0.07892741 -0.01695633
v 0.02102357 0.07965189 -0.01695633
v 0.00907220 0.08509222 0.02115711
v 0.00907220 0.05793872 -0.01695633
v 0.00907220 0.05793872 0.04327413
v 0.01359149 0.08260063 -0.01695633
v 0.00907220 0.08317273 -0.01695633
f 1 2 3
f 1 3 9
f 1 9 25
f 1 25 28
f 1 28 27
f 1 27 30
f 1 30 35
f 1 35 34
f 1 34 19
f 1 19 18
f 1 18 17
f 1 17 10
f 1 10 4
f 1 4 2
f 2 5 3
f 2 4 6
f 2 6 7
f 2 7 8
f 2 8 5
f 3 5 9
f 4 10 6
f 5 11 12
f 5 12 13
f 5 13 14
f 5 14 15
f 5 15 9
f 5 8 16
f 5 16 11
f 6 17 18
f 6 18 19
f 6 19 20
f 6 20 21
f 6 21 7
f 6 10 17
f 7 21 22
f 7 22 8
f 8 22 23
f 8 23 24
f 8 24 16
f 9 15 25
f 11 26 33
f 11 33 37
f 11 37 34
f 11 34 35
f 11 35 29
f 11 29 14
f 11 14 13
f 11 13 12
f 11 16 26
f 14 27 28
f 14 28 15
f 14 29 30
f 14 30 27
f 15 28 25
f 16 24 31
f 16 31 32
f 16 32 33
f 16 33 26
f 19 34 37
f 19 37 36
f 19 36 32
f 19 32 31
f 19 31 24
f 19 24 23
f 19 23 22
f 19 22 21
f 19 21 20
f 29 35 30
f 32 36 33
f 33 36 37

