# https://github.com/mikedh/trimesh
v 0.00846452 -0.04392154 0.04906518
v -0.01271725 -0.03901188 -0.01695633
v -0.01071422 -0.03906533 -0.01695633
v 0.00240145 -0.03766155 -0.01695633
v 0.00901925 -0.04169830 0.04698568
v 0.00966094 -0.04169830 0.05329187
v 0.00847352 -0.04392154 0.05169598
v 0.00611965 -0.04392154 0.05187008
v -0.01218950 -0.04390729 0.07011159
v -0.01957194 -0.03971377 0.00444795
v -0.01957194 -0.03817104 -0.01695633
v 0.00240145 -0.00752666 -0.01695633
v 0.00847352 -0.04392154 0.05181204
v 0.00240145 -0.00752666 0.08166971
v 0.00820964 -0.04169830 0.06306065
v 0.00343895 -0.04169830 0.07313895
v -0.01504712 -0.04169830 0.07184289
v -0.02097226 -0.04169830 0.06924111
v -0.01957194 -0.04081114 0.02413060
v -0.01957194 -0.00752666 -0.01695633
v -0.01030941 -0.00752666 0.08185348
v -0.00883112 -0.02206323 0.08137954
v 0.00240145 -0.02513800 0.08111840
v 0.00240145 -0.03946793 0.07501533
v -0.01957194 -0.03360342 0.07859399
v -0.01957194 -0.03820311 0.07457041
v -0.01957194 -0.02699071 0.08068316
v -0.01957194 -0.02006089 0.08136020
v -0.01957194 -0.00752666 0.07620499
v -0.01451338 -0.00752666 0.07957087
f 1 2 3
f 1 3 4
f 1 4 5
f 1 5 6
f 1 6 7
f 1 7 13
f 1 13 8
f 1 8 9
f 1 9 2
f 2 10 11
f 2 11 20
f 2 20 12
f 2 12 4
f 2 4 3
f 2 9 10
f 4 12 5
f 5 12 6
f 6 13 7
f 6 12 14
f 6 14 15
f 6 15 13
f 8 13 9
f 9 16 17
f 9 17 18
f 9 18 19
f 9 19 10
f 9 13 16
f 10 19 18
f 10 18 11
f 11 18 20
f 12 20 29
f 12 29 30
f 12 30 21
f 12 21 14
f 13 15 16
f 14 21 22
f 14 22 23
f 14 23 15
f 15 23 16
f 16 23 24
f 16 24 17
f 17 24 25
f 17 25 26
f 17 26 18
f 18 26 25
f 18 25 27
f 18 27 28
f 18 28 29
f 18 29 20
f 21 30 28
f 21 28 22
f 22 28 27
f 22 27 23
f 23 27 25
f 23 25 24
f 28 30 29

