# https://github.com/mikedh/trimesh
v 0.00240383 0.08556961 0.02701461
v 0.00069106 0.08622682 0.03880686
v 0.00069106 0.08722224 0.07395589
v 0.00069106 0.08681208 0.07542126
v 0.00069106 0.08660340 0.07561928
v 0.00069106 0.08507310 0.07706485
v 0.00069106 0.07151147 0.08381742
v 0.00240383 0.06312601 0.02701461
v 0.00240383 0.08445907 -0.00811461
v -0.01468231 0.08763000 0.06076758
v -0.03294490 0.08062132 0.07182714
v -0.03294490 0.06890181 0.08314414
v -0.00867552 0.07504700 0.08391644
v -0.01768225 0.06507606 0.08417386
v -0.01979639 0.06312601 0.08419366
v -0.01535012 0.06312601 0.08407486
v -0.00439880 0.06312601 0.08370851
v -0.00423271 0.06312601 0.08334216
v 0.00055958 0.06312601 0.07273805
v 0.00069106 0.06312601 0.07224300
v 0.00240383 0.06312601 -0.01695632
v 0.00240383 0.08401532 -0.01695632
v 0.00097133 0.08419522 -0.01695632
v -0.03294490 0.08145123 0.03138101
v -0.03294490 0.08158076 0.06840135
v -0.00722919 0.08423839 -0.01695632
v -0.01359929 0.08419282 -0.01695632
v -0.02524610 0.08218520 -0.01695632
v -0.03229094 0.08083719 -0.01695632
v -0.03294490 0.08097631 -0.00657994
v -0.03294490 0.08106026 -0.00333236
v -0.03294490 0.08107466 -0.00266899
v -0.03294490 0.06607867 0.08334216
v -0.03294490 0.06312601 0.08352039
v -0.03294490 0.06312601 -0.01695632
v -0.03294490 0.08047980 -0.01695632
f 1 2 3
f 1 3 4
f 1 4 5
f 1 5 6
f 1 6 7
f 1 7 8
f 1 8 21
f 1 21 22
f 1 22 9
f 1 9 2
f 2 10 3
f 2 9 10
f 3 10 4
f 4 10 11
f 4 11 12
f 4 12 5
f 5 12 6
f 6 12 13
f 6 13 7
f 7 13 14
f 7 14 15
f 7 15 16
f 7 16 17
f 7 17 18
f 7 18 19
f 7 19 20
f 7 20 8
f 8 20 19
f 8 19 18
f 8 18 17
f 8 17 16
f 8 16 15
f 8 15 34
f 8 34 35
f 8 35 21
f 9 22 23
f 9 23 10
f 10 24 25
f 10 25 11
f 10 23 26
f 10 26 27
f 10 27 28
f 10 28 29
f 10 29 30
f 10 30 31
f 10 31 32
f 10 32 24
f 11 25 24
f 11 24 32
f 11 32 31
f 11 31 30
f 11 30 36
f 11 36 35
f 11 35 34
f 11 34 33
f 11 33 12
f 12 33 14
f 12 14 13
f 14 33 15
f 15 33 34
f 21 35 36
f 21 36 29
f 21 29 28
f 21 28 27
f 21 27 26
f 21 26 23
f 21 23 22
f 29 36 30

