# https://github.com/mikedh/trimesh
v 0.00240383 0.06312601 0.07262627
v 0.00240383 0.05091948 0.07241814
v 0.00240383 0.06312601 -0.01695633
v -0.00439516 0.06312601 0.08370640
v -0.00001474 0.05091948 0.08348837
v 0.00031742 0.05091948 0.08274507
v 0.00240383 0.05091948 -0.01695633
v -0.03294402 0.06312601 -0.01695633
v -0.01534968 0.06312601 0.08408301
v -0.00074827 0.05091948 0.08350819
v -0.03294402 0.05091948 -0.01695633
v -0.03294402 0.06312601 0.08352801
v -0.01979584 0.06312601 0.08418212
v -0.02391329 0.05932760 0.08422176
v -0.03294402 0.05099715 0.08429113
v -0.01624237 0.05091948 0.08371631
v -0.03294402 0.05091948 0.07293350
v -0.02391329 0.06312601 0.08398390
v -0.02533883 0.05091948 0.07813660
v -0.02066777 0.05091948 0.08131793
f 1 2 7
f 1 7 3
f 1 3 8
f 1 8 12
f 1 12 18
f 1 18 13
f 1 13 9
f 1 9 4
f 1 4 5
f 1 5 6
f 1 6 2
f 2 6 5
f 2 5 10
f 2 10 16
f 2 16 20
f 2 20 19
f 2 19 17
f 2 17 11
f 2 11 7
f 3 7 11
f 3 11 8
f 4 9 5
f 5 9 10
f 8 11 17
f 8 17 15
f 8 15 12
f 9 13 14
f 9 14 15
f 9 15 10
f 10 15 16
f 12 15 18
f 13 18 14
f 14 18 15
f 15 17 19
f 15 19 20
f 15 20 16

