# https://github.com/mikedh/trimesh
v 0.05978500 0.01595040 0.06907660
v 0.05878722 0.02164631 0.04038280
v 0.05952687 0.02164631 0.07065670
v 0.05388273 0.01000934 0.07824699
v 0.05414583 -0.00091647 0.07292506
v 0.05516346 -0.00091647 0.07088935
v 0.05570454 0.00947487 0.00988594
v 0.05505425 0.01523483 -0.01695633
v 0.05580879 0.02164631 -0.01695633
v 0.05611160 0.02164631 0.07663781
v 0.04747910 -0.00091647 0.07877045
v 0.05116243 -0.00091647 0.07598832
v 0.04967321 0.02164631 0.08101943
v 0.04618349 0.02164631 0.08207606
v 0.04345822 -0.00091647 0.07999188
v 0.05459259 -0.00091647 0.05607714
v 0.05414087 0.00898677 -0.01695633
v 0.00907220 0.02164631 -0.01695633
v 0.04218742 -0.00091647 0.08036994
v 0.03077009 0.02164631 0.08029239
v 0.02384523 -0.00091647 0.08010820
v 0.05125179 -0.00091647 -0.00537218
v 0.05080502 -0.00039966 -0.01695633
v 0.00907220 0.02164631 0.06051693
v 0.00907220 -0.00091647 -0.01695633
v 0.00907220 -0.00091647 0.06807813
v 0.00907220 0.02119135 0.06080775
v 0.05052704 -0.00091647 -0.01695633
f 1 2 3
f 1 3 4
f 1 4 5
f 1 5 6
f 1 6 7
f 1 7 8
f 1 8 9
f 1 9 2
f 2 9 18
f 2 18 24
f 2 24 20
f 2 20 14
f 2 14 13
f 2 13 10
f 2 10 3
f 3 10 4
f 4 11 12
f 4 12 5
f 4 10 13
f 4 13 14
f 4 14 15
f 4 15 11
f 5 12 11
f 5 11 15
f 5 15 19
f 5 19 21
f 5 21 26
f 5 26 25
f 5 25 28
f 5 28 22
f 5 22 16
f 5 16 6
f 6 16 7
f 7 17 8
f 7 16 17
f 8 17 23
f 8 23 28
f 8 28 25
f 8 25 18
f 8 18 9
f 14 19 15
f 14 20 21
f 14 21 19
f 16 22 17
f 17 22 23
f 18 25 26
f 18 26 27
f 18 27 24
f 20 26 21
f 20 24 27
f 20 27 26
f 22 28 23

