# https://github.com/mikedh/trimesh
v 0.00069258 0.07150010 0.08382432
v 0.00240607 0.07085648 0.08380459
v 0.00907114 0.08496561 0.07550814
v 0.00069258 0.08506657 0.07706681
v 0.00069258 0.06312044 0.07224283
v 0.00240607 -0.04170106 0.07305177
v 0.00240607 -0.03944209 0.07500502
v 0.00240607 -0.02511842 0.08112131
v 0.00240486 0.03367804 0.08292661
v 0.00907114 0.06833248 0.08372567
v 0.00907114 0.08523063 0.03018842
v 0.00264860 0.08716148 0.07563638
v 0.00240607 0.08690909 0.07581396
v 0.01314038 -0.02162269 0.08074645
v 0.01314038 -0.00091331 0.06822778
v 0.00240486 0.08690909 0.07581396
v 0.00069258 0.08659359 0.07562652
v 0.00069258 0.06312044 0.02702176
v 0.00240607 -0.04170106 0.03920501
v 0.00344319 -0.04170106 0.07312082
v 0.00822171 -0.04100697 0.07403826
v 0.00907114 -0.03518916 0.07696816
v 0.01022890 -0.02726381 0.08093389
v 0.00907114 -0.02694832 0.08096347
v 0.00907114 -0.01825315 0.08123970
v 0.01314038 -0.02595134 0.08077605
v 0.01314038 -0.02427288 0.08076618
v 0.00825827 0.08552089 0.02801812
v 0.01314038 -0.00091331 -0.01695633
v 0.00907114 0.08516753 0.02562093
v 0.00240607 0.08717411 0.07541936
v 0.00240607 0.08712363 0.07560680
v 0.00069258 0.08680813 0.07541936
v 0.00069258 0.08558399 0.02702176
v 0.00240486 0.02827669 -0.01695633
v 0.00240607 -0.03765006 -0.01695633
v 0.00240607 -0.04134770 0.03093816
v 0.00434624 -0.04170106 0.03800149
v 0.00820952 -0.04170106 0.06304867
v 0.00907114 -0.04066623 0.07394948
v 0.00907114 -0.04028763 0.07419610
v 0.01314038 -0.03679190 0.07487678
v 0.00907114 0.08507919 0.02116196
v 0.00240607 0.08444819 -0.00811730
v 0.00069258 0.08621499 0.03881041
v 0.00069258 0.08722458 0.07394948
v 0.00907114 0.08316095 -0.01695633
v 0.01314038 -0.03531536 -0.01695633
v 0.00240607 0.08400649 -0.01695633
v 0.00240486 0.05638137 -0.01695633
v 0.00243776 -0.03765006 -0.01695633
v 0.00901874 -0.04170106 0.04697861
v 0.00907114 -0.04170106 0.05724806
v 0.01314038 -0.03902563 0.07346609
v 0.01314038 -0.03871013 0.07367325
v 0.01314038 -0.03831891 0.02196102
v 0.01215567 -0.03583278 -0.01695633
v 0.00907114 -0.04170106 0.04747187
v 0.01300388 -0.03840726 0.02225697
v 0.01314038 -0.03836939 0.02263184
v 0.00965977 -0.04170106 0.05328234
v 0.01314038 -0.04008571 0.05617278
f 1 2 3
f 1 3 4
f 1 4 17
f 1 17 33
f 1 33 46
f 1 46 45
f 1 45 34
f 1 34 18
f 1 18 5
f 1 5 6
f 1 6 7
f 1 7 8
f 1 8 9
f 1 9 2
f 2 9 10
f 2 10 3
f 3 11 12
f 3 12 13
f 3 13 4
f 3 10 14
f 3 14 15
f 3 15 11
f 4 13 16
f 4 16 17
f 5 18 19
f 5 19 6
f 6 19 38
f 6 38 52
f 6 52 58
f 6 58 61
f 6 61 53
f 6 53 39
f 6 39 20
f 6 20 7
f 7 20 21
f 7 21 22
f 7 22 23
f 7 23 24
f 7 24 8
f 8 24 25
f 8 25 9
f 9 25 10
f 10 25 23
f 10 23 26
f 10 26 27
f 10 27 14
f 11 28 12
f 11 15 29
f 11 29 30
f 11 30 28
f 12 31 32
f 12 32 16
f 12 16 13
f 12 28 31
f 14 27 26
f 14 26 42
f 14 42 55
f 14 55 54
f 14 54 62
f 14 62 60
f 14 60 56
f 14 56 48
f 14 48 29
f 14 29 15
f 16 33 17
f 16 32 33
f 18 34 50
f 18 50 35
f 18 35 36
f 18 36 37
f 18 37 19
f 19 37 38
f 20 39 21
f 21 40 41
f 21 41 22
f 21 39 40
f 22 41 23
f 23 41 26
f 23 25 24
f 26 41 42
f 28 30 43
f 28 43 44
f 28 44 45
f 28 45 46
f 28 46 31
f 29 47 43
f 29 43 30
f 29 48 57
f 29 57 51
f 29 51 36
f 29 36 35
f 29 35 50
f 29 50 49
f 29 49 47
f 31 46 32
f 32 46 33
f 34 45 49
f 34 49 50
f 36 51 37
f 37 51 38
f 38 51 52
f 39 53 54
f 39 54 40
f 40 54 55
f 40 55 41
f 41 55 42
f 43 47 49
f 43 49 44
f 44 49 45
f 48 56 57
f 51 57 52
f 52 57 59
f 52 59 60
f 52 60 58
f 53 61 54
f 54 61 62
f 56 60 59
f 56 59 57
f 58 60 61
f 60 62 61

