# https://github.com/mikedh/trimesh
v 0.05516437 -0.00091647 0.07089199
v 0.05422654 -0.00433345 0.07125559
v 0.05459262 -0.00091647 0.05607996
v 0.05414427 -0.00091647 0.07292051
v 0.05116625 -0.00091647 0.07599199
v 0.04737792 -0.01614139 0.07284396
v 0.04715580 -0.00979448 0.00476414
v 0.04881345 -0.00413786 -0.01695633
v 0.05052869 -0.00091647 -0.01695633
v 0.05125263 -0.00091647 -0.00536889
v 0.04747664 -0.00091647 0.07877642
v 0.03989174 -0.01386341 0.07939838
v 0.03136901 -0.03168462 0.07132257
v 0.03981359 -0.02009911 0.01584446
v 0.04059511 -0.01645970 -0.01695633
v 0.04544056 -0.01023934 -0.01695633
v 0.01314305 -0.00091647 -0.01695633
v 0.04345796 -0.00091647 0.07999163
v 0.04218695 -0.00091647 0.08037436
v 0.01314305 -0.02595898 0.08078581
v 0.01314305 -0.03680434 0.07489161
v 0.01314305 -0.03904014 0.07347548
v 0.01314305 -0.04009476 0.05618522
v 0.01314305 -0.03837285 0.02261895
v 0.01314305 -0.03832683 0.02194916
v 0.02772875 -0.02812958 -0.00914844
v 0.02882700 -0.02665311 -0.01695633
v 0.03674508 -0.02017197 -0.01695633
v 0.01314305 -0.00091647 0.06825108
v 0.01314305 -0.03531636 -0.01695633
v 0.01314305 -0.02163694 0.08076667
v 0.02384581 -0.00091647 0.08010645
v 0.02696780 -0.02799536 -0.01695633
f 1 2 3
f 1 3 10
f 1 10 9
f 1 9 17
f 1 17 29
f 1 29 32
f 1 32 19
f 1 19 18
f 1 18 11
f 1 11 5
f 1 5 4
f 1 4 2
f 2 4 5
f 2 5 6
f 2 6 7
f 2 7 8
f 2 8 9
f 2 9 10
f 2 10 3
f 5 11 12
f 5 12 6
f 6 12 13
f 6 13 14
f 6 14 15
f 6 15 16
f 6 16 7
f 7 16 8
f 8 16 15
f 8 15 28
f 8 28 27
f 8 27 33
f 8 33 30
f 8 30 17
f 8 17 9
f 11 18 12
f 12 18 19
f 12 19 20
f 12 20 21
f 12 21 13
f 13 21 22
f 13 22 23
f 13 23 24
f 13 24 25
f 13 25 26
f 13 26 27
f 13 27 28
f 13 28 14
f 14 28 15
f 17 30 25
f 17 25 24
f 17 24 23
f 17 23 22
f 17 22 21
f 17 21 20
f 17 20 31
f 17 31 29
f 19 31 20
f 19 32 31
f 25 30 33
f 25 33 26
f 26 33 27
f 29 31 32

