# https://github.com/mikedh/trimesh
v -0.01957540 -0.04169772 0.05654117
v -0.03294490 -0.03860676 0.06495500
v -0.02472819 -0.03991473 0.03819343
v -0.01957540 -0.04080790 0.02411552
v -0.01957540 -0.04169772 0.06984450
v -0.02097321 -0.04169772 0.06924420
v -0.03294490 -0.03869039 0.06804361
v -0.03294490 -0.03848633 0.06066579
v -0.02472819 -0.03953672 0.02446408
v -0.02167735 -0.03992477 0.01102520
v -0.01957540 -0.03971068 0.00446068
v -0.01957540 -0.03820200 0.07457909
v -0.02472819 -0.03422790 0.07770644
v -0.02472819 -0.04075438 0.06887628
v -0.03294490 -0.03629858 0.07128715
v -0.03294490 -0.03483338 -0.00371109
v -0.02472819 -0.03854655 0.00702646
v -0.02472819 -0.03694086 -0.01655936
v -0.02213282 -0.03785409 -0.01694664
v -0.01957540 -0.03816854 -0.01694664
v -0.01957540 -0.03425466 0.07803563
v -0.02472819 -0.03251182 0.07920718
v -0.02868603 -0.03117374 0.08008826
v -0.03294490 -0.03036755 0.07885862
v -0.03294490 -0.03474641 -0.00495041
v -0.03294490 -0.03213047 -0.01695633
v -0.02472819 -0.03685388 -0.01695633
v -0.02445857 -0.03700776 -0.01694664
v -0.01957540 -0.00752991 -0.01694664
v -0.01957540 -0.03360235 0.07859720
v -0.02472819 -0.03222748 0.07944923
v -0.02472819 -0.02935396 0.08035936
v -0.03294490 -0.02585823 0.08069823
v -0.03294490 -0.00752657 -0.01695633
v -0.02472819 -0.00752657 -0.01695633
v -0.01957540 -0.00752991 0.07620570
v -0.01957540 -0.02698890 0.08067887
v -0.03294490 -0.01421026 0.08195692
v -0.03294490 -0.00752657 0.06792743
v -0.02472819 -0.00752657 0.07277820
v -0.03294490 -0.00951361 0.07916845
v -0.01957540 -0.02006101 0.08135663
f 1 2 3
f 1 3 4
f 1 4 11
f 1 11 20
f 1 20 29
f 1 29 36
f 1 36 42
f 1 42 37
f 1 37 30
f 1 30 21
f 1 21 12
f 1 12 5
f 1 5 6
f 1 6 2
f 2 6 7
f 2 7 15
f 2 15 24
f 2 24 33
f 2 33 38
f 2 38 41
f 2 41 39
f 2 39 34
f 2 34 26
f 2 26 25
f 2 25 16
f 2 16 8
f 2 8 9
f 2 9 3
f 3 9 4
f 4 9 10
f 4 10 11
f 5 12 6
f 6 12 13
f 6 13 14
f 6 14 7
f 7 14 15
f 8 16 9
f 9 16 17
f 9 17 10
f 10 17 18
f 10 18 19
f 10 19 11
f 11 19 20
f 12 21 13
f 13 15 14
f 13 21 22
f 13 22 23
f 13 23 15
f 15 23 24
f 16 25 18
f 16 18 17
f 18 25 26
f 18 26 27
f 18 27 28
f 18 28 19
f 19 28 27
f 19 27 20
f 20 27 35
f 20 35 29
f 21 30 22
f 22 31 23
f 22 30 31
f 23 31 32
f 23 32 33
f 23 33 24
f 26 34 35
f 26 35 27
f 29 35 40
f 29 40 36
f 30 37 32
f 30 32 31
f 32 37 33
f 33 37 38
f 34 39 40
f 34 40 35
f 36 40 39
f 36 39 41
f 36 41 38
f 36 38 42
f 37 42 38

