# https://github.com/mikedh/trimesh
v 0.05952888 0.02164986 0.07064832
v 0.05878309 0.02164986 0.04038221
v 0.05826450 0.02461621 0.02542604
v 0.05887693 0.03605528 0.07463794
v 0.05611604 0.02164986 0.07663275
v 0.05580982 0.02164986 -0.01695633
v 0.05621975 0.02511356 -0.01695633
v 0.05502946 0.03409785 -0.01695633
v 0.04890512 0.05793872 0.07276104
v 0.04735922 0.05793872 0.07442175
v 0.04399083 0.05352295 0.08055359
v 0.04733452 0.02811543 0.08255823
v 0.05285137 0.04327042 -0.01695633
v 0.05228338 0.04794552 0.00657851
v 0.04967066 0.02164986 0.08101544
v 0.00907220 0.02164986 -0.01695633
v 0.04877177 0.05793872 0.06521418
v 0.04090396 0.05793872 0.07962988
v 0.03474998 0.05793872 0.08224377
v 0.02969740 0.05793872 0.08342297
v 0.04618374 0.02164986 0.08206689
v 0.05078687 0.04923152 -0.01695633
v 0.04660355 0.05793872 -0.00131229
v 0.04625782 0.05793872 -0.01150253
v 0.00907220 0.05793872 -0.01695633
v 0.00907220 0.02164986 0.06051703
v 0.02876393 0.05793872 0.08333453
v 0.02796382 0.05793872 0.08325592
v 0.03077410 0.02164986 0.08029809
v 0.04630721 0.05749821 -0.01695633
v 0.04601088 0.05793872 -0.01695633
v 0.00907220 0.05793872 0.04328108
v 0.00907220 0.02190920 0.06059564
v 0.00907714 0.05793872 0.07099224
f 1 2 3
f 1 3 4
f 1 4 5
f 1 5 15
f 1 15 21
f 1 21 29
f 1 29 26
f 1 26 16
f 1 16 6
f 1 6 2
f 2 6 7
f 2 7 3
f 3 7 8
f 3 8 4
f 4 9 10
f 4 10 11
f 4 11 12
f 4 12 5
f 4 8 13
f 4 13 14
f 4 14 9
f 5 12 15
f 6 16 25
f 6 25 31
f 6 31 30
f 6 30 22
f 6 22 13
f 6 13 8
f 6 8 7
f 9 14 17
f 9 17 23
f 9 23 24
f 9 24 31
f 9 31 25
f 9 25 32
f 9 32 34
f 9 34 28
f 9 28 27
f 9 27 20
f 9 20 19
f 9 19 18
f 9 18 10
f 10 18 11
f 11 19 12
f 11 18 19
f 12 19 20
f 12 20 21
f 12 21 15
f 13 22 14
f 14 23 17
f 14 22 24
f 14 24 23
f 16 26 33
f 16 33 32
f 16 32 25
f 20 27 21
f 21 27 28
f 21 28 29
f 22 30 24
f 24 30 31
f 26 29 33
f 28 34 29
f 29 34 33
f 32 33 34

