# https://github.com/mikedh/trimesh
v 0.01551600 -0.08036739 0.01347676
v 0.01011662 -0.08252881 -0.02677783
v 0.01396231 -0.07328191 -0.02246412
v 0.01267958 -0.06163843 -0.04764087
v 0.01244839 -0.06626188 0.04793605
v 0.01330354 -0.07106732 0.04710959
v -0.00624561 -0.08155136 0.03249538
v -0.00673036 -0.08252268 -0.01525780
v 0.00763320 -0.08169042 -0.02839043
v 0.01017628 -0.08173335 -0.02839043
v 0.01017876 -0.08173335 -0.02839043
v 0.01095685 -0.07192617 -0.04824560
v -0.00515927 -0.06163843 -0.05487742
v 0.00829196 -0.06163843 -0.04517157
v 0.00709624 -0.06626188 0.04808724
v 0.00230342 -0.06163843 -0.04339771
v -0.00834371 -0.07650258 0.04167714
v -0.00643951 -0.08193784 0.01347676
v -0.00988000 -0.07477262 -0.02072049
v -0.00871411 -0.07560693 -0.02839043
v -0.00702867 -0.07914046 -0.02839043
v -0.00724494 -0.07665595 -0.03802573
v -0.00516175 -0.06164252 -0.05486735
v -0.00822687 -0.06626188 0.04575904
v -0.00954689 -0.07225130 0.02636750
v -0.00963887 -0.07294042 0.01347676
f 1 2 3
f 1 3 4
f 1 4 5
f 1 5 6
f 1 6 7
f 1 7 2
f 2 7 8
f 2 8 9
f 2 9 10
f 2 10 11
f 2 11 12
f 2 12 3
f 3 12 4
f 4 12 13
f 4 13 16
f 4 16 14
f 4 14 5
f 5 15 6
f 5 14 16
f 5 16 15
f 6 15 17
f 6 17 7
f 7 17 18
f 7 18 8
f 8 18 17
f 8 17 19
f 8 19 20
f 8 20 21
f 8 21 9
f 9 21 22
f 9 22 12
f 9 12 10
f 10 12 11
f 12 22 13
f 13 22 23
f 13 23 24
f 13 24 16
f 15 16 24
f 15 24 17
f 17 24 25
f 17 25 26
f 17 26 19
f 19 26 24
f 19 24 23
f 19 23 20
f 20 23 22
f 20 22 21
f 24 26 25

