# https://github.com/mikedh/trimesh
v -0.00822727 -0.06626160 0.04577314
v -0.00600054 -0.06626160 0.03778949
v 0.00709666 -0.06626160 0.04808689
v -0.00808962 -0.05451832 0.05045961
v 0.00901771 -0.04711509 0.04285580
v -0.00258758 -0.06626160 0.03613656
v 0.01245294 -0.06626160 0.04794640
v 0.00611892 -0.04392729 0.05187318
v 0.00846710 -0.04392729 0.04906165
v 0.00847520 -0.04392729 0.05170147
v 0.01244687 -0.06626160 0.04626225
v 0.01131934 -0.06626160 0.03415582
v 0.00847520 -0.04392729 0.05181074
f 1 2 6
f 1 6 12
f 1 12 11
f 1 11 7
f 1 7 3
f 1 3 4
f 1 4 2
f 2 4 5
f 2 5 6
f 3 7 8
f 3 8 4
f 4 8 5
f 5 8 9
f 5 9 10
f 5 10 7
f 5 7 11
f 5 11 12
f 5 12 6
f 7 10 13
f 7 13 8
f 8 13 10
f 8 10 9

