# https://github.com/mikedh/trimesh
v -0.03432600 0.11995700 -0.04202800
v -0.02110400 0.11988200 -0.04193300
v -0.04179300 0.11461700 -0.04155300
v -0.04457300 0.08798300 -0.03894800
v -0.04427500 0.11983900 -0.03789000
v -0.00170000 0.11994200 -0.04156200
v 0.04325700 0.11981700 -0.03432000
v -0.04136200 0.08890900 -0.04264200
v -0.04525800 0.03797800 -0.03794900
v -0.04243600 0.01864400 -0.04279900
v 0.04047400 0.11976200 -0.04071700
v 0.04346200 0.09620600 -0.03544200
v 0.04043000 0.05484100 -0.04081200
v 0.04328600 0.07948800 -0.03678900
v 0.04311300 0.04647700 -0.03590800
v 0.04203100 0.00103700 -0.03820800
v -0.04545300 0.11949700 -0.01408700
v 0.04153200 0.11989100 0.04562500
v -0.04632700 0.11982300 0.02345900
v -0.04524000 0.11669400 0.04497100
v -0.04668800 0.07986500 0.01015400
v -0.04616800 0.11994800 0.04114500
v -0.03002800 0.11975000 0.04546100
v -0.04396200 0.08224900 0.04524000
v -0.04695800 0.06536400 0.02232100
v -0.04661300 0.05612000 0.04222100
v -0.04388400 0.05294900 0.04535400
v 0.04247700 0.11989600 0.02057100
v 0.04176900 0.10578500 0.04564400
v 0.04204500 0.09911400 0.04122100
v 0.03963600 0.08611000 0.04569300
v -0.04232600 -0.01013400 -0.04293400
v -0.04638400 0.01124000 -0.01587300
v -0.04704600 -0.04768000 -0.00384900
v -0.04583300 -0.06448200 -0.03778100
v -0.04070200 -0.08365400 -0.04327700
v -0.04149900 -0.05342600 -0.04325800
v -0.04561700 -0.08464300 -0.03950300
v -0.04770800 -0.08429900 0.01283500
v -0.04671000 -0.08427000 0.04286900
v 0.03984800 -0.05296700 -0.04146100
v 0.04201800 -0.06213200 -0.03750900
v 0.02447900 -0.08471600 -0.04197200
v 0.03946100 -0.08519400 -0.04116900
v 0.04185500 -0.08528000 -0.02638100
v -0.02817700 -0.08458100 -0.04306400
v -0.04631800 -0.08459700 -0.03057000
v -0.00841300 -0.08497300 -0.04226100
v -0.03087800 -0.08463900 0.01881400
v 0.01133400 -0.08519100 0.01317700
v -0.04715400 0.01905400 0.01403600
v -0.04636100 0.00871200 0.04317900
v -0.04402200 0.00486900 0.04533200
v -0.04403100 -0.05459600 0.04506700
v -0.04674400 -0.05532400 0.04179600
v 0.04152000 -0.01537600 0.03958900
v 0.03879300 0.02261500 0.04546000
v 0.04124900 -0.08553100 0.00455000
v 0.04152300 -0.04591100 0.03610900
v -0.00426400 -0.08474600 0.04480800
v 0.04102500 -0.08524200 0.02305300
v 0.04070900 -0.08500600 0.04488900
v 0.01702700 -0.08514000 0.03024900
v -0.04226400 -0.08424300 0.04468800
f 34 47 39
f 47 34 33
f 36 37 46
f 37 36 38
f 38 36 46
f 49 47 38
f 20 54 53
f 53 27 20
f 31 18 23
f 23 53 31
f 27 53 23
f 40 55 39
f 39 47 40
f 40 47 49
f 40 54 20
f 20 52 40
f 3 5 1
f 1 8 3
f 1 6 2
f 2 8 1
f 6 8 2
f 47 33 9
f 10 8 37
f 46 44 48
f 48 38 46
f 26 52 20
f 39 55 26
f 55 40 26
f 26 40 52
f 20 27 24
f 24 23 20
f 27 23 24
f 20 23 22
f 1 5 22
f 22 26 20
f 22 23 18
f 22 6 1
f 22 18 6
f 11 7 12
f 6 7 11
f 11 8 6
f 29 18 31
f 31 62 29
f 45 15 59
f 59 62 45
f 59 15 12
f 57 62 31
f 54 62 57
f 31 53 57
f 57 53 54
f 49 38 50
f 12 15 14
f 14 11 12
f 16 41 14
f 42 15 45
f 45 44 42
f 42 14 15
f 16 14 42
f 44 41 42
f 42 41 16
f 54 40 64
f 43 44 46
f 43 41 44
f 46 37 43
f 43 11 41
f 37 8 43
f 8 11 43
f 35 38 47
f 47 9 35
f 35 9 38
f 37 38 32
f 32 10 37
f 38 10 32
f 38 9 4
f 4 10 38
f 4 9 5
f 5 3 4
f 4 3 8
f 8 10 4
f 21 33 51
f 51 34 39
f 51 33 34
f 5 9 17
f 17 33 21
f 17 9 33
f 12 7 28
f 18 29 28
f 6 18 28
f 28 7 6
f 56 29 62
f 62 59 56
f 63 40 49
f 49 50 63
f 41 11 13
f 13 14 41
f 11 14 13
f 60 64 40
f 60 63 62
f 40 63 60
f 60 62 54
f 54 64 60
f 19 17 21
f 19 22 5
f 5 17 19
f 26 22 25
f 39 26 25
f 25 51 39
f 22 19 25
f 21 51 25
f 25 19 21
f 29 56 30
f 30 56 59
f 30 28 29
f 30 59 12
f 12 28 30
f 58 63 50
f 62 63 58
f 58 44 45
f 58 48 44
f 38 48 58
f 58 50 38
f 45 62 61
f 61 58 45
f 62 58 61

