# https://github.com/mikedh/trimesh
v -0.00089000 -0.04961100 -0.06943200
v -0.01472800 -0.04810600 -0.07317000
v -0.01098200 -0.04946300 -0.06977300
v -0.05211800 -0.00303000 -0.07149400
v -0.05070100 -0.00860700 -0.06964200
v -0.01754300 -0.04724200 -0.04445100
v -0.04511200 -0.02440800 -0.07318800
v -0.04808100 -0.01791400 -0.07294800
v -0.04991500 -0.01138900 -0.07326000
v -0.02474700 -0.04348900 -0.07268900
v -0.03097000 -0.04097400 -0.07211100
v -0.02406200 -0.04409000 -0.06976300
v -0.00408900 -0.04958100 -0.07277200
v -0.03653000 -0.03584500 -0.07299300
v -0.04076300 -0.03035700 -0.07267400
v -0.05083700 -0.00275500 -0.07295000
v 0.01234600 -0.04818900 -0.07292700
v 0.03629700 -0.03262500 -0.06081000
v 0.02228300 -0.04369800 -0.07165000
v 0.02732600 -0.04002300 -0.07279700
v 0.03292300 -0.03628200 -0.07275800
v 0.02340800 0.04389900 -0.07157900
v 0.02750400 0.04052000 -0.07272300
v -0.04958500 0.01410000 -0.06712300
v -0.04743900 0.02038700 -0.05716400
v -0.04325600 0.02762300 -0.07306000
v -0.03661400 0.03590200 -0.06961700
v -0.04098900 0.03096900 -0.04202900
v -0.02789300 0.04373700 -0.07122200
v -0.01202600 0.04966100 -0.03355700
v -0.01133000 0.04941900 -0.06905900
v -0.00371300 0.05109200 -0.06883600
v 0.00098500 0.05155400 -0.07076200
v 0.01009700 0.04981100 -0.07228300
v 0.01930600 0.04492100 -0.07291800
v 0.03135200 0.03794500 -0.06812000
v -0.01322700 0.04919600 -0.04117500
v 0.03267400 0.03668900 -0.07239900
v -0.05142600 0.00788200 -0.07257500
v -0.04836300 0.01642100 -0.07291900
v -0.04627600 0.02202000 -0.07298200
v -0.03408400 0.03835100 -0.07326200
v -0.02578100 0.04318900 -0.07296800
v -0.01654200 0.04778100 -0.07283600
v -0.01006300 0.04939500 -0.07326700
v -0.00516800 0.05073000 -0.07183800
v 0.00120200 0.04967900 -0.07303500
v 0.03908900 -0.02899300 -0.07222600
v 0.04338400 -0.02210300 -0.07292900
v 0.04524800 -0.01679400 -0.07197200
v 0.04764700 -0.00972200 -0.07062500
v 0.04727000 0.01221200 -0.07279300
v 0.04114400 0.02648800 -0.07170100
v 0.04507000 0.01957900 -0.07256600
v 0.03765300 0.03129800 -0.06941900
v 0.03587400 0.03363200 -0.03946600
v 0.04882100 -0.00257500 -0.07303300
v 0.04866000 0.00669900 -0.07255200
v 0.03984800 0.02674000 -0.07293300
v 0.03601300 0.03236100 -0.07263300
v -0.03772100 -0.03301300 0.06646100
v -0.04682800 -0.02205800 0.06515200
v -0.04936500 -0.01854500 0.06109100
v -0.04235800 -0.02841400 0.06595200
v -0.04882800 -0.01566900 0.06578800
v -0.05191400 -0.00652700 0.06268000
v -0.04993200 -0.00566300 0.06617000
v -0.05209600 0.00967300 0.06337100
v -0.04695300 0.02236700 0.05979700
v -0.04978900 0.00992700 0.06594200
v -0.04842200 0.01861600 0.06565600
v -0.04354500 0.02640700 0.06598800
v -0.04426900 0.02801600 0.06390400
v -0.04185900 -0.03061000 0.06369200
v -0.01926100 -0.04741700 0.06157400
v -0.00268800 -0.05096500 0.06295300
v -0.01356600 -0.04845200 0.06578300
v 0.00327600 -0.04991700 0.06611200
v 0.02131700 -0.04462300 0.06570200
v 0.02779600 -0.04127700 0.06087300
v 0.03044600 -0.03907400 0.06571300
v 0.03713700 -0.03281200 0.06563000
v 0.04179400 -0.02621300 0.06572100
v 0.04496600 -0.01761100 0.06571300
v 0.04902400 -0.00565200 0.06537900
v 0.04957600 0.00501000 0.06554100
v -0.03317400 -0.03927900 0.06449500
v -0.03073000 -0.03887700 0.06628900
v -0.02403700 -0.04462100 0.06585200
v -0.02758500 -0.04366900 0.06507800
v 0.01188800 -0.04914400 0.06262600
v 0.02073800 -0.04554100 0.06067800
v 0.04103000 -0.02800900 0.06118100
v 0.04630000 -0.01920200 0.06252200
v 0.04981100 -0.00170300 0.06062500
v -0.03954700 0.03310500 0.00039500
v -0.01814700 0.04806300 -0.00946000
v -0.03322600 0.04071700 0.06321300
v -0.03921200 0.03414200 0.06567400
v -0.03503700 0.03781900 0.06549400
v -0.02418300 0.04486900 0.06585700
v -0.01968300 0.04801100 0.06119500
v 0.04171100 0.02821900 0.06527000
v 0.03596400 0.03452000 0.06579500
v -0.01055000 0.05023500 0.06043700
v 0.00725300 0.04965100 0.06618200
v 0.01296900 0.04947300 0.06307300
v 0.01871900 0.04709300 0.06614300
v 0.03147400 0.03886100 0.06604800
v 0.02934800 0.04165700 0.06138500
v -0.00005800 0.05166400 0.06374400
v -0.01457700 0.04945400 0.06544300
v -0.00366600 0.05044800 0.06580000
v 0.04692200 0.01493700 0.06564400
v 0.04595900 0.01977900 0.06233900
v 0.04293000 0.02369100 0.06557100
f 75 2 3
f 4 66 68
f 67 68 66
f 63 66 4
f 107 33 111
f 108 110 22
f 76 75 3
f 2 75 6
f 75 11 6
f 90 11 75
f 91 76 17
f 2 49 17
f 91 17 92
f 92 17 19
f 65 67 66
f 66 63 65
f 61 67 65
f 111 33 32
f 56 55 38
f 38 110 56
f 56 110 104
f 104 103 56
f 56 103 55
f 104 110 109
f 109 110 108
f 109 114 104
f 109 108 61
f 33 107 34
f 34 107 108
f 108 22 34
f 36 110 38
f 38 22 36
f 36 22 110
f 29 98 102
f 98 101 102
f 100 101 98
f 71 68 70
f 68 67 70
f 72 67 61
f 72 70 67
f 71 70 72
f 72 73 71
f 104 114 116
f 116 103 104
f 114 103 116
f 78 76 91
f 78 81 83
f 78 109 61
f 114 109 84
f 84 78 83
f 109 78 84
f 12 11 2
f 2 6 12
f 12 6 11
f 1 17 76
f 48 21 49
f 19 17 20
f 20 21 19
f 20 17 49
f 49 21 20
f 71 73 69
f 73 25 69
f 69 68 71
f 69 25 68
f 68 25 24
f 24 25 41
f 5 63 4
f 87 90 61
f 61 74 87
f 11 90 87
f 87 14 11
f 74 14 87
f 63 74 62
f 62 65 63
f 44 43 29
f 45 43 44
f 44 37 30
f 41 25 26
f 26 25 73
f 57 58 95
f 57 50 49
f 57 49 2
f 2 45 57
f 33 34 47
f 106 113 101
f 101 72 106
f 111 113 106
f 61 108 106
f 106 72 61
f 106 107 111
f 108 107 106
f 111 32 105
f 105 32 30
f 101 113 112
f 112 102 101
f 112 113 111
f 111 105 112
f 30 102 112
f 112 105 30
f 73 72 99
f 99 100 98
f 101 100 99
f 99 72 101
f 98 27 99
f 99 27 96
f 91 92 79
f 79 78 91
f 81 78 79
f 80 92 19
f 19 21 80
f 21 81 80
f 80 79 92
f 81 79 80
f 114 84 86
f 86 84 85
f 86 85 95
f 95 58 86
f 94 84 83
f 49 50 94
f 85 84 94
f 95 85 94
f 39 16 4
f 4 68 39
f 68 24 39
f 2 11 10
f 10 14 2
f 11 14 10
f 4 16 9
f 9 45 2
f 41 26 9
f 9 5 4
f 63 5 9
f 76 78 77
f 75 76 77
f 77 90 75
f 77 89 90
f 88 78 61
f 61 90 88
f 90 89 88
f 88 77 78
f 89 77 88
f 13 76 3
f 13 1 76
f 3 2 13
f 2 17 13
f 17 1 13
f 61 65 64
f 65 62 64
f 64 74 61
f 64 62 74
f 37 44 97
f 30 37 97
f 97 102 30
f 29 102 97
f 97 44 29
f 45 44 31
f 30 32 31
f 31 44 30
f 42 98 29
f 42 27 98
f 26 27 42
f 29 43 42
f 42 43 45
f 45 9 42
f 42 9 26
f 96 27 28
f 73 99 28
f 28 99 96
f 28 26 73
f 28 27 26
f 55 103 53
f 103 54 53
f 38 55 53
f 53 60 38
f 114 86 115
f 115 86 58
f 115 103 114
f 115 54 103
f 60 53 59
f 59 53 54
f 59 57 45
f 35 47 34
f 35 34 22
f 45 47 35
f 35 59 45
f 82 81 21
f 83 81 82
f 51 57 95
f 95 94 51
f 50 57 51
f 51 94 50
f 16 39 40
f 41 9 40
f 40 9 16
f 40 24 41
f 40 39 24
f 2 14 7
f 7 9 2
f 7 74 63
f 45 31 46
f 46 31 32
f 46 32 33
f 33 47 46
f 46 47 45
f 52 115 58
f 54 115 52
f 58 57 52
f 52 59 54
f 57 59 52
f 23 22 38
f 23 35 22
f 38 60 23
f 60 59 23
f 59 35 23
f 21 48 18
f 18 82 21
f 83 82 93
f 93 94 83
f 93 18 48
f 82 18 93
f 93 48 49
f 49 94 93
f 15 14 74
f 74 7 15
f 15 7 14
f 63 9 8
f 8 7 63
f 9 7 8

