# https://github.com/mikedh/trimesh
v -0.01510317 -0.02423477 0.02241372
v -0.01699258 -0.02423477 0.02504591
v -0.01510317 -0.04698202 0.02191430
v -0.01510317 -0.02423477 -0.02164026
v -0.01828261 -0.02423477 0.02663228
v -0.01825483 -0.02698680 0.02668515
v -0.01829452 -0.02901128 0.02663815
v -0.02048163 -0.04365007 0.02802475
v -0.02063644 -0.04698202 0.02796012
v -0.01510317 -0.05038427 0.02119163
v -0.01510317 -0.02497638 -0.02165201
v -0.01793728 -0.04031812 -0.02733356
v -0.01796903 -0.03698617 -0.02728068
v -0.01804842 -0.03032227 -0.02717492
v -0.01813574 -0.02423477 -0.02708091
v -0.02005294 -0.02423477 0.02803650
v -0.02005294 -0.02698680 0.02811288
v -0.02032286 -0.04031812 0.02803650
v -0.02338322 -0.04365007 0.02963462
v -0.02364123 -0.04703825 0.02965812
v -0.02117230 -0.05031397 0.02728445
v -0.01510317 -0.05202212 0.02000479
v -0.02165656 -0.05201509 0.02660877
v -0.01510317 -0.02698680 -0.02166964
v -0.02005294 -0.04365007 -0.02851452
v -0.02005294 -0.04031812 -0.02863203
v -0.02005294 -0.02423477 -0.02840876
v -0.01971158 -0.02423477 -0.02817962
v -0.01510317 -0.03032227 -0.02168727
v -0.01510317 -0.04365007 -0.02171077
v -0.01510317 -0.04486616 -0.02164026
v -0.01510317 -0.04698202 -0.02151688
v -0.01808018 -0.04365007 -0.02718080
v -0.02338322 -0.02423477 0.02928797
v -0.02338322 -0.04031812 0.02959937
v -0.02492333 -0.04818756 0.02985201
v -0.02492333 -0.04871829 0.02985201
v -0.02364123 -0.05002576 0.02869455
v -0.03475937 -0.06013760 0.02026331
v -0.03473556 -0.06013760 0.02015168
v -0.03446564 -0.06013760 0.01817753
v -0.01510317 -0.05207133 0.01900009
v -0.02338322 -0.05208539 0.02687317
v -0.03671229 -0.06013760 0.02119750
v -0.01987035 -0.04683440 -0.02795635
v -0.02338322 -0.04698202 -0.02962497
v -0.02280767 -0.02423477 -0.02944283
v -0.02338322 -0.04365007 -0.02967785
v -0.02338322 -0.02423477 -0.02964847
v -0.01510317 -0.04799074 -0.02123486
v -0.01828658 -0.04562534 -0.02694578
v -0.03671229 -0.04698202 0.02976388
v -0.03177442 -0.04863745 0.02984026
v -0.02671747 -0.04812430 0.02985789
v -0.04671107 -0.02423477 0.02910583
v -0.02671747 -0.04872883 0.02985789
v -0.02671747 -0.05039832 0.02877093
v -0.01510317 -0.05220489 0.01484029
v -0.01510317 -0.05210999 0.01817753
v -0.03446167 -0.06013760 0.01799539
v -0.01510317 -0.05245795 0.00312468
v -0.01510317 -0.05241928 0.00645605
v -0.01510317 -0.05234196 0.00978742
v -0.03918916 -0.06013760 0.02079797
v -0.04337682 -0.05031397 0.02883556
v -0.04671107 -0.05221543 0.02714344
v -0.04891009 -0.05214865 0.02687904
v -0.02102146 -0.05031397 -0.02754507
v -0.02338322 -0.05031397 -0.02839701
v -0.02671747 -0.04698202 -0.02980124
v -0.02671747 -0.04365007 -0.02991287
v -0.02671747 -0.02423477 -0.02977774
v -0.01510317 -0.04941420 -0.02067669
v -0.01863588 -0.04784664 -0.02629361
v -0.04337682 -0.04698202 0.02968750
v -0.03177442 -0.04865151 0.02984026
v -0.05009692 -0.02423477 0.02779561
v -0.04671107 -0.02698680 0.02915871
v -0.03004776 -0.04867963 0.02984614
v -0.03445770 -0.06013760 0.01484029
v -0.03445373 -0.06013760 0.01133265
v -0.03444579 -0.06013760 0.00150893
v -0.01510317 -0.05245795 0.00150893
v -0.03932809 -0.06013760 0.02077447
v -0.04671107 -0.05031397 0.02860642
v -0.04952137 -0.05031397 0.02744309
v -0.05118849 -0.05031397 0.02606236
v -0.05201412 -0.05223652 0.02381794
v -0.01510317 -0.05022259 -0.02018903
v -0.02164862 -0.05201861 -0.02691053
v -0.02338322 -0.05205727 -0.02701041
v -0.03671229 -0.06013760 -0.02146400
v -0.02671747 -0.05031397 -0.02854977
v -0.03004776 -0.04698202 -0.02983649
v -0.03004776 -0.04365007 -0.02996575
v -0.03004776 -0.05031397 -0.02860852
v -0.04493280 -0.03774183 -0.03015376
v -0.04337682 -0.02423477 -0.02994812
v -0.04671107 -0.03365421 0.02926447
v -0.04671107 -0.04031812 0.02934672
v -0.04671107 -0.04698202 0.02941136
v -0.05000563 -0.03032227 0.02784262
v -0.05174023 -0.02423477 0.02653827
v -0.03446960 -0.06013760 -0.01847928
v -0.01510317 -0.05244037 -0.00020082
v -0.04030454 -0.06013760 0.01817753
v -0.04987067 -0.04698202 0.02782499
v -0.05153780 -0.04698202 0.02633263
v -0.05243487 -0.05031397 0.02439374
v -0.05333591 -0.05031397 0.02150890
v -0.05217289 -0.05237711 0.02150890
v -0.01510317 -0.05149843 -0.01840878
v -0.01510317 -0.05204321 -0.01758622
v -0.03475937 -0.06013760 -0.02055918
v -0.03685122 -0.06013760 -0.02144637
v -0.04871956 -0.05221543 -0.02713379
v -0.04671107 -0.05231736 -0.02728655
v -0.03338200 -0.04698202 -0.02983061
v -0.04355941 -0.04359032 -0.03009501
v -0.04479387 -0.04243749 -0.03015964
v -0.03338200 -0.04365007 -0.03000100
v -0.03338200 -0.05031397 -0.02860852
v -0.04477403 -0.04031812 -0.03016552
v -0.04506379 -0.03774183 -0.03015376
v -0.04613155 -0.02423477 -0.02967198
v -0.04993815 -0.03698617 0.02785437
v -0.04989052 -0.04365007 0.02784262
v -0.05392734 -0.02423477 0.02433498
v -0.05505067 -0.02550710 0.02318927
v -0.01510317 -0.05211702 -0.01514791
v -0.01510317 -0.05242280 -0.00181656
v -0.05218480 -0.05240171 0.01817753
v -0.05219671 -0.05242280 0.01484029
v -0.05220465 -0.05244037 0.01150892
v -0.05221258 -0.05245443 0.00817755
v -0.04033233 -0.06013760 0.01484029
v -0.05275242 -0.04698202 0.02466988
v -0.05424886 -0.04698202 0.02150890
v -0.05531661 -0.04593463 0.01760761
v -0.05351453 -0.05031397 0.01817753
v -0.03932412 -0.06013760 -0.02105272
v -0.04895375 -0.05234547 -0.02514790
v -0.05177199 -0.05204321 -0.01075897
v -0.05019219 -0.05031397 -0.02514790
v -0.04916413 -0.05031397 -0.02755095
v -0.04671107 -0.05031397 -0.02840288
v -0.03937572 -0.06013760 -0.02091759
v -0.04030058 -0.06013760 -0.01847928
v -0.04337682 -0.05031397 -0.02853214
v -0.04004257 -0.05031397 -0.02856739
v -0.03671229 -0.05031397 -0.02859090
v -0.04004257 -0.04698202 -0.02977774
v -0.04508761 -0.04243749 -0.03015964
v -0.04337682 -0.04698202 -0.02972486
v -0.04509158 -0.04031812 -0.03016552
v -0.04671107 -0.02423477 -0.02960147
v -0.05505067 -0.02423477 0.02318927
v -0.05461007 -0.04031812 0.02192605
v -0.05531661 -0.03365421 0.02078035
v -0.05528089 -0.03698617 0.02055120
v -0.05518563 -0.04031812 0.02026331
v -0.05462198 -0.04395585 0.02128563
v -0.05220862 -0.05246849 0.00484618
v -0.04033233 -0.06013760 -0.01497165
v -0.05503876 -0.04527035 0.01982853
v -0.05565401 -0.04365007 0.01484029
v -0.05532852 -0.04605765 0.01484029
v -0.05469740 -0.04772362 0.01484029
v -0.05542775 -0.04395585 0.01850068
v -0.05351850 -0.05031397 0.01484029
v -0.05234754 -0.05031397 -0.00847930
v -0.05200221 -0.05049673 -0.01184592
v -0.05176008 -0.04891511 -0.01732770
v -0.05155367 -0.05173040 -0.01297988
v -0.05187519 -0.05214162 -0.00847930
v -0.05091064 -0.04698202 -0.02514790
v -0.04945389 -0.04698202 -0.02778597
v -0.04671107 -0.04698202 -0.02921957
v -0.05216893 -0.05244037 0.00150893
v -0.05208557 -0.05235953 -0.00181656
v -0.05199427 -0.05225761 -0.00514793
v -0.04640146 -0.04359032 -0.02956622
v -0.04675870 -0.04031812 -0.02947221
v -0.04671107 -0.02698680 -0.02958385
v -0.05027951 -0.02423477 -0.02780359
v -0.05507052 -0.02423477 0.02290138
v -0.05559050 -0.03698617 0.01817753
v -0.05559050 -0.04031812 0.01817753
v -0.05510624 -0.04304905 0.02002242
v -0.05351453 -0.05031397 0.01150892
v -0.05565004 -0.04031812 0.01484029
v -0.05457832 -0.02423477 -0.00514793
v -0.05145047 -0.04698202 -0.02181065
v -0.05339942 -0.05031397 0.00817755
v -0.05186725 -0.04949153 -0.01514791
v -0.05165688 -0.04031812 -0.02295048
v -0.05169657 -0.03831122 -0.02335589
v -0.05174023 -0.03608991 -0.02367316
v -0.05167275 -0.02473035 -0.02668726
v -0.05168466 -0.02423477 -0.02671664
v -0.04993815 -0.02698680 -0.02795047
v -0.05513403 -0.02423477 0.02153240
v -0.05553493 -0.03365421 0.01817753
v -0.05554684 -0.03698617 0.01484029
v -0.05484823 -0.02423477 0.00484618
v -0.05414963 -0.02423477 -0.00904922
v -0.05244678 -0.02423477 -0.02181065
v -0.05237533 -0.02423477 -0.02232769
v -0.05178787 -0.03365421 -0.02397868
v -0.05185534 -0.03032227 -0.02437821
v -0.05179581 -0.02423477 -0.02610559
v -0.05514196 -0.02423477 0.02084497
v -0.05513403 -0.02423477 0.01844780
v -0.05193870 -0.02423477 -0.02528891
v -0.05191885 -0.02698680 -0.02476599
f 1 2 3
f 1 3 10
f 1 10 22
f 1 22 42
f 1 42 59
f 1 59 58
f 1 58 63
f 1 63 62
f 1 62 61
f 1 61 83
f 1 83 105
f 1 105 131
f 1 131 130
f 1 130 113
f 1 113 112
f 1 112 89
f 1 89 73
f 1 73 50
f 1 50 32
f 1 32 31
f 1 31 30
f 1 30 29
f 1 29 24
f 1 24 11
f 1 11 4
f 1 4 15
f 1 15 28
f 1 28 27
f 1 27 47
f 1 47 49
f 1 49 72
f 1 72 98
f 1 98 125
f 1 125 156
f 1 156 185
f 1 185 200
f 1 200 211
f 1 211 214
f 1 214 208
f 1 208 207
f 1 207 206
f 1 206 192
f 1 192 205
f 1 205 213
f 1 213 212
f 1 212 202
f 1 202 186
f 1 186 157
f 1 157 128
f 1 128 103
f 1 103 77
f 1 77 55
f 1 55 34
f 1 34 16
f 1 16 5
f 1 5 2
f 2 5 6
f 2 6 3
f 3 6 7
f 3 7 8
f 3 8 9
f 3 9 10
f 4 11 12
f 4 12 13
f 4 13 14
f 4 14 15
f 5 16 17
f 5 17 6
f 6 17 18
f 6 18 7
f 7 18 8
f 8 18 19
f 8 19 20
f 8 20 9
f 9 20 21
f 9 21 10
f 10 21 23
f 10 23 22
f 11 24 12
f 12 25 26
f 12 26 27
f 12 27 28
f 12 28 13
f 12 24 29
f 12 29 30
f 12 30 31
f 12 31 32
f 12 32 33
f 12 33 25
f 13 28 14
f 14 28 15
f 16 34 17
f 17 34 35
f 17 35 19
f 17 19 18
f 19 35 36
f 19 36 37
f 19 37 20
f 20 37 21
f 21 37 38
f 21 38 23
f 22 39 40
f 22 40 41
f 22 41 42
f 22 23 39
f 23 38 43
f 23 43 44
f 23 44 39
f 25 33 45
f 25 45 46
f 25 46 26
f 26 47 27
f 26 46 48
f 26 48 49
f 26 49 47
f 32 50 33
f 33 50 51
f 33 51 45
f 34 52 53
f 34 53 54
f 34 54 36
f 34 36 35
f 34 55 52
f 36 54 56
f 36 56 37
f 37 56 57
f 37 57 38
f 38 57 43
f 39 44 64
f 39 64 84
f 39 84 106
f 39 106 136
f 39 136 164
f 39 164 148
f 39 148 147
f 39 147 141
f 39 141 115
f 39 115 92
f 39 92 114
f 39 114 104
f 39 104 82
f 39 82 81
f 39 81 80
f 39 80 60
f 39 60 41
f 39 41 40
f 41 58 59
f 41 59 42
f 41 60 61
f 41 61 62
f 41 62 63
f 41 63 58
f 43 57 44
f 44 57 65
f 44 65 66
f 44 66 67
f 44 67 64
f 45 68 46
f 45 51 68
f 46 68 69
f 46 69 70
f 46 70 71
f 46 71 48
f 48 71 49
f 49 71 72
f 50 73 51
f 51 74 68
f 51 73 74
f 52 75 53
f 52 55 75
f 53 75 76
f 53 76 56
f 53 56 54
f 55 77 78
f 55 78 75
f 56 76 79
f 56 79 65
f 56 65 57
f 60 80 61
f 61 81 82
f 61 82 83
f 61 80 81
f 64 67 84
f 65 79 76
f 65 76 75
f 65 75 85
f 65 85 66
f 66 85 67
f 67 85 86
f 67 86 87
f 67 87 88
f 67 88 84
f 68 74 89
f 68 89 90
f 68 90 69
f 69 90 91
f 69 91 92
f 69 92 93
f 69 93 70
f 70 94 95
f 70 95 71
f 70 93 96
f 70 96 94
f 71 95 72
f 72 95 97
f 72 97 98
f 73 89 74
f 75 99 100
f 75 100 101
f 75 101 85
f 75 78 99
f 77 102 101
f 77 101 100
f 77 100 99
f 77 99 78
f 77 103 102
f 82 104 83
f 83 104 105
f 84 88 106
f 85 101 86
f 86 101 107
f 86 107 87
f 87 107 108
f 87 108 109
f 87 109 88
f 88 109 110
f 88 110 111
f 88 111 106
f 89 112 90
f 90 112 113
f 90 113 114
f 90 114 92
f 90 92 91
f 92 115 116
f 92 116 117
f 92 117 96
f 92 96 93
f 94 118 119
f 94 119 120
f 94 120 121
f 94 121 95
f 94 96 122
f 94 122 118
f 95 121 120
f 95 120 123
f 95 123 97
f 96 117 122
f 97 123 155
f 97 155 124
f 97 124 98
f 98 124 125
f 101 102 126
f 101 126 127
f 101 127 107
f 102 103 126
f 103 128 129
f 103 129 108
f 103 108 107
f 103 107 127
f 103 127 126
f 104 114 113
f 104 113 130
f 104 130 131
f 104 131 105
f 106 111 132
f 106 132 133
f 106 133 134
f 106 134 135
f 106 135 136
f 108 129 137
f 108 137 109
f 109 137 138
f 109 138 110
f 110 138 139
f 110 139 140
f 110 140 111
f 111 140 132
f 115 141 116
f 116 142 143
f 116 143 144
f 116 144 145
f 116 145 146
f 116 146 117
f 116 141 147
f 116 147 148
f 116 148 142
f 117 146 149
f 117 149 150
f 117 150 151
f 117 151 122
f 118 122 151
f 118 151 150
f 118 150 152
f 118 152 119
f 119 153 120
f 119 152 154
f 119 154 153
f 120 153 155
f 120 155 123
f 124 155 156
f 124 156 125
f 128 157 129
f 129 158 137
f 129 157 159
f 129 159 160
f 129 160 161
f 129 161 162
f 129 162 158
f 132 140 133
f 133 140 134
f 134 140 135
f 135 163 136
f 135 140 163
f 136 163 164
f 137 158 162
f 137 162 138
f 138 162 165
f 138 165 139
f 139 166 167
f 139 167 168
f 139 168 140
f 139 165 169
f 139 169 166
f 140 168 170
f 140 170 163
f 142 148 143
f 143 171 172
f 143 172 173
f 143 173 174
f 143 174 144
f 143 148 175
f 143 175 167
f 143 167 171
f 144 176 145
f 144 174 173
f 144 173 176
f 145 177 178
f 145 178 146
f 145 176 177
f 146 178 154
f 146 154 149
f 148 164 163
f 148 163 179
f 148 179 180
f 148 180 181
f 148 181 175
f 149 154 152
f 149 152 150
f 153 154 178
f 153 178 182
f 153 182 183
f 153 183 184
f 153 184 156
f 153 156 155
f 156 184 185
f 157 186 187
f 157 187 159
f 159 187 188
f 159 188 160
f 160 188 169
f 160 169 161
f 161 169 189
f 161 189 162
f 162 189 165
f 163 170 190
f 163 190 179
f 165 189 169
f 166 169 188
f 166 188 187
f 166 187 191
f 166 191 192
f 166 192 193
f 166 193 173
f 166 173 167
f 167 194 168
f 167 173 195
f 167 195 172
f 167 172 171
f 167 175 194
f 168 194 190
f 168 190 170
f 172 195 173
f 173 193 176
f 175 181 194
f 176 193 196
f 176 196 197
f 176 197 198
f 176 198 199
f 176 199 177
f 177 199 200
f 177 200 185
f 177 185 201
f 177 201 183
f 177 183 182
f 177 182 178
f 179 190 194
f 179 194 180
f 180 194 181
f 183 201 185
f 183 185 184
f 186 202 203
f 186 203 187
f 187 203 191
f 191 203 204
f 191 204 192
f 192 204 203
f 192 203 205
f 192 206 193
f 193 206 196
f 196 206 197
f 197 206 198
f 198 206 207
f 198 207 208
f 198 208 209
f 198 209 199
f 199 209 210
f 199 210 211
f 199 211 200
f 202 212 203
f 203 212 213
f 203 213 205
f 208 210 209
f 208 214 215
f 208 215 210
f 210 215 214
f 210 214 211

