# https://github.com/mikedh/trimesh
v -0.07158800 0.00857000 0.00483000
v 0.02331600 0.02085300 -0.00742700
v -0.07606800 -0.00251400 -0.00173900
v -0.01343400 0.00509000 -0.01484300
v -0.06741200 0.01103100 -0.00243200
v 0.03415800 0.01959300 0.00045900
v -0.07038200 0.00056900 0.01007200
v -0.00065800 0.02122900 -0.00582400
v -0.07245600 0.00001200 -0.00765000
v 0.00541200 0.02168700 -0.00362700
v -0.07548800 0.00365200 0.00389300
v 0.00771200 0.02019200 -0.00832800
v -0.06595900 -0.00279800 0.01067200
v -0.06456000 0.01047800 0.00425800
v 0.01770300 0.02178900 -0.00626000
v -0.06871100 0.00554900 -0.00835400
v 0.01467500 0.01777000 -0.01058900
v -0.07214000 0.00863500 -0.00448000
v 0.01108100 0.01345700 -0.01254600
v -0.07195300 0.01003700 0.00158100
v 0.02363800 0.02151200 -0.00329900
v 0.03176900 0.02064500 -0.00326500
v 0.03090900 0.00918500 -0.01420600
v 0.02024700 0.01699400 -0.01109100
v 0.04690000 0.01510700 0.00621300
v 0.04064600 0.01812800 -0.00872200
v 0.02791900 0.01528700 0.00729800
v -0.04260800 0.00363500 -0.01185000
v 0.04522100 0.01693000 -0.00866700
v 0.00318300 0.01474500 -0.01198600
v 0.05885400 0.01532600 -0.00560200
v -0.07093600 -0.00419900 0.00989400
v -0.06289300 0.00597300 -0.00891300
v 0.04147900 0.01931800 -0.00156700
v -0.01443800 0.00766000 0.01387200
v -0.00208200 0.01994600 0.00147900
v -0.01869600 0.01317800 0.00941300
v -0.01415100 0.01857500 0.00265900
v -0.00627100 0.01949100 -0.00736700
v -0.01567700 0.01955700 -0.00249800
v -0.01290800 0.01976800 -0.00497400
v -0.01191500 0.01173700 -0.01265500
v -0.00358200 0.01328000 -0.01235700
v -0.01081100 0.01380400 0.00936600
v -0.00895100 0.02058200 -0.00158500
v -0.01251100 0.01827800 -0.00780500
v -0.02309000 -0.00293600 0.01578000
v -0.01958800 0.00403400 0.01513100
v -0.02169600 -0.00386000 -0.01319100
v -0.01887200 -0.01922100 -0.00385000
v 0.06077500 0.00553600 0.00726800
v -0.01038400 -0.00424800 -0.01370300
v -0.01062700 0.00300200 0.01576900
v -0.01605300 -0.01461200 -0.00920800
v 0.00675100 0.02036200 0.00099800
v -0.01704800 -0.00807400 -0.01267800
v -0.01668900 0.00179800 -0.01459300
v 0.03201800 0.01630100 -0.01091000
v -0.01633000 0.01000300 -0.01298600
v 0.03612000 0.01794700 -0.00945200
v 0.04344200 0.01925200 -0.00477100
v 0.01185000 0.02163800 -0.00212700
v -0.01396400 0.01458400 -0.01088700
v -0.00674400 -0.02221600 -0.00241400
v 0.00386900 -0.01624400 -0.00973400
v 0.05952900 0.01528300 0.00120500
v 0.06344100 0.01435900 0.00007400
v 0.03948700 0.01337200 -0.01220200
v 0.06165000 0.01225400 -0.00891900
v 0.02930900 0.02024700 -0.00795500
v 0.06405800 0.00999900 -0.00324700
v 0.04589900 0.00787200 -0.01469100
v -0.06597400 -0.00841500 0.00660300
v 0.04641700 0.01480900 -0.01060200
v 0.04629700 0.01108300 -0.01315700
v -0.01533900 -0.01189200 0.01405300
v -0.07168300 -0.00844700 0.00372000
v 0.06264700 0.01533700 -0.00331200
v -0.00996700 -0.01623100 0.01099300
v -0.01616100 -0.01875700 0.00683300
v 0.00862700 -0.01868300 0.00995400
v 0.00579600 -0.01416300 0.01326200
v 0.01755000 -0.00889200 0.01605000
v 0.01502200 -0.02108800 0.00791500
v 0.05726100 0.01113900 0.00853000
v -0.01190000 -0.02175200 0.00228100
v 0.00868300 -0.02351700 0.00322500
v 0.00126800 -0.02323100 0.00241300
v 0.02225000 -0.01871500 0.01035800
v 0.01630400 -0.02483700 -0.00000100
v 0.03527300 0.02014300 -0.00678300
v -0.00252500 -0.01851700 0.00902900
v -0.00407200 -0.02281900 0.00213900
v 0.05222000 -0.00988700 0.01618200
v 0.02159900 -0.02309300 0.00526900
v 0.01346800 -0.02250500 -0.00544300
v 0.02188900 -0.02376200 -0.00390700
v 0.00762700 -0.02012900 -0.00732200
v 0.01162700 -0.00736200 0.01630700
v -0.00236600 -0.01764700 -0.00843800
v 0.01911200 -0.02111800 -0.00707800
v 0.02452000 -0.01277300 0.01488100
v 0.01595300 -0.01711700 -0.00994100
v 0.03192400 -0.02288100 0.00571900
v -0.00341600 0.01672800 -0.01038400
v 0.01579500 -0.01333200 0.01429800
v -0.07419000 -0.00180200 0.00970200
v 0.04256000 -0.02159100 0.00717900
v 0.00574800 -0.02367100 -0.00262200
v -0.06911200 0.00592600 0.00860400
v 0.05216100 -0.00395600 -0.01426800
v 0.05018100 0.01716700 0.00128700
v 0.04620200 -0.02249300 0.00501900
v -0.02264700 -0.00815000 0.01497900
v -0.01831800 0.01621200 0.00567600
v 0.05242400 -0.00150600 0.01688300
v -0.00939200 -0.01881500 -0.00653700
v 0.05258300 -0.00570300 0.01681900
v 0.00006100 -0.02025400 -0.00654800
v -0.00847900 0.01718700 0.00550900
v -0.02105400 -0.01487900 0.01076900
v 0.04502200 -0.02347000 0.00043900
v 0.05190900 -0.01468900 0.01425300
v 0.05685500 -0.02004200 0.00475700
v 0.06102300 -0.01369300 0.00444800
v 0.05672500 -0.01763100 0.00886800
v 0.04479800 -0.01849200 0.01098200
v -0.07300400 -0.00730700 -0.00207700
v 0.06221300 -0.00184200 0.00406500
v -0.06584100 -0.00989200 0.00052200
v 0.05421300 0.01439900 0.00546300
v 0.06073100 -0.01880800 -0.00026300
v 0.06003100 0.01346700 0.00468200
v 0.04398200 0.01852100 0.00051700
v 0.05431700 -0.02125300 -0.00099100
v -0.06909000 -0.00705400 -0.00400900
v -0.06599700 -0.00608000 -0.00543300
v 0.05785200 -0.01724100 -0.00637300
v 0.04145100 -0.01163300 0.01563900
v 0.04438900 0.00441400 -0.01538500
v 0.05441500 0.01127200 -0.01164000
v 0.06226700 0.00782900 -0.00911600
v 0.04609800 -0.01588500 -0.01161900
v 0.05148700 -0.01280400 -0.01162700
v 0.06297000 0.00215100 -0.00360600
v 0.04626600 -0.00703900 -0.01507000
v 0.05252000 0.00435000 -0.01422800
v -0.04273900 -0.00228000 -0.01153500
v -0.01655400 0.00055900 0.01624800
v 0.02537500 -0.02483200 0.00165700
v -0.01618400 -0.00543900 0.01633200
v 0.04490200 0.00056100 -0.01599100
v 0.04457400 -0.00442000 0.01707400
v 0.05397700 0.00319100 0.01471400
v 0.01655800 0.00351800 0.01644100
v 0.03024600 0.00084600 0.01677300
v 0.04310300 0.00280300 0.01651400
v 0.05119900 0.00821000 0.01241500
v 0.03820600 -0.02381500 0.00278500
v 0.03264000 -0.02476200 -0.00110000
v 0.00758400 0.01742300 0.00528100
v 0.01654900 0.01715400 0.00552800
v 0.03527600 0.01718100 0.00464200
v 0.01922100 0.01946700 0.00237800
v 0.03146200 -0.02233800 -0.00607700
v 0.02681100 -0.02191400 -0.00650400
v 0.02720700 0.02061400 -0.00109300
v 0.04042300 -0.02376400 -0.00359300
v 0.04149000 -0.01984500 -0.00895300
v 0.06144800 -0.00790100 0.00481300
v 0.05878600 -0.01035500 0.00998400
v 0.04552900 -0.02052800 -0.00787500
v 0.04961400 -0.02199100 -0.00404900
v 0.04714100 -0.01060700 -0.01397600
f 71 132 145
f 145 142 71
f 132 142 145
f 153 118 116
f 18 9 3
f 3 11 18
f 18 11 20
f 123 139 102
f 102 151 76
f 153 151 99
f 20 11 1
f 158 85 25
f 97 160 90
f 168 160 97
f 174 143 56
f 56 146 174
f 111 146 152
f 111 174 146
f 94 139 123
f 94 118 153
f 153 99 94
f 149 151 153
f 128 77 3
f 128 130 77
f 3 9 128
f 33 4 16
f 9 18 16
f 16 63 33
f 21 6 34
f 121 73 80
f 76 151 114
f 90 160 150
f 83 102 139
f 151 102 83
f 83 99 151
f 139 94 83
f 83 94 99
f 113 124 126
f 123 127 126
f 126 127 113
f 126 94 123
f 126 124 132
f 36 45 38
f 62 45 36
f 107 1 11
f 3 77 107
f 107 11 3
f 20 1 14
f 38 45 14
f 14 45 20
f 14 115 38
f 14 37 115
f 85 158 154
f 155 158 44
f 25 85 131
f 67 129 71
f 75 141 72
f 72 24 75
f 71 142 69
f 26 61 31
f 132 173 138
f 138 142 132
f 138 111 142
f 172 173 168
f 143 138 172
f 172 138 173
f 132 124 135
f 135 173 132
f 159 150 160
f 147 111 152
f 152 72 147
f 147 72 141
f 141 69 147
f 142 111 147
f 147 69 142
f 9 148 137
f 77 130 86
f 130 64 86
f 86 73 77
f 80 73 86
f 59 4 33
f 42 4 59
f 33 63 59
f 59 63 42
f 28 16 4
f 28 148 9
f 9 16 28
f 56 148 49
f 62 21 15
f 167 21 62
f 6 21 167
f 22 21 34
f 34 61 22
f 78 61 34
f 66 67 78
f 31 61 78
f 78 69 31
f 78 67 71
f 71 69 78
f 5 18 20
f 46 16 18
f 63 16 46
f 18 5 46
f 46 5 41
f 79 121 80
f 76 121 79
f 104 127 84
f 104 159 113
f 150 159 104
f 87 84 80
f 80 88 87
f 87 88 90
f 90 150 87
f 118 94 171
f 94 126 171
f 171 116 118
f 120 37 44
f 115 37 120
f 38 115 120
f 120 36 38
f 164 167 62
f 6 167 164
f 77 73 32
f 32 107 77
f 32 121 76
f 73 121 32
f 76 114 32
f 32 114 151
f 151 149 47
f 1 107 110
f 110 14 1
f 37 14 110
f 44 158 27
f 27 162 44
f 27 158 25
f 48 155 35
f 35 155 44
f 35 110 48
f 44 37 35
f 37 110 35
f 157 154 158
f 158 155 157
f 116 154 157
f 48 149 53
f 53 155 48
f 149 155 53
f 153 116 156
f 156 149 153
f 156 155 149
f 116 157 156
f 156 157 155
f 133 131 85
f 66 131 133
f 133 67 66
f 112 131 66
f 66 78 112
f 129 67 51
f 51 171 129
f 67 133 51
f 51 154 116
f 116 171 51
f 85 154 51
f 51 133 85
f 152 4 140
f 140 72 152
f 4 72 140
f 74 141 75
f 74 69 141
f 74 26 69
f 31 69 29
f 29 26 31
f 69 26 29
f 91 26 70
f 61 26 91
f 70 15 91
f 91 15 21
f 21 22 91
f 91 22 61
f 143 174 144
f 144 138 143
f 174 111 144
f 111 138 144
f 168 97 165
f 165 172 168
f 122 124 113
f 122 135 124
f 113 159 122
f 168 173 122
f 173 135 122
f 122 160 168
f 122 159 160
f 56 143 103
f 109 97 90
f 54 148 56
f 54 137 148
f 93 88 80
f 80 86 93
f 90 88 93
f 93 109 90
f 93 86 64
f 64 109 93
f 148 28 57
f 57 28 4
f 57 49 148
f 152 146 57
f 57 4 152
f 56 49 57
f 42 63 43
f 63 30 43
f 43 4 42
f 24 72 19
f 19 30 24
f 4 43 19
f 19 43 30
f 2 15 70
f 10 45 62
f 62 15 10
f 45 41 40
f 41 5 40
f 20 45 40
f 40 5 20
f 8 46 41
f 8 10 15
f 8 41 45
f 45 10 8
f 80 84 92
f 92 79 80
f 84 79 92
f 81 79 84
f 76 79 81
f 113 127 108
f 108 104 113
f 127 104 108
f 95 104 84
f 84 87 95
f 150 104 95
f 95 87 150
f 125 132 71
f 71 129 125
f 125 126 132
f 125 171 126
f 162 164 161
f 44 162 161
f 161 120 44
f 36 120 55
f 62 36 55
f 55 164 62
f 120 161 55
f 55 161 164
f 107 32 13
f 13 47 107
f 13 32 151
f 151 47 13
f 7 110 107
f 48 110 7
f 7 47 149
f 107 47 7
f 7 149 48
f 6 164 163
f 163 27 25
f 163 164 162
f 162 27 163
f 25 6 163
f 34 6 134
f 134 78 34
f 134 112 78
f 134 6 25
f 25 131 134
f 131 112 134
f 26 74 60
f 60 24 70
f 70 26 60
f 60 74 75
f 96 165 97
f 97 109 96
f 65 103 100
f 100 54 65
f 56 103 65
f 65 54 56
f 117 54 100
f 52 146 56
f 56 57 52
f 52 57 146
f 23 72 4
f 4 19 23
f 23 19 72
f 12 8 15
f 15 2 12
f 12 2 70
f 84 127 89
f 89 81 84
f 89 127 123
f 76 81 82
f 129 171 170
f 170 125 129
f 171 125 170
f 58 60 75
f 24 60 58
f 172 165 169
f 143 172 169
f 169 103 143
f 119 117 100
f 119 96 109
f 119 109 64
f 64 117 119
f 136 128 9
f 9 137 136
f 137 54 136
f 46 8 39
f 8 12 39
f 24 30 17
f 70 24 17
f 17 12 70
f 81 89 106
f 106 82 81
f 123 102 106
f 106 89 123
f 106 102 76
f 76 82 106
f 75 24 68
f 68 58 75
f 24 58 68
f 165 96 166
f 166 169 165
f 103 169 101
f 101 166 96
f 169 166 101
f 54 117 50
f 50 136 54
f 50 117 64
f 128 136 50
f 130 128 50
f 50 64 130
f 105 17 30
f 12 17 105
f 105 30 63
f 63 46 105
f 46 39 105
f 105 39 12
f 100 103 98
f 103 101 98
f 98 119 100
f 96 119 98
f 98 101 96

