# https://github.com/mikedh/trimesh
v 0.00597524 -0.06032890 0.09010650
v 0.00185416 -0.06203044 0.09005734
v 0.00185416 -0.06275129 0.09008602
v 0.00839663 -0.06032890 0.09001636
v 0.01081801 -0.05791070 0.09007782
v 0.02292493 -0.05064772 0.09003685
v 0.02482247 -0.04874920 0.09004095
v 0.02482247 -0.04633101 0.09005734
v 0.00185416 -0.06032890 0.08965990
v 0.00185416 -0.07686653 0.08882816
v 0.01808216 -0.07164456 0.08856594
v 0.02230891 -0.06928503 0.08855365
v 0.02482247 -0.06700933 0.08857413
v 0.02482247 -0.04385833 0.08947552
v 0.00185416 -0.05972539 0.08932802
v 0.02482247 -0.04181313 0.08870524
v 0.02482247 -0.03899259 0.08741051
v 0.02482247 -0.03496925 0.08555446
v 0.00185416 -0.07757061 0.08750476
v 0.00355385 -0.07669469 0.08874622
v 0.01081801 -0.07439804 0.08863969
v 0.01323940 -0.07398732 0.08850857
v 0.01952106 -0.07133442 0.08831601
v 0.02256071 -0.06947363 0.08697621
v 0.02377253 -0.06848455 0.08697621
v 0.02482247 -0.06761702 0.08697621
v 0.02482247 -0.06709734 0.08845532
v 0.00185416 -0.03496925 0.07379127
v 0.02482247 -0.03496925 0.04824904
v 0.00185416 -0.07777597 0.08697621
v 0.00772664 -0.07621273 0.08836517
v 0.00597524 -0.07641809 0.08856184
v 0.01454339 -0.07368976 0.08824225
v 0.02075086 -0.07068482 0.08697621
v 0.01954129 -0.07134699 0.08697621
v 0.02364438 -0.06841331 0.08455473
v 0.02324419 -0.06584423 0.04824904
v 0.02482247 -0.06474619 0.04824904
v 0.02482247 -0.06744938 0.08455473
v 0.00185416 -0.03496925 0.04824904
v 0.00185416 -0.07778435 0.08527585
v 0.00355385 -0.07738201 0.08697621
v 0.00783681 -0.07625045 0.08697621
v 0.01081801 -0.07515660 0.08697621
v 0.01345973 -0.07412981 0.08685739
v 0.01454339 -0.07368976 0.08759079
v 0.01939515 -0.07127994 0.08514884
v 0.02202113 -0.06654413 0.04824904
v 0.02322396 -0.06585680 0.04824904
v 0.01441524 -0.07363108 0.08597648
v 0.00185416 -0.07511469 0.04824904
v 0.00185416 -0.07775501 0.08455473
v 0.01081801 -0.07508535 0.08455473
v 0.00355385 -0.07729820 0.08455473
v 0.00746584 -0.07376101 0.04824904
v 0.01307752 -0.07412981 0.08455473
v 0.01925576 -0.07120869 0.08353452
v 0.01830250 -0.07172419 0.08442772
v 0.01081801 -0.07227740 0.04824904
v 0.01250196 -0.07146015 0.04824904
v 0.02050355 -0.06733622 0.04824904
v 0.00355385 -0.07474588 0.04824904
v 0.00597524 -0.07418011 0.04824904
v 0.01081801 -0.07491353 0.08213326
v 0.00869115 -0.07324551 0.04824904
v 0.01370254 -0.07086085 0.04824904
v 0.01565853 -0.06985501 0.04824904
v 0.01727504 -0.06901681 0.04824904
v 0.01847786 -0.06839235 0.04824904
f 1 2 3
f 1 3 4
f 1 4 5
f 1 5 6
f 1 6 7
f 1 7 8
f 1 8 2
f 2 9 15
f 2 15 28
f 2 28 40
f 2 40 51
f 2 51 52
f 2 52 41
f 2 41 30
f 2 30 19
f 2 19 10
f 2 10 3
f 2 8 9
f 3 10 4
f 4 6 5
f 4 10 11
f 4 11 12
f 4 12 6
f 6 12 13
f 6 13 7
f 7 13 27
f 7 27 26
f 7 26 39
f 7 39 38
f 7 38 29
f 7 29 18
f 7 18 17
f 7 17 16
f 7 16 14
f 7 14 8
f 8 14 9
f 9 14 16
f 9 16 17
f 9 17 18
f 9 18 15
f 10 19 20
f 10 20 21
f 10 21 11
f 11 21 22
f 11 22 23
f 11 23 12
f 12 23 24
f 12 24 25
f 12 25 26
f 12 26 27
f 12 27 13
f 15 18 28
f 18 29 40
f 18 40 28
f 19 30 31
f 19 31 32
f 19 32 20
f 20 32 22
f 20 22 21
f 22 33 23
f 22 32 31
f 22 31 33
f 23 34 24
f 23 33 35
f 23 35 34
f 24 36 25
f 24 34 37
f 24 37 38
f 24 38 36
f 25 36 39
f 25 39 26
f 29 38 37
f 29 37 49
f 29 49 48
f 29 48 61
f 29 61 69
f 29 69 68
f 29 68 67
f 29 67 66
f 29 66 60
f 29 60 59
f 29 59 65
f 29 65 55
f 29 55 63
f 29 63 62
f 29 62 51
f 29 51 40
f 30 41 42
f 30 42 31
f 31 42 43
f 31 43 44
f 31 44 33
f 33 44 45
f 33 45 46
f 33 46 35
f 34 35 47
f 34 47 48
f 34 48 49
f 34 49 37
f 35 46 50
f 35 50 47
f 36 38 39
f 41 52 43
f 41 43 42
f 43 53 44
f 43 52 54
f 43 54 55
f 43 55 53
f 44 53 45
f 45 56 50
f 45 50 46
f 45 53 56
f 47 57 48
f 47 50 58
f 47 58 59
f 47 59 60
f 47 60 57
f 48 57 61
f 50 56 59
f 50 59 58
f 51 62 52
f 52 62 63
f 52 63 54
f 53 64 56
f 53 55 64
f 54 63 55
f 55 65 64
f 56 65 59
f 56 64 65
f 57 60 66
f 57 66 67
f 57 67 68
f 57 68 69
f 57 69 61

