# https://github.com/mikedh/trimesh
v 0.01551239 0.02438616 0.09043391
v 0.01808216 0.02683169 0.08975671
v 0.01566078 0.02683169 0.09013247
v 0.01551239 0.02669075 0.09016963
v 0.00185417 -0.01255064 0.07337167
v 0.00185417 -0.03496925 0.07378872
v 0.01551239 0.02428749 0.09043391
v 0.02482022 0.02199700 0.08923229
v 0.02292269 0.02441435 0.08924467
v 0.02050130 0.02683169 0.08926532
v 0.01808216 0.02925609 0.08919512
v 0.01566078 0.02925609 0.08967825
v 0.01551239 0.02925609 0.08969889
v 0.01551239 0.02683169 0.09014899
v 0.00185417 -0.01255064 0.04825317
v 0.01551239 0.03168049 0.08907537
v 0.01551239 0.03378774 0.08846836
v 0.01551239 0.03400622 0.08840230
v 0.01551239 0.03631080 0.08758469
v 0.01551239 0.03702966 0.08723783
v 0.00185417 -0.03496925 0.04825317
v 0.02482247 -0.03496925 0.08554895
v 0.01551239 0.02182081 0.09025222
v 0.01551239 0.02194767 0.09027287
v 0.02482247 0.01028379 0.08460747
v 0.02482022 0.02451302 0.08879458
v 0.02482022 0.03702966 0.08598666
v 0.01124518 0.01028379 0.04824904
v 0.01551239 0.03702966 0.04827794
v 0.01551239 0.03700852 0.04824904
v 0.02482247 -0.03496925 0.04825317
v 0.01124518 -0.01254359 0.04824904
v 0.02482247 0.01028379 0.04824904
v 0.02482022 0.03702966 0.04824904
v 0.01631727 0.03702966 0.04824904
v 0.02482247 -0.01254359 0.04824904
f 1 2 3
f 1 3 4
f 1 4 5
f 1 5 6
f 1 6 7
f 1 7 8
f 1 8 2
f 2 8 9
f 2 9 10
f 2 10 11
f 2 11 12
f 2 12 3
f 3 12 13
f 3 13 14
f 3 14 4
f 4 14 5
f 5 15 21
f 5 21 6
f 5 14 13
f 5 13 16
f 5 16 17
f 5 17 18
f 5 18 19
f 5 19 20
f 5 20 29
f 5 29 15
f 6 21 31
f 6 31 22
f 6 22 23
f 6 23 24
f 6 24 7
f 7 24 22
f 7 22 8
f 8 22 25
f 8 25 26
f 8 26 9
f 9 26 10
f 10 26 27
f 10 27 11
f 11 27 12
f 12 27 16
f 12 16 13
f 15 28 32
f 15 32 21
f 15 29 30
f 15 30 28
f 16 27 17
f 17 27 18
f 18 27 19
f 19 27 20
f 20 27 34
f 20 34 35
f 20 35 29
f 21 32 36
f 21 36 31
f 22 31 36
f 22 36 33
f 22 33 25
f 22 24 23
f 25 33 34
f 25 34 27
f 25 27 26
f 28 30 35
f 28 35 34
f 28 34 33
f 28 33 36
f 28 36 32
f 29 35 30

