# https://github.com/mikedh/trimesh
v 0.04184797 0.02801459 0.07797854
v 0.04871995 0.02801459 0.07842197
v 0.04184797 0.02801459 0.08451336
v 0.03329179 0.04170130 0.06513063
v 0.04184797 0.02954735 0.06314684
v 0.04840211 0.03631155 -0.03470040
v 0.04911452 0.02801459 0.07906379
v 0.04315588 0.02801459 0.08410493
v 0.04714170 0.03411087 0.08189943
v 0.04356871 0.04265879 0.08093088
v 0.04184797 0.04399464 0.08101257
v 0.03343427 0.04545791 0.06670598
v 0.03325160 0.04379774 0.06676433
v 0.03350003 0.04170130 0.06656595
v 0.03329179 0.04170130 0.06525898
v 0.03325160 0.04379774 0.06558572
v 0.04184797 0.04179396 -0.03470040
v 0.04208909 0.04151598 -0.03470040
v 0.04225715 0.04133066 -0.03470040
v 0.04245077 0.04113761 -0.03470040
v 0.04465741 0.03919561 -0.03470040
v 0.04714535 0.03702581 -0.03470040
v 0.05081698 0.03677872 -0.03470040
v 0.04936660 0.02801459 0.07986897
v 0.04576438 0.02801459 0.08328808
v 0.04725860 0.03662428 0.08131597
v 0.04917662 0.03411087 0.08124595
v 0.04881128 0.03587914 0.08104757
v 0.04652793 0.03846977 0.08109425
v 0.04714170 0.04138085 0.08017237
v 0.04451493 0.04359312 0.08040575
v 0.04458800 0.04451972 0.08013737
v 0.04209640 0.04601387 0.08046411
v 0.04184797 0.04577450 0.08059246
v 0.03343427 0.04545791 0.06590080
v 0.04184797 0.04610267 0.08049911
v 0.04184797 0.04828791 0.07982229
v 0.04184797 0.04863152 0.07968226
v 0.04184797 0.05012567 0.07904045
v 0.04184797 0.05317961 0.07751177
v 0.04184797 0.05497104 0.07656655
v 0.04184797 0.05526832 0.07637984
v 0.04277958 0.05769680 0.07420935
v 0.04184797 0.04797132 -0.03470040
v 0.05112752 0.03710689 -0.03470040
v 0.05133211 0.03697176 -0.03409359
v 0.05342549 0.03754703 -0.03096622
v 0.04935198 0.02801459 0.08041743
v 0.05147459 0.02980988 0.07815358
v 0.05147459 0.02980988 0.07906379
v 0.04607857 0.02801459 0.08314805
v 0.05561751 0.03774779 0.07849199
v 0.05020322 0.03721113 0.08028906
v 0.05494894 0.03936162 0.07829361
v 0.05190934 0.04123800 0.07874871
v 0.05266559 0.04195611 0.07832862
v 0.04714170 0.04379774 0.07954223
v 0.04472317 0.04621463 0.07962392
v 0.04230099 0.04863152 0.07960058
v 0.04277958 0.05769680 0.07307742
v 0.04297686 0.05291321 -0.01955362
v 0.04184797 0.05053106 -0.02923916
v 0.04184797 0.05014112 -0.03110625
v 0.04184797 0.04965465 -0.03194644
v 0.04230099 0.05047315 0.07880706
v 0.04230099 0.05347303 0.07733673
v 0.04230099 0.05531851 0.07640318
v 0.04472317 0.05789757 0.07437272
v 0.04561094 0.05965811 0.07147873
v 0.05310034 0.06685859 0.05470992
v 0.05303823 0.06692037 0.05306455
v 0.05304919 0.06693195 0.05064900
v 0.05027263 0.05403671 -0.03470040
v 0.05574537 0.04787866 -0.03470040
v 0.06540487 0.04948863 -0.02114065
v 0.06560215 0.04924926 -0.01954195
v 0.06581770 0.04915660 -0.01711473
v 0.06778686 0.04977048 -0.00199130
v 0.06785263 0.04971256 -0.00017088
v 0.04881128 0.02801459 0.08117594
v 0.05368487 0.03220747 0.07883040
v 0.05853654 0.03720341 0.07565634
v 0.05853654 0.03720341 0.07653155
v 0.04790525 0.02801459 0.08192277
v 0.05562481 0.03530001 0.07850366
v 0.05887996 0.03895624 0.07667158
v 0.05658199 0.03871300 0.07788519
v 0.05682312 0.04137699 0.07706834
v 0.04867976 0.04532664 0.07860868
v 0.05020322 0.04334216 0.07871371
v 0.04465741 0.04856975 0.07886541
v 0.04380617 0.05008707 0.07859701
v 0.05312225 0.06444170 -0.00258643
v 0.05317706 0.06438379 -0.00392840
v 0.04296955 0.05269314 -0.02198084
v 0.05246100 0.06207114 -0.02198084
v 0.05252310 0.06205183 -0.02235426
v 0.04419708 0.05509459 0.07625149
v 0.04488757 0.05589764 0.07565634
v 0.04714170 0.05760028 0.07408099
v 0.04718919 0.05889366 0.07234226
v 0.04641468 0.05965811 0.07147873
v 0.05333050 0.06685859 0.05470992
v 0.05487953 0.06745703 0.04094013
v 0.05491606 0.06745703 0.03852458
v 0.05493433 0.06742614 0.03610903
v 0.05498547 0.06736823 0.03125459
v 0.05502200 0.06732576 0.02882737
v 0.05510603 0.06723696 0.02401962
v 0.05513891 0.06718290 0.02159239
v 0.05516814 0.06712114 0.01916518
v 0.05521929 0.06705164 0.01676130
v 0.05574537 0.05403671 -0.03470040
v 0.06540487 0.05000599 -0.02114065
v 0.07022366 0.05212946 0.01237363
v 0.07028577 0.05203293 0.01433408
v 0.07036979 0.05193255 0.01915351
v 0.07040633 0.05188622 0.02158073
v 0.07057438 0.05174723 0.03124292
v 0.06615015 0.04670110 0.06517730
v 0.06068107 0.03991759 0.07419768
v 0.06080163 0.04137699 0.07422102
v 0.05975311 0.04137699 0.07542296
v 0.05854750 0.04137699 0.07635650
v 0.05809449 0.04266651 0.07611145
v 0.05664045 0.04360084 0.07633316
v 0.05440459 0.04379774 0.07710334
v 0.04624297 0.04772422 0.07860868
v 0.04843499 0.05234180 0.07609978
v 0.04937025 0.05327613 0.07541130
v 0.04966252 0.05602505 0.07422102
v 0.04714170 0.05589378 0.07506121
v 0.04580822 0.05460426 0.07602976
v 0.04488757 0.05366221 0.07670658
v 0.05528870 0.06698214 0.01433408
v 0.05538734 0.06690493 0.01193020
v 0.05550425 0.06684701 0.01041319
v 0.05345471 0.06205183 -0.02235426
v 0.04892089 0.05730686 0.07382427
v 0.04966252 0.05794004 0.07261065
v 0.05356431 0.06209816 0.06425542
v 0.05440459 0.06393593 0.06076630
v 0.05440459 0.06427182 0.06017116
v 0.05440824 0.06461158 0.05954102
v 0.05440824 0.06529495 0.05789565
v 0.05569788 0.06443398 0.05926095
v 0.05577095 0.06691651 0.04757996
v 0.05600842 0.06709410 0.04584124
v 0.05631895 0.06732962 0.04336734
v 0.05647970 0.06745703 0.04094013
v 0.05648700 0.06745703 0.03852458
v 0.05643221 0.06736823 0.03125459
v 0.05639933 0.06732576 0.02882737
v 0.05632261 0.06723696 0.02401962
v 0.05624223 0.06718290 0.02159239
v 0.05613263 0.06712114 0.01916518
v 0.05439728 0.06167347 -0.02235426
v 0.05463840 0.06156923 -0.02235426
v 0.05682677 0.06023724 -0.02235426
v 0.05755379 0.05959634 -0.02234259
v 0.05813833 0.05899019 -0.02234259
v 0.06005634 0.05651924 -0.02234259
v 0.06095872 0.05534168 -0.02234259
v 0.06431982 0.05095190 -0.02234259
v 0.06550351 0.05255415 -0.01469918
v 0.06583231 0.05305992 -0.01227197
v 0.06560215 0.05033802 -0.01954195
v 0.07022366 0.05241130 0.01237363
v 0.07028577 0.05251554 0.01433408
v 0.07036979 0.05264295 0.01915351
v 0.07057438 0.05294023 0.03124292
v 0.07055612 0.05177426 0.03367014
v 0.06786723 0.04961218 0.06017116
v 0.06785993 0.04961990 0.06033453
v 0.06772476 0.04982453 0.06155981
v 0.06579943 0.04686712 0.06684601
v 0.07046478 0.05188236 0.03609736
v 0.06579943 0.04811031 0.06684601
v 0.06068837 0.04293677 0.07385927
v 0.05571249 0.04513746 0.07612312
v 0.06263928 0.04951180 0.06861975
v 0.05449957 0.05359658 0.07250563
v 0.05282633 0.05425292 0.07340416
v 0.05347298 0.05263909 0.07384760
v 0.05053933 0.05691690 0.07353253
v 0.05422922 0.04605248 0.07633316
v 0.05020322 0.04617988 0.07774516
v 0.05248292 0.04914502 0.07581971
v 0.05004978 0.05155033 0.07580805
v 0.05020322 0.05657715 0.07380093
v 0.05590612 0.06698214 0.01433408
v 0.05579286 0.06690493 0.01193020
v 0.05569423 0.06684701 0.01041319
v 0.05020322 0.05731072 0.07318245
v 0.05610705 0.06239545 0.06207326
v 0.05492336 0.06413284 0.06017116
v 0.05278615 0.05935696 0.06861975
v 0.05673909 0.06300547 0.06017116
v 0.05817121 0.06207886 0.05938932
v 0.05840868 0.06228735 0.05789565
v 0.06566060 0.05743040 0.05064900
v 0.05978964 0.06377377 0.04584124
v 0.05859865 0.06483551 0.04584124
v 0.05721037 0.06606326 0.04582957
v 0.05752821 0.06632580 0.04336734
v 0.05769261 0.06644935 0.04094013
v 0.05769627 0.06644935 0.03852458
v 0.05768166 0.06643390 0.03610903
v 0.05764147 0.06639916 0.03125459
v 0.05757571 0.06636827 0.02642349
v 0.05647239 0.06742614 0.03610903
v 0.05753187 0.06633738 0.02401962
v 0.05636644 0.06727943 0.02642349
v 0.05745149 0.06627175 0.02159239
v 0.05602303 0.06705164 0.01676130
v 0.05681947 0.06078934 -0.01955362
v 0.05833196 0.05981254 -0.01954195
v 0.05810545 0.05960020 -0.02095394
v 0.05965082 0.05817940 -0.01956529
v 0.06497377 0.05426450 -0.01227197
v 0.06520759 0.05457723 -0.01067327
v 0.06596018 0.05365449 -0.00986809
v 0.06646800 0.05347689 -0.00742920
v 0.06783801 0.05253484 -0.00210799
v 0.06933589 0.05372785 0.01433408
v 0.06800242 0.05282827 -0.00017088
v 0.06726443 0.05403671 -0.00017088
v 0.06742153 0.05431856 0.00224466
v 0.06757862 0.05453090 0.00467188
v 0.06941626 0.05332245 0.01173182
v 0.06938704 0.05379348 0.01676130
v 0.06943453 0.05385526 0.01915351
v 0.06956971 0.05403285 0.02642349
v 0.06965373 0.05414868 0.03124292
v 0.06967931 0.05414868 0.03367014
v 0.07055612 0.05294023 0.03367014
v 0.07033691 0.05203293 0.03851291
v 0.07022731 0.05216420 0.04052003
v 0.06772476 0.04985155 0.06155981
v 0.07046478 0.05284757 0.03609736
v 0.06623783 0.04880140 0.06534067
v 0.06520028 0.04972801 0.06626254
v 0.06035957 0.05214104 0.06871311
v 0.05552252 0.05455793 0.07112865
v 0.05307111 0.05699026 0.07110531
v 0.05378717 0.05999787 0.06700938
v 0.05734189 0.06616364 0.01916518
v 0.05711538 0.06594357 0.01433408
v 0.05699847 0.06583161 0.01193020
v 0.05815659 0.06449189 0.00951465
v 0.05806526 0.06439537 0.00812600
v 0.05863153 0.06002103 -0.01711473
v 0.05617647 0.06007122 0.06455882
v 0.05694733 0.06085883 0.06289011
v 0.05847443 0.06002875 0.06210827
v 0.05772184 0.06164645 0.06101135
v 0.05384928 0.05773927 0.06949494
v 0.05795566 0.06187424 0.06017116
v 0.06484225 0.05658487 0.05548010
v 0.06789281 0.05486680 0.05221269
v 0.06518566 0.05698640 0.05389307
v 0.06543044 0.05722578 0.05228270
v 0.05902244 0.06068124 0.06017116
v 0.06686987 0.05632233 0.05064900
v 0.06338821 0.06000173 0.04822178
v 0.06111216 0.06256919 0.04579456
v 0.06460478 0.05888594 0.04822178
v 0.05880689 0.06511349 0.04336734
v 0.06021344 0.06375833 0.04336734
v 0.06123638 0.06273135 0.04336734
v 0.05887996 0.06523704 0.04094013
v 0.06010018 0.06400543 0.03852458
v 0.05889092 0.06523704 0.03852458
v 0.06021344 0.06386643 0.03610903
v 0.05882881 0.06517140 0.02882737
v 0.05880689 0.06515596 0.02642349
v 0.05877766 0.06512893 0.02401962
v 0.05871921 0.06506330 0.02159239
v 0.05863153 0.06495519 0.01916518
v 0.05984445 0.05880872 -0.01711473
v 0.06243468 0.05655399 -0.01469918
v 0.06539391 0.05477413 -0.00905123
v 0.06812663 0.05510231 0.01433408
v 0.06803164 0.05499807 0.01191853
v 0.06555466 0.05492085 -0.00742920
v 0.06574829 0.05512162 -0.00500198
v 0.06767361 0.05464673 0.00621224
v 0.06777590 0.05475097 0.00782260
v 0.06788551 0.05485521 0.00951465
v 0.06817777 0.05516022 0.01676130
v 0.06844447 0.05543434 0.03124292
v 0.06846639 0.05545365 0.03367014
v 0.06839698 0.05539573 0.02882737
v 0.06845177 0.05544592 0.03609736
v 0.06834218 0.05533782 0.04579456
v 0.06830930 0.05529535 0.04822178
v 0.06966104 0.05405988 0.03609736
v 0.07033691 0.05268156 0.03851291
v 0.07022731 0.05247307 0.04052003
v 0.06638032 0.05090170 0.06249335
v 0.06573002 0.05034188 0.06465218
v 0.06785993 0.05012954 0.06033453
v 0.06882077 0.05347689 0.05064900
v 0.06832756 0.05356955 0.05302954
v 0.06806817 0.05277035 0.05548010
v 0.06780148 0.05237655 0.05689208
v 0.06267946 0.05449229 0.06363695
v 0.06106467 0.05528377 0.06461717
v 0.06274887 0.05214104 0.06625088
v 0.05629703 0.05534554 0.06951828
v 0.05546406 0.05695937 0.06865475
v 0.05829177 0.06461930 0.01193020
v 0.06021344 0.06245723 0.00951465
v 0.06021344 0.06231824 0.00837106
v 0.06590173 0.05529149 -0.00258643
v 0.06072856 0.06221399 0.01191853
v 0.05779126 0.05929133 0.06371863
v 0.06750190 0.05443824 0.05383472
v 0.06813758 0.05511389 0.05064900
v 0.06104641 0.05835700 0.06017116
v 0.06502492 0.05195571 0.06341523
v 0.06588346 0.05767749 0.04822178
v 0.06663971 0.05694779 0.04822178
v 0.06709272 0.05650766 0.04822178
v 0.06596383 0.05779718 0.04579456
v 0.06244199 0.06149973 0.04336734
v 0.06008922 0.06398998 0.04094013
v 0.06727539 0.05665823 0.03609736
v 0.06727905 0.05666209 0.03367014
v 0.06123272 0.06273135 0.02882737
v 0.06726078 0.05664279 0.03124292
v 0.06001981 0.06392049 0.02642349
v 0.06021344 0.06363478 0.02351783
v 0.06111582 0.06262710 0.02158073
v 0.05993213 0.06383555 0.02159239
v 0.06120350 0.06271204 0.02642349
v 0.06105371 0.06254602 0.01915351
v 0.05984079 0.06375833 0.01916518
v 0.06571175 0.05752306 0.01433408
v 0.06084547 0.06232596 0.01433408
v 0.06700139 0.05637252 0.01676130
v 0.06722790 0.05660032 0.02882737
v 0.06541948 0.05240744 0.06180487
v 0.05868633 0.05531465 0.06706773
v 0.06250410 0.05667754 0.06017116
f 1 2 7
f 1 7 24
f 1 24 48
f 1 48 80
f 1 80 84
f 1 84 51
f 1 51 25
f 1 25 8
f 1 8 3
f 1 3 15
f 1 15 4
f 1 4 5
f 1 5 6
f 1 6 2
f 2 6 7
f 3 8 9
f 3 9 10
f 3 10 11
f 3 11 12
f 3 12 13
f 3 13 14
f 3 14 15
f 4 15 13
f 4 13 16
f 4 16 17
f 4 17 5
f 5 17 18
f 5 18 19
f 5 19 20
f 5 20 21
f 5 21 22
f 5 22 6
f 6 22 21
f 6 21 20
f 6 20 19
f 6 19 18
f 6 18 17
f 6 17 44
f 6 44 73
f 6 73 113
f 6 113 74
f 6 74 45
f 6 45 23
f 6 23 7
f 7 23 24
f 8 25 9
f 9 26 10
f 9 25 27
f 9 27 28
f 9 28 26
f 10 26 29
f 10 29 30
f 10 30 31
f 10 31 32
f 10 32 33
f 10 33 34
f 10 34 11
f 11 34 12
f 12 35 16
f 12 16 13
f 12 34 36
f 12 36 37
f 12 37 38
f 12 38 39
f 12 39 40
f 12 40 41
f 12 41 42
f 12 42 43
f 12 43 60
f 12 60 35
f 13 15 14
f 16 35 44
f 16 44 17
f 23 45 46
f 23 46 47
f 23 47 24
f 24 47 49
f 24 49 50
f 24 50 48
f 25 51 52
f 25 52 27
f 26 28 29
f 27 52 28
f 28 52 53
f 28 53 29
f 29 53 30
f 30 53 54
f 30 54 55
f 30 55 31
f 31 55 56
f 31 56 57
f 31 57 32
f 32 58 33
f 32 57 58
f 33 58 59
f 33 59 37
f 33 37 36
f 33 36 34
f 35 60 61
f 35 61 62
f 35 62 63
f 35 63 64
f 35 64 44
f 37 59 38
f 38 59 39
f 39 59 65
f 39 65 66
f 39 66 40
f 40 67 41
f 40 66 67
f 41 67 42
f 42 67 68
f 42 68 43
f 43 68 69
f 43 69 70
f 43 70 71
f 43 71 72
f 43 72 60
f 44 64 73
f 45 74 75
f 45 75 47
f 45 47 46
f 47 75 76
f 47 76 77
f 47 77 78
f 47 78 79
f 47 79 49
f 48 50 81
f 48 81 80
f 49 82 83
f 49 83 50
f 49 79 82
f 50 83 81
f 51 84 85
f 51 85 52
f 52 85 86
f 52 86 87
f 52 87 54
f 52 54 53
f 54 87 88
f 54 88 56
f 54 56 55
f 56 89 90
f 56 90 57
f 56 88 89
f 57 90 58
f 58 90 89
f 58 89 91
f 58 91 59
f 59 91 92
f 59 92 65
f 60 72 93
f 60 93 61
f 61 93 94
f 61 94 95
f 61 95 62
f 62 95 96
f 62 96 97
f 62 97 63
f 63 97 73
f 63 73 64
f 65 92 98
f 65 98 66
f 66 98 67
f 67 98 99
f 67 99 68
f 68 99 100
f 68 100 101
f 68 101 102
f 68 102 69
f 69 102 103
f 69 103 70
f 70 103 150
f 70 150 104
f 70 104 71
f 71 104 72
f 72 104 105
f 72 105 106
f 72 106 107
f 72 107 108
f 72 108 109
f 72 109 110
f 72 110 111
f 72 111 112
f 72 112 93
f 73 97 138
f 73 138 113
f 74 113 114
f 74 114 75
f 75 114 168
f 75 168 115
f 75 115 76
f 76 115 78
f 76 78 77
f 78 115 116
f 78 116 79
f 79 116 117
f 79 117 118
f 79 118 119
f 79 119 82
f 80 81 85
f 80 85 84
f 81 83 85
f 82 119 83
f 83 119 120
f 83 120 121
f 83 121 86
f 83 86 85
f 86 121 122
f 86 122 123
f 86 123 124
f 86 124 87
f 87 124 88
f 88 124 125
f 88 125 126
f 88 126 127
f 88 127 89
f 89 128 91
f 89 127 128
f 91 128 129
f 91 129 92
f 92 129 130
f 92 130 131
f 92 131 132
f 92 132 133
f 92 133 134
f 92 134 98
f 93 112 135
f 93 135 136
f 93 136 94
f 94 136 137
f 94 137 97
f 94 97 96
f 94 96 95
f 97 137 193
f 97 193 138
f 98 134 133
f 98 133 132
f 98 132 99
f 99 132 139
f 99 139 100
f 100 139 101
f 101 139 140
f 101 140 141
f 101 141 102
f 102 141 142
f 102 142 143
f 102 143 144
f 102 144 103
f 103 144 145
f 103 145 146
f 103 146 147
f 103 147 148
f 103 148 149
f 103 149 150
f 104 150 151
f 104 151 105
f 105 151 152
f 105 152 107
f 105 107 106
f 107 152 153
f 107 153 108
f 108 153 154
f 108 154 109
f 109 154 155
f 109 155 110
f 110 155 156
f 110 156 111
f 111 156 191
f 111 191 135
f 111 135 112
f 113 138 157
f 113 157 158
f 113 158 159
f 113 159 160
f 113 160 161
f 113 161 162
f 113 162 163
f 113 163 164
f 113 164 114
f 114 164 165
f 114 165 166
f 114 166 167
f 114 167 168
f 115 168 169
f 115 169 116
f 116 169 170
f 116 170 117
f 117 170 171
f 117 171 119
f 117 119 118
f 119 171 236
f 119 236 172
f 119 172 120
f 120 173 174
f 120 174 175
f 120 175 176
f 120 176 121
f 120 172 177
f 120 177 173
f 121 176 122
f 122 176 178
f 122 178 123
f 123 125 124
f 123 178 179
f 123 179 125
f 125 180 126
f 125 179 178
f 125 178 181
f 125 181 182
f 125 182 183
f 125 183 184
f 125 184 185
f 125 185 180
f 126 180 127
f 127 180 186
f 127 186 187
f 127 187 128
f 128 187 186
f 128 186 188
f 128 188 129
f 129 188 189
f 129 189 130
f 130 189 188
f 130 188 190
f 130 190 131
f 131 190 132
f 132 190 185
f 132 185 139
f 135 191 192
f 135 192 136
f 136 192 193
f 136 193 137
f 138 193 157
f 139 185 194
f 139 194 140
f 140 194 141
f 141 195 146
f 141 146 196
f 141 196 142
f 141 194 185
f 141 185 197
f 141 197 195
f 142 196 143
f 143 196 146
f 143 146 144
f 144 146 145
f 146 195 198
f 146 198 199
f 146 199 200
f 146 200 201
f 146 201 202
f 146 202 203
f 146 203 204
f 146 204 148
f 146 148 147
f 148 204 205
f 148 205 149
f 149 205 150
f 150 206 151
f 150 205 206
f 151 206 207
f 151 207 208
f 151 208 209
f 151 209 210
f 151 210 211
f 151 211 152
f 152 210 212
f 152 212 153
f 152 211 210
f 153 212 213
f 153 213 154
f 154 213 212
f 154 212 155
f 155 212 214
f 155 214 156
f 156 215 191
f 156 214 215
f 157 193 158
f 158 193 216
f 158 216 159
f 159 216 217
f 159 217 218
f 159 218 160
f 160 218 161
f 161 218 219
f 161 219 162
f 162 219 220
f 162 220 163
f 163 220 164
f 164 220 165
f 165 220 221
f 165 221 166
f 166 221 222
f 166 222 223
f 166 223 224
f 166 224 167
f 167 224 168
f 168 225 169
f 168 224 226
f 168 226 227
f 168 227 228
f 168 228 229
f 168 229 230
f 168 230 225
f 169 225 231
f 169 231 232
f 169 232 170
f 170 232 233
f 170 233 234
f 170 234 171
f 171 234 235
f 171 235 236
f 172 236 240
f 172 240 177
f 173 177 174
f 174 177 237
f 174 237 238
f 174 238 175
f 175 238 299
f 175 299 239
f 175 239 178
f 175 178 176
f 177 240 298
f 177 298 237
f 178 239 241
f 178 241 242
f 178 242 181
f 180 188 186
f 180 185 190
f 180 190 188
f 181 243 244
f 181 244 182
f 181 242 243
f 182 244 183
f 183 244 185
f 183 185 184
f 185 244 245
f 185 245 246
f 185 246 197
f 191 215 214
f 191 214 192
f 192 214 247
f 192 247 248
f 192 248 249
f 192 249 193
f 193 249 250
f 193 250 251
f 193 251 252
f 193 252 217
f 193 217 216
f 195 253 254
f 195 254 255
f 195 255 256
f 195 256 198
f 195 197 246
f 195 246 245
f 195 245 257
f 195 257 253
f 198 256 258
f 198 258 199
f 199 259 260
f 199 260 261
f 199 261 262
f 199 262 200
f 199 258 263
f 199 263 259
f 200 262 264
f 200 264 201
f 201 264 265
f 201 265 202
f 202 266 205
f 202 205 203
f 202 265 267
f 202 267 266
f 203 205 204
f 205 266 268
f 205 268 206
f 206 269 270
f 206 270 271
f 206 271 272
f 206 272 273
f 206 273 207
f 206 268 269
f 207 273 274
f 207 274 208
f 208 274 275
f 208 275 209
f 209 275 276
f 209 276 210
f 210 276 277
f 210 277 212
f 212 277 278
f 212 278 214
f 214 278 279
f 214 279 247
f 217 252 280
f 217 280 281
f 217 281 218
f 218 281 219
f 219 281 220
f 220 281 221
f 221 282 222
f 221 281 280
f 221 280 282
f 222 282 223
f 223 282 227
f 223 227 226
f 223 226 224
f 225 283 231
f 225 230 284
f 225 284 283
f 227 282 285
f 227 285 228
f 228 285 286
f 228 286 229
f 229 286 287
f 229 287 230
f 230 287 288
f 230 288 289
f 230 289 284
f 231 283 232
f 232 283 290
f 232 290 233
f 233 290 234
f 234 291 292
f 234 292 235
f 234 290 293
f 234 293 291
f 235 292 294
f 235 294 295
f 235 295 296
f 235 296 297
f 235 297 236
f 236 297 296
f 236 296 240
f 237 298 299
f 237 299 238
f 239 300 301
f 239 301 242
f 239 242 241
f 239 299 302
f 239 302 303
f 239 303 304
f 239 304 305
f 239 305 306
f 239 306 300
f 240 296 298
f 242 301 307
f 242 307 255
f 242 255 308
f 242 308 309
f 242 309 243
f 243 310 245
f 243 245 244
f 243 309 310
f 245 310 311
f 245 311 257
f 247 279 248
f 248 279 312
f 248 312 249
f 249 312 250
f 250 313 314
f 250 314 315
f 250 315 286
f 250 286 251
f 250 312 316
f 250 316 284
f 250 284 313
f 251 286 252
f 252 286 285
f 252 285 280
f 253 317 254
f 253 257 311
f 253 311 317
f 254 317 308
f 254 308 255
f 255 307 256
f 256 263 258
f 256 307 263
f 259 318 260
f 259 263 318
f 260 318 306
f 260 306 305
f 260 305 304
f 260 304 319
f 260 319 261
f 261 319 262
f 262 319 264
f 263 320 318
f 263 307 321
f 263 321 320
f 264 319 322
f 264 322 267
f 264 267 265
f 266 267 322
f 266 322 268
f 268 322 269
f 269 322 323
f 269 323 324
f 269 324 296
f 269 296 270
f 270 296 325
f 270 325 326
f 270 326 271
f 271 326 327
f 271 327 294
f 271 294 328
f 271 328 272
f 272 328 292
f 272 292 273
f 273 292 329
f 273 329 274
f 274 329 275
f 275 329 330
f 275 330 276
f 276 330 331
f 276 331 332
f 276 332 277
f 277 333 334
f 277 334 335
f 277 335 278
f 277 332 336
f 277 336 291
f 277 291 333
f 278 335 283
f 278 283 337
f 278 337 338
f 278 338 279
f 279 338 339
f 279 339 340
f 279 340 312
f 280 285 282
f 283 339 337
f 283 335 334
f 283 334 341
f 283 341 290
f 283 284 339
f 284 289 313
f 284 316 339
f 286 315 287
f 287 315 288
f 288 314 289
f 288 315 314
f 289 314 313
f 290 341 333
f 290 333 293
f 291 331 292
f 291 293 342
f 291 342 333
f 291 336 332
f 291 332 331
f 292 328 294
f 292 331 329
f 293 333 342
f 294 327 326
f 294 326 295
f 295 326 325
f 295 325 296
f 296 299 298
f 296 324 319
f 296 319 303
f 296 303 299
f 299 303 302
f 300 343 321
f 300 321 301
f 300 306 318
f 300 318 343
f 301 321 307
f 303 319 304
f 308 317 309
f 309 317 344
f 309 344 311
f 309 311 310
f 311 344 317
f 312 340 316
f 316 340 339
f 318 320 345
f 318 345 343
f 319 324 323
f 319 323 322
f 320 321 343
f 320 343 345
f 329 331 330
f 333 341 334
f 337 339 338

