# https://github.com/mikedh/trimesh
v -0.03201138 -0.01255415 0.04824904
v -0.03201138 -0.01255415 0.07175568
v -0.03201138 0.01028450 0.04824904
v 0.01124367 -0.01255415 0.04824904
v -0.03201138 0.01028450 0.07487591
v -0.02805254 -0.01255415 0.07572859
v 0.01124367 0.01028450 0.04824904
v 0.01124367 -0.01255415 0.07310329
v -0.02124419 0.01028450 0.07572859
v 0.00118780 -0.01255415 0.07572859
v 0.01124367 0.01028450 0.07572859
v 0.01124367 0.00394887 0.07572859
f 1 2 5
f 1 5 3
f 1 3 7
f 1 7 4
f 1 4 8
f 1 8 10
f 1 10 6
f 1 6 2
f 2 6 5
f 3 5 9
f 3 9 11
f 3 11 7
f 4 7 11
f 4 11 12
f 4 12 8
f 5 6 9
f 6 10 12
f 6 12 11
f 6 11 9
f 8 12 10

