# https://github.com/mikedh/trimesh
v -0.02384533 0.03702781 0.04825366
v -0.02384533 0.05019865 0.04825366
v -0.02384056 0.01028450 0.04825366
v -0.02384533 0.03702781 0.08866440
v -0.02384533 0.05366925 0.08212805
v -0.02067735 0.05079673 0.04825366
v -0.02384056 0.01028450 0.07340983
v 0.01550909 0.01028450 0.04825366
v -0.02384056 0.03625947 0.08838705
v -0.02384056 0.03676151 0.08863667
v -0.01731881 0.01028450 0.09349964
v -0.02384533 0.03814975 0.08879846
v -0.02384533 0.05374347 0.08455029
v -0.01718542 0.05470389 0.08559038
v -0.01825253 0.05122891 0.04825366
v -0.01943397 0.01028450 0.09021760
v 0.02482247 0.03702781 0.04825366
v 0.01550909 0.01028450 0.07975204
v -0.01859077 0.01028450 0.09172918
v -0.02384533 0.03894865 0.08885393
v -0.01715207 0.01028450 0.09365219
v -0.02384533 0.05357758 0.08531302
v -0.01718542 0.05470389 0.08584924
v -0.01581819 0.05477374 0.08617283
v -0.01339337 0.05488287 0.08455029
v -0.01559905 0.05475627 0.08468897
v -0.01581819 0.05143410 0.04825366
v 0.02482247 0.03855575 0.04825366
v 0.02482247 0.03702781 0.08598792
v 0.01550909 0.01029323 0.07976128
v 0.00963999 0.01103101 0.09067523
v 0.00849189 0.01028450 0.09159513
v -0.02384533 0.05250365 0.08836856
v -0.01569909 0.01028450 0.09473387
v -0.02384533 0.05321087 0.08697253
v -0.02384533 0.05303188 0.08739781
v -0.01339337 0.05486104 0.08659810
v -0.01097332 0.05480429 0.08631150
v -0.01111624 0.05479120 0.08470283
v -0.01201661 0.05470825 0.08317276
v -0.01339337 0.05142536 0.04825366
v 0.02482247 0.04434009 0.08207258
v 0.02342189 0.03962094 0.04825366
v 0.02482247 0.03840732 0.08664433
v 0.01550909 0.02182699 0.09024996
v 0.01550909 0.02009387 0.08908044
v 0.00837280 0.01028450 0.09174306
v -0.01518459 0.01028450 0.09497887
v -0.01365062 0.01028450 0.09542726
v -0.01339337 0.01231448 0.09527010
v -0.01339337 0.01473735 0.09493727
v -0.02308310 0.05253858 0.08838705
v -0.01339337 0.05347717 0.08736083
v -0.00128835 0.05288782 0.08638546
v -0.02065829 0.05255604 0.08835007
v 0.00112693 0.05266954 0.08619593
v 0.00291339 0.05244690 0.08597405
v -0.00960609 0.05470825 0.08584924
v -0.00960609 0.05470825 0.08560424
v -0.01097332 0.05126821 0.04825366
v 0.01323672 0.04901122 0.08455029
v 0.01513751 0.04784999 0.08638546
v 0.02482247 0.04423968 0.08246550
v 0.02222140 0.04051151 0.04825366
v 0.02049211 0.04152432 0.04825366
v 0.01885810 0.04237123 0.04825366
v 0.01763378 0.04296058 0.04825366
v 0.01564724 0.04389917 0.04825366
v 0.01267458 0.04530051 0.04825366
v 0.01081667 0.04617362 0.04825366
v 0.00887300 0.04708165 0.04825366
v 0.00767251 0.04762734 0.04825366
v 0.02482247 0.03894428 0.08681074
v 0.01550909 0.02195359 0.09026844
v 0.00724852 0.01083456 0.09306049
v 0.00718183 0.01028450 0.09300965
v -0.01339337 0.01028450 0.09544113
v -0.01339337 0.01063374 0.09541802
v -0.01097332 0.01084765 0.09542726
v -0.01097332 0.01231448 0.09528396
v -0.01097332 0.01473735 0.09499736
v -0.01097332 0.01716023 0.09457208
v -0.01877179 0.05244690 0.08826686
v 0.01708593 0.04507350 0.08821601
v 0.00839185 0.05034271 0.08636697
v 0.01019260 0.05004149 0.08607575
v 0.00303725 0.05248619 0.08455029
v 0.00112693 0.05295767 0.08455029
v -0.00128835 0.05337240 0.08455029
v -0.00855327 0.05091896 0.04825366
v 0.01151219 0.04967042 0.08455029
v 0.01323672 0.04829091 0.08675527
v 0.01870089 0.04467187 0.08790630
v 0.02197844 0.04276849 0.08831771
v 0.02482247 0.04297804 0.08481378
v 0.00764869 0.04763608 0.04825366
v 0.02482247 0.04128421 0.08663046
v 0.02197844 0.04218788 0.08831771
v 0.01550909 0.02429789 0.09043023
v 0.01473258 0.02261279 0.09067986
v 0.00770585 0.01473735 0.09326389
v 0.00597180 0.01231448 0.09384634
v 0.00742955 0.01231448 0.09314832
v 0.00654347 0.01028450 0.09334710
v -0.01097332 0.01028450 0.09547349
v -0.00854851 0.01028450 0.09539953
v -0.00854851 0.01045039 0.09538566
v -0.00854851 0.01231448 0.09519613
v -0.00370840 0.01231448 0.09502047
v 0.00112693 0.01231448 0.09483557
v -0.00854851 0.01473735 0.09489566
v -0.00854851 0.01716023 0.09447039
v 0.00112693 0.01473735 0.09447963
v 0.00354699 0.01473735 0.09434557
v 0.02050164 0.04307845 0.08837318
v 0.00839185 0.05071815 0.08455029
v 0.00268472 0.05237705 0.08212805
v 0.00111264 0.04933427 0.04825366
v -0.00095964 0.04970098 0.04825366
v 0.00244653 0.05229848 0.08064882
v -0.00612846 0.05053043 0.04825366
v 0.02482247 0.04176442 0.08625603
v 0.02482247 0.04285581 0.08498482
v 0.00354699 0.01231448 0.09459982
v 0.00597180 0.01473735 0.09387407
v 0.00597180 0.04815994 0.04825366
v 0.00610995 0.01028450 0.09355049
v 0.00394239 0.01028450 0.09447963
v -0.00089771 0.01028450 0.09512217
v -0.00370840 0.01473735 0.09469227
v 0.00112693 0.01028450 0.09503896
v 0.00355175 0.04878858 0.04825366
v 0.00152234 0.01028450 0.09499736
v 0.00354699 0.01028450 0.09459982
f 1 2 6
f 1 6 15
f 1 15 27
f 1 27 41
f 1 41 60
f 1 60 90
f 1 90 121
f 1 121 119
f 1 119 118
f 1 118 132
f 1 132 126
f 1 126 96
f 1 96 72
f 1 72 71
f 1 71 70
f 1 70 69
f 1 69 68
f 1 68 67
f 1 67 66
f 1 66 65
f 1 65 64
f 1 64 43
f 1 43 28
f 1 28 17
f 1 17 8
f 1 8 3
f 1 3 7
f 1 7 4
f 1 4 12
f 1 12 20
f 1 20 33
f 1 33 36
f 1 36 35
f 1 35 22
f 1 22 13
f 1 13 5
f 1 5 2
f 2 5 6
f 3 8 18
f 3 18 32
f 3 32 47
f 3 47 76
f 3 76 104
f 3 104 127
f 3 127 128
f 3 128 134
f 3 134 133
f 3 133 131
f 3 131 129
f 3 129 106
f 3 106 105
f 3 105 77
f 3 77 49
f 3 49 48
f 3 48 34
f 3 34 21
f 3 21 11
f 3 11 19
f 3 19 16
f 3 16 7
f 4 7 9
f 4 9 10
f 4 10 11
f 4 11 12
f 5 13 14
f 5 14 15
f 5 15 6
f 7 16 9
f 8 17 29
f 8 29 18
f 9 16 10
f 10 16 19
f 10 19 11
f 11 20 12
f 11 21 20
f 13 22 23
f 13 23 14
f 14 23 24
f 14 24 25
f 14 25 26
f 14 26 15
f 15 26 27
f 17 28 42
f 17 42 63
f 17 63 95
f 17 95 123
f 17 123 122
f 17 122 97
f 17 97 73
f 17 73 44
f 17 44 29
f 18 29 30
f 18 30 31
f 18 31 32
f 20 21 34
f 20 34 33
f 22 35 23
f 23 35 36
f 23 36 24
f 24 37 25
f 24 36 33
f 24 33 37
f 25 37 38
f 25 38 39
f 25 39 40
f 25 40 41
f 25 41 27
f 25 27 26
f 28 43 42
f 29 44 45
f 29 45 46
f 29 46 30
f 30 46 31
f 31 47 32
f 31 46 45
f 31 45 47
f 33 34 48
f 33 48 49
f 33 49 50
f 33 50 51
f 33 51 52
f 33 52 37
f 37 53 54
f 37 54 38
f 37 52 55
f 37 55 53
f 38 54 56
f 38 56 57
f 38 57 58
f 38 58 59
f 38 59 39
f 39 59 60
f 39 60 40
f 40 60 41
f 42 61 62
f 42 62 63
f 42 43 64
f 42 64 65
f 42 65 66
f 42 66 67
f 42 67 68
f 42 68 69
f 42 69 70
f 42 70 71
f 42 71 72
f 42 72 61
f 44 73 45
f 45 73 74
f 45 74 75
f 45 75 76
f 45 76 47
f 49 77 78
f 49 78 50
f 50 78 79
f 50 79 80
f 50 80 81
f 50 81 51
f 51 81 52
f 52 81 82
f 52 82 55
f 53 55 83
f 53 83 84
f 53 84 54
f 54 84 56
f 55 82 84
f 55 84 83
f 56 84 85
f 56 85 57
f 57 85 86
f 57 86 87
f 57 87 88
f 57 88 58
f 58 88 89
f 58 89 59
f 59 89 90
f 59 90 60
f 61 91 86
f 61 86 62
f 61 72 91
f 62 92 84
f 62 84 93
f 62 93 94
f 62 94 95
f 62 95 63
f 62 86 92
f 72 96 91
f 73 97 94
f 73 94 98
f 73 98 99
f 73 99 74
f 74 99 100
f 74 100 101
f 74 101 102
f 74 102 103
f 74 103 104
f 74 104 75
f 75 104 76
f 77 105 78
f 78 105 79
f 79 105 106
f 79 106 107
f 79 107 80
f 80 107 108
f 80 108 81
f 81 108 109
f 81 109 110
f 81 110 111
f 81 111 112
f 81 112 82
f 82 112 84
f 84 113 114
f 84 114 115
f 84 115 94
f 84 94 93
f 84 92 85
f 84 112 113
f 85 92 86
f 86 116 87
f 86 91 116
f 87 117 88
f 87 116 96
f 87 96 117
f 88 118 119
f 88 119 89
f 88 117 120
f 88 120 118
f 89 119 121
f 89 121 90
f 91 96 116
f 94 97 122
f 94 122 123
f 94 123 95
f 94 115 114
f 94 114 124
f 94 124 125
f 94 125 98
f 96 126 117
f 98 125 101
f 98 101 99
f 99 101 100
f 101 125 102
f 102 127 104
f 102 104 103
f 102 125 128
f 102 128 127
f 106 129 107
f 107 129 109
f 107 109 108
f 109 129 110
f 110 113 130
f 110 130 111
f 110 129 131
f 110 131 124
f 110 124 114
f 110 114 113
f 111 130 112
f 112 130 113
f 117 126 120
f 118 120 132
f 120 126 132
f 124 131 133
f 124 133 134
f 124 134 125
f 125 134 128

