# https://github.com/mikedh/trimesh
v 0.00185416 -0.06275268 0.09008624
v 0.00185416 -0.07686659 0.08882720
v 0.00185416 -0.06202987 0.09005360
v -0.01218691 -0.03603035 0.09548609
v -0.01303438 -0.03603035 0.09566795
v -0.01331224 -0.03603035 0.09572391
v -0.01445609 -0.04026024 0.09549075
v -0.01582222 -0.04338241 0.09513636
v 0.00113173 -0.07693502 0.08885984
v -0.01340023 -0.07914192 0.08899042
v -0.01097823 -0.07896657 0.08884119
v -0.00855624 -0.07875700 0.08859871
v -0.00673627 -0.07859447 0.08836556
v 0.00185416 -0.07757229 0.08750289
v 0.00185416 -0.06033193 0.08966189
v -0.00942223 -0.03603035 0.09329911
v -0.01132556 -0.03603035 0.09484258
v -0.01573886 -0.03603035 0.09588712
v -0.01582222 -0.03612017 0.09588246
v -0.01582222 -0.03854091 0.09565396
v -0.01582222 -0.04026024 0.09549075
v -0.01582222 -0.04147062 0.09537418
v -0.01909631 -0.03960587 0.09543013
v -0.01824884 -0.04338241 0.09498248
v -0.03034491 -0.07678960 0.08884119
v -0.01824884 -0.07906494 0.08895777
v -0.01582222 -0.07916758 0.08902772
v -0.01340023 -0.07972359 0.08697130
v -0.01097823 -0.07952257 0.08697130
v -0.00855624 -0.07925312 0.08697130
v 0.00113173 -0.07794437 0.08697130
v 0.00185416 -0.07777758 0.08697130
v 0.00185416 -0.05972888 0.08932615
v -0.00835248 -0.03603035 0.09180692
v -0.01582222 -0.03603035 0.09588712
v -0.02066620 -0.03603035 0.09570526
v -0.02312061 -0.03603035 0.09559334
v -0.02234724 -0.03757432 0.09547677
v -0.02395882 -0.03715518 0.09542547
v -0.02066620 -0.04096594 0.09514568
v -0.02307894 -0.04096594 0.09496849
v -0.03518427 -0.04096594 0.09407318
v -0.03034028 -0.04338241 0.09408716
v -0.03276691 -0.07646883 0.08866399
v -0.02550093 -0.07866291 0.08847747
v -0.02307430 -0.07879976 0.08866866
v -0.02066620 -0.07893235 0.08883187
v -0.03518427 -0.04338241 0.09372811
v -0.03760626 -0.04552943 0.09320118
v -0.01582222 -0.07971503 0.08697130
v -0.01097823 -0.07711038 0.04825370
v -0.01095971 -0.07711038 0.04825370
v -0.00854235 -0.07710182 0.04825370
v -0.01097823 -0.07947980 0.08454649
v -0.00855624 -0.07936432 0.08454649
v -0.00613888 -0.07910342 0.08454649
v -0.00199880 -0.07856026 0.08608997
v 0.00113173 -0.07794865 0.08454649
v 0.00185416 -0.07777758 0.08526927
v 0.00185416 -0.03603035 0.07406854
v -0.02386620 -0.03603035 0.09555137
v -0.02312061 -0.03625703 0.09557002
v -0.02550093 -0.03603035 0.09545812
v -0.02550093 -0.03675315 0.09536951
v -0.02849716 -0.03603035 0.09524827
v -0.03760626 -0.04338241 0.09353692
v -0.03034028 -0.03612017 0.09509906
v -0.03265113 -0.03603035 0.09489388
v -0.03760626 -0.07401814 0.08839354
v -0.03894924 -0.07371448 0.08823965
v -0.03428586 -0.07620367 0.08837955
v -0.02696894 -0.07856026 0.08830960
v -0.03928267 -0.04506325 0.09311258
v -0.01824884 -0.07949690 0.08697130
v -0.02066620 -0.07643034 0.04825370
v -0.00612035 -0.07681099 0.04825370
v -0.00199880 -0.07856026 0.08504544
v 0.00185416 -0.07775619 0.08454649
v -0.00123469 -0.07838063 0.08436463
v -0.00352238 -0.07629776 0.04825370
v 0.00185416 -0.07511304 0.04825370
v 0.00185416 -0.03603035 0.04825836
v -0.03024303 -0.03603035 0.09511771
v -0.03276228 -0.03612017 0.09487056
v -0.03934287 -0.04338241 0.09322449
v -0.03275301 -0.03603035 0.09487056
v -0.04512231 -0.04848052 0.09109346
v -0.04545574 -0.04880557 0.09094425
v -0.04545574 -0.07161023 0.08602935
v -0.04545574 -0.07173426 0.08574957
v -0.04545574 -0.07215340 0.08456515
v -0.04545574 -0.07218334 0.08396827
v -0.03430902 -0.07620794 0.08697130
v -0.03276691 -0.07673828 0.08697130
v -0.02696894 -0.07856026 0.08742361
v -0.04545574 -0.04822818 0.09103284
v -0.04487224 -0.04822818 0.09119605
v -0.02571395 -0.07867146 0.08675680
v -0.02324565 -0.07618655 0.04825370
v 0.00185416 -0.04848052 0.04825370
v -0.04545574 -0.03603035 0.04825836
v -0.03905575 -0.04170157 0.09320118
v -0.04545574 -0.04627362 0.09088829
v -0.03510091 -0.03603035 0.09390064
v -0.04545574 -0.04848052 0.09099554
v -0.04545574 -0.06857360 0.04825370
v -0.04245488 -0.07010047 0.04825370
v -0.04073679 -0.07097296 0.04825370
v -0.03951885 -0.07156746 0.04825370
v -0.03759237 -0.07224749 0.04825370
v -0.02527864 -0.07576741 0.04825370
v -0.02519065 -0.07578880 0.04825370
v -0.02431540 -0.07607535 0.04916300
v -0.02331975 -0.07617800 0.04825370
v -0.02665867 -0.07848755 0.08581019
v -0.04545574 -0.04848052 0.04825370
v -0.04545574 -0.03603035 0.08209371
v -0.03658282 -0.03702260 0.09325713
v -0.03519353 -0.03603035 0.09383070
f 1 2 14
f 1 14 32
f 1 32 59
f 1 59 78
f 1 78 81
f 1 81 100
f 1 100 82
f 1 82 60
f 1 60 33
f 1 33 15
f 1 15 3
f 1 3 4
f 1 4 2
f 2 4 5
f 2 5 6
f 2 6 7
f 2 7 8
f 2 8 9
f 2 9 10
f 2 10 11
f 2 11 12
f 2 12 13
f 2 13 14
f 3 15 16
f 3 16 17
f 3 17 4
f 4 17 16
f 4 16 34
f 4 34 60
f 4 60 82
f 4 82 101
f 4 101 117
f 4 117 119
f 4 119 104
f 4 104 86
f 4 86 68
f 4 68 83
f 4 83 65
f 4 65 63
f 4 63 61
f 4 61 37
f 4 37 36
f 4 36 35
f 4 35 18
f 4 18 6
f 4 6 5
f 6 18 7
f 7 18 19
f 7 19 20
f 7 20 21
f 7 21 22
f 7 22 8
f 8 22 23
f 8 23 24
f 8 24 25
f 8 25 26
f 8 26 27
f 8 27 10
f 8 10 9
f 10 27 28
f 10 28 29
f 10 29 11
f 11 29 30
f 11 30 12
f 12 30 13
f 13 30 31
f 13 31 14
f 14 31 32
f 15 33 34
f 15 34 16
f 18 35 19
f 19 35 36
f 19 36 23
f 19 23 20
f 20 23 21
f 21 23 22
f 23 36 37
f 23 37 38
f 23 38 39
f 23 39 40
f 23 40 24
f 24 40 41
f 24 41 42
f 24 42 43
f 24 43 25
f 25 44 45
f 25 45 46
f 25 46 47
f 25 47 26
f 25 43 48
f 25 48 49
f 25 49 44
f 26 47 50
f 26 50 27
f 27 50 28
f 28 50 51
f 28 51 52
f 28 52 53
f 28 53 54
f 28 54 55
f 28 55 29
f 29 55 56
f 29 56 30
f 30 56 57
f 30 57 31
f 31 57 58
f 31 58 32
f 32 58 59
f 33 60 34
f 37 61 62
f 37 62 38
f 38 63 39
f 38 62 61
f 38 61 63
f 39 63 64
f 39 64 40
f 40 64 41
f 41 64 65
f 41 65 42
f 42 66 48
f 42 48 43
f 42 65 67
f 42 67 68
f 42 68 66
f 44 69 70
f 44 70 71
f 44 71 72
f 44 72 45
f 44 49 73
f 44 73 69
f 45 72 50
f 45 50 46
f 46 50 47
f 48 66 49
f 49 66 73
f 50 72 74
f 50 74 75
f 50 75 51
f 51 75 99
f 51 99 114
f 51 114 112
f 51 112 111
f 51 111 110
f 51 110 109
f 51 109 108
f 51 108 107
f 51 107 106
f 51 106 116
f 51 116 100
f 51 100 81
f 51 81 80
f 51 80 76
f 51 76 53
f 51 53 52
f 53 76 56
f 53 56 55
f 53 55 54
f 56 77 57
f 56 76 77
f 57 77 58
f 58 78 59
f 58 77 79
f 58 79 76
f 58 76 80
f 58 80 81
f 58 81 78
f 63 65 64
f 65 83 67
f 66 68 84
f 66 84 85
f 66 85 73
f 67 83 68
f 68 86 84
f 69 73 70
f 70 87 88
f 70 88 89
f 70 89 71
f 70 73 87
f 71 89 90
f 71 90 91
f 71 91 92
f 71 92 93
f 71 93 94
f 71 94 72
f 72 94 95
f 72 95 74
f 73 85 96
f 73 96 97
f 73 97 87
f 74 98 99
f 74 99 75
f 74 95 98
f 76 79 77
f 82 100 116
f 82 116 101
f 84 86 85
f 85 86 102
f 85 102 103
f 85 103 96
f 86 104 102
f 87 97 96
f 87 96 105
f 87 105 88
f 88 105 96
f 88 96 103
f 88 103 117
f 88 117 101
f 88 101 116
f 88 116 106
f 88 106 92
f 88 92 91
f 88 91 90
f 88 90 89
f 92 106 107
f 92 107 108
f 92 108 109
f 92 109 110
f 92 110 94
f 92 94 93
f 94 110 95
f 95 110 111
f 95 111 112
f 95 112 113
f 95 113 114
f 95 114 115
f 95 115 98
f 98 115 114
f 98 114 99
f 102 104 103
f 103 104 118
f 103 118 117
f 104 119 118
f 112 114 113
f 117 118 119

