# https://github.com/mikedh/trimesh
v 0.02482247 -0.06489360 0.05730321
v 0.02482247 -0.06484753 0.05266984
v 0.02656392 -0.06395375 0.05900485
v 0.02656392 -0.06395375 0.05933288
v 0.02521946 -0.06464482 0.06232611
v 0.02482247 -0.06484753 0.06232611
v 0.02482247 -0.06481067 0.05033265
v 0.02922903 -0.06176998 0.06031695
v 0.02898025 -0.06205562 0.06232611
v 0.02773106 -0.06304154 0.06232611
v 0.02482247 -0.06473696 0.04799547
v 0.02651099 -0.06392611 0.05740572
v 0.02654010 -0.06394453 0.06095251
v 0.02558998 -0.06444210 0.06232611
v 0.02482247 0.02254017 0.06232611
v 0.02753257 -0.06309682 0.05808227
v 0.02916286 -0.06170548 0.05789776
v 0.03140716 -0.05910707 0.04694989
v 0.03143363 -0.05914393 0.04822099
v 0.02926343 -0.06181605 0.06232611
v 0.02651364 -0.06392611 0.06232611
v 0.02482247 -0.06462639 0.04571978
v 0.02482247 -0.06338247 0.02115882
v 0.02622251 -0.06128163 0.00221530
v 0.02482247 0.02254017 -0.06324643
v 0.04109100 0.02254017 0.06232611
v 0.02482512 0.02923891 -0.07772059
v 0.02752198 -0.06001006 -0.00020389
v 0.02905965 -0.05918078 0.00947289
v 0.02913375 -0.05924528 0.01189208
v 0.03203705 -0.05727344 0.02400854
v 0.03355089 -0.05641651 0.03368532
v 0.03146803 -0.05918078 0.05064018
v 0.03361176 -0.05647180 0.03610452
v 0.03365146 -0.05650866 0.03854421
v 0.02947251 -0.06159491 0.06232611
v 0.02482247 -0.06155805 -0.01229986
v 0.02604255 -0.06115262 -0.00262308
v 0.02482247 -0.05837914 -0.06324643
v 0.02482512 0.02875056 -0.08735636
v 0.02482512 0.02862156 -0.08977556
v 0.02482512 0.02821613 -0.09656160
v 0.02482512 0.02804106 -0.09879627
v 0.02482512 0.02668657 -0.11601766
v 0.02482512 0.02647464 -0.11860086
v 0.02482512 0.02624429 -0.12124557
v 0.02482512 0.02540579 -0.13002028
v 0.02482512 0.02503723 -0.13377207
v 0.02482512 0.02488058 -0.13512518
v 0.02482512 0.02475158 -0.13584274
v 0.02482512 0.02419873 -0.13820043
v 0.02482512 0.02381173 -0.13906150
v 0.02482512 0.02351688 -0.13967655
v 0.02482512 0.02307459 -0.14012758
v 0.02482512 0.02219003 -0.14088614
v 0.02482512 0.02083554 -0.14182922
v 0.02482512 0.02024583 -0.14217775
v 0.02482512 0.01726042 -0.14361286
v 0.02482512 0.01590593 -0.14422791
v 0.02482512 0.01497529 -0.14461744
v 0.02482512 0.01041425 -0.14642159
v 0.02482512 0.00946519 -0.14679062
v 0.02482512 0.00913347 -0.14687261
v 0.02482512 0.00846084 -0.14691363
v 0.02482512 0.00769605 -0.14695462
v 0.02482512 -0.03128933 -0.14697513
v 0.04528583 0.01557422 0.06232611
v 0.04138741 0.02254017 -0.06652670
v 0.04138741 0.02254017 -0.06744927
v 0.02729438 -0.05977971 -0.00746147
v 0.02925285 -0.05694173 -0.02441633
v 0.02933224 -0.05701544 -0.02199713
v 0.03140716 -0.05427881 -0.03540521
v 0.03187296 -0.05713522 0.01914966
v 0.03451954 -0.05513574 0.03126613
v 0.03457776 -0.05520945 0.03368532
v 0.03260342 -0.05790922 0.05064018
v 0.03155273 -0.05928214 0.06232611
v 0.03047292 -0.06048920 0.06232611
v 0.03369910 -0.05655473 0.04336209
v 0.03462805 -0.05526474 0.03610452
v 0.03600162 -0.05396553 0.04578129
v 0.03842589 -0.05155140 0.06232611
v 0.02482247 -0.06141984 -0.01473955
v 0.02572496 -0.06082091 -0.01229986
v 0.02482247 -0.05838836 -0.06314392
v 0.02482512 -0.03350074 -0.14687261
v 0.02482512 -0.03459723 -0.14679062
v 0.02482512 -0.03563844 -0.14662661
v 0.02482512 -0.03854092 -0.14609356
v 0.02482512 -0.04094583 -0.14558102
v 0.02482512 -0.04485267 -0.14455594
v 0.02482512 -0.04646515 -0.14392039
v 0.02482512 -0.04760772 -0.14320283
v 0.02482512 -0.04890692 -0.14228026
v 0.02482512 -0.05011398 -0.14117317
v 0.02482512 -0.05064841 -0.14057862
v 0.02482512 -0.05104462 -0.14008658
v 0.02482512 -0.05215033 -0.13820043
v 0.02482512 -0.05282297 -0.13578123
v 0.02482512 -0.05391946 -0.12368527
v 0.02651893 0.02316674 -0.13674481
v 0.02505802 0.02400523 -0.13820043
v 0.02904906 0.02085397 -0.13709334
v 0.02505008 0.02254017 -0.14035310
v 0.02530415 0.02192282 -0.14057862
v 0.03390289 0.01121589 -0.13949203
v 0.03515207 0.00761313 -0.14076314
v 0.03424165 0.00680228 -0.14221875
v 0.03393200 0.00401037 -0.14435092
v 0.03112927 0.00832262 -0.14406390
v 0.02888233 0.01096710 -0.14418691
v 0.02596579 0.01519643 -0.14394089
v 0.02661685 0.01357473 -0.14428942
v 0.02542854 0.01002725 -0.14627808
v 0.03026914 0.00749334 -0.14488396
v 0.02952280 -0.00465100 -0.14689312
v 0.03261665 0.00260980 -0.14500698
v 0.02968159 -0.00707435 -0.14697513
v 0.02777341 -0.00465100 -0.14705713
v 0.02777341 -0.00707435 -0.14711864
v 0.02535179 -0.03126168 -0.14699564
v 0.04562194 0.01501215 0.06232611
v 0.04621213 0.01400780 0.06232611
v 0.04110423 -0.00575671 -0.13237796
v 0.04062520 -0.00465100 -0.13578123
v 0.04009853 -0.00222766 -0.13578123
v 0.03875407 0.00171602 -0.13760588
v 0.03769279 0.00504236 -0.13820043
v 0.03677178 0.00718927 -0.13820043
v 0.04702728 0.01230317 0.06232611
v 0.04798534 0.00976004 0.06232611
v 0.04951771 0.00503314 0.06232611
v 0.05027728 0.00261902 0.06232611
v 0.05061869 0.00124610 0.06232611
v 0.05070867 0.00082224 0.06232611
v 0.04961299 -0.00464179 0.01914966
v 0.04922923 -0.00464179 0.01189208
v 0.02691062 -0.05700623 -0.05588634
v 0.02482512 -0.05837914 -0.06326694
v 0.02990391 -0.05509888 -0.04376988
v 0.03129336 -0.05414981 -0.03893149
v 0.03373086 -0.05172648 -0.02925471
v 0.03393729 -0.05200290 -0.02199713
v 0.03380496 -0.05425117 0.00613112
v 0.03566551 -0.05349560 0.02884694
v 0.03572903 -0.05357853 0.03126613
v 0.03578990 -0.05365225 0.03368532
v 0.03596722 -0.05391946 0.04336209
v 0.03703115 -0.05313625 0.06232611
v 0.03915106 -0.05055627 0.06232611
v 0.03832003 -0.05139476 0.05547857
v 0.02482512 -0.05451839 -0.11685822
v 0.02482512 -0.05516338 -0.10914961
v 0.02532797 -0.03346388 -0.14685212
v 0.02532797 -0.03611758 -0.14644209
v 0.02535179 -0.03853170 -0.14599105
v 0.02535179 -0.04094583 -0.14547851
v 0.02688680 -0.04263204 -0.14447393
v 0.02906759 -0.03985855 -0.14433042
v 0.03203175 -0.03853170 -0.14242377
v 0.02527768 -0.04800393 -0.14250577
v 0.02903318 -0.04706408 -0.13945103
v 0.02667772 -0.04954270 -0.13955354
v 0.02583876 -0.05109069 -0.13820043
v 0.02848798 -0.04888849 -0.13578123
v 0.02936136 -0.05221483 -0.08979606
v 0.02661685 -0.05431567 -0.09875527
v 0.02819157 -0.04856599 -0.13820043
v 0.03656270 0.00680228 -0.13986106
v 0.02676771 0.02106589 -0.13963554
v 0.03405374 0.00260980 -0.14443293
v 0.03261665 0.00019568 -0.14527349
v 0.03593281 0.00504236 -0.14154220
v 0.03622129 0.00368787 -0.14180872
v 0.03544320 0.00277566 -0.14287480
v 0.03668444 -0.00222766 -0.14236226
v 0.03686971 -0.00465100 -0.14256728
v 0.02795338 0.01004568 -0.14502748
v 0.03073493 -0.00465100 -0.14640109
v 0.02970277 -0.00948847 -0.14697513
v 0.03089373 -0.00707435 -0.14644209
v 0.03091490 -0.00948847 -0.14646259
v 0.02969483 -0.01192103 -0.14697513
v 0.02966042 -0.01915419 -0.14695462
v 0.02958896 -0.02157753 -0.14693413
v 0.02733143 -0.02883834 -0.14691363
v 0.04322944 -0.01192103 -0.10673041
v 0.04308917 -0.01192103 -0.10914961
v 0.04291449 -0.01192103 -0.11156880
v 0.04271335 -0.01192103 -0.11398799
v 0.04110423 -0.00633721 -0.13237796
v 0.04072577 -0.00707435 -0.13578123
v 0.04021763 -0.00707435 -0.13820043
v 0.04002707 -0.00465100 -0.13820043
v 0.03958509 -0.00222766 -0.13820043
v 0.03862439 0.00119081 -0.13922551
v 0.03841001 0.00255452 -0.13832344
v 0.05084365 -0.00037560 0.06232611
v 0.05103685 -0.00219081 0.06232611
v 0.04995969 -0.00706513 0.02158936
v 0.04984059 -0.00706513 0.01914966
v 0.02971600 -0.05494224 -0.04860826
v 0.02536237 -0.05790001 -0.06324643
v 0.02973188 -0.05258340 -0.08009878
v 0.03076404 -0.05109069 -0.08495767
v 0.03085932 -0.05117362 -0.08253848
v 0.03126160 -0.05166197 -0.07042201
v 0.03138599 -0.05182783 -0.06648569
v 0.03614719 -0.04929392 -0.01957794
v 0.03625040 -0.04943213 -0.01596965
v 0.03167447 -0.04977306 -0.08737686
v 0.03365146 -0.04676001 -0.09221525
v 0.03549613 -0.05086955 -0.00988066
v 0.03796274 -0.05042727 0.02862142
v 0.03635097 -0.04957034 -0.01229986
v 0.03751547 -0.04821585 -0.00988066
v 0.03765044 -0.04821585 -0.00746147
v 0.03865085 -0.04699036 -0.00604686
v 0.03789393 -0.05080505 0.03368532
v 0.03823534 -0.05126576 0.05064018
v 0.03828033 -0.05133026 0.05305937
v 0.03930456 -0.05033513 0.06232611
v 0.03919076 -0.05018770 0.05547857
v 0.02657186 -0.03249639 -0.14668811
v 0.02611930 -0.03410888 -0.14656510
v 0.02777341 -0.03609915 -0.14578603
v 0.02777341 -0.03853170 -0.14529400
v 0.02772577 -0.04077997 -0.14467895
v 0.03119808 -0.03659672 -0.14410491
v 0.03071111 -0.03853170 -0.14363336
v 0.02949898 -0.03853170 -0.14455594
v 0.03420724 -0.03556473 -0.14219825
v 0.03372557 -0.03717721 -0.14166521
v 0.03167711 -0.04267811 -0.13977905
v 0.03120602 -0.04429059 -0.13881548
v 0.03056820 -0.04560823 -0.13807742
v 0.02930049 -0.04735893 -0.13820043
v 0.02958896 -0.04768143 -0.13578123
v 0.03067671 -0.05098934 -0.08737686
v 0.03691469 0.00504236 -0.14031210
v 0.03417019 0.00019568 -0.14451493
v 0.03261665 -0.00222766 -0.14543751
v 0.03879641 -0.01433515 -0.14199323
v 0.03891816 -0.01674928 -0.14217775
v 0.03578725 -0.00707435 -0.14394089
v 0.03589047 -0.00948847 -0.14404340
v 0.03650183 0.00019568 -0.14213674
v 0.03711584 0.00277566 -0.14084515
v 0.03875407 -0.00042168 -0.13953304
v 0.03909283 -0.00465100 -0.13992257
v 0.03844442 -0.00948847 -0.14158320
v 0.03869849 -0.01287009 -0.14187022
v 0.03468627 -0.00948847 -0.14467895
v 0.03477096 -0.01192103 -0.14471995
v 0.03605720 -0.01433515 -0.14416641
v 0.03609690 -0.01674928 -0.14418691
v 0.03090431 -0.01192103 -0.14646259
v 0.03489006 -0.01674928 -0.14471995
v 0.03261665 -0.01915419 -0.14570403
v 0.02935077 -0.02400087 -0.14685212
v 0.03486360 -0.01915419 -0.14471995
v 0.03080110 -0.02157753 -0.14640109
v 0.02885586 -0.02730878 -0.14662661
v 0.04353379 -0.01615036 -0.10119497
v 0.05024287 -0.00948847 0.02400854
v 0.05083306 -0.01252917 0.03171716
v 0.04596071 -0.01280559 -0.05754698
v 0.04596071 -0.01342295 -0.05754698
v 0.04320562 -0.01433515 -0.10673041
v 0.04301242 -0.01433515 -0.10914961
v 0.04257308 -0.01433515 -0.11398799
v 0.04233489 -0.01433515 -0.11640719
v 0.04246722 -0.01192103 -0.11640719
v 0.04184263 -0.00948847 -0.12368527
v 0.04279540 -0.01433515 -0.11156880
v 0.04208876 -0.01433515 -0.11882638
v 0.04071519 -0.01192103 -0.13336205
v 0.04033408 -0.01433515 -0.13578123
v 0.04015940 -0.01192103 -0.13820043
v 0.04023615 -0.00948847 -0.13820043
v 0.03933367 -0.00948847 -0.14035310
v 0.03924898 -0.00707435 -0.14014808
v 0.03890228 -0.00222766 -0.13969705
v 0.05124063 -0.00421794 0.06232611
v 0.05176730 -0.00948847 0.06232611
v 0.05128033 -0.01191181 0.04336209
v 0.05089658 -0.01212374 0.03368532
v 0.05036726 -0.00948847 0.02642774
v 0.03704438 -0.04807764 -0.01957794
v 0.03861115 -0.04693508 -0.00746147
v 0.03355883 -0.04665865 -0.09463444
v 0.03106840 -0.04653887 -0.12852365
v 0.03444014 -0.04546080 -0.09463444
v 0.03451954 -0.04556216 -0.09221525
v 0.03946865 -0.04807764 0.02400854
v 0.03865879 -0.04942292 0.02767834
v 0.03941307 -0.04845543 0.02862142
v 0.04060932 -0.04634537 0.02158936
v 0.04068078 -0.04642829 0.02400854
v 0.03969625 -0.04821585 0.03126613
v 0.03907166 -0.04998499 0.04822099
v 0.03979153 -0.04821585 0.03368532
v 0.03915635 -0.05011398 0.05305937
v 0.04088721 -0.04670472 0.03368532
v 0.04051140 -0.04850150 0.06232611
v 0.02753522 -0.03346388 -0.14623707
v 0.03031148 -0.03591487 -0.14471995
v 0.03143098 -0.03497502 -0.14426892
v 0.03280985 -0.03368502 -0.14369487
v 0.03460158 -0.03368502 -0.14248528
v 0.03633774 -0.03039555 -0.14195223
v 0.03609161 -0.03201725 -0.14158320
v 0.03581372 -0.03374952 -0.14070163
v 0.03461482 -0.03626501 -0.14076314
v 0.03409079 -0.03784986 -0.14004558
v 0.03369116 -0.03947156 -0.13887698
v 0.03187561 -0.04344289 -0.13807742
v 0.03145480 -0.04467759 -0.13719585
v 0.03080110 -0.04604130 -0.13578123
v 0.03089637 -0.04624401 -0.13336205
v 0.03098371 -0.04640066 -0.13094285
v 0.03458041 -0.00707435 -0.14463795
v 0.03891816 -0.01915419 -0.14219825
v 0.03745195 -0.01674928 -0.14332584
v 0.03597781 -0.01192103 -0.14410491
v 0.03745195 -0.01915419 -0.14332584
v 0.03607308 -0.01915419 -0.14418691
v 0.02911522 -0.02570551 -0.14672912
v 0.03464658 -0.02157753 -0.14463795
v 0.03585342 -0.02157753 -0.14406390
v 0.04356555 -0.01829727 -0.09896029
v 0.04349409 -0.01776285 -0.10057992
v 0.04343852 -0.01687828 -0.10195353
v 0.05100509 -0.01433515 0.03368532
v 0.05111095 -0.01433515 0.03610452
v 0.04325061 -0.01674928 -0.10433172
v 0.04076812 -0.02400087 -0.12610446
v 0.04239841 -0.01674928 -0.11398799
v 0.04217874 -0.01674928 -0.11640719
v 0.04054580 -0.02400087 -0.12852365
v 0.04109894 -0.02061925 -0.12505888
v 0.04069401 -0.02157753 -0.12852365
v 0.04178440 -0.01915419 -0.11882638
v 0.04006148 -0.02400087 -0.13336205
v 0.04007206 -0.01915419 -0.13578123
v 0.04002707 -0.01433515 -0.13820043
v 0.03937072 -0.01915419 -0.14061963
v 0.03967508 -0.02642422 -0.13578123
v 0.03944218 -0.01674928 -0.14061963
v 0.05185993 -0.01191181 0.06232611
v 0.05135973 -0.01191181 0.04578129
v 0.05129356 -0.01433515 0.04096340
v 0.05121152 -0.01433515 0.03854421
v 0.03854499 -0.04682451 -0.00988066
v 0.04135830 -0.04502773 0.01914966
v 0.03420195 -0.04509223 -0.10189202
v 0.03429458 -0.04520280 -0.09947283
v 0.03594340 -0.04402338 -0.08495767
v 0.03867467 -0.04218054 -0.05965864
v 0.03849206 -0.04430902 -0.03893149
v 0.03952952 -0.04816057 0.02642774
v 0.04073900 -0.04651122 0.02642774
v 0.04141918 -0.04512909 0.02158936
v 0.04147475 -0.04522123 0.02400854
v 0.04152239 -0.04529494 0.02642774
v 0.04156209 -0.04536866 0.02884694
v 0.04163355 -0.04548844 0.03368532
v 0.04383550 -0.04311118 0.06232611
v 0.04092162 -0.04675079 0.03610452
v 0.03546437 -0.02400087 -0.14387939
v 0.03503562 -0.02883834 -0.14320283
v 0.03687235 -0.02642422 -0.14246477
v 0.03654947 -0.02883834 -0.14215724
v 0.03880435 -0.02096018 -0.14203424
v 0.03859527 -0.02257267 -0.14168571
v 0.03815859 -0.02652557 -0.14055812
v 0.03749959 -0.02883834 -0.14061963
v 0.03677178 -0.03123404 -0.14070163
v 0.03875407 -0.03023890 -0.13719585
v 0.03650183 -0.03299396 -0.13996357
v 0.03610220 -0.03460645 -0.13891799
v 0.03321742 -0.04078919 -0.13813892
v 0.03632980 -0.03506716 -0.13729836
v 0.03389495 -0.03986777 -0.13725735
v 0.03725611 -0.03368502 -0.13578123
v 0.03478420 -0.03853170 -0.13578123
v 0.03230700 -0.04336917 -0.13578123
v 0.03154478 -0.04483423 -0.13578123
v 0.03166917 -0.04503695 -0.13336205
v 0.03177769 -0.04519359 -0.13094285
v 0.03384202 -0.04460388 -0.11054372
v 0.03410138 -0.04496323 -0.10433172
v 0.03765574 -0.02168810 -0.14277230
v 0.04388049 -0.01915419 -0.09221525
v 0.04363436 -0.01870270 -0.09705364
v 0.04324532 -0.01915419 -0.10189202
v 0.04306005 -0.01915419 -0.10433172
v 0.05082247 -0.01591079 0.03181968
v 0.05087805 -0.01627014 0.03368532
v 0.04202259 -0.02157753 -0.11398799
v 0.04098249 -0.02401009 -0.12366477
v 0.04013558 -0.02642422 -0.13094285
v 0.03992121 -0.02642422 -0.13336205
v 0.03962479 -0.02157753 -0.13820043
v 0.03905842 -0.02168810 -0.14078364
v 0.03945277 -0.02400087 -0.13820043
v 0.03934161 -0.02883834 -0.13578123
v 0.03910077 -0.02652557 -0.13836444
v 0.05174613 -0.01433515 0.06232611
v 0.05141001 -0.01433515 0.04578129
v 0.05110036 -0.01674928 0.04096340
v 0.05124063 -0.01674928 0.04578129
v 0.05117447 -0.01674928 0.04336209
v 0.05101567 -0.01674928 0.03854421
v 0.04218933 -0.04336917 0.01914966
v 0.04127097 -0.04009812 -0.03169441
v 0.04320562 -0.03910299 -0.00504228
v 0.04207817 -0.04336917 0.01673047
v 0.03523676 -0.04336917 -0.10189202
v 0.03506474 -0.04336917 -0.10433172
v 0.03599633 -0.04167375 -0.10433172
v 0.03648595 -0.04018105 -0.10914961
v 0.03718730 -0.03853170 -0.11156880
v 0.03829886 -0.03642165 -0.10914961
v 0.04229784 -0.04336917 0.02158936
v 0.04368729 -0.04249382 0.04578129
v 0.04506616 -0.04094583 0.06232611
v 0.04414780 -0.04258597 0.06232611
v 0.04396519 -0.04289925 0.06232611
v 0.03894462 -0.02400087 -0.14012758
v 0.03880435 -0.02577922 -0.13969705
v 0.03859527 -0.02739171 -0.13926651
v 0.03839943 -0.02883834 -0.13885648
v 0.03886787 -0.03047847 -0.13578123
v 0.03826710 -0.03168554 -0.13578123
v 0.03674796 -0.03374952 -0.13813892
v 0.03893404 -0.02883834 -0.13764689
v 0.03752870 -0.03368502 -0.13336205
v 0.03505415 -0.03853170 -0.13336205
v 0.03649124 -0.03780378 -0.12368527
v 0.03374939 -0.04200547 -0.12897469
v 0.03383143 -0.04217133 -0.12737556
v 0.03329153 -0.04365481 -0.12368527
v 0.03487154 -0.04336917 -0.10673041
v 0.04360525 -0.02079433 -0.09221525
v 0.04109894 -0.02526322 -0.12032300
v 0.04401018 -0.01915419 -0.08979606
v 0.04660118 -0.02400087 -0.03169441
v 0.04646620 -0.02400087 -0.03409310
v 0.04592895 -0.02520794 -0.04014108
v 0.04105130 -0.02482094 -0.12194263
v 0.05090187 -0.01686907 0.03630953
v 0.05077484 -0.01797477 0.03725261
v 0.05043607 -0.01916341 0.03368532
v 0.04942508 -0.02157753 0.01914966
v 0.04832675 -0.02505130 0.00637714
v 0.03955863 -0.02883834 -0.13336205
v 0.05141266 -0.01916341 0.06232611
v 0.05129356 -0.01674928 0.04822099
v 0.05123534 -0.02157753 0.06232611
v 0.05092569 -0.02139325 0.05305937
v 0.05087805 -0.02106154 0.05064018
v 0.05090716 -0.01883170 0.04336209
v 0.04356820 -0.03746286 -0.01229986
v 0.04363701 -0.03761950 -0.00988066
v 0.04313681 -0.03898320 -0.00746147
v 0.03896315 -0.03556473 -0.10433172
v 0.04370053 -0.03776693 -0.00746147
v 0.04375610 -0.03788671 -0.00504228
v 0.04326120 -0.03920434 -0.00262308
v 0.03639332 -0.04000598 -0.11156880
v 0.03702321 -0.03853170 -0.11398799
v 0.03798921 -0.03609915 -0.11640719
v 0.04353909 -0.04223582 0.03897474
v 0.04363701 -0.04240168 0.04336209
v 0.04580985 -0.03939784 0.06232611
v 0.04520908 -0.04065098 0.06232611
v 0.03896579 -0.03073647 -0.13336205
v 0.03870378 -0.03256089 -0.12774459
v 0.03840472 -0.03194354 -0.13336205
v 0.03779601 -0.03368502 -0.13094285
v 0.03735667 -0.03609915 -0.12368527
v 0.03662357 -0.03805257 -0.12124557
v 0.03586665 -0.03901085 -0.12368527
v 0.03675590 -0.03825528 -0.11882638
v 0.03609161 -0.03946234 -0.11882638
v 0.03617630 -0.03961898 -0.11681722
v 0.03398758 -0.04243854 -0.12368527
v 0.04360260 -0.02320845 -0.08495767
v 0.04359202 -0.02801828 -0.07042201
v 0.04614332 -0.02584372 -0.03409310
v 0.04605863 -0.02562258 -0.03651229
v 0.04598453 -0.02541065 -0.03854196
v 0.05061604 -0.01936612 0.03854421
v 0.04941714 -0.02642422 0.03610452
v 0.04888782 -0.02642422 0.02400854
v 0.04853054 -0.02661772 0.01662796
v 0.04833734 -0.02756678 0.01574639
v 0.04867345 -0.02642422 0.01914966
v 0.04337764 -0.02953862 -0.06800281
v 0.05095216 -0.02343881 0.06232611
v 0.05080395 -0.02295045 0.05592960
v 0.05094686 -0.02180789 0.05525305
v 0.05074308 -0.02260953 0.05305937
v 0.04952300 -0.02642422 0.03854421
v 0.04837703 -0.03011912 0.02954399
v 0.04352321 -0.03736150 -0.01379648
v 0.04348615 -0.02997169 -0.06388198
v 0.03887846 -0.03540808 -0.10673041
v 0.04113599 -0.03259775 -0.08737686
v 0.04841144 -0.03021126 0.03126613
v 0.03675325 -0.03868835 -0.11616117
v 0.03781983 -0.03609915 -0.11882638
v 0.04845114 -0.03030340 0.03368532
v 0.04847231 -0.03037712 0.03610452
v 0.04848025 -0.03044162 0.03854421
v 0.05004967 -0.02642422 0.06232611
v 0.04344645 -0.02979662 -0.06558362
v 0.03761075 -0.03609915 -0.12124557
v 0.03815330 -0.03349153 -0.12854416
v 0.04621742 -0.02607408 -0.03169441
v 0.04837703 -0.02773263 0.01736602
v 0.04833204 -0.02999012 0.02790386
v 0.05051018 -0.02400087 0.05305937
v 0.05089658 -0.02365073 0.06232611
v 0.04897251 -0.02884756 0.03854421
v 0.04891164 -0.02884756 0.03610452
v 0.04884283 -0.02884756 0.03368532
v 0.04961299 -0.02642422 0.04096340
v 0.05042019 -0.02400087 0.05064018
v 0.05076689 -0.02277538 0.05430997
v 0.04875020 -0.02884756 0.03126613
v 0.04859405 -0.02904106 0.02876493
v 0.04902015 -0.02884756 0.04096340
v 0.04905191 -0.02884756 0.04336209
v 0.05060810 -0.02465508 0.06232611
f 1 2 3
f 1 3 4
f 1 4 5
f 1 5 6
f 1 6 15
f 1 15 25
f 1 25 39
f 1 39 86
f 1 86 84
f 1 84 37
f 1 37 23
f 1 23 22
f 1 22 11
f 1 11 7
f 1 7 2
f 2 7 3
f 3 8 9
f 3 9 10
f 3 10 4
f 3 7 11
f 3 11 12
f 3 12 8
f 4 13 5
f 4 10 13
f 5 14 21
f 5 21 10
f 5 10 9
f 5 9 20
f 5 20 36
f 5 36 79
f 5 79 78
f 5 78 150
f 5 150 83
f 5 83 151
f 5 151 223
f 5 223 306
f 5 306 369
f 5 369 430
f 5 430 429
f 5 429 428
f 5 428 478
f 5 478 477
f 5 477 518
f 5 518 537
f 5 537 526
f 5 526 502
f 5 502 461
f 5 461 459
f 5 459 410
f 5 410 351
f 5 351 286
f 5 286 285
f 5 285 200
f 5 200 199
f 5 199 136
f 5 136 135
f 5 135 134
f 5 134 133
f 5 133 132
f 5 132 131
f 5 131 124
f 5 124 123
f 5 123 67
f 5 67 26
f 5 26 15
f 5 15 6
f 5 13 14
f 8 12 16
f 8 16 17
f 8 17 18
f 8 18 19
f 8 19 20
f 8 20 9
f 10 21 13
f 11 22 12
f 12 22 23
f 12 23 24
f 12 24 16
f 13 21 14
f 15 26 27
f 15 27 25
f 16 24 17
f 17 24 28
f 17 28 29
f 17 29 30
f 17 30 18
f 18 30 29
f 18 29 31
f 18 31 32
f 18 32 19
f 19 33 20
f 19 32 34
f 19 34 35
f 19 35 33
f 20 33 36
f 23 37 24
f 24 37 38
f 24 38 28
f 25 27 40
f 25 40 41
f 25 41 42
f 25 42 43
f 25 43 44
f 25 44 45
f 25 45 46
f 25 46 47
f 25 47 48
f 25 48 49
f 25 49 50
f 25 50 51
f 25 51 52
f 25 52 53
f 25 53 54
f 25 54 55
f 25 55 56
f 25 56 57
f 25 57 58
f 25 58 59
f 25 59 60
f 25 60 61
f 25 61 62
f 25 62 63
f 25 63 64
f 25 64 65
f 25 65 66
f 25 66 39
f 26 67 68
f 26 68 27
f 27 68 69
f 27 69 40
f 28 38 70
f 28 70 29
f 29 70 71
f 29 71 72
f 29 72 73
f 29 73 74
f 29 74 31
f 31 74 73
f 31 73 32
f 32 75 76
f 32 76 34
f 32 73 75
f 33 77 78
f 33 78 79
f 33 79 36
f 33 35 80
f 33 80 77
f 34 76 81
f 34 81 35
f 35 81 82
f 35 82 83
f 35 83 80
f 37 84 38
f 38 84 85
f 38 85 70
f 39 66 87
f 39 87 88
f 39 88 89
f 39 89 90
f 39 90 91
f 39 91 92
f 39 92 93
f 39 93 94
f 39 94 95
f 39 95 96
f 39 96 97
f 39 97 98
f 39 98 99
f 39 99 100
f 39 100 101
f 39 101 86
f 40 69 41
f 41 69 42
f 42 69 43
f 43 69 44
f 44 69 45
f 45 69 46
f 46 69 47
f 47 69 48
f 48 69 49
f 49 102 50
f 49 69 102
f 50 102 51
f 51 103 52
f 51 102 103
f 52 103 104
f 52 104 53
f 53 104 54
f 54 105 55
f 54 104 105
f 55 105 106
f 55 106 107
f 55 107 108
f 55 108 56
f 56 109 110
f 56 110 57
f 56 108 109
f 57 110 111
f 57 111 112
f 57 112 113
f 57 113 58
f 58 113 59
f 59 113 114
f 59 114 60
f 60 114 115
f 60 115 61
f 61 115 62
f 62 115 116
f 62 116 110
f 62 110 63
f 63 117 64
f 63 110 118
f 63 118 117
f 64 117 65
f 65 119 120
f 65 120 121
f 65 121 66
f 65 117 119
f 66 121 122
f 66 122 87
f 67 123 68
f 68 123 124
f 68 124 69
f 69 125 126
f 69 126 127
f 69 127 128
f 69 128 129
f 69 129 130
f 69 130 104
f 69 104 102
f 69 124 131
f 69 131 132
f 69 132 133
f 69 133 134
f 69 134 135
f 69 135 136
f 69 136 137
f 69 137 138
f 69 138 125
f 70 139 71
f 70 85 140
f 70 140 139
f 71 73 72
f 71 139 141
f 71 141 73
f 73 141 142
f 73 142 143
f 73 143 144
f 73 144 145
f 73 145 75
f 75 146 147
f 75 147 148
f 75 148 76
f 75 145 146
f 76 148 149
f 76 149 81
f 77 150 78
f 77 80 150
f 80 83 150
f 81 149 82
f 82 149 83
f 83 149 152
f 83 152 151
f 84 86 140
f 84 140 85
f 86 101 153
f 86 153 154
f 86 154 140
f 87 155 88
f 87 122 155
f 88 155 156
f 88 156 89
f 89 156 90
f 90 156 157
f 90 157 158
f 90 158 91
f 91 158 92
f 92 159 93
f 92 158 159
f 93 160 94
f 93 159 160
f 94 160 161
f 94 161 162
f 94 162 95
f 95 162 163
f 95 163 96
f 96 163 97
f 97 163 164
f 97 164 98
f 98 164 99
f 99 164 165
f 99 165 100
f 100 166 167
f 100 167 168
f 100 168 101
f 100 165 169
f 100 169 166
f 101 168 153
f 102 104 103
f 104 130 170
f 104 170 107
f 104 107 171
f 104 171 105
f 105 171 106
f 106 171 107
f 107 170 108
f 108 170 109
f 109 170 110
f 110 172 173
f 110 173 118
f 110 116 112
f 110 112 111
f 110 170 174
f 110 174 175
f 110 175 176
f 110 176 177
f 110 177 178
f 110 178 172
f 112 114 113
f 112 116 114
f 114 116 179
f 114 179 115
f 115 179 116
f 117 118 173
f 117 173 180
f 117 180 119
f 119 181 121
f 119 121 120
f 119 180 182
f 119 182 183
f 119 183 181
f 121 181 184
f 121 184 185
f 121 185 122
f 122 185 186
f 122 186 187
f 122 187 155
f 125 188 189
f 125 189 190
f 125 190 191
f 125 191 192
f 125 192 193
f 125 193 126
f 125 138 188
f 126 193 194
f 126 194 195
f 126 195 196
f 126 196 127
f 127 196 197
f 127 197 128
f 128 197 198
f 128 198 129
f 129 198 197
f 129 197 170
f 129 170 130
f 136 199 137
f 137 199 200
f 137 200 201
f 137 201 202
f 137 202 138
f 138 202 188
f 139 203 141
f 139 140 204
f 139 204 168
f 139 168 203
f 140 154 168
f 140 168 204
f 141 203 142
f 142 203 168
f 142 168 205
f 142 205 206
f 142 206 207
f 142 207 208
f 142 208 209
f 142 209 143
f 143 210 211
f 143 211 144
f 143 209 212
f 143 212 213
f 143 213 210
f 144 211 214
f 144 214 145
f 145 214 146
f 146 215 147
f 146 214 216
f 146 216 217
f 146 217 218
f 146 218 219
f 146 219 215
f 147 215 148
f 148 220 221
f 148 221 149
f 148 215 220
f 149 221 222
f 149 222 152
f 151 152 224
f 151 224 223
f 152 222 224
f 153 168 154
f 155 187 225
f 155 225 226
f 155 226 156
f 156 226 227
f 156 227 157
f 157 227 228
f 157 228 158
f 158 228 159
f 159 228 229
f 159 229 160
f 160 230 231
f 160 231 161
f 160 229 232
f 160 232 230
f 161 233 234
f 161 234 163
f 161 163 162
f 161 231 233
f 163 235 236
f 163 236 237
f 163 237 238
f 163 238 169
f 163 169 164
f 163 234 235
f 164 169 165
f 166 239 167
f 166 169 238
f 166 238 239
f 167 240 206
f 167 206 205
f 167 205 168
f 167 239 240
f 170 197 241
f 170 241 174
f 172 242 243
f 172 243 173
f 172 178 244
f 172 244 245
f 172 245 246
f 172 246 247
f 172 247 242
f 173 243 180
f 174 241 175
f 175 248 176
f 175 241 249
f 175 249 250
f 175 250 248
f 176 248 177
f 177 248 251
f 177 251 252
f 177 252 178
f 178 252 253
f 178 253 244
f 180 243 182
f 181 183 184
f 182 243 254
f 182 254 255
f 182 255 256
f 182 256 257
f 182 257 183
f 183 258 184
f 183 257 259
f 183 259 258
f 184 258 260
f 184 260 185
f 185 260 186
f 186 261 187
f 186 260 262
f 186 262 263
f 186 263 261
f 187 261 264
f 187 264 225
f 188 265 189
f 188 202 266
f 188 266 267
f 188 267 268
f 188 268 269
f 188 269 265
f 189 265 270
f 189 270 190
f 190 270 271
f 190 271 191
f 191 272 273
f 191 273 277
f 191 277 274
f 191 274 275
f 191 275 192
f 191 271 276
f 191 276 272
f 192 275 193
f 193 275 274
f 193 274 277
f 193 277 278
f 193 278 279
f 193 279 280
f 193 280 281
f 193 281 194
f 194 281 245
f 194 245 282
f 194 282 283
f 194 283 195
f 195 283 251
f 195 251 284
f 195 284 250
f 195 250 197
f 195 197 196
f 197 250 249
f 197 249 241
f 200 285 201
f 201 285 286
f 201 286 287
f 201 287 288
f 201 288 289
f 201 289 202
f 202 289 267
f 202 267 266
f 206 240 212
f 206 212 207
f 207 212 208
f 208 212 209
f 210 290 291
f 210 291 217
f 210 217 211
f 210 213 290
f 211 217 216
f 211 216 214
f 212 292 213
f 212 240 239
f 212 239 293
f 212 293 292
f 213 292 294
f 213 294 295
f 213 295 291
f 213 291 290
f 215 219 296
f 215 296 297
f 215 297 298
f 215 298 220
f 217 291 219
f 217 219 218
f 219 291 299
f 219 299 300
f 219 300 296
f 220 298 301
f 220 301 221
f 221 302 222
f 221 301 303
f 221 303 302
f 222 302 304
f 222 304 224
f 223 224 305
f 223 305 306
f 224 304 305
f 225 264 307
f 225 307 227
f 225 227 226
f 227 307 264
f 227 264 308
f 227 308 232
f 227 232 228
f 228 232 229
f 230 232 308
f 230 308 309
f 230 309 310
f 230 310 311
f 230 311 233
f 230 233 231
f 233 311 312
f 233 312 313
f 233 313 314
f 233 314 315
f 233 315 234
f 234 315 235
f 235 316 236
f 235 315 316
f 236 316 317
f 236 317 318
f 236 318 319
f 236 319 237
f 237 319 238
f 238 319 320
f 238 320 239
f 239 320 321
f 239 321 322
f 239 322 293
f 242 247 323
f 242 323 243
f 243 323 254
f 244 253 283
f 244 283 245
f 245 283 282
f 245 281 324
f 245 324 325
f 245 325 247
f 245 247 246
f 247 325 326
f 247 326 323
f 248 250 284
f 248 284 251
f 251 283 253
f 251 253 252
f 254 323 256
f 254 256 255
f 256 326 325
f 256 325 257
f 256 323 326
f 257 325 327
f 257 327 328
f 257 328 259
f 258 259 260
f 259 328 262
f 259 262 260
f 261 329 264
f 261 263 330
f 261 330 331
f 261 331 329
f 262 328 263
f 263 328 330
f 264 329 308
f 265 332 333
f 265 333 334
f 265 334 270
f 265 269 335
f 265 335 332
f 267 288 336
f 267 336 335
f 267 335 268
f 267 289 288
f 268 335 269
f 270 334 271
f 271 334 333
f 271 333 337
f 271 337 338
f 271 338 339
f 271 339 276
f 272 340 341
f 272 341 342
f 272 342 273
f 272 276 340
f 273 342 343
f 273 343 277
f 276 339 344
f 276 344 340
f 277 343 278
f 278 343 279
f 279 343 345
f 279 345 346
f 279 346 280
f 280 347 348
f 280 348 281
f 280 346 349
f 280 349 347
f 281 348 350
f 281 350 324
f 286 351 352
f 286 352 287
f 287 352 353
f 287 353 354
f 287 354 288
f 288 354 336
f 291 355 356
f 291 356 299
f 291 295 355
f 292 357 358
f 292 358 294
f 292 293 357
f 293 322 357
f 294 358 359
f 294 359 360
f 294 360 295
f 295 360 361
f 295 361 355
f 296 300 362
f 296 362 297
f 297 362 298
f 298 362 363
f 298 363 301
f 299 356 364
f 299 364 300
f 300 365 363
f 300 363 362
f 300 364 365
f 301 305 303
f 301 363 305
f 302 303 305
f 302 305 304
f 305 363 366
f 305 366 367
f 305 367 368
f 305 368 369
f 305 369 370
f 305 370 306
f 306 370 369
f 308 331 371
f 308 371 309
f 308 329 331
f 309 371 310
f 310 371 372
f 310 372 311
f 311 372 373
f 311 373 374
f 311 374 312
f 312 374 375
f 312 375 376
f 312 376 377
f 312 377 378
f 312 378 313
f 313 378 379
f 313 379 380
f 313 380 381
f 313 381 314
f 314 381 315
f 315 381 382
f 315 382 316
f 316 382 317
f 317 383 318
f 317 382 384
f 317 384 383
f 318 383 319
f 319 385 386
f 319 386 387
f 319 387 388
f 319 388 389
f 319 389 320
f 319 383 385
f 320 389 390
f 320 390 321
f 321 390 391
f 321 391 392
f 321 392 393
f 321 393 322
f 322 393 357
f 324 350 348
f 324 348 375
f 324 375 327
f 324 327 325
f 327 331 328
f 327 375 394
f 327 394 331
f 328 331 330
f 331 394 373
f 331 373 371
f 332 395 396
f 332 396 397
f 332 397 398
f 332 398 333
f 332 335 399
f 332 399 395
f 333 398 337
f 335 336 399
f 336 354 400
f 336 400 399
f 337 398 401
f 337 401 402
f 337 402 338
f 338 341 344
f 338 344 339
f 338 402 403
f 338 403 404
f 338 404 341
f 340 344 341
f 341 404 342
f 342 404 343
f 343 404 349
f 343 349 345
f 345 349 346
f 347 405 348
f 347 349 405
f 348 406 375
f 348 405 407
f 348 407 406
f 349 404 408
f 349 408 409
f 349 409 407
f 349 407 405
f 351 410 411
f 351 411 353
f 351 353 352
f 353 412 354
f 353 411 413
f 353 413 414
f 353 414 412
f 354 412 415
f 354 415 400
f 355 361 360
f 355 360 356
f 356 416 364
f 356 360 417
f 356 417 418
f 356 418 419
f 356 419 416
f 357 420 358
f 357 393 421
f 357 421 420
f 358 420 359
f 359 420 360
f 360 420 422
f 360 422 423
f 360 423 424
f 360 424 425
f 360 425 417
f 363 365 366
f 364 426 365
f 364 416 426
f 365 426 427
f 365 427 366
f 366 427 367
f 367 427 428
f 367 428 429
f 367 429 368
f 368 429 430
f 368 430 369
f 371 373 372
f 373 394 375
f 373 375 374
f 375 406 431
f 375 431 432
f 375 432 376
f 376 432 377
f 377 432 433
f 377 433 378
f 378 433 434
f 378 434 379
f 379 434 380
f 380 408 435
f 380 435 436
f 380 436 384
f 380 384 437
f 380 437 382
f 380 382 381
f 380 434 438
f 380 438 408
f 382 437 384
f 383 384 385
f 384 436 386
f 384 386 385
f 386 436 439
f 386 439 387
f 387 439 440
f 387 440 388
f 388 440 441
f 388 441 442
f 388 442 389
f 389 442 443
f 389 443 390
f 390 443 444
f 390 444 392
f 390 392 391
f 392 445 421
f 392 421 393
f 392 444 445
f 395 446 447
f 395 447 396
f 395 399 448
f 395 448 449
f 395 449 450
f 395 450 451
f 395 451 446
f 396 447 397
f 397 447 452
f 397 452 398
f 398 452 401
f 399 400 449
f 399 449 448
f 400 415 453
f 400 453 454
f 400 454 455
f 400 455 456
f 400 456 457
f 400 457 449
f 401 452 402
f 402 452 403
f 403 458 404
f 403 452 447
f 403 447 458
f 404 458 408
f 406 407 409
f 406 409 431
f 408 458 435
f 408 438 409
f 409 432 431
f 409 438 432
f 410 459 460
f 410 460 411
f 411 460 413
f 412 414 461
f 412 461 415
f 413 460 461
f 413 461 414
f 415 461 462
f 415 462 463
f 415 463 464
f 415 464 453
f 416 419 418
f 416 418 426
f 417 465 466
f 417 466 467
f 417 467 418
f 417 425 468
f 417 468 465
f 418 467 469
f 418 469 470
f 418 470 471
f 418 471 426
f 420 421 423
f 420 423 422
f 421 445 472
f 421 472 423
f 423 472 473
f 423 473 424
f 424 473 474
f 424 474 425
f 425 474 468
f 426 475 476
f 426 476 427
f 426 471 475
f 427 476 477
f 427 477 478
f 427 478 428
f 432 438 433
f 433 438 434
f 435 458 479
f 435 479 480
f 435 480 481
f 435 481 436
f 436 481 439
f 439 481 482
f 439 482 440
f 440 482 441
f 441 483 484
f 441 484 485
f 441 485 442
f 441 482 483
f 442 485 484
f 442 484 443
f 443 484 486
f 443 486 487
f 443 487 488
f 443 488 489
f 443 489 444
f 444 489 488
f 444 488 472
f 444 472 445
f 446 490 447
f 446 451 490
f 447 490 491
f 447 491 458
f 449 457 492
f 449 492 493
f 449 493 494
f 449 494 451
f 449 451 450
f 451 494 491
f 451 491 490
f 453 464 454
f 454 495 455
f 454 464 495
f 455 495 496
f 455 496 497
f 455 497 456
f 456 497 457
f 457 498 499
f 457 499 492
f 457 497 500
f 457 500 498
f 458 491 501
f 458 501 479
f 459 461 460
f 461 502 503
f 461 503 504
f 461 504 462
f 462 504 503
f 462 503 505
f 462 505 463
f 463 505 506
f 463 506 495
f 463 495 464
f 465 507 466
f 465 468 508
f 465 508 509
f 465 509 507
f 466 469 467
f 466 507 469
f 468 474 510
f 468 510 511
f 468 511 508
f 469 507 470
f 470 507 512
f 470 512 477
f 470 477 471
f 471 477 475
f 472 488 473
f 473 488 513
f 473 513 486
f 473 486 514
f 473 514 474
f 474 514 480
f 474 480 510
f 475 477 476
f 477 512 515
f 477 515 516
f 477 516 517
f 477 517 518
f 479 501 519
f 479 519 480
f 480 514 520
f 480 520 483
f 480 483 521
f 480 521 481
f 480 519 511
f 480 511 510
f 481 521 482
f 482 521 483
f 483 520 484
f 484 520 486
f 486 513 487
f 486 520 514
f 487 513 488
f 491 494 493
f 491 493 501
f 492 499 522
f 492 522 519
f 492 519 501
f 492 501 493
f 495 506 496
f 496 506 499
f 496 499 497
f 497 499 500
f 498 500 499
f 499 506 523
f 499 523 524
f 499 524 519
f 499 519 522
f 502 525 503
f 502 526 527
f 502 527 528
f 502 528 529
f 502 529 530
f 502 530 525
f 503 525 531
f 503 531 532
f 503 532 505
f 505 532 531
f 505 531 506
f 506 531 525
f 506 525 530
f 506 530 529
f 506 529 533
f 506 533 523
f 507 524 534
f 507 534 533
f 507 533 529
f 507 529 512
f 507 509 524
f 508 511 509
f 509 511 519
f 509 519 524
f 512 529 528
f 512 528 515
f 515 528 527
f 515 527 535
f 515 535 516
f 516 535 536
f 516 536 517
f 517 536 518
f 518 536 537
f 523 533 534
f 523 534 524
f 526 537 535
f 526 535 527
f 535 537 536

