# https://github.com/mikedh/trimesh
v -0.04003100 0.03168106 0.08915166
v -0.04487485 0.02926033 0.08909160
v -0.04545442 0.02867624 0.08907959
v -0.04245504 0.02926033 0.08905156
v -0.03518926 0.03410180 0.08911963
v -0.04245504 0.04797722 0.08856310
v -0.04545442 0.02587909 0.08873526
v -0.04545442 0.04599131 0.08846301
v -0.02384533 0.03676266 0.08863517
v -0.02792770 0.03652254 0.08889542
v -0.02384533 0.03814501 0.08879933
v -0.02384533 0.03894327 0.08885538
v -0.03034752 0.03652254 0.08899952
v -0.03518926 0.05033306 0.08854708
v -0.04417895 0.04765921 0.08842697
v -0.03761119 0.05021624 0.08851906
v -0.03924837 0.05002803 0.08837492
v -0.04545442 0.02494454 0.08846301
v -0.04545442 0.04706215 0.08701764
v -0.04545442 -0.01255415 0.07567493
v -0.03201431 -0.01255415 0.07175524
v -0.02384533 0.03625645 0.08838293
v -0.02384533 0.05250069 0.08837092
v -0.04428259 0.04771762 0.08697360
v -0.03938163 0.05009942 0.08697360
v -0.02550578 0.05243579 0.08833488
v -0.02721487 0.05233195 0.08825481
v -0.02798481 0.05258506 0.08712174
v -0.03034752 0.05240334 0.08632098
v -0.03165895 0.05228652 0.08586455
v -0.03761119 0.05064458 0.08697360
v -0.04545442 0.04706215 0.08697360
v -0.04545442 -0.01255415 0.04825704
v -0.03201431 -0.01255415 0.04825704
v -0.02384533 0.01029033 0.07340880
v -0.02384533 0.05302637 0.08739800
v -0.04160895 0.04518007 0.04825704
v -0.04283155 0.04455704 0.04825704
v -0.04488543 0.04347323 0.04825704
v -0.04545442 0.04316171 0.04825704
v -0.03915953 0.05001505 0.08454731
v -0.03761119 0.05056669 0.08454731
v -0.02384533 0.05320809 0.08697360
v -0.02550578 0.05299392 0.08697360
v -0.02550578 0.05351960 0.08455131
v -0.02792770 0.05308478 0.08455131
v -0.03165895 0.05228652 0.08535608
v -0.03518926 0.05129356 0.08454731
v -0.03201220 0.01029033 0.04824904
v -0.02384533 0.01029033 0.04824904
v -0.04004369 0.04595237 0.04825704
v -0.03201220 0.04862621 0.04824904
v -0.03659376 0.04749697 0.04825704
v -0.03780367 0.04699075 0.04825704
v -0.03781848 0.04698426 0.04825704
v -0.02384533 0.05357801 0.08531203
v -0.02384533 0.05374675 0.08455131
v -0.02550578 0.05349364 0.08212903
v -0.02792770 0.05305233 0.08212903
v -0.03201431 0.05217619 0.08505179
v -0.03201220 0.05212427 0.08413092
v -0.03258965 0.05199448 0.08454731
v -0.03000062 0.05250718 0.08212903
v -0.02384533 0.05019677 0.04824904
v -0.03034752 0.04897018 0.04824904
v -0.03520195 0.04787987 0.04825704
v -0.03276945 0.04847046 0.04825704
v -0.02384533 0.05366887 0.08212903
v -0.02792770 0.04943096 0.04824904
f 1 2 3
f 1 3 4
f 1 4 5
f 1 5 6
f 1 6 2
f 2 6 3
f 3 7 4
f 3 6 8
f 3 8 19
f 3 19 32
f 3 32 40
f 3 40 33
f 3 33 20
f 3 20 18
f 3 18 7
f 4 7 9
f 4 9 5
f 5 9 10
f 5 10 11
f 5 11 12
f 5 12 13
f 5 13 14
f 5 14 6
f 6 15 8
f 6 14 16
f 6 16 17
f 6 17 15
f 7 18 9
f 8 15 19
f 9 11 10
f 9 18 20
f 9 20 21
f 9 21 22
f 9 22 35
f 9 35 50
f 9 50 64
f 9 64 68
f 9 68 57
f 9 57 56
f 9 56 43
f 9 43 36
f 9 36 23
f 9 23 12
f 9 12 11
f 12 23 13
f 13 23 14
f 14 23 16
f 15 24 19
f 15 17 25
f 15 25 24
f 16 23 26
f 16 26 27
f 16 27 17
f 17 27 28
f 17 28 29
f 17 29 30
f 17 30 31
f 17 31 25
f 19 24 32
f 20 33 34
f 20 34 21
f 21 34 50
f 21 50 35
f 21 35 22
f 23 36 26
f 24 37 38
f 24 38 39
f 24 39 40
f 24 40 32
f 24 25 41
f 24 41 37
f 25 31 42
f 25 42 41
f 26 36 27
f 27 36 43
f 27 43 44
f 27 44 28
f 28 44 29
f 29 44 45
f 29 45 30
f 30 45 46
f 30 46 47
f 30 47 31
f 31 48 42
f 31 47 48
f 33 49 50
f 33 50 34
f 33 40 52
f 33 52 49
f 37 51 52
f 37 52 38
f 37 41 51
f 38 52 39
f 39 52 40
f 41 42 53
f 41 53 54
f 41 54 55
f 41 55 51
f 42 48 53
f 43 56 44
f 44 56 57
f 44 57 45
f 45 57 58
f 45 58 46
f 46 58 59
f 46 59 47
f 47 60 48
f 47 59 61
f 47 61 60
f 48 60 62
f 48 62 61
f 48 61 63
f 48 63 53
f 49 52 65
f 49 65 69
f 49 69 64
f 49 64 50
f 51 55 52
f 52 55 54
f 52 54 53
f 52 53 66
f 52 66 67
f 52 67 59
f 52 59 65
f 53 63 66
f 57 68 58
f 58 68 64
f 58 64 59
f 59 64 69
f 59 69 65
f 59 67 66
f 59 66 63
f 59 63 61
f 60 61 62

