# https://github.com/mikedh/trimesh
v 0.01124367 0.01028449 0.08018625
v 0.01124367 0.01028449 0.07573065
v 0.00938347 0.01028449 0.09001284
v 0.01124367 0.00394658 0.07573065
v -0.02123956 0.01028449 0.07573065
v 0.00848856 0.01028449 0.09160089
v -0.00834883 -0.03603035 0.09181688
v -0.00830861 -0.03603035 0.09172431
v -0.00736342 -0.03481989 0.09043454
v -0.00752933 -0.03603035 0.08955206
v 0.00118347 -0.01255558 0.07573065
v -0.00625735 -0.03603035 0.07917212
v -0.02805193 -0.01255558 0.07573065
v -0.04011814 -0.03460228 0.07917212
v -0.01955029 0.01028449 0.08949035
v 0.00837292 0.01028449 0.09174489
v 0.00492903 0.00333002 0.09316631
v -0.00936943 -0.03603035 0.09323420
v -0.04011814 -0.03603035 0.07917212
v -0.04011814 -0.03603035 0.08026030
v -0.03625193 -0.03603035 0.09234349
v -0.01943465 0.01028449 0.09021854
v 0.00717636 0.01028449 0.09301615
v 0.00704564 0.00921004 0.09292358
v 0.00521057 0.00504370 0.09330826
v 0.00112817 0.00020186 0.09469265
v -0.00894711 -0.02401188 0.09594540
v -0.01204410 -0.03543192 0.09555663
v -0.01132516 -0.03603035 0.09484488
v -0.01109892 -0.03603035 0.09466180
v -0.00941970 -0.03603035 0.09330208
v -0.03519613 -0.03603035 0.09383897
v -0.03163157 -0.02988284 0.09550931
v -0.01859002 0.01028449 0.09173254
v -0.01957542 0.00920551 0.09080069
v 0.00653785 0.01028449 0.09334733
v 0.00558764 0.00746462 0.09345636
v 0.00354644 0.00504370 0.09416399
v -0.00025944 0.00020186 0.09536943
v -0.00059126 -0.00221906 0.09519046
v -0.00855999 -0.01916551 0.09634653
v -0.01097825 -0.02642827 0.09635887
v -0.01146090 -0.03127011 0.09592278
v -0.01179775 -0.03369556 0.09572324
v -0.00220009 -0.00463998 0.09560805
v -0.00656906 -0.01674458 0.09589193
v -0.00360279 -0.00692490 0.09591661
v -0.00371339 -0.00463998 0.09621488
v -0.01340155 -0.03127011 0.09638562
v -0.01340155 -0.03369556 0.09607295
v -0.01330603 -0.03603035 0.09572941
v -0.01303454 -0.03603035 0.09567387
v -0.01218487 -0.03603035 0.09549285
v -0.03510061 -0.03603035 0.09391097
v -0.03165671 -0.03127011 0.09551136
v -0.02792122 -0.02642827 0.09602564
v -0.02549792 -0.02158643 0.09622927
v -0.02307965 -0.01674458 0.09642676
v -0.02307965 -0.01432366 0.09626631
v -0.02243612 -0.00948182 0.09587341
v -0.01962570 -0.00040564 0.09558953
v -0.01706163 0.00640377 0.09547639
v -0.01731804 0.01028449 0.09349956
v 0.00630658 0.01028449 0.09346253
v 0.00613062 0.00996715 0.09350985
v 0.00354644 0.00746462 0.09444375
v 0.00100248 0.00240064 0.09504647
v -0.00009353 0.00144859 0.09544760
v -0.00180291 -0.00221906 0.09577878
v -0.00613669 -0.00948182 0.09648230
v -0.00855999 -0.01674458 0.09654196
v -0.01097825 -0.02401188 0.09659750
v 0.00010757 0.00306254 0.09553193
v -0.00371339 -0.00221906 0.09630333
v -0.00613669 -0.00706090 0.09664687
v -0.01340155 -0.02884919 0.09662424
v -0.01581982 -0.03603035 0.09588986
v -0.01572932 -0.03603035 0.09588986
v -0.03275775 -0.03603035 0.09487779
v -0.03161649 -0.03263018 0.09547023
v -0.03034451 -0.03127011 0.09569239
v -0.02792122 -0.02884919 0.09601330
v -0.02549792 -0.02401188 0.09620666
v -0.02307965 -0.01916551 0.09639384
v -0.02065635 -0.01916551 0.09650699
v -0.02065635 -0.01674458 0.09653167
v -0.02065635 -0.01432366 0.09654196
v -0.02065635 -0.01255558 0.09651933
v -0.02065635 -0.01190274 0.09650903
v -0.02065635 -0.00948182 0.09637123
v -0.01823809 -0.00221906 0.09602564
v -0.01581479 0.00504370 0.09567182
v -0.01469364 0.00890629 0.09546612
v -0.01365796 0.01028449 0.09542908
v -0.01518634 0.01028449 0.09498065
v -0.01569916 0.01028449 0.09473380
v -0.01715213 0.01028449 0.09366001
v 0.00611051 0.01028449 0.09355510
v 0.00394362 0.01028449 0.09447872
v -0.00855999 -0.01432366 0.09669006
v -0.01097825 -0.02158643 0.09671680
v 0.00354644 0.00989008 0.09460009
v 0.00354644 0.01028449 0.09460215
v 0.00010254 0.00504370 0.09552165
v -0.00371339 0.00020186 0.09620254
v -0.00613669 -0.00463998 0.09665304
v -0.00855496 -0.01190274 0.09673737
v -0.00855999 -0.01255558 0.09672709
v -0.01340155 -0.02642827 0.09672091
v -0.01581982 -0.02642827 0.09662013
v -0.02792122 -0.03127011 0.09586929
v -0.02549792 -0.03127011 0.09596803
v -0.01581982 -0.03127011 0.09633008
v -0.01581982 -0.03369556 0.09610586
v -0.01815262 -0.03603035 0.09580346
v -0.03265217 -0.03603035 0.09490248
v -0.03034451 -0.03603035 0.09511436
v -0.03034451 -0.03303367 0.09552577
v -0.02549792 -0.02642827 0.09616962
v -0.01823809 -0.02642827 0.09650903
v -0.01823809 -0.02158643 0.09658104
v -0.01581982 -0.02401188 0.09665097
v -0.01823809 -0.01916551 0.09660161
v -0.01581982 -0.02158643 0.09666744
v -0.01823809 -0.01674458 0.09660366
v -0.01823809 -0.01432366 0.09659338
v -0.01889167 -0.01255558 0.09656459
v -0.01823809 -0.01190274 0.09657075
v -0.01339652 -0.00948182 0.09663247
v -0.00855496 -0.00706090 0.09669212
v -0.01097323 -0.00706090 0.09662218
v -0.01823809 -0.00948182 0.09648847
v -0.01823809 -0.00706090 0.09634448
v -0.01823809 -0.00463998 0.09619020
v -0.01581479 0.00262278 0.09583021
v -0.01339652 0.01028449 0.09544143
v -0.01097825 -0.01916551 0.09674150
v 0.00152032 0.01028449 0.09499916
v -0.00002315 0.00639017 0.09546405
v -0.00371339 0.00262278 0.09598244
v -0.00613669 0.00020186 0.09629306
v -0.00613669 -0.00221906 0.09649464
v -0.00855496 -0.00221906 0.09643704
v -0.00855496 -0.00463998 0.09659132
v -0.00855496 -0.00948182 0.09672298
v -0.01097825 -0.01674458 0.09672914
v -0.01340155 -0.02401188 0.09672709
v -0.02791619 -0.03379983 0.09558747
v -0.02549792 -0.03553619 0.09552988
v -0.02385893 -0.03603035 0.09556279
v -0.02311987 -0.03603035 0.09559983
v -0.02057089 -0.03603035 0.09571295
v -0.02782569 -0.03603035 0.09530155
v -0.02710675 -0.03511457 0.09548051
v -0.01340155 -0.02158643 0.09671887
v -0.01646838 -0.01255558 0.09661190
v -0.01097323 -0.00948182 0.09668389
v -0.01581479 -0.00706090 0.09644527
v -0.01339652 0.00746462 0.09562244
v -0.01097323 0.00504370 0.09587547
v -0.01097323 0.00746462 0.09569856
v -0.01097323 0.00963166 0.09552577
v -0.01097323 0.01028449 0.09547228
v 0.00112817 0.01028449 0.09503824
v 0.00112817 0.00989008 0.09507733
v -0.00129513 0.00668485 0.09549285
v -0.00371339 0.00504370 0.09574381
v -0.00613669 0.00504370 0.09583227
v -0.00613669 0.00262278 0.09606883
v -0.00855496 0.00746462 0.09568005
v -0.00855496 0.00020186 0.09627659
v -0.02549792 -0.03603035 0.09546612
v -0.00855496 0.01028449 0.09540234
v -0.00089795 0.01028449 0.09512258
v -0.00371339 0.00712914 0.09553811
v -0.00556355 0.01028449 0.09529332
f 1 2 5
f 1 5 15
f 1 15 22
f 1 22 34
f 1 34 63
f 1 63 97
f 1 97 96
f 1 96 95
f 1 95 94
f 1 94 136
f 1 136 163
f 1 163 173
f 1 173 176
f 1 176 174
f 1 174 164
f 1 164 138
f 1 138 103
f 1 103 99
f 1 99 98
f 1 98 64
f 1 64 36
f 1 36 23
f 1 23 16
f 1 16 6
f 1 6 3
f 1 3 4
f 1 4 2
f 2 4 11
f 2 11 13
f 2 13 5
f 3 6 7
f 3 7 8
f 3 8 9
f 3 9 10
f 3 10 4
f 4 10 12
f 4 12 11
f 5 13 14
f 5 14 15
f 6 16 17
f 6 17 7
f 7 18 31
f 7 31 30
f 7 30 29
f 7 29 53
f 7 53 52
f 7 52 51
f 7 51 78
f 7 78 77
f 7 77 115
f 7 115 152
f 7 152 151
f 7 151 150
f 7 150 172
f 7 172 153
f 7 153 117
f 7 117 116
f 7 116 79
f 7 79 54
f 7 54 32
f 7 32 21
f 7 21 20
f 7 20 19
f 7 19 12
f 7 12 10
f 7 10 8
f 7 17 18
f 8 10 9
f 11 12 19
f 11 19 13
f 13 19 14
f 14 19 20
f 14 20 21
f 14 21 22
f 14 22 15
f 16 23 24
f 16 24 17
f 17 24 25
f 17 25 26
f 17 26 27
f 17 27 28
f 17 28 29
f 17 29 30
f 17 30 31
f 17 31 18
f 21 32 33
f 21 33 34
f 21 34 35
f 21 35 22
f 22 35 34
f 23 36 37
f 23 37 25
f 23 25 24
f 25 37 38
f 25 38 26
f 26 38 39
f 26 39 40
f 26 40 27
f 27 41 42
f 27 42 43
f 27 43 44
f 27 44 28
f 27 40 45
f 27 45 46
f 27 46 47
f 27 47 48
f 27 48 41
f 28 44 49
f 28 49 50
f 28 50 51
f 28 51 52
f 28 52 53
f 28 53 29
f 32 54 33
f 33 54 55
f 33 55 56
f 33 56 57
f 33 57 58
f 33 58 59
f 33 59 60
f 33 60 61
f 33 61 62
f 33 62 63
f 33 63 34
f 36 64 65
f 36 65 38
f 36 38 37
f 38 66 67
f 38 67 39
f 38 65 66
f 39 68 69
f 39 69 40
f 39 67 68
f 40 69 45
f 41 70 71
f 41 71 72
f 41 72 42
f 41 48 70
f 42 72 49
f 42 49 43
f 43 49 44
f 45 69 46
f 46 69 47
f 47 69 48
f 48 69 73
f 48 73 74
f 48 74 75
f 48 75 70
f 49 76 77
f 49 77 78
f 49 78 50
f 49 72 76
f 50 78 51
f 54 79 55
f 55 79 80
f 55 80 81
f 55 81 56
f 56 81 82
f 56 82 57
f 57 82 58
f 58 82 83
f 58 83 84
f 58 84 85
f 58 85 86
f 58 86 87
f 58 87 88
f 58 88 89
f 58 89 90
f 58 90 59
f 59 90 61
f 59 61 60
f 61 90 62
f 62 90 91
f 62 91 92
f 62 92 93
f 62 93 94
f 62 94 95
f 62 95 96
f 62 96 97
f 62 97 63
f 64 98 65
f 65 98 66
f 66 73 68
f 66 68 67
f 66 98 99
f 66 99 73
f 68 73 69
f 70 75 71
f 71 75 72
f 72 75 100
f 72 100 101
f 72 101 76
f 73 99 102
f 73 102 103
f 73 103 104
f 73 104 74
f 74 104 105
f 74 105 106
f 74 106 75
f 75 106 107
f 75 107 108
f 75 108 100
f 76 109 110
f 76 110 82
f 76 82 111
f 76 111 112
f 76 112 113
f 76 113 114
f 76 114 77
f 76 101 109
f 77 114 115
f 79 116 80
f 80 117 118
f 80 118 81
f 80 116 117
f 81 118 111
f 81 111 82
f 82 119 83
f 82 110 120
f 82 120 119
f 83 119 120
f 83 120 84
f 84 120 85
f 85 120 110
f 85 110 121
f 85 121 86
f 86 121 122
f 86 122 123
f 86 123 87
f 87 123 124
f 87 124 125
f 87 125 126
f 87 126 127
f 87 127 88
f 88 127 89
f 89 127 128
f 89 128 129
f 89 129 130
f 89 130 131
f 89 131 132
f 89 132 90
f 90 132 133
f 90 133 134
f 90 134 91
f 91 134 92
f 92 134 135
f 92 135 136
f 92 136 94
f 92 94 93
f 99 103 102
f 100 108 101
f 101 108 107
f 101 107 137
f 101 137 109
f 103 138 104
f 104 139 105
f 104 138 139
f 105 139 140
f 105 140 141
f 105 141 142
f 105 142 106
f 106 142 143
f 106 143 144
f 106 144 130
f 106 130 145
f 106 145 107
f 107 145 146
f 107 146 137
f 109 147 124
f 109 124 123
f 109 123 122
f 109 122 110
f 109 137 147
f 110 122 121
f 111 118 148
f 111 148 149
f 111 149 150
f 111 150 151
f 111 151 152
f 111 152 112
f 112 152 115
f 112 115 113
f 113 115 114
f 117 153 118
f 118 153 154
f 118 154 148
f 124 147 125
f 125 147 155
f 125 155 126
f 126 155 156
f 126 156 127
f 127 156 128
f 128 156 157
f 128 157 129
f 129 157 130
f 130 144 131
f 130 157 145
f 131 144 132
f 132 158 133
f 132 144 158
f 133 158 135
f 133 135 134
f 135 158 144
f 135 144 159
f 135 159 136
f 136 159 160
f 136 160 161
f 136 161 162
f 136 162 163
f 137 146 155
f 137 155 147
f 138 164 165
f 138 165 139
f 139 165 166
f 139 166 140
f 140 166 167
f 140 167 168
f 140 168 169
f 140 169 141
f 141 169 170
f 141 170 163
f 141 163 142
f 142 163 162
f 142 162 161
f 142 161 171
f 142 171 143
f 143 171 160
f 143 160 159
f 143 159 144
f 145 157 146
f 146 157 156
f 146 156 155
f 148 154 149
f 149 172 150
f 149 154 172
f 153 172 154
f 160 171 161
f 163 170 173
f 164 174 165
f 165 174 166
f 166 174 175
f 166 175 167
f 167 175 168
f 168 173 170
f 168 170 169
f 168 175 173
f 173 175 176
f 174 176 175

