# https://github.com/mikedh/trimesh
v -0.04545574 -0.03603035 0.04825206
v -0.04545574 -0.03603035 0.07916467
v -0.04545574 -0.01255415 0.04825206
v 0.00185070 -0.03603035 0.04825206
v -0.04545111 -0.03602575 0.08210021
v -0.04545574 -0.02989933 0.07916467
v -0.03354115 -0.03603035 0.07916798
v -0.04545574 -0.01255415 0.07566919
v 0.00185070 -0.01255415 0.04825206
v 0.00185070 -0.03603035 0.07406889
v -0.00625752 -0.03603035 0.07916798
v 0.00068841 -0.01255415 0.07916798
v -0.02776676 -0.01255415 0.07916798
v 0.00185070 -0.01255415 0.07337311
f 1 2 6
f 1 6 8
f 1 8 3
f 1 3 9
f 1 9 4
f 1 4 10
f 1 10 11
f 1 11 7
f 1 7 2
f 2 5 6
f 2 7 5
f 3 8 13
f 3 13 12
f 3 12 14
f 3 14 9
f 4 9 14
f 4 14 10
f 5 8 6
f 5 7 11
f 5 11 12
f 5 12 13
f 5 13 8
f 10 12 11
f 10 14 12

