# https://github.com/mikedh/trimesh
v 0.03523388 0.02254522 -0.07238660
v 0.02482565 0.02254909 -0.07772433
v 0.03032747 0.02254909 -0.07772433
v 0.03559732 0.02254522 -0.07218068
v 0.03523388 0.02254522 -0.06605178
v 0.02482565 0.02924439 -0.07772433
v 0.02482565 0.02254909 -0.05936472
v 0.03032747 0.02372879 -0.07772433
v 0.03945981 0.02254522 -0.06976380
v 0.03754596 0.02254522 -0.07101018
v 0.03639765 0.02254522 -0.07170923
v 0.03987350 0.02254522 -0.06625770
v 0.03032747 0.02254909 -0.05936472
v 0.02639539 0.02791384 -0.07772433
v 0.02482565 0.03304265 -0.07174716
v 0.03352495 0.04516073 -0.06209048
v 0.03413583 0.04516073 -0.06209048
v 0.03632033 0.04745825 -0.05956523
v 0.04167523 0.05030501 -0.05499700
v 0.04184534 0.05025086 -0.05494823
v 0.04329523 0.04965907 -0.05456348
v 0.02482565 0.03073353 -0.05936472
v 0.03523001 0.02517151 -0.04620736
v 0.03523001 0.02555830 -0.04515608
v 0.03033134 0.02879572 -0.04173126
v 0.03031974 0.02380228 -0.07772433
v 0.04886278 0.03411406 -0.05999333
v 0.04176028 0.02443275 -0.06740112
v 0.04156697 0.02264191 -0.06735234
v 0.04138911 0.02254522 -0.06743363
v 0.04019828 0.02254522 -0.06627396
v 0.04138911 0.02254522 -0.06650698
v 0.02770609 0.02670319 -0.07772433
v 0.04784593 0.04215538 -0.05680695
v 0.04872359 0.04053861 -0.05733801
v 0.02482565 0.03320124 -0.07144911
v 0.03132886 0.04277037 -0.06218261
v 0.03346696 0.04535412 -0.06073031
v 0.04080916 0.05254064 -0.05272102
v 0.03614247 0.04745825 -0.05956523
v 0.04229771 0.05260640 -0.05272102
v 0.04372826 0.05243621 -0.05241755
v 0.04583542 0.04734221 -0.05462309
v 0.03132886 0.04277037 -0.06184121
v 0.02482565 0.03330180 -0.06881548
v 0.03033134 0.02903552 -0.04179629
v 0.03033134 0.03420688 -0.04420775
v 0.03033134 0.03550262 -0.04485803
v 0.04093675 0.05010388 -0.02729502
v 0.04878545 0.03489923 -0.03692460
v 0.04156697 0.02264191 -0.06629564
v 0.05081142 0.03677516 -0.03470281
v 0.06418900 0.04887390 -0.02236372
v 0.06385650 0.04883135 -0.02236372
v 0.05574489 0.04899766 -0.02236372
v 0.04184921 0.04869984 -0.02646049
v 0.04093675 0.04958559 -0.02729502
v 0.02988671 0.02435539 -0.07772433
v 0.05104727 0.03813278 -0.05737594
v 0.05114006 0.03653535 -0.05757103
v 0.05098541 0.03464395 -0.05745723
v 0.04838335 0.03043957 -0.05958690
v 0.05803763 0.04015956 -0.04742664
v 0.06057396 0.04244934 -0.04282590
v 0.06304456 0.04478941 -0.03816555
v 0.06312962 0.04473526 -0.03652359
v 0.02891626 0.02556603 -0.07772433
v 0.04954326 0.03894117 -0.05784198
v 0.05033586 0.03974182 -0.05679069
v 0.02482565 0.03341397 -0.07048995
v 0.03838109 0.05016190 -0.05436297
v 0.04080916 0.05254064 -0.05181604
v 0.04075116 0.05026633 -0.02926212
v 0.04342668 0.05475694 -0.04776804
v 0.04396411 0.05475694 -0.04776804
v 0.04447833 0.05438950 -0.04832078
v 0.04474511 0.05419223 -0.04860257
v 0.04460592 0.05289262 -0.05097067
v 0.04624139 0.05247876 -0.05010905
v 0.05301137 0.04965907 -0.04722614
v 0.05037452 0.04943087 -0.04952380
v 0.04610993 0.05003426 -0.05240671
v 0.05081915 0.05954925 -0.03535309
v 0.05340961 0.05970784 -0.03313129
v 0.04731237 0.04640619 -0.05418415
v 0.04184921 0.04894351 -0.02643882
v 0.04184921 0.05054869 -0.02675854
v 0.05172774 0.06076763 -0.02236372
v 0.05237343 0.06190866 -0.02236372
v 0.06343120 0.04728033 -0.02515993
v 0.06303683 0.04484743 -0.03470822
v 0.06300203 0.04488998 -0.03410130
v 0.06287831 0.04499828 -0.03287660
v 0.06371731 0.04702891 -0.02683982
v 0.06432433 0.05094708 -0.02236372
v 0.06366319 0.04670788 -0.02925670
v 0.06416194 0.04863409 -0.02683982
v 0.05338254 0.05403752 -0.02236372
v 0.05325882 0.04266594 -0.05232543
v 0.05361839 0.04137020 -0.05273727
v 0.05294178 0.03966833 -0.05444426
v 0.05330522 0.03806316 -0.05484527
v 0.05330522 0.03737081 -0.05484527
v 0.05803763 0.04020597 -0.04742664
v 0.06057396 0.04329254 -0.04282590
v 0.06304456 0.04539667 -0.03816555
v 0.05062583 0.04243000 -0.05457432
v 0.05006521 0.06026094 -0.02925670
v 0.04342668 0.05475694 -0.04712318
v 0.04995309 0.06007528 -0.03168442
v 0.05198293 0.06127819 -0.02925670
v 0.05030493 0.05976198 -0.03410130
v 0.05069543 0.05954925 -0.03535309
v 0.05542398 0.04969389 -0.04480384
v 0.05460818 0.04887003 -0.04642955
v 0.05540852 0.04714108 -0.04724782
v 0.05332068 0.04902087 -0.04749167
v 0.05379624 0.04805003 -0.04788726
v 0.04943886 0.04850258 -0.05095442
v 0.05198293 0.06069027 -0.03168442
v 0.05127538 0.05968076 -0.03470822
v 0.05383104 0.06014104 -0.03168442
v 0.05579902 0.05732908 -0.03322883
v 0.05527706 0.05678758 -0.03484370
v 0.05555930 0.05463317 -0.03765617
v 0.05581835 0.05247489 -0.04044696
v 0.05169295 0.06040405 -0.02236372
v 0.05252422 0.06205951 -0.02236372
v 0.06019893 0.05632344 -0.02236372
v 0.06343894 0.04822409 -0.03168442
v 0.06300977 0.04760523 -0.03470822
v 0.06290538 0.04746212 -0.03540186
v 0.06251487 0.04825890 -0.03470822
v 0.06279325 0.04973643 -0.03021045
v 0.05589568 0.04552817 -0.04774094
v 0.05560957 0.04256925 -0.04983810
v 0.05498321 0.04161001 -0.05108989
v 0.05599234 0.04096020 -0.05030956
v 0.05790618 0.04181888 -0.04725865
v 0.06043477 0.04490158 -0.04254953
v 0.06098766 0.04621279 -0.04083713
v 0.06218237 0.04620892 -0.03896215
v 0.06262700 0.04700957 -0.03701672
v 0.05276006 0.04697089 -0.04950754
v 0.05274460 0.06198601 -0.02367512
v 0.05328975 0.06198601 -0.02367512
v 0.05440326 0.06102678 -0.02683982
v 0.05606580 0.05029728 -0.04319440
v 0.05692413 0.04876946 -0.04392596
v 0.05617018 0.04808098 -0.04563295
v 0.05778246 0.04690127 -0.04466295
v 0.05454245 0.06041179 -0.02918625
v 0.05544331 0.05930944 -0.02995033
v 0.05504508 0.05892652 -0.03168442
v 0.05574489 0.05858228 -0.03074151
v 0.05610059 0.05771587 -0.03168442
v 0.05805311 0.05471053 -0.03294705
v 0.06066676 0.05011162 -0.03579745
v 0.06029559 0.04967068 -0.03741231
v 0.06094127 0.04797654 -0.03894047
v 0.05984322 0.04917945 -0.03894047
v 0.05606966 0.05517467 -0.03604672
v 0.05767806 0.04945794 -0.04200221
v 0.05345601 0.06205951 -0.02236372
v 0.06044637 0.05467185 -0.02560971
v 0.05869878 0.05826898 -0.02236372
v 0.06164881 0.04856833 -0.03640979
v 0.06086007 0.05037076 -0.03470822
v 0.06096447 0.05050227 -0.03410130
v 0.05783658 0.05927850 -0.02260758
v 0.05813429 0.05899615 -0.02236372
v 0.05629005 0.04379150 -0.04831536
v 0.05754661 0.04379150 -0.04681971
v 0.05851319 0.04379150 -0.04561127
v 0.06011773 0.04621279 -0.04205099
v 0.05816909 0.04528450 -0.04516150
v 0.05840881 0.04784504 -0.04305350
v 0.06054690 0.04752013 -0.04028981
v 0.05421768 0.06151026 -0.02445546
v 0.05463911 0.06157215 -0.02236372
v 0.05682747 0.06024547 -0.02236372
v 0.05633644 0.06021065 -0.02441752
v 0.05570236 0.05964208 -0.02833547
v 0.05594980 0.05989736 -0.02683982
v 0.05574489 0.05968076 -0.02809703
v 0.05574489 0.05960726 -0.02830295
v 0.05574489 0.05902708 -0.02970106
v 0.05755047 0.05959566 -0.02236372
f 1 2 3
f 1 3 4
f 1 4 11
f 1 11 10
f 1 10 9
f 1 9 30
f 1 30 32
f 1 32 31
f 1 31 12
f 1 12 5
f 1 5 7
f 1 7 2
f 2 6 14
f 2 14 33
f 2 33 67
f 2 67 58
f 2 58 26
f 2 26 8
f 2 8 3
f 2 7 22
f 2 22 45
f 2 45 70
f 2 70 36
f 2 36 15
f 2 15 6
f 3 8 9
f 3 9 10
f 3 10 11
f 3 11 4
f 5 12 13
f 5 13 7
f 6 15 16
f 6 16 17
f 6 17 18
f 6 18 19
f 6 19 20
f 6 20 21
f 6 21 14
f 7 13 23
f 7 23 24
f 7 24 25
f 7 25 22
f 8 26 9
f 9 26 27
f 9 27 28
f 9 28 29
f 9 29 30
f 12 31 13
f 13 31 32
f 13 32 23
f 14 21 34
f 14 34 35
f 14 35 33
f 15 36 16
f 16 36 37
f 16 37 38
f 16 38 39
f 16 39 40
f 16 40 18
f 16 18 17
f 18 41 42
f 18 42 19
f 18 40 41
f 19 42 20
f 20 42 21
f 21 42 43
f 21 43 34
f 22 44 45
f 22 25 46
f 22 46 47
f 22 47 48
f 22 48 49
f 22 49 44
f 23 50 24
f 23 32 51
f 23 51 50
f 24 50 52
f 24 52 53
f 24 53 54
f 24 54 25
f 25 54 55
f 25 55 56
f 25 56 57
f 25 57 49
f 25 49 46
f 26 58 59
f 26 59 27
f 27 59 60
f 27 60 28
f 28 60 61
f 28 61 29
f 29 62 63
f 29 63 64
f 29 64 65
f 29 65 66
f 29 66 51
f 29 51 32
f 29 32 30
f 29 61 62
f 33 35 68
f 33 68 67
f 34 43 35
f 35 43 69
f 35 69 59
f 35 59 68
f 36 70 37
f 37 44 38
f 37 70 44
f 38 71 72
f 38 72 39
f 38 44 73
f 38 73 71
f 39 72 109
f 39 109 74
f 39 74 41
f 39 41 40
f 41 74 75
f 41 75 76
f 41 76 77
f 41 77 42
f 42 78 79
f 42 79 80
f 42 80 81
f 42 81 82
f 42 82 43
f 42 77 83
f 42 83 84
f 42 84 78
f 43 82 85
f 43 85 69
f 44 70 45
f 44 49 73
f 46 49 47
f 47 49 48
f 49 57 86
f 49 86 87
f 49 87 88
f 49 88 89
f 49 89 73
f 50 90 52
f 50 51 90
f 51 66 91
f 51 91 92
f 51 92 93
f 51 93 94
f 51 94 90
f 52 90 53
f 53 95 129
f 53 129 166
f 53 166 171
f 53 171 188
f 53 188 181
f 53 181 180
f 53 180 164
f 53 164 128
f 53 128 89
f 53 89 88
f 53 88 127
f 53 127 98
f 53 98 55
f 53 55 54
f 53 90 94
f 53 94 96
f 53 96 97
f 53 97 95
f 55 98 56
f 56 98 86
f 56 86 57
f 58 67 59
f 59 69 99
f 59 99 100
f 59 100 101
f 59 101 102
f 59 102 60
f 59 67 68
f 60 102 103
f 60 103 61
f 61 103 62
f 62 103 63
f 63 103 102
f 63 102 104
f 63 104 105
f 63 105 64
f 64 105 106
f 64 106 65
f 65 106 97
f 65 97 66
f 66 97 96
f 66 96 94
f 66 94 91
f 69 85 107
f 69 107 99
f 71 73 72
f 72 73 108
f 72 108 109
f 73 89 108
f 74 109 108
f 74 108 110
f 74 110 111
f 74 111 112
f 74 112 113
f 74 113 83
f 74 83 75
f 75 83 76
f 76 83 77
f 78 84 79
f 79 84 114
f 79 114 80
f 80 114 115
f 80 115 116
f 80 116 117
f 80 117 81
f 81 117 118
f 81 118 82
f 82 107 85
f 82 118 119
f 82 119 107
f 83 113 120
f 83 120 121
f 83 121 84
f 84 121 120
f 84 120 122
f 84 122 123
f 84 123 124
f 84 124 125
f 84 125 126
f 84 126 114
f 86 98 127
f 86 127 88
f 86 88 87
f 89 128 108
f 91 94 92
f 92 94 93
f 95 97 130
f 95 130 131
f 95 131 132
f 95 132 133
f 95 133 134
f 95 134 129
f 97 106 130
f 99 135 100
f 99 107 118
f 99 118 116
f 99 116 135
f 100 135 136
f 100 136 137
f 100 137 101
f 101 137 138
f 101 138 102
f 102 138 104
f 104 139 105
f 104 138 139
f 105 140 106
f 105 139 140
f 106 140 141
f 106 141 142
f 106 142 143
f 106 143 132
f 106 132 131
f 106 131 130
f 107 119 144
f 107 144 118
f 108 128 110
f 110 128 111
f 111 122 120
f 111 120 113
f 111 113 112
f 111 128 145
f 111 145 146
f 111 146 147
f 111 147 122
f 114 126 148
f 114 148 149
f 114 149 150
f 114 150 115
f 115 150 116
f 116 150 151
f 116 151 135
f 116 118 117
f 118 144 119
f 122 147 152
f 122 152 153
f 122 153 154
f 122 154 123
f 123 154 153
f 123 153 155
f 123 155 156
f 123 156 157
f 123 157 158
f 123 158 159
f 123 159 160
f 123 160 161
f 123 161 162
f 123 162 125
f 123 125 124
f 125 162 163
f 125 163 126
f 126 163 148
f 128 164 146
f 128 146 145
f 129 165 166
f 129 134 133
f 129 133 165
f 132 143 167
f 132 167 158
f 132 158 168
f 132 168 169
f 132 169 133
f 133 169 170
f 133 170 171
f 133 171 166
f 133 166 165
f 135 172 136
f 135 151 173
f 135 173 172
f 136 172 173
f 136 173 138
f 136 138 137
f 138 173 174
f 138 174 140
f 138 140 139
f 140 175 141
f 140 174 176
f 140 176 151
f 140 151 175
f 141 175 177
f 141 177 178
f 141 178 142
f 142 178 160
f 142 160 143
f 143 160 159
f 143 159 167
f 146 179 147
f 146 164 180
f 146 180 179
f 147 179 181
f 147 181 182
f 147 182 152
f 148 163 177
f 148 177 149
f 149 177 150
f 150 177 151
f 151 176 173
f 151 177 175
f 152 183 153
f 152 182 184
f 152 184 185
f 152 185 183
f 153 183 186
f 153 186 187
f 153 187 169
f 153 169 157
f 153 157 155
f 155 157 156
f 157 169 168
f 157 168 158
f 158 167 159
f 160 178 161
f 161 178 162
f 162 178 163
f 163 178 177
f 169 187 186
f 169 186 170
f 170 185 184
f 170 184 182
f 170 182 188
f 170 188 171
f 170 186 185
f 173 176 174
f 179 180 181
f 181 188 182
f 183 185 186

