# https://github.com/mikedh/trimesh
v 0.02777147 -0.04337641 0.09011884
v 0.02535052 -0.04579408 0.09007784
v 0.02482248 -0.04874365 0.09003999
v 0.02535052 -0.04821176 0.09004315
v 0.03987333 -0.05064152 0.08919789
v 0.04229428 -0.04579408 0.08923890
v 0.03261626 -0.03611129 0.09006522
v 0.03503432 -0.03127594 0.09003684
v 0.02535052 0.02198546 0.08923259
v 0.02482536 0.02198546 0.08922312
v 0.02482248 -0.04632597 0.09005576
v 0.02482248 -0.06700919 0.08857342
v 0.02490904 -0.06698501 0.08857342
v 0.03757935 -0.05557358 0.08881627
v 0.03986179 -0.05292623 0.08882258
v 0.04243856 -0.04832055 0.08899604
v 0.04471523 -0.04337641 0.08909066
v 0.03745815 -0.02642850 0.08996745
v 0.03745815 -0.02401082 0.08996115
v 0.03504009 0.00746732 0.08933667
v 0.03019820 0.01715011 0.08916951
v 0.04229428 0.01956778 0.08744116
v 0.02482536 0.04127851 0.08662745
v 0.03745815 -0.02158106 0.08992014
v 0.02482248 -0.04384785 0.08947544
v 0.02482248 -0.06709381 0.08845672
v 0.02912478 -0.06407171 0.08832111
v 0.03171598 -0.06178701 0.08846303
v 0.03430140 -0.05951439 0.08857657
v 0.03685220 -0.05721760 0.08865857
v 0.03255855 -0.06032431 0.08869012
v 0.04165658 -0.05064152 0.08869642
v 0.03905384 -0.05483619 0.08860811
v 0.04468926 -0.04562485 0.08869958
v 0.04600794 -0.04471822 0.08826749
v 0.04621281 -0.04337641 0.08839995
v 0.05090178 -0.02573946 0.08827380
v 0.05110377 -0.02401082 0.08837787
v 0.03745815 -0.00221548 0.08947544
v 0.03745815 0.00020220 0.08940290
v 0.04955713 0.00263196 0.08789217
v 0.04955713 0.00504964 0.08775970
v 0.04713618 0.00988499 0.08776917
v 0.03504009 0.00988499 0.08919159
v 0.03261914 0.01473243 0.08911904
v 0.04713618 0.01230267 0.08759570
v 0.04471523 0.01715011 0.08733078
v 0.03987333 0.02441522 0.08695545
v 0.04183837 0.04608969 0.08050884
v 0.04183837 0.04827768 0.07983075
v 0.04183837 0.04862824 0.07968883
v 0.04183837 0.05011512 0.07904858
v 0.04183837 0.05149319 0.07836418
v 0.04183837 0.05317348 0.07751577
v 0.04183837 0.05496255 0.07657275
v 0.04183837 0.05526476 0.07638982
v 0.02482536 0.04174996 0.08625529
v 0.02482248 -0.01616547 0.08040161
v 0.05109511 -0.02158106 0.08833057
v 0.02482248 -0.06761361 0.08697438
v 0.02913344 -0.06408380 0.08697438
v 0.03034535 -0.06308046 0.08697438
v 0.03447742 -0.05965945 0.08697438
v 0.03568645 -0.05864403 0.08697438
v 0.02645279 -0.06628388 0.08697438
v 0.03706861 -0.05743519 0.08697438
v 0.03828053 -0.05621426 0.08697438
v 0.04120933 -0.05203169 0.08834003
v 0.04386400 -0.04757107 0.08851665
v 0.04604257 -0.04476657 0.08697438
v 0.04659082 -0.04337641 0.08697438
v 0.05083830 -0.03266610 0.08591466
v 0.05100277 -0.03127594 0.08623636
v 0.04827307 -0.03677615 0.08808772
v 0.05063343 -0.02735930 0.08810979
v 0.05126824 -0.02884618 0.08667160
v 0.05352472 -0.01916338 0.08661168
v 0.05374690 -0.01674571 0.08687346
v 0.05380750 -0.01431594 0.08677883
v 0.04955713 0.00746732 0.08724562
v 0.05175301 0.00263196 0.08679146
v 0.05142983 0.00504964 0.08659907
v 0.04895117 0.01230267 0.08649183
v 0.04728911 0.01481705 0.08675676
v 0.04789796 0.02800547 0.08193126
v 0.04880401 0.02800547 0.08118378
v 0.04934649 0.02800547 0.08042369
v 0.04183837 0.05588127 0.07482548
v 0.03987333 0.05504718 0.07631098
v 0.02482536 0.04285000 0.08498426
v 0.02482536 0.04297088 0.08481079
v 0.02482536 0.04422808 0.08246428
v 0.02482536 0.04432478 0.08207003
v 0.02482248 -0.01616547 0.06234226
v 0.05376133 -0.01616547 0.08685138
v 0.02482248 -0.06744437 0.08455217
v 0.02500138 -0.06709381 0.08212996
v 0.02621329 -0.06609047 0.08212996
v 0.03435334 -0.05955066 0.08455217
v 0.02863424 -0.06367280 0.07728869
v 0.02926328 -0.06182327 0.06234226
v 0.03687239 -0.05731431 0.08455217
v 0.02947681 -0.06159359 0.06234226
v 0.03047520 -0.06049355 0.06234226
v 0.03155439 -0.05928471 0.06234226
v 0.03703110 -0.05314382 0.06234226
v 0.03843057 -0.05154815 0.06234226
v 0.03864987 -0.05424386 0.07862280
v 0.03917215 -0.05500543 0.08697438
v 0.04037830 -0.05324053 0.08697438
v 0.04120356 -0.05203169 0.08697438
v 0.04599929 -0.04469404 0.08522395
v 0.04753727 -0.04095873 0.08455217
v 0.05083830 -0.03266610 0.08529019
v 0.05375556 -0.01916338 0.08455217
v 0.05332850 -0.02100082 0.08615120
v 0.05043144 -0.02884618 0.08788271
v 0.05418550 -0.01674571 0.08455217
v 0.05430092 -0.01431594 0.08454902
v 0.05362860 -0.00705083 0.08634045
v 0.05334581 -0.00221548 0.08601559
v 0.05323328 -0.00069234 0.08584843
v 0.05351606 -0.00463315 0.08620798
v 0.04936091 0.02800547 0.07987175
v 0.04183837 0.05588127 0.07478133
v 0.03860659 0.05473288 0.07613436
v 0.02590455 0.04520724 0.08120271
v 0.02590455 0.04520724 0.08058769
v 0.02482536 0.03917513 0.05790154
v 0.02482248 -0.06484537 0.06234226
v 0.02482248 -0.06722678 0.08212996
v 0.02487441 -0.06697292 0.07971090
v 0.02729825 -0.06456733 0.07486964
v 0.02983751 -0.06224637 0.07245058
v 0.02838320 -0.06345520 0.07245058
v 0.02897762 -0.06205295 0.06234226
v 0.04075630 0.02254152 0.05790154
v 0.03930777 -0.05033931 0.06234226
v 0.04111699 -0.05189872 0.08550150
v 0.04392460 -0.04761943 0.08455217
v 0.04051392 -0.04850188 0.06234226
v 0.04594446 -0.04219175 0.07351661
v 0.04602237 -0.04233681 0.07486964
v 0.04643788 -0.04356982 0.08447017
v 0.05145580 -0.02884618 0.08212996
v 0.05166067 -0.02884618 0.08455217
v 0.04581173 -0.03939933 0.06234226
v 0.04631669 -0.03786410 0.06234226
v 0.05004767 -0.02642850 0.06234226
v 0.05060746 -0.02465151 0.06234226
v 0.05089601 -0.02366026 0.06234226
v 0.05095372 -0.02344267 0.06234226
v 0.05250613 -0.02401082 0.08212996
v 0.05319288 -0.02037222 0.08092516
v 0.05347855 -0.01940515 0.08189026
v 0.05338332 -0.01888535 0.07971090
v 0.05327079 -0.01838973 0.07785640
v 0.05394023 -0.01674571 0.08212996
v 0.05396331 -0.01616547 0.08212996
v 0.05403257 -0.01431594 0.08212681
v 0.05185689 -0.01188618 0.06234542
v 0.05269369 -0.01188618 0.07003152
v 0.05295627 -0.01188618 0.07245373
v 0.05313517 -0.01188618 0.07419785
v 0.05331119 -0.00939597 0.07712784
v 0.05406431 -0.00946850 0.08454902
v 0.05394023 -0.00705083 0.08454902
v 0.05371516 -0.00463315 0.08454902
v 0.05323328 -0.00069234 0.08531226
v 0.04183837 0.04168952 0.06255357
v 0.05319000 -0.00343640 0.08092201
v 0.05070845 0.00083080 0.06234542
v 0.05061611 0.00125389 0.06234542
v 0.03860659 0.05473288 0.07598297
v 0.02954895 0.03572995 0.05790154
v 0.02482536 0.02254152 0.05790154
v 0.02534475 -0.06457942 0.06234226
v 0.02482248 -0.06671907 0.07706161
v 0.02482248 -0.06700919 0.07971090
v 0.02651627 -0.06392665 0.06234226
v 0.02748004 -0.06322552 0.06234226
v 0.02773107 -0.06303211 0.06234226
v 0.05083830 -0.00036595 0.06234542
v 0.05103163 -0.00217921 0.06234542
v 0.05123650 -0.00419797 0.06234542
v 0.05148177 -0.00662773 0.06234542
v 0.05172415 -0.00904541 0.06234542
v 0.05176455 -0.00946850 0.06234542
v 0.05174435 -0.01431594 0.06234542
v 0.05160585 -0.01631053 0.06234226
v 0.05157699 -0.01674571 0.06234226
v 0.05141252 -0.01916338 0.06234226
v 0.05126535 -0.02115796 0.06234226
v 0.05123361 -0.02158106 0.06234226
v 0.04506438 -0.04095873 0.06234226
v 0.04396788 -0.04290496 0.06234226
v 0.02559291 -0.06444645 0.06234226
v 0.03964826 0.02441522 0.05790154
v 0.05137212 -0.02642850 0.07486964
v 0.05149043 -0.02401082 0.07002837
v 0.05242245 -0.02158106 0.07486964
v 0.05366611 -0.01674571 0.07971090
v 0.05368919 -0.01616547 0.07970459
v 0.05313229 -0.01431594 0.07414424
v 0.05293607 -0.01431594 0.07245373
v 0.05317557 -0.00853770 0.07621320
v 0.05319000 -0.00582990 0.07848403
v 0.05368342 -0.00705083 0.08212681
v 0.05326213 -0.00523757 0.07970459
v 0.05340641 -0.00440347 0.08189026
v 0.03879703 0.02584165 0.05790154
v 0.03796312 0.02706258 0.05790154
v 0.03676274 0.02863407 0.05790154
v 0.03565471 0.02985499 0.05790154
v 0.03332321 0.03236938 0.05790154
v 0.03212284 0.03359030 0.05790154
v 0.03077241 0.03479914 0.05790154
v 0.05311209 -0.00705083 0.07677460
v 0.05324194 -0.00705083 0.07798255
f 1 2 3
f 1 3 4
f 1 4 5
f 1 5 6
f 1 6 7
f 1 7 8
f 1 8 9
f 1 9 10
f 1 10 2
f 2 11 3
f 2 10 11
f 3 12 13
f 3 13 5
f 3 5 4
f 3 11 25
f 3 25 58
f 3 58 94
f 3 94 130
f 3 130 178
f 3 178 179
f 3 179 131
f 3 131 96
f 3 96 60
f 3 60 26
f 3 26 12
f 5 14 15
f 5 15 16
f 5 16 17
f 5 17 6
f 5 13 14
f 6 17 18
f 6 18 8
f 6 8 7
f 8 18 19
f 8 19 9
f 9 20 21
f 9 21 22
f 9 22 23
f 9 23 10
f 9 19 24
f 9 24 20
f 10 23 11
f 11 23 25
f 12 26 13
f 13 26 27
f 13 27 28
f 13 28 29
f 13 29 30
f 13 30 31
f 13 31 14
f 14 31 30
f 14 30 15
f 15 32 16
f 15 30 33
f 15 33 32
f 16 32 34
f 16 34 17
f 17 34 35
f 17 35 36
f 17 36 37
f 17 37 38
f 17 38 18
f 18 38 19
f 19 38 24
f 20 39 40
f 20 40 41
f 20 41 42
f 20 42 43
f 20 43 44
f 20 44 45
f 20 45 21
f 20 24 39
f 21 45 46
f 21 46 22
f 22 46 47
f 22 47 48
f 22 48 23
f 23 49 50
f 23 50 51
f 23 51 52
f 23 52 53
f 23 53 54
f 23 54 55
f 23 55 56
f 23 56 57
f 23 57 58
f 23 58 25
f 23 48 49
f 24 38 59
f 24 59 39
f 26 60 27
f 27 61 62
f 27 62 63
f 27 63 64
f 27 64 29
f 27 29 28
f 27 60 65
f 27 65 61
f 29 64 66
f 29 66 30
f 30 66 67
f 30 67 33
f 32 33 68
f 32 68 69
f 32 69 34
f 33 67 68
f 34 69 35
f 35 70 71
f 35 71 72
f 35 72 73
f 35 73 74
f 35 74 36
f 35 69 68
f 35 68 70
f 36 74 37
f 37 75 73
f 37 73 76
f 37 76 77
f 37 77 78
f 37 78 38
f 37 74 75
f 38 78 59
f 39 41 40
f 39 59 41
f 41 79 42
f 41 59 79
f 42 80 46
f 42 46 43
f 42 79 81
f 42 81 82
f 42 82 80
f 43 46 44
f 44 46 45
f 46 80 83
f 46 83 84
f 46 84 49
f 46 49 47
f 47 49 48
f 49 84 83
f 49 83 50
f 50 83 85
f 50 85 86
f 50 86 51
f 51 86 52
f 52 86 53
f 53 86 54
f 54 86 55
f 55 86 87
f 55 87 56
f 56 87 88
f 56 88 89
f 56 89 57
f 57 90 58
f 57 89 90
f 58 90 91
f 58 91 92
f 58 92 93
f 58 93 94
f 59 78 95
f 59 95 79
f 60 96 65
f 61 65 96
f 61 96 97
f 61 97 98
f 61 98 62
f 62 98 63
f 63 99 64
f 63 98 100
f 63 100 99
f 64 99 101
f 64 101 66
f 66 102 67
f 66 101 102
f 67 102 101
f 67 101 103
f 67 103 104
f 67 104 105
f 67 105 106
f 67 106 107
f 67 107 108
f 67 108 109
f 67 109 68
f 68 109 110
f 68 110 111
f 68 111 70
f 70 112 113
f 70 113 114
f 70 114 72
f 70 72 71
f 70 111 112
f 72 114 115
f 72 115 116
f 72 116 73
f 73 75 117
f 73 117 74
f 73 116 77
f 73 77 76
f 74 117 75
f 77 116 118
f 77 118 78
f 78 118 119
f 78 119 95
f 79 95 119
f 79 119 120
f 79 120 81
f 80 82 83
f 81 121 122
f 81 122 82
f 81 120 123
f 81 123 121
f 82 122 87
f 82 87 86
f 82 86 83
f 83 86 85
f 87 124 88
f 87 122 124
f 88 125 174
f 88 174 126
f 88 126 89
f 88 124 125
f 89 126 90
f 90 126 91
f 91 126 92
f 92 126 93
f 93 126 127
f 93 127 128
f 93 128 129
f 93 129 94
f 94 129 176
f 94 176 130
f 96 131 132
f 96 132 97
f 97 132 101
f 97 101 133
f 97 133 100
f 97 100 98
f 99 100 134
f 99 134 101
f 100 133 135
f 100 135 134
f 101 134 135
f 101 135 133
f 101 132 136
f 101 136 137
f 101 137 103
f 103 137 104
f 104 137 105
f 105 137 106
f 106 137 107
f 107 137 138
f 107 138 108
f 108 138 109
f 109 138 139
f 109 139 110
f 110 139 140
f 110 140 111
f 111 140 112
f 112 140 138
f 112 138 141
f 112 141 142
f 112 142 143
f 112 143 144
f 112 144 113
f 113 143 142
f 113 142 114
f 113 144 143
f 114 145 146
f 114 146 115
f 114 142 147
f 114 147 148
f 114 148 149
f 114 149 150
f 114 150 151
f 114 151 152
f 114 152 145
f 115 146 153
f 115 153 154
f 115 154 155
f 115 155 156
f 115 156 118
f 115 118 116
f 118 156 157
f 118 157 158
f 118 158 119
f 119 159 160
f 119 160 161
f 119 161 162
f 119 162 163
f 119 163 164
f 119 164 165
f 119 165 166
f 119 166 120
f 119 158 159
f 120 166 167
f 120 167 123
f 121 123 167
f 121 167 122
f 122 167 168
f 122 168 169
f 122 169 124
f 124 170 125
f 124 169 168
f 124 168 171
f 124 171 172
f 124 172 173
f 124 173 170
f 125 170 129
f 125 129 174
f 126 174 128
f 126 128 127
f 128 174 129
f 129 170 175
f 129 175 217
f 129 217 216
f 129 216 215
f 129 215 214
f 129 214 213
f 129 213 212
f 129 212 211
f 129 211 198
f 129 198 137
f 129 137 176
f 130 137 177
f 130 177 178
f 130 176 137
f 131 179 132
f 132 179 180
f 132 180 181
f 132 181 182
f 132 182 136
f 136 182 137
f 137 173 172
f 137 172 183
f 137 183 184
f 137 184 185
f 137 185 186
f 137 186 187
f 137 187 188
f 137 188 161
f 137 161 189
f 137 189 190
f 137 190 191
f 137 191 192
f 137 192 193
f 137 193 194
f 137 194 152
f 137 152 151
f 137 151 150
f 137 150 149
f 137 149 148
f 137 148 147
f 137 147 195
f 137 195 196
f 137 196 141
f 137 141 138
f 137 182 181
f 137 181 180
f 137 180 197
f 137 197 177
f 137 198 170
f 137 170 173
f 138 140 139
f 141 196 142
f 142 196 195
f 142 195 147
f 145 152 199
f 145 199 146
f 146 199 200
f 146 200 153
f 152 194 156
f 152 156 155
f 152 155 201
f 152 201 200
f 152 200 199
f 153 200 154
f 154 200 201
f 154 201 155
f 156 194 157
f 157 194 158
f 158 194 202
f 158 202 203
f 158 203 159
f 159 203 204
f 159 204 160
f 160 204 161
f 161 188 162
f 161 204 205
f 161 205 189
f 162 188 163
f 163 188 206
f 163 206 164
f 164 206 165
f 165 206 166
f 166 206 167
f 167 207 168
f 167 206 208
f 167 208 207
f 168 207 209
f 168 209 210
f 168 210 171
f 170 198 211
f 170 211 212
f 170 212 213
f 170 213 214
f 170 214 215
f 170 215 216
f 170 216 217
f 170 217 175
f 171 210 172
f 172 210 209
f 172 209 183
f 177 197 178
f 178 197 180
f 178 180 179
f 183 209 184
f 184 209 207
f 184 207 185
f 185 207 186
f 186 207 187
f 187 207 188
f 188 207 218
f 188 218 219
f 188 219 206
f 189 205 202
f 189 202 192
f 189 192 191
f 189 191 190
f 192 202 193
f 193 202 194
f 202 205 204
f 202 204 203
f 206 219 208
f 207 208 219
f 207 219 218

