# https://github.com/mikedh/trimesh
v -0.04545896 -0.04822584 0.09103932
v -0.04545896 -0.04880647 0.09094716
v -0.04545896 -0.04627862 0.09089270
v -0.05698305 -0.04231042 0.08964439
v -0.07281621 -0.04467466 0.08581987
v -0.04640830 -0.07140631 0.08587432
v -0.04545896 -0.07161161 0.08602094
v -0.05055324 -0.04231042 0.08835838
v -0.05216553 -0.04231042 0.08916266
v -0.05455981 -0.04231042 0.08980776
v -0.04545896 -0.04231042 0.08565231
v -0.05940308 -0.04231042 0.08907888
v -0.07288057 -0.04338828 0.08584082
v -0.07370763 -0.04338828 0.08455480
v -0.07526842 -0.04963411 0.08106958
v -0.06070642 -0.07371601 0.07613917
v -0.05126445 -0.07144801 0.08357039
v -0.05940952 -0.07382509 0.07642821
v -0.04545896 -0.07173352 0.08574866
v -0.04545896 -0.04231042 0.04825323
v -0.07285161 -0.04231042 0.08581987
v -0.07377521 -0.04231042 0.08453386
v -0.07526842 -0.04870061 0.08106958
v -0.07779786 -0.05720161 0.07401118
v -0.06329701 -0.07394378 0.07388132
v -0.06416268 -0.07448912 0.07232303
v -0.06163968 -0.07407210 0.07475262
v -0.06424636 -0.07508259 0.07001909
v -0.06314897 -0.07487728 0.07111660
v -0.06182954 -0.07462386 0.07244032
v -0.05780046 -0.07381867 0.07648686
v -0.04545896 -0.07215376 0.08456318
v -0.04545896 -0.06857692 0.04825323
v -0.06314897 -0.04231042 0.04824905
v -0.07442205 -0.04231042 0.08219642
v -0.07779786 -0.05614620 0.07401118
v -0.07806496 -0.05797151 0.07257017
v -0.07805210 -0.05979682 0.07184129
v -0.06591334 -0.07422928 0.07143496
v -0.06670178 -0.07443780 0.07005679
v -0.06666316 -0.07420041 0.06804609
v -0.04545896 -0.07217942 0.08396835
v -0.04555228 -0.06852880 0.04825323
v -0.06314897 -0.05379480 0.04824905
v -0.06666316 -0.07337277 0.06684385
v -0.06750309 -0.07106948 0.06411266
v -0.07046055 -0.04231042 0.04824905
v -0.07811324 -0.05782716 0.07005679
v -0.07782361 -0.05614300 0.07244450
v -0.07833207 -0.06049294 0.07017409
v -0.07803600 -0.06227334 0.06947034
v -0.07052813 -0.07148009 0.06905563
v -0.06807592 -0.07382509 0.06927765
v -0.06807592 -0.07382509 0.06851944
v -0.06847818 -0.07172710 0.06572541
v -0.04730616 -0.06760492 0.04825323
v -0.04892487 -0.06667783 0.04825323
v -0.04894418 -0.06666500 0.04825323
v -0.05014454 -0.06576677 0.04825323
v -0.05843121 -0.05926431 0.04825323
v -0.05964122 -0.05816078 0.04825323
v -0.06077722 -0.05694819 0.04825323
v -0.06387305 -0.05289978 0.04824905
v -0.07529739 -0.06653989 0.06621132
v -0.07017091 -0.06868920 0.06407076
v -0.07815507 -0.06032934 0.06788691
v -0.07787831 -0.05858423 0.06819270
v -0.07042193 -0.04239703 0.04824905
v -0.07568999 -0.06517331 0.06573797
v -0.07606329 -0.06275453 0.06528137
v -0.07803600 -0.06227334 0.06819689
v -0.07529739 -0.06653989 0.06718317
v -0.07601502 -0.06541069 0.06783664
v -0.07510108 -0.06637949 0.06879172
v -0.07052813 -0.07148009 0.06833932
v -0.07265531 -0.06634099 0.06401212
v -0.07341156 -0.06472099 0.06337958
v -0.06604850 -0.05018588 0.04824905
v -0.06507985 -0.05139526 0.04824905
v -0.06979761 -0.04361605 0.04824905
v -0.06866805 -0.04580706 0.04824905
v -0.06795684 -0.04718005 0.04824905
v -0.06725851 -0.04838302 0.04824905
f 1 2 7
f 1 7 19
f 1 19 32
f 1 32 42
f 1 42 33
f 1 33 20
f 1 20 11
f 1 11 3
f 1 3 4
f 1 4 2
f 2 4 5
f 2 5 6
f 2 6 7
f 3 8 9
f 3 9 10
f 3 10 4
f 3 11 8
f 4 10 9
f 4 9 8
f 4 8 11
f 4 11 20
f 4 20 34
f 4 34 47
f 4 47 35
f 4 35 22
f 4 22 21
f 4 21 12
f 4 12 5
f 5 12 13
f 5 13 14
f 5 14 15
f 5 15 16
f 5 16 17
f 5 17 6
f 6 17 16
f 6 16 7
f 7 16 18
f 7 18 19
f 12 21 13
f 13 21 22
f 13 22 14
f 14 22 15
f 15 23 36
f 15 36 24
f 15 24 16
f 15 22 23
f 16 24 25
f 16 25 26
f 16 26 27
f 16 27 18
f 18 27 28
f 18 28 29
f 18 29 30
f 18 30 31
f 18 31 32
f 18 32 19
f 20 33 44
f 20 44 34
f 22 35 23
f 23 35 36
f 24 36 37
f 24 37 38
f 24 38 39
f 24 39 25
f 25 39 26
f 26 39 40
f 26 40 28
f 26 28 27
f 28 41 33
f 28 33 42
f 28 42 32
f 28 32 29
f 28 40 41
f 29 32 30
f 30 32 31
f 33 43 44
f 33 41 45
f 33 45 46
f 33 46 43
f 34 44 63
f 34 63 79
f 34 79 78
f 34 78 83
f 34 83 82
f 34 82 81
f 34 81 80
f 34 80 68
f 34 68 47
f 35 47 48
f 35 48 49
f 35 49 36
f 36 49 48
f 36 48 37
f 37 48 50
f 37 50 38
f 38 50 51
f 38 51 52
f 38 52 39
f 39 52 53
f 39 53 40
f 40 53 54
f 40 54 41
f 41 54 55
f 41 55 45
f 43 56 44
f 43 46 56
f 44 56 57
f 44 57 58
f 44 58 59
f 44 59 60
f 44 60 61
f 44 61 62
f 44 62 63
f 45 55 46
f 46 55 64
f 46 64 65
f 46 65 60
f 46 60 59
f 46 59 58
f 46 58 57
f 46 57 56
f 47 66 67
f 47 67 48
f 47 68 69
f 47 69 70
f 47 70 71
f 47 71 66
f 48 67 66
f 48 66 50
f 50 66 71
f 50 71 51
f 51 71 64
f 51 64 72
f 51 72 73
f 51 73 74
f 51 74 52
f 52 74 72
f 52 72 64
f 52 64 75
f 52 75 54
f 52 54 53
f 54 75 64
f 54 64 55
f 60 65 61
f 61 65 76
f 61 76 77
f 61 77 62
f 62 78 79
f 62 79 63
f 62 77 78
f 64 69 77
f 64 77 76
f 64 76 65
f 64 71 69
f 68 80 69
f 69 80 81
f 69 81 82
f 69 82 83
f 69 83 77
f 69 71 70
f 72 74 73
f 77 83 78

