# https://github.com/mikedh/trimesh
v -0.02161000 -0.05736800 -0.00039000
v -0.02921700 -0.05597600 -0.02046300
v -0.02349200 -0.05713100 -0.02083600
v -0.02612600 -0.05763100 -0.02130500
v -0.02553900 -0.05892900 -0.01250100
v -0.02807900 -0.05928200 -0.01868400
v -0.03067900 -0.05613900 -0.01694600
v -0.01975500 -0.05556000 -0.01885900
v -0.03273200 -0.05557400 0.00219200
v -0.03806900 -0.04477900 0.00528700
v -0.01529300 -0.05266300 -0.02082400
v -0.01310400 -0.05238200 -0.01803400
v -0.01938500 -0.05630100 0.01027100
v -0.03048800 -0.05881700 0.00578000
v -0.02946000 -0.05986300 0.00988300
v -0.02320200 -0.05817500 0.01134900
v -0.03469200 -0.04787700 -0.01864000
v -0.06008200 0.00150600 -0.02081300
v -0.00497600 -0.02602100 -0.02216100
v -0.03582400 -0.04437400 -0.02019800
v -0.00829100 -0.01931000 -0.02221300
v -0.04152300 -0.03943200 -0.00226000
v -0.03480300 -0.05326400 -0.01130200
v -0.03414400 -0.05402900 -0.00584400
v -0.02876500 -0.06010800 0.00821300
v -0.03248100 -0.05739000 -0.01107900
v -0.03010600 -0.05887900 -0.01308900
v -0.03152100 -0.05867500 -0.00589000
v -0.00979500 -0.04998100 -0.02036800
v 0.00601300 -0.04207200 -0.01915300
v -0.00539000 -0.04850600 -0.01749100
v 0.00913300 -0.04079500 -0.01754500
v 0.02609700 -0.01162300 -0.02213300
v 0.01455000 -0.03787400 -0.01754400
v 0.01613500 -0.03621200 -0.01969800
v 0.00035700 -0.00643700 -0.02232100
v -0.01575600 -0.05411400 -0.01261900
v 0.02200700 -0.03343600 -0.01830100
v 0.02236700 -0.03378900 -0.01607400
v 0.04253700 -0.02201700 -0.01667900
v 0.04516200 -0.02010600 -0.01886300
v 0.04439700 -0.01842000 -0.02026200
v -0.01330300 -0.05322100 -0.00068500
v 0.04626400 -0.01988700 -0.01584500
v 0.00577100 -0.01989700 -0.02220700
v -0.01123700 -0.05202800 0.01203900
v 0.05496000 -0.01459700 -0.01635100
v 0.01480200 -0.00899800 -0.02234600
v 0.00847200 -0.04165400 0.00170300
v -0.00213500 -0.04727000 -0.00552700
v -0.00567900 -0.04882000 0.01253300
v 0.00156300 -0.04484600 -0.01759500
v 0.03215800 -0.02825000 -0.01568000
v 0.03437300 -0.02654100 -0.01772800
v 0.03804100 -0.02376400 -0.01942500
v 0.02265500 -0.03381000 -0.01055500
v 0.05012500 -0.01924400 0.01402400
v 0.01466800 -0.03841700 0.01309100
v 0.05514000 -0.01567900 0.01561400
v 0.05810800 -0.01471600 0.01467700
v 0.01083800 -0.04025100 -0.01087300
v 0.00534300 0.05506400 -0.01948800
v 0.01910200 0.04707900 -0.02101800
v 0.01763500 0.01963900 -0.02210300
v 0.06570300 -0.01007500 0.00896400
v 0.06307500 -0.01141600 0.01581000
v 0.06017800 -0.01082900 0.01601800
v 0.06067300 -0.01033700 -0.01843200
v 0.06579800 -0.00748500 0.01535200
v 0.02270500 -0.00136500 -0.02233800
v 0.02502100 0.02188100 -0.02189000
v 0.03030400 0.00762600 -0.02209500
v 0.06243000 -0.01022500 -0.01499800
v 0.04834500 -0.01498200 -0.02080700
v 0.05858300 0.01020700 -0.00760400
v 0.06403000 -0.01021200 -0.00583100
v 0.05511000 -0.01509400 -0.01175500
v 0.01560400 0.03526500 -0.02162100
v 0.02260000 0.03162500 -0.02164600
v 0.04001800 -0.01432200 -0.02157400
v 0.06432600 -0.00853400 -0.01729400
v 0.06308500 -0.00491000 -0.01840000
v 0.05743500 0.01048600 0.01076700
v 0.04116400 -0.00553200 -0.02182400
v 0.04153200 0.00477900 -0.02148200
v 0.06608300 -0.00702000 -0.01697900
v 0.04948000 -0.00390600 -0.02122800
v 0.06666700 -0.00652700 -0.01277400
v 0.05338300 0.02005600 -0.00788100
v 0.06592200 -0.00839500 -0.01052200
v 0.03406200 0.01510900 -0.02155800
v 0.00920800 0.00590200 -0.02230000
v 0.02185300 0.00916700 -0.02228100
v 0.05243800 -0.01144500 -0.02122200
v 0.05585100 -0.01256300 -0.01974900
v 0.05729800 -0.00874400 -0.02083800
v 0.06244900 -0.00786300 -0.01959200
v 0.04996100 -0.01702300 -0.01897800
v 0.02350900 0.04852700 -0.02070500
v 0.01955600 0.05966200 -0.02017600
v 0.02574300 0.06064800 -0.01970900
v 0.02087400 0.06191700 -0.01989700
v 0.02917700 0.06152300 -0.01856600
v 0.06280000 -0.01251000 0.01378900
v 0.03986100 0.04310300 -0.01741700
v 0.06342400 -0.00110500 0.01163100
v 0.02620700 0.06522400 -0.01896100
v 0.02828900 0.06540700 -0.01714200
v 0.06662300 -0.00936400 0.01332600
v 0.06740900 -0.00657800 -0.00757200
v 0.06754000 -0.00622900 -0.00279700
v 0.06724600 -0.00729700 0.00295700
v 0.06713200 -0.00772200 0.00958700
v -0.02880900 -0.05788100 0.01231800
v -0.02693700 -0.05981000 0.01176600
v -0.04156900 -0.03805600 0.00563000
v -0.06147100 0.02243600 0.00935400
v -0.04655300 -0.02923400 0.00188900
v -0.04417600 -0.03164500 0.01045800
v -0.06597900 0.00848800 -0.01189400
v -0.06586000 0.01295300 -0.02137900
v -0.06282900 0.00843400 -0.02169300
v -0.06331900 0.01329800 -0.02206800
v -0.03557100 -0.04841400 0.01006000
v -0.03299300 -0.05223700 0.01143400
v -0.06303900 0.02032000 -0.02000800
v -0.03257300 -0.04657400 0.01240900
v -0.02541900 -0.05092600 0.01276300
v -0.02248700 -0.05627800 0.01268800
v -0.06875900 0.01373100 -0.01139200
v -0.06285500 0.02079800 -0.01160600
v -0.02995000 -0.03705100 0.01299400
v -0.04693400 -0.02022500 0.01182100
v -0.05875800 -0.00119600 0.01114300
v -0.01223400 0.00295200 0.01465200
v -0.06930800 0.01451900 -0.00416300
v -0.03938400 -0.03003500 0.01233600
v -0.06994100 0.01708900 0.00896300
v -0.06821900 0.01419600 0.00980000
v -0.03655500 -0.02254800 0.01296700
v -0.04268100 -0.01315500 0.01262300
v -0.06134400 0.00577100 0.01119400
v -0.06652900 0.01489200 0.01085400
v -0.05834400 -0.00677600 -0.00095800
v -0.05404300 -0.01334600 0.00975000
v -0.05519500 -0.00852300 0.01115600
v -0.05703900 -0.00732700 0.00999000
v -0.04739600 0.00380800 0.01234600
v -0.05363700 -0.00215600 0.01181500
v -0.06825500 0.01835400 0.01044900
v -0.06492700 0.01758300 -0.02199800
v -0.06822100 0.01724100 -0.01964200
v -0.01391300 -0.02526000 0.01410900
v -0.02628900 -0.02920100 0.01351700
v -0.02980500 -0.01507800 0.01365300
v -0.03134800 -0.00565300 0.01356200
v -0.01756000 -0.01623100 0.01425000
v -0.06973700 0.01587500 0.00380600
v -0.06794500 0.01866100 0.00751200
v -0.06832900 0.01571100 -0.01668100
v -0.00731800 -0.00719700 0.01483600
v 0.02324400 -0.01076100 0.01536500
v 0.00552300 -0.02082500 0.01467500
v 0.00983600 -0.00361400 0.01537300
v -0.06009200 0.02071000 -0.02182100
v -0.03540200 0.03427600 -0.02069500
v -0.03112200 0.03711900 -0.01949300
v -0.05440600 0.02453900 -0.02102100
v -0.04376300 0.02977300 -0.02102000
v -0.04525900 0.03000200 -0.01942000
v -0.03768500 0.03395000 -0.01844300
v -0.01204500 0.04681100 -0.01863700
v -0.04310300 0.03208700 0.01037700
v -0.03546900 0.03617100 0.00959800
v -0.00207800 0.04882600 0.01372800
v -0.00039000 0.05307100 0.01348600
v -0.00450400 0.05173100 0.01286100
v -0.02390400 0.00650000 0.01388500
v -0.00489000 0.05013800 -0.01966900
v -0.00416900 0.05082000 -0.01794600
v -0.04173100 0.03275000 0.00616700
v 0.00857800 0.05715700 -0.01876900
v -0.00694300 0.01960000 0.01472900
v 0.03302100 0.01786600 0.01597900
v 0.02911100 0.03091400 0.01578600
v 0.00294500 0.00938800 0.01529200
v 0.04205300 0.01549000 0.01594700
v 0.04620700 0.02688000 0.01543100
v 0.02932300 0.00417000 0.01589100
v 0.04310200 0.00701400 0.01600200
v 0.06162800 -0.00330700 0.01603100
v 0.05854600 0.00475600 0.01551600
v 0.03263700 0.05360600 0.01479200
v 0.05958800 0.00547300 0.01407700
v 0.02699500 0.06622400 -0.01596700
v -0.00078800 0.04020400 0.01440200
v 0.02044900 0.01415000 0.01583000
v 0.00524600 0.03234000 0.01509800
v 0.00608300 0.04980200 0.01431600
v 0.04963200 0.02125600 0.01536200
v 0.01535600 0.02701900 0.01562600
v 0.01384000 0.05609300 0.01445600
v 0.01835800 0.04282400 0.01539000
v 0.02063800 0.06288500 -0.01861500
v 0.02861600 0.05929300 0.01495200
v 0.03021000 0.05965100 0.01437000
v 0.01661600 0.06225200 0.01420100
v 0.03187200 0.06040200 -0.00815200
v 0.02686300 0.06746000 0.01247400
v 0.02768600 0.06479800 0.01418700
v 0.02588200 0.06412100 0.01477100
v 0.02843300 0.04697000 0.01536100
v 0.02914000 0.06651000 0.00158700
v 0.02555600 0.06763500 0.01367000
f 123 121 151
f 123 19 4
f 11 94 74
f 4 94 11
f 139 150 138
f 104 109 66
f 207 211 214
f 122 123 4
f 121 123 122
f 48 19 21
f 19 123 21
f 93 123 151
f 80 94 4
f 138 118 145
f 145 139 138
f 67 66 191
f 69 66 109
f 191 66 69
f 42 11 74
f 42 35 11
f 65 109 104
f 104 76 65
f 77 44 47
f 77 76 104
f 9 15 124
f 104 66 60
f 150 139 143
f 208 108 213
f 177 150 207
f 207 214 177
f 195 108 107
f 195 214 209
f 209 213 195
f 213 108 195
f 63 78 151
f 151 100 63
f 102 62 107
f 166 102 165
f 165 151 126
f 126 168 165
f 165 100 151
f 165 102 100
f 170 168 126
f 204 195 107
f 126 151 152
f 151 121 152
f 120 130 121
f 121 23 120
f 120 23 130
f 2 122 4
f 121 122 2
f 158 118 138
f 138 152 158
f 48 21 36
f 36 21 123
f 151 78 64
f 64 93 151
f 33 80 4
f 73 77 47
f 76 77 73
f 6 2 4
f 25 27 6
f 6 5 25
f 27 26 6
f 124 15 125
f 125 15 114
f 192 200 191
f 191 69 192
f 192 69 200
f 194 213 209
f 209 214 210
f 210 214 211
f 211 205 210
f 210 194 209
f 69 194 210
f 35 42 55
f 55 41 35
f 116 145 118
f 118 9 116
f 124 145 116
f 23 26 24
f 59 67 129
f 66 67 59
f 58 60 66
f 66 59 58
f 114 129 128
f 128 154 114
f 129 154 128
f 155 154 157
f 140 154 155
f 155 141 140
f 149 141 155
f 149 140 141
f 150 143 175
f 108 208 89
f 89 88 108
f 89 213 111
f 89 208 213
f 191 200 188
f 188 205 191
f 211 196 203
f 169 168 166
f 166 165 169
f 169 165 168
f 166 168 167
f 168 170 167
f 171 214 180
f 171 167 170
f 121 130 160
f 160 152 121
f 130 152 160
f 15 9 14
f 130 23 136
f 136 152 130
f 136 158 152
f 48 36 70
f 70 33 48
f 123 93 92
f 92 36 123
f 93 70 92
f 92 70 36
f 4 19 45
f 45 33 4
f 45 19 48
f 48 33 45
f 4 11 3
f 3 52 31
f 3 6 4
f 3 8 5
f 5 6 3
f 2 6 7
f 23 17 7
f 7 17 2
f 7 26 23
f 7 6 26
f 139 125 146
f 146 125 114
f 119 145 124
f 124 125 119
f 119 125 145
f 139 145 147
f 147 125 139
f 145 125 147
f 111 213 113
f 113 112 111
f 113 69 109
f 109 112 113
f 200 69 206
f 69 210 206
f 76 73 90
f 90 65 76
f 109 65 90
f 10 9 124
f 124 116 10
f 10 116 9
f 22 9 118
f 22 24 9
f 23 24 22
f 9 24 28
f 28 24 26
f 28 14 9
f 15 14 28
f 28 26 27
f 28 27 25
f 25 15 28
f 104 60 57
f 57 58 104
f 60 58 57
f 115 129 114
f 114 15 115
f 115 15 25
f 25 5 115
f 186 164 197
f 114 154 132
f 132 140 114
f 154 140 132
f 183 143 178
f 148 149 155
f 143 149 148
f 155 156 148
f 148 178 143
f 156 178 148
f 142 149 143
f 140 149 137
f 149 142 137
f 199 143 196
f 199 175 143
f 199 196 211
f 207 175 199
f 207 150 176
f 176 175 207
f 150 175 176
f 88 89 110
f 111 112 110
f 109 90 110
f 110 112 109
f 198 203 196
f 198 143 183
f 196 143 198
f 212 203 185
f 191 205 212
f 212 205 211
f 211 203 212
f 185 203 201
f 201 184 185
f 197 184 201
f 203 198 201
f 201 186 197
f 183 186 201
f 201 198 183
f 33 70 84
f 94 80 84
f 80 33 84
f 93 64 71
f 87 84 85
f 100 102 101
f 101 102 107
f 166 167 179
f 179 102 166
f 62 102 179
f 172 171 180
f 167 171 172
f 150 117 159
f 138 150 159
f 159 152 138
f 126 152 159
f 174 171 170
f 214 171 174
f 18 23 121
f 18 17 23
f 74 94 95
f 95 42 74
f 95 55 42
f 98 41 95
f 41 55 95
f 108 88 86
f 88 110 86
f 86 110 90
f 53 77 104
f 104 39 53
f 53 39 41
f 31 52 61
f 35 41 38
f 8 3 12
f 12 3 31
f 5 8 12
f 11 35 29
f 29 3 11
f 1 43 13
f 1 115 5
f 5 12 37
f 37 12 31
f 37 1 5
f 43 1 37
f 187 184 191
f 185 184 187
f 191 212 187
f 187 212 185
f 190 67 191
f 191 184 190
f 106 113 213
f 106 194 69
f 69 113 106
f 205 188 193
f 193 210 205
f 193 206 210
f 193 188 200
f 200 206 193
f 23 22 144
f 144 136 23
f 158 136 144
f 118 158 144
f 144 22 118
f 13 43 46
f 46 43 58
f 51 58 59
f 51 59 129
f 129 115 51
f 51 46 58
f 115 46 51
f 129 67 163
f 164 186 161
f 155 157 161
f 134 142 143
f 134 143 139
f 139 146 134
f 134 146 114
f 114 142 134
f 114 140 127
f 140 137 127
f 202 211 207
f 207 199 202
f 202 199 211
f 75 89 111
f 111 110 75
f 75 110 89
f 78 63 79
f 79 64 78
f 79 71 64
f 85 84 72
f 72 71 85
f 93 71 72
f 72 70 93
f 72 84 70
f 99 63 100
f 100 101 99
f 99 79 63
f 85 79 99
f 182 179 167
f 167 172 182
f 182 172 180
f 195 204 182
f 62 179 182
f 180 214 182
f 214 195 182
f 107 62 182
f 182 204 107
f 126 159 131
f 131 159 117
f 131 170 126
f 131 117 170
f 170 117 181
f 181 174 170
f 117 174 181
f 214 174 173
f 173 174 117
f 173 117 150
f 150 177 173
f 173 177 214
f 2 17 20
f 17 18 20
f 121 2 20
f 20 18 121
f 81 90 73
f 81 86 90
f 81 73 47
f 47 41 81
f 81 41 98
f 103 86 82
f 107 108 103
f 40 53 41
f 47 44 40
f 40 41 47
f 44 77 40
f 77 53 40
f 56 39 104
f 104 61 56
f 56 61 39
f 58 43 50
f 43 37 50
f 31 61 50
f 50 37 31
f 41 39 54
f 54 38 41
f 34 54 39
f 38 54 34
f 189 184 197
f 189 190 184
f 67 190 189
f 189 164 67
f 197 164 189
f 213 194 83
f 83 106 213
f 194 106 83
f 13 46 16
f 16 46 115
f 16 1 13
f 115 1 16
f 67 164 162
f 162 163 67
f 164 163 162
f 153 163 164
f 164 161 153
f 129 163 153
f 153 161 157
f 153 154 129
f 153 157 154
f 135 186 183
f 135 161 186
f 183 178 135
f 135 178 156
f 135 156 155
f 155 161 135
f 133 137 142
f 133 127 137
f 133 142 114
f 114 127 133
f 85 71 91
f 91 79 85
f 71 79 91
f 86 81 97
f 82 86 97
f 97 103 82
f 107 103 97
f 97 101 107
f 98 95 68
f 68 81 98
f 95 97 68
f 68 97 81
f 108 86 105
f 105 103 108
f 86 103 105
f 58 50 49
f 49 50 61
f 104 58 49
f 49 61 104
f 32 34 39
f 39 61 32
f 32 61 52
f 35 38 30
f 38 34 30
f 30 29 35
f 34 32 30
f 30 32 52
f 52 3 30
f 3 29 30
f 96 95 94
f 96 97 95
f 94 84 96
f 84 87 96
f 101 97 96
f 96 99 101
f 96 87 85
f 85 99 96

