# https://github.com/mikedh/trimesh
v 0.04795573 -0.00253139 0.03334400
v 0.04657665 -0.01617677 0.03301512
v 0.04865637 -0.00983304 0.03219064
v 0.04765535 0.00910357 0.03313419
v 0.04683338 0.01556652 0.03324647
v 0.04357581 0.02059463 0.03314327
v 0.04221005 -0.02061285 0.03198764
v 0.04328727 -0.02140633 0.03066077
v 0.04342267 -0.02129533 0.03064943
v 0.04691032 -0.01692091 0.03110987
v 0.04564000 -0.01074986 0.02175940
v 0.04606319 -0.00503517 0.02175940
v 0.04844847 -0.00405668 0.03104296
v 0.04779518 0.01314497 0.03135029
v 0.04819766 0.00168680 0.03199105
v 0.04594334 0.01853487 0.03089099
v 0.04435932 0.02059463 0.03072655
v 0.04109805 0.02059463 0.03065510
v 0.04221005 -0.02140633 0.03131740
v 0.04109805 0.00138667 0.02984764
v 0.04281229 -0.02140633 0.03012436
v 0.04221005 -0.01805563 0.02175940
v 0.04247714 -0.01778839 0.02175940
v 0.04337827 -0.01638644 0.02175940
v 0.04553050 -0.01115277 0.02175940
v 0.04500003 0.00805108 0.02175940
v 0.04390727 0.01439480 0.02175940
v 0.04389987 0.01441947 0.02175940
v 0.04109805 0.01959558 0.02175940
v 0.04109805 0.02059463 0.02651686
v 0.04221005 -0.02140633 0.02952329
v 0.04109805 0.00138667 0.02175940
f 1 2 3
f 1 3 4
f 1 4 5
f 1 5 6
f 1 6 2
f 2 7 8
f 2 8 9
f 2 9 10
f 2 10 3
f 2 6 7
f 3 11 12
f 3 12 13
f 3 13 14
f 3 14 15
f 3 15 4
f 3 10 11
f 4 15 14
f 4 14 5
f 5 14 16
f 5 16 6
f 6 16 17
f 6 17 30
f 6 30 18
f 6 18 7
f 7 19 8
f 7 18 20
f 7 20 19
f 8 21 22
f 8 22 9
f 8 19 31
f 8 31 21
f 9 22 23
f 9 23 10
f 10 23 24
f 10 24 25
f 10 25 11
f 11 25 24
f 11 24 23
f 11 23 22
f 11 22 32
f 11 32 29
f 11 29 28
f 11 28 27
f 11 27 26
f 11 26 12
f 12 26 14
f 12 14 13
f 14 26 27
f 14 27 28
f 14 28 16
f 16 28 29
f 16 29 17
f 17 29 30
f 18 30 29
f 18 29 32
f 18 32 20
f 19 20 32
f 19 32 31
f 21 31 22
f 22 31 32

