# https://github.com/mikedh/trimesh
v -0.05188206 -0.00177293 0.03333791
v -0.04451104 -0.00177293 0.02979918
v -0.05269317 -0.00177293 0.03286298
v -0.05234970 -0.01112269 0.03298199
v -0.05056540 -0.01707332 0.03328803
v -0.04674283 -0.02363827 0.03307494
v -0.04451104 -0.00177293 0.02175940
v -0.04451104 -0.02363827 0.03047814
v -0.05259320 -0.00177293 0.03180998
v -0.05274800 -0.00319209 0.03256374
v -0.04925681 -0.01460959 0.02175940
v -0.05043640 -0.01848606 0.03034212
v -0.05217232 -0.00822016 0.03071390
v -0.04819333 -0.02206285 0.03282784
v -0.04743784 -0.02363827 0.03207748
v -0.05010663 -0.00177293 0.02175940
v -0.04451104 -0.02248240 0.02175940
v -0.04451104 -0.02363827 0.02764330
v -0.04859485 -0.01728095 0.02175940
v -0.04756523 -0.02363827 0.03107208
v -0.04615585 -0.02363827 0.02915650
v -0.04477954 -0.02226192 0.02175940
v -0.04607120 -0.02074216 0.02175940
f 1 2 7
f 1 7 16
f 1 16 9
f 1 9 3
f 1 3 4
f 1 4 5
f 1 5 6
f 1 6 2
f 2 6 8
f 2 8 18
f 2 18 17
f 2 17 7
f 3 9 10
f 3 10 4
f 4 11 12
f 4 12 5
f 4 10 13
f 4 13 11
f 5 12 14
f 5 14 6
f 6 14 15
f 6 15 20
f 6 20 21
f 6 21 18
f 6 18 8
f 7 17 22
f 7 22 23
f 7 23 19
f 7 19 11
f 7 11 16
f 9 16 10
f 10 16 13
f 11 19 12
f 11 13 16
f 12 19 20
f 12 20 14
f 14 20 15
f 17 18 21
f 17 21 20
f 17 20 22
f 19 23 20
f 20 23 22

