# https://github.com/mikedh/trimesh
v 0.02615305 0.00138570 0.02886769
v 0.02615305 -0.01172056 0.03074903
v 0.02615305 0.00138570 0.02175827
v 0.01160090 0.00138570 0.03090094
v 0.02615305 -0.01876455 0.03122144
v 0.02615305 -0.02140633 0.02175827
v -0.00374149 0.00138570 0.02175827
v -0.00374149 0.00138570 0.02852774
v 0.00939700 -0.00228245 0.03084999
v 0.02615305 -0.01936922 0.03121125
v 0.00658726 -0.01280047 0.03070086
v 0.02615305 -0.02140633 0.03004596
v -0.00374149 -0.02140633 0.02175827
v -0.00374149 -0.02140633 0.02927990
v 0.01619308 -0.01875786 0.03073884
v 0.00572385 -0.02140633 0.02980882
v 0.02615305 -0.02114082 0.03021547
f 1 2 5
f 1 5 10
f 1 10 17
f 1 17 12
f 1 12 6
f 1 6 3
f 1 3 7
f 1 7 8
f 1 8 4
f 1 4 2
f 2 4 5
f 3 6 13
f 3 13 7
f 4 8 9
f 4 9 5
f 5 9 11
f 5 11 10
f 6 12 16
f 6 16 14
f 6 14 13
f 7 13 14
f 7 14 8
f 8 14 9
f 9 14 11
f 10 15 16
f 10 16 17
f 10 11 15
f 11 14 15
f 12 17 16
f 14 16 15

