# https://github.com/mikedh/trimesh
v -0.04308740 -0.02364018 0.02175939
v -0.04077533 -0.02553481 0.02175939
v -0.04665334 -0.02526504 0.03130218
v -0.04755149 -0.02363840 0.03107208
v -0.00373761 -0.02140722 0.02175939
v -0.03896123 -0.02637083 0.02175939
v -0.04094428 -0.02920566 0.03175227
v -0.04603975 -0.02439696 0.03319457
v -0.04743589 -0.02363840 0.03207664
v -0.00373761 -0.02140722 0.02927846
v 0.03907140 -0.02140722 0.02175939
v -0.03709379 -0.03037823 0.03235388
v -0.03337668 -0.02769832 0.02175939
v -0.03667583 -0.03050110 0.03241674
v -0.04196694 -0.02743924 0.03297345
v -0.04673337 -0.02363840 0.03307559
v -0.03709379 -0.02874268 0.03311151
v -0.03569765 -0.02911395 0.03314967
v -0.03127802 -0.03030967 0.03322487
v 0.01992562 -0.02710358 0.03312723
v 0.04142794 -0.02140722 0.03180277
v 0.04327761 -0.02140722 0.03066016
v 0.03972946 -0.02424472 0.03096433
v 0.03756855 -0.02247651 0.02175939
v -0.02961510 -0.02760484 0.02175939
v -0.03451493 -0.03001141 0.03023813
v -0.03483506 -0.03008442 0.03056251
v -0.03482617 -0.03008442 0.03056251
v -0.02612031 -0.03011113 0.03138972
v -0.01438206 -0.02959741 0.03263336
v 0.03123701 -0.02745526 0.03275907
v 0.01219794 -0.02798412 0.03309692
v 0.03617241 -0.02645631 0.03215634
v 0.03453617 -0.02375236 0.02175939
v -0.00779264 -0.02667088 0.02175939
v 0.02591034 -0.02769832 0.03182635
v 0.03209960 -0.02650795 0.02975549
v 0.02933400 -0.02431772 0.02175939
v 0.02166857 -0.02482521 0.02175939
f 1 2 3
f 1 3 4
f 1 4 5
f 1 5 11
f 1 11 24
f 1 24 34
f 1 34 38
f 1 38 39
f 1 39 35
f 1 35 25
f 1 25 13
f 1 13 6
f 1 6 2
f 2 6 7
f 2 7 3
f 3 8 9
f 3 9 4
f 3 7 8
f 4 9 10
f 4 10 5
f 5 10 21
f 5 21 22
f 5 22 11
f 6 12 7
f 6 13 14
f 6 14 12
f 7 12 15
f 7 15 8
f 8 16 9
f 8 15 17
f 8 17 18
f 8 18 19
f 8 19 20
f 8 20 16
f 9 16 10
f 10 16 21
f 11 22 23
f 11 23 24
f 12 14 15
f 13 25 26
f 13 26 27
f 13 27 14
f 14 27 28
f 14 28 29
f 14 29 19
f 14 19 18
f 14 18 17
f 14 17 15
f 16 20 21
f 19 29 30
f 19 30 31
f 19 31 32
f 19 32 20
f 20 32 31
f 20 31 21
f 21 31 33
f 21 33 22
f 22 33 23
f 23 33 24
f 24 33 34
f 25 35 29
f 25 29 26
f 26 28 27
f 26 29 28
f 29 35 36
f 29 36 30
f 30 36 31
f 31 36 37
f 31 37 33
f 33 37 34
f 34 37 38
f 35 39 36
f 36 39 38
f 36 38 37

