# https://github.com/mikedh/trimesh
v -0.00374925 0.02698937 0.03054597
v -0.00374925 0.02560428 0.03054597
v -0.00374925 0.02489767 0.02176144
v -0.03553341 0.02555643 0.03054597
v -0.04367278 0.02333523 0.03336676
v -0.04459112 0.02283694 0.03344904
v -0.00374925 -0.00177079 0.02845530
v -0.05255650 0.00172288 0.03359854
v -0.05187983 -0.00177079 0.03333663
v -0.00374925 -0.00177079 0.02176144
v -0.01259430 0.02447539 0.02176144
v -0.03603125 0.02546352 0.03036403
v -0.03628258 0.02546352 0.03054597
v -0.02706054 0.02367587 0.02176144
v -0.04344562 0.02323388 0.03054597
v -0.04367278 0.02315787 0.03112079
v -0.04367278 0.02312972 0.03081021
v -0.04367278 0.02309030 0.03054597
v -0.04761197 0.02004988 0.03054597
v -0.04905715 0.01928978 0.03303415
v -0.05069565 0.01450674 0.03348497
v -0.05312200 0.00980253 0.03279542
v -0.05269183 -0.00177079 0.03286264
v -0.05169132 0.01257832 0.03320220
v -0.05010115 -0.00177079 0.02176144
v -0.03799359 0.02258075 0.02176144
v -0.04355195 0.02316631 0.03047412
v -0.04357612 0.02316069 0.03054597
v -0.04804214 0.01963605 0.03012297
v -0.04819681 0.01958819 0.03054597
v -0.05154149 0.01570039 0.03238285
v -0.05259033 -0.00177079 0.03181035
v -0.05237766 0.01257832 0.03260188
v -0.04939065 0.01212789 0.02176144
v -0.05052165 0.00698450 0.02176144
v -0.05047332 0.00353306 0.02176144
v -0.05228099 -0.00177079 0.03056104
v -0.05019782 -0.00044764 0.02176144
v -0.04394345 0.01967827 0.02176144
v -0.04873331 0.01383672 0.02176144
v -0.04869948 0.01890409 0.03054597
v -0.04517113 0.01863665 0.02176144
v -0.04785847 0.01505007 0.02176144
f 1 2 7
f 1 7 10
f 1 10 3
f 1 3 4
f 1 4 5
f 1 5 6
f 1 6 2
f 2 6 8
f 2 8 9
f 2 9 7
f 3 10 25
f 3 25 38
f 3 38 36
f 3 36 35
f 3 35 34
f 3 34 40
f 3 40 43
f 3 43 42
f 3 42 39
f 3 39 26
f 3 26 14
f 3 14 11
f 3 11 4
f 4 12 13
f 4 13 5
f 4 11 14
f 4 14 12
f 5 13 15
f 5 15 16
f 5 16 6
f 6 16 17
f 6 17 18
f 6 18 19
f 6 19 20
f 6 20 21
f 6 21 8
f 7 9 23
f 7 23 32
f 7 32 37
f 7 37 25
f 7 25 10
f 8 22 23
f 8 23 9
f 8 21 24
f 8 24 22
f 12 14 26
f 12 26 13
f 13 26 15
f 15 27 28
f 15 28 16
f 15 26 27
f 16 28 17
f 17 28 18
f 18 29 19
f 18 28 27
f 18 27 29
f 19 29 30
f 19 30 20
f 20 30 31
f 20 31 21
f 21 31 24
f 22 32 23
f 22 24 33
f 22 33 31
f 22 31 34
f 22 34 35
f 22 35 36
f 22 36 32
f 24 31 33
f 25 37 38
f 26 39 27
f 27 39 29
f 29 40 41
f 29 41 30
f 29 39 42
f 29 42 43
f 29 43 40
f 30 41 31
f 31 41 40
f 31 40 34
f 32 36 38
f 32 38 37

