# https://github.com/mikedh/trimesh
v 0.02615755 -0.02140633 0.02175927
v 0.03907772 -0.02140633 0.02175927
v 0.02615755 -0.02140633 0.03004621
v 0.02615755 0.00138570 0.02175927
v 0.03948001 -0.02112073 0.02175927
v 0.04220955 -0.02140633 0.02952452
v 0.04143170 -0.02140633 0.03180453
v 0.02615755 -0.02114082 0.03021543
v 0.02615755 0.00138570 0.02886765
v 0.04220955 0.00138570 0.02175927
v 0.04220955 -0.01805725 0.02175927
v 0.04220955 -0.02140633 0.03131688
v 0.04220955 -0.02136394 0.03135293
v 0.04220955 -0.02061648 0.03198677
v 0.02615755 -0.01936922 0.03121075
v 0.03984143 0.00138570 0.03128985
v 0.02615755 -0.01172056 0.03074914
v 0.03396434 -0.00443335 0.03122677
v 0.04220955 0.00138570 0.02982592
v 0.02615755 -0.01876455 0.03122076
v 0.04220955 -0.00933314 0.03103752
v 0.04018400 -0.00199462 0.03140200
f 1 2 6
f 1 6 12
f 1 12 7
f 1 7 3
f 1 3 8
f 1 8 15
f 1 15 20
f 1 20 17
f 1 17 9
f 1 9 4
f 1 4 10
f 1 10 11
f 1 11 5
f 1 5 2
f 2 5 6
f 3 7 8
f 4 9 16
f 4 16 19
f 4 19 10
f 5 11 6
f 6 11 10
f 6 10 19
f 6 19 21
f 6 21 14
f 6 14 13
f 6 13 12
f 7 12 13
f 7 13 14
f 7 14 15
f 7 15 8
f 9 17 18
f 9 18 16
f 14 20 15
f 14 21 16
f 14 16 22
f 14 22 18
f 14 18 20
f 16 21 19
f 16 18 22
f 17 20 18

