# https://github.com/mikedh/trimesh
v -0.00374442 0.02737622 0.03158897
v -0.00894693 0.02713549 0.03291781
v -0.00374442 0.02637769 0.03239599
v -0.00374442 0.02728191 0.03113672
v -0.03037848 0.02645288 0.03243382
v -0.02321379 0.02660391 0.03319694
v -0.01175340 0.02595888 0.03297083
v -0.00374442 0.02623193 0.03237501
v -0.00374442 0.02698908 0.03054809
v -0.03553409 0.02555657 0.03054809
v -0.03628457 0.02547083 0.03054809
v -0.03967734 0.02548468 0.03301389
v -0.04367597 0.02333789 0.03336840
v -0.04367597 0.02150834 0.03254978
v -0.00374442 0.02570826 0.03084876
v -0.04367597 0.02063908 0.03054809
v -0.00374442 0.02560603 0.03054809
v -0.04344535 0.02323698 0.03054809
v -0.04358216 0.02316311 0.03054809
v -0.04367597 0.02313410 0.03081148
v -0.04367597 0.02315916 0.03112182
v -0.04367597 0.02309254 0.03054809
f 1 2 3
f 1 3 8
f 1 8 15
f 1 15 17
f 1 17 9
f 1 9 4
f 1 4 5
f 1 5 2
f 2 6 7
f 2 7 8
f 2 8 3
f 2 5 6
f 4 9 10
f 4 10 5
f 5 10 11
f 5 11 12
f 5 12 6
f 6 12 13
f 6 13 7
f 7 13 14
f 7 14 8
f 8 14 16
f 8 16 15
f 9 17 16
f 9 16 22
f 9 22 19
f 9 19 18
f 9 18 11
f 9 11 10
f 11 18 12
f 12 18 19
f 12 19 20
f 12 20 21
f 12 21 13
f 13 21 20
f 13 20 22
f 13 22 16
f 13 16 14
f 15 16 17
f 19 22 20

