# https://github.com/mikedh/trimesh
v 0.02835489 0.00138793 0.02175827
v 0.04109805 0.00138793 0.02175827
v 0.02835489 0.00138793 0.02911173
v 0.02835489 0.02059463 0.02175827
v 0.04109805 0.00138793 0.02984885
v 0.04109805 0.01959632 0.02175827
v 0.03984195 0.00138793 0.03129043
v 0.02835489 0.01428326 0.03034990
v 0.02835489 0.02059463 0.02968183
v 0.04013383 0.02059463 0.02175827
v 0.04108308 0.00138793 0.02992816
v 0.04109805 0.02059463 0.03065595
v 0.04093464 0.01989713 0.02175827
v 0.04109805 0.02059463 0.02651595
v 0.03586781 0.01274914 0.03093493
v 0.03010246 0.01489429 0.03062236
v 0.02835489 0.01568015 0.03020994
v 0.03611604 0.02059463 0.03035456
f 1 2 5
f 1 5 11
f 1 11 7
f 1 7 3
f 1 3 8
f 1 8 17
f 1 17 9
f 1 9 4
f 1 4 10
f 1 10 13
f 1 13 6
f 1 6 2
f 2 6 14
f 2 14 12
f 2 12 5
f 3 7 8
f 4 9 18
f 4 18 12
f 4 12 14
f 4 14 10
f 5 12 11
f 6 13 14
f 7 15 16
f 7 16 8
f 7 11 12
f 7 12 15
f 8 16 17
f 9 17 16
f 9 16 18
f 10 14 13
f 12 18 16
f 12 16 15

