# https://github.com/mikedh/trimesh
v 0.02835489 0.02059543 0.02175938
v 0.02835489 0.02059543 0.02968125
v 0.02835489 0.02631993 0.02175938
v 0.04013399 0.02059543 0.02175938
v 0.02835489 0.02780611 0.03218107
v 0.04357419 0.02059543 0.03314400
v 0.02835489 0.02867891 0.03072553
v 0.03005619 0.02877500 0.03088602
v 0.02917421 0.02631432 0.02175938
v 0.03633347 0.02393612 0.02175938
v 0.04207185 0.02356137 0.03048926
v 0.04435748 0.02059543 0.03072665
v 0.02835489 0.02876619 0.03144104
v 0.03564731 0.02685322 0.03305818
v 0.03971571 0.02575060 0.03176536
v 0.03065306 0.02620462 0.02175938
v 0.03396950 0.02850355 0.03172190
v 0.03171677 0.02578183 0.02175938
f 1 2 5
f 1 5 13
f 1 13 7
f 1 7 3
f 1 3 9
f 1 9 16
f 1 16 18
f 1 18 10
f 1 10 4
f 1 4 12
f 1 12 6
f 1 6 2
f 2 6 5
f 3 7 8
f 3 8 9
f 4 10 11
f 4 11 12
f 5 6 14
f 5 14 13
f 6 12 11
f 6 11 15
f 6 15 14
f 7 13 8
f 8 16 9
f 8 13 17
f 8 17 16
f 10 18 17
f 10 17 15
f 10 15 11
f 13 14 17
f 14 15 17
f 16 17 18

