# https://github.com/mikedh/trimesh
v 0.00064379 -0.04020445 0.00326582
v -0.00640954 -0.04523683 0.04086043
v -0.00757889 -0.04532884 0.04086043
v -0.00875289 -0.04536356 0.04086043
v -0.00523554 -0.04080681 0.00740959
v -0.00585049 -0.04075300 0.00740959
v -0.00640954 -0.04070092 0.00740959
v -0.00701984 -0.04062280 0.00740959
v -0.00757889 -0.04054816 0.00740959
v -0.00819384 -0.04044921 0.00740959
v -0.00875289 -0.04035721 0.00740959
v -0.00937250 -0.04025479 0.00740959
v -0.01036947 -0.04007426 0.00740959
v -0.01073285 -0.04000656 0.00740959
v -0.01179504 -0.03979651 0.00740959
v -0.01461358 -0.03923582 0.00740959
v -0.01578759 -0.03898585 0.00740959
v -0.01643981 -0.03882094 0.00740959
v -0.01672399 -0.03870463 0.00740959
v -0.01813093 -0.03810401 0.00740959
v -0.01856885 -0.03791306 0.00740959
v -0.01896950 -0.03773600 0.00740959
v -0.01955650 -0.03745651 0.00740959
v -0.02004101 -0.03720481 0.00740959
v -0.02047427 -0.03697567 0.00740959
v -0.02235641 -0.03596711 0.00740959
v -0.02466248 -0.03472420 0.00740959
v -0.02517028 -0.03445340 0.00741344
v -0.02517028 -0.03389271 0.00740959
v 0.00064379 -0.03772037 0.00326582
v 0.00393752 -0.03992844 0.00326582
v 0.00127738 -0.04465878 0.04143093
v -0.00523554 -0.04484278 0.04175472
v -0.00640954 -0.04487750 0.04178941
v 0.00127738 -0.04465878 0.04145405
v -0.00875289 -0.04487403 0.04166220
v -0.00992223 -0.04522989 0.04086043
v -0.00992223 -0.04511880 0.03995844
v -0.00757889 -0.04490180 0.04175857
v -0.01109623 -0.04498686 0.04000855
v -0.01226558 -0.04484973 0.04008565
v -0.01318335 -0.04473863 0.04018201
v -0.01774891 -0.04353218 0.04021671
v -0.02108457 -0.04232052 0.04026296
v -0.02342792 -0.04114531 0.04026296
v -0.02517028 -0.04008641 0.04018972
v -0.02517028 -0.03181136 0.00740959
v 0.02242339 -0.02802535 0.00326582
v 0.00532116 -0.03981214 0.00326582
v 0.00766917 -0.04395053 0.04086043
v -0.00523554 -0.04406857 0.04232906
v 0.00649517 -0.04385332 0.04172773
v -0.00757889 -0.04412759 0.04234834
v 0.00766917 -0.04374222 0.04166606
v -0.00872028 -0.04397830 0.04230208
v -0.00992223 -0.04476467 0.04154271
v -0.01062570 -0.04468135 0.04146947
v -0.01140371 -0.04458587 0.04136154
v -0.01226558 -0.04484973 0.04062915
v -0.01318335 -0.04473863 0.04044413
v -0.01774891 -0.04353218 0.04040173
v -0.02108457 -0.04232052 0.04030536
v -0.02342792 -0.04114531 0.04030151
v -0.02517028 -0.04008641 0.04052122
v -0.02517028 -0.03132704 0.03851294
v 0.02242339 -0.02762957 0.01154951
v 0.02242339 -0.02764519 0.01085567
v 0.02242339 -0.02766081 0.01037769
v 0.02242339 -0.02770247 0.00920201
v 0.02242339 -0.02774587 0.00803019
v 0.02242339 -0.02776844 0.00746741
v 0.02242339 -0.02779621 0.00685837
v 0.02242339 -0.02787086 0.00568655
v 0.02242339 -0.03112220 0.00326582
v 0.00642528 -0.03955870 0.00326582
v 0.00862887 -0.04361550 0.03993146
v 0.00876397 -0.04366931 0.04086043
v 0.00855899 -0.04359641 0.04155813
v -0.00672634 -0.04351655 0.04262973
v -0.00636295 -0.04397136 0.04242157
v 0.00766917 -0.04289510 0.04195131
v -0.00757889 -0.04354086 0.04264515
v -0.00830565 -0.04352697 0.04264129
v 0.00890839 -0.04297842 0.04174316
v -0.01535898 -0.04352003 0.04147333
v -0.01461358 -0.04361029 0.04154271
v -0.01226558 -0.04448172 0.04121506
v -0.01614165 -0.04339331 0.04135769
v -0.01696159 -0.04324402 0.04118037
v -0.01958446 -0.04217644 0.04133071
v -0.02047427 -0.04244203 0.04050581
v -0.02047427 -0.04196987 0.04109171
v -0.02440625 -0.03987984 0.04136154
v -0.02517028 -0.03969757 0.04110713
v -0.02517028 -0.03153361 0.03940337
v 0.02242339 -0.02843850 0.03734112
v 0.02242339 -0.02764519 0.01272133
v 0.02242339 -0.02763304 0.01202363
v 0.02235351 -0.03764573 0.04022441
v 0.02116088 -0.03879837 0.04025910
v 0.01808611 -0.03439091 0.00326582
v 0.02242339 -0.03754678 0.04019357
v 0.00649517 -0.03954133 0.00326582
v 0.01205304 -0.04241252 0.03999313
v 0.01891536 -0.04000308 0.04019357
v 0.01891536 -0.04000308 0.04032849
v 0.01175954 -0.04230316 0.04144249
v 0.01118652 -0.04054816 0.04210549
v 0.02173856 -0.03469122 0.04225197
v 0.02242339 -0.03400901 0.04228666
v 0.01001251 -0.04172163 0.04198600
v -0.01071888 -0.04237086 0.04263744
v -0.00757889 -0.04338810 0.04264515
v -0.01403590 -0.04114184 0.04262202
v -0.01578759 -0.04172337 0.04215175
v -0.01880179 -0.04233614 0.04146176
v 0.01129832 -0.04183620 0.04172388
v -0.02122433 -0.04120780 0.04147333
v -0.02200700 -0.04102900 0.04134612
v -0.02362358 -0.04006037 0.04148489
v -0.02517028 -0.03911257 0.04156198
v -0.02517028 -0.03156833 0.03943806
v 0.02242339 -0.03124719 0.04077949
v 0.02242339 -0.02949393 0.03902175
v 0.02242339 -0.02892629 0.03843199
v 0.02242339 -0.02846106 0.03742592
v 0.02235351 -0.03764573 0.04030151
v 0.02116088 -0.03879837 0.04028223
v 0.01658133 -0.03533871 0.00326582
v 0.01716834 -0.03500368 0.00326582
v 0.01800225 -0.03444993 0.00326582
v 0.01805350 -0.03441521 0.00326582
v 0.02242339 -0.03754678 0.04032849
v 0.00759929 -0.03910562 0.00326582
v 0.00767383 -0.03907611 0.00326582
v 0.00888976 -0.03857270 0.00326582
v 0.01148002 -0.03749644 0.00326582
v 0.01469920 -0.03615632 0.00326582
v 0.01587321 -0.03565812 0.00326582
v 0.02056456 -0.03898932 0.04043642
v 0.01933931 -0.03941288 0.04061759
v 0.02056456 -0.03820469 0.04093367
v 0.01948839 -0.03819775 0.04127674
v 0.02056456 -0.03743742 0.04135769
v 0.02056456 -0.03685068 0.04162366
v 0.02056456 -0.03586469 0.04205924
v 0.02134257 -0.03661460 0.04151958
v 0.02173390 -0.03589247 0.04172388
v 0.02242339 -0.03522935 0.04178170
v 0.02242339 -0.03470858 0.04200912
v 0.02242339 -0.03347435 0.04219800
v -0.02517028 -0.03586295 0.04212477
v -0.02399628 -0.03703469 0.04232521
v -0.01403590 -0.04112795 0.04262202
v -0.01395670 -0.04112795 0.04262202
v -0.01033220 -0.04224761 0.04263744
v -0.01071888 -0.04224761 0.04263744
v -0.02517028 -0.03703469 0.04225582
v -0.02282228 -0.03820816 0.04227510
v -0.02047427 -0.03937642 0.04226353
v -0.01813093 -0.04054816 0.04221342
v -0.01813093 -0.04172337 0.04178941
v -0.01930493 -0.04054816 0.04202840
v -0.01923971 -0.04175982 0.04160053
v -0.02047427 -0.04138487 0.04153500
v -0.02164828 -0.03937642 0.04207080
v -0.02400560 -0.03944412 0.04164293
v -0.02282228 -0.03937642 0.04187036
v -0.02517028 -0.03820816 0.04188192
v -0.02517028 -0.03222797 0.04003553
v 0.02242339 -0.03148674 0.04101848
v 0.02242339 -0.03732632 0.04048653
v 0.02162675 -0.03810574 0.04046340
v 0.02212523 -0.03630040 0.04135383
v 0.02173390 -0.03701560 0.04110713
v 0.02242339 -0.03559042 0.04161210
v 0.02242339 -0.03268973 0.04198985
v -0.02399628 -0.03820816 0.04208236
v -0.02047427 -0.04054816 0.04183952
v 0.02242339 -0.03246406 0.04185494
v 0.02242339 -0.03615459 0.04127288
v 0.02242339 -0.03578831 0.04150416
f 1 2 3
f 1 3 4
f 1 4 5
f 1 5 6
f 1 6 7
f 1 7 8
f 1 8 9
f 1 9 10
f 1 10 11
f 1 11 12
f 1 12 13
f 1 13 14
f 1 14 15
f 1 15 16
f 1 16 17
f 1 17 18
f 1 18 19
f 1 19 20
f 1 20 21
f 1 21 22
f 1 22 23
f 1 23 24
f 1 24 25
f 1 25 26
f 1 26 27
f 1 27 28
f 1 28 29
f 1 29 47
f 1 47 30
f 1 30 48
f 1 48 74
f 1 74 101
f 1 101 132
f 1 132 131
f 1 131 130
f 1 130 129
f 1 129 139
f 1 139 138
f 1 138 137
f 1 137 136
f 1 136 135
f 1 135 134
f 1 134 103
f 1 103 75
f 1 75 49
f 1 49 31
f 1 31 2
f 2 31 32
f 2 32 3
f 3 33 34
f 3 34 4
f 3 32 35
f 3 35 33
f 4 36 37
f 4 37 38
f 4 38 7
f 4 7 6
f 4 6 5
f 4 34 39
f 4 39 36
f 7 38 40
f 7 40 41
f 7 41 8
f 8 41 9
f 9 41 42
f 9 42 10
f 10 42 11
f 11 42 12
f 12 42 13
f 13 42 14
f 14 42 15
f 15 42 16
f 16 42 17
f 17 42 18
f 18 42 43
f 18 43 44
f 18 44 19
f 19 44 20
f 20 44 21
f 21 44 22
f 22 44 23
f 23 44 45
f 23 45 24
f 24 45 25
f 25 45 26
f 26 45 28
f 26 28 27
f 28 45 46
f 28 46 64
f 28 64 94
f 28 94 121
f 28 121 169
f 28 169 158
f 28 158 152
f 28 152 170
f 28 170 122
f 28 122 95
f 28 95 65
f 28 65 47
f 28 47 29
f 30 47 48
f 31 49 32
f 32 49 50
f 32 50 35
f 33 51 34
f 33 35 52
f 33 52 51
f 34 53 39
f 34 51 53
f 35 50 54
f 35 54 52
f 36 55 56
f 36 56 37
f 36 39 53
f 36 53 55
f 37 57 58
f 37 58 59
f 37 59 60
f 37 60 42
f 37 42 41
f 37 41 40
f 37 40 38
f 37 56 57
f 42 60 61
f 42 61 43
f 43 61 62
f 43 62 44
f 44 62 63
f 44 63 45
f 45 63 64
f 45 64 46
f 47 65 66
f 47 66 67
f 47 67 68
f 47 68 69
f 47 69 70
f 47 70 71
f 47 71 72
f 47 72 73
f 47 73 48
f 48 73 72
f 48 72 71
f 48 71 70
f 48 70 69
f 48 69 68
f 48 68 67
f 48 67 66
f 48 66 98
f 48 98 97
f 48 97 96
f 48 96 126
f 48 126 125
f 48 125 124
f 48 124 123
f 48 123 171
f 48 171 180
f 48 180 177
f 48 177 151
f 48 151 110
f 48 110 150
f 48 150 149
f 48 149 176
f 48 176 182
f 48 182 181
f 48 181 172
f 48 172 133
f 48 133 102
f 48 102 74
f 49 75 76
f 49 76 50
f 50 76 77
f 50 77 78
f 50 78 54
f 51 79 80
f 51 80 53
f 51 52 79
f 52 54 81
f 52 81 79
f 53 80 82
f 53 82 83
f 53 83 55
f 54 78 84
f 54 84 81
f 55 83 85
f 55 85 86
f 55 86 56
f 56 86 85
f 56 85 57
f 57 85 58
f 58 87 59
f 58 85 87
f 59 87 60
f 60 87 88
f 60 88 61
f 61 88 89
f 61 89 90
f 61 90 91
f 61 91 62
f 62 91 92
f 62 92 93
f 62 93 94
f 62 94 63
f 63 94 64
f 65 95 96
f 65 96 97
f 65 97 98
f 65 98 66
f 74 99 100
f 74 100 101
f 74 102 99
f 75 103 76
f 76 104 77
f 76 103 104
f 77 104 105
f 77 105 106
f 77 106 78
f 78 106 107
f 78 107 84
f 79 82 80
f 79 81 108
f 79 108 109
f 79 109 110
f 79 110 82
f 81 84 111
f 81 111 108
f 82 112 83
f 82 110 113
f 82 113 157
f 82 157 112
f 83 112 114
f 83 114 115
f 83 115 116
f 83 116 85
f 84 107 117
f 84 117 111
f 85 116 88
f 85 88 87
f 88 116 90
f 88 90 89
f 90 92 91
f 90 116 118
f 90 118 119
f 90 119 92
f 92 119 93
f 93 119 118
f 93 118 120
f 93 120 121
f 93 121 94
f 95 122 123
f 95 123 124
f 95 124 125
f 95 125 126
f 95 126 96
f 99 102 133
f 99 133 127
f 99 127 128
f 99 128 100
f 100 128 106
f 100 106 105
f 100 105 129
f 100 129 130
f 100 130 131
f 100 131 132
f 100 132 101
f 103 134 105
f 103 105 104
f 105 134 135
f 105 135 136
f 105 136 137
f 105 137 138
f 105 138 139
f 105 139 129
f 106 128 140
f 106 140 141
f 106 141 107
f 107 141 142
f 107 142 143
f 107 143 144
f 107 144 145
f 107 145 146
f 107 146 117
f 108 111 109
f 109 111 117
f 109 117 146
f 109 146 147
f 109 147 148
f 109 148 149
f 109 149 150
f 109 150 110
f 110 151 152
f 110 152 153
f 110 153 154
f 110 154 155
f 110 155 156
f 110 156 113
f 112 157 154
f 112 154 114
f 113 156 157
f 114 153 158
f 114 158 159
f 114 159 160
f 114 160 161
f 114 161 115
f 114 154 153
f 115 161 162
f 115 162 116
f 116 162 163
f 116 163 164
f 116 164 165
f 116 165 118
f 118 166 120
f 118 165 166
f 120 167 121
f 120 166 168
f 120 168 167
f 121 167 168
f 121 168 169
f 122 170 171
f 122 171 123
f 127 133 128
f 128 133 172
f 128 172 173
f 128 173 174
f 128 174 175
f 128 175 142
f 128 142 140
f 140 142 141
f 142 175 174
f 142 174 147
f 142 147 144
f 142 144 143
f 144 147 145
f 145 147 146
f 147 174 176
f 147 176 148
f 148 176 149
f 151 177 152
f 152 158 153
f 152 177 170
f 154 157 156
f 154 156 155
f 158 169 178
f 158 178 159
f 159 178 166
f 159 166 160
f 160 166 179
f 160 179 164
f 160 164 163
f 160 163 161
f 161 163 162
f 164 179 165
f 165 179 166
f 166 178 169
f 166 169 168
f 170 177 180
f 170 180 171
f 172 181 173
f 173 181 174
f 174 181 182
f 174 182 176

