# https://github.com/mikedh/trimesh
v -0.01684596 -0.02093442 -0.00216072
v -0.01684596 -0.02093442 -0.02913480
v -0.01684596 -0.01978237 -0.00294490
v -0.01684907 -0.02415783 0.00010044
v -0.01684907 -0.03574913 0.00740164
v -0.01684907 -0.03865137 0.00740164
v -0.02810942 -0.00999429 -0.02890640
v -0.01684596 -0.02091380 -0.02911957
v -0.01684907 -0.03804735 -0.02468861
v -0.01684907 -0.03801199 -0.02586106
v -0.01684907 -0.03797074 -0.02703352
v -0.01684907 -0.03764958 -0.03419006
v -0.01684907 -0.03760833 -0.03460879
v -0.01684907 -0.03742270 -0.03523309
v -0.01684907 -0.03740797 -0.03527877
v -0.01684907 -0.03197474 -0.03527877
v -0.01684907 -0.02904892 -0.03459357
v -0.01684907 -0.02887508 -0.03454027
v -0.01684907 -0.02766704 -0.03403018
v -0.01684907 -0.02760222 -0.03399973
v -0.01684907 -0.02703650 -0.03361906
v -0.01684596 -0.01918424 -0.00339409
v -0.02517247 -0.03222518 0.04003242
v -0.02517247 -0.03585815 0.04211848
v -0.02517247 -0.03703083 0.04225552
v -0.02517247 -0.03819762 0.04187485
v -0.02517247 -0.03911102 0.04156271
v -0.02517247 -0.03969736 0.04110591
v -0.02517247 -0.04008923 0.04051968
v -0.02517247 -0.04008923 0.04019230
v -0.02743572 -0.00999429 -0.02841153
v -0.01684596 -0.02041880 -0.02873891
v -0.03156793 -0.00999429 -0.03128937
v -0.04117974 -0.00998840 0.03736775
v -0.01726198 -0.03753172 -0.03419006
v -0.02577787 -0.03997138 0.04026083
v -0.02022686 -0.03654172 -0.03495139
v -0.01931101 -0.03692770 -0.03419006
v -0.02041624 -0.03660065 -0.03419006
v -0.01897571 -0.03672440 -0.03527877
v -0.02303962 -0.02414015 -0.03527877
v -0.03215159 -0.00999429 -0.03166243
v -0.01684596 -0.01909585 -0.00347783
v -0.02517247 -0.03152393 0.03940052
v -0.04312011 -0.00998840 0.04168452
v -0.04392730 -0.00998840 0.04206519
v -0.04393352 -0.01006206 0.04208041
v -0.04510395 -0.00998840 0.04224791
v -0.02634911 -0.03585815 0.04228598
v -0.02517558 -0.03703083 0.04225552
v -0.02517558 -0.03819762 0.04187485
v -0.02639258 -0.03828307 0.04164645
v -0.02602934 -0.03891066 0.04148657
v -0.02517558 -0.03969736 0.04110591
v -0.02577787 -0.03997138 0.04029889
v -0.02675581 -0.00999429 -0.02789383
v -0.01684596 -0.02032451 -0.02865516
v -0.04287174 -0.00998840 0.03735253
v -0.04134739 -0.00998840 0.03828897
v -0.02025791 -0.00999429 -0.01189058
v -0.02018029 -0.00999429 -0.01308587
v -0.02018029 -0.00999429 -0.01316200
v -0.02031069 -0.00999429 -0.01659562
v -0.02047212 -0.00999429 -0.01770717
v -0.02050627 -0.00999429 -0.01785182
v -0.02090987 -0.00999429 -0.01875781
v -0.02097196 -0.00999429 -0.01886440
v -0.02216102 -0.00999429 -0.02084387
v -0.02248079 -0.00999429 -0.02136158
v -0.02316381 -0.00999429 -0.02245028
v -0.02627460 -0.00999429 -0.02726192
v -0.03880784 -0.00999429 -0.03527877
v -0.02810942 -0.03879280 0.04026844
v -0.02165808 -0.03609975 -0.03419006
v -0.02100301 -0.03642092 -0.03419006
v -0.02252426 -0.03543975 -0.03499707
v -0.02049696 -0.03620288 -0.03527877
v -0.01931101 -0.03661538 -0.03527877
v -0.01684596 -0.01859495 -0.00398031
v -0.04137533 -0.00998840 0.03843362
v -0.04196210 -0.00998840 0.03966699
v -0.04248988 -0.00998840 0.04067195
v -0.04255508 -0.00998840 0.04078615
v -0.01684596 -0.01682119 -0.00611205
v -0.01684596 -0.01592253 -0.00719314
v -0.04627748 -0.00998840 0.04232404
v -0.04627748 -0.01123474 0.04239256
v -0.04510395 -0.01475279 0.04245347
v -0.04393352 -0.01709816 0.04247631
v -0.04393352 -0.01827379 0.04249915
v -0.02869618 -0.03468546 0.04227836
v -0.02752265 -0.03585815 0.04223268
v -0.02634911 -0.03703083 0.04207280
v -0.02752265 -0.03795601 0.04156271
v -0.02823049 -0.03774092 0.04148657
v -0.02681170 -0.03872208 0.04137237
v -0.02810942 -0.03879280 0.04028366
v -0.02752265 -0.03854235 0.04110591
v -0.01684596 -0.01908406 -0.02723908
v -0.01684596 -0.01970576 -0.02806893
v -0.04409495 -0.00998840 0.03735253
v -0.02064598 -0.00999429 -0.01068767
v -0.01684596 -0.01529788 -0.00839605
v -0.01684596 -0.01498556 -0.00962180
v -0.01684596 -0.01398083 -0.01441059
v -0.01684596 -0.01383350 -0.01542317
v -0.01684596 -0.01383056 -0.01558305
v -0.01684596 -0.01383350 -0.01661846
v -0.01684596 -0.01383645 -0.01664892
v -0.01684596 -0.01403975 -0.01745593
v -0.01684596 -0.01462609 -0.01890247
v -0.01684596 -0.01561021 -0.02087432
v -0.01684596 -0.01413993 -0.01776046
v -0.01684596 -0.01660316 -0.02286140
v -0.01684596 -0.01697441 -0.02359229
v -0.01684596 -0.01705986 -0.02375978
v -0.01684596 -0.01751655 -0.02461247
v -0.01684596 -0.01782593 -0.02515302
v -0.04246815 -0.00999429 -0.03527877
v -0.03403297 -0.03415216 0.04018469
v -0.02850680 -0.03206902 -0.03301760
v -0.02765615 -0.03265536 -0.03301760
v -0.02269191 -0.03553698 -0.03419006
v -0.02701970 -0.03297358 -0.03371803
v -0.02463538 -0.03412858 -0.03481435
v -0.02276952 -0.03501546 -0.03527877
v -0.02185056 -0.03556645 -0.03527877
v -0.02150285 -0.00999429 -0.00856355
v -0.04745412 -0.00998840 0.04216416
v -0.04627748 -0.01240743 0.04241540
v -0.04510395 -0.01592547 0.04241540
v -0.04393352 -0.01944353 0.04229359
v -0.04275998 -0.02061326 0.04241540
v -0.03221368 -0.03233715 0.04216416
v -0.02986662 -0.03468546 0.04209564
v -0.02869618 -0.03585815 0.04201951
v -0.02752265 -0.03703083 0.04186724
v -0.03783920 -0.02965883 0.04160839
v -0.02900975 -0.03736967 0.04122772
v -0.02856269 -0.03812396 0.04075569
v -0.02942266 -0.03772619 0.04045116
v -0.03403297 -0.03415216 0.04032173
v -0.04751311 -0.00998840 0.03936245
v -0.04286864 -0.00999429 -0.03419006
v -0.04835134 -0.00998840 0.03988777
v -0.04245883 -0.01009742 -0.03527877
v -0.03524687 -0.03302662 0.04009333
v -0.02909357 -0.03157697 -0.03301760
v -0.02836710 -0.03196295 -0.03392359
v -0.02801628 -0.03167715 -0.03470015
v -0.02593931 -0.03305608 -0.03491333
v -0.02655402 -0.03224876 -0.03527877
v -0.02497999 -0.03342438 -0.03527877
v -0.02400204 -0.03414037 -0.03527877
v -0.02340596 -0.03456761 -0.03527877
v -0.04745412 -0.01006206 0.04216416
v -0.04824579 -0.00998840 0.04171497
v -0.04627748 -0.01358011 0.04228598
v -0.04602290 -0.01592547 0.04190531
v -0.04495803 -0.01827379 0.04197383
v -0.04469724 -0.01944353 0.04176066
v -0.04395214 -0.02053666 0.04189008
v -0.04357028 -0.02159148 0.04176066
v -0.04257681 -0.02295863 0.04182156
v -0.04005278 -0.02742543 0.04163123
v -0.03934182 -0.02774659 0.04176066
v -0.04041601 -0.02529810 0.04200428
v -0.03572808 -0.02999768 0.04200428
v -0.03816518 -0.02892517 0.04175304
v -0.03901895 -0.02859517 0.04161600
v -0.03524687 -0.03302662 0.04036741
v -0.03072348 -0.03665368 0.04051207
v -0.04288416 -0.00999429 -0.03413677
v -0.04836997 -0.00998840 0.03994868
v -0.04285933 -0.01006501 -0.03419006
v -0.04235017 -0.01083108 -0.03527877
v -0.03642662 -0.03188045 0.04015424
v -0.02970207 -0.03099062 -0.03301760
v -0.03369458 -0.02681257 -0.03419006
v -0.02954684 -0.03084331 -0.03396166
v -0.03291843 -0.02717499 -0.03487526
v -0.03169522 -0.02830053 -0.03483719
v -0.02924880 -0.03055161 -0.03474583
v -0.02864341 -0.03052509 -0.03527877
v -0.02770582 -0.03134125 -0.03527877
v -0.02746987 -0.03152982 -0.03527877
v -0.02724013 -0.03198063 -0.03501230
v -0.04729889 -0.01240743 0.04193576
v -0.04823958 -0.01006206 0.04170736
v -0.04856246 -0.00998840 0.04085467
v -0.04708467 -0.01358011 0.04178349
v -0.04583663 -0.01687128 0.04170736
v -0.04454822 -0.02008290 0.04151703
v -0.04334364 -0.02236639 0.04143328
v -0.04232534 -0.02380131 0.04164645
v -0.04106798 -0.02600230 0.04153225
v -0.04221047 -0.02477953 0.04039025
v -0.03750080 -0.03060169 0.04032935
v -0.03642662 -0.03188045 0.04041309
v -0.04315737 -0.00999429 -0.03297192
v -0.04258923 -0.01123769 -0.03419006
v -0.04232844 -0.01123769 -0.03517218
v -0.04222910 -0.01195957 -0.03494378
v -0.04228498 -0.01123769 -0.03527877
v -0.03750080 -0.03060169 0.04025321
v -0.03438380 -0.02635882 -0.03301760
v -0.03384359 -0.02694516 -0.03301760
v -0.03427203 -0.02622623 -0.03419006
v -0.03410128 -0.02603766 -0.03489810
v -0.03325993 -0.02635882 -0.03527877
v -0.03199326 -0.02753740 -0.03527877
v -0.03059930 -0.02879847 -0.03527877
v -0.02990387 -0.02941723 -0.03527877
v -0.04811540 -0.01092242 0.04158555
v -0.04807193 -0.01194778 0.04018469
v -0.04807193 -0.01194778 0.04048161
v -0.04800363 -0.01170617 0.04125818
v -0.04693255 -0.01433145 0.04157793
v -0.04568140 -0.01765209 0.04135715
v -0.04688598 -0.01538333 0.04034457
v -0.04493630 -0.01944353 0.04085467
v -0.04459169 -0.02017424 0.04085467
v -0.04430917 -0.02076353 0.04085467
v -0.04343678 -0.02255497 0.04064911
v -0.04313253 -0.02294979 0.04096887
v -0.04208628 -0.02458212 0.04117443
v -0.04221047 -0.02477953 0.04021515
v -0.04273514 -0.01123769 -0.03301760
v -0.04228808 -0.01210394 -0.03419006
v -0.04204592 -0.01269028 -0.03419006
v -0.04193726 -0.01230135 -0.03527877
v -0.04124494 -0.01369207 -0.03527877
v -0.04100278 -0.01534503 -0.03361144
v -0.03496746 -0.02564873 -0.03301760
v -0.03485880 -0.02550730 -0.03419006
v -0.03516615 -0.02477069 -0.03482197
v -0.03531517 -0.02403997 -0.03527877
v -0.03445830 -0.02509480 -0.03527877
v -0.04688598 -0.01538333 0.04021515
v -0.04746033 -0.01358011 0.04085467
v -0.04787324 -0.01236618 0.04086228
v -0.04677421 -0.01511520 0.04112875
v -0.04702879 -0.01473511 0.04078615
v -0.04458858 -0.02017130 0.04010095
v -0.04343678 -0.02255497 0.04004765
v -0.04006520 -0.01811468 -0.03067270
v -0.03973300 -0.01870102 -0.03067270
v -0.03917728 -0.01944353 -0.03184515
v -0.03870228 -0.02009763 -0.03253796
v -0.03633037 -0.02358033 -0.03364190
v -0.03537105 -0.02506239 -0.03301760
v -0.04234086 -0.01224537 -0.03301760
v -0.04133497 -0.01475574 -0.03301760
v -0.04181308 -0.01358306 -0.03301760
v -0.04211112 -0.01283171 -0.03301760
v -0.04104625 -0.01544815 -0.03301760
v -0.03655390 -0.02190675 -0.03527877
v -0.04106487 -0.01427547 -0.03492094
v -0.03992859 -0.01785834 -0.03265978
v -0.04001242 -0.01802334 -0.03184515
v -0.04045637 -0.01709816 -0.03184515
v -0.03526860 -0.02492390 -0.03419006
v -0.03600439 -0.02285550 -0.03527877
v -0.04085376 -0.01614351 -0.03184515
v -0.03968333 -0.01860968 -0.03184515
f 1 2 8
f 1 8 32
f 1 32 57
f 1 57 100
f 1 100 99
f 1 99 118
f 1 118 117
f 1 117 116
f 1 116 115
f 1 115 114
f 1 114 112
f 1 112 111
f 1 111 113
f 1 113 110
f 1 110 109
f 1 109 108
f 1 108 107
f 1 107 106
f 1 106 105
f 1 105 104
f 1 104 103
f 1 103 85
f 1 85 84
f 1 84 79
f 1 79 43
f 1 43 22
f 1 22 3
f 1 3 4
f 1 4 5
f 1 5 6
f 1 6 2
f 2 7 8
f 2 6 9
f 2 9 10
f 2 10 11
f 2 11 12
f 2 12 13
f 2 13 14
f 2 14 15
f 2 15 16
f 2 16 17
f 2 17 18
f 2 18 19
f 2 19 20
f 2 20 21
f 2 21 7
f 3 22 23
f 3 23 4
f 4 23 5
f 5 23 24
f 5 24 25
f 5 25 6
f 6 25 26
f 6 26 27
f 6 27 28
f 6 28 29
f 6 29 30
f 6 30 9
f 7 31 32
f 7 32 8
f 7 21 33
f 7 33 34
f 7 34 31
f 9 30 10
f 10 30 11
f 11 30 12
f 12 35 13
f 12 30 36
f 12 36 35
f 13 37 14
f 13 35 38
f 13 38 39
f 13 39 37
f 14 37 15
f 15 37 40
f 15 40 78
f 15 78 77
f 15 77 127
f 15 127 126
f 15 126 155
f 15 155 154
f 15 154 153
f 15 153 152
f 15 152 186
f 15 186 185
f 15 185 184
f 15 184 213
f 15 213 212
f 15 212 211
f 15 211 210
f 15 210 238
f 15 238 237
f 15 237 263
f 15 263 257
f 15 257 232
f 15 232 231
f 15 231 204
f 15 204 176
f 15 176 146
f 15 146 119
f 15 119 72
f 15 72 41
f 15 41 16
f 16 41 17
f 17 41 18
f 18 41 19
f 19 41 20
f 20 41 42
f 20 42 21
f 21 42 33
f 22 43 44
f 22 44 23
f 23 44 45
f 23 45 24
f 24 45 46
f 24 46 47
f 24 47 25
f 25 47 48
f 25 48 49
f 25 49 50
f 25 50 51
f 25 51 26
f 26 51 27
f 27 51 52
f 27 52 53
f 27 53 54
f 27 54 28
f 28 54 29
f 29 54 55
f 29 55 36
f 29 36 30
f 31 34 56
f 31 56 32
f 32 56 57
f 33 42 34
f 34 58 101
f 34 101 143
f 34 143 145
f 34 145 174
f 34 174 190
f 34 190 157
f 34 157 129
f 34 129 86
f 34 86 48
f 34 48 46
f 34 46 45
f 34 45 83
f 34 83 82
f 34 82 81
f 34 81 80
f 34 80 59
f 34 59 60
f 34 60 61
f 34 61 62
f 34 62 63
f 34 63 64
f 34 64 65
f 34 65 66
f 34 66 67
f 34 67 68
f 34 68 69
f 34 69 70
f 34 70 71
f 34 71 56
f 34 42 72
f 34 72 58
f 35 36 38
f 36 55 97
f 36 97 73
f 36 73 74
f 36 74 75
f 36 75 39
f 36 39 38
f 37 76 77
f 37 77 78
f 37 78 40
f 37 39 75
f 37 75 76
f 41 72 42
f 43 79 44
f 44 80 81
f 44 81 82
f 44 82 83
f 44 83 45
f 44 79 84
f 44 84 85
f 44 85 80
f 46 48 47
f 48 86 87
f 48 87 49
f 49 87 88
f 49 88 89
f 49 89 90
f 49 90 91
f 49 91 50
f 50 91 92
f 50 92 93
f 50 93 51
f 51 93 52
f 52 94 53
f 52 93 94
f 53 95 96
f 53 96 54
f 53 94 95
f 54 96 55
f 55 96 98
f 55 98 97
f 56 71 99
f 56 99 100
f 56 100 57
f 58 72 119
f 58 119 101
f 59 80 60
f 60 102 103
f 60 103 104
f 60 104 105
f 60 105 106
f 60 106 61
f 60 80 102
f 61 106 107
f 61 107 62
f 62 107 108
f 62 108 63
f 63 108 109
f 63 109 64
f 64 109 110
f 64 110 65
f 65 111 112
f 65 112 66
f 65 110 113
f 65 113 111
f 66 112 114
f 66 114 115
f 66 115 116
f 66 116 117
f 66 117 118
f 66 118 67
f 67 118 68
f 68 118 99
f 68 99 69
f 69 99 70
f 70 99 71
f 73 97 142
f 73 142 120
f 73 120 121
f 73 121 122
f 73 122 123
f 73 123 74
f 74 123 76
f 74 76 75
f 76 123 124
f 76 124 125
f 76 125 126
f 76 126 127
f 76 127 77
f 80 85 103
f 80 103 128
f 80 128 102
f 86 129 87
f 87 130 88
f 87 129 130
f 88 130 90
f 88 90 89
f 90 130 131
f 90 131 132
f 90 132 133
f 90 133 91
f 91 133 134
f 91 134 135
f 91 135 92
f 92 135 136
f 92 136 137
f 92 137 93
f 93 137 94
f 94 137 136
f 94 136 95
f 95 138 139
f 95 139 140
f 95 140 98
f 95 98 96
f 95 136 138
f 97 98 140
f 97 140 141
f 97 141 142
f 101 119 143
f 102 128 103
f 119 144 145
f 119 145 143
f 119 146 144
f 120 142 171
f 120 171 147
f 120 147 148
f 120 148 121
f 121 148 149
f 121 149 124
f 121 124 122
f 122 124 123
f 124 149 125
f 125 150 151
f 125 151 152
f 125 152 153
f 125 153 154
f 125 154 155
f 125 155 126
f 125 149 150
f 129 156 130
f 129 157 156
f 130 156 158
f 130 158 131
f 131 158 132
f 132 158 159
f 132 159 160
f 132 160 161
f 132 161 162
f 132 162 163
f 132 163 164
f 132 164 165
f 132 165 133
f 133 165 166
f 133 166 167
f 133 167 168
f 133 168 134
f 134 168 135
f 135 168 169
f 135 169 138
f 135 138 136
f 138 169 170
f 138 170 171
f 138 171 142
f 138 142 139
f 139 142 172
f 139 172 141
f 139 141 140
f 141 172 142
f 144 173 174
f 144 174 145
f 144 146 175
f 144 175 173
f 146 176 175
f 147 171 199
f 147 199 177
f 147 177 178
f 147 178 148
f 148 178 179
f 148 179 180
f 148 180 149
f 149 180 181
f 149 181 182
f 149 182 183
f 149 183 150
f 150 183 184
f 150 184 185
f 150 185 186
f 150 186 187
f 150 187 151
f 151 187 152
f 152 187 186
f 156 157 188
f 156 188 158
f 157 189 188
f 157 190 189
f 158 188 159
f 159 191 192
f 159 192 161
f 159 161 160
f 159 188 191
f 161 192 193
f 161 193 163
f 161 163 162
f 163 193 194
f 163 194 195
f 163 195 165
f 163 165 164
f 165 195 196
f 165 196 197
f 165 197 198
f 165 198 199
f 165 199 170
f 165 170 166
f 166 170 169
f 166 169 168
f 166 168 167
f 170 199 171
f 173 200 174
f 173 175 200
f 174 200 190
f 175 201 200
f 175 176 202
f 175 202 203
f 175 203 201
f 176 204 202
f 177 199 198
f 177 198 205
f 177 205 206
f 177 206 207
f 177 207 178
f 178 207 179
f 179 208 209
f 179 209 181
f 179 181 180
f 179 207 208
f 181 209 210
f 181 210 211
f 181 211 212
f 181 212 213
f 181 213 182
f 182 213 183
f 183 213 184
f 188 189 214
f 188 214 191
f 189 190 214
f 190 215 216
f 190 216 217
f 190 217 214
f 190 200 215
f 191 214 218
f 191 218 192
f 192 218 219
f 192 219 193
f 193 219 220
f 193 220 221
f 193 221 222
f 193 222 223
f 193 223 224
f 193 224 194
f 194 196 195
f 194 224 225
f 194 225 197
f 194 197 226
f 194 226 196
f 196 226 197
f 197 225 224
f 197 224 245
f 197 245 227
f 197 227 205
f 197 205 198
f 200 201 228
f 200 228 215
f 201 229 228
f 201 203 229
f 202 204 203
f 203 230 229
f 203 204 231
f 203 231 232
f 203 232 233
f 203 233 230
f 205 227 234
f 205 234 206
f 206 234 208
f 206 208 207
f 208 234 235
f 208 235 209
f 209 235 236
f 209 236 237
f 209 237 238
f 209 238 210
f 214 217 218
f 215 239 220
f 215 220 216
f 215 228 239
f 216 220 240
f 216 240 241
f 216 241 217
f 217 241 240
f 217 240 218
f 218 240 242
f 218 242 219
f 219 242 243
f 219 243 220
f 220 222 221
f 220 243 240
f 220 239 222
f 222 239 223
f 223 239 244
f 223 244 245
f 223 245 224
f 227 245 246
f 227 246 247
f 227 247 248
f 227 248 249
f 227 249 250
f 227 250 251
f 227 251 234
f 228 229 252
f 228 252 239
f 229 230 253
f 229 253 254
f 229 254 255
f 229 255 252
f 230 233 256
f 230 256 253
f 232 257 236
f 232 236 258
f 232 258 233
f 233 250 259
f 233 259 260
f 233 260 261
f 233 261 256
f 233 258 250
f 234 251 250
f 234 250 235
f 235 250 262
f 235 262 236
f 236 262 250
f 236 250 258
f 236 257 263
f 236 263 237
f 239 252 255
f 239 255 254
f 239 254 253
f 239 253 264
f 239 264 261
f 239 261 246
f 239 246 244
f 240 243 242
f 244 246 245
f 246 261 260
f 246 260 265
f 246 265 247
f 247 265 248
f 248 265 249
f 249 265 260
f 249 260 259
f 249 259 250
f 253 256 261
f 253 261 264

