# https://github.com/mikedh/trimesh
v 0.04284610 0.00283645 -0.02019691
v 0.04284610 -0.00747135 -0.02048420
v 0.04284610 0.00348839 -0.02061273
v 0.03786324 0.00401399 0.00232517
v 0.03792317 0.00284113 0.00232517
v 0.04284610 -0.00789870 -0.02130071
v 0.03782729 0.00166826 0.00232517
v 0.03688645 -0.00770998 0.00232517
v 0.03676360 -0.00888597 0.00232517
v 0.03654787 -0.00995433 0.00232517
v 0.03653588 -0.00999644 0.00232517
v 0.04284610 0.00404363 -0.02129315
v 0.03755463 0.00593706 0.00232517
v 0.03756661 0.00586843 0.00232517
v 0.03766249 0.00527420 0.00232517
v 0.03627520 -0.00999644 -0.02246122
v 0.03625722 -0.00999644 -0.02363684
v 0.03622427 -0.00999644 -0.02480869
v 0.03619430 -0.00999644 -0.02585200
v 0.03617033 -0.00999644 -0.02647195
v 0.03614037 -0.00999644 -0.02715237
v 0.03604748 -0.00999644 -0.02833178
v 0.03590666 -0.00999644 -0.02956410
v 0.03534635 -0.00999644 -0.03413051
v 0.03531339 -0.00999644 -0.03434976
v 0.03506769 -0.00999644 -0.03524187
v 0.04284610 -0.00755401 -0.02234025
v 0.03298526 -0.00999644 0.00232517
v 0.04284610 0.00456612 -0.02217015
v 0.03489990 0.00593706 0.00232517
v 0.04284610 0.00470492 -0.02275985
v 0.03809995 0.00593706 -0.02363684
v 0.03499278 -0.00999644 -0.03537796
v 0.04284610 -0.00380615 -0.02558361
v 0.04284610 -0.00688492 -0.02292618
v 0.02994700 -0.00999644 0.00186777
v 0.02810128 0.00593706 0.00042754
v 0.02649226 -0.00999644 0.00104748
v 0.02760090 -0.00999644 0.00134233
v 0.02894624 -0.00999644 0.00167499
v 0.04284610 0.00470492 -0.02315676
v 0.03545721 0.00593706 -0.03629275
v 0.03510365 -0.00888597 -0.03575220
v 0.03437255 -0.00999644 -0.03619447
v 0.03519354 -0.00818412 -0.03590718
v 0.03638607 -0.00355660 -0.03593364
v 0.03646697 -0.00277521 -0.03601302
v 0.04284610 -0.00302008 -0.02576128
v 0.02371768 0.00593706 -0.00081991
v 0.02543457 -0.00999644 0.00071105
v 0.04284610 0.00401244 -0.02349697
v 0.03644899 0.00022402 -0.03602058
v 0.03559504 0.00493731 -0.03629275
v 0.02974026 0.00593706 -0.03629275
v 0.04284610 0.00280838 -0.02397705
v 0.04284610 0.00219543 -0.02421142
v 0.04284610 0.00163239 -0.02441177
v 0.04284610 0.00049540 -0.02479734
v 0.04284610 -0.00187685 -0.02556849
v 0.04284610 -0.00190180 -0.02557605
v 0.03424371 -0.00999644 -0.03629275
v 0.03449540 -0.00903881 -0.03629275
v 0.03484896 -0.00768659 -0.03629275
v 0.03528942 -0.00740117 -0.03600924
v 0.03544822 -0.00536737 -0.03629275
v 0.03567894 -0.00445029 -0.03629275
v 0.03573886 -0.00419138 -0.03629275
v 0.03598756 -0.00306687 -0.03629275
v 0.03610741 -0.00226364 -0.03629275
v 0.03615835 -0.00185033 -0.03629275
v 0.03650892 -0.00185033 -0.03605838
v 0.03649693 -0.00067747 -0.03605838
v 0.02334614 0.00593706 -0.00105050
v 0.02075134 -0.00999644 -0.00104672
v 0.02118580 -0.00999644 -0.00078589
v 0.02170416 -0.00999644 -0.00059688
v 0.02460159 -0.00999644 0.00042754
v 0.02516490 -0.00999644 0.00062033
v 0.03612539 0.00012576 -0.03629275
v 0.02768479 -0.00069930 -0.03629275
v 0.02307048 0.00593706 -0.02935998
v 0.03015974 -0.00999644 -0.03629275
v 0.03618531 -0.00130445 -0.03629275
v 0.03618232 -0.00067747 -0.03629275
v 0.02288171 0.00593706 -0.00134157
v 0.02069141 -0.00999644 -0.00108830
v 0.02757693 -0.00185033 -0.03629275
v 0.02087419 -0.00999644 -0.03038440
v 0.01707787 -0.00999644 -0.02595785
v 0.02248620 0.00593706 -0.02872113
v 0.02835297 -0.00552178 -0.03629275
v 0.02488325 -0.00999644 -0.03350301
v 0.02224050 0.00593706 -0.00185567
v 0.01982248 -0.00999644 -0.00173092
v 0.02148543 -0.00999644 -0.03094007
v 0.02769378 -0.00297641 -0.03629275
v 0.02297759 -0.00999644 -0.03213460
v 0.01693704 -0.00999644 -0.02577640
v 0.02097906 0.00593706 -0.02679704
v 0.02202177 0.00593706 -0.02813521
v 0.02808630 -0.00460469 -0.03629275
v 0.02394240 -0.00999644 -0.03286417
v 0.02787955 -0.00382954 -0.03629275
v 0.01827040 0.00593706 -0.00608186
v 0.01909438 -0.00999644 -0.00252475
v 0.01630482 -0.00999644 -0.02489185
v 0.02055059 0.00593706 -0.02619222
v 0.01768612 0.00593706 -0.00674339
v 0.01532503 -0.00999644 -0.00668291
v 0.01497446 -0.00999644 -0.02253304
v 0.02001125 0.00593706 -0.02534547
v 0.01766814 0.00593706 -0.00678875
v 0.01260438 -0.00999644 -0.01079570
v 0.01262236 -0.00999644 -0.01075790
v 0.01333248 -0.00999644 -0.00954447
v 0.01402463 -0.00999644 -0.00836507
v 0.01423138 -0.00999644 -0.00802864
v 0.01484262 -0.00999644 -0.00724615
v 0.01495349 -0.00999644 -0.00710628
v 0.01433025 -0.00999644 -0.02134985
v 0.01809661 0.00593706 -0.02192822
v 0.01876778 0.00593706 -0.02313030
v 0.01746739 0.00593706 -0.00731041
v 0.01225681 -0.00999644 -0.01174074
v 0.01706588 0.00593706 -0.00839909
v 0.01377893 -0.00999644 -0.02016289
v 0.01753630 0.00593706 -0.02088490
v 0.01223584 -0.00999644 -0.01187682
v 0.01626287 0.00593706 -0.01081082
v 0.01619995 0.00593706 -0.01101117
v 0.01593927 0.00593706 -0.01188438
v 0.01350627 -0.00999644 -0.01894190
v 0.01728162 0.00593706 -0.02011375
v 0.01738049 0.00593706 -0.02050310
v 0.01590931 0.00593706 -0.01234556
v 0.01590331 0.00593706 -0.01309403
v 0.01229576 -0.00999644 -0.01290880
v 0.01231973 -0.00999644 -0.01310159
v 0.01713779 0.00593706 -0.01944088
f 1 2 6
f 1 6 27
f 1 27 35
f 1 35 34
f 1 34 48
f 1 48 60
f 1 60 59
f 1 59 58
f 1 58 57
f 1 57 56
f 1 56 55
f 1 55 51
f 1 51 41
f 1 41 31
f 1 31 29
f 1 29 12
f 1 12 3
f 1 3 4
f 1 4 5
f 1 5 2
f 2 5 7
f 2 7 8
f 2 8 9
f 2 9 10
f 2 10 11
f 2 11 6
f 3 12 13
f 3 13 14
f 3 14 15
f 3 15 4
f 4 15 14
f 4 14 13
f 4 13 30
f 4 30 28
f 4 28 11
f 4 11 10
f 4 10 9
f 4 9 8
f 4 8 7
f 4 7 5
f 6 16 17
f 6 17 18
f 6 18 19
f 6 19 20
f 6 20 21
f 6 21 22
f 6 22 23
f 6 23 24
f 6 24 25
f 6 25 26
f 6 26 27
f 6 11 16
f 11 28 36
f 11 36 40
f 11 40 39
f 11 39 38
f 11 38 50
f 11 50 78
f 11 78 77
f 11 77 76
f 11 76 75
f 11 75 74
f 11 74 86
f 11 86 94
f 11 94 105
f 11 105 109
f 11 109 119
f 11 119 118
f 11 118 117
f 11 117 116
f 11 116 115
f 11 115 114
f 11 114 113
f 11 113 124
f 11 124 128
f 11 128 137
f 11 137 138
f 11 138 132
f 11 132 126
f 11 126 120
f 11 120 110
f 11 110 106
f 11 106 98
f 11 98 89
f 11 89 88
f 11 88 95
f 11 95 97
f 11 97 102
f 11 102 92
f 11 92 82
f 11 82 61
f 11 61 44
f 11 44 33
f 11 33 26
f 11 26 25
f 11 25 24
f 11 24 23
f 11 23 22
f 11 22 21
f 11 21 20
f 11 20 19
f 11 19 18
f 11 18 17
f 11 17 16
f 12 29 13
f 13 29 31
f 13 31 32
f 13 32 42
f 13 42 54
f 13 54 81
f 13 81 90
f 13 90 100
f 13 100 99
f 13 99 107
f 13 107 111
f 13 111 122
f 13 122 121
f 13 121 127
f 13 127 134
f 13 134 133
f 13 133 139
f 13 139 136
f 13 136 135
f 13 135 131
f 13 131 130
f 13 130 129
f 13 129 125
f 13 125 123
f 13 123 112
f 13 112 108
f 13 108 104
f 13 104 93
f 13 93 85
f 13 85 73
f 13 73 49
f 13 49 37
f 13 37 30
f 26 33 34
f 26 34 35
f 26 35 27
f 28 30 36
f 30 37 38
f 30 38 39
f 30 39 40
f 30 40 36
f 31 41 32
f 32 41 42
f 33 43 34
f 33 44 43
f 34 43 45
f 34 45 46
f 34 46 47
f 34 47 48
f 37 49 38
f 38 49 50
f 41 51 42
f 42 52 53
f 42 53 79
f 42 79 84
f 42 84 83
f 42 83 70
f 42 70 69
f 42 69 68
f 42 68 67
f 42 67 66
f 42 66 65
f 42 65 63
f 42 63 62
f 42 62 61
f 42 61 82
f 42 82 91
f 42 91 101
f 42 101 103
f 42 103 96
f 42 96 87
f 42 87 80
f 42 80 54
f 42 51 55
f 42 55 56
f 42 56 57
f 42 57 58
f 42 58 59
f 42 59 60
f 42 60 52
f 43 44 45
f 44 61 62
f 44 62 63
f 44 63 64
f 44 64 45
f 45 64 46
f 46 64 63
f 46 63 65
f 46 65 66
f 46 66 47
f 47 66 67
f 47 67 68
f 47 68 69
f 47 69 70
f 47 70 71
f 47 71 48
f 48 71 72
f 48 72 52
f 48 52 60
f 49 73 74
f 49 74 75
f 49 75 76
f 49 76 77
f 49 77 78
f 49 78 50
f 52 72 79
f 52 79 53
f 54 80 81
f 70 83 71
f 71 83 84
f 71 84 72
f 72 84 79
f 73 85 74
f 74 85 86
f 80 87 88
f 80 88 89
f 80 89 90
f 80 90 81
f 82 92 91
f 85 93 94
f 85 94 86
f 87 95 88
f 87 96 97
f 87 97 95
f 89 98 99
f 89 99 100
f 89 100 90
f 91 92 101
f 92 102 96
f 92 96 103
f 92 103 101
f 93 104 94
f 94 104 105
f 96 102 97
f 98 106 99
f 99 106 107
f 104 108 109
f 104 109 105
f 106 110 111
f 106 111 107
f 108 112 113
f 108 113 114
f 108 114 115
f 108 115 116
f 108 116 117
f 108 117 118
f 108 118 119
f 108 119 109
f 110 120 121
f 110 121 122
f 110 122 111
f 112 123 113
f 113 123 125
f 113 125 124
f 120 126 127
f 120 127 121
f 124 125 129
f 124 129 130
f 124 130 131
f 124 131 128
f 126 132 133
f 126 133 134
f 126 134 127
f 128 131 135
f 128 135 136
f 128 136 137
f 132 138 139
f 132 139 133
f 136 138 137
f 136 139 138

