# https://github.com/mikedh/trimesh
v 0.04119822 0.00593469 0.02539751
v 0.04466245 0.00577469 0.02503768
v 0.04168143 0.00591315 0.02483449
v 0.04119822 0.00593469 0.02481649
v 0.03870041 0.00593469 0.02668758
v 0.04466245 0.00577469 0.02502816
v 0.05340726 0.00506547 0.02561763
v 0.05457935 0.00503778 0.02444503
v 0.05970135 0.00479009 0.02060019
v 0.03870041 0.00593469 0.02450535
v 0.03870041 0.00532854 0.02897565
v 0.05223270 0.00493009 0.02655530
v 0.05340726 0.00478394 0.02638491
v 0.05451245 0.00480394 0.02557530
v 0.05572171 0.00483163 0.02443550
v 0.05901000 0.00474086 0.02179608
v 0.06009535 0.00475163 0.02067533
v 0.06012509 0.00475317 0.02060019
v 0.05933709 0.00478701 0.02060019
v 0.03870041 0.00518547 0.02428734
v 0.05853174 0.00477163 0.02060019
v 0.05840289 0.00470394 0.02060019
v 0.03870041 0.00501470 0.02998633
v 0.05223270 0.00426702 0.02714160
v 0.05341966 0.00395780 0.02701989
v 0.05451245 0.00403472 0.02655953
v 0.05407632 0.00464240 0.02624839
v 0.05531036 0.00467163 0.02515833
v 0.05654440 0.00469932 0.02403758
v 0.05777596 0.00472394 0.02291683
v 0.05979056 0.00456702 0.02145742
v 0.06001606 0.00356550 0.02293165
v 0.06070494 0.00426548 0.02060019
v 0.03870041 -0.00655278 0.02335815
v 0.05787260 0.00401318 0.02060019
v 0.03870041 0.00401164 0.03062555
v 0.05056254 0.00110708 0.02973763
v 0.05184613 0.00233937 0.02860947
v 0.05304052 0.00353011 0.02744427
v 0.05457935 0.00316858 0.02720192
v 0.05579604 0.00279936 0.02704423
v 0.05575144 0.00363780 0.02640502
v 0.05809562 0.00247936 0.02642406
v 0.05880185 0.00231321 0.02626955
v 0.05722336 0.00327781 0.02595418
v 0.05686901 0.00366857 0.02558483
v 0.05732744 0.00451010 0.02369892
v 0.05855900 0.00453933 0.02257817
v 0.05968896 0.00333166 0.02371479
v 0.05928505 0.00377472 0.02330311
v 0.05992933 0.00232398 0.02516150
v 0.06100973 0.00340396 0.02147965
v 0.06121045 0.00365626 0.02069756
v 0.06122779 0.00369473 0.02060019
v 0.03870041 -0.00688970 0.02335815
v 0.05786764 0.00400087 0.02060019
v 0.05581587 -0.00653894 0.02060019
v 0.05581339 -0.00671124 0.02060019
v 0.03870041 0.00168707 0.03130604
v 0.05081777 0.00049632 0.02978737
v 0.05105566 0.00049632 0.02974080
v 0.05140505 0.00049478 0.02966990
v 0.05421757 0.00120092 0.02862217
v 0.05340726 0.00139784 0.02875446
v 0.05223518 0.00173322 0.02890157
v 0.05105566 0.00157476 0.02930796
v 0.05340726 0.00198399 0.02836712
v 0.05543426 0.00238090 0.02746121
v 0.05621482 0.00219629 0.02733739
v 0.05686901 0.00287013 0.02658493
v 0.05692353 0.00198860 0.02722520
v 0.05804606 0.00160861 0.02701566
v 0.05922310 0.00162246 0.02644629
v 0.05991694 0.00120092 0.02626532
v 0.05958241 0.00198245 0.02594253
v 0.05922310 0.00250090 0.02557742
v 0.05845493 0.00331627 0.02483554
v 0.05807827 0.00307166 0.02558483
v 0.06015978 0.00162246 0.02557742
v 0.06122779 0.00133015 0.02421008
v 0.06091557 0.00211168 0.02364177
v 0.06221404 0.00109631 0.02270940
v 0.06237262 0.00129477 0.02209982
v 0.06210500 0.00213475 0.02132302
v 0.06238749 0.00223475 0.02060019
v 0.03870041 -0.00742969 0.02348408
v 0.05597694 -0.00727123 0.02060019
v 0.05876963 -0.00939581 0.02060019
v 0.03870041 0.00049632 0.03141187
v 0.05084503 -0.00034059 0.02979266
v 0.05105566 -0.00003136 0.02974821
v 0.05223270 -0.00067750 0.02934500
v 0.05223270 0.00049478 0.02940532
v 0.05762232 0.00117631 0.02742099
v 0.05692353 0.00140246 0.02755540
v 0.05991694 0.00089478 0.02626532
v 0.06349515 0.00007633 0.02167332
v 0.06319779 0.00085785 0.02115898
v 0.06333656 0.00103324 0.02060019
v 0.03870041 -0.00768507 0.02444609
v 0.05882167 -0.00943273 0.02060019
v 0.05927514 -0.00972965 0.02060019
v 0.03870041 -0.00012059 0.03134626
v 0.05105566 -0.00058058 0.02968895
v 0.03870041 -0.00536511 0.03042341
v 0.05106309 -0.00185133 0.02933230
v 0.05279768 -0.00359283 0.02854492
v 0.05304548 -0.00281131 0.02864016
v 0.05328089 -0.00185133 0.02873647
v 0.05352373 -0.00079442 0.02882113
v 0.05415810 -0.00048058 0.02861476
v 0.05762232 0.00081632 0.02742099
v 0.05487176 0.00049478 0.02843697
v 0.05428447 0.00049478 0.02865498
v 0.05116717 -0.00070981 0.02963286
v 0.05977321 0.00011325 0.02612351
v 0.05987233 -0.00248055 0.02504932
v 0.06076937 -0.00067750 0.02474453
v 0.06129718 -0.00067750 0.02415823
v 0.06188198 -0.00067750 0.02350631
v 0.06240732 -0.00067750 0.02292001
v 0.06299460 -0.00067750 0.02224904
v 0.06348772 -0.00067750 0.02166274
v 0.05804606 0.00045325 0.02718605
v 0.05933461 0.00050094 0.02653201
v 0.05901991 -0.00067750 0.02644417
v 0.05882662 -0.00159749 0.02631506
v 0.06388420 -0.00067750 0.02092721
v 0.06401305 -0.00067750 0.02060019
v 0.06371321 0.00048094 0.02060019
v 0.06362401 0.00047940 0.02083196
v 0.06350506 0.00079632 0.02060019
v 0.04871396 -0.00868966 0.02561869
v 0.03870041 -0.00757276 0.02561869
v 0.06045714 -0.00977888 0.02060019
v 0.05920080 -0.00971888 0.02101293
v 0.03870041 -0.00605433 0.03020752
v 0.05386817 -0.00706046 0.02735644
v 0.05427208 -0.00627894 0.02747179
v 0.05463139 -0.00534665 0.02756280
v 0.05505513 -0.00572510 0.02733633
v 0.05457935 -0.00419282 0.02780198
v 0.05706230 -0.00185133 0.02719134
v 0.05745878 0.00003325 0.02735432
v 0.05865564 -0.00237747 0.02618065
v 0.05980791 -0.00584049 0.02381322
v 0.05990207 -0.00841890 0.02273268
v 0.05996154 -0.00505742 0.02396561
v 0.06082884 -0.00653894 0.02246176
v 0.06069998 -0.00419282 0.02349467
v 0.05929744 -0.00292977 0.02539433
v 0.06227598 -0.00148210 0.02276761
v 0.06340595 -0.00136518 0.02155161
v 0.05809562 -0.00067750 0.02694793
v 0.05575144 -0.00653894 0.02687279
v 0.05659396 -0.00653894 0.02639655
v 0.05642545 -0.00732969 0.02627590
v 0.05754055 -0.00485281 0.02623040
v 0.06361410 -0.00179441 0.02094838
v 0.06377021 -0.00180979 0.02060019
v 0.06360666 0.00065170 0.02060019
v 0.05845988 -0.00958503 0.02288191
v 0.04988605 -0.00877120 0.02561869
v 0.04670183 -0.00833736 0.02629707
v 0.03870041 -0.00741738 0.02679871
v 0.06079662 -0.00961119 0.02060019
v 0.06045962 -0.00973734 0.02084784
v 0.06008048 -0.00967426 0.02179502
v 0.05929249 -0.00966811 0.02215061
v 0.03870041 -0.00634971 0.03010275
v 0.05308760 -0.00724969 0.02741782
v 0.05457935 -0.00771122 0.02697650
v 0.05463139 -0.00661740 0.02727600
v 0.05567463 -0.00534665 0.02715007
v 0.05523354 -0.00494358 0.02740406
v 0.05597942 -0.00419282 0.02722838
v 0.05737453 -0.00563434 0.02608117
v 0.05881919 -0.00771122 0.02398255
v 0.05869034 -0.00831429 0.02386613
v 0.06003588 -0.00771122 0.02286709
v 0.05969888 -0.00920196 0.02257605
v 0.06023908 -0.00883889 0.02215061
v 0.06069007 -0.00779583 0.02208182
v 0.06115346 -0.00746046 0.02167861
v 0.06222147 -0.00483897 0.02154209
v 0.06096265 -0.00575741 0.02261204
v 0.05718124 -0.00653894 0.02590761
v 0.06214217 -0.00226209 0.02262156
v 0.06327461 -0.00214517 0.02135265
v 0.05580844 -0.00771584 0.02652249
v 0.05623961 -0.00811121 0.02613091
v 0.05694831 -0.00777122 0.02563986
v 0.06350506 -0.00268670 0.02060019
v 0.05891831 -0.00958503 0.02288191
v 0.05457935 -0.00852044 0.02648439
v 0.05105566 -0.00877274 0.02561869
v 0.05340726 -0.00850351 0.02652355
v 0.05223270 -0.00847890 0.02655212
v 0.05105566 -0.00845429 0.02653836
v 0.04988605 -0.00842659 0.02649286
v 0.04754187 -0.00837121 0.02637433
v 0.03870041 -0.00677278 0.02913439
v 0.06116089 -0.00901427 0.02060019
v 0.06088831 -0.00888505 0.02123729
v 0.05545656 -0.00845121 0.02637750
v 0.05747364 -0.00821275 0.02499852
v 0.06100725 -0.00824198 0.02147330
v 0.06254608 -0.00528819 0.02060019
v 0.06121293 -0.00888505 0.02060019
v 0.06140373 -0.00779583 0.02102034
f 1 2 3
f 1 3 4
f 1 4 10
f 1 10 5
f 1 5 2
f 2 6 3
f 2 5 7
f 2 7 8
f 2 8 9
f 2 9 6
f 3 6 9
f 3 9 4
f 4 9 10
f 5 10 20
f 5 20 34
f 5 34 55
f 5 55 86
f 5 86 100
f 5 100 134
f 5 134 165
f 5 165 202
f 5 202 170
f 5 170 137
f 5 137 105
f 5 105 103
f 5 103 89
f 5 89 59
f 5 59 36
f 5 36 23
f 5 23 11
f 5 11 12
f 5 12 7
f 7 12 13
f 7 13 14
f 7 14 15
f 7 15 16
f 7 16 17
f 7 17 8
f 8 17 18
f 8 18 9
f 9 18 33
f 9 33 54
f 9 54 85
f 9 85 99
f 9 99 132
f 9 132 161
f 9 161 130
f 9 130 129
f 9 129 160
f 9 160 193
f 9 193 208
f 9 208 209
f 9 209 203
f 9 203 166
f 9 166 135
f 9 135 102
f 9 102 101
f 9 101 88
f 9 88 87
f 9 87 58
f 9 58 57
f 9 57 56
f 9 56 35
f 9 35 22
f 9 22 21
f 9 21 19
f 9 19 10
f 10 19 21
f 10 21 22
f 10 22 20
f 11 23 12
f 12 23 13
f 13 23 24
f 13 24 25
f 13 25 26
f 13 26 27
f 13 27 14
f 14 27 28
f 14 28 29
f 14 29 30
f 14 30 16
f 14 16 15
f 16 30 31
f 16 31 17
f 17 31 32
f 17 32 33
f 17 33 18
f 20 22 35
f 20 35 34
f 23 36 37
f 23 37 38
f 23 38 24
f 24 38 39
f 24 39 25
f 25 40 41
f 25 41 26
f 25 39 40
f 26 41 27
f 27 41 42
f 27 42 43
f 27 43 44
f 27 44 45
f 27 45 46
f 27 46 28
f 28 46 47
f 28 47 48
f 28 48 29
f 29 48 31
f 29 31 30
f 31 49 32
f 31 48 50
f 31 50 49
f 32 49 51
f 32 51 33
f 33 51 52
f 33 52 53
f 33 53 54
f 34 35 56
f 34 56 57
f 34 57 58
f 34 58 55
f 36 59 37
f 37 59 60
f 37 60 61
f 37 61 62
f 37 62 63
f 37 63 64
f 37 64 65
f 37 65 66
f 37 66 38
f 38 66 65
f 38 65 39
f 39 65 67
f 39 67 40
f 40 67 68
f 40 68 69
f 40 69 41
f 41 69 43
f 41 43 70
f 41 70 42
f 42 70 43
f 43 69 71
f 43 71 44
f 44 71 72
f 44 72 73
f 44 73 74
f 44 74 75
f 44 75 51
f 44 51 76
f 44 76 77
f 44 77 78
f 44 78 45
f 45 78 46
f 46 78 77
f 46 77 47
f 47 77 50
f 47 50 48
f 49 50 76
f 49 76 51
f 50 77 76
f 51 79 80
f 51 80 81
f 51 81 52
f 51 75 79
f 52 81 82
f 52 82 83
f 52 83 84
f 52 84 53
f 53 84 85
f 53 85 54
f 55 58 87
f 55 87 88
f 55 88 86
f 59 89 60
f 60 89 90
f 60 90 91
f 60 91 61
f 61 91 62
f 62 92 93
f 62 93 63
f 62 91 92
f 63 93 94
f 63 94 95
f 63 95 71
f 63 71 69
f 63 69 64
f 64 69 67
f 64 67 65
f 67 69 68
f 71 95 94
f 71 94 72
f 72 94 73
f 73 94 74
f 74 79 75
f 74 94 112
f 74 112 96
f 74 96 97
f 74 97 80
f 74 80 79
f 80 97 82
f 80 82 81
f 82 97 98
f 82 98 83
f 83 98 84
f 84 98 85
f 85 98 99
f 86 88 101
f 86 101 102
f 86 102 100
f 89 103 90
f 90 104 92
f 90 92 91
f 90 103 105
f 90 105 106
f 90 106 107
f 90 107 104
f 92 107 108
f 92 108 109
f 92 109 110
f 92 110 111
f 92 111 112
f 92 112 113
f 92 113 114
f 92 114 93
f 92 104 115
f 92 115 107
f 93 114 94
f 94 114 112
f 96 116 117
f 96 117 118
f 96 118 119
f 96 119 120
f 96 120 121
f 96 121 122
f 96 122 123
f 96 123 97
f 96 112 124
f 96 124 125
f 96 125 126
f 96 126 127
f 96 127 116
f 97 123 128
f 97 128 129
f 97 129 130
f 97 130 131
f 97 131 98
f 98 131 99
f 99 131 132
f 100 133 134
f 100 102 133
f 102 135 136
f 102 136 133
f 104 107 115
f 105 137 138
f 105 138 107
f 105 107 106
f 107 138 139
f 107 139 108
f 108 139 140
f 108 140 141
f 108 141 109
f 109 141 142
f 109 142 110
f 110 142 143
f 110 143 144
f 110 144 124
f 110 124 112
f 110 112 111
f 112 114 113
f 116 127 145
f 116 145 117
f 117 146 147
f 117 147 148
f 117 148 149
f 117 149 150
f 117 150 118
f 117 145 151
f 117 151 146
f 118 150 152
f 118 152 119
f 119 152 153
f 119 153 120
f 120 153 121
f 121 153 122
f 122 153 123
f 123 153 128
f 124 144 143
f 124 143 154
f 124 154 125
f 125 154 126
f 126 154 155
f 126 155 156
f 126 156 127
f 127 156 157
f 127 157 158
f 127 158 145
f 128 159 160
f 128 160 129
f 128 153 159
f 130 161 131
f 131 161 132
f 133 136 162
f 133 162 163
f 133 163 164
f 133 164 165
f 133 165 134
f 135 166 167
f 135 167 168
f 135 168 169
f 135 169 136
f 136 169 162
f 137 170 171
f 137 171 138
f 138 171 172
f 138 172 139
f 139 172 173
f 139 173 140
f 140 173 141
f 141 174 175
f 141 175 142
f 141 173 155
f 141 155 174
f 142 175 143
f 143 175 176
f 143 176 174
f 143 174 154
f 145 158 177
f 145 177 151
f 146 151 178
f 146 178 179
f 146 179 147
f 147 180 148
f 147 179 181
f 147 181 182
f 147 182 183
f 147 183 149
f 147 149 180
f 148 180 149
f 149 183 184
f 149 184 185
f 149 185 153
f 149 153 186
f 149 186 150
f 150 186 152
f 151 177 187
f 151 187 178
f 152 186 188
f 152 188 153
f 153 189 159
f 153 188 186
f 153 185 189
f 154 174 155
f 155 173 190
f 155 190 156
f 156 190 157
f 157 191 192
f 157 192 187
f 157 187 177
f 157 177 158
f 157 190 191
f 159 193 160
f 159 189 193
f 162 169 194
f 162 194 195
f 162 195 196
f 162 196 163
f 163 196 195
f 163 195 197
f 163 197 198
f 163 198 199
f 163 199 200
f 163 200 201
f 163 201 164
f 164 201 202
f 164 202 165
f 166 203 204
f 166 204 168
f 166 168 167
f 168 204 182
f 168 182 181
f 168 181 194
f 168 194 169
f 170 202 200
f 170 200 199
f 170 199 198
f 170 198 197
f 170 197 195
f 170 195 172
f 170 172 171
f 172 195 205
f 172 205 190
f 172 190 173
f 174 176 175
f 178 187 179
f 179 187 206
f 179 206 181
f 181 206 191
f 181 191 194
f 182 204 207
f 182 207 184
f 182 184 183
f 184 207 185
f 185 193 189
f 185 207 193
f 187 192 206
f 190 205 191
f 191 206 192
f 191 205 194
f 193 207 208
f 194 205 195
f 200 202 201
f 203 209 204
f 204 209 207
f 207 209 210
f 207 210 208
f 208 210 209

