# https://github.com/mikedh/trimesh
v 0.06737433 0.00049516 0.00333164
v 0.06721108 -0.00067875 0.00333164
v 0.06710785 -0.00067875 0.00215626
v 0.06726870 0.00049516 0.00215626
v 0.06711265 0.00153284 0.00215626
v 0.06711745 0.00157197 0.00231963
v 0.06713906 0.00177486 0.00324995
v 0.06723269 0.00166907 0.00450248
v 0.06735033 0.00049516 0.00450248
v 0.06727350 -0.00067875 0.00450248
v 0.06689658 -0.00480916 0.00736606
v 0.06712465 -0.00185265 0.00450248
v 0.06686537 -0.00227294 0.00231963
v 0.06682456 -0.00435699 0.00567786
v 0.06660608 -0.00185265 -0.00136080
v 0.06698541 -0.00075266 0.00094004
v 0.06620995 -0.00301932 -0.00370249
v 0.06694219 -0.00041063 0.00011409
v 0.06694219 0.00027632 0.00011409
v 0.06704063 0.00059806 0.00087196
v 0.06700221 0.00130820 0.00118963
v 0.06705263 0.00171544 0.00231963
v 0.06687977 0.00224153 0.00280522
v 0.06693980 0.00229515 0.00358578
v 0.06699261 0.00235312 0.00450248
v 0.06702142 0.00240675 0.00567786
v 0.06698781 0.00239515 0.00684871
v 0.06719187 0.00166907 0.00567786
v 0.06716066 -0.00185265 0.00567786
v 0.06708624 0.00166907 0.00684871
v 0.06722789 0.00049516 0.00567786
v 0.06721828 -0.00067875 0.00567786
v 0.06692299 -0.00419467 0.00773818
v 0.06689658 -0.00480916 0.00755212
v 0.06686297 -0.00460482 0.00658096
v 0.06679334 -0.00526568 0.00797871
v 0.06674533 -0.00526568 0.00692585
v 0.06621956 -0.00419322 -0.00136080
v 0.06632759 -0.00419322 -0.00018996
v 0.06643322 -0.00419322 0.00098088
v 0.06655327 -0.00419467 0.00231963
v 0.06581382 -0.00398888 -0.00604871
v 0.06576341 -0.00378163 -0.00687466
v 0.06680535 0.00059806 -0.00024442
v 0.06688697 0.00106038 0.00040454
v 0.06576341 -0.00329033 -0.00687466
v 0.06561936 -0.00294975 -0.00725132
v 0.06678854 0.00211979 0.00215626
v 0.06575861 0.00115893 -0.00325321
v 0.06338423 0.00109951 -0.01135835
v 0.06641402 0.00259225 0.00324995
v 0.06630598 0.00281834 0.00450248
v 0.06573940 0.00227341 -0.00083892
v 0.06584743 0.00235892 -0.00018996
v 0.06348746 0.00351254 -0.00347558
v 0.06361710 0.00359370 -0.00253165
v 0.06446458 0.00337631 -0.00018996
v 0.06587144 0.00351833 0.00802409
v 0.06596027 0.00357631 0.00919493
v 0.06591466 0.00357631 0.01036577
v 0.06650525 0.00283863 0.00919493
v 0.06693499 0.00233138 0.00779264
v 0.06695420 0.00166907 0.00796055
v 0.06708144 -0.00067875 0.00684871
v 0.06707664 -0.00185265 0.00684871
v 0.06688457 0.00166907 0.00854597
v 0.06687017 -0.00419467 0.00832360
v 0.06626997 -0.00653959 0.00802409
v 0.06622676 -0.00653959 0.00684871
v 0.06663009 -0.00536713 0.00919493
v 0.06620755 -0.00653959 0.00919493
v 0.06615474 -0.00653959 0.00567786
v 0.06605150 -0.00653959 0.00450248
v 0.06659648 -0.00536713 0.00567786
v 0.06574660 -0.00484829 -0.00454659
v 0.06570339 -0.00472221 -0.00533168
v 0.06610672 -0.00419322 -0.00253165
v 0.06565777 -0.00457583 -0.00604871
v 0.06556654 -0.00418163 -0.00725132
v 0.06520642 -0.00419322 -0.00839493
v 0.06527365 -0.00301932 -0.00839493
v 0.06579942 -0.00185265 -0.00573558
v 0.06562896 -0.00185265 -0.00632100
v 0.06650765 0.00049516 -0.00136080
v 0.06451260 0.00095458 -0.00769606
v 0.06467345 -0.00192077 -0.00954309
v 0.06447899 -0.00157874 -0.00992429
v 0.06501436 -0.00185265 -0.00839493
v 0.06561216 0.00212704 -0.00162402
v 0.06346345 0.00049516 -0.01162610
v 0.06328099 0.00049516 -0.01221606
v 0.06296169 0.00049516 -0.01307830
v 0.06236389 0.00126472 -0.01395417
v 0.06252955 0.00144733 -0.01307830
v 0.06347786 0.00122849 -0.01073208
v 0.06530486 0.00316906 0.00231963
v 0.06570819 0.00341834 0.00632228
v 0.06578502 0.00346616 0.00710284
v 0.06314415 0.00203573 -0.00956124
v 0.06328580 0.00217341 -0.00870353
v 0.06457742 0.00228066 -0.00438321
v 0.06306972 0.00315457 -0.00604871
v 0.06336262 0.00341689 -0.00425161
v 0.06248393 0.00367196 -0.00604871
v 0.06267359 0.00379514 -0.00487333
v 0.06289687 0.00383428 -0.00379779
v 0.06278643 0.00409659 -0.00253165
v 0.06375635 0.00366616 -0.00136080
v 0.06471666 0.00353428 0.00231963
v 0.06513200 0.00392703 0.00802409
v 0.06513200 0.00404877 0.00919493
v 0.06396041 0.00408355 0.00333164
v 0.06396041 0.00420819 0.00450248
v 0.06441897 0.00454442 0.01036577
v 0.06445738 0.00455891 0.01153661
v 0.06579222 0.00350819 0.01111003
v 0.06635640 0.00283863 0.01036577
v 0.06658688 0.00166907 0.01036577
v 0.06679815 0.00166907 0.00919493
v 0.06687977 -0.00067875 0.00850513
v 0.06687497 -0.00301787 0.00846429
v 0.06694460 -0.00301787 0.00787433
v 0.06672372 -0.00419467 0.00919493
v 0.06576341 -0.00719176 0.01036577
v 0.06579222 -0.00722799 0.00919493
v 0.06579942 -0.00723814 0.00684871
v 0.06579702 -0.00724103 0.00567786
v 0.06575861 -0.00719031 0.00450248
v 0.06645243 -0.00419467 0.01036577
v 0.06574660 -0.00373525 0.01338818
v 0.06631799 -0.00536713 0.01036577
v 0.06572980 -0.00714538 0.01098750
v 0.06572499 -0.00713379 0.00387622
v 0.06566257 -0.00686857 0.00231963
v 0.06567938 -0.00585698 -0.00136080
v 0.06585704 -0.00511496 -0.00253165
v 0.06538408 -0.00653814 -0.00136080
v 0.06554013 -0.00554539 -0.00370249
v 0.06499516 -0.00771060 -0.00018996
v 0.06463504 -0.00843668 -0.00018996
v 0.06548491 -0.00528742 -0.00490964
v 0.06520883 -0.00536423 -0.00604871
v 0.06478389 -0.00504829 -0.00839493
v 0.06463024 -0.00488018 -0.00913465
v 0.06475748 -0.00419322 -0.00932979
v 0.06456301 -0.00254685 -0.01017843
v 0.06476468 -0.00296859 -0.00963385
v 0.06456301 -0.00235990 -0.01017843
v 0.06461343 0.00017197 -0.00802734
v 0.06402284 -0.00067875 -0.01073208
v 0.06335542 -0.00067875 -0.01245204
v 0.06246473 0.00049516 -0.01409031
v 0.06184292 0.00203428 -0.01307830
v 0.06206620 0.00216762 -0.01222513
v 0.06206379 0.00049516 -0.01467573
v 0.06133396 0.00136037 -0.01508870
v 0.05878912 0.00234443 -0.01727609
v 0.05988148 0.00226762 -0.01603718
v 0.06224866 0.00229225 -0.01144911
v 0.06387879 0.00373428 -0.00018996
v 0.06396041 0.00397196 0.00231963
v 0.06219824 0.00342413 -0.00780044
v 0.06274562 0.00306761 -0.00733301
v 0.06232548 0.00353573 -0.00701988
v 0.06147560 0.00369804 -0.00839493
v 0.06173009 0.00379949 -0.00733301
v 0.06161485 0.00403717 -0.00604871
v 0.06278643 0.00420964 -0.00136080
v 0.06343944 0.00463137 0.00591385
v 0.06431814 0.00448500 0.00919493
v 0.06411167 0.00436471 0.00684871
v 0.06383078 0.00476905 0.01036577
v 0.06352588 0.00467630 0.00684871
v 0.06363391 0.00472413 0.00802409
v 0.06373234 0.00475601 0.00919493
v 0.06387159 0.00477050 0.01153661
v 0.06374675 0.00478500 0.01271199
v 0.06354748 0.00473282 0.01367862
v 0.06433254 0.00437050 0.01271199
v 0.06336502 0.00459659 0.01446372
v 0.06483190 0.00378355 0.01271199
v 0.06560976 0.00328645 0.01189059
v 0.06573460 0.00227921 0.01333826
v 0.06584743 0.00246037 0.01271199
v 0.06600589 0.00287341 0.01151392
v 0.06631559 0.00166907 0.01153661
v 0.06548491 0.00049516 0.01505822
v 0.06519202 -0.00067875 0.01622906
v 0.06656287 0.00049516 0.01036577
v 0.06648605 -0.00301787 0.01036577
v 0.06594827 -0.00301787 0.01271199
v 0.06470706 -0.00856277 0.01271199
v 0.06477188 -0.00861204 0.01153661
v 0.06536968 -0.00781495 0.00919493
v 0.06537448 -0.00782509 0.00684871
v 0.06537928 -0.00782509 0.00567786
v 0.06479589 -0.00863378 0.00333164
v 0.06477428 -0.00862219 0.00215626
v 0.06471906 -0.00857001 0.00098088
v 0.06526645 -0.00771060 0.00215626
v 0.06576581 -0.00301787 0.01348348
v 0.06593146 -0.00542365 0.01161376
v 0.06452940 -0.00067875 0.01909717
v 0.06445498 -0.00185265 0.01886119
v 0.06456542 -0.00252222 0.01804886
v 0.06580422 -0.00653959 0.01121894
v 0.06449099 -0.00805263 0.01429127
v 0.06461343 -0.00844103 0.01351071
v 0.06514640 -0.00771060 0.00098088
v 0.06396041 -0.00888885 -0.00018996
v 0.06401083 -0.00862219 -0.00129727
v 0.06457262 -0.00833233 -0.00086161
v 0.06489432 -0.00540191 -0.00714241
v 0.06457021 -0.00597872 -0.00669767
v 0.06425811 -0.00563525 -0.00839493
v 0.06335782 -0.00593524 -0.01010582
v 0.06100985 -0.00710335 -0.01362288
v 0.06243352 -0.00622075 -0.01190746
v 0.06227746 -0.00604974 -0.01261995
v 0.06339623 -0.00483525 -0.01135381
v 0.06442137 -0.00419322 -0.00991521
v 0.06449579 -0.00332511 -0.01006951
v 0.06346105 -0.00419322 -0.01145819
v 0.06329060 -0.00185265 -0.01236581
v 0.06243352 -0.00067875 -0.01402224
v 0.06300010 -0.00067875 -0.01307830
v 0.06107707 0.00228211 -0.01375903
v 0.06165086 0.00252993 -0.01186208
v 0.06118751 0.00351978 -0.00956124
v 0.06201818 -0.00067875 -0.01460766
v 0.06143239 -0.00067875 -0.01520670
v 0.05415320 -0.00275555 -0.02197761
v 0.06147800 0.00049516 -0.01522031
v 0.05886115 0.00166472 -0.01733055
v 0.05754311 0.00230240 -0.01838340
v 0.05614106 0.00283863 -0.01932280
v 0.05535120 0.00350529 -0.01961778
v 0.05645556 0.00349080 -0.01851954
v 0.06004954 0.00236617 -0.01542453
v 0.06206139 0.00333428 -0.00839493
v 0.06004473 0.00353573 -0.01167148
v 0.06043606 0.00362268 -0.01062317
v 0.05765355 0.00350674 -0.01627770
v 0.05908442 0.00364007 -0.01307830
v 0.06044086 0.00386181 -0.00956124
v 0.06044086 0.00403717 -0.00839493
v 0.06278643 0.00430384 -0.00018996
v 0.04284790 0.00470529 -0.02315753
v 0.06161245 0.00482123 0.01622906
v 0.06044086 0.00483282 0.01857528
v 0.06263518 0.00478789 0.01505822
v 0.06123552 0.00475021 0.01857528
v 0.06222465 0.00462558 0.01687348
v 0.06108187 0.00465166 0.01927869
v 0.06138677 0.00403572 0.01970074
v 0.06577781 0.00166907 0.01352886
v 0.06600589 0.00166907 0.01271199
v 0.06353548 0.00128791 0.01975066
v 0.06453660 0.00105168 0.01797171
v 0.06463024 0.00026907 0.01835745
v 0.06518962 0.00049516 0.01622906
v 0.06466625 -0.00067875 0.01851175
v 0.06354268 -0.00959465 0.01505822
v 0.06423411 -0.00914827 0.01271199
v 0.06421010 -0.00920045 0.01153661
v 0.06477668 -0.00861784 0.01036577
v 0.06478629 -0.00862798 0.00802409
v 0.06478869 -0.00863378 0.00684871
v 0.06479589 -0.00863668 0.00450248
v 0.06418129 -0.00920479 0.01036577
v 0.06414288 -0.00921059 0.00919493
v 0.06396041 -0.00913378 0.00215626
v 0.06396041 -0.00905407 0.00098088
v 0.06409726 -0.00921204 0.00802409
v 0.06396041 -0.00917001 0.00333164
v 0.06396041 -0.00914103 0.00231963
v 0.06433974 -0.00067875 0.01975066
v 0.06414768 -0.00185265 0.01975066
v 0.06447658 -0.00330047 0.01776749
v 0.06457982 -0.00727147 0.01457717
v 0.06433734 -0.00768161 0.01500376
v 0.06393641 -0.00888595 0.01505822
v 0.06438055 -0.00421496 0.01738629
v 0.06341544 -0.00951494 0.01572986
v 0.06278643 -0.00892653 -0.00253165
v 0.06228707 -0.00836132 -0.00688827
v 0.06368673 -0.00855407 -0.00253165
v 0.06350907 -0.00842074 -0.00348920
v 0.06336502 -0.00829175 -0.00426976
v 0.06450299 -0.00707582 -0.00416992
v 0.06255596 -0.00751784 -0.00839493
v 0.06208060 -0.00699176 -0.01099076
v 0.06191255 -0.00680481 -0.01190746
v 0.06115630 -0.00725698 -0.01284232
v 0.06007114 -0.00729901 -0.01542453
v 0.05991029 -0.00718161 -0.01606894
v 0.06392200 -0.00419322 -0.01073208
v 0.06101465 -0.00588017 -0.01481641
v 0.06138677 -0.00544104 -0.01435806
v 0.06167487 -0.00419322 -0.01425369
v 0.06233268 -0.00185265 -0.01386794
v 0.06193895 -0.00185265 -0.01445790
v 0.06108427 -0.00509902 -0.01492079
v 0.05846261 0.00329950 -0.01542453
v 0.06116350 -0.00419322 -0.01501609
v 0.05996791 -0.00653814 -0.01612794
v 0.05530558 -0.00302221 -0.02086577
v 0.05178363 -0.00606133 -0.02315753
v 0.05181724 -0.00536568 -0.02316661
v 0.05415320 -0.00227584 -0.02197761
v 0.05555526 0.00283863 -0.01975846
v 0.05665482 0.00356036 -0.01777075
v 0.05458294 0.00283863 -0.02014874
v 0.05187726 0.00351399 -0.02077500
v 0.04344330 0.00460094 -0.02305316
v 0.05787682 0.00360674 -0.01542453
v 0.04285270 0.00401398 -0.02349336
v 0.04284790 0.00401254 -0.02349336
v 0.04284790 0.00470529 -0.02275817
v 0.05853464 0.00477340 0.02059930
v 0.05933890 0.00478934 0.02059930
v 0.05970142 0.00479224 0.02059930
v 0.06046967 0.00477340 0.01970074
v 0.06012636 0.00475311 0.02059930
v 0.06087781 0.00443717 0.02005926
v 0.06122832 0.00369515 0.02059930
v 0.06333621 0.00103429 0.02059930
v 0.06339143 0.00110095 0.02037239
v 0.06350667 0.00079661 0.02059930
v 0.06360510 0.00065313 0.02059930
v 0.06371313 0.00048357 0.02059930
v 0.06442377 0.00059516 0.01867966
v 0.06278643 -0.00978450 0.01505822
v 0.06365312 -0.00963812 0.01388284
v 0.06238790 -0.00961928 0.01739990
v 0.06045527 -0.00978015 0.02059930
v 0.06044086 -0.00991928 0.01975066
v 0.06161245 -0.00985552 0.01739990
v 0.06278643 -0.00918885 -0.00018996
v 0.06339863 -0.00947871 0.00609084
v 0.06278643 -0.00909030 -0.00136080
v 0.06364831 -0.00961204 0.01271199
v 0.06362431 -0.00959030 0.01153661
v 0.06355708 -0.00954247 0.00919493
v 0.06344905 -0.00949465 0.00684871
v 0.06403724 0.00049516 0.01975066
v 0.06401083 -0.00067875 0.02059930
v 0.06377075 -0.00181207 0.02059930
v 0.06350187 -0.00268453 0.02059930
v 0.06349466 -0.00276135 0.02056299
v 0.06372274 -0.00309758 0.01983235
v 0.06393401 -0.00419467 0.01857528
v 0.06406605 -0.00536713 0.01739990
v 0.06418849 -0.00653959 0.01622906
v 0.06431093 -0.00295265 0.01849360
v 0.06374915 -0.00781495 0.01633797
v 0.06354748 -0.00888595 0.01598400
v 0.06223905 -0.00951494 0.01806247
v 0.06122112 -0.00963812 0.01975066
v 0.06161485 -0.00865552 -0.00604871
v 0.06106027 -0.00830915 -0.00906204
v 0.05927168 -0.00762219 -0.01542453
v 0.05927168 -0.00729611 -0.01632762
v 0.05786242 -0.00722944 -0.01740770
v 0.05105859 -0.00655553 -0.02246320
v 0.05105859 -0.00616133 -0.02326191
v 0.04836250 -0.00491206 -0.02430568
v 0.05105859 -0.00536568 -0.02343890
v 0.05646036 -0.00716132 -0.01843786
v 0.05493106 -0.00707437 -0.01943171
v 0.04836250 -0.00450771 -0.02430568
v 0.04466530 -0.00354830 -0.02541753
v 0.04284790 -0.00190193 -0.02557637
v 0.04285270 0.00049516 -0.02479580
v 0.04284790 0.00163718 -0.02440552
v 0.04284790 0.00219660 -0.02421038
v 0.04284790 0.00279515 -0.02397894
v 0.04284790 0.00456760 -0.02216822
v 0.05840500 0.00470384 0.02059930
v 0.06070495 0.00426471 0.02059930
v 0.06044086 -0.00997291 0.01857528
v 0.06161245 -0.00990044 0.01622906
v 0.06278643 -0.00980189 0.01388284
v 0.06079618 -0.00961059 0.02059930
v 0.05927888 -0.00973088 0.02059930
v 0.06278643 -0.00924972 0.00098088
v 0.04285510 -0.00789900 -0.02129235
v 0.05628030 -0.00831204 -0.01488903
v 0.05642675 -0.00831204 -0.01488903
v 0.06307453 -0.00947871 0.00609084
v 0.06278643 -0.00931059 0.00231963
v 0.06161485 -0.00881349 -0.00487333
v 0.06346826 -0.00278743 0.02059930
v 0.06352588 -0.00419467 0.01946022
v 0.06366272 -0.00655553 0.01744528
v 0.06350907 -0.00749321 0.01708223
v 0.06336502 -0.00827146 0.01680087
v 0.06121152 -0.00888595 0.02059930
v 0.06106027 -0.00951059 0.02039962
v 0.05809769 -0.00808596 -0.01425369
v 0.05927168 -0.00783813 -0.01425369
v 0.05809769 -0.00787436 -0.01542453
v 0.05819133 -0.00742944 -0.01669975
v 0.04917157 -0.00711205 -0.02180970
v 0.05414600 -0.00714683 -0.01959962
v 0.04988700 -0.00618742 -0.02332091
v 0.04754624 -0.00500191 -0.02439645
v 0.04839132 -0.00715118 -0.02191408
v 0.04285510 -0.00755408 -0.02233613
v 0.04402668 -0.00374395 -0.02549922
v 0.04466530 -0.00364395 -0.02541753
v 0.05654439 -0.00719031 -0.01831079
v 0.05574733 -0.00721930 -0.01863754
v 0.04284790 -0.00302076 -0.02576243
v 0.04284790 0.00049516 -0.02479580
v 0.04284790 0.00404442 -0.02129235
v 0.05787442 0.00401398 0.02059930
v 0.06115870 -0.00901494 0.02059930
v 0.05882273 -0.00943378 0.02059930
v 0.04284790 -0.00789755 -0.02129689
v 0.05653958 -0.00763958 -0.01698565
v 0.05692371 -0.00770625 -0.01659991
v 0.05653958 -0.00825697 -0.01501156
v 0.06230867 -0.00592800 0.02059930
v 0.06334822 -0.00354250 0.02028616
v 0.06311054 -0.00655553 0.01855713
v 0.05686369 -0.00810625 -0.01533376
v 0.04284790 -0.00688451 -0.02292155
v 0.04637465 -0.00500047 -0.02445091
v 0.04285510 -0.00380627 -0.02558544
v 0.04284790 -0.00755408 -0.02233613
v 0.04284790 -0.00380627 -0.02558544
v 0.04284790 0.00348790 -0.02061163
v 0.05786962 0.00400239 0.02059930
v 0.05877232 -0.00939755 0.02059930
v 0.04284790 -0.00747147 -0.02048456
v 0.05597780 -0.00727147 0.02059930
v 0.04284790 0.00283573 -0.02019412
v 0.05581695 -0.00653959 0.02059930
v 0.05581455 -0.00671350 0.02059930
f 1 2 3
f 1 3 4
f 1 4 5
f 1 5 6
f 1 6 7
f 1 7 8
f 1 8 9
f 1 9 10
f 1 10 11
f 1 11 12
f 1 12 2
f 2 13 3
f 2 12 14
f 2 14 13
f 3 15 16
f 3 16 4
f 3 13 17
f 3 17 15
f 4 16 18
f 4 18 19
f 4 19 20
f 4 20 21
f 4 21 5
f 5 22 6
f 5 21 22
f 6 22 23
f 6 23 7
f 7 23 24
f 7 24 25
f 7 25 8
f 8 25 26
f 8 26 27
f 8 27 28
f 8 28 9
f 9 29 10
f 9 28 30
f 9 30 31
f 9 31 32
f 9 32 33
f 9 33 29
f 10 29 34
f 10 34 11
f 11 35 12
f 11 34 36
f 11 36 37
f 11 37 38
f 11 38 39
f 11 39 40
f 11 40 35
f 12 35 14
f 13 14 41
f 13 41 17
f 14 35 41
f 15 18 16
f 15 17 18
f 17 42 43
f 17 43 18
f 17 41 40
f 17 40 39
f 17 39 38
f 17 38 42
f 18 43 46
f 18 46 19
f 19 44 45
f 19 45 21
f 19 21 20
f 19 46 47
f 19 47 44
f 21 48 23
f 21 23 22
f 21 45 49
f 21 49 50
f 21 50 48
f 23 51 52
f 23 52 24
f 23 48 53
f 23 53 54
f 23 54 55
f 23 55 56
f 23 56 57
f 23 57 51
f 24 52 58
f 24 58 25
f 25 58 59
f 25 59 26
f 26 59 27
f 27 59 60
f 27 60 61
f 27 61 62
f 27 62 28
f 28 62 30
f 29 33 34
f 30 62 63
f 30 63 31
f 31 64 65
f 31 65 32
f 31 63 66
f 31 66 64
f 32 65 33
f 33 67 34
f 33 65 67
f 34 67 36
f 35 40 41
f 36 68 69
f 36 69 37
f 36 67 70
f 36 70 71
f 36 71 68
f 37 69 72
f 37 72 73
f 37 73 74
f 37 74 75
f 37 75 76
f 37 76 38
f 38 76 77
f 38 77 42
f 42 77 76
f 42 76 78
f 42 78 43
f 43 79 80
f 43 80 81
f 43 81 46
f 43 78 79
f 44 47 45
f 45 47 82
f 45 82 83
f 45 83 84
f 45 84 85
f 45 85 50
f 45 50 49
f 46 81 47
f 47 83 82
f 47 81 86
f 47 86 87
f 47 87 88
f 47 88 83
f 48 50 89
f 48 89 53
f 50 90 91
f 50 91 92
f 50 92 93
f 50 93 94
f 50 94 95
f 50 95 89
f 50 85 90
f 51 57 96
f 51 96 52
f 52 97 98
f 52 98 58
f 52 96 97
f 53 89 95
f 53 95 99
f 53 99 100
f 53 100 101
f 53 101 102
f 53 102 103
f 53 103 54
f 54 103 55
f 55 103 104
f 55 104 105
f 55 105 56
f 56 105 106
f 56 106 107
f 56 107 108
f 56 108 57
f 57 109 96
f 57 108 109
f 58 110 111
f 58 111 59
f 58 98 112
f 58 112 113
f 58 113 110
f 59 111 114
f 59 114 115
f 59 115 60
f 60 115 116
f 60 116 117
f 60 117 61
f 61 117 62
f 62 66 63
f 62 117 118
f 62 118 119
f 62 119 66
f 64 66 65
f 65 66 120
f 65 120 121
f 65 121 122
f 65 122 67
f 66 119 120
f 67 122 121
f 67 121 123
f 67 123 70
f 68 71 124
f 68 124 125
f 68 125 126
f 68 126 127
f 68 127 69
f 69 127 128
f 69 128 72
f 70 123 129
f 70 129 130
f 70 130 131
f 70 131 132
f 70 132 71
f 71 132 124
f 72 128 73
f 73 128 133
f 73 133 134
f 73 134 135
f 73 135 75
f 73 75 136
f 73 136 74
f 74 136 75
f 75 135 137
f 75 137 138
f 75 138 76
f 76 138 139
f 76 139 140
f 76 140 141
f 76 141 78
f 78 142 143
f 78 143 79
f 78 141 142
f 79 143 80
f 80 143 144
f 80 144 145
f 80 145 146
f 80 146 147
f 80 147 81
f 81 147 146
f 81 146 148
f 81 148 87
f 81 87 86
f 83 88 84
f 84 88 149
f 84 149 85
f 85 149 90
f 87 148 150
f 87 150 88
f 88 150 90
f 88 90 149
f 90 150 91
f 91 150 148
f 91 148 92
f 92 148 151
f 92 151 152
f 92 152 93
f 93 153 154
f 93 154 94
f 93 152 155
f 93 155 156
f 93 156 157
f 93 157 158
f 93 158 153
f 94 154 159
f 94 159 99
f 94 99 95
f 96 109 97
f 97 109 98
f 98 109 160
f 98 160 107
f 98 107 161
f 98 161 112
f 99 159 100
f 100 159 162
f 100 162 163
f 100 163 102
f 100 102 101
f 102 163 162
f 102 162 103
f 103 162 164
f 103 164 104
f 104 164 165
f 104 165 166
f 104 166 105
f 105 107 106
f 105 166 167
f 105 167 107
f 107 168 169
f 107 169 113
f 107 113 112
f 107 112 161
f 107 160 108
f 107 167 168
f 108 160 109
f 110 113 111
f 111 170 114
f 111 113 171
f 111 171 170
f 113 169 171
f 114 172 115
f 114 170 173
f 114 173 174
f 114 174 175
f 114 175 172
f 115 172 176
f 115 176 177
f 115 177 178
f 115 178 179
f 115 179 116
f 116 179 180
f 116 180 181
f 116 181 182
f 116 182 183
f 116 183 184
f 116 184 185
f 116 185 117
f 117 185 184
f 117 184 183
f 117 183 186
f 117 186 118
f 118 186 187
f 118 187 188
f 118 188 189
f 118 189 123
f 118 123 121
f 118 121 119
f 119 121 120
f 123 189 190
f 123 190 191
f 123 191 129
f 124 132 192
f 124 192 193
f 124 193 125
f 125 194 126
f 125 193 194
f 126 195 196
f 126 196 127
f 126 194 195
f 127 196 197
f 127 197 198
f 127 198 128
f 128 198 199
f 128 199 200
f 128 200 133
f 129 191 201
f 129 201 130
f 130 202 131
f 130 201 203
f 130 203 204
f 130 204 205
f 130 205 202
f 131 202 206
f 131 206 132
f 132 206 207
f 132 207 208
f 132 208 192
f 133 200 209
f 133 209 134
f 134 209 135
f 135 209 137
f 137 209 138
f 138 209 139
f 139 209 140
f 140 209 199
f 140 199 210
f 140 210 211
f 140 211 212
f 140 212 141
f 141 212 142
f 142 213 143
f 142 212 213
f 143 214 215
f 143 215 216
f 143 216 217
f 143 217 218
f 143 218 144
f 143 213 212
f 143 212 214
f 144 218 219
f 144 219 145
f 145 219 220
f 145 220 221
f 145 221 222
f 145 222 146
f 146 222 223
f 146 223 224
f 146 224 225
f 146 225 226
f 146 226 151
f 146 151 148
f 151 226 152
f 152 226 225
f 152 225 155
f 153 158 227
f 153 227 154
f 154 227 228
f 154 228 229
f 154 229 159
f 155 225 230
f 155 230 231
f 155 231 232
f 155 232 233
f 155 233 157
f 155 157 156
f 157 233 234
f 157 234 235
f 157 235 236
f 157 236 237
f 157 237 238
f 157 238 158
f 158 238 239
f 158 239 227
f 159 229 165
f 159 165 240
f 159 240 162
f 162 240 165
f 162 165 164
f 165 229 241
f 165 241 242
f 165 242 243
f 165 243 244
f 165 244 245
f 165 245 166
f 166 245 167
f 167 245 246
f 167 246 247
f 167 247 168
f 168 247 169
f 169 247 246
f 169 246 248
f 169 248 173
f 169 173 170
f 169 170 171
f 172 177 176
f 172 175 248
f 172 248 177
f 173 248 174
f 174 248 175
f 177 248 249
f 177 249 250
f 177 250 251
f 177 251 252
f 177 252 178
f 178 253 180
f 178 180 179
f 178 252 254
f 178 254 253
f 180 253 181
f 181 253 255
f 181 255 182
f 182 255 183
f 183 256 257
f 183 257 186
f 183 255 258
f 183 258 259
f 183 259 260
f 183 260 256
f 186 257 261
f 186 261 203
f 186 203 187
f 187 203 262
f 187 262 188
f 188 191 189
f 188 262 191
f 189 191 190
f 191 262 203
f 191 203 201
f 192 208 263
f 192 263 264
f 192 264 193
f 193 264 265
f 193 265 266
f 193 266 194
f 194 267 268
f 194 268 195
f 194 266 267
f 195 268 196
f 196 268 269
f 196 269 197
f 197 269 265
f 197 265 270
f 197 270 271
f 197 271 198
f 198 272 273
f 198 273 199
f 198 271 274
f 198 274 275
f 198 275 276
f 198 276 272
f 199 209 200
f 199 273 210
f 202 205 206
f 203 277 204
f 203 261 260
f 203 260 277
f 204 277 278
f 204 278 279
f 204 279 205
f 205 279 280
f 205 280 206
f 206 280 207
f 207 281 282
f 207 282 208
f 207 280 279
f 207 279 283
f 207 283 281
f 208 282 284
f 208 284 263
f 210 273 285
f 210 285 286
f 210 286 287
f 210 287 211
f 211 287 212
f 212 287 288
f 212 288 289
f 212 289 290
f 212 290 214
f 214 291 292
f 214 292 215
f 214 290 291
f 215 292 293
f 215 293 216
f 216 293 217
f 217 219 218
f 217 293 292
f 217 292 291
f 217 291 289
f 217 289 294
f 217 294 295
f 217 295 296
f 217 296 219
f 219 296 220
f 220 297 221
f 220 296 298
f 220 298 297
f 221 297 222
f 222 297 223
f 223 297 298
f 223 298 299
f 223 299 300
f 223 300 301
f 223 301 224
f 224 301 225
f 225 302 230
f 225 301 303
f 225 303 302
f 227 241 229
f 227 229 228
f 227 239 304
f 227 304 241
f 230 302 305
f 230 305 306
f 230 306 231
f 231 306 307
f 231 307 232
f 232 308 309
f 232 309 310
f 232 310 233
f 232 307 306
f 232 306 296
f 232 296 308
f 233 310 234
f 234 310 235
f 235 310 236
f 236 310 311
f 236 311 237
f 237 312 238
f 237 311 313
f 237 313 314
f 237 314 315
f 237 315 248
f 237 248 312
f 238 312 316
f 238 316 243
f 238 243 239
f 239 243 304
f 241 304 243
f 241 243 242
f 243 316 244
f 244 316 245
f 245 316 312
f 245 312 246
f 246 312 248
f 248 315 317
f 248 317 318
f 248 318 377
f 248 377 376
f 248 376 375
f 248 375 415
f 248 415 373
f 248 373 414
f 248 414 432
f 248 432 428
f 248 428 431
f 248 431 420
f 248 420 436
f 248 436 438
f 248 438 433
f 248 433 416
f 248 416 378
f 248 378 319
f 248 319 250
f 248 250 249
f 250 320 321
f 250 321 322
f 250 322 323
f 250 323 251
f 250 319 320
f 251 323 252
f 252 323 324
f 252 324 254
f 253 254 255
f 254 324 325
f 254 325 255
f 255 325 326
f 255 326 327
f 255 327 328
f 255 328 258
f 256 260 257
f 257 260 261
f 258 328 259
f 259 328 327
f 259 327 329
f 259 329 330
f 259 330 331
f 259 331 332
f 259 332 260
f 260 332 277
f 263 333 334
f 263 334 264
f 263 284 335
f 263 335 336
f 263 336 337
f 263 337 338
f 263 338 333
f 264 334 265
f 265 269 268
f 265 268 267
f 265 267 266
f 265 334 270
f 270 334 271
f 271 334 274
f 272 339 273
f 272 276 340
f 272 340 339
f 273 339 341
f 273 341 285
f 274 334 342
f 274 342 275
f 275 342 276
f 276 342 343
f 276 343 344
f 276 344 345
f 276 345 340
f 277 332 346
f 277 346 331
f 277 331 347
f 277 347 278
f 278 347 348
f 278 348 349
f 278 349 350
f 278 350 351
f 278 351 352
f 278 352 353
f 278 353 354
f 278 354 281
f 278 281 283
f 278 283 355
f 278 355 279
f 279 355 283
f 281 354 356
f 281 356 282
f 282 356 357
f 282 357 284
f 284 357 358
f 284 358 359
f 284 359 335
f 285 341 360
f 285 360 286
f 286 294 289
f 286 289 288
f 286 288 287
f 286 360 361
f 286 361 362
f 286 362 295
f 286 295 294
f 289 291 290
f 295 362 296
f 296 306 305
f 296 305 303
f 296 303 298
f 296 362 363
f 296 363 364
f 296 364 308
f 298 300 299
f 298 303 300
f 300 303 301
f 302 303 305
f 308 365 366
f 308 366 367
f 308 367 368
f 308 368 309
f 308 364 369
f 308 369 370
f 308 370 365
f 309 368 310
f 310 368 371
f 310 371 372
f 310 372 373
f 310 373 374
f 310 374 313
f 310 313 311
f 313 374 375
f 313 375 376
f 313 376 314
f 314 376 377
f 314 377 317
f 314 317 315
f 317 377 318
f 319 378 379
f 319 379 320
f 320 379 417
f 320 417 434
f 320 434 439
f 320 439 440
f 320 440 437
f 320 437 435
f 320 435 419
f 320 419 385
f 320 385 336
f 320 336 384
f 320 384 418
f 320 418 398
f 320 398 424
f 320 424 393
f 320 393 349
f 320 349 348
f 320 348 347
f 320 347 331
f 320 331 330
f 320 330 329
f 320 329 327
f 320 327 326
f 320 326 380
f 320 380 324
f 320 324 322
f 320 322 321
f 322 324 323
f 324 380 325
f 325 380 326
f 331 346 332
f 333 338 381
f 333 381 382
f 333 382 383
f 333 383 334
f 334 383 343
f 334 343 342
f 335 359 336
f 336 359 384
f 336 385 337
f 337 385 381
f 337 381 338
f 339 340 386
f 339 386 387
f 339 387 388
f 339 388 389
f 339 389 341
f 340 345 383
f 340 383 382
f 340 382 390
f 340 390 391
f 340 391 386
f 341 389 392
f 341 392 360
f 343 383 344
f 344 383 345
f 349 393 350
f 350 393 394
f 350 394 351
f 351 394 395
f 351 395 352
f 352 395 356
f 352 356 353
f 353 356 354
f 356 395 357
f 357 395 394
f 357 394 396
f 357 396 397
f 357 397 398
f 357 398 399
f 357 399 358
f 358 399 359
f 359 399 384
f 360 392 389
f 360 389 361
f 361 389 400
f 361 400 401
f 361 401 362
f 362 402 403
f 362 403 363
f 362 401 402
f 363 403 364
f 364 403 369
f 365 404 366
f 365 370 405
f 365 405 404
f 366 406 407
f 366 407 367
f 366 404 408
f 366 408 409
f 366 409 406
f 367 407 410
f 367 410 411
f 367 411 372
f 367 372 371
f 367 371 368
f 369 403 412
f 369 412 413
f 369 413 370
f 370 413 405
f 372 411 414
f 372 414 373
f 373 415 374
f 374 415 375
f 378 416 417
f 378 417 379
f 381 385 387
f 381 387 382
f 382 387 391
f 382 391 390
f 384 399 418
f 385 419 420
f 385 420 387
f 386 391 387
f 387 420 409
f 387 409 404
f 387 404 389
f 387 389 388
f 389 404 405
f 389 405 421
f 389 421 422
f 389 422 423
f 389 423 402
f 389 402 400
f 393 424 425
f 393 425 394
f 394 426 397
f 394 397 396
f 394 425 424
f 394 424 426
f 397 426 424
f 397 424 398
f 398 418 399
f 400 402 401
f 402 423 427
f 402 427 422
f 402 422 403
f 403 422 412
f 404 409 408
f 405 413 421
f 406 428 429
f 406 429 407
f 406 409 428
f 407 429 430
f 407 430 410
f 409 420 431
f 409 431 428
f 410 430 414
f 410 414 411
f 412 422 413
f 413 422 421
f 414 430 432
f 416 433 417
f 417 433 434
f 419 435 420
f 420 435 437
f 420 437 436
f 422 427 423
f 428 432 430
f 428 430 429
f 433 438 434
f 434 438 439
f 436 437 440
f 436 440 438
f 438 440 439

