# https://github.com/mikedh/trimesh
v 0.00064645 0.04389038 0.04228197
v -0.00640971 0.04623529 0.04181235
v -0.00523575 0.04506284 0.04218350
v -0.00640971 0.04506284 0.04223652
v -0.00171920 0.04389038 0.04231984
v 0.00064645 0.04271793 0.04226682
v 0.00064645 0.04489310 0.04173661
v -0.00556737 0.04688953 0.04147908
v -0.00640971 0.04697833 0.04151695
v -0.00758012 0.04623529 0.04181993
v -0.00758012 0.04699744 0.04153210
v -0.00758012 0.04506284 0.04222137
v -0.00758012 0.04389038 0.04235771
v -0.00288961 0.04389038 0.04232742
v 0.00064645 0.04250210 0.04216078
v -0.00875230 0.04389038 0.04233499
v -0.01747008 0.03923879 0.04113823
v -0.01747008 0.03869247 0.04100189
v -0.01747008 0.03800563 0.04074436
v 0.00064645 0.04547876 0.04132759
v 0.00064645 0.04548888 0.04132001
v 0.00064645 0.04628250 0.04065346
v 0.00005592 0.04682433 0.04027474
v -0.00054347 0.04687042 0.04035806
v -0.00171920 0.04695360 0.04049440
v -0.00640971 0.04729871 0.04085797
v -0.00875230 0.04623529 0.04179720
v -0.01344281 0.04506284 0.04210775
v -0.00758012 0.04725037 0.04085797
v -0.00875230 0.04693674 0.04152453
v 0.00064645 0.04152187 0.04167601
v -0.01344281 0.04389038 0.04221380
v -0.01747008 0.04338228 0.04203201
v -0.01747008 0.04220983 0.04178205
v -0.01747008 0.03766727 0.04056257
v 0.00064645 0.04628250 0.03982785
v 0.00005592 0.04682433 0.04026717
v -0.00054347 0.04687042 0.04021415
v -0.00171920 0.04695360 0.04012325
v -0.00523575 0.04183887 -0.03183392
v -0.00640794 0.04180627 -0.03183392
v -0.00992449 0.04687829 0.04149423
v -0.01461677 0.04506284 0.04202444
v -0.01747008 0.04389038 0.04209261
v -0.01695936 0.04389038 0.04211533
v -0.01578718 0.04389038 0.04215320
v -0.01058594 0.04683782 0.04138819
v -0.01058594 0.04683782 0.04146393
v -0.01747008 0.03736039 0.04038078
v 0.00064645 0.04140384 0.04159269
v 0.00064645 0.04623866 0.03976725
v 0.00064290 0.04045621 -0.03502276
v 0.00064290 0.04081368 -0.03449255
v 0.00064290 0.04109133 -0.03391690
v 0.00064290 0.04109358 -0.03390932
v 0.00064290 0.04124534 -0.03301554
v -0.00054524 0.04135325 -0.03301554
v -0.00172097 0.04143082 -0.03301554
v -0.00289316 0.04148140 -0.03301554
v -0.00406357 0.04151962 -0.03301554
v -0.00523575 0.04155110 -0.03301554
v -0.00640794 0.04150163 -0.03301554
v -0.00758367 0.04132178 -0.03301554
v -0.00911938 0.04092946 -0.03344728
v -0.00758367 0.04156571 -0.03183392
v -0.01695936 0.04490096 0.04182750
v -0.01747008 0.04483352 0.04179720
v -0.01747008 0.04446368 0.04193354
v -0.01461677 0.04579688 0.04160784
v -0.01541655 0.04570358 0.04135788
v -0.01541655 0.04570358 0.04151695
v -0.01747008 0.03733341 0.04028989
v 0.00064645 0.03926802 0.03851747
v 0.00064645 0.03957490 0.03941883
v 0.00064645 0.03998970 0.04000206
v 0.00064645 0.04065405 0.04088070
v 0.00064645 0.04075185 0.04100189
v 0.00064645 0.04209404 0.03563918
v -0.00054524 0.04078557 -0.03451528
v 0.00064290 0.03657351 -0.03502276
v 0.00006301 0.04044946 -0.03502276
v -0.00172097 0.04116665 -0.03391690
v -0.00054524 0.04114529 -0.03393204
v 0.00062694 0.04109471 -0.03390932
v -0.00289316 0.04116103 -0.03388660
v -0.00523575 0.04111831 -0.03381085
v -0.00640794 0.04108796 -0.03377298
v -0.00758367 0.04103175 -0.03370481
v -0.00833911 0.04098117 -0.03362907
v -0.01578718 0.03898586 -0.03502276
v -0.01618086 0.03891279 -0.03502276
v -0.01578718 0.03928038 -0.03418200
v -0.01406525 0.03979523 -0.03363664
v -0.00990320 0.04084740 -0.03303826
v -0.01109490 0.04058773 -0.03301554
v -0.01226885 0.04029658 -0.03301554
v -0.01747008 0.04483352 0.04108521
v -0.01618086 0.03919157 -0.03418200
v -0.01747008 0.03724123 0.03968393
v 0.00064645 0.03916010 0.03735858
v 0.00064645 0.03911626 0.03563918
v -0.01309346 0.03581585 -0.03502276
v 0.00064290 0.03621379 -0.03330337
v -0.00098504 0.04040899 -0.03502276
v -0.00172097 0.04075972 -0.03450770
v -0.00640794 0.04065180 -0.03436379
v -0.00758367 0.04009761 -0.03502276
v -0.00875053 0.03999644 -0.03502276
v -0.00992271 0.03985031 -0.03502276
v -0.01166769 0.03978399 -0.03477280
v -0.01226885 0.03974352 -0.03468191
v -0.01226885 0.03952993 -0.03502276
v -0.01618086 0.03581585 -0.03502276
v -0.01747008 0.04020890 0.03563918
v -0.01747008 0.03722325 0.03941125
v 0.00064290 0.03621379 0.00160723
v 0.00064645 0.03912975 0.03616940
v -0.00833024 0.03581585 -0.03190209
v -0.00172097 0.04037527 -0.03502276
v -0.00640794 0.04015944 -0.03502276
v -0.01144425 0.03964797 -0.03502276
v -0.01618086 0.03581585 0.00229650
v -0.01747008 0.03704451 0.03563918
v -0.01747008 0.03714231 0.03816147
v -0.01747008 0.03707824 0.03694956
v -0.00833024 0.03581585 0.00105429
v -0.01747008 0.03704564 0.03576038
f 1 2 3
f 1 3 4
f 1 4 5
f 1 5 6
f 1 6 15
f 1 15 31
f 1 31 50
f 1 50 77
f 1 77 76
f 1 76 75
f 1 75 74
f 1 74 73
f 1 73 100
f 1 100 117
f 1 117 101
f 1 101 78
f 1 78 51
f 1 51 36
f 1 36 22
f 1 22 21
f 1 21 20
f 1 20 7
f 1 7 8
f 1 8 9
f 1 9 2
f 2 10 4
f 2 4 3
f 2 9 11
f 2 11 10
f 4 10 12
f 4 12 13
f 4 13 14
f 4 14 5
f 5 14 6
f 6 14 13
f 6 13 16
f 6 16 17
f 6 17 18
f 6 18 19
f 6 19 15
f 7 20 8
f 8 20 21
f 8 21 22
f 8 22 23
f 8 23 24
f 8 24 25
f 8 25 9
f 9 25 26
f 9 26 11
f 10 11 27
f 10 27 28
f 10 28 12
f 11 26 29
f 11 29 30
f 11 30 27
f 12 28 13
f 13 28 16
f 15 19 31
f 16 32 33
f 16 33 34
f 16 34 17
f 16 28 32
f 17 34 33
f 17 33 44
f 17 44 68
f 17 68 67
f 17 67 97
f 17 97 114
f 17 114 123
f 17 123 127
f 17 127 125
f 17 125 124
f 17 124 115
f 17 115 99
f 17 99 72
f 17 72 49
f 17 49 35
f 17 35 19
f 17 19 18
f 19 35 31
f 22 36 37
f 22 37 23
f 23 37 38
f 23 38 24
f 24 38 26
f 24 26 25
f 26 38 39
f 26 39 40
f 26 40 41
f 26 41 29
f 27 30 28
f 28 30 42
f 28 42 43
f 28 43 44
f 28 44 45
f 28 45 46
f 28 46 32
f 29 47 48
f 29 48 42
f 29 42 30
f 29 41 47
f 31 35 49
f 31 49 50
f 32 46 33
f 33 46 45
f 33 45 44
f 36 51 52
f 36 52 53
f 36 53 54
f 36 54 55
f 36 55 56
f 36 56 37
f 37 56 57
f 37 57 40
f 37 40 38
f 38 40 39
f 40 57 58
f 40 58 59
f 40 59 60
f 40 60 61
f 40 61 41
f 41 61 62
f 41 62 63
f 41 63 64
f 41 64 65
f 41 65 47
f 42 48 43
f 43 66 67
f 43 67 68
f 43 68 44
f 43 48 69
f 43 69 66
f 47 70 71
f 47 71 48
f 47 65 70
f 48 71 69
f 49 72 73
f 49 73 74
f 49 74 75
f 49 75 76
f 49 76 77
f 49 77 50
f 51 78 52
f 52 79 53
f 52 78 101
f 52 101 80
f 52 80 102
f 52 102 113
f 52 113 91
f 52 91 90
f 52 90 112
f 52 112 121
f 52 121 109
f 52 109 108
f 52 108 107
f 52 107 120
f 52 120 119
f 52 119 104
f 52 104 81
f 52 81 79
f 53 79 82
f 53 82 83
f 53 83 54
f 54 83 84
f 54 84 55
f 55 84 57
f 55 57 56
f 57 84 58
f 58 84 83
f 58 83 59
f 59 83 60
f 60 83 61
f 61 83 82
f 61 82 85
f 61 85 86
f 61 86 62
f 62 86 87
f 62 87 88
f 62 88 89
f 62 89 64
f 62 64 63
f 64 89 90
f 64 90 91
f 64 91 92
f 64 92 93
f 64 93 94
f 64 94 65
f 65 94 95
f 65 95 93
f 65 93 96
f 65 96 70
f 66 69 67
f 67 69 71
f 67 71 70
f 67 70 97
f 70 96 93
f 70 93 98
f 70 98 97
f 72 99 73
f 73 99 100
f 79 81 85
f 79 85 82
f 80 101 103
f 80 103 102
f 81 104 105
f 81 105 85
f 85 105 86
f 86 105 106
f 86 106 87
f 87 106 107
f 87 107 108
f 87 108 88
f 88 108 109
f 88 109 110
f 88 110 89
f 89 110 111
f 89 111 90
f 90 111 110
f 90 110 112
f 91 113 123
f 91 123 114
f 91 114 97
f 91 97 98
f 91 98 92
f 92 98 93
f 93 95 94
f 99 115 116
f 99 116 100
f 100 116 117
f 101 116 103
f 101 117 116
f 102 103 118
f 102 118 126
f 102 126 122
f 102 122 113
f 103 116 126
f 103 126 118
f 104 119 105
f 105 119 106
f 106 119 120
f 106 120 107
f 109 121 110
f 110 121 112
f 113 122 123
f 115 124 116
f 116 124 125
f 116 125 126
f 122 125 127
f 122 127 123
f 122 126 125

