# https://github.com/mikedh/trimesh
v -0.04366286 -0.00998840 0.00700689
v -0.04113808 -0.00998840 0.00700689
v -0.04856110 -0.00998840 0.04085913
v -0.04315750 -0.00998402 -0.03296314
v -0.04312421 -0.00998402 -0.03311458
v -0.04288919 -0.00998402 -0.03412916
v -0.04287204 -0.00998402 -0.03418216
v -0.04256842 -0.00998402 -0.03502259
v -0.04106747 -0.00998840 0.00899062
v -0.04110681 -0.00998402 -0.03502259
v -0.04824942 -0.00998840 0.04171471
v -0.04922281 -0.00715592 0.04145728
v -0.04928434 -0.00737717 0.04085913
v -0.05040803 -0.00368378 0.04032913
v -0.05040803 -0.00368378 0.04023826
v -0.04930048 -0.00742975 0.04013984
v -0.04337034 -0.00953056 -0.03252399
v -0.04315952 -0.00998402 -0.03294800
v -0.04327955 -0.00888213 -0.03326601
v -0.04298602 -0.00888213 -0.03418216
v -0.04259969 -0.00967952 -0.03502259
v -0.04101906 -0.00998840 0.01036864
v -0.04032608 0.00151457 -0.03502259
v -0.04095753 -0.00998840 0.01388182
v -0.04096156 -0.00998840 0.01271581
v -0.04098274 -0.00998840 0.01153465
v -0.04745456 -0.00998840 0.04216901
v -0.04927224 -0.00653817 0.04149514
v -0.05063096 -0.00184804 0.04059413
v -0.05049881 -0.00302002 0.04046542
v -0.05049881 -0.00302002 0.04013984
v -0.04383030 -0.00653598 -0.03066140
v -0.04360940 -0.00770796 -0.03183498
v -0.04340766 -0.00888213 -0.03269057
v -0.05063096 -0.00184804 0.04002626
v -0.04331183 -0.00770796 -0.03342501
v -0.04344296 -0.00770796 -0.03284200
v -0.04306066 -0.00770796 -0.03418216
v -0.04283472 -0.00653598 -0.03502259
v -0.04275402 -0.00770796 -0.03502259
v -0.04266929 -0.00888213 -0.03502259
v -0.04032608 0.01239101 -0.03502259
v -0.04032608 0.00151457 0.00157811
v -0.04096660 -0.00998840 0.01505541
v -0.04628144 -0.00998840 0.04232801
v -0.04745456 0.00635804 0.04222958
v -0.04930250 -0.00536618 0.04151028
v -0.05062692 -0.00067387 0.04058655
v -0.04929746 0.00166791 0.04148757
v -0.04455758 -0.00156326 -0.02791294
v -0.04368001 -0.00653598 -0.03183498
v -0.05062692 -0.00067387 0.04003384
v -0.04489953 0.00049812 -0.02597463
v -0.04470485 -0.00067606 -0.02714822
v -0.04334814 -0.00586564 -0.03358401
v -0.04321298 -0.00542752 -0.03409130
v -0.04312825 -0.00653598 -0.03418216
v -0.04361040 -0.00184804 -0.03300857
v -0.04372136 -0.00536399 -0.03183498
v -0.04290734 -0.00537933 -0.03502259
v -0.04193092 0.01239101 -0.03502259
v -0.04032608 0.01239101 0.00318327
v -0.04118146 -0.00998840 0.03733837
v -0.04511135 -0.00998840 0.04225229
v -0.04628144 0.00870419 0.04232044
v -0.04745456 0.00753221 0.04216901
v -0.04854698 0.00518605 0.04173743
v -0.04926820 0.00283989 0.04148000
v -0.04628144 0.00916422 0.04229772
v -0.05051395 0.00049593 0.04048813
v -0.04922685 0.00354747 0.04145728
v -0.04918347 0.00432952 0.04139671
v -0.04826858 0.00916422 0.04158599
v -0.04478050 0.00049812 -0.02714822
v -0.04458380 -0.00067606 -0.02804923
v -0.04397959 -0.00419201 -0.03066140
v -0.05051395 0.00049593 0.04013227
v -0.04381013 0.00870200 -0.03300857
v -0.04453337 0.00351680 -0.02896538
v -0.04477949 0.00166791 -0.02714822
v -0.04342380 -0.00184804 -0.03384901
v -0.04339757 0.00626384 -0.03502259
v -0.04335722 0.00518386 -0.03502259
v -0.04327754 0.00311591 -0.03502259
v -0.04308387 -0.00184804 -0.03502259
v -0.04364974 -0.00067606 -0.03300857
v -0.04303242 -0.00301783 -0.03502259
v -0.04297391 -0.00419201 -0.03502259
v -0.04391302 0.00151457 -0.03198642
v -0.04450815 0.00151457 -0.02882910
v -0.04215082 0.01207337 -0.03502259
v -0.04230313 0.01198356 -0.03490145
v -0.04241106 0.01239101 -0.03435630
v -0.04092928 0.01239101 0.00700689
v -0.04168379 0.00929566 0.03733080
v -0.04172817 0.00916422 0.03851196
v -0.04118146 -0.00998621 0.03733837
v -0.04135294 -0.00998840 0.03829239
v -0.04393218 -0.00998840 0.04207057
v -0.04582450 0.00916422 0.04224472
v -0.04699661 0.00916422 0.04212357
v -0.04745456 0.00870419 0.04203272
v -0.04831599 0.00870419 0.04161628
v -0.04840375 0.00753221 0.04166172
v -0.04847940 0.00635804 0.04169957
v -0.04339354 0.01239101 0.00700689
v -0.05043224 0.00130646 0.04036698
v -0.04844511 0.00916422 0.04112413
v -0.04745456 0.00916422 0.04196457
v -0.04453337 0.00311153 -0.02896538
v -0.04462112 0.00166791 -0.02824609
v -0.05043224 0.00130646 0.04021555
v -0.04357510 0.00987180 -0.03300857
v -0.04345103 0.00981046 -0.03408373
v -0.04363562 0.00870200 -0.03418216
v -0.04388074 0.00753002 -0.03300857
v -0.04366084 0.00753002 -0.03418216
v -0.04341270 0.00635804 -0.03497717
v -0.04343590 0.00753002 -0.03497717
v -0.04341976 0.00744458 -0.03502259
v -0.04383736 0.00518386 -0.03300857
v -0.04310000 0.00953444 -0.03502259
v -0.04337740 0.00937671 -0.03479545
v -0.04323618 0.01015439 -0.03441687
v -0.04335823 0.01048079 -0.03362944
v -0.04244132 0.01239101 -0.03425030
v -0.04506293 0.00916422 0.04195700
v -0.04474217 0.00916422 0.04176014
v -0.04443350 0.00916422 0.04151786
v -0.04311816 0.00916422 0.04046542
v -0.04288818 0.00916422 0.04027612
v -0.04253110 0.00916422 0.03995055
v -0.04230616 0.00916422 0.03972340
v -0.04195715 0.00916422 0.03935997
v -0.04181694 0.00916422 0.03898140
v -0.04138219 -0.00998840 0.03843625
v -0.04312522 -0.00998840 0.04169200
v -0.04343086 0.01239101 -0.00604641
v -0.04849957 0.00916422 0.04085913
v -0.04921575 0.00695388 0.04028370
v -0.04387469 0.00635804 -0.03300857
v -0.04921575 0.00695388 0.04026855
v -0.04341875 0.00870200 -0.03487873
v -0.04335722 0.00846322 -0.03502259
v -0.04322609 0.00915765 -0.03502259
v -0.04265718 0.01239101 -0.03300857
v -0.04255934 -0.00998840 0.04079099
v -0.04249680 -0.00998840 0.04067742
v -0.04196723 -0.00998840 0.03966283
v -0.04343388 0.01239101 -0.00721999
v -0.04343489 0.01239101 -0.00762885
v -0.04343590 0.01239101 -0.00839358
v -0.04343288 0.01239101 -0.00881001
v -0.04342077 0.01239101 -0.00956716
v -0.04328359 0.01239101 -0.01681310
v -0.04326442 0.01239101 -0.01774440
v -0.04313127 0.01239101 -0.02235545
v -0.04308992 0.01239101 -0.02346846
v -0.04298400 0.01239101 -0.02580806
v -0.04266626 0.01239101 -0.03281928
f 1 2 9
f 1 9 22
f 1 22 26
f 1 26 25
f 1 25 24
f 1 24 44
f 1 44 63
f 1 63 98
f 1 98 136
f 1 136 149
f 1 149 148
f 1 148 147
f 1 147 137
f 1 137 99
f 1 99 64
f 1 64 45
f 1 45 27
f 1 27 11
f 1 11 3
f 1 3 4
f 1 4 5
f 1 5 6
f 1 6 7
f 1 7 8
f 1 8 10
f 1 10 2
f 2 10 9
f 3 11 12
f 3 12 13
f 3 13 14
f 3 14 15
f 3 15 16
f 3 16 17
f 3 17 18
f 3 18 4
f 4 18 17
f 4 17 5
f 5 17 6
f 6 17 19
f 6 19 20
f 6 20 7
f 7 20 8
f 8 20 21
f 8 21 41
f 8 41 40
f 8 40 39
f 8 39 60
f 8 60 88
f 8 88 87
f 8 87 85
f 8 85 84
f 8 84 83
f 8 83 82
f 8 82 120
f 8 120 144
f 8 144 145
f 8 145 122
f 8 122 91
f 8 91 61
f 8 61 42
f 8 42 23
f 8 23 10
f 9 10 22
f 10 23 24
f 10 24 25
f 10 25 26
f 10 26 22
f 11 27 28
f 11 28 12
f 12 28 29
f 12 29 30
f 12 30 14
f 12 14 13
f 14 30 31
f 14 31 15
f 15 31 17
f 15 17 16
f 17 32 33
f 17 33 34
f 17 34 19
f 17 31 35
f 17 35 32
f 19 36 20
f 19 34 37
f 19 37 36
f 20 36 38
f 20 38 39
f 20 39 40
f 20 40 41
f 20 41 21
f 23 42 62
f 23 62 43
f 23 43 24
f 24 43 44
f 27 45 46
f 27 46 47
f 27 47 28
f 28 47 29
f 29 48 52
f 29 52 35
f 29 35 31
f 29 31 30
f 29 47 49
f 29 49 48
f 32 50 33
f 32 35 50
f 33 50 51
f 33 51 34
f 34 51 37
f 35 52 53
f 35 53 54
f 35 54 50
f 36 55 56
f 36 56 57
f 36 57 38
f 36 37 55
f 37 58 55
f 37 51 59
f 37 59 58
f 38 57 60
f 38 60 39
f 42 61 93
f 42 93 126
f 42 126 146
f 42 146 160
f 42 160 159
f 42 159 158
f 42 158 157
f 42 157 156
f 42 156 155
f 42 155 154
f 42 154 153
f 42 153 152
f 42 152 151
f 42 151 150
f 42 150 138
f 42 138 106
f 42 106 94
f 42 94 62
f 43 62 63
f 43 63 44
f 45 64 65
f 45 65 46
f 46 66 67
f 46 67 68
f 46 68 49
f 46 49 47
f 46 65 69
f 46 69 66
f 48 70 77
f 48 77 52
f 48 49 68
f 48 68 71
f 48 71 72
f 48 72 73
f 48 73 70
f 50 54 74
f 50 74 75
f 50 75 51
f 51 75 76
f 51 76 59
f 52 77 78
f 52 78 79
f 52 79 80
f 52 80 53
f 53 80 74
f 53 74 54
f 55 81 82
f 55 82 83
f 55 83 84
f 55 84 85
f 55 85 56
f 55 58 86
f 55 86 81
f 56 85 87
f 56 87 88
f 56 88 57
f 57 88 60
f 58 59 86
f 59 89 86
f 59 76 75
f 59 75 90
f 59 90 89
f 61 91 92
f 61 92 93
f 62 94 95
f 62 95 96
f 62 96 97
f 62 97 63
f 63 97 98
f 64 99 65
f 65 99 100
f 65 100 69
f 66 69 101
f 66 101 102
f 66 102 73
f 66 73 103
f 66 103 104
f 66 104 105
f 66 105 67
f 67 105 68
f 68 105 71
f 69 100 94
f 69 94 106
f 69 106 101
f 70 107 112
f 70 112 77
f 70 73 107
f 71 105 104
f 71 104 103
f 71 103 72
f 72 103 73
f 73 108 107
f 73 102 109
f 73 109 106
f 73 106 108
f 74 80 79
f 74 79 110
f 74 110 111
f 74 111 75
f 75 111 110
f 75 110 90
f 77 112 78
f 78 113 114
f 78 114 115
f 78 115 116
f 78 116 79
f 78 112 113
f 79 116 110
f 81 86 117
f 81 117 118
f 81 118 82
f 82 118 119
f 82 119 120
f 86 121 117
f 86 89 121
f 89 90 121
f 90 110 121
f 91 122 92
f 92 123 93
f 92 122 123
f 93 123 124
f 93 124 125
f 93 125 126
f 94 100 127
f 94 127 128
f 94 128 129
f 94 129 130
f 94 130 131
f 94 131 132
f 94 132 133
f 94 133 134
f 94 134 135
f 94 135 95
f 95 135 96
f 96 135 98
f 96 98 97
f 98 135 136
f 99 127 100
f 99 137 127
f 101 109 102
f 101 106 109
f 106 138 139
f 106 139 108
f 107 140 142
f 107 142 112
f 107 108 140
f 108 139 140
f 110 116 141
f 110 141 121
f 112 142 113
f 113 125 114
f 113 142 125
f 114 125 124
f 114 124 123
f 114 123 115
f 115 117 116
f 115 123 143
f 115 143 119
f 115 119 117
f 116 117 141
f 117 121 141
f 117 119 118
f 119 143 120
f 120 143 144
f 122 145 123
f 123 145 144
f 123 144 143
f 125 146 126
f 125 142 139
f 125 139 146
f 127 137 128
f 128 137 129
f 129 137 130
f 130 137 131
f 131 137 132
f 132 137 133
f 133 137 134
f 134 137 147
f 134 147 148
f 134 148 149
f 134 149 136
f 134 136 135
f 138 150 139
f 139 142 140
f 139 150 151
f 139 151 152
f 139 152 153
f 139 153 154
f 139 154 155
f 139 155 156
f 139 156 157
f 139 157 158
f 139 158 159
f 139 159 160
f 139 160 146

