# https://github.com/mikedh/trimesh
v -0.04193616 0.01260164 -0.03502968
v -0.04192322 0.01239452 -0.03502968
v -0.04231585 0.01239452 -0.03448368
v -0.04215621 0.01277286 -0.03473597
v -0.04124583 0.01447677 -0.03502968
v -0.03768626 0.01239452 -0.03502968
v -0.04240214 0.01239452 -0.03435565
v -0.04226839 0.01306559 -0.03395651
v -0.04093517 0.01616134 -0.03455146
v -0.03985652 0.01876553 -0.03480375
v -0.04107324 0.01537981 -0.03486023
v -0.04008951 0.01748968 -0.03502968
v -0.03090369 0.01239452 -0.03028515
v -0.01309726 0.03581014 -0.03502968
v 0.00064480 0.03621057 -0.03330884
v 0.00064480 0.02883986 -0.02692256
v 0.00064480 0.02825164 -0.02632385
v -0.04243235 0.01239452 -0.03424645
v -0.04265239 0.01239452 -0.03301890
v -0.04103441 0.01642370 -0.03377577
v -0.03994281 0.01898923 -0.03418997
v -0.03970551 0.01957192 -0.03418997
v -0.03870452 0.02109080 -0.03482634
v -0.03888142 0.02043630 -0.03495813
v -0.03907126 0.01984808 -0.03502968
v -0.03942506 0.01908864 -0.03502968
v -0.03965805 0.01856118 -0.03502968
v -0.03991261 0.01793982 -0.03502968
v -0.02997604 0.01239452 -0.02950193
v 0.00064480 0.02570820 -0.02305916
v 0.00064480 0.02530501 -0.02253575
v -0.01618653 0.03890866 -0.03502968
v -0.01618653 0.03918758 -0.03418997
v -0.01618653 0.03927871 -0.03301890
v -0.01618653 0.03938642 -0.03067300
v -0.01618653 0.04051591 -0.00370825
v -0.01618653 0.04055457 -0.00253342
v -0.01618653 0.04059047 -0.00136235
v -0.01618653 0.04060428 -0.00018751
v -0.01618653 0.04060704 0.00020786
v 0.00064480 0.03621057 0.00160863
v -0.04307523 0.01239452 -0.02371812
v -0.04092223 0.01730189 -0.02950193
v -0.04045625 0.01809447 -0.03301890
v -0.04002911 0.01916873 -0.03301890
v -0.03978749 0.01975971 -0.03301890
v -0.03922658 0.02043630 -0.03418997
v -0.03876492 0.02117089 -0.03418997
v -0.03833777 0.02175635 -0.03418997
v -0.03775098 0.02255721 -0.03418997
v -0.03520536 0.02580762 -0.03502968
v -0.03765175 0.02242190 -0.03496190
v -0.03755251 0.02247713 -0.03502968
v -0.03826011 0.02139458 -0.03502968
v -0.03852330 0.02091958 -0.03502968
v -0.03879081 0.02043630 -0.03502968
v -0.02986818 0.01239452 -0.02940402
v 0.00064480 0.02466984 -0.02156425
v -0.01696747 0.03881200 -0.03502968
v -0.01737305 0.03874296 -0.03502968
v -0.01782177 0.03869049 -0.03493931
v -0.01696747 0.03901360 -0.03418997
v -0.01696747 0.03907711 -0.03301890
v -0.01696747 0.03912959 -0.03184030
v -0.01799004 0.03874296 -0.03418997
v -0.01857682 0.03855793 -0.03418997
v -0.01696747 0.04024804 -0.00370825
v -0.01696747 0.04028394 -0.00253342
v -0.01696747 0.04031155 -0.00136235
v -0.01696747 0.04032260 -0.00018751
v -0.01696747 0.04032536 0.00098356
v -0.01696747 0.04032260 0.00258766
v -0.01618653 0.04059876 0.00137893
v 0.00064480 0.03568035 0.00166135
v -0.01618653 0.04057943 0.00258766
v -0.04312700 0.01239452 -0.02236254
v -0.04295441 0.01339974 -0.01777240
v -0.04255747 0.01457342 -0.01659756
v -0.04099127 0.01748415 -0.02637656
v -0.04055980 0.01809447 -0.03067300
v -0.04100852 0.01752281 -0.02558957
v -0.03957176 0.02149676 0.00343866
v -0.03893319 0.02266768 0.00343866
v -0.03861822 0.02213193 -0.02363528
v -0.03859665 0.02210431 -0.02481011
v -0.03936034 0.02043630 -0.03301890
v -0.04102578 0.01755319 -0.02481011
v -0.04103872 0.01757805 -0.02363528
v -0.04213895 0.01626076 -0.00136235
v -0.04133643 0.01809447 0.00343866
v -0.04130623 0.01815522 0.00343866
v -0.04102146 0.01871859 0.00343866
v -0.03881238 0.02123717 -0.03301890
v -0.03731089 0.02314544 -0.03418997
v -0.03418711 0.02716357 -0.03502968
v -0.02898800 0.01239452 -0.02845512
v 0.00064480 0.02333322 -0.01839747
v -0.02345234 0.01239452 -0.02220815
v -0.02483733 0.01239452 -0.02378213
v -0.01772253 0.03866011 -0.03502968
v -0.01789943 0.03861040 -0.03502968
v -0.02015597 0.03758033 -0.03502968
v -0.01931462 0.03819893 -0.03418997
v -0.01863723 0.03858003 -0.03301890
v -0.01775273 0.03987798 -0.00487933
v -0.01776999 0.03989731 -0.00370825
v -0.01783471 0.03993045 0.00258766
v -0.01729107 0.04018176 0.00258766
v -0.01622967 0.04056838 0.00258766
v -0.03685354 0.02585180 0.00343866
v 0.00064480 0.03551741 0.00167264
v -0.03358738 0.02585180 0.00343866
v -0.01618653 0.03646740 0.00258766
v 0.00064480 0.03457294 0.00170277
v -0.04303208 0.01339974 -0.01543402
v -0.04299756 0.01339974 -0.01659756
v -0.04325644 0.01239452 -0.01777240
v -0.04264807 0.01457342 -0.01426671
v -0.04260493 0.01457342 -0.01543402
v -0.03861822 0.02320067 0.00343866
v -0.03853193 0.02315924 -0.00136235
v -0.03743170 0.02446824 -0.01309188
v -0.03884690 0.02127859 -0.03184030
v -0.03887279 0.02132002 -0.03067300
v -0.03889436 0.02136420 -0.02950193
v -0.03772078 0.02369499 -0.01894723
v -0.03769490 0.02365357 -0.02011830
v -0.04225113 0.01532734 -0.01659756
v -0.04227270 0.01536324 -0.01543402
v -0.04237625 0.01555932 -0.00605416
v -0.04276026 0.01457342 -0.00957490
v -0.04277752 0.01457342 -0.00840383
v -0.04279478 0.01457342 -0.00722523
v -0.04239351 0.01567530 -0.00136235
v -0.04215190 0.01628009 0.00098356
v -0.04188871 0.01691802 0.00332946
v -0.04188871 0.01691802 0.00343866
v -0.03533480 0.02585457 -0.03310927
v -0.03481705 0.02645936 -0.03418997
v -0.03423026 0.02720499 -0.03418997
v -0.03383763 0.02757504 -0.03502968
v 0.00064480 0.02310125 -0.01781005
v -0.02305108 0.01239452 -0.02169605
v -0.02472947 0.03516393 -0.03502968
v -0.02700327 0.03395711 -0.03502968
v -0.02031130 0.03766041 -0.03418997
v -0.02101027 0.03740635 -0.03184030
v -0.02108362 0.03744501 -0.03023243
v -0.02059175 0.03768527 -0.03064664
v -0.02048389 0.03793657 -0.02597742
v -0.02048389 0.03798352 -0.02481011
v -0.02162726 0.03772946 -0.01659379
v -0.02165315 0.03780126 -0.01426671
v -0.02006537 0.03869325 -0.00957490
v -0.02007831 0.03870154 -0.00839630
v -0.02165315 0.03787858 -0.01074221
v -0.01820577 0.03973714 0.00258766
v -0.02784894 0.03445972 0.00258766
v -0.02840984 0.03411452 0.00258766
v -0.02899662 0.03372789 0.00258766
v -0.02929865 0.03351525 0.00258766
v -0.02979483 0.03314243 0.00258766
v -0.03172778 0.03166222 0.00258766
v -0.03307394 0.03062385 0.00258766
v -0.03344500 0.03030627 0.00258766
v -0.03366073 0.03011296 0.00258766
v -0.03421300 0.02952474 0.00258766
v -0.03479979 0.02879567 0.00258766
v -0.03497237 0.02857751 0.00258766
v -0.03524851 0.02820745 0.00258766
v -0.03575332 0.02747010 0.00258766
v -0.03574900 0.02747010 0.00215839
v -0.03725049 0.02525806 0.00343866
v -0.02400030 0.03669385 0.00258766
v -0.02469064 0.03632104 0.00258766
v -0.02506170 0.03611944 0.00258766
v -0.02627842 0.03540142 0.00258766
v -0.03928699 0.01460656 0.00343866
v 0.00064480 0.03446800 0.00169900
v -0.04046488 0.01239452 0.00343866
v -0.04315720 0.01339974 -0.01074974
v -0.04268259 0.01457342 -0.01309188
v -0.04328233 0.01239452 -0.01659756
v -0.03855782 0.02320619 0.00098356
v -0.03854056 0.02331942 0.00343866
v -0.03858371 0.02325038 0.00332946
v -0.03744465 0.02449034 -0.01191704
v -0.03520105 0.02814670 -0.00253342
v -0.03518810 0.02812184 -0.00370825
v -0.03516653 0.02809146 -0.00466846
v -0.03725480 0.02424179 -0.02011830
v -0.04271280 0.01457342 -0.01191704
v -0.04273869 0.01457342 -0.01074974
v -0.04317878 0.01339974 -0.00957490
v -0.04280340 0.01457342 -0.00605416
v -0.04213464 0.01635742 0.00343866
v -0.04240646 0.01571120 0.00332946
v -0.03422163 0.02951093 -0.00136235
v -0.03372113 0.02778769 -0.03418997
v -0.03369093 0.02774626 -0.03502968
v 0.00064480 0.02280852 -0.01659756
v -0.02265414 0.01239452 -0.02113122
v -0.02277926 0.01239452 -0.02132703
v -0.02759006 0.03360086 -0.03502968
v -0.02804741 0.03388254 -0.02597742
v -0.02704642 0.03398196 -0.03418997
v -0.02634745 0.03436582 -0.03418997
v -0.02634745 0.03455913 -0.03067300
v -0.02751671 0.03436582 -0.02246421
v -0.02591599 0.03517497 -0.02363528
v -0.02597208 0.03519983 -0.02246421
v -0.02517388 0.03562511 -0.02246421
v -0.02230465 0.03747263 -0.01426671
v -0.02176533 0.03769908 -0.01552063
v -0.02165315 0.03783716 -0.01309188
v -0.02165315 0.03786754 -0.01191704
v -0.02235212 0.03750024 -0.01191704
v -0.02688678 0.03506451 -0.00136235
v -0.02688678 0.03507003 -0.00253342
v -0.02751671 0.03467512 -0.00018751
v -0.02628273 0.03540418 0.00215839
v -0.02840121 0.03412004 0.00098356
v -0.02751671 0.03467788 -0.00136235
v -0.02834081 0.03408690 -0.01659379
v -0.02892759 0.03365057 -0.01543402
v -0.03361758 0.03011572 -0.00018751
v -0.03164580 0.03159594 -0.00839630
v -0.03365641 0.03011572 0.00215839
v -0.03423889 0.02953302 -0.00018751
v -0.03423457 0.02953302 0.00098356
v -0.03422163 0.02953302 0.00215839
v -0.03482136 0.02878463 0.00098356
v -0.03524851 0.02820745 0.00215839
v -0.03683629 0.02585457 0.00258766
v -0.03523556 0.02820193 0.00098356
v -0.03760429 0.02472783 0.00343866
v -0.03760429 0.02472507 0.00332946
v -0.02626979 0.03537381 -0.00722523
v 0.00064480 0.03380522 0.00162369
v -0.04339882 0.01239452 0.00343866
v -0.03454954 0.01239452 0.00194752
v 0.00064480 0.03052720 0.00034342
v 0.00064480 0.03111542 0.00057688
v 0.00064480 0.03379141 0.00161993
v -0.04333410 0.01276181 -0.00957490
v -0.04341608 0.01239452 -0.00957490
v -0.03807027 0.02402915 0.00343866
v -0.03799692 0.02395735 -0.00253718
v -0.03706928 0.02512827 -0.00957490
v -0.03482568 0.02877082 -0.00018751
v -0.03480842 0.02875425 -0.00136235
v -0.03662919 0.02585457 -0.00743233
v -0.04343334 0.01239452 -0.00840383
v -0.04333842 0.01278114 -0.00840383
v -0.04318309 0.01339974 -0.00840383
v -0.04281635 0.01457342 -0.00253718
v -0.04240646 0.01571120 0.00343866
v -0.04279046 0.01467836 0.00343866
v -0.03360032 0.03010191 -0.00136235
v -0.03359170 0.03005772 -0.00253342
v -0.03295313 0.03055481 -0.00487933
v -0.03313435 0.02840905 -0.03418997
v -0.03310414 0.02837039 -0.03502968
v 0.00064480 0.02191100 -0.01191704
v -0.02230897 0.01239452 -0.02011830
v -0.02839689 0.03301540 -0.03502968
v -0.02811644 0.03393225 -0.02442603
v -0.02751671 0.03442658 -0.02128937
v -0.02751671 0.03448457 -0.02011830
v -0.02669694 0.03496785 -0.01894347
v -0.02517388 0.03577148 -0.01894347
v -0.02751671 0.03453428 -0.01894347
v -0.02674008 0.03498995 -0.01777240
v -0.02453963 0.03623819 -0.01543402
v -0.02233486 0.03748643 -0.01309188
v -0.02456120 0.03625200 -0.01426671
v -0.02684363 0.03504518 -0.00839630
v -0.02686521 0.03505346 -0.00605040
v -0.02751671 0.03458123 -0.01659379
v -0.02832786 0.03408414 -0.01777240
v -0.02892759 0.03362571 -0.01659379
v -0.03298765 0.03056862 -0.00370825
v -0.03162854 0.03158489 -0.00911175
v -0.02685226 0.03505070 -0.00722523
v -0.04315289 0.01339974 0.00343866
v -0.04315720 0.01339974 0.00215463
v -0.04343334 0.01239452 -0.00722523
v -0.03365641 0.01239452 0.00167264
v 0.00064480 0.02981470 -0.00001807
v -0.04342902 0.01239452 -0.00881804
v -0.04317015 0.01339974 -0.00253718
v -0.04282498 0.01457342 0.00343866
v -0.04282498 0.01457342 0.00332946
v -0.04282066 0.01457342 -0.00019128
v -0.03255187 0.02899175 -0.03418997
v -0.03251735 0.02895861 -0.03502968
v 0.00064480 0.02176740 -0.01074597
v -0.02140721 0.01239452 -0.01545285
v -0.02898368 0.03245479 -0.03502968
v -0.02904840 0.03252384 -0.03301890
v -0.02935905 0.03282761 -0.02363528
v -0.02877227 0.03345173 -0.02246421
v -0.02827177 0.03404824 -0.02011830
v -0.02830197 0.03406757 -0.01894347
v -0.02751671 0.03456466 -0.01777240
v -0.02619213 0.03533238 -0.01543402
v -0.02680049 0.03502032 -0.01309188
v -0.02881541 0.03348211 -0.02128937
v -0.03136967 0.03015990 -0.03418997
v -0.03306963 0.01239452 0.00147684
v 0.00064480 0.02894204 -0.00053770
v -0.03089506 0.01239452 0.00074633
v -0.03006665 0.01239452 0.00046768
v -0.02945397 0.01239452 0.00026058
v -0.03133947 0.03012677 -0.03502968
v 0.00064480 0.02197728 -0.00966151
v -0.02186888 0.01239452 -0.00722523
v -0.02144173 0.01239452 -0.00840383
v -0.02119148 0.01239452 -0.00933391
v -0.02111813 0.01239452 -0.00961256
v -0.02086357 0.01239452 -0.01074974
v -0.02079885 0.01239452 -0.01191704
v -0.02098007 0.01239452 -0.01309188
v 0.00064480 0.02892547 -0.00054900
v -0.02869029 0.01239452 -0.00002936
v 0.00064480 0.02253236 -0.00840007
v -0.02546727 0.01239452 -0.00238280
v -0.02535941 0.01239452 -0.00250706
v -0.02528174 0.01239452 -0.00259743
v -0.02463023 0.01239452 -0.00336183
v -0.02409954 0.01239452 -0.00399067
v -0.02305108 0.01239452 -0.00524081
v -0.02247292 0.01239452 -0.00609182
v -0.02236506 0.01239452 -0.00625373
v -0.02218385 0.01239452 -0.00656627
v 0.00064480 0.02835105 -0.00100463
v -0.02850476 0.01239452 -0.00010844
v 0.00064480 0.02334151 -0.00656627
v -0.02581244 0.01239452 -0.00199872
v 0.00064480 0.02764132 -0.00158451
v -0.02768930 0.01239452 -0.00052264
v 0.00064480 0.02577172 -0.00316602
v 0.00064480 0.02704482 -0.00208532
v 0.00064480 0.02366738 -0.00598638
v -0.02619644 0.01239452 -0.00167112
v 0.00064480 0.02367842 -0.00596755
v -0.02755986 0.01239452 -0.00059795
v 0.00064480 0.02576343 -0.00317355
v 0.00064480 0.02426388 -0.00504124
v -0.02711114 0.01239452 -0.00092179
v 0.00064480 0.02466156 -0.00446889
v 0.00064480 0.02524977 -0.00375721
f 1 2 3
f 1 3 4
f 1 4 5
f 1 5 12
f 1 12 28
f 1 28 27
f 1 27 26
f 1 26 25
f 1 25 56
f 1 56 55
f 1 55 54
f 1 54 53
f 1 53 51
f 1 51 95
f 1 95 141
f 1 141 200
f 1 200 263
f 1 263 296
f 1 296 315
f 1 315 299
f 1 299 266
f 1 266 204
f 1 204 145
f 1 145 144
f 1 144 102
f 1 102 101
f 1 101 100
f 1 100 60
f 1 60 59
f 1 59 32
f 1 32 14
f 1 14 6
f 1 6 2
f 2 6 13
f 2 13 29
f 2 29 57
f 2 57 96
f 2 96 99
f 2 99 98
f 2 98 143
f 2 143 203
f 2 203 202
f 2 202 265
f 2 265 298
f 2 298 323
f 2 323 322
f 2 322 321
f 2 321 320
f 2 320 319
f 2 319 318
f 2 318 317
f 2 317 335
f 2 335 334
f 2 334 333
f 2 333 332
f 2 332 331
f 2 331 330
f 2 330 329
f 2 329 328
f 2 328 327
f 2 327 339
f 2 339 345
f 2 345 350
f 2 350 347
f 2 347 341
f 2 341 337
f 2 337 325
f 2 325 314
f 2 314 313
f 2 313 312
f 2 312 310
f 2 310 288
f 2 288 241
f 2 241 180
f 2 180 240
f 2 240 287
f 2 287 253
f 2 253 290
f 2 290 246
f 2 246 183
f 2 183 117
f 2 117 76
f 2 76 42
f 2 42 19
f 2 19 18
f 2 18 7
f 2 7 3
f 3 7 4
f 4 7 8
f 4 8 9
f 4 9 10
f 4 10 11
f 4 11 5
f 5 11 10
f 5 10 12
f 6 14 15
f 6 15 16
f 6 16 17
f 6 17 13
f 7 18 8
f 8 18 19
f 8 19 20
f 8 20 9
f 9 20 21
f 9 21 10
f 10 21 22
f 10 22 23
f 10 23 24
f 10 24 25
f 10 25 26
f 10 26 27
f 10 27 28
f 10 28 12
f 13 17 30
f 13 30 31
f 13 31 29
f 14 32 15
f 15 32 33
f 15 33 34
f 15 34 35
f 15 35 36
f 15 36 37
f 15 37 38
f 15 38 39
f 15 39 40
f 15 40 41
f 15 41 74
f 15 74 111
f 15 111 114
f 15 114 179
f 15 179 239
f 15 239 244
f 15 244 243
f 15 243 242
f 15 242 289
f 15 289 311
f 15 311 324
f 15 324 336
f 15 336 340
f 15 340 343
f 15 343 342
f 15 342 348
f 15 348 352
f 15 352 351
f 15 351 349
f 15 349 346
f 15 346 344
f 15 344 338
f 15 338 326
f 15 326 316
f 15 316 297
f 15 297 264
f 15 264 201
f 15 201 142
f 15 142 97
f 15 97 58
f 15 58 31
f 15 31 30
f 15 30 17
f 15 17 16
f 19 42 43
f 19 43 44
f 19 44 20
f 20 44 45
f 20 45 21
f 21 45 22
f 22 45 46
f 22 46 47
f 22 47 23
f 23 47 48
f 23 48 49
f 23 49 50
f 23 50 51
f 23 51 52
f 23 52 53
f 23 53 54
f 23 54 55
f 23 55 56
f 23 56 24
f 24 56 25
f 29 31 58
f 29 58 57
f 32 59 33
f 33 59 60
f 33 60 61
f 33 61 62
f 33 62 34
f 34 62 63
f 34 63 35
f 35 63 64
f 35 64 36
f 36 64 65
f 36 65 66
f 36 66 67
f 36 67 37
f 37 67 38
f 38 67 68
f 38 68 69
f 38 69 39
f 39 69 70
f 39 70 40
f 40 70 71
f 40 71 72
f 40 72 73
f 40 73 41
f 41 73 75
f 41 75 74
f 42 76 77
f 42 77 78
f 42 78 43
f 43 79 44
f 43 78 79
f 44 79 80
f 44 80 45
f 45 80 79
f 45 79 81
f 45 81 46
f 46 82 83
f 46 83 84
f 46 84 85
f 46 85 86
f 46 86 48
f 46 48 47
f 46 81 87
f 46 87 88
f 46 88 89
f 46 89 90
f 46 90 91
f 46 91 92
f 46 92 82
f 48 86 93
f 48 93 49
f 49 93 50
f 50 93 94
f 50 94 51
f 51 53 52
f 51 94 95
f 57 58 96
f 58 97 98
f 58 98 99
f 58 99 96
f 60 100 61
f 61 100 101
f 61 101 102
f 61 102 66
f 61 66 65
f 61 65 62
f 62 65 63
f 63 65 64
f 66 102 103
f 66 103 104
f 66 104 67
f 67 104 105
f 67 105 68
f 68 105 69
f 69 105 106
f 69 106 107
f 69 107 70
f 70 107 108
f 70 108 71
f 71 108 72
f 72 109 73
f 72 108 110
f 72 110 109
f 73 109 75
f 74 75 111
f 75 109 110
f 75 110 112
f 75 112 113
f 75 113 114
f 75 114 111
f 76 115 116
f 76 116 77
f 76 117 115
f 77 116 118
f 77 118 119
f 77 119 78
f 78 119 81
f 78 81 79
f 81 119 87
f 82 92 91
f 82 91 90
f 82 90 137
f 82 137 196
f 82 196 257
f 82 257 258
f 82 258 292
f 82 292 285
f 82 285 240
f 82 240 180
f 82 180 178
f 82 178 112
f 82 112 110
f 82 110 173
f 82 173 236
f 82 236 247
f 82 247 185
f 82 185 120
f 82 120 83
f 83 120 121
f 83 121 84
f 84 121 122
f 84 122 85
f 85 123 124
f 85 124 125
f 85 125 86
f 85 122 126
f 85 126 127
f 85 127 123
f 86 125 124
f 86 124 123
f 86 123 93
f 87 119 128
f 87 128 129
f 87 129 88
f 88 129 89
f 89 129 130
f 89 130 131
f 89 131 132
f 89 132 133
f 89 133 134
f 89 134 135
f 89 135 136
f 89 136 90
f 90 136 137
f 93 123 138
f 93 138 94
f 94 138 139
f 94 139 95
f 95 140 141
f 95 139 140
f 97 142 143
f 97 143 98
f 102 144 103
f 103 144 145
f 103 145 146
f 103 146 147
f 103 147 148
f 103 148 149
f 103 149 150
f 103 150 151
f 103 151 104
f 104 151 152
f 104 152 153
f 104 153 154
f 104 154 105
f 105 154 106
f 106 154 155
f 106 155 107
f 107 155 156
f 107 156 157
f 107 157 110
f 107 110 108
f 110 158 159
f 110 159 160
f 110 160 161
f 110 161 162
f 110 162 163
f 110 163 164
f 110 164 165
f 110 165 166
f 110 166 167
f 110 167 168
f 110 168 169
f 110 169 170
f 110 170 171
f 110 171 172
f 110 172 173
f 110 157 174
f 110 174 175
f 110 175 176
f 110 176 177
f 110 177 158
f 112 178 114
f 112 114 113
f 114 178 180
f 114 180 179
f 115 117 181
f 115 181 182
f 115 182 118
f 115 118 116
f 117 183 181
f 118 182 129
f 118 129 128
f 118 128 119
f 120 184 121
f 120 185 186
f 120 186 187
f 120 187 122
f 120 122 184
f 121 184 122
f 122 187 188
f 122 188 189
f 122 189 190
f 122 190 126
f 123 127 191
f 123 191 138
f 126 190 127
f 127 190 191
f 129 182 192
f 129 192 193
f 129 193 130
f 130 193 131
f 131 193 181
f 131 181 194
f 131 194 132
f 132 194 133
f 133 195 134
f 133 194 195
f 134 196 135
f 134 195 197
f 134 197 196
f 135 196 136
f 136 196 137
f 138 191 190
f 138 190 139
f 139 190 140
f 140 198 199
f 140 199 200
f 140 200 141
f 140 190 198
f 142 201 202
f 142 202 203
f 142 203 143
f 145 204 205
f 145 205 206
f 145 206 207
f 145 207 146
f 146 207 208
f 146 208 209
f 146 209 147
f 147 210 148
f 147 209 210
f 148 210 211
f 148 211 212
f 148 212 213
f 148 213 149
f 149 213 150
f 150 213 152
f 150 152 151
f 152 213 214
f 152 214 153
f 153 214 213
f 153 213 215
f 153 215 154
f 154 216 155
f 154 215 216
f 155 216 156
f 156 216 217
f 156 217 174
f 156 174 157
f 158 218 219
f 158 219 220
f 158 220 159
f 158 177 221
f 158 221 218
f 159 222 160
f 159 220 223
f 159 223 222
f 160 222 224
f 160 224 161
f 161 224 162
f 162 224 225
f 162 225 163
f 163 225 164
f 164 226 165
f 164 225 227
f 164 227 226
f 165 226 228
f 165 228 166
f 166 228 229
f 166 229 230
f 166 230 231
f 166 231 167
f 167 231 168
f 168 231 169
f 169 232 170
f 169 231 230
f 169 230 232
f 170 232 233
f 170 233 171
f 171 233 172
f 172 234 173
f 172 233 235
f 172 235 188
f 172 188 234
f 173 234 237
f 173 237 236
f 174 217 175
f 175 217 176
f 176 217 238
f 176 238 219
f 176 219 221
f 176 221 177
f 179 180 239
f 180 241 242
f 180 242 243
f 180 243 244
f 180 244 239
f 181 183 245
f 181 245 194
f 181 193 192
f 181 192 182
f 183 246 245
f 185 247 248
f 185 248 186
f 186 248 187
f 187 249 188
f 187 248 249
f 188 235 250
f 188 250 251
f 188 251 189
f 188 249 252
f 188 252 248
f 188 248 234
f 189 251 190
f 190 251 198
f 194 245 253
f 194 253 254
f 194 254 255
f 194 255 195
f 195 255 256
f 195 256 197
f 196 197 257
f 197 256 258
f 197 258 257
f 198 229 259
f 198 259 260
f 198 260 261
f 198 261 262
f 198 262 199
f 198 251 229
f 199 262 263
f 199 263 200
f 201 264 202
f 202 264 265
f 204 266 205
f 205 267 206
f 205 266 267
f 206 267 207
f 207 267 208
f 208 267 209
f 209 267 268
f 209 268 210
f 210 268 269
f 210 269 211
f 211 269 212
f 212 270 271
f 212 271 213
f 212 269 272
f 212 272 270
f 213 271 270
f 213 270 272
f 213 272 273
f 213 273 274
f 213 274 275
f 213 275 216
f 213 216 215
f 216 275 217
f 217 275 276
f 217 276 277
f 217 277 238
f 218 221 219
f 219 278 279
f 219 279 224
f 219 224 223
f 219 223 220
f 219 238 278
f 222 223 224
f 224 280 225
f 224 279 280
f 225 280 281
f 225 281 227
f 226 227 282
f 226 282 259
f 226 259 229
f 226 229 228
f 227 281 283
f 227 283 282
f 229 251 250
f 229 250 232
f 229 232 230
f 232 250 233
f 233 250 235
f 234 248 237
f 236 237 247
f 237 248 247
f 238 277 284
f 238 284 278
f 240 285 286
f 240 286 287
f 241 288 289
f 241 289 242
f 245 246 290
f 245 290 253
f 248 252 249
f 253 287 254
f 254 287 255
f 255 291 292
f 255 292 293
f 255 293 294
f 255 294 256
f 255 287 291
f 256 294 258
f 258 294 293
f 258 293 292
f 259 282 261
f 259 261 260
f 261 295 262
f 261 282 283
f 261 283 295
f 262 295 296
f 262 296 263
f 264 297 265
f 265 297 298
f 266 299 300
f 266 300 301
f 266 301 302
f 266 302 267
f 267 302 303
f 267 303 269
f 267 269 268
f 269 303 272
f 272 303 304
f 272 304 280
f 272 280 305
f 272 305 273
f 273 276 274
f 273 305 276
f 274 276 275
f 276 305 306
f 276 306 307
f 276 307 277
f 277 307 279
f 277 279 284
f 278 284 279
f 279 307 306
f 279 306 305
f 279 305 280
f 280 304 281
f 281 304 303
f 281 303 283
f 283 308 302
f 283 302 301
f 283 301 300
f 283 300 299
f 283 299 309
f 283 309 295
f 283 303 308
f 285 292 286
f 286 292 291
f 286 291 287
f 288 310 289
f 289 310 312
f 289 312 313
f 289 313 314
f 289 314 311
f 295 309 299
f 295 299 315
f 295 315 296
f 297 316 317
f 297 317 318
f 297 318 319
f 297 319 320
f 297 320 321
f 297 321 322
f 297 322 323
f 297 323 298
f 302 308 303
f 311 314 325
f 311 325 324
f 316 326 327
f 316 327 328
f 316 328 329
f 316 329 330
f 316 330 331
f 316 331 332
f 316 332 333
f 316 333 334
f 316 334 335
f 316 335 317
f 324 325 337
f 324 337 336
f 326 338 339
f 326 339 327
f 336 337 340
f 337 341 342
f 337 342 343
f 337 343 340
f 338 344 339
f 339 344 346
f 339 346 345
f 341 347 348
f 341 348 342
f 345 346 349
f 345 349 350
f 347 350 351
f 347 351 352
f 347 352 348
f 349 351 350

