# https://github.com/mikedh/trimesh
v 0.03654938 -0.00999940 0.00326582
v 0.01577586 -0.00999644 -0.00618926
v 0.03356215 -0.00999940 0.00326582
v 0.03637014 -0.01056124 0.00326582
v 0.03627525 -0.00999940 -0.02246546
v 0.01577586 -0.00999644 -0.02396195
v 0.01494998 -0.00999644 -0.00710001
v 0.01904072 -0.00999940 -0.00257653
v 0.01979280 -0.00999940 -0.00175271
v 0.01982092 -0.00999940 -0.00172625
v 0.02068545 -0.00999940 -0.00108760
v 0.02117747 -0.00999940 -0.00078528
v 0.02175031 -0.00999940 -0.00058121
v 0.02413658 -0.00999940 0.00026528
v 0.02459696 -0.00999940 0.00042778
v 0.02512763 -0.00999940 0.00060917
v 0.02543339 -0.00999940 0.00071121
v 0.02642796 -0.00999940 0.00102864
v 0.03335832 -0.01000532 0.00326582
v 0.03609251 -0.01123546 0.00326582
v 0.03531232 -0.01320190 -0.00604944
v 0.03531232 -0.01320782 -0.00722471
v 0.03531232 -0.01321077 -0.00839621
v 0.03508037 -0.01373418 -0.01308596
v 0.03525257 -0.01306884 -0.01894720
v 0.03622254 -0.01015021 -0.02246546
v 0.03625768 -0.00999940 -0.02364074
v 0.03620497 -0.00999940 -0.02550379
v 0.03619442 -0.00999940 -0.02585146
v 0.03616982 -0.00999940 -0.02647499
v 0.03613819 -0.00999940 -0.02715899
v 0.03604682 -0.00999940 -0.02833427
v 0.03591679 -0.00999940 -0.02949442
v 0.03534746 -0.00999940 -0.03413127
v 0.03531232 -0.00999940 -0.03434289
v 0.03506631 -0.00999940 -0.03524230
v 0.03501710 -0.00999940 -0.03534055
v 0.02959441 -0.00999940 -0.03534055
v 0.02788994 -0.00999940 -0.03486440
v 0.02730655 -0.00999940 -0.03469056
v 0.02642796 -0.00999940 -0.03429755
v 0.02545447 -0.00999940 -0.03380250
v 0.02486405 -0.00999940 -0.03349639
v 0.02398546 -0.00999940 -0.03289553
v 0.02394329 -0.00999940 -0.03286530
v 0.02293817 -0.00999940 -0.03210572
v 0.02152188 -0.00999940 -0.03097580
v 0.02087172 -0.00999940 -0.03038627
v 0.01707618 -0.00999940 -0.02596105
v 0.01693561 -0.00999940 -0.02577965
v 0.01630302 -0.00999940 -0.02489159
v 0.01619056 -0.00999940 -0.02469886
v 0.01555797 -0.00999644 -0.02358027
v 0.00064645 -0.01992923 -0.00649536
v 0.01483752 -0.00999644 -0.00724361
v 0.00064645 -0.02040236 -0.00590962
v 0.00064645 -0.02097899 -0.00524829
v 0.00064645 -0.02330324 -0.00284862
v 0.00064645 -0.02391240 -0.00226287
v 0.00064645 -0.02449790 -0.00181317
v 0.00064645 -0.02530222 -0.00143527
v 0.00064645 -0.02998916 0.00067342
v 0.00064645 -0.03771894 0.00326582
v 0.03559698 -0.01240941 0.00326582
v 0.03561104 -0.01240941 0.00098330
v 0.03467973 -0.01475436 -0.01075053
v 0.03468324 -0.01475436 -0.01191824
v 0.03467973 -0.01475436 -0.01308596
v 0.03508037 -0.01375487 -0.01191824
v 0.03467270 -0.01475436 -0.01426123
v 0.03466215 -0.01475436 -0.01543272
v 0.03505225 -0.01365433 -0.01776815
v 0.03503468 -0.01365729 -0.01894720
v 0.03496439 -0.01358041 -0.02246546
v 0.03573404 -0.01123546 -0.02597994
v 0.03531934 -0.01207822 -0.02949442
v 0.03566375 -0.01123546 -0.02833049
v 0.03611711 -0.01006446 -0.02715899
v 0.03603276 -0.01006446 -0.02833049
v 0.03528420 -0.01199246 -0.03066969
v 0.03524554 -0.01189488 -0.03141794
v 0.03519283 -0.01051393 -0.03447138
v 0.03413851 -0.01443500 -0.03497021
v 0.03425097 -0.01358041 -0.03516672
v 0.03415257 -0.01358041 -0.03534055
v 0.00064645 -0.03116017 -0.03534055
v 0.00064645 -0.03115425 -0.03533677
v 0.00064645 -0.02321157 -0.02804706
v 0.00064645 -0.02262607 -0.02738951
v 0.00064645 -0.02014805 -0.02407154
v 0.00064645 -0.01974885 -0.02348580
v 0.00064645 -0.01935852 -0.02246546
v 0.01493944 -0.00999644 -0.02248058
v 0.01422953 -0.00999644 -0.00802586
v 0.00064645 -0.01992332 -0.00650670
v 0.00064645 -0.04020583 0.00326582
v 0.03359730 -0.01709932 0.00326582
v 0.03460592 -0.01475436 0.00215857
v 0.03505225 -0.01375783 -0.00136347
v 0.03396982 -0.01632161 -0.00370645
v 0.03396982 -0.01633048 -0.00487795
v 0.03396631 -0.01633048 -0.00604944
v 0.03422988 -0.01568880 -0.01543272
v 0.03422286 -0.01567105 -0.01660044
v 0.03464458 -0.01475436 -0.01660044
v 0.03461647 -0.01475436 -0.01776815
v 0.03455672 -0.01475436 -0.02011492
v 0.03424745 -0.01464791 -0.03302024
v 0.03511902 -0.01271103 -0.02833049
v 0.03472893 -0.01358041 -0.03066969
v 0.03469027 -0.01358041 -0.03184874
v 0.03462349 -0.01358041 -0.03302024
v 0.03451103 -0.01358041 -0.03419551
v 0.03303851 -0.01681248 -0.03502312
v 0.03376950 -0.01477211 -0.03534055
v 0.03402253 -0.01403875 -0.03534055
v 0.03420880 -0.01460060 -0.03419551
v 0.03399442 -0.01518609 -0.03419551
v 0.03365704 -0.01592832 -0.03419551
v 0.00064645 -0.03976523 -0.03534055
v 0.00064645 -0.01916630 -0.02129397
v 0.01377618 -0.00999644 -0.02016782
v 0.01432794 -0.00999644 -0.02135443
v 0.01402570 -0.00999644 -0.00836220
v 0.00064645 -0.01960691 -0.00722471
v 0.00532409 -0.03981254 0.00326582
v 0.00064645 -0.04014373 -0.02715899
v 0.03314394 -0.01806036 0.00326582
v 0.03360081 -0.01709932 0.00215857
v 0.03311582 -0.01811655 0.00326582
v 0.03186822 -0.02034913 -0.01426123
v 0.03351295 -0.01709932 -0.01543272
v 0.03411391 -0.01546406 -0.02480467
v 0.03173116 -0.02007708 -0.03302024
v 0.03405768 -0.01535169 -0.02912786
v 0.03404714 -0.01532803 -0.02991389
v 0.03426503 -0.01468339 -0.03184874
v 0.03175927 -0.01893861 -0.03484550
v 0.03259218 -0.01710523 -0.03534055
v 0.03291902 -0.01658775 -0.03534055
v 0.03320369 -0.01602886 -0.03534055
v 0.03312637 -0.01701060 -0.03419551
v 0.03171710 -0.02005638 -0.03363622
v 0.00065348 -0.03978593 -0.03534055
v 0.00064645 -0.03978888 -0.03533299
v 0.00064645 -0.01808993 -0.01426123
v 0.01350206 -0.00999644 -0.01894720
v 0.01332985 -0.00999644 -0.00954125
v 0.01262346 -0.00999644 -0.01075431
v 0.00064645 -0.01960099 -0.00723983
v 0.00642761 -0.03955823 0.00326582
v 0.00064645 -0.04014077 -0.02833049
v 0.00064645 -0.04011712 -0.03302024
v 0.00532409 -0.03939263 -0.03184874
v 0.00649438 -0.03921817 -0.03066969
v 0.00766818 -0.03896977 -0.03066969
v 0.03278899 -0.01870205 0.00326582
v 0.03156598 -0.02093759 -0.01308596
v 0.03156598 -0.02093463 -0.01426123
v 0.03148164 -0.02078973 -0.02364074
v 0.03142541 -0.02072468 -0.02833049
v 0.03139729 -0.02069215 -0.03066969
v 0.03137972 -0.02067441 -0.03184874
v 0.03135863 -0.02065962 -0.03302024
v 0.03070847 -0.02027225 -0.03497399
v 0.03055384 -0.02005342 -0.03534055
v 0.03110208 -0.01927572 -0.03534055
v 0.03160464 -0.01855419 -0.03534055
v 0.03223371 -0.01764046 -0.03534055
v 0.03148866 -0.01972223 -0.03441847
v 0.03109154 -0.02055613 -0.03413882
v 0.03042381 -0.02105587 -0.03463387
v 0.03077525 -0.02149056 -0.03302024
v 0.03068739 -0.02138706 -0.03384784
v 0.00183431 -0.03950205 -0.03534055
v 0.00110683 -0.03992786 -0.03454696
v 0.00064645 -0.04006093 -0.03424842
v 0.00064645 -0.01805445 -0.01310863
v 0.01223688 -0.00999644 -0.01186912
v 0.01229662 -0.00999644 -0.01291212
v 0.01231771 -0.00999644 -0.01309729
v 0.01260238 -0.00999644 -0.01079210
v 0.00064645 -0.01923727 -0.00839621
v 0.00649438 -0.03954049 0.00326582
v 0.00064645 -0.04006980 -0.03416906
v 0.00134581 -0.03997813 -0.03376470
v 0.00200651 -0.03990125 -0.03302024
v 0.00649438 -0.03918564 -0.03184874
v 0.00827266 -0.03879827 -0.03131213
v 0.00828320 -0.03880418 -0.03066969
v 0.03057844 -0.02252258 0.00326582
v 0.03060656 -0.02249596 0.00215857
v 0.03062061 -0.02250483 -0.00018820
v 0.03063116 -0.02251075 -0.00253496
v 0.03062764 -0.02249892 -0.00370645
v 0.03100368 -0.02178627 -0.01308596
v 0.03098259 -0.02178627 -0.01426123
v 0.03094042 -0.02172417 -0.01894720
v 0.03088419 -0.02163250 -0.02480467
v 0.03085608 -0.02159406 -0.02715899
v 0.03084202 -0.02157336 -0.02833049
v 0.03079633 -0.02151422 -0.03184874
v 0.03005831 -0.02074834 -0.03534055
v 0.03016023 -0.02060640 -0.03534055
v 0.02931678 -0.02232149 -0.03471701
v 0.02964361 -0.02153787 -0.03511381
v 0.02954521 -0.02142255 -0.03534055
v 0.03027972 -0.02207606 -0.03302024
v 0.02701837 -0.02589659 -0.03360977
v 0.02509952 -0.02874128 -0.02011492
v 0.02590783 -0.02713855 -0.03371936
v 0.02455830 -0.02810256 -0.03460742
v 0.00300811 -0.03919156 -0.03534055
v 0.00415029 -0.03924182 -0.03419551
v 0.00297648 -0.03954936 -0.03419551
v 0.00731323 -0.03886332 -0.03265745
v 0.00532409 -0.03924774 -0.03302024
v 0.00068159 -0.04006389 -0.03416906
v 0.00064645 -0.01805445 -0.01308596
v 0.01225797 -0.00999644 -0.01173685
v 0.00064645 -0.01831467 -0.01191824
v 0.00760141 -0.03910580 0.00326582
v 0.00768927 -0.03890176 -0.03176561
v 0.00809694 -0.03873617 -0.03210194
v 0.01070812 -0.03765980 -0.03256298
v 0.01136883 -0.03744689 -0.03184874
v 0.01235988 -0.03702403 -0.03184874
v 0.01588129 -0.03565195 0.00326582
v 0.01470398 -0.03615465 0.00326582
v 0.01406436 -0.03642078 0.00326582
v 0.00833592 -0.03880418 0.00326582
v 0.03021295 -0.02307259 0.00326582
v 0.03062413 -0.02251075 -0.00136347
v 0.02966119 -0.02381185 0.00326582
v 0.03062061 -0.02248709 -0.00487795
v 0.03055384 -0.02239838 -0.01308596
v 0.03053627 -0.02237768 -0.01485076
v 0.02574265 -0.02811143 -0.01660422
v 0.02468482 -0.02942437 -0.01543272
v 0.02820623 -0.02356938 -0.03480393
v 0.02717652 -0.02466349 -0.03495131
v 0.02839601 -0.02281237 -0.03534055
v 0.02926406 -0.02176261 -0.03534055
v 0.02486757 -0.02846628 -0.03302024
v 0.02378163 -0.02974669 -0.03302024
v 0.02368322 -0.02962545 -0.03391964
v 0.02344073 -0.02934453 -0.03470190
v 0.02488514 -0.02732189 -0.03503067
v 0.00409054 -0.03889289 -0.03534055
v 0.00688448 -0.03873321 -0.03343215
v 0.00652249 -0.03821572 -0.03534055
v 0.00768927 -0.03784905 -0.03534055
v 0.00768927 -0.03861197 -0.03303913
v 0.00883847 -0.03821572 -0.03302024
v 0.00999119 -0.03779582 -0.03298245
v 0.01296787 -0.03645331 -0.03362488
v 0.01549823 -0.03537103 -0.03380250
v 0.01470398 -0.03589738 -0.03302024
v 0.01470398 -0.03600088 -0.03184874
v 0.01658768 -0.03533554 0.00326582
v 0.02587268 -0.02827111 0.00326582
v 0.02474457 -0.02948351 -0.00722471
v 0.02472348 -0.02946872 -0.01075053
v 0.02470942 -0.02945689 -0.01309352
v 0.02521549 -0.02882112 -0.01426501
v 0.02839952 -0.02497398 -0.01426501
v 0.02575671 -0.02813213 -0.01543272
v 0.02469888 -0.02944211 -0.01426501
v 0.02327555 -0.03038837 -0.02949442
v 0.02325798 -0.03037063 -0.03066969
v 0.02382731 -0.02978808 -0.03066969
v 0.02583402 -0.02588180 -0.03534055
v 0.02638227 -0.02522533 -0.03534055
v 0.02321932 -0.03032923 -0.03302024
v 0.02252348 -0.03072252 -0.03394610
v 0.02229504 -0.03055101 -0.03472835
v 0.02266054 -0.02977034 -0.03511381
v 0.02288194 -0.02928538 -0.03534055
v 0.02330718 -0.02881225 -0.03534055
v 0.02365159 -0.02842192 -0.03534055
v 0.02404520 -0.02797540 -0.03534055
v 0.02475159 -0.02716517 -0.03534055
v 0.02522252 -0.02660924 -0.03534055
v 0.00830077 -0.03763318 -0.03534055
v 0.00845540 -0.03769232 -0.03500422
v 0.00999119 -0.03739070 -0.03418417
v 0.01227905 -0.03655681 -0.03409348
v 0.01183624 -0.03646810 -0.03483794
v 0.01261643 -0.03630841 -0.03441469
v 0.01701293 -0.03433605 -0.03411237
v 0.01768769 -0.03413202 -0.03367023
v 0.01626436 -0.03515516 -0.03302024
v 0.01577586 -0.03541242 -0.03302024
v 0.01567395 -0.03546565 -0.03302024
v 0.01108416 -0.03657455 -0.03534055
v 0.01159726 -0.03635573 -0.03534055
v 0.01427874 -0.03535033 -0.03490974
v 0.01505893 -0.03515812 -0.03458475
v 0.01588832 -0.03495408 -0.03418795
v 0.01575126 -0.03550705 -0.03184874
v 0.01646820 -0.03527048 -0.01839169
v 0.01717459 -0.03499844 0.00326582
v 0.02584105 -0.02830364 0.00326582
v 0.02475511 -0.02948942 -0.00370645
v 0.02475511 -0.02949238 -0.00487795
v 0.02408386 -0.03002761 -0.01309352
v 0.02408386 -0.03000987 -0.01426501
v 0.02338450 -0.03049187 -0.02129019
v 0.02333530 -0.03045342 -0.02480467
v 0.02328961 -0.03040611 -0.02831915
v 0.02263594 -0.03080236 -0.03302024
v 0.02119153 -0.03177819 -0.03366645
v 0.02013370 -0.03185212 -0.03497021
v 0.01998609 -0.03175453 -0.03534055
v 0.02096309 -0.03107737 -0.03534055
v 0.02142348 -0.03075505 -0.03534055
v 0.02198929 -0.03025234 -0.03534055
v 0.02224233 -0.02998621 -0.03534055
v 0.00879630 -0.03744985 -0.03534055
v 0.00989982 -0.03703290 -0.03534055
v 0.01659120 -0.03417933 -0.03490974
v 0.01737491 -0.03392502 -0.03445248
v 0.01705510 -0.03464359 -0.03302024
v 0.01634168 -0.03519952 -0.03184874
v 0.01577586 -0.03549522 -0.03184874
v 0.01346340 -0.03549818 -0.03534055
v 0.01346691 -0.03550114 -0.03533299
v 0.01402921 -0.03522613 -0.03534055
v 0.01467586 -0.03490677 -0.03534055
v 0.01581804 -0.03433901 -0.03534055
v 0.01636628 -0.03405809 -0.03534055
v 0.01646117 -0.03526753 -0.01917394
v 0.01800750 -0.03435084 -0.00722471
v 0.01803561 -0.03436562 -0.00370645
v 0.01806021 -0.03441294 0.00326582
v 0.02529632 -0.02885661 0.00326582
v 0.02475159 -0.02948055 -0.00253496
v 0.02347236 -0.03055988 -0.01191824
v 0.02347587 -0.03056284 -0.01309352
v 0.02346533 -0.03055692 -0.01426501
v 0.02345479 -0.03055101 -0.01543272
v 0.02341261 -0.03051848 -0.01894720
v 0.02180303 -0.03138786 -0.03302024
v 0.02272028 -0.03085559 -0.02715521
v 0.02121964 -0.03179593 -0.03302024
v 0.02056948 -0.03224541 -0.03302024
v 0.01978226 -0.03278655 -0.03302024
v 0.01775095 -0.03417342 -0.03302024
v 0.01791261 -0.03310591 -0.03534055
v 0.01701293 -0.03367663 -0.03534055
v 0.01705510 -0.03472047 -0.03184874
v 0.01705510 -0.03473821 -0.03066969
v 0.01705510 -0.03476778 -0.02831915
v 0.02146213 -0.03196153 -0.01075053
v 0.02471294 -0.02944211 0.00326582
v 0.02472699 -0.02945985 0.00098330
v 0.01782475 -0.03422664 -0.02949442
v 0.02137076 -0.03190239 -0.02129019
v 0.02192603 -0.03147361 -0.02363696
v 0.02125127 -0.03181959 -0.03066969
f 1 2 3
f 1 3 19
f 1 19 63
f 1 63 96
f 1 96 126
f 1 126 151
f 1 151 184
f 1 184 222
f 1 222 231
f 1 231 230
f 1 230 229
f 1 229 228
f 1 228 260
f 1 260 302
f 1 302 335
f 1 335 355
f 1 355 336
f 1 336 303
f 1 303 261
f 1 261 234
f 1 234 232
f 1 232 191
f 1 191 157
f 1 157 130
f 1 130 128
f 1 128 97
f 1 97 64
f 1 64 20
f 1 20 4
f 1 4 5
f 1 5 6
f 1 6 2
f 2 7 8
f 2 8 9
f 2 9 10
f 2 10 11
f 2 11 12
f 2 12 13
f 2 13 14
f 2 14 15
f 2 15 16
f 2 16 17
f 2 17 18
f 2 18 3
f 2 6 53
f 2 53 93
f 2 93 123
f 2 123 122
f 2 122 147
f 2 147 181
f 2 181 180
f 2 180 179
f 2 179 220
f 2 220 182
f 2 182 149
f 2 149 148
f 2 148 124
f 2 124 94
f 2 94 55
f 2 55 7
f 3 18 19
f 4 20 21
f 4 21 22
f 4 22 23
f 4 23 24
f 4 24 25
f 4 25 5
f 5 25 26
f 5 26 27
f 5 27 6
f 6 27 28
f 6 28 29
f 6 29 30
f 6 30 31
f 6 31 32
f 6 32 33
f 6 33 34
f 6 34 35
f 6 35 36
f 6 36 37
f 6 37 38
f 6 38 39
f 6 39 40
f 6 40 41
f 6 41 42
f 6 42 43
f 6 43 44
f 6 44 45
f 6 45 46
f 6 46 47
f 6 47 48
f 6 48 49
f 6 49 50
f 6 50 51
f 6 51 52
f 6 52 53
f 7 54 8
f 7 55 54
f 8 54 9
f 9 54 10
f 10 54 56
f 10 56 57
f 10 57 58
f 10 58 11
f 11 58 59
f 11 59 12
f 12 59 60
f 12 60 61
f 12 61 62
f 12 62 13
f 13 62 14
f 14 62 15
f 15 62 16
f 16 62 17
f 17 62 19
f 17 19 18
f 19 62 63
f 20 64 65
f 20 65 21
f 21 66 67
f 21 67 22
f 21 65 66
f 22 67 23
f 23 67 68
f 23 68 69
f 23 69 24
f 24 69 70
f 24 70 71
f 24 71 72
f 24 72 25
f 25 72 73
f 25 73 27
f 25 27 26
f 27 73 74
f 27 74 75
f 27 75 28
f 28 75 76
f 28 76 29
f 29 76 77
f 29 77 30
f 30 77 78
f 30 78 31
f 31 79 32
f 31 78 80
f 31 80 79
f 32 79 33
f 33 79 81
f 33 81 82
f 33 82 34
f 34 82 35
f 35 82 36
f 36 83 84
f 36 84 37
f 36 82 83
f 37 84 85
f 37 85 116
f 37 116 115
f 37 115 141
f 37 141 140
f 37 140 139
f 37 139 169
f 37 169 168
f 37 168 167
f 37 167 166
f 37 166 204
f 37 204 203
f 37 203 207
f 37 207 243
f 37 243 242
f 37 242 273
f 37 273 272
f 37 272 283
f 37 283 282
f 37 282 281
f 37 281 280
f 37 280 279
f 37 279 278
f 37 278 318
f 37 318 317
f 37 317 316
f 37 316 315
f 37 315 314
f 37 314 349
f 37 349 350
f 37 350 331
f 37 331 330
f 37 330 329
f 37 329 328
f 37 328 326
f 37 326 296
f 37 296 295
f 37 295 320
f 37 320 319
f 37 319 284
f 37 284 252
f 37 252 251
f 37 251 249
f 37 249 213
f 37 213 175
f 37 175 144
f 37 144 120
f 37 120 86
f 37 86 38
f 38 86 39
f 39 86 40
f 40 86 41
f 41 86 87
f 41 87 42
f 42 87 43
f 43 87 44
f 44 87 45
f 45 87 88
f 45 88 46
f 46 88 47
f 47 88 89
f 47 89 48
f 48 89 90
f 48 90 91
f 48 91 49
f 49 91 50
f 50 91 51
f 51 91 52
f 52 91 92
f 52 92 53
f 53 92 93
f 54 55 94
f 54 94 95
f 54 95 125
f 54 125 150
f 54 150 183
f 54 183 221
f 54 221 219
f 54 219 178
f 54 178 146
f 54 146 121
f 54 121 92
f 54 92 91
f 54 91 90
f 54 90 89
f 54 89 88
f 54 88 87
f 54 87 86
f 54 86 120
f 54 120 145
f 54 145 177
f 54 177 185
f 54 185 153
f 54 153 152
f 54 152 127
f 54 127 96
f 54 96 63
f 54 63 62
f 54 62 61
f 54 61 60
f 54 60 59
f 54 59 58
f 54 58 57
f 54 57 56
f 64 97 98
f 64 98 99
f 64 99 65
f 65 99 66
f 66 99 100
f 66 100 101
f 66 101 67
f 67 101 102
f 67 102 68
f 68 70 69
f 68 102 103
f 68 103 70
f 70 103 71
f 71 103 104
f 71 104 105
f 71 105 73
f 71 73 72
f 73 105 106
f 73 106 107
f 73 107 108
f 73 108 74
f 74 109 75
f 74 108 110
f 74 110 109
f 75 109 110
f 75 110 76
f 76 110 111
f 76 111 80
f 76 80 77
f 77 80 78
f 79 80 81
f 80 111 112
f 80 112 81
f 81 112 113
f 81 113 82
f 82 113 83
f 83 114 115
f 83 115 116
f 83 116 85
f 83 85 84
f 83 113 117
f 83 117 118
f 83 118 119
f 83 119 114
f 92 121 122
f 92 122 123
f 92 123 93
f 94 124 125
f 94 125 95
f 96 127 126
f 97 128 129
f 97 129 101
f 97 101 100
f 97 100 99
f 97 99 98
f 101 129 128
f 101 128 102
f 102 128 130
f 102 130 131
f 102 131 132
f 102 132 103
f 103 132 104
f 104 133 106
f 104 106 105
f 104 132 134
f 104 134 133
f 106 133 135
f 106 135 107
f 107 135 136
f 107 136 118
f 107 118 137
f 107 137 108
f 108 137 118
f 108 118 117
f 108 117 111
f 108 111 110
f 111 117 112
f 112 117 113
f 114 138 139
f 114 139 140
f 114 140 141
f 114 141 115
f 114 119 142
f 114 142 143
f 114 143 138
f 118 136 119
f 119 136 135
f 119 135 134
f 119 134 143
f 119 143 142
f 120 144 145
f 121 146 147
f 121 147 122
f 124 148 125
f 125 148 149
f 125 149 150
f 126 127 152
f 126 152 153
f 126 153 154
f 126 154 155
f 126 155 156
f 126 156 151
f 130 157 158
f 130 158 159
f 130 159 131
f 131 159 134
f 131 134 132
f 133 134 135
f 134 159 160
f 134 160 161
f 134 161 162
f 134 162 163
f 134 163 164
f 134 164 143
f 138 165 166
f 138 166 167
f 138 167 168
f 138 168 169
f 138 169 139
f 138 143 170
f 138 170 171
f 138 171 172
f 138 172 165
f 143 164 173
f 143 173 174
f 143 174 171
f 143 171 170
f 144 175 176
f 144 176 145
f 145 176 177
f 146 178 179
f 146 179 180
f 146 180 181
f 146 181 147
f 149 182 150
f 150 182 183
f 151 156 184
f 153 185 186
f 153 186 187
f 153 187 154
f 154 188 155
f 154 187 186
f 154 186 188
f 155 188 156
f 156 188 189
f 156 189 190
f 156 190 184
f 157 191 192
f 157 192 193
f 157 193 194
f 157 194 158
f 158 194 159
f 159 194 195
f 159 195 196
f 159 196 197
f 159 197 198
f 159 198 160
f 160 198 199
f 160 199 161
f 161 199 162
f 162 199 200
f 162 200 201
f 162 201 202
f 162 202 163
f 163 202 164
f 164 202 173
f 165 172 203
f 165 203 204
f 165 204 166
f 171 174 172
f 172 205 206
f 172 206 207
f 172 207 203
f 172 174 205
f 173 208 209
f 173 209 174
f 173 202 210
f 173 210 208
f 174 209 211
f 174 211 212
f 174 212 205
f 175 213 214
f 175 214 215
f 175 215 176
f 176 215 216
f 176 216 217
f 176 217 188
f 176 188 177
f 177 188 218
f 177 218 185
f 178 219 179
f 179 219 220
f 182 220 183
f 183 220 221
f 184 190 222
f 185 218 186
f 186 218 188
f 188 223 189
f 188 217 216
f 188 216 223
f 189 223 224
f 189 224 225
f 189 225 226
f 189 226 227
f 189 227 190
f 190 227 228
f 190 228 229
f 190 229 230
f 190 230 231
f 190 231 222
f 191 232 192
f 192 232 193
f 193 232 233
f 193 233 194
f 194 233 232
f 194 232 234
f 194 234 195
f 195 234 235
f 195 235 196
f 196 236 197
f 196 235 236
f 197 236 237
f 197 237 198
f 198 237 199
f 199 237 200
f 200 237 201
f 201 237 238
f 201 238 202
f 202 238 239
f 202 239 210
f 205 212 240
f 205 240 241
f 205 241 206
f 206 241 242
f 206 242 243
f 206 243 207
f 208 244 209
f 208 210 244
f 209 244 245
f 209 245 211
f 210 239 245
f 210 245 244
f 211 245 246
f 211 246 212
f 212 247 248
f 212 248 241
f 212 241 240
f 212 246 247
f 213 249 216
f 213 216 214
f 214 216 215
f 216 250 251
f 216 251 252
f 216 252 253
f 216 253 254
f 216 254 224
f 216 224 223
f 216 249 250
f 219 221 220
f 224 254 225
f 225 227 226
f 225 254 255
f 225 255 256
f 225 256 257
f 225 257 258
f 225 258 227
f 227 259 228
f 227 258 259
f 228 259 260
f 234 261 262
f 234 262 263
f 234 263 264
f 234 264 235
f 235 264 236
f 236 264 265
f 236 265 266
f 236 266 237
f 237 267 238
f 237 266 265
f 237 265 267
f 238 267 239
f 239 267 265
f 239 265 268
f 239 268 269
f 239 269 270
f 239 270 271
f 239 271 245
f 241 248 272
f 241 272 273
f 241 273 242
f 245 274 246
f 245 271 274
f 246 274 275
f 246 275 276
f 246 276 247
f 247 276 277
f 247 277 278
f 247 278 279
f 247 279 280
f 247 280 281
f 247 281 282
f 247 282 248
f 248 282 283
f 248 283 272
f 249 251 250
f 252 284 285
f 252 285 253
f 253 285 254
f 254 285 255
f 255 285 286
f 255 286 287
f 255 287 256
f 256 287 288
f 256 288 289
f 256 289 257
f 257 290 291
f 257 291 292
f 257 292 293
f 257 293 294
f 257 294 258
f 257 289 288
f 257 288 295
f 257 295 296
f 257 296 297
f 257 297 298
f 257 298 299
f 257 299 290
f 258 294 259
f 259 294 300
f 259 300 301
f 259 301 260
f 260 301 302
f 261 303 304
f 261 304 305
f 261 305 262
f 262 305 306
f 262 306 263
f 263 306 264
f 264 306 307
f 264 307 268
f 264 268 265
f 268 307 308
f 268 308 309
f 268 309 310
f 268 310 269
f 269 311 270
f 269 310 311
f 270 311 274
f 270 274 271
f 274 311 275
f 275 311 312
f 275 312 276
f 276 313 314
f 276 314 315
f 276 315 316
f 276 316 317
f 276 317 318
f 276 318 277
f 276 312 291
f 276 291 313
f 277 318 278
f 284 319 285
f 285 319 286
f 286 319 320
f 286 320 287
f 287 320 288
f 288 320 295
f 290 299 321
f 290 321 322
f 290 322 291
f 291 322 314
f 291 314 313
f 291 312 323
f 291 323 292
f 292 323 324
f 292 324 293
f 293 324 325
f 293 325 294
f 294 325 300
f 296 326 327
f 296 327 297
f 297 327 328
f 297 328 298
f 298 328 329
f 298 329 330
f 298 330 331
f 298 331 299
f 299 331 321
f 300 325 301
f 301 332 333
f 301 333 334
f 301 334 335
f 301 335 302
f 301 325 332
f 303 336 337
f 303 337 304
f 304 337 338
f 304 338 339
f 304 339 305
f 305 339 306
f 306 339 340
f 306 340 341
f 306 341 307
f 307 341 342
f 307 342 308
f 308 342 311
f 308 311 309
f 309 311 310
f 311 343 312
f 311 342 344
f 311 344 343
f 312 343 345
f 312 345 346
f 312 346 347
f 312 347 348
f 312 348 323
f 314 322 349
f 321 331 350
f 321 350 349
f 321 349 322
f 323 348 351
f 323 351 324
f 324 351 352
f 324 352 353
f 324 353 332
f 324 332 325
f 326 328 327
f 332 353 333
f 333 354 334
f 333 353 354
f 334 354 335
f 335 354 339
f 335 339 338
f 335 338 355
f 336 355 356
f 336 356 337
f 337 356 338
f 338 356 355
f 339 354 340
f 340 354 341
f 341 354 353
f 341 353 357
f 341 357 358
f 341 358 359
f 341 359 342
f 342 359 360
f 342 360 344
f 343 360 345
f 343 344 360
f 345 360 351
f 345 351 346
f 346 351 347
f 347 351 348
f 351 360 357
f 351 357 352
f 352 357 353
f 357 360 358
f 358 360 359

