# https://github.com/mikedh/trimesh
v 0.03655765 -0.01592471 0.04268724
v 0.03625409 -0.01592471 0.04268724
v 0.03530571 -0.01944063 0.04265169
v 0.03649020 -0.01709526 0.04266749
v 0.03760920 -0.01203420 0.04263983
v 0.03763301 -0.01123396 0.04264774
v 0.03402996 -0.02114752 0.04263193
v 0.03402996 -0.02129650 0.04263193
v 0.03750802 -0.01123396 0.04264774
v 0.03753778 -0.01049332 0.04263588
v 0.03933137 0.00593706 0.04239096
v 0.02291725 -0.03351287 0.04230800
v 0.03408353 -0.02129650 0.04263193
v 0.03523032 -0.02004081 0.04262403
v 0.03641877 -0.01773375 0.04263588
v 0.03806157 -0.01241729 0.04234355
v 0.03933137 -0.00771378 0.04218554
v 0.03933137 -0.00653896 0.04228825
v 0.04050395 -0.00185247 0.04210258
v 0.04050395 -0.00067766 0.04214209
v 0.04050395 0.00166771 0.04217369
v 0.04050395 0.00593706 0.04221714
v 0.03933137 0.00166771 0.04239886
v 0.03933137 0.00401309 0.04239491
v 0.04007936 0.00593706 0.04228430
v 0.03890678 0.00593706 0.04229220
v 0.02242520 -0.03400237 0.04228430
v 0.02760756 -0.02999268 0.04217764
v 0.02878014 -0.02881787 0.04220924
v 0.02995272 -0.02764731 0.04218949
v 0.03111141 -0.02758346 0.04181420
v 0.03198043 -0.02647250 0.04177865
v 0.03177210 -0.02714929 0.04156137
v 0.03300222 -0.02493587 0.04166803
v 0.03870639 -0.01525217 0.04137570
v 0.03887900 -0.01446896 0.04154162
v 0.03902979 -0.01357933 0.04162853
v 0.03917859 -0.01240878 0.04169569
v 0.03815681 -0.01357933 0.04214998
v 0.03933137 -0.00999956 0.04190901
v 0.03993849 -0.01075722 0.04145866
v 0.04000992 -0.00999956 0.04150607
v 0.04022023 -0.00771378 0.04164828
v 0.04050395 -0.00302303 0.04200382
v 0.04129757 -0.00185247 0.04158903
v 0.04136304 -0.00067766 0.04162063
v 0.04139082 0.00049290 0.04163248
v 0.04140669 0.00166771 0.04164433
v 0.04142257 0.00283827 0.04165223
v 0.04142455 0.00401309 0.04166014
v 0.04139082 0.00518364 0.04167198
v 0.04135312 0.00593706 0.04167988
v 0.03815879 0.00593706 0.04211048
v 0.02242520 -0.03346605 0.04219739
v 0.02242520 -0.03470471 0.04201172
v 0.03695843 0.00593706 0.04175494
v 0.03630568 0.00593706 0.04152187
v 0.02295097 -0.03471748 0.04182605
v 0.02993883 -0.02883064 0.04184580
v 0.03071063 -0.02845180 0.04164828
v 0.02943488 -0.03066948 0.04038020
v 0.03083761 -0.02863909 0.04085820
v 0.03142489 -0.02783034 0.04085820
v 0.03183956 -0.02724293 0.04085820
v 0.03234946 -0.02647250 0.04085820
v 0.03280580 -0.02575313 0.04085820
v 0.03316888 -0.02516573 0.04085820
v 0.03414504 -0.02370998 0.04051847
v 0.03639893 -0.02002804 0.04027749
v 0.03764095 -0.01780611 0.04043551
v 0.03887305 -0.01557141 0.04059747
v 0.04008332 -0.01331117 0.04053032
v 0.04024007 -0.01240878 0.04071993
v 0.03976389 -0.01240878 0.04130855
v 0.03985714 -0.01154043 0.04139151
v 0.04080751 -0.00771378 0.04122559
v 0.04090870 -0.00653896 0.04130855
v 0.04100591 -0.00536840 0.04138360
v 0.04113289 -0.00386158 0.04147842
v 0.04042062 -0.00536840 0.04178655
v 0.04120035 -0.00302303 0.04152582
v 0.04188485 -0.00185247 0.04117423
v 0.04194834 -0.00067766 0.04123744
v 0.04197612 0.00049290 0.04126904
v 0.04199199 0.00166771 0.04126509
v 0.04200787 0.00283827 0.04121769
v 0.04269435 0.00049290 0.04068438
v 0.04261895 0.00166771 0.04067648
v 0.04249594 0.00283827 0.04063303
v 0.04183922 0.00593706 0.04083845
v 0.02242520 -0.03268709 0.04199197
v 0.02242520 -0.03522401 0.04177865
v 0.03574220 0.00593706 0.04085030
v 0.02242520 -0.03558156 0.04161273
v 0.02258194 -0.03551346 0.04158508
v 0.02242520 -0.03578162 0.04150607
v 0.02242520 -0.03614769 0.04127299
v 0.02242520 -0.03732676 0.04048686
v 0.02242520 -0.03754810 0.04033280
v 0.02355413 -0.03648821 0.04032094
v 0.02474456 -0.03533468 0.04033280
v 0.02711353 -0.03301059 0.04034860
v 0.02829008 -0.03184855 0.04036045
v 0.02943488 -0.03066948 0.04008787
v 0.03181972 -0.02721740 0.03998121
v 0.03414504 -0.02370998 0.03990220
v 0.03639893 -0.02002804 0.04026959
v 0.03764095 -0.01780611 0.04016293
v 0.03887305 -0.01557141 0.04012737
v 0.04008332 -0.01331117 0.04012342
v 0.04116067 -0.00980375 0.04038415
v 0.04125591 -0.00888859 0.04051452
v 0.04070037 -0.00888859 0.04110313
v 0.04244237 -0.00302303 0.04049476
v 0.04254753 -0.00185247 0.04058957
v 0.04178763 -0.00302303 0.04108337
v 0.04265467 -0.00067766 0.04065278
v 0.04269435 0.00049290 0.03984690
v 0.04261895 0.00166771 0.03988640
v 0.04249594 0.00283827 0.03996146
v 0.04236698 0.00401309 0.04049476
v 0.04228960 0.00471542 0.04035255
v 0.04228960 0.00471542 0.04022614
v 0.03755563 0.00593706 0.00233777
v 0.02242520 -0.03245724 0.04185370
v 0.03528984 0.00593706 0.04024193
v 0.03524421 0.00593706 0.04016688
v 0.02242520 -0.03754810 0.04019058
v 0.02355413 -0.03648821 0.04018663
v 0.02474456 -0.03533468 0.04015898
v 0.02711353 -0.03301059 0.04008392
v 0.02829008 -0.03184855 0.04003652
v 0.02584572 -0.02830282 0.00326611
v 0.02587746 -0.02826877 0.00326611
v 0.02963130 -0.02385045 0.00326611
v 0.03021660 -0.02307149 0.00326611
v 0.03058167 -0.02251814 0.00326611
v 0.03060349 -0.02248409 0.00326611
v 0.03278992 -0.01869999 0.00326611
v 0.03311531 -0.01811684 0.00326611
v 0.03360140 -0.01709526 0.00326611
v 0.03653781 -0.00999956 0.00233777
v 0.04116067 -0.00980375 0.04018663
v 0.04226579 -0.00479802 0.04028144
v 0.04232730 -0.00419359 0.04036045
v 0.04244237 -0.00302303 0.04002466
v 0.04265467 -0.00067766 0.03985875
v 0.03792269 0.00283827 0.00233777
v 0.03786515 0.00401309 0.00233777
v 0.04236698 0.00401309 0.04010762
v 0.03766674 0.00527303 0.00233777
v 0.03761317 0.00559653 0.00233777
v 0.03490493 0.00593706 0.00233777
v 0.02242520 -0.03147823 0.04101621
v 0.03502596 0.00593706 0.03964147
v 0.02242520 -0.03111216 0.00326611
v 0.02408784 -0.02989904 0.00326611
v 0.02467909 -0.02946487 0.00326611
v 0.02471480 -0.02943507 0.00326611
v 0.02530208 -0.02885192 0.00326611
v 0.03654972 -0.00995699 0.00233777
v 0.03298833 -0.00999956 0.00233777
v 0.04226579 -0.00479802 0.04026959
v 0.04232730 -0.00419359 0.04017478
v 0.04254753 -0.00185247 0.03992591
v 0.03676598 -0.00888859 0.00233777
v 0.03687113 -0.00787553 0.00233777
v 0.03783142 0.00166771 0.00233777
v 0.03791078 0.00267652 0.00233777
v 0.03494858 0.00593706 0.03849980
v 0.02242520 -0.02802189 0.00326611
v 0.02242520 -0.02778778 0.00685703
v 0.02242520 -0.02773670 0.00803031
v 0.02242520 -0.02771541 0.00859521
v 0.02242520 -0.02769413 0.00920358
v 0.02242520 -0.02763880 0.01085880
v 0.02242520 -0.02762603 0.01155012
v 0.02242520 -0.02762603 0.01202022
v 0.02242520 -0.03006504 0.03960197
v 0.02242520 -0.02842626 0.03734234
v 0.02242520 -0.02845606 0.03742924
v 0.02242520 -0.02892003 0.03842870
v 0.02242520 -0.02912860 0.03864992
v 0.02242520 -0.02948615 0.03902126
v 0.02242520 -0.02763880 0.01272339
f 1 2 3
f 1 3 4
f 1 4 5
f 1 5 6
f 1 6 9
f 1 9 2
f 2 7 8
f 2 8 3
f 2 9 10
f 2 10 11
f 2 11 12
f 2 12 7
f 3 8 13
f 3 13 14
f 3 14 4
f 4 14 15
f 4 15 5
f 5 15 16
f 5 16 17
f 5 17 18
f 5 18 19
f 5 19 20
f 5 20 6
f 6 20 21
f 6 21 22
f 6 22 23
f 6 23 24
f 6 24 11
f 6 11 9
f 7 12 8
f 8 12 13
f 9 11 10
f 11 24 25
f 11 25 22
f 11 22 52
f 11 52 90
f 11 90 124
f 11 124 153
f 11 153 170
f 11 170 155
f 11 155 127
f 11 127 126
f 11 126 93
f 11 93 57
f 11 57 56
f 11 56 53
f 11 53 26
f 11 26 27
f 11 27 12
f 12 27 28
f 12 28 29
f 12 29 13
f 13 29 30
f 13 30 14
f 14 30 31
f 14 31 32
f 14 32 33
f 14 33 34
f 14 34 35
f 14 35 15
f 15 35 36
f 15 36 37
f 15 37 38
f 15 38 39
f 15 39 16
f 16 39 17
f 17 40 41
f 17 41 42
f 17 42 43
f 17 43 44
f 17 44 18
f 17 39 40
f 18 44 19
f 19 44 45
f 19 45 46
f 19 46 20
f 20 46 47
f 20 47 48
f 20 48 49
f 20 49 21
f 21 49 22
f 22 49 50
f 22 50 51
f 22 51 52
f 22 25 23
f 23 25 24
f 26 53 27
f 27 54 91
f 27 91 125
f 27 125 154
f 27 154 179
f 27 179 184
f 27 184 183
f 27 183 182
f 27 182 181
f 27 181 180
f 27 180 185
f 27 185 178
f 27 178 177
f 27 177 176
f 27 176 175
f 27 175 174
f 27 174 173
f 27 173 172
f 27 172 171
f 27 171 156
f 27 156 128
f 27 128 99
f 27 99 98
f 27 98 97
f 27 97 96
f 27 96 94
f 27 94 92
f 27 92 55
f 27 55 28
f 27 53 56
f 27 56 57
f 27 57 54
f 28 55 58
f 28 58 59
f 28 59 29
f 29 59 30
f 30 59 31
f 31 59 60
f 31 60 32
f 32 60 33
f 33 60 61
f 33 61 62
f 33 62 63
f 33 63 64
f 33 64 65
f 33 65 66
f 33 66 67
f 33 67 68
f 33 68 69
f 33 69 70
f 33 70 71
f 33 71 34
f 34 71 35
f 35 71 72
f 35 72 36
f 36 72 73
f 36 73 74
f 36 74 37
f 37 74 75
f 37 75 41
f 37 41 38
f 38 41 39
f 39 41 40
f 41 75 76
f 41 76 77
f 41 77 42
f 42 77 43
f 43 77 78
f 43 78 79
f 43 79 80
f 43 80 44
f 44 79 81
f 44 81 45
f 44 80 79
f 45 82 83
f 45 83 46
f 45 81 82
f 46 84 47
f 46 83 84
f 47 84 48
f 48 84 49
f 49 84 50
f 50 84 85
f 50 85 51
f 51 85 86
f 51 86 52
f 52 86 87
f 52 87 88
f 52 88 89
f 52 89 90
f 54 57 91
f 55 92 58
f 57 93 91
f 58 92 94
f 58 94 95
f 58 95 59
f 59 95 96
f 59 96 97
f 59 97 98
f 59 98 60
f 60 98 99
f 60 99 100
f 60 100 101
f 60 101 102
f 60 102 103
f 60 103 61
f 61 103 132
f 61 132 104
f 61 104 64
f 61 64 63
f 61 63 62
f 64 105 106
f 64 106 65
f 64 104 105
f 65 106 68
f 65 68 66
f 66 68 67
f 68 106 107
f 68 107 69
f 69 107 108
f 69 108 70
f 70 108 109
f 70 109 71
f 71 109 110
f 71 110 72
f 72 110 143
f 72 143 111
f 72 111 73
f 73 111 74
f 74 111 112
f 74 112 113
f 74 113 75
f 75 113 76
f 76 113 114
f 76 114 115
f 76 115 116
f 76 116 82
f 76 82 77
f 77 82 78
f 78 82 79
f 79 82 81
f 82 116 115
f 82 115 117
f 82 117 83
f 83 117 87
f 83 87 84
f 84 87 85
f 85 87 86
f 87 118 119
f 87 119 88
f 87 117 147
f 87 147 118
f 88 119 120
f 88 120 89
f 89 120 150
f 89 150 121
f 89 121 90
f 90 121 122
f 90 122 123
f 90 123 124
f 91 93 126
f 91 126 127
f 91 127 125
f 94 96 95
f 99 128 129
f 99 129 100
f 100 129 130
f 100 130 101
f 101 130 131
f 101 131 102
f 102 131 132
f 102 132 103
f 104 132 133
f 104 133 134
f 104 134 135
f 104 135 136
f 104 136 105
f 105 136 106
f 106 136 137
f 106 137 138
f 106 138 107
f 107 138 139
f 107 139 108
f 108 139 140
f 108 140 109
f 109 140 110
f 110 140 141
f 110 141 142
f 110 142 143
f 111 143 163
f 111 163 144
f 111 144 112
f 112 144 145
f 112 145 114
f 112 114 113
f 114 145 164
f 114 164 146
f 114 146 147
f 114 147 117
f 114 117 115
f 118 147 148
f 118 148 149
f 118 149 119
f 119 149 120
f 120 149 150
f 121 150 123
f 121 123 122
f 123 150 149
f 123 149 151
f 123 151 152
f 123 152 124
f 124 152 151
f 124 151 149
f 124 149 148
f 124 148 169
f 124 169 168
f 124 168 167
f 124 167 166
f 124 166 161
f 124 161 142
f 124 142 162
f 124 162 153
f 125 127 155
f 125 155 154
f 128 156 157
f 128 157 158
f 128 158 159
f 128 159 129
f 129 159 130
f 130 159 131
f 131 159 132
f 132 159 160
f 132 160 133
f 133 160 142
f 133 142 134
f 134 142 135
f 135 142 136
f 136 142 137
f 137 142 138
f 138 142 139
f 139 142 140
f 140 142 141
f 142 161 143
f 142 160 159
f 142 159 158
f 142 158 157
f 142 157 156
f 142 156 162
f 143 161 163
f 144 163 164
f 144 164 145
f 146 165 147
f 146 164 166
f 146 166 167
f 146 167 165
f 147 165 168
f 147 168 169
f 147 169 148
f 153 162 171
f 153 171 172
f 153 172 173
f 153 173 174
f 153 174 175
f 153 175 176
f 153 176 177
f 153 177 178
f 153 178 170
f 154 155 179
f 155 170 180
f 155 180 181
f 155 181 182
f 155 182 183
f 155 183 184
f 155 184 179
f 156 171 162
f 161 166 163
f 163 166 164
f 165 167 168
f 170 178 185
f 170 185 180

