# https://github.com/mikedh/trimesh
v -0.00523629 -0.04080655 0.00740910
v -0.00406351 -0.04064545 -0.00722411
v -0.00406351 -0.04066394 -0.00604995
v -0.00406351 -0.04068771 -0.00370579
v -0.00406351 -0.04078279 0.00684918
v -0.00406351 -0.04078543 0.00740910
v -0.00585264 -0.04075373 0.00740910
v -0.00640907 -0.04068243 0.00567919
v -0.00875121 -0.03991389 -0.03302236
v -0.00799104 -0.03995351 -0.03419235
v -0.00289073 -0.04028628 -0.03419235
v -0.00289073 -0.04047379 -0.02246322
v -0.00289073 -0.04049227 -0.02129323
v -0.00171795 -0.04035230 -0.03419235
v -0.00289073 -0.04062961 -0.00604995
v -0.00171795 -0.04045530 -0.02246322
v -0.00171795 -0.04046322 -0.02129323
v 0.00064473 -0.04030476 0.00740910
v -0.00640907 -0.04070092 0.00740910
v -0.00640907 -0.04069827 0.00684918
v -0.01151109 -0.03995087 -0.01308659
v -0.00875121 -0.03989276 -0.03419235
v -0.00723943 -0.03997992 -0.03500716
v -0.00750481 -0.03994295 -0.03527877
v -0.00695351 -0.03997199 -0.03527877
v -0.00640907 -0.03999576 -0.03527877
v -0.00528936 -0.04004066 -0.03527877
v -0.00289073 -0.04012253 -0.03520773
v -0.00171795 -0.04015687 -0.03519102
v -0.00054517 -0.04012253 -0.03513252
v -0.00054517 -0.04028628 -0.03419235
v -0.00054517 -0.04029420 -0.03302236
v -0.00054517 -0.04029948 -0.03184820
v 0.00064473 -0.03792257 0.00740910
v 0.00062761 -0.04013310 -0.03067403
v 0.00064473 -0.04013046 -0.03067403
v -0.00702542 -0.04062432 0.00740910
v -0.00758185 -0.04054774 0.00567919
v -0.01158300 -0.03995615 -0.01192078
v -0.01226955 -0.03983994 -0.01192078
v -0.01226955 -0.03974487 -0.01660074
v -0.01109677 -0.03989012 -0.01894907
v -0.00992399 -0.03987956 -0.02715153
v -0.00992399 -0.03984787 -0.02832987
v -0.00992399 -0.03971846 -0.03302236
v -0.00992399 -0.03967620 -0.03419235
v -0.00875121 -0.03984259 -0.03527877
v -0.00414398 -0.04007235 -0.03527877
v -0.00301913 -0.04009876 -0.03527877
v -0.00188402 -0.04011461 -0.03527877
v -0.00171795 -0.04010669 -0.03527877
v -0.00054517 -0.04004066 -0.03527877
v 0.00031944 -0.04003802 -0.03498209
v 0.00059166 -0.03982938 -0.03527877
v 0.00064473 -0.04007499 -0.03417146
v 0.00062761 -0.04011989 -0.03302236
v -0.01684596 -0.03575165 0.00740910
v 0.00064473 -0.02448772 -0.00182128
v -0.01684596 -0.02415495 0.00009667
v 0.00064473 -0.04011725 -0.03299311
v -0.00758185 -0.04054774 0.00740910
v -0.00758185 -0.04055038 0.00684918
v -0.01100089 -0.04004330 -0.00722411
v -0.01226955 -0.03984523 -0.00956827
v -0.01226955 -0.03984523 -0.01074244
v -0.01344233 -0.03963130 -0.00370579
v -0.01344233 -0.03961810 -0.00487996
v -0.01344233 -0.03960225 -0.00604995
v -0.01344233 -0.03954415 -0.00956827
v -0.01344233 -0.03952038 -0.01074244
v -0.01344233 -0.03939889 -0.01660074
v -0.01344233 -0.03937248 -0.01777490
v -0.01226955 -0.03971318 -0.01777490
v -0.01109677 -0.03986107 -0.02011906
v -0.01109677 -0.03982938 -0.02129323
v -0.01109677 -0.03979769 -0.02246322
v -0.01109677 -0.03969733 -0.02598572
v -0.01226955 -0.03967356 -0.01894907
v -0.01109677 -0.03965243 -0.02715153
v -0.01109677 -0.03959961 -0.02832987
v -0.01109677 -0.03954679 -0.02950404
v -0.01109677 -0.03933551 -0.03419235
v -0.01286022 -0.03879146 -0.03478988
v -0.00992399 -0.03959697 -0.03527877
v 0.00064473 -0.03980561 -0.03527877
v 0.00064473 -0.04006443 -0.03424249
v -0.01684596 -0.03865413 0.00740910
v 0.00064473 -0.02390405 -0.00226838
v -0.01684596 -0.01918456 -0.00340076
v -0.01684596 -0.01978407 -0.00294530
v -0.00875121 -0.04035758 0.00740910
v -0.01147172 -0.03992974 0.00450502
v -0.01344233 -0.03962602 0.00098670
v -0.01226955 -0.03984259 -0.00840246
v -0.01344233 -0.03963395 -0.00253163
v -0.01461511 -0.03937513 0.00098670
v -0.01461511 -0.03935928 -0.00018747
v -0.01461511 -0.03934079 -0.00136164
v -0.01461511 -0.03931966 -0.00253163
v -0.01506025 -0.03874920 -0.02129323
v -0.01344233 -0.03933287 -0.01894907
v -0.01226955 -0.03962338 -0.02011906
v -0.01578789 -0.03822628 -0.02832987
v -0.01684596 -0.03765318 -0.03419235
v -0.01684596 -0.03761093 -0.03461438
v -0.01653950 -0.03766639 -0.03492777
v -0.01204184 -0.03896312 -0.03527877
v 0.00064473 -0.03109818 -0.03527877
v -0.01643848 -0.03881787 0.00684918
v -0.01644533 -0.03882051 0.00740910
v -0.01684596 -0.03804933 -0.02469455
v 0.00064473 -0.02330190 -0.00285337
v -0.01684596 -0.01909476 -0.00348015
v -0.00936756 -0.04025458 0.00740910
v -0.00992399 -0.04016743 0.00684918
v -0.01143234 -0.03991917 0.00567919
v -0.01344233 -0.03961546 0.00216086
v -0.01461511 -0.03937777 0.00216086
v -0.01573310 -0.03901595 0.00216086
v -0.01570229 -0.03900538 0.00098670
v -0.01510477 -0.03875977 -0.02011906
v -0.01497636 -0.03872544 -0.02246322
v -0.01684596 -0.03801764 -0.02586872
v -0.01684596 -0.03797275 -0.02703871
v -0.01684596 -0.03742870 -0.03523698
v -0.01583754 -0.03774826 -0.03527877
v -0.01229694 -0.03888390 -0.03527877
v -0.01210348 -0.03133323 -0.03527877
v -0.01684596 -0.02904875 -0.03460184
v -0.01684596 -0.02887444 -0.03454752
v -0.01684596 -0.02766486 -0.03402939
v -0.01684596 -0.02760148 -0.03399596
v -0.01684596 -0.02704158 -0.03362407
v -0.01684596 -0.02655563 -0.03326889
v -0.01684596 -0.02091442 -0.02912797
v -0.01684596 -0.02042055 -0.02873937
v -0.01684596 -0.02032547 -0.02865998
v 0.00064473 -0.02321475 -0.02804573
v -0.01578789 -0.03898425 0.00740910
v -0.01461511 -0.03936192 0.00333085
v 0.00064473 -0.02098837 -0.00523931
v -0.01684596 -0.01859561 -0.00398575
v -0.01036913 -0.04007499 0.00740910
v -0.01226955 -0.03975807 0.00567919
v -0.01344233 -0.03959433 0.00333085
v -0.01076976 -0.04001425 0.00684918
v -0.01684596 -0.03741021 -0.03527877
v -0.01684596 -0.03197764 -0.03527877
v -0.01684596 -0.01970748 -0.02807498
v 0.00064473 -0.02262580 -0.02738552
v -0.01461511 -0.03923779 0.00740910
v -0.01461511 -0.03933023 0.00450502
v -0.01461511 -0.03929325 0.00567919
v 0.00064473 -0.02040206 -0.00590788
v -0.01684596 -0.01854015 -0.00404843
v -0.01072696 -0.04000633 0.00740910
v -0.01344233 -0.03956264 0.00450502
v -0.01179359 -0.03979769 0.00740910
v -0.01226955 -0.03972110 0.00684918
v -0.01684596 -0.01910796 -0.02727270
v 0.00064473 -0.02014853 -0.02406777
v -0.01288590 -0.03958112 0.00740910
v 0.00064473 -0.01992668 -0.00649705
v -0.01684596 -0.01592290 -0.00719487
v -0.01684596 -0.01908420 -0.02723928
v 0.00064473 -0.01974709 -0.02348278
v 0.00064473 -0.01960448 -0.00722829
v -0.01684596 -0.01529698 -0.00839828
v -0.01684596 -0.01904986 -0.02718495
v -0.01684596 -0.01782707 -0.02515837
v -0.01684596 -0.01751543 -0.02462352
v -0.01684596 -0.01697403 -0.02359560
v -0.01684596 -0.01678651 -0.02322371
v -0.01684596 -0.01579613 -0.02125144
v -0.01684596 -0.01462352 -0.01890311
v -0.01684596 -0.01413757 -0.01777490
v 0.00064473 -0.01935358 -0.02246322
v 0.00064473 -0.01959919 -0.00724083
v 0.00064473 -0.01923738 -0.00839828
v 0.00064473 -0.01831566 -0.01191660
v -0.01684596 -0.01498270 -0.00962677
v -0.01684596 -0.01403721 -0.01746151
v -0.01684596 -0.01383650 -0.01665506
v -0.01684596 -0.01383122 -0.01662581
v 0.00064473 -0.01917135 -0.02130576
v 0.00064473 -0.01805420 -0.01309077
v -0.01684596 -0.01397911 -0.01441537
v -0.01684596 -0.01383122 -0.01543075
v 0.00064473 -0.01805420 -0.01311166
v 0.00064473 -0.01808589 -0.01425658
f 1 2 3
f 1 3 4
f 1 4 5
f 1 5 6
f 1 6 18
f 1 18 34
f 1 34 57
f 1 57 87
f 1 87 110
f 1 110 139
f 1 139 151
f 1 151 162
f 1 162 158
f 1 158 156
f 1 156 143
f 1 143 114
f 1 114 91
f 1 91 61
f 1 61 37
f 1 37 19
f 1 19 7
f 1 7 8
f 1 8 9
f 1 9 10
f 1 10 11
f 1 11 2
f 2 11 12
f 2 12 13
f 2 13 3
f 3 13 14
f 3 14 4
f 4 14 5
f 5 15 6
f 5 14 16
f 5 16 17
f 5 17 15
f 6 15 18
f 7 19 20
f 7 20 8
f 8 20 21
f 8 21 9
f 9 22 10
f 9 21 22
f 10 22 23
f 10 23 11
f 11 23 14
f 11 14 12
f 12 14 13
f 14 23 24
f 14 24 25
f 14 25 26
f 14 26 27
f 14 27 28
f 14 28 29
f 14 29 30
f 14 30 31
f 14 31 16
f 15 17 18
f 16 31 32
f 16 32 17
f 17 32 33
f 17 33 18
f 18 33 32
f 18 32 35
f 18 35 36
f 18 36 60
f 18 60 55
f 18 55 86
f 18 86 85
f 18 85 108
f 18 108 138
f 18 138 150
f 18 150 161
f 18 161 166
f 18 166 177
f 18 177 185
f 18 185 190
f 18 190 189
f 18 189 186
f 18 186 180
f 18 180 179
f 18 179 178
f 18 178 167
f 18 167 163
f 18 163 154
f 18 154 141
f 18 141 112
f 18 112 88
f 18 88 58
f 18 58 34
f 19 37 38
f 19 38 20
f 20 38 39
f 20 39 21
f 21 39 40
f 21 40 41
f 21 41 42
f 21 42 22
f 22 42 43
f 22 43 44
f 22 44 45
f 22 45 46
f 22 46 47
f 22 47 23
f 23 47 24
f 24 47 84
f 24 84 107
f 24 107 127
f 24 127 126
f 24 126 147
f 24 147 148
f 24 148 128
f 24 128 108
f 24 108 85
f 24 85 54
f 24 54 52
f 24 52 51
f 24 51 50
f 24 50 49
f 24 49 48
f 24 48 27
f 24 27 26
f 24 26 25
f 27 48 28
f 28 48 29
f 29 48 49
f 29 49 50
f 29 50 51
f 29 51 52
f 29 52 30
f 30 53 31
f 30 52 54
f 30 54 53
f 31 55 56
f 31 56 32
f 31 53 55
f 32 56 35
f 34 58 59
f 34 59 57
f 35 56 36
f 36 56 60
f 37 61 62
f 37 62 38
f 38 62 39
f 39 63 64
f 39 64 65
f 39 65 40
f 39 62 63
f 40 65 66
f 40 66 67
f 40 67 68
f 40 68 69
f 40 69 70
f 40 70 41
f 41 71 72
f 41 72 73
f 41 73 75
f 41 75 74
f 41 74 42
f 41 70 71
f 42 74 43
f 43 74 44
f 44 74 75
f 44 75 76
f 44 76 45
f 45 76 73
f 45 73 77
f 45 77 46
f 46 77 78
f 46 78 79
f 46 79 80
f 46 80 81
f 46 81 82
f 46 82 83
f 46 83 84
f 46 84 47
f 53 54 85
f 53 85 86
f 53 86 55
f 55 60 56
f 57 59 90
f 57 90 89
f 57 89 113
f 57 113 142
f 57 142 155
f 57 155 164
f 57 164 168
f 57 168 181
f 57 181 187
f 57 187 188
f 57 188 184
f 57 184 183
f 57 183 182
f 57 182 176
f 57 176 175
f 57 175 174
f 57 174 173
f 57 173 172
f 57 172 171
f 57 171 170
f 57 170 169
f 57 169 165
f 57 165 160
f 57 160 149
f 57 149 137
f 57 137 136
f 57 136 135
f 57 135 134
f 57 134 133
f 57 133 132
f 57 132 131
f 57 131 130
f 57 130 129
f 57 129 148
f 57 148 147
f 57 147 125
f 57 125 105
f 57 105 104
f 57 104 124
f 57 124 123
f 57 123 111
f 57 111 87
f 58 88 89
f 58 89 90
f 58 90 59
f 61 91 92
f 61 92 62
f 62 92 93
f 62 93 63
f 63 94 64
f 63 93 94
f 64 95 65
f 64 94 93
f 64 93 95
f 65 95 66
f 66 95 118
f 66 118 96
f 66 96 67
f 67 96 97
f 67 97 68
f 68 97 98
f 68 98 69
f 69 98 99
f 69 99 70
f 70 99 71
f 71 100 72
f 71 99 100
f 72 101 78
f 72 78 73
f 72 100 101
f 73 76 75
f 73 78 77
f 78 101 102
f 78 102 79
f 79 102 101
f 79 101 103
f 79 103 80
f 80 103 104
f 80 104 81
f 81 104 82
f 82 104 83
f 83 104 105
f 83 105 106
f 83 106 107
f 83 107 84
f 87 109 110
f 87 111 109
f 88 112 113
f 88 113 89
f 91 114 115
f 91 115 92
f 92 116 117
f 92 117 93
f 92 115 116
f 93 117 118
f 93 118 95
f 96 118 110
f 96 110 119
f 96 119 97
f 97 119 98
f 98 119 99
f 99 119 120
f 99 120 111
f 99 111 121
f 99 121 100
f 100 122 101
f 100 121 111
f 100 111 123
f 100 123 124
f 100 124 122
f 101 122 124
f 101 124 103
f 103 124 104
f 105 125 106
f 106 125 126
f 106 126 127
f 106 127 107
f 108 128 129
f 108 129 130
f 108 130 131
f 108 131 132
f 108 132 133
f 108 133 134
f 108 134 135
f 108 135 136
f 108 136 137
f 108 137 138
f 109 119 110
f 109 111 119
f 110 118 140
f 110 140 139
f 111 120 119
f 112 141 142
f 112 142 113
f 114 143 115
f 115 143 116
f 116 144 145
f 116 145 117
f 116 143 146
f 116 146 144
f 117 145 140
f 117 140 118
f 125 147 126
f 128 148 129
f 137 149 138
f 138 149 150
f 139 140 152
f 139 152 153
f 139 153 151
f 140 145 157
f 140 157 152
f 141 154 155
f 141 155 142
f 143 156 146
f 144 153 152
f 144 152 157
f 144 157 145
f 144 146 156
f 144 156 158
f 144 158 159
f 144 159 153
f 149 160 150
f 150 160 161
f 151 153 162
f 153 159 158
f 153 158 162
f 154 163 164
f 154 164 155
f 160 165 161
f 161 165 166
f 163 167 168
f 163 168 164
f 165 169 166
f 166 169 170
f 166 170 171
f 166 171 172
f 166 172 173
f 166 173 174
f 166 174 175
f 166 175 176
f 166 176 177
f 167 178 168
f 168 178 179
f 168 179 180
f 168 180 181
f 176 182 177
f 177 182 183
f 177 183 184
f 177 184 185
f 180 186 181
f 181 186 187
f 184 188 186
f 184 186 189
f 184 189 190
f 184 190 185
f 186 188 187

