# https://github.com/mikedh/trimesh
v 0.00065354 0.04627759 0.04065805
v 0.00065354 0.04627759 0.03982542
v 0.00065354 0.04547591 0.04132727
v 0.00180665 0.04541668 0.04128447
v 0.00297992 0.04536139 0.04121833
v 0.00533050 0.04464264 0.04158017
v 0.00649973 0.04453996 0.04150625
v 0.00180665 0.04606039 0.04069696
v 0.00297992 0.04593401 0.04063470
v 0.00415320 0.04579184 0.04049463
v 0.00490715 0.04568917 0.04036235
v 0.00065354 0.04173212 0.00289384
v 0.00490715 0.04568917 0.04018726
v 0.00415320 0.04579184 0.04003163
v 0.00065354 0.04489144 0.04173969
v 0.00297992 0.04477691 0.04166188
v 0.00415320 0.04471768 0.04162297
v 0.00533050 0.04388441 0.04211710
v 0.00649973 0.04388441 0.04201594
v 0.00756011 0.04393969 0.04182529
v 0.00884627 0.04365536 0.04185642
v 0.00709645 0.04447677 0.04145177
v 0.00787460 0.04437015 0.04128058
v 0.00884627 0.04457551 0.04046740
v 0.00949540 0.04449257 0.04030788
v 0.00065354 0.03895192 0.00289384
v 0.00766897 0.04035387 0.00289384
v 0.00949540 0.04449257 0.04024173
v 0.00884224 0.04008138 0.00289384
v 0.00065354 0.04388441 0.04228052
v 0.00180665 0.04388441 0.04225717
v 0.00297992 0.04388441 0.04222215
v 0.00415320 0.04388441 0.04217546
v 0.00884627 0.04271546 0.04231553
v 0.01001954 0.04271546 0.04222215
v 0.01118475 0.04278259 0.04192645
v 0.01001954 0.04348949 0.04170857
v 0.01078963 0.04337102 0.04155294
v 0.00884627 0.04423983 0.04105102
v 0.00993891 0.04409766 0.04076310
v 0.01118475 0.04361191 0.04090317
v 0.01236205 0.04342235 0.04048685
v 0.01297489 0.04330783 0.04029231
v 0.00065354 0.03889268 0.01741435
v 0.00593931 0.03522788 0.00289384
v 0.02998529 0.01806489 0.00289773
v 0.03491625 0.00594101 0.00352026
v 0.00957201 0.03984838 0.00289384
v 0.01297489 0.04330783 0.04025729
v 0.00065354 0.04271546 0.04226884
v 0.00180665 0.04271546 0.04230775
v 0.00297992 0.04271546 0.04233888
v 0.00415320 0.04271546 0.04235833
v 0.00533050 0.04271546 0.04236222
v 0.00649973 0.04271546 0.04236222
v 0.00767300 0.04271546 0.04235444
v 0.01236205 0.04154256 0.04233110
v 0.01888156 0.03747494 0.04263069
v 0.01353532 0.04154256 0.04207819
v 0.01236205 0.04247851 0.04180973
v 0.01353532 0.04224946 0.04157239
v 0.01413607 0.04213098 0.04145177
v 0.01157181 0.04322095 0.04132338
v 0.01554722 0.04222181 0.04044016
v 0.01889366 0.04098968 0.04031955
v 0.00065354 0.03889268 0.02094720
v 0.00663279 0.03495933 0.00289384
v 0.03352929 0.01806489 0.00289773
v 0.00766897 0.03460786 0.00289384
v 0.00853582 0.03433537 0.00289384
v 0.01118878 0.03352580 0.00289384
v 0.01737768 0.03223837 0.00289384
v 0.03758534 0.00594101 0.00352026
v 0.03494447 0.00594101 0.03850254
v 0.01889366 0.04098968 0.04020671
v 0.01737768 0.03617962 0.00289384
v 0.00065354 0.04249825 0.04216379
v 0.03630321 0.00594101 0.04152181
v 0.03695234 0.00594101 0.04175526
v 0.03815383 0.00594101 0.04210932
v 0.03932710 0.00594101 0.04239335
v 0.01873642 0.03739991 0.04263069
v 0.01873642 0.03747494 0.04263069
v 0.02121198 0.03629809 0.04263069
v 0.01471262 0.04036966 0.04232332
v 0.02472372 0.03397205 0.04264236
v 0.02349400 0.03509755 0.04262291
v 0.01588589 0.04036966 0.04203540
v 0.01647858 0.04096204 0.04145177
v 0.01459973 0.04154256 0.04170857
v 0.01932910 0.04040126 0.04065416
v 0.02056688 0.03998265 0.04045962
v 0.02118375 0.03980494 0.04030009
v 0.00065354 0.03890058 0.02562785
v 0.03306160 0.01906797 0.00289773
v 0.03878683 0.01882312 0.04011334
v 0.03568634 0.01340094 0.00352026
v 0.03575891 0.01322323 0.00352026
v 0.03617419 0.01213327 0.00352026
v 0.03653706 0.01093668 0.00352026
v 0.03684348 0.00988225 0.00352026
v 0.03712168 0.00871331 0.00352026
v 0.03732327 0.00753646 0.00352026
v 0.03757324 0.00603973 0.00352026
v 0.04118982 0.00594101 0.02481078
v 0.03502108 0.00594101 0.03964254
v 0.00065354 0.03915333 0.03734308
v 0.00065354 0.03894008 0.02914903
v 0.00065354 0.03892033 0.02797790
v 0.00065354 0.03890453 0.02679898
v 0.01856708 0.03559909 0.00289773
v 0.01822437 0.03577286 0.00289773
v 0.01773248 0.03600981 0.00289773
v 0.02118375 0.03980494 0.04023395
v 0.01913557 0.03529501 0.00289773
v 0.01972019 0.03488825 0.00289773
v 0.01998226 0.03466710 0.00289773
v 0.02040964 0.03429983 0.00289773
v 0.02840077 0.02707289 0.00289773
v 0.02876364 0.02667008 0.00289773
v 0.02898539 0.02641733 0.00289773
v 0.02944099 0.02583680 0.00289773
v 0.03018688 0.02462047 0.00289773
v 0.03073925 0.02370821 0.00289773
v 0.03126742 0.02278411 0.00289773
v 0.03164642 0.02206932 0.00289773
v 0.03175124 0.02184817 0.00289773
v 0.03241650 0.02043832 0.00289773
v 0.00065354 0.04151492 0.04167355
v 0.03573875 0.00594101 0.04084870
v 0.00065354 0.04140039 0.04159184
v 0.00065354 0.04074483 0.04100044
v 0.04050037 0.00594101 0.04221437
v 0.04050037 0.00636751 0.04221826
v 0.03932710 0.00754041 0.04238557
v 0.02585667 0.03275966 0.04262291
v 0.02455842 0.03384568 0.04264236
v 0.02516722 0.03442225 0.04220270
v 0.02428022 0.03475398 0.04244782
v 0.03112228 0.02863675 0.04211710
v 0.02994094 0.02981754 0.04214045
v 0.03104567 0.02973856 0.04168133
v 0.02987643 0.03093120 0.04167355
v 0.02586877 0.03512125 0.04145956
v 0.02525189 0.03533450 0.04162297
v 0.02401412 0.03563464 0.04200816
v 0.02239734 0.03749074 0.04147901
v 0.02097410 0.03850962 0.04138174
v 0.02019595 0.03873077 0.04152570
v 0.01872835 0.03973780 0.04142065
v 0.01828888 0.03928365 0.04186031
v 0.01693821 0.04035782 0.04166966
v 0.01939361 0.03954824 0.04130003
v 0.02057897 0.03915333 0.04108604
v 0.02173208 0.03828057 0.04120665
v 0.02317952 0.03722220 0.04128447
v 0.02525189 0.03591898 0.04117942
v 0.02525189 0.03661403 0.04059580
v 0.02597360 0.03636128 0.04038180
v 0.03878683 0.01882312 0.04033900
v 0.03999639 0.01429740 0.04012890
v 0.03766194 0.02116102 0.03999272
v 0.04115353 0.00960976 0.04016391
v 0.04183492 0.00594101 0.04083313
v 0.03523880 0.00594101 0.04016391
v 0.00065354 0.03957589 0.03943244
v 0.00065354 0.03926390 0.03851421
v 0.02597360 0.03636128 0.04014057
v 0.02721944 0.03529896 0.04005886
v 0.02831207 0.03408657 0.04009388
v 0.02938858 0.03279125 0.04020671
v 0.03292048 0.02810757 0.04009777
v 0.03530734 0.02465601 0.03998105
v 0.03528718 0.00594101 0.04024173
v 0.00065354 0.04065006 0.04087982
v 0.00065354 0.03998265 0.04000439
v 0.04135109 0.00594101 0.04167355
v 0.04133094 0.00636751 0.04167744
v 0.04050037 0.00754041 0.04217546
v 0.03932710 0.00988620 0.04236611
v 0.03932710 0.00871331 0.04237779
v 0.03932710 0.01105910 0.04231942
v 0.03463402 0.02278017 0.04214434
v 0.03346478 0.02512201 0.04211710
v 0.02869510 0.03209620 0.04165799
v 0.02632840 0.03442225 0.04161908
v 0.03463402 0.02394911 0.04199649
v 0.03350510 0.02630281 0.04185642
v 0.03314223 0.02722296 0.04170857
v 0.03200928 0.02863675 0.04169301
v 0.03060620 0.03049680 0.04150625
v 0.03178350 0.02922122 0.04152181
v 0.03175528 0.02929626 0.04149846
v 0.02944099 0.03166180 0.04149846
v 0.02665095 0.03475398 0.04125334
v 0.02631227 0.03559909 0.04081757
v 0.02452616 0.03616777 0.04137785
v 0.02374801 0.03644026 0.04157239
v 0.02721944 0.03529896 0.04047129
v 0.03875861 0.01637465 0.04146344
v 0.03889166 0.01574674 0.04159963
v 0.03999236 0.01308501 0.04155682
v 0.03986334 0.01386694 0.04132727
v 0.04012137 0.01344833 0.04090317
v 0.03999639 0.01429740 0.04054521
v 0.03766194 0.02116102 0.04038569
v 0.03785950 0.02043437 0.04058023
v 0.03813770 0.01922198 0.04084091
v 0.04115353 0.00960976 0.04056467
v 0.04154059 0.00754041 0.04086037
v 0.04175428 0.00636751 0.04086037
v 0.04115353 0.00841317 0.04153737
v 0.04124223 0.00754041 0.04163075
v 0.02831207 0.03408657 0.04043627
v 0.02938858 0.03279125 0.04033511
v 0.03292048 0.02810757 0.04049463
v 0.03431550 0.02609745 0.04086037
v 0.04039957 0.00988620 0.04197703
v 0.03932710 0.01222805 0.04220270
v 0.03815383 0.01457779 0.04223383
v 0.03580729 0.02043437 0.04214045
v 0.02825563 0.03281890 0.04148679
v 0.03460580 0.02500354 0.04173580
v 0.03698459 0.01808858 0.04211710
v 0.03815383 0.01574674 0.04207041
v 0.03561780 0.02278017 0.04179027
v 0.03419455 0.02591974 0.04163075
v 0.03283581 0.02800884 0.04127280
v 0.03729505 0.02043437 0.04116774
v 0.03652093 0.02131108 0.04157239
v 0.03913760 0.01457779 0.04181751
v 0.03780306 0.01808858 0.04166966
v 0.04010928 0.01222805 0.04173191
v 0.04106483 0.00919115 0.04134672
v 0.04045602 0.01222805 0.04086037
v 0.04074632 0.01105910 0.04086037
v 0.03490012 0.02521284 0.04086037
v 0.03522267 0.02453754 0.04144788
v 0.03535976 0.02394911 0.04157628
v 0.04099226 0.00995729 0.04091873
v 0.04125836 0.00876464 0.04091873
v 0.04026249 0.01105910 0.04191089
v 0.03199719 0.02922122 0.04086426
v 0.03325916 0.02755468 0.04087593
v 0.03390829 0.02667797 0.04086037
v 0.03941580 0.01344833 0.04190700
v 0.03671043 0.02043437 0.04173580
f 1 2 12
f 1 12 26
f 1 26 44
f 1 44 66
f 1 66 94
f 1 94 110
f 1 110 109
f 1 109 108
f 1 108 107
f 1 107 167
f 1 167 166
f 1 166 176
f 1 176 175
f 1 175 132
f 1 132 131
f 1 131 129
f 1 129 77
f 1 77 50
f 1 50 30
f 1 30 15
f 1 15 3
f 1 3 4
f 1 4 5
f 1 5 6
f 1 6 7
f 1 7 8
f 1 8 9
f 1 9 10
f 1 10 11
f 1 11 13
f 1 13 2
f 2 13 14
f 2 14 12
f 3 15 16
f 3 16 17
f 3 17 4
f 4 17 6
f 4 6 5
f 6 18 19
f 6 19 7
f 6 17 18
f 7 19 20
f 7 20 21
f 7 21 22
f 7 22 9
f 7 9 8
f 9 22 10
f 10 22 11
f 11 22 23
f 11 23 24
f 11 24 25
f 11 25 28
f 11 28 13
f 12 14 13
f 12 13 27
f 12 27 29
f 12 29 48
f 12 48 76
f 12 76 72
f 12 72 71
f 12 71 70
f 12 70 69
f 12 69 67
f 12 67 45
f 12 45 26
f 13 28 29
f 13 29 27
f 15 30 31
f 15 31 32
f 15 32 33
f 15 33 18
f 15 18 16
f 16 18 17
f 18 34 35
f 18 35 19
f 18 33 34
f 19 35 21
f 19 21 20
f 21 35 36
f 21 36 37
f 21 37 22
f 22 37 23
f 23 37 38
f 23 38 39
f 23 39 25
f 23 25 24
f 25 40 41
f 25 41 42
f 25 42 43
f 25 43 49
f 25 49 28
f 25 39 40
f 26 45 46
f 26 46 47
f 26 47 44
f 28 48 29
f 28 49 48
f 30 50 51
f 30 51 52
f 30 52 53
f 30 53 54
f 30 54 55
f 30 55 56
f 30 56 31
f 31 56 32
f 32 56 34
f 32 34 33
f 34 57 35
f 34 56 58
f 34 58 57
f 35 57 59
f 35 59 36
f 36 60 37
f 36 59 60
f 37 60 38
f 38 41 40
f 38 40 39
f 38 60 61
f 38 61 62
f 38 62 63
f 38 63 41
f 41 63 42
f 42 63 43
f 43 64 65
f 43 65 75
f 43 75 49
f 43 63 64
f 44 47 66
f 45 67 46
f 46 68 73
f 46 73 47
f 46 67 69
f 46 69 70
f 46 70 71
f 46 71 72
f 46 72 68
f 47 73 105
f 47 105 164
f 47 164 177
f 47 177 133
f 47 133 81
f 47 81 80
f 47 80 79
f 47 79 78
f 47 78 130
f 47 130 174
f 47 174 165
f 47 165 106
f 47 106 74
f 47 74 66
f 48 49 75
f 48 75 76
f 50 77 78
f 50 78 79
f 50 79 80
f 50 80 81
f 50 81 51
f 51 81 82
f 51 82 52
f 52 82 83
f 52 83 53
f 53 83 54
f 54 83 58
f 54 58 55
f 55 58 56
f 57 58 84
f 57 84 85
f 57 85 59
f 58 83 86
f 58 86 84
f 59 85 84
f 59 84 87
f 59 87 88
f 59 88 89
f 59 89 90
f 59 90 62
f 59 62 60
f 60 62 61
f 62 90 89
f 62 89 65
f 62 65 63
f 63 65 64
f 65 91 92
f 65 92 93
f 65 93 114
f 65 114 75
f 65 89 91
f 66 74 94
f 68 72 76
f 68 76 95
f 68 95 96
f 68 96 97
f 68 97 98
f 68 98 99
f 68 99 100
f 68 100 101
f 68 101 102
f 68 102 103
f 68 103 104
f 68 104 73
f 73 104 105
f 74 106 107
f 74 107 108
f 74 108 109
f 74 109 110
f 74 110 94
f 75 111 112
f 75 112 113
f 75 113 76
f 75 114 111
f 76 113 112
f 76 112 111
f 76 111 115
f 76 115 116
f 76 116 117
f 76 117 118
f 76 118 119
f 76 119 120
f 76 120 121
f 76 121 122
f 76 122 123
f 76 123 124
f 76 124 125
f 76 125 126
f 76 126 127
f 76 127 128
f 76 128 95
f 77 129 78
f 78 129 131
f 78 131 132
f 78 132 130
f 81 133 134
f 81 134 135
f 81 135 136
f 81 136 86
f 81 86 137
f 81 137 82
f 82 137 83
f 83 137 86
f 84 86 87
f 86 138 139
f 86 139 87
f 86 136 140
f 86 140 141
f 86 141 142
f 86 142 143
f 86 143 138
f 87 139 144
f 87 144 145
f 87 145 146
f 87 146 147
f 87 147 148
f 87 148 149
f 87 149 150
f 87 150 151
f 87 151 88
f 88 151 152
f 88 152 89
f 89 152 150
f 89 150 153
f 89 153 92
f 89 92 91
f 92 153 154
f 92 154 155
f 92 155 93
f 93 155 156
f 93 156 157
f 93 157 158
f 93 158 159
f 93 159 168
f 93 168 114
f 95 128 96
f 96 160 205
f 96 205 161
f 96 161 105
f 96 105 99
f 96 99 98
f 96 98 97
f 96 128 127
f 96 127 162
f 96 162 206
f 96 206 160
f 99 105 100
f 100 105 101
f 101 105 102
f 102 105 103
f 103 105 104
f 105 161 163
f 105 163 164
f 106 165 166
f 106 166 167
f 106 167 107
f 111 114 115
f 114 116 115
f 114 168 116
f 116 168 169
f 116 169 117
f 117 169 118
f 118 169 119
f 119 169 120
f 120 169 170
f 120 170 121
f 121 171 122
f 121 170 171
f 122 171 172
f 122 172 173
f 122 173 162
f 122 162 123
f 123 162 124
f 124 162 125
f 125 162 126
f 126 162 127
f 130 132 175
f 130 175 176
f 130 176 174
f 133 177 134
f 134 177 178
f 134 178 179
f 134 179 180
f 134 180 181
f 134 181 135
f 135 181 136
f 136 181 180
f 136 180 182
f 136 182 183
f 136 183 184
f 136 184 140
f 138 143 185
f 138 185 186
f 138 186 144
f 138 144 139
f 140 184 187
f 140 187 188
f 140 188 189
f 140 189 190
f 140 190 142
f 140 142 141
f 142 191 143
f 142 190 192
f 142 192 193
f 142 193 191
f 143 191 194
f 143 194 185
f 144 186 195
f 144 195 196
f 144 196 157
f 144 157 197
f 144 197 145
f 145 197 198
f 145 198 146
f 146 198 147
f 147 156 155
f 147 155 148
f 147 198 156
f 148 155 154
f 148 154 153
f 148 153 149
f 149 153 150
f 150 152 151
f 156 198 197
f 156 197 157
f 157 196 159
f 157 159 158
f 159 196 199
f 159 199 169
f 159 169 168
f 160 200 201
f 160 201 202
f 160 202 203
f 160 203 204
f 160 204 205
f 160 206 207
f 160 207 208
f 160 208 200
f 161 205 209
f 161 209 163
f 162 173 206
f 163 209 210
f 163 210 164
f 164 210 211
f 164 211 212
f 164 212 213
f 164 213 178
f 164 178 177
f 165 174 166
f 166 174 176
f 169 199 214
f 169 214 170
f 170 214 215
f 170 215 171
f 171 215 216
f 171 216 172
f 172 216 217
f 172 217 173
f 173 217 206
f 178 213 179
f 179 218 219
f 179 219 182
f 179 182 180
f 179 213 218
f 182 219 220
f 182 220 183
f 183 187 184
f 183 220 221
f 183 221 187
f 185 194 222
f 185 222 186
f 186 222 195
f 187 223 188
f 187 221 224
f 187 224 225
f 187 225 226
f 187 226 223
f 188 223 227
f 188 227 189
f 189 227 193
f 189 193 192
f 189 192 190
f 191 199 194
f 191 193 199
f 193 227 228
f 193 228 215
f 193 215 214
f 193 214 199
f 194 199 195
f 194 195 222
f 195 199 196
f 200 208 229
f 200 229 230
f 200 230 201
f 201 231 202
f 201 230 232
f 201 232 231
f 202 233 234
f 202 234 235
f 202 235 204
f 202 204 203
f 202 231 233
f 204 235 205
f 205 235 236
f 205 236 209
f 206 217 237
f 206 237 238
f 206 238 207
f 207 238 239
f 207 239 229
f 207 229 208
f 209 236 240
f 209 240 234
f 209 234 241
f 209 241 210
f 210 241 234
f 210 234 212
f 210 212 211
f 212 234 233
f 212 233 242
f 212 242 213
f 213 242 218
f 215 228 243
f 215 243 216
f 216 243 228
f 216 228 244
f 216 244 245
f 216 245 217
f 217 245 238
f 217 238 237
f 218 242 219
f 219 242 246
f 219 246 231
f 219 231 225
f 219 225 224
f 219 224 220
f 220 224 221
f 223 226 239
f 223 239 238
f 223 238 227
f 225 231 226
f 226 231 247
f 226 247 230
f 226 230 239
f 227 245 228
f 227 238 245
f 228 245 244
f 229 239 230
f 230 247 232
f 231 232 247
f 231 246 233
f 233 246 242
f 234 240 236
f 234 236 235

