# https://github.com/mikedh/trimesh
v 0.03809929 0.00593706 -0.02363781
v 0.03569410 0.00593706 -0.03500390
v 0.03564643 0.00623140 -0.03500390
v 0.03548144 0.00717401 -0.03500390
v 0.03541178 0.00755946 -0.03500390
v 0.03527612 0.00825327 -0.03500390
v 0.03526512 0.00830934 -0.03500390
v 0.03491681 0.00964440 -0.03500390
v 0.03485081 0.00988268 -0.03500390
v 0.03452450 0.01105305 -0.03500390
v 0.03409186 0.01411914 -0.03262136
v 0.03404786 0.01514585 -0.03123782
v 0.03351256 0.01806477 -0.02949992
v 0.03367755 0.01809280 -0.02832373
v 0.03374721 0.01806477 -0.02715508
v 0.03617440 0.01212881 0.00350887
v 0.03636506 0.01152260 0.00350887
v 0.03684536 0.00988268 0.00350887
v 0.03712401 0.00870880 0.00350887
v 0.03732567 0.00753493 0.00350887
v 0.03758966 0.00593706 0.00350887
v 0.02959311 0.00593706 -0.03500390
v 0.03420918 0.01210078 -0.03500390
v 0.03413585 0.01307142 -0.03396719
v 0.03316424 0.01820843 -0.03078921
v 0.03297725 0.01893378 -0.03047255
v 0.03310191 0.01914053 -0.02949615
v 0.03400753 0.01385283 -0.03340549
v 0.03313491 0.01936829 -0.02827849
v 0.03373621 0.01809280 -0.02715508
v 0.03375821 0.01806477 -0.02598265
v 0.03512580 0.01486902 -0.00136177
v 0.03536045 0.01428033 0.00098307
v 0.03613774 0.01222693 0.00350887
v 0.03491681 0.00593706 0.00350887
v 0.00065011 0.03656644 -0.03500390
v 0.02366812 0.00593706 -0.02994477
v 0.03409552 0.01246521 -0.03500390
v 0.03287826 0.01867798 -0.03125290
v 0.03401486 0.01269998 -0.03500390
v 0.03185898 0.01882165 -0.03500390
v 0.03140801 0.02009715 -0.03500390
v 0.03251528 0.01926667 -0.03184477
v 0.03149601 0.02040200 -0.03418961
v 0.03275360 0.01929821 -0.03078921
v 0.03281960 0.01972922 -0.02949615
v 0.03288193 0.01986237 -0.02786004
v 0.03322291 0.01926667 -0.02715508
v 0.03285993 0.01982733 -0.02864794
v 0.03375454 0.01809280 -0.02480646
v 0.03407719 0.01754966 -0.00840008
v 0.03537878 0.01408060 0.00350887
v 0.03568676 0.01339730 0.00350887
v 0.03569043 0.01339730 0.00332792
v 0.03576009 0.01321859 0.00350887
v 0.03407719 0.01755317 -0.00722766
v 0.03406252 0.01752864 -0.00605524
v 0.03405519 0.01750761 -0.00538797
v 0.03116236 0.01717472 0.00350887
v 0.00065011 0.03894923 0.00289061
v 0.00065011 0.03380170 0.00162395
v 0.00065011 0.03379119 0.00162018
v 0.00065011 0.03321301 0.00139775
v 0.00065011 0.03216879 0.00099061
v 0.00065011 0.03113157 0.00058347
v 0.00065011 0.03052536 0.00034220
v 0.02371212 0.00593706 -0.00082269
v 0.00065011 0.04047001 -0.03500390
v 0.02306316 0.00593706 -0.02935667
v 0.02248019 0.00593706 -0.02871956
v 0.00065011 0.02824769 -0.02631817
v 0.03128335 0.02042653 -0.03500390
v 0.03157667 0.02075592 -0.03301719
v 0.03098637 0.02109932 -0.03500390
v 0.03231729 0.02043705 -0.02949615
v 0.03089471 0.02154084 -0.03419339
v 0.03165000 0.02093813 -0.03184477
v 0.03252261 0.02032842 -0.02827849
v 0.03088737 0.02269018 -0.02715508
v 0.02711092 0.02819163 -0.02363404
v 0.02835752 0.02709484 -0.00487904
v 0.02943546 0.02583687 0.00289061
v 0.02971777 0.02538835 0.00289061
v 0.03073705 0.02371338 0.00289061
v 0.03126869 0.02278479 0.00289061
v 0.03165733 0.02209799 0.00215549
v 0.03287826 0.01985536 -0.00308837
v 0.03185898 0.02123248 -0.02832373
v 0.03046206 0.02327537 -0.02715508
v 0.03351622 0.01806477 0.00336185
v 0.03357489 0.01792811 0.00350887
v 0.03402953 0.01745155 -0.00370662
v 0.03374354 0.01806477 -0.00370662
v 0.03382054 0.01797716 -0.00495067
v 0.03309458 0.01937180 -0.00263221
v 0.03090571 0.01806477 0.00350887
v 0.00065011 0.04173500 0.00289061
v 0.00065011 0.02981753 -0.00001217
v 0.00065011 0.02894501 -0.00053618
v 0.02333814 0.00593706 -0.00105265
v 0.00065011 0.04080290 -0.03452136
v 0.00130641 0.04049454 -0.03500390
v 0.02201822 0.00593706 -0.02813524
v 0.02113827 0.00593706 -0.02701182
v 0.02097694 0.00593706 -0.02679694
v 0.02055163 0.00593706 -0.02619377
v 0.00065011 0.02570722 -0.02306102
v 0.03079938 0.02145323 -0.03500390
v 0.03141901 0.02182117 -0.02832373
v 0.03048040 0.02212602 -0.03419339
v 0.02998543 0.02278479 -0.03419339
v 0.03043273 0.02203842 -0.03500390
v 0.02756190 0.02747329 -0.02480646
v 0.02665262 0.02877682 -0.02363404
v 0.02667462 0.02878733 -0.02246539
v 0.02721725 0.02830376 -0.01543839
v 0.02837585 0.02710886 -0.00370662
v 0.02707426 0.02814257 -0.02480646
v 0.02838685 0.02711237 -0.00253420
v 0.02898082 0.02642206 0.00289061
v 0.03350889 0.01806477 0.00350887
v 0.03164266 0.02207346 0.00289061
v 0.03175266 0.02185270 0.00289061
v 0.02703393 0.02808300 -0.02553404
v 0.00767138 0.04035438 0.00289061
v 0.00442656 0.04089401 -0.02949615
v 0.00384726 0.04100965 -0.02832373
v 0.00383993 0.04100614 -0.02949615
v 0.00065011 0.04160534 -0.01778700
v 0.00065011 0.02834231 -0.00100741
v 0.02287983 0.00593706 -0.00134293
v 0.00065011 0.04109024 -0.03391819
v 0.00180505 0.04083795 -0.03444974
v 0.00180505 0.04049104 -0.03500390
v 0.02000900 0.00593706 -0.02534555
v 0.00065011 0.02530425 -0.02253701
v 0.02952345 0.02358723 -0.03301719
v 0.02999276 0.02263412 -0.03500390
v 0.02983143 0.02285137 -0.03500390
v 0.02945012 0.02348912 -0.03419339
v 0.02659762 0.02872776 -0.02480646
v 0.02601099 0.02939704 -0.02480646
v 0.02606965 0.02943909 -0.02363404
v 0.02608798 0.02945311 -0.02246539
v 0.02723192 0.02830376 -0.01426597
v 0.02839785 0.02709134 0.00098307
v 0.02876450 0.02667435 0.00289061
v 0.02723558 0.02829675 -0.01308977
v 0.02839785 0.02707732 0.00289061
v 0.02040131 0.03430279 0.00289061
v 0.01971568 0.03488797 0.00289061
v 0.01912905 0.03529445 0.00289061
v 0.01856442 0.03559931 0.00289061
v 0.01822344 0.03577802 0.00289061
v 0.01741681 0.03615996 0.00289061
v 0.01201979 0.03870044 0.00289061
v 0.00957427 0.03984979 0.00289061
v 0.00910863 0.03999696 0.00289061
v 0.00884098 0.04007756 0.00289061
v 0.02617964 0.02848597 -0.02949615
v 0.02578000 0.02916577 -0.02832373
v 0.02582766 0.02921483 -0.02765270
v 0.02816320 0.02568269 -0.03106818
v 0.02580567 0.02801292 -0.03500390
v 0.00532484 0.04071180 -0.03067235
v 0.00437890 0.04089751 -0.03067235
v 0.00430557 0.04089751 -0.03184477
v 0.00407825 0.04090453 -0.03308128
v 0.00379593 0.04098862 -0.03067235
v 0.00297831 0.04111477 -0.02949615
v 0.00065011 0.04156329 -0.02131181
v 0.00065011 0.04158082 -0.02013185
v 0.00065011 0.04159483 -0.01896320
v 0.00065011 0.02764499 -0.00158420
v 0.02224187 0.00593706 -0.00185562
v 0.00065011 0.04124092 -0.03302850
v 0.00180505 0.04103418 -0.03386541
v 0.00415158 0.04083094 -0.03419339
v 0.00415158 0.04043848 -0.03500390
v 0.00239168 0.04048053 -0.03500390
v 0.01999067 0.00593706 -0.02531539
v 0.00065011 0.02467000 -0.02157193
v 0.02937679 0.02344006 -0.03500390
v 0.02644730 0.02719296 -0.03500390
v 0.02587900 0.02926739 -0.02687234
v 0.02593399 0.02932696 -0.02598265
v 0.02529970 0.02990864 -0.02598265
v 0.02471306 0.03043776 -0.02598265
v 0.02535469 0.02997872 -0.02480646
v 0.02476806 0.03047981 -0.02480646
v 0.02537302 0.03002428 -0.02363404
v 0.02538769 0.03003479 -0.02246539
v 0.02483039 0.03053588 -0.01894435
v 0.02483405 0.03053938 -0.01777569
v 0.02609165 0.02945311 -0.02128919
v 0.02839785 0.02708433 0.00215549
v 0.02724292 0.02828274 -0.01074493
v 0.02724658 0.02827222 -0.00956874
v 0.02723558 0.02825821 -0.00722389
v 0.02777089 0.02768704 -0.00018935
v 0.02607332 0.02943909 -0.01777569
v 0.02608798 0.02945311 -0.02012054
v 0.02041598 0.03430980 0.00098307
v 0.02042331 0.03430980 -0.00018935
v 0.01971202 0.03489148 0.00215549
v 0.01970835 0.03489498 0.00098307
v 0.01970468 0.03489498 -0.00018935
v 0.01908872 0.03527693 -0.00605147
v 0.01733982 0.03612492 -0.02949615
v 0.01201979 0.03842712 -0.02070487
v 0.00920762 0.03969561 -0.01192112
v 0.00846700 0.03986380 -0.01777569
v 0.00649811 0.04031233 -0.03301719
v 0.00649811 0.04035789 -0.03067235
v 0.00649811 0.04037540 -0.02949615
v 0.01675685 0.03639124 -0.02949615
v 0.01672752 0.03636671 -0.03184477
v 0.01588057 0.03672413 -0.03067235
v 0.01353404 0.03777886 -0.02363404
v 0.00532484 0.04069078 -0.03301719
v 0.00532484 0.04070479 -0.03184477
v 0.02569567 0.02907116 -0.02949615
v 0.02471673 0.02928141 -0.03500390
v 0.02525203 0.02981053 -0.02711738
v 0.02553068 0.02834231 -0.03500390
v 0.00364194 0.04096059 -0.03272692
v 0.00532484 0.04064522 -0.03419339
v 0.00353561 0.04095008 -0.03351104
v 0.00307731 0.04100965 -0.03308128
v 0.00065011 0.04153526 -0.02248046
v 0.00065011 0.02635898 -0.00266237
v 0.00065011 0.02576329 -0.00317130
v 0.02202922 0.00593706 -0.00207805
v 0.00065011 0.04127596 -0.03184477
v 0.00180505 0.04113229 -0.03301719
v 0.00532484 0.04031233 -0.03500390
v 0.00502786 0.04035789 -0.03500390
v 0.01981101 0.00593706 -0.02499872
v 0.01876607 0.00593706 -0.02313265
v 0.01809878 0.00593706 -0.02193007
v 0.01753781 0.00593706 -0.02088959
v 0.01738015 0.00593706 -0.02050506
v 0.00065011 0.02333494 -0.01839395
v 0.01876240 0.03505267 -0.03210489
v 0.01881740 0.03509822 -0.03132076
v 0.02343714 0.03152403 -0.02598265
v 0.02478639 0.03049382 -0.02363404
v 0.02481206 0.03051485 -0.02128919
v 0.02226387 0.03270141 -0.01192112
v 0.02228953 0.03271543 -0.00956874
v 0.02229687 0.03272244 -0.00839631
v 0.02356546 0.03163266 -0.01308977
v 0.02102094 0.03380871 -0.00370662
v 0.02043431 0.03429578 -0.00253420
v 0.01969735 0.03489148 -0.00136177
v 0.01907039 0.03527343 -0.00839631
v 0.01732882 0.03612142 -0.03067235
v 0.01236077 0.03806620 -0.03184477
v 0.01074387 0.03866540 -0.03301719
v 0.00649811 0.04025626 -0.03419339
v 0.01731049 0.03611441 -0.03184477
v 0.01663586 0.03632816 -0.03267414
v 0.01068520 0.03864087 -0.03372592
v 0.02524103 0.02867870 -0.03500390
v 0.02369745 0.03020649 -0.03500390
v 0.02413376 0.02991565 -0.03419339
v 0.02067263 0.03320250 -0.03305866
v 0.00720940 0.03983928 -0.03488327
v 0.00679509 0.03993038 -0.03500390
v 0.00638445 0.04005653 -0.03500390
v 0.00065011 0.02524818 -0.00375563
v 0.01827110 0.00593706 -0.00608163
v 0.01728116 0.00593706 -0.02011677
v 0.00065011 0.02310717 -0.01781339
v 0.02228587 0.03154155 -0.03454021
v 0.01992467 0.03387529 -0.03301719
v 0.01934170 0.03437287 -0.03301719
v 0.01863408 0.03495806 -0.03301719
v 0.01805111 0.03541710 -0.03301719
v 0.01831510 0.03544513 -0.03176560
v 0.01822344 0.03555375 -0.03067235
v 0.01882840 0.03510523 -0.03067235
v 0.02286517 0.03200410 -0.02480646
v 0.02224187 0.03268039 -0.01426597
v 0.02099161 0.03379119 -0.00722389
v 0.02101361 0.03380521 -0.00487904
v 0.02043431 0.03428527 -0.00370662
v 0.01967169 0.03484943 -0.00605147
v 0.01966069 0.03484242 -0.00722389
v 0.01900806 0.03524189 -0.01426597
v 0.01703550 0.03603031 -0.03304735
v 0.01637188 0.03621953 -0.03345449
v 0.01315639 0.03753007 -0.03387672
v 0.02272951 0.03105098 -0.03500390
v 0.01201979 0.03765622 -0.03500390
v 0.00968793 0.03869343 -0.03500390
v 0.00732673 0.03971313 -0.03500390
v 0.00065011 0.02466300 -0.00446436
v 0.01768813 0.00593706 -0.00674512
v 0.01713816 0.00593706 -0.01944574
v 0.00065011 0.02281283 -0.01659573
v 0.02104294 0.03265937 -0.03419339
v 0.02045264 0.03314293 -0.03419339
v 0.01972302 0.03372812 -0.03419339
v 0.01914372 0.03417314 -0.03419339
v 0.01783846 0.03523488 -0.03395588
v 0.01889440 0.03515779 -0.02480646
v 0.01895673 0.03520685 -0.01894435
v 0.02042698 0.03427476 -0.00487904
v 0.01961302 0.03480388 -0.01192112
v 0.01694751 0.03537855 -0.03500390
v 0.01652587 0.03559230 -0.03500390
v 0.01590257 0.03590767 -0.03500390
v 0.01593923 0.03612843 -0.03430648
v 0.01559092 0.03639474 -0.03398981
v 0.01497862 0.03632466 -0.03500390
v 0.02220521 0.03148198 -0.03500390
v 0.00065011 0.02425301 -0.00505246
v 0.00065011 0.02334545 -0.00656417
v 0.00065011 0.02305811 -0.00721258
v 0.00065011 0.02254301 -0.00838123
v 0.00065011 0.02198586 -0.00964790
v 0.01766980 0.00593706 -0.00679036
v 0.00065011 0.02368185 -0.00596853
v 0.01590257 0.00593706 -0.01308977
v 0.00065011 0.02190877 -0.01192112
v 0.02139125 0.03213375 -0.03500390
v 0.02005300 0.03316396 -0.03500390
v 0.01822710 0.03481439 -0.03428763
v 0.01894573 0.03398742 -0.03500390
v 0.01753414 0.03502113 -0.03500390
v 0.01728849 0.03517181 -0.03500390
v 0.00065011 0.02198235 -0.00965921
v 0.01619955 0.00593706 -0.01101259
v 0.01626188 0.00593706 -0.01081278
v 0.01706484 0.00593706 -0.00840008
v 0.01746815 0.00593706 -0.00731437
v 0.01590990 0.00593706 -0.01233957
v 0.00065011 0.02176860 -0.01074493
v 0.01593557 0.00593706 -0.01188342
f 1 2 3
f 1 3 4
f 1 4 5
f 1 5 6
f 1 6 7
f 1 7 8
f 1 8 9
f 1 9 10
f 1 10 11
f 1 11 12
f 1 12 13
f 1 13 14
f 1 14 15
f 1 15 16
f 1 16 17
f 1 17 18
f 1 18 19
f 1 19 20
f 1 20 21
f 1 21 35
f 1 35 67
f 1 67 100
f 1 100 131
f 1 131 175
f 1 175 233
f 1 233 272
f 1 272 299
f 1 299 323
f 1 323 337
f 1 337 336
f 1 336 335
f 1 335 334
f 1 334 340
f 1 340 338
f 1 338 325
f 1 325 300
f 1 300 273
f 1 273 242
f 1 242 241
f 1 241 240
f 1 240 239
f 1 239 238
f 1 238 181
f 1 181 135
f 1 135 106
f 1 106 105
f 1 105 104
f 1 104 103
f 1 103 70
f 1 70 69
f 1 69 37
f 1 37 22
f 1 22 2
f 2 22 36
f 2 36 68
f 2 68 102
f 2 102 134
f 2 134 180
f 2 180 179
f 2 179 237
f 2 237 236
f 2 236 270
f 2 270 269
f 2 269 297
f 2 297 296
f 2 296 295
f 2 295 316
f 2 316 313
f 2 313 312
f 2 312 311
f 2 311 332
f 2 332 331
f 2 331 330
f 2 330 328
f 2 328 327
f 2 327 317
f 2 317 294
f 2 294 265
f 2 265 223
f 2 223 264
f 2 264 225
f 2 225 164
f 2 164 184
f 2 184 183
f 2 183 139
f 2 139 138
f 2 138 112
f 2 112 108
f 2 108 74
f 2 74 72
f 2 72 42
f 2 42 41
f 2 41 40
f 2 40 38
f 2 38 23
f 2 23 10
f 2 10 9
f 2 9 8
f 2 8 7
f 2 7 6
f 2 6 5
f 2 5 4
f 2 4 3
f 10 23 24
f 10 24 11
f 11 24 13
f 11 13 12
f 13 25 26
f 13 26 27
f 13 27 14
f 13 24 28
f 13 28 25
f 14 27 29
f 14 29 30
f 14 30 15
f 15 30 31
f 15 31 16
f 16 32 33
f 16 33 34
f 16 34 55
f 16 55 53
f 16 53 52
f 16 52 91
f 16 91 121
f 16 121 96
f 16 96 59
f 16 59 35
f 16 35 21
f 16 21 20
f 16 20 19
f 16 19 18
f 16 18 17
f 16 31 32
f 22 37 36
f 23 38 24
f 24 38 28
f 25 39 26
f 25 28 38
f 25 38 40
f 25 40 41
f 25 41 42
f 25 42 39
f 26 39 43
f 26 43 44
f 26 44 45
f 26 45 27
f 27 45 46
f 27 46 29
f 29 47 48
f 29 48 30
f 29 46 49
f 29 49 47
f 30 48 31
f 31 48 50
f 31 50 51
f 31 51 32
f 32 51 33
f 33 52 53
f 33 53 54
f 33 54 55
f 33 55 34
f 33 51 56
f 33 56 57
f 33 57 58
f 33 58 52
f 35 59 60
f 35 60 61
f 35 61 62
f 35 62 63
f 35 63 64
f 35 64 65
f 35 65 66
f 35 66 67
f 36 37 69
f 36 69 70
f 36 70 71
f 36 71 107
f 36 107 136
f 36 136 182
f 36 182 243
f 36 243 274
f 36 274 301
f 36 301 326
f 36 326 339
f 36 339 333
f 36 333 322
f 36 322 321
f 36 321 320
f 36 320 319
f 36 319 324
f 36 324 318
f 36 318 298
f 36 298 271
f 36 271 232
f 36 232 231
f 36 231 174
f 36 174 130
f 36 130 99
f 36 99 98
f 36 98 66
f 36 66 65
f 36 65 64
f 36 64 63
f 36 63 62
f 36 62 61
f 36 61 60
f 36 60 97
f 36 97 129
f 36 129 173
f 36 173 172
f 36 172 171
f 36 171 230
f 36 230 234
f 36 234 176
f 36 176 132
f 36 132 101
f 36 101 68
f 39 42 43
f 42 72 43
f 43 72 44
f 44 73 45
f 44 72 74
f 44 74 73
f 45 73 46
f 46 75 49
f 46 73 76
f 46 76 77
f 46 77 75
f 47 49 78
f 47 78 79
f 47 79 80
f 47 80 81
f 47 81 82
f 47 82 83
f 47 83 84
f 47 84 85
f 47 85 48
f 48 85 86
f 48 86 87
f 48 87 56
f 48 56 51
f 48 51 50
f 49 75 88
f 49 88 89
f 49 89 78
f 52 90 91
f 52 58 92
f 52 92 93
f 52 93 90
f 53 55 54
f 56 87 57
f 57 94 58
f 57 87 94
f 58 94 95
f 58 95 93
f 58 93 92
f 59 96 60
f 60 96 97
f 66 98 67
f 67 98 99
f 67 99 100
f 68 101 102
f 70 103 71
f 71 103 104
f 71 104 105
f 71 105 106
f 71 106 107
f 73 74 108
f 73 108 76
f 75 109 88
f 75 77 110
f 75 110 111
f 75 111 109
f 76 108 112
f 76 112 77
f 77 112 110
f 78 89 79
f 79 89 113
f 79 113 80
f 80 114 115
f 80 115 116
f 80 116 117
f 80 117 81
f 80 113 118
f 80 118 114
f 81 117 82
f 82 117 119
f 82 119 120
f 82 120 121
f 82 121 83
f 83 121 84
f 84 121 85
f 85 122 86
f 85 121 122
f 86 122 123
f 86 123 87
f 87 123 95
f 87 95 94
f 88 109 89
f 89 124 118
f 89 118 113
f 89 109 124
f 90 123 91
f 90 93 123
f 91 123 121
f 93 95 123
f 96 121 97
f 97 121 125
f 97 125 126
f 97 126 127
f 97 127 128
f 97 128 129
f 99 130 131
f 99 131 100
f 101 132 133
f 101 133 134
f 101 134 102
f 106 135 136
f 106 136 107
f 109 111 137
f 109 137 124
f 110 112 138
f 110 138 139
f 110 139 111
f 111 140 137
f 111 139 140
f 114 118 141
f 114 141 142
f 114 142 143
f 114 143 115
f 115 143 144
f 115 144 116
f 116 144 145
f 116 145 117
f 117 145 119
f 118 124 141
f 119 146 147
f 119 147 120
f 119 145 148
f 119 148 197
f 119 197 146
f 120 147 121
f 121 123 122
f 121 147 149
f 121 149 150
f 121 150 151
f 121 151 152
f 121 152 153
f 121 153 154
f 121 154 155
f 121 155 156
f 121 156 157
f 121 157 158
f 121 158 159
f 121 159 125
f 124 160 161
f 124 161 162
f 124 162 141
f 124 137 140
f 124 140 163
f 124 163 164
f 124 164 160
f 125 159 165
f 125 165 126
f 126 165 166
f 126 166 128
f 126 128 127
f 128 166 167
f 128 167 168
f 128 168 169
f 128 169 170
f 128 170 171
f 128 171 172
f 128 172 173
f 128 173 129
f 130 174 175
f 130 175 131
f 132 176 177
f 132 177 178
f 132 178 133
f 133 178 179
f 133 179 180
f 133 180 134
f 135 181 136
f 136 181 182
f 139 183 140
f 140 183 184
f 140 184 163
f 141 162 185
f 141 185 186
f 141 186 142
f 142 186 187
f 142 187 188
f 142 188 189
f 142 189 143
f 143 189 190
f 143 190 191
f 143 191 144
f 144 192 193
f 144 193 194
f 144 194 195
f 144 195 145
f 144 191 192
f 145 195 148
f 146 196 147
f 146 197 198
f 146 198 196
f 147 196 149
f 148 195 197
f 149 196 198
f 149 198 199
f 149 199 200
f 149 200 150
f 150 200 199
f 150 199 201
f 150 201 202
f 150 202 203
f 150 203 151
f 151 203 204
f 151 204 205
f 151 205 152
f 152 205 206
f 152 206 207
f 152 207 208
f 152 208 209
f 152 209 153
f 153 209 154
f 154 209 155
f 155 209 156
f 156 209 157
f 157 210 211
f 157 211 212
f 157 212 213
f 157 213 214
f 157 214 215
f 157 215 158
f 157 209 216
f 157 216 217
f 157 217 218
f 157 218 219
f 157 219 210
f 158 215 220
f 158 220 159
f 159 220 221
f 159 221 165
f 160 222 161
f 160 164 222
f 161 222 223
f 161 223 162
f 162 224 185
f 162 223 224
f 163 184 164
f 164 225 222
f 165 221 166
f 166 221 167
f 167 221 220
f 167 220 168
f 168 226 170
f 168 170 169
f 168 220 227
f 168 227 178
f 168 178 228
f 168 228 226
f 170 226 229
f 170 229 230
f 170 230 171
f 174 231 175
f 175 231 232
f 175 232 233
f 176 234 235
f 176 235 228
f 176 228 178
f 176 178 177
f 178 227 236
f 178 236 237
f 178 237 179
f 181 238 182
f 182 238 239
f 182 239 240
f 182 240 241
f 182 241 242
f 182 242 243
f 185 224 187
f 185 187 186
f 187 224 244
f 187 244 188
f 188 244 245
f 188 245 189
f 189 245 190
f 190 246 191
f 190 245 246
f 191 246 247
f 191 247 192
f 192 248 193
f 192 247 248
f 193 248 249
f 193 249 250
f 193 250 251
f 193 251 252
f 193 252 194
f 194 252 195
f 195 252 202
f 195 202 197
f 197 202 198
f 198 202 199
f 199 202 201
f 202 252 251
f 202 251 203
f 203 253 204
f 203 251 253
f 204 206 205
f 204 253 254
f 204 254 206
f 206 254 207
f 207 254 255
f 207 255 256
f 207 256 208
f 208 256 209
f 209 257 216
f 209 256 257
f 210 212 211
f 210 219 218
f 210 218 258
f 210 258 212
f 212 258 213
f 213 258 259
f 213 259 260
f 213 260 227
f 213 227 220
f 213 220 214
f 214 220 215
f 216 257 261
f 216 261 217
f 217 261 262
f 217 262 263
f 217 263 259
f 217 259 258
f 217 258 218
f 222 225 264
f 222 264 223
f 223 265 266
f 223 266 224
f 224 266 267
f 224 267 244
f 226 228 229
f 227 260 268
f 227 268 269
f 227 269 270
f 227 270 236
f 228 235 229
f 229 235 234
f 229 234 230
f 232 271 272
f 232 272 233
f 242 273 274
f 242 274 243
f 244 267 275
f 244 275 276
f 244 276 277
f 244 277 278
f 244 278 279
f 244 279 280
f 244 280 245
f 245 280 281
f 245 281 282
f 245 282 246
f 246 283 247
f 246 282 283
f 247 283 248
f 248 284 249
f 248 283 284
f 249 285 250
f 249 284 285
f 250 285 286
f 250 286 251
f 251 286 253
f 253 286 254
f 254 286 287
f 254 287 255
f 255 287 288
f 255 288 289
f 255 289 256
f 256 289 290
f 256 290 281
f 256 281 257
f 257 281 261
f 259 263 260
f 260 263 268
f 261 279 291
f 261 291 262
f 261 281 280
f 261 280 279
f 262 291 292
f 262 292 293
f 262 293 263
f 263 293 268
f 265 294 275
f 265 275 267
f 265 267 266
f 268 293 295
f 268 295 296
f 268 296 297
f 268 297 269
f 271 298 299
f 271 299 272
f 273 300 301
f 273 301 274
f 275 302 278
f 275 278 277
f 275 277 276
f 275 294 302
f 278 302 303
f 278 303 304
f 278 304 279
f 279 304 305
f 279 305 306
f 279 306 291
f 281 307 282
f 281 290 308
f 281 308 307
f 282 307 283
f 283 307 284
f 284 307 285
f 285 289 309
f 285 309 287
f 285 287 286
f 285 307 308
f 285 308 310
f 285 310 289
f 287 309 289
f 287 289 288
f 289 310 308
f 289 308 290
f 291 306 311
f 291 311 312
f 291 312 313
f 291 313 292
f 292 313 314
f 292 314 315
f 292 315 293
f 293 315 316
f 293 316 295
f 294 317 302
f 298 318 299
f 299 319 320
f 299 320 321
f 299 321 322
f 299 322 323
f 299 318 324
f 299 324 319
f 300 325 301
f 301 325 326
f 302 317 303
f 303 317 304
f 304 317 327
f 304 327 328
f 304 328 305
f 305 329 306
f 305 328 330
f 305 330 329
f 306 329 331
f 306 331 332
f 306 332 311
f 313 316 315
f 313 315 314
f 322 333 334
f 322 334 335
f 322 335 336
f 322 336 337
f 322 337 323
f 325 338 339
f 325 339 326
f 329 330 331
f 333 339 340
f 333 340 334
f 338 340 339

