# https://github.com/mikedh/trimesh
v -0.04110358 -0.00998508 -0.03502968
v -0.04110358 0.00151843 -0.03502968
v -0.03897117 -0.00998508 -0.03502968
v -0.04110358 -0.00998508 0.00482695
v -0.04032313 0.01239101 -0.03502968
v -0.04110358 0.00151843 0.00180615
v -0.03816409 -0.00298132 -0.03502968
v -0.03215400 -0.00998508 -0.03166498
v -0.04106671 -0.00998508 0.00485040
v -0.04110358 -0.00998289 0.00489339
v -0.03769090 0.01239101 -0.03502968
v -0.04032313 0.01239101 0.00318564
v -0.04110358 0.00150529 0.00181006
v -0.03808215 -0.00219266 -0.03502968
v -0.03768271 0.01238882 -0.03502968
v -0.03213352 -0.00998508 -0.03165326
v -0.03805552 -0.00184872 -0.03502968
v -0.03289758 -0.00998508 0.00152869
v -0.03455271 0.01239101 0.00195074
v -0.03572646 0.01239101 0.00224383
v -0.02869421 0.01239101 -0.00003056
v -0.02945417 0.01239101 0.00026253
v -0.03357561 0.01239101 0.00164592
v -0.03365960 0.01239101 0.00167328
v -0.03768271 0.01239101 -0.03502577
v -0.03090446 0.01239101 -0.03028940
v -0.02811040 -0.00998508 -0.02890601
v -0.02866758 -0.00998508 -0.02929289
v -0.03156815 -0.00998508 -0.03129373
v -0.02869216 -0.00998508 -0.00028067
v -0.02850575 0.01239101 -0.00010872
v -0.02998267 0.01239101 -0.02950391
v -0.02675434 -0.00998508 -0.02789386
v -0.02743442 -0.00998508 -0.02841361
v -0.02791375 -0.00998508 -0.00065973
v -0.02769252 0.01239101 -0.00051905
v -0.02992941 0.01239101 -0.02945702
v -0.02887446 0.01239101 -0.02832764
v -0.02561337 0.01239101 -0.02465422
v -0.02484111 0.01239101 -0.02378276
v -0.02382919 0.01239101 -0.02263774
v -0.02345433 0.01239101 -0.02220787
v -0.02305283 0.01239101 -0.02169985
v -0.02627501 -0.00998508 -0.02726860
v -0.02987410 0.01239101 -0.02940622
v -0.02898918 0.01239101 -0.02845269
v -0.02732381 -0.00998508 -0.00114040
v -0.02703703 0.01239101 -0.00098018
v -0.02711282 0.01239101 -0.00092156
v -0.02756142 0.01239101 -0.00059330
v -0.02277629 0.01239101 -0.02132860
v -0.02312248 -0.00998508 -0.02238764
v -0.02666216 -0.00998508 -0.00176176
v -0.02581002 0.01239101 -0.00199623
v -0.02619717 0.01239101 -0.00166797
v -0.02265339 0.01239101 -0.02113320
v -0.02247723 -0.00998508 -0.02137158
v -0.02371243 -0.00998508 -0.00457154
v -0.02313272 -0.00998508 -0.00515772
v -0.02546793 0.01239101 -0.00237921
v -0.02230925 0.01239101 -0.02012106
v -0.02050664 -0.00998508 -0.01786229
v -0.02090608 -0.00998508 -0.01876502
v -0.02154109 -0.00998508 -0.01982405
v -0.02171521 -0.00998508 -0.02011324
v -0.02215767 -0.00998508 -0.02084792
v -0.02314706 0.01239101 -0.00512255
v -0.02357109 0.01239101 -0.00461452
v -0.02471206 0.01239101 -0.00326630
v -0.02260423 -0.00998508 -0.00601746
v -0.02236661 0.01239101 -0.00625584
v -0.02247313 0.01239101 -0.00609562
v -0.02305283 0.01239101 -0.00523588
v -0.02140590 0.01239101 -0.01544330
v -0.02047181 -0.00998508 -0.01771379
v -0.02218635 0.01239101 -0.00656456
v -0.02199585 -0.00998508 -0.00741649
v -0.02186884 0.01239101 -0.00722891
v -0.02097573 0.01239101 -0.01309075
v -0.02030999 -0.00998508 -0.01661958
v -0.02079547 0.01239101 -0.01191447
v -0.02150217 -0.00998508 -0.00856932
v -0.02064798 -0.00998508 -0.01067958
v -0.02144277 0.01239101 -0.00839737
v -0.02030794 -0.00998508 -0.01660004
v -0.02086101 0.01239101 -0.01074601
v -0.02017889 -0.00998508 -0.01309075
v -0.02017889 -0.00998508 -0.01316109
v -0.02064388 -0.00998508 -0.01069130
v -0.02118877 0.01239101 -0.00933526
v -0.02025673 -0.00998508 -0.01189493
v -0.02111502 0.01239101 -0.00961272
f 1 2 5
f 1 5 11
f 1 11 15
f 1 15 17
f 1 17 14
f 1 14 7
f 1 7 3
f 1 3 8
f 1 8 16
f 1 16 29
f 1 29 28
f 1 28 27
f 1 27 34
f 1 34 33
f 1 33 44
f 1 44 52
f 1 52 57
f 1 57 66
f 1 66 65
f 1 65 64
f 1 64 63
f 1 63 62
f 1 62 75
f 1 75 80
f 1 80 85
f 1 85 88
f 1 88 87
f 1 87 91
f 1 91 89
f 1 89 83
f 1 83 82
f 1 82 77
f 1 77 70
f 1 70 59
f 1 59 58
f 1 58 53
f 1 53 47
f 1 47 35
f 1 35 30
f 1 30 18
f 1 18 9
f 1 9 4
f 1 4 10
f 1 10 13
f 1 13 6
f 1 6 2
f 2 6 12
f 2 12 5
f 3 7 8
f 4 9 10
f 5 12 20
f 5 20 19
f 5 19 24
f 5 24 23
f 5 23 22
f 5 22 21
f 5 21 31
f 5 31 36
f 5 36 50
f 5 50 49
f 5 49 48
f 5 48 55
f 5 55 54
f 5 54 60
f 5 60 69
f 5 69 68
f 5 68 67
f 5 67 73
f 5 73 72
f 5 72 71
f 5 71 76
f 5 76 78
f 5 78 84
f 5 84 90
f 5 90 92
f 5 92 86
f 5 86 81
f 5 81 79
f 5 79 74
f 5 74 61
f 5 61 56
f 5 56 51
f 5 51 43
f 5 43 42
f 5 42 41
f 5 41 40
f 5 40 39
f 5 39 38
f 5 38 46
f 5 46 45
f 5 45 37
f 5 37 32
f 5 32 26
f 5 26 25
f 5 25 11
f 6 13 12
f 7 14 8
f 8 15 16
f 8 14 17
f 8 17 15
f 9 18 10
f 10 19 20
f 10 20 12
f 10 12 13
f 10 18 21
f 10 21 22
f 10 22 23
f 10 23 24
f 10 24 19
f 11 25 15
f 15 25 26
f 15 26 27
f 15 27 28
f 15 28 29
f 15 29 16
f 18 30 31
f 18 31 21
f 26 32 33
f 26 33 34
f 26 34 27
f 30 35 31
f 31 35 36
f 32 37 33
f 33 38 39
f 33 39 40
f 33 40 41
f 33 41 42
f 33 42 43
f 33 43 44
f 33 37 45
f 33 45 46
f 33 46 38
f 35 47 48
f 35 48 49
f 35 49 50
f 35 50 36
f 43 51 44
f 44 51 52
f 47 53 54
f 47 54 55
f 47 55 48
f 51 56 57
f 51 57 52
f 53 58 54
f 54 58 59
f 54 59 60
f 56 61 62
f 56 62 63
f 56 63 64
f 56 64 65
f 56 65 66
f 56 66 57
f 59 67 68
f 59 68 69
f 59 69 60
f 59 70 71
f 59 71 72
f 59 72 73
f 59 73 67
f 61 74 75
f 61 75 62
f 70 76 71
f 70 77 78
f 70 78 76
f 74 79 75
f 75 79 81
f 75 81 80
f 77 82 78
f 78 82 83
f 78 83 84
f 80 81 85
f 81 86 87
f 81 87 88
f 81 88 85
f 83 89 84
f 84 89 91
f 84 91 90
f 86 91 87
f 86 92 91
f 90 91 92

