# https://github.com/mikedh/trimesh
v -0.04452257 0.00916799 0.03733589
v -0.04172628 0.00916799 0.03733589
v -0.04827098 0.00916799 0.04014613
v -0.04417461 0.00930066 0.00702183
v -0.04164720 0.00930066 0.00702183
v -0.04113476 0.00930066 0.01858541
v -0.04111894 0.00930066 0.01902074
v -0.04109996 0.00930066 0.01976314
v -0.04172312 0.00916799 0.03851363
v -0.04849873 0.00916799 0.04086133
v -0.04339962 0.01239755 0.00344975
v -0.04047048 0.01239755 0.00344975
v -0.01618643 0.03646392 0.00259852
v -0.04109996 0.00930066 0.02011685
v -0.01747386 0.03723901 0.03968748
v -0.01747386 0.03732979 0.04029384
v -0.04181169 0.00916799 0.03898006
v -0.04111578 0.00930066 0.02092922
v -0.01692346 0.03731582 0.03563342
v -0.04805905 0.01176910 0.04046097
v -0.04805905 0.01176910 0.04025496
v -0.04844496 0.00916799 0.04112564
v -0.04809068 0.01072167 0.04147935
v -0.04798946 0.01150375 0.04123836
v -0.04686968 0.01751598 0.04027052
v -0.04315289 0.01340308 0.00344975
v -0.03683594 0.02585349 0.00259852
v -0.03319507 0.02585349 0.00259852
v -0.01618643 0.04058030 0.00259852
v -0.01618643 0.03713776 0.00702571
v -0.01747386 0.03735772 0.04037935
v -0.04195403 0.00916799 0.03936486
v -0.01692346 0.04042319 0.03563342
v -0.01747386 0.04388668 0.04209348
v -0.01747386 0.04338042 0.04203129
v -0.01747386 0.03923610 0.04114118
v -0.01747386 0.03868795 0.04100125
v -0.01747386 0.03800014 0.04074083
v -0.01747386 0.03766148 0.04056203
v -0.04686968 0.01751598 0.04027829
v -0.04826465 0.00916799 0.04159207
v -0.04819190 0.00988024 0.04154542
v -0.04745171 0.00916799 0.04196521
v -0.04745171 0.00988024 0.04186415
v -0.04754028 0.01108827 0.04164648
v -0.04688866 0.01406296 0.04145603
v -0.04656601 0.01574583 0.04120337
v -0.04594601 0.01926169 0.04059313
v -0.04577204 0.01999488 0.04019666
v -0.04189077 0.01692243 0.00344975
v -0.04213750 0.01635682 0.00344975
v -0.04240954 0.01571440 0.00344975
v -0.04283024 0.01457271 0.00344975
v -0.04312442 0.01351132 0.00344975
v -0.03675370 0.02597918 0.00259852
v -0.04134037 0.01808857 0.00344975
v -0.04102088 0.01871702 0.00344975
v -0.03957529 0.02149619 0.00344975
v -0.03893316 0.02266582 0.00344975
v -0.03858836 0.02325238 0.00344975
v -0.04454471 0.02223987 0.04025108
v -0.04225770 0.02587793 0.04021998
v -0.01618643 0.04050000 0.00607731
v -0.01696775 0.04032194 0.00259852
v -0.01900486 0.04460242 0.04130832
v -0.01814130 0.04474207 0.04116062
v -0.01747386 0.04482936 0.04108677
v -0.01747386 0.04482936 0.04179807
v -0.01618643 0.04047207 0.00702571
v -0.04311177 0.00916799 0.04046486
v -0.04288402 0.00916799 0.04027440
v -0.04252657 0.00916799 0.03995179
v -0.04473767 0.00916799 0.04175921
v -0.04443083 0.00916799 0.04152210
v -0.01747386 0.04446276 0.04193023
v -0.01814130 0.04388668 0.04206627
v -0.02048525 0.04271356 0.04211291
v -0.02282920 0.04154044 0.04215178
v -0.02634986 0.03919421 0.04224118
v -0.04628132 0.00916799 0.04230337
v -0.04582265 0.00916799 0.04224118
v -0.04505715 0.00916799 0.04195744
v -0.04577204 0.01999488 0.04041433
v -0.04699621 0.00916799 0.04212457
v -0.04628132 0.01105336 0.04212457
v -0.04580683 0.01661868 0.04148323
v -0.04565184 0.01740076 0.04141715
v -0.04551898 0.01808857 0.04134719
v -0.04527541 0.01926169 0.04118005
v -0.04208689 0.02559862 0.04135496
v -0.03637411 0.02655177 0.00259852
v -0.04454471 0.02223987 0.04034048
v -0.04225770 0.02587793 0.04057369
v -0.03866428 0.03041678 0.04026662
v -0.03479882 0.02880025 0.00259852
v -0.03496964 0.02858029 0.00259852
v -0.03524800 0.02821020 0.00259852
v -0.03575412 0.02747351 0.00259852
v -0.01729356 0.04018228 0.00259852
v -0.01783447 0.03993090 0.00259852
v -0.02135514 0.04343628 0.04131610
v -0.01900486 0.04460242 0.04162316
v -0.01814130 0.04474207 0.04176309
v -0.02517631 0.04037082 0.04217899
v -0.02048525 0.04363879 0.04177087
v -0.02869381 0.03802458 0.04205850
v -0.02752342 0.03802458 0.04221009
v -0.04158710 0.02160792 0.04206238
v -0.04158710 0.02043480 0.04212846
v -0.04510776 0.01222647 0.04225284
v -0.04628132 0.00988024 0.04227228
v -0.04393421 0.01692243 0.04207016
v -0.04393421 0.01808857 0.04191468
v -0.04393421 0.01926169 0.04175143
v -0.04468705 0.01926169 0.04150267
v -0.04454471 0.01990760 0.04145214
v -0.04437706 0.02068968 0.04134330
v -0.04228301 0.02481654 0.04148712
v -0.04325095 0.02314415 0.04134719
v -0.04102721 0.02692535 0.04145214
v -0.03750970 0.03160735 0.04145991
v -0.04180220 0.02628293 0.04092352
v -0.03866428 0.03041678 0.04045320
v -0.04154281 0.02664604 0.04089242
v -0.03859469 0.03032251 0.04123447
v -0.03529861 0.03411419 0.04085744
v -0.03421046 0.02952996 0.00259852
v -0.02300001 0.03721806 0.00259852
v -0.02370541 0.04225968 0.04132387
v -0.02135514 0.04343628 0.04163871
v -0.02282920 0.04246916 0.04178641
v -0.02405653 0.04161725 0.04188358
v -0.02517631 0.04128208 0.04177087
v -0.02633721 0.04039875 0.04186026
v -0.02986420 0.03685147 0.04202351
v -0.02985471 0.03803855 0.04173977
v -0.03288824 0.03633124 0.04149878
v -0.03413138 0.03520351 0.04150267
v -0.03453311 0.03446682 0.04155320
v -0.04276065 0.02043480 0.04196132
v -0.04276065 0.01926169 0.04209348
v -0.04165353 0.02517615 0.04156874
v -0.04393421 0.01574583 0.04217899
v -0.04282075 0.02276358 0.04161150
v -0.04341860 0.02236207 0.04147157
v -0.03523851 0.03404785 0.04148323
v -0.03474189 0.03470075 0.04085744
v -0.03366007 0.03011651 0.00259852
v -0.02469866 0.03632426 0.00259852
v -0.02593548 0.04106561 0.04133164
v -0.02370541 0.04225968 0.04165037
v -0.02593548 0.04106561 0.04161150
v -0.02946247 0.03873334 0.04157263
v -0.02869381 0.03899520 0.04171256
v -0.03288824 0.03633124 0.04128500
v -0.03415353 0.03521050 0.04085744
v -0.03344180 0.03030854 0.00259852
v -0.02506559 0.03611477 0.00259852
v -0.02946247 0.03873334 0.04128111
v -0.02628027 0.03540252 0.00259852
v -0.02785239 0.03445984 0.00259852
v -0.02841228 0.03411070 0.00259852
v -0.02899431 0.03373014 0.00259852
v -0.02979777 0.03314707 0.00259852
v -0.03231886 0.03120933 0.00259852
v -0.03307171 0.03062277 0.00259852
f 1 2 9
f 1 9 17
f 1 17 32
f 1 32 72
f 1 72 71
f 1 71 70
f 1 70 74
f 1 74 73
f 1 73 82
f 1 82 81
f 1 81 80
f 1 80 84
f 1 84 43
f 1 43 41
f 1 41 22
f 1 22 10
f 1 10 3
f 1 3 4
f 1 4 5
f 1 5 2
f 2 5 6
f 2 6 7
f 2 7 8
f 2 8 9
f 3 10 4
f 4 11 12
f 4 12 5
f 4 10 11
f 5 12 13
f 5 13 6
f 6 13 7
f 7 13 8
f 8 14 9
f 8 13 14
f 9 15 16
f 9 16 17
f 9 14 18
f 9 18 13
f 9 13 19
f 9 19 15
f 10 20 21
f 10 21 11
f 10 22 23
f 10 23 24
f 10 24 20
f 11 21 25
f 11 25 26
f 11 26 27
f 11 27 28
f 11 28 12
f 12 28 13
f 13 28 27
f 13 27 55
f 13 55 91
f 13 91 98
f 13 98 97
f 13 97 96
f 13 96 95
f 13 95 127
f 13 127 148
f 13 148 157
f 13 157 166
f 13 166 165
f 13 165 164
f 13 164 163
f 13 163 162
f 13 162 161
f 13 161 160
f 13 160 158
f 13 158 149
f 13 149 128
f 13 128 100
f 13 100 99
f 13 99 64
f 13 64 29
f 13 29 63
f 13 63 69
f 13 69 30
f 13 30 19
f 13 18 14
f 15 19 16
f 16 31 17
f 16 19 31
f 17 31 32
f 19 33 34
f 19 34 35
f 19 35 36
f 19 36 37
f 19 37 38
f 19 38 39
f 19 39 31
f 19 30 69
f 19 69 33
f 20 40 25
f 20 25 21
f 20 24 40
f 22 41 42
f 22 42 23
f 23 42 43
f 23 43 44
f 23 44 45
f 23 45 46
f 23 46 47
f 23 47 48
f 23 48 40
f 23 40 24
f 25 40 83
f 25 83 49
f 25 49 50
f 25 50 51
f 25 51 52
f 25 52 53
f 25 53 54
f 25 54 26
f 26 54 27
f 27 54 53
f 27 53 52
f 27 52 51
f 27 51 50
f 27 50 56
f 27 56 57
f 27 57 58
f 27 58 59
f 27 59 60
f 27 60 61
f 27 61 62
f 27 62 55
f 29 64 65
f 29 65 66
f 29 66 67
f 29 67 68
f 29 68 63
f 31 70 71
f 31 71 72
f 31 72 32
f 31 39 73
f 31 73 74
f 31 74 70
f 33 69 68
f 33 68 75
f 33 75 34
f 34 75 76
f 34 76 77
f 34 77 78
f 34 78 79
f 34 79 80
f 34 80 81
f 34 81 35
f 35 81 36
f 36 81 37
f 37 81 82
f 37 82 38
f 38 82 39
f 39 82 73
f 40 48 83
f 41 43 42
f 43 84 85
f 43 85 44
f 44 85 86
f 44 86 46
f 44 46 45
f 46 86 87
f 46 87 88
f 46 88 47
f 47 88 89
f 47 89 48
f 48 89 90
f 48 90 83
f 49 83 92
f 49 92 61
f 49 61 59
f 49 59 58
f 49 58 57
f 49 57 56
f 49 56 50
f 55 62 91
f 59 61 60
f 61 92 93
f 61 93 62
f 62 93 123
f 62 123 94
f 62 94 95
f 62 95 96
f 62 96 97
f 62 97 98
f 62 98 91
f 63 68 69
f 64 99 65
f 65 99 100
f 65 100 101
f 65 101 130
f 65 130 102
f 65 102 103
f 65 103 66
f 66 103 68
f 66 68 67
f 68 103 75
f 75 103 76
f 76 103 77
f 77 103 78
f 78 104 79
f 78 103 105
f 78 105 104
f 79 104 106
f 79 106 107
f 79 107 108
f 79 108 109
f 79 109 110
f 79 110 80
f 80 110 111
f 80 111 84
f 83 90 92
f 84 111 85
f 85 111 112
f 85 112 113
f 85 113 114
f 85 114 115
f 85 115 86
f 86 115 87
f 87 116 88
f 87 115 116
f 88 116 89
f 89 116 117
f 89 117 118
f 89 118 119
f 89 119 90
f 90 119 118
f 90 118 120
f 90 120 121
f 90 121 122
f 90 122 93
f 90 93 92
f 93 122 124
f 93 124 125
f 93 125 123
f 94 123 126
f 94 126 127
f 94 127 95
f 100 128 129
f 100 129 101
f 101 129 151
f 101 151 130
f 102 130 105
f 102 105 103
f 104 105 131
f 104 131 132
f 104 132 133
f 104 133 134
f 104 134 106
f 105 130 131
f 106 135 108
f 106 108 107
f 106 134 136
f 106 136 137
f 106 137 138
f 106 138 139
f 106 139 121
f 106 121 135
f 108 140 141
f 108 141 109
f 108 135 121
f 108 121 120
f 108 120 142
f 108 142 118
f 108 118 140
f 109 143 110
f 109 141 143
f 110 143 111
f 111 143 141
f 111 141 112
f 112 141 140
f 112 140 113
f 113 140 114
f 114 140 144
f 114 144 115
f 115 144 145
f 115 145 116
f 116 145 117
f 117 145 118
f 118 145 144
f 118 144 140
f 118 142 120
f 121 139 138
f 121 138 146
f 121 146 126
f 121 126 123
f 121 123 125
f 121 125 122
f 122 125 124
f 126 147 148
f 126 148 127
f 126 146 147
f 128 149 129
f 129 150 152
f 129 152 151
f 129 149 150
f 130 151 131
f 131 151 133
f 131 133 132
f 133 151 152
f 133 152 134
f 134 152 153
f 134 153 154
f 134 154 136
f 136 154 137
f 137 153 159
f 137 159 155
f 137 155 147
f 137 147 138
f 137 154 153
f 138 147 146
f 147 156 157
f 147 157 148
f 147 155 156
f 149 158 150
f 150 159 153
f 150 153 152
f 150 158 160
f 150 160 161
f 150 161 162
f 150 162 163
f 150 163 159
f 155 159 163
f 155 163 164
f 155 164 165
f 155 165 166
f 155 166 156
f 156 166 157

