# https://github.com/mikedh/trimesh
v -0.04341606 0.00744288 -0.03503053
v -0.04334593 0.00846081 -0.03503053
v -0.04241088 0.00401031 -0.03752995
v -0.04240308 0.00284245 -0.03766218
v -0.04283944 0.00401031 -0.03654246
v -0.04281606 0.00284245 -0.03654246
v -0.04339268 0.00634603 -0.03503053
v 0.00064825 0.03656837 -0.03500435
v 0.00064825 0.04046650 -0.03500435
v -0.04322126 0.00915521 -0.03503053
v -0.04234075 0.00518606 -0.03732911
v -0.04210699 0.00284245 -0.03824845
v -0.04237971 0.00166670 -0.03761389
v -0.04333814 0.00492566 -0.03503053
v -0.04276931 0.00166670 -0.03654246
v -0.04309658 -0.00136342 -0.03503053
v 0.02958809 0.00592781 -0.03500435
v -0.04296412 -0.00418838 -0.03503053
v -0.04290178 -0.00537203 -0.03503053
v -0.04274594 -0.00770775 -0.03503053
v -0.04266022 -0.00887561 -0.03503053
v -0.04259010 -0.00966470 -0.03503053
v -0.04255893 -0.00998034 -0.03503053
v 0.00130278 0.04049017 -0.03500435
v 0.00005605 0.04043493 -0.03503053
v -0.00099589 0.04039548 -0.03503053
v -0.00434649 0.04024555 -0.03503053
v -0.00758021 0.04008773 -0.03503053
v -0.00874902 0.03998515 -0.03503053
v -0.00992563 0.03983522 -0.03503053
v -0.01144509 0.03963795 -0.03503053
v -0.01227105 0.03951958 -0.03503053
v -0.01696189 0.03880151 -0.03503053
v -0.01736708 0.03873049 -0.03503053
v -0.01771773 0.03865158 -0.03503053
v -0.01789694 0.03859634 -0.03503053
v -0.02015665 0.03756263 -0.03503053
v -0.02471503 0.03516378 -0.03503053
v -0.02699811 0.03395647 -0.03503053
v -0.02741109 0.03370395 -0.03503053
v -0.02758252 0.03359348 -0.03503053
v -0.02838510 0.03300955 -0.03503053
v -0.02896951 0.03244929 -0.03503053
v -0.02998248 0.03145503 -0.03503053
v -0.03133831 0.03012146 -0.03503053
v -0.03234349 0.02911931 -0.03503053
v -0.03309932 0.02836178 -0.03503053
v -0.03368373 0.02773840 -0.03503053
v -0.03383178 0.02757269 -0.03503053
v -0.03418243 0.02714658 -0.03503053
v -0.03520319 0.02578933 -0.03503053
v -0.03754861 0.02245935 -0.03503053
v -0.03824990 0.02137829 -0.03503053
v -0.03851483 0.02091272 -0.03503053
v -0.03878756 0.02043138 -0.03503053
v -0.03906807 0.01983956 -0.03503053
v -0.03941871 0.01908202 -0.03503053
v -0.03965248 0.01855333 -0.03503053
v -0.03990962 0.01792995 -0.03503053
v -0.04008883 0.01747227 -0.03503053
v -0.04121089 0.01453684 -0.03503053
v -0.04241867 0.01133311 -0.03503053
v -0.04308879 0.00953398 -0.03503053
v -0.04223166 0.00593570 -0.03719100
v -0.04193556 0.00401031 -0.03811666
v -0.04134336 0.00401031 -0.03846102
v -0.04152258 0.00284245 -0.03851879
v -0.04149141 0.00166670 -0.03855309
v -0.04207582 0.00166670 -0.03820016
v -0.04222387 -0.00301263 -0.03719642
v -0.04259010 -0.00183688 -0.03654246
v -0.04266022 -0.00066902 -0.03654246
v -0.04271477 0.00049095 -0.03654246
v -0.04297191 -0.00183688 -0.03536992
v -0.04291736 -0.00301263 -0.03536992
v 0.03569710 0.00592781 -0.03500435
v -0.04278490 -0.00536414 -0.03536992
v -0.04285503 -0.00418838 -0.03536992
v -0.04262127 -0.00770775 -0.03536992
v -0.04270698 -0.00653200 -0.03536992
v -0.04252776 -0.00887561 -0.03536992
v -0.04240308 -0.00998034 -0.03545748
v -0.04238750 -0.01009081 -0.03546605
v -0.04234854 -0.01081678 -0.03527966
v -0.04227841 -0.01121922 -0.03527966
v -0.04193556 -0.01228450 -0.03527966
v -0.04129661 -0.01357861 -0.03527966
v -0.04124207 -0.01368120 -0.03527966
v -0.03600578 -0.02284259 -0.03527966
v -0.03531228 -0.02403412 -0.03527966
v -0.03445515 -0.02508362 -0.03527966
v -0.03325516 -0.02634617 -0.03527966
v -0.03311491 -0.02648031 -0.03527966
v -0.03198505 -0.02752192 -0.03527966
v -0.03059027 -0.02879236 -0.03527966
v -0.02863445 -0.03052048 -0.03527966
v -0.02798771 -0.03108074 -0.03527966
v -0.02769161 -0.03133325 -0.03527966
v -0.02745784 -0.03152263 -0.03527966
v -0.02653838 -0.03224071 -0.03527966
v -0.02625007 -0.03246165 -0.03527966
v -0.02501113 -0.03338490 -0.03527966
v -0.02399036 -0.03413453 -0.03527966
v -0.02339037 -0.03456854 -0.03527966
v -0.02275921 -0.03501043 -0.03527966
v -0.02183975 -0.03556280 -0.03527966
v -0.02049171 -0.03620197 -0.03527966
v -0.01930731 -0.03661229 -0.03527966
v -0.01583983 -0.03774070 -0.03527966
v -0.01229443 -0.03888489 -0.03527966
v -0.00992563 -0.03959507 -0.03527966
v -0.00874902 -0.03983969 -0.03527966
v -0.00750229 -0.03993438 -0.03527966
v -0.00641139 -0.03999751 -0.03527966
v -0.00528154 -0.04003696 -0.03527966
v -0.00414389 -0.04006853 -0.03527966
v -0.00302962 -0.04009220 -0.03527966
v -0.00189198 -0.04010798 -0.03527966
v -0.03896677 -0.00998034 -0.03503053
v 0.00238588 0.04048228 -0.03500435
v 0.00414690 0.04027711 -0.03533066
v 0.00180148 0.04025344 -0.03537037
v 0.00064825 0.04011141 -0.03551841
v -0.00758021 0.04002460 -0.03511989
v -0.00758021 0.03959060 -0.03570616
v -0.00875681 0.03996937 -0.03505806
v -0.00992563 0.03949591 -0.03554143
v -0.01215417 0.03771256 -0.03778494
v -0.01461647 0.03892776 -0.03546244
v -0.01579308 0.03889620 -0.03524942
v -0.01696189 0.03878572 -0.03510816
v -0.01696189 0.03842274 -0.03569442
v -0.01817746 0.03830438 -0.03534916
v -0.01931510 0.03777568 -0.03541821
v -0.02014886 0.03756263 -0.03505896
v -0.02693577 0.03392490 -0.03596747
v -0.02756693 0.03358559 -0.03536992
v -0.02837731 0.03300166 -0.03536992
v -0.02896172 0.03243351 -0.03536992
v -0.02956171 0.03184958 -0.03536992
v -0.03132272 0.03010568 -0.03536992
v -0.03309153 0.02835389 -0.03536992
v -0.03367594 0.02772261 -0.03536992
v -0.03416684 0.02713868 -0.03536992
v -0.03520319 0.02578933 -0.03503640
v -0.03406554 0.02702032 -0.03605638
v -0.03526553 0.02480296 -0.03604600
v -0.03834340 0.01925563 -0.03574768
v -0.03927067 0.01919250 -0.03510455
v -0.03987066 0.01525491 -0.03599004
v -0.04100051 0.00928936 -0.03713007
v -0.04096934 0.01274559 -0.03593272
v -0.04144466 0.01339265 -0.03522776
v -0.04187322 0.01104904 -0.03566915
v -0.04270698 0.00975492 -0.03532660
v -0.04114856 0.00492566 -0.03838655
v -0.04096155 0.00570687 -0.03828094
v -0.03571747 0.01339265 -0.03902246
v -0.03689407 0.01104904 -0.03896515
v -0.04040831 0.00401031 -0.03876927
v -0.04040831 0.00284245 -0.03888030
v -0.04040831 0.00166670 -0.03896740
v -0.04040831 0.00049095 -0.03897914
v -0.04040831 -0.00066902 -0.03888120
v -0.04133557 0.00049095 -0.03851428
v -0.04218491 -0.00372282 -0.03714903
v -0.04220049 -0.00971994 -0.03599275
v -0.04250438 -0.00301263 -0.03654246
v 0.03618021 -0.00066902 -0.03629378
v 0.03611787 0.00012797 -0.03629378
v 0.03559580 0.00492566 -0.03629378
v 0.03548671 0.00592781 -0.03613266
v 0.03519061 0.00677214 -0.03699017
v 0.03513607 0.00756913 -0.03657676
v 0.03519840 0.00797946 -0.03581538
v 0.03547892 0.00716669 -0.03500435
v -0.00055174 -0.04003696 -0.03527966
v 0.00058591 -0.03982391 -0.03527966
v 0.00064045 -0.03980024 -0.03527966
v 0.01997265 -0.03174358 -0.03534149
v 0.02141418 -0.03074932 -0.03534149
v 0.02198301 -0.03024430 -0.03534149
v 0.02224015 -0.02997600 -0.03534149
v 0.02254404 -0.02964459 -0.03534149
v 0.02365052 -0.02841360 -0.03534149
v 0.02474141 -0.02715894 -0.03534149
v 0.02636996 -0.02523354 -0.03534149
v 0.02835694 -0.02285048 -0.03534149
v 0.02954134 -0.02141433 -0.03534149
v 0.03015692 -0.02059367 -0.03534149
v 0.03109976 -0.01926799 -0.03534149
v 0.03159845 -0.01854991 -0.03534149
v 0.03222961 -0.01762667 -0.03534149
v 0.03258805 -0.01709798 -0.03534149
v 0.03291532 -0.01657717 -0.03534149
v 0.03319583 -0.01601692 -0.03534149
v 0.03376466 -0.01476226 -0.03534149
v 0.03402180 -0.01402840 -0.03534149
v 0.03419322 -0.01340501 -0.03534149
v 0.03501139 -0.00998823 -0.03534149
v 0.03618800 -0.00130030 -0.03629378
v -0.04218491 -0.00998034 -0.03596928
v -0.04214595 -0.01050114 -0.03592099
v -0.04206023 -0.01121922 -0.03576167
v -0.04186543 -0.01236341 -0.03535322
v -0.04127324 -0.01357861 -0.03534104
v -0.04089142 -0.01397316 -0.03571247
v -0.03619278 -0.02217975 -0.03571789
v -0.03641876 -0.02139854 -0.03619765
v -0.03619278 -0.02107502 -0.03697933
v -0.03515644 -0.02357645 -0.03598192
v -0.03161882 -0.02705635 -0.03595799
v -0.03042663 -0.02821632 -0.03594852
v -0.03358243 -0.02550973 -0.03568404
v -0.02798771 -0.03047313 -0.03586231
v -0.02720071 -0.03081245 -0.03618591
v -0.02672539 -0.03159365 -0.03580229
v -0.02399036 -0.03379522 -0.03564658
v -0.02291505 -0.03474214 -0.03545387
v -0.02331245 -0.03403984 -0.03590068
v -0.02190987 -0.03508145 -0.03578920
v -0.02156702 -0.03561803 -0.03538662
v -0.02055405 -0.03611516 -0.03535909
v -0.01930731 -0.03629666 -0.03577792
v -0.01527880 -0.03763812 -0.03598417
v -0.01188144 -0.03884543 -0.03603111
v -0.01266066 -0.03871129 -0.03557347
v -0.00992563 -0.03958718 -0.03536992
v -0.00874902 -0.03983180 -0.03536992
v -0.00761138 -0.03992649 -0.03538798
v -0.00641139 -0.03993438 -0.03577566
v -0.00523479 -0.03992649 -0.03584201
v -0.00406597 -0.03989493 -0.03582440
v -0.00172834 -0.03980813 -0.03578017
v -0.00055174 -0.03978446 -0.03572060
v 0.00414690 0.04043493 -0.03500435
v 0.00532351 0.04019820 -0.03527966
v 0.00532351 0.03968529 -0.03586592
v 0.00414690 0.03973264 -0.03591738
v 0.00244822 0.03977998 -0.03595980
v 0.00180148 0.03978788 -0.03596702
v 0.00289237 0.04017453 -0.03547734
v 0.00099889 0.03978788 -0.03596747
v -0.00503219 0.03862001 -0.03714948
v -0.00875681 0.03853321 -0.03703846
v -0.01168664 0.03742848 -0.03830080
v -0.00992563 0.03796506 -0.03771408
v -0.01247364 0.03737324 -0.03822272
v -0.01579308 0.03851743 -0.03583614
v -0.01461647 0.03761786 -0.03739139
v -0.01553594 0.03753106 -0.03724832
v -0.01696189 0.03783881 -0.03640164
v -0.01813850 0.03767310 -0.03618185
v -0.01892550 0.03751528 -0.03603337
v -0.01970471 0.03734168 -0.03584065
v -0.02459815 0.03510065 -0.03596792
v -0.02633578 0.03406694 -0.03611957
v -0.02740330 0.03330941 -0.03622608
v -0.02826822 0.03289908 -0.03610919
v -0.02944483 0.03174700 -0.03610738
v -0.03296686 0.02822763 -0.03609520
v -0.03179804 0.02940339 -0.03610016
v -0.03336425 0.02743065 -0.03626625
v -0.03327854 0.02620755 -0.03678572
v -0.03429151 0.02628646 -0.03619810
v -0.03641876 0.02241990 -0.03603156
v -0.03463436 0.02515806 -0.03634703
v -0.03600578 0.02043138 -0.03693420
v -0.03869405 0.01407127 -0.03715851
v -0.03999533 0.00729295 -0.03839784
v -0.03337205 0.01925563 -0.03888436
v -0.03454086 0.01573626 -0.03907888
v -0.03754082 0.01645434 -0.03717114
v -0.03503956 0.02198590 -0.03706960
v -0.03849925 0.01104904 -0.03820738
v -0.03647330 0.01456840 -0.03840641
v -0.03883431 0.00966812 -0.03840957
v -0.03571747 0.01221690 -0.03917275
v -0.03689407 0.00987329 -0.03910731
v -0.03923950 0.00284245 -0.03916644
v -0.03923950 0.00166670 -0.03925444
v -0.03923950 0.00049095 -0.03930680
v -0.03923950 -0.00066902 -0.03930003
v -0.03923950 -0.00183688 -0.03922465
v -0.03923950 -0.00301263 -0.03910190
v -0.03761095 -0.01473858 -0.03838204
v -0.03751744 -0.01548822 -0.03832562
v -0.03983949 -0.01301836 -0.03713549
v -0.04147583 -0.01121922 -0.03629468
v 0.03527632 0.00517817 -0.03718739
v 0.03525295 0.00598305 -0.03716663
v 0.03442698 0.00869754 -0.03755296
v 0.03424777 0.00987329 -0.03738236
v 0.03490230 0.00869754 -0.03654291
v 0.03526074 0.00830299 -0.03500435
v 0.03540879 0.00755335 -0.03500435
v 0.00064825 -0.03978446 -0.03534149
v 0.00183265 -0.03949249 -0.03534149
v 0.00300146 -0.03918474 -0.03534149
v 0.00652349 -0.03820626 -0.03534149
v 0.00768451 -0.03784328 -0.03534149
v 0.00830009 -0.03763023 -0.03534149
v 0.01108966 -0.03657284 -0.03534149
v 0.01159614 -0.03635189 -0.03534149
v 0.01346625 -0.03548389 -0.03534149
v 0.01402728 -0.03521559 -0.03534149
v 0.01468181 -0.03489996 -0.03534149
v 0.01581946 -0.03433181 -0.03534149
v 0.01636491 -0.03404774 -0.03534149
v 0.01701165 -0.03366897 -0.03534149
v 0.01790774 -0.03309293 -0.03534149
v 0.01765060 -0.03293511 -0.03597830
v 0.01902980 -0.03189351 -0.03623646
v 0.01980901 -0.03163310 -0.03575445
v 0.01871033 -0.03168045 -0.03701905
v 0.01761164 -0.03171991 -0.03827959
v 0.02112588 -0.03055204 -0.03593498
v 0.01995706 -0.03055994 -0.03711428
v 0.02302715 -0.02895018 -0.03549223
v 0.02453102 -0.02691432 -0.03581808
v 0.02598035 -0.02371059 -0.03728668
v 0.02566088 -0.02566755 -0.03574587
v 0.02708683 -0.02246382 -0.03722891
v 0.02748423 -0.02281892 -0.03640977
v 0.02930758 -0.02113025 -0.03589842
v 0.02818552 -0.02119338 -0.03713053
v 0.03064003 -0.01899970 -0.03607850
v 0.03169196 -0.01765034 -0.03594355
v 0.03237767 -0.01723212 -0.03548501
v 0.03273610 -0.01624575 -0.03580815
v 0.03322700 -0.01587488 -0.03539835
v 0.03374128 -0.01478593 -0.03536676
v 0.03389712 -0.01357072 -0.03576393
v 0.03400621 -0.01280530 -0.03590203
v 0.03498802 -0.00998823 -0.03538572
v 0.03598541 -0.00306787 -0.03629378
v 0.03610229 -0.00225510 -0.03629378
v 0.03614904 -0.00184477 -0.03629378
v 0.03524516 0.00311863 -0.03714723
v 0.03526853 0.00400242 -0.03717205
v -0.04128882 -0.01239497 -0.03618907
v -0.04111739 -0.01319196 -0.03607489
v -0.03870184 -0.01658506 -0.03717972
v -0.03666031 -0.02065680 -0.03656998
v -0.03746290 -0.01881031 -0.03708088
v -0.03645772 -0.02029381 -0.03733001
v -0.03541357 -0.02148534 -0.03734175
v -0.03460320 -0.02300830 -0.03681325
v -0.03444735 -0.02403412 -0.03616605
v -0.03502397 -0.02226655 -0.03705290
v -0.02910977 -0.02807429 -0.03701318
v -0.02792537 -0.02923425 -0.03699784
v -0.02672539 -0.03038634 -0.03696760
v -0.02633578 -0.03115965 -0.03653569
v -0.02593839 -0.03188561 -0.03610377
v -0.02463711 -0.03295878 -0.03600087
v -0.02537736 -0.03151474 -0.03688546
v -0.02594618 -0.03072564 -0.03724065
v -0.02459035 -0.03175936 -0.03713820
v -0.02113845 -0.03531029 -0.03598914
v -0.01867615 -0.03642291 -0.03593227
v -0.02048392 -0.03546810 -0.03613446
v -0.01262169 -0.03752764 -0.03704523
v -0.01224767 -0.03819048 -0.03653839
v -0.01184248 -0.03766968 -0.03717656
v -0.01110223 -0.03896380 -0.03617237
v -0.00992563 -0.03915318 -0.03632176
v -0.00874902 -0.03928733 -0.03637276
v -0.00758021 -0.03933467 -0.03637953
v -0.00641139 -0.03935045 -0.03636689
v -0.00523479 -0.03934256 -0.03633891
v 0.00414690 -0.03779594 -0.03726863
v 0.00532351 -0.03774070 -0.03726457
v 0.00612609 -0.03766968 -0.03720680
v 0.00501961 0.04035602 -0.03500435
v 0.00532351 0.04030868 -0.03500435
v 0.00638323 0.04005617 -0.03500435
v 0.00649232 0.03999304 -0.03508965
v 0.00649232 0.03955904 -0.03567592
v 0.00649232 0.03896722 -0.03629333
v 0.00766893 0.03639477 -0.03841499
v 0.00649232 0.03774412 -0.03740493
v 0.00649232 0.03649735 -0.03849668
v 0.00532351 0.03909347 -0.03637772
v 0.00532351 0.03840696 -0.03696399
v 0.00064825 0.03854110 -0.03708539
v -0.00289716 0.03863580 -0.03716392
v -0.00758021 0.03748372 -0.03835225
v -0.00875681 0.03749161 -0.03836850
v -0.00406597 0.03863580 -0.03716889
v -0.00992563 0.03747583 -0.03835812
v -0.01110223 0.03744427 -0.03832382
v -0.01110223 0.03683666 -0.03885457
v -0.01215417 0.03692346 -0.03870293
v -0.01344766 0.03669462 -0.03868713
v -0.01344766 0.03727855 -0.03812163
v -0.01461647 0.03708917 -0.03797765
v -0.01632294 0.03740481 -0.03710796
v -0.01878524 0.03629218 -0.03715219
v -0.02169949 0.03570036 -0.03656276
v -0.02138001 0.03639477 -0.03607714
v -0.02403711 0.03445360 -0.03673968
v -0.02505788 0.03450094 -0.03629649
v -0.02445010 0.03380654 -0.03708675
v -0.02741888 0.03206264 -0.03687056
v -0.02867341 0.03214155 -0.03632040
v -0.03219544 0.02863007 -0.03629784
v -0.03101883 0.02979793 -0.03630822
v -0.03212531 0.02739119 -0.03684755
v -0.03247595 0.02653897 -0.03701634
v -0.03283439 0.02576566 -0.03714948
v -0.03283439 0.02226208 -0.03832923
v -0.03362919 0.02511860 -0.03696399
v -0.03387074 0.02435318 -0.03707772
v -0.03449411 0.02395074 -0.03680964
v -0.03340322 0.02036825 -0.03856708
v -0.03300582 0.02159135 -0.03843349
v -0.03219544 0.02043138 -0.03908159
v -0.03337205 0.01807988 -0.03911138
v -0.03454086 0.01456840 -0.03921653
v -0.03406554 0.02357197 -0.03719462
v -0.03445515 0.02036825 -0.03791763
v -0.03400321 0.01993425 -0.03832743
v -0.03416684 0.01925563 -0.03842898
v -0.03571747 0.01104904 -0.03924948
v -0.03689407 0.00869754 -0.03920480
v -0.03689407 0.00752178 -0.03927024
v -0.03806289 0.00401031 -0.03928919
v -0.03806289 0.00284245 -0.03932936
v -0.03806289 0.00166670 -0.03935148
v -0.03806289 -0.00301263 -0.03931582
v -0.03806289 -0.00418838 -0.03927610
v -0.03806289 -0.00536414 -0.03919081
v -0.03806289 -0.00653200 -0.03908700
v -0.03635642 -0.01892079 -0.03832743
v -0.03775121 -0.01357072 -0.03846192
v -0.03796938 -0.01589066 -0.03792350
v -0.03902911 -0.01473858 -0.03739500
v -0.03736160 -0.01626943 -0.03825973
v 0.03463737 0.00517817 -0.03761750
v 0.03377245 0.00752968 -0.03819429
v 0.03454387 0.00752968 -0.03760848
v 0.03345297 0.00877645 -0.03816495
v 0.03346076 0.00987329 -0.03790364
v 0.03303999 0.01339265 -0.03730248
v 0.03291532 0.01410284 -0.03718153
v 0.03411530 0.01064660 -0.03722711
v 0.03457503 0.00987329 -0.03654291
v 0.03478542 0.00987329 -0.03537037
v 0.03484776 0.00987329 -0.03500435
v 0.00361704 -0.03879808 -0.03599049
v 0.00690530 -0.03755921 -0.03698520
v 0.00731049 -0.03769335 -0.03620306
v 0.00809749 -0.03755132 -0.03578830
v 0.00768451 -0.03742506 -0.03657360
v 0.01067668 -0.03647815 -0.03602569
v 0.00943773 -0.03644658 -0.03713865
v 0.01649737 -0.03294300 -0.03716257
v 0.01617010 -0.03394515 -0.03570345
v 0.01793112 -0.03194085 -0.03749700
v 0.01714412 -0.03126223 -0.03859236
v 0.01800904 -0.03094659 -0.03846689
v 0.01878045 -0.03055994 -0.03828816
v 0.01588180 -0.03309293 -0.03742434
v 0.01522726 -0.03288777 -0.03827192
v 0.01682464 -0.03190140 -0.03842446
v 0.02485829 -0.02492580 -0.03732189
v 0.02440635 -0.02441289 -0.03810358
v 0.02552062 -0.02318190 -0.03806702
v 0.02631541 -0.02282681 -0.03764684
v 0.02753098 -0.02165894 -0.03739952
v 0.02667385 -0.02177731 -0.03805303
v 0.02838811 -0.02060945 -0.03729300
v 0.02922966 -0.01980457 -0.03699513
v 0.02947121 -0.01902337 -0.03720770
v 0.03295428 -0.01546455 -0.03600899
v 0.03310233 -0.01474647 -0.03611280
v 0.03330492 -0.01357072 -0.03626489
v 0.03355427 -0.01240286 -0.03633756
v 0.03409972 -0.01201621 -0.03599771
v 0.03544775 -0.00536414 -0.03629378
v 0.03567372 -0.00444878 -0.03629378
v 0.03573606 -0.00418838 -0.03629378
v 0.03571268 -0.00418838 -0.03631679
v 0.03419322 -0.00536414 -0.03722937
v 0.03488672 -0.00418838 -0.03690306
v 0.03430231 -0.00418838 -0.03728939
v 0.03580619 -0.00184477 -0.03652169
v 0.03521399 0.00232954 -0.03712376
v 0.03463737 0.00400242 -0.03756921
v -0.03883431 -0.01591433 -0.03727450
v -0.03665252 -0.01936268 -0.03771860
v -0.03424476 -0.02264531 -0.03733272
v -0.02832277 -0.02845305 -0.03726863
v -0.02714616 -0.02960513 -0.03725599
v -0.03187596 -0.02496525 -0.03730925
v -0.02211247 -0.03158576 -0.03826199
v -0.01994626 -0.03295089 -0.03832382
v -0.02399036 -0.03194085 -0.03727450
v -0.02044496 -0.03348748 -0.03769694
v -0.01850473 -0.03396883 -0.03820242
v -0.01772552 -0.03418188 -0.03837888
v -0.01930731 -0.03571272 -0.03637501
v -0.01861382 -0.03522349 -0.03709171
v -0.01696189 -0.03492363 -0.03797224
v -0.01516192 -0.03525505 -0.03829132
v -0.01110223 -0.03775648 -0.03722259
v -0.00992563 -0.03842721 -0.03690802
v -0.01110223 -0.03834830 -0.03675864
v -0.01438271 -0.03537341 -0.03837030
v -0.00874902 -0.03845877 -0.03695947
v -0.00758021 -0.03848245 -0.03696624
v -0.00641139 -0.03849034 -0.03695316
v 0.00532351 -0.03702262 -0.03778494
v 0.00649232 -0.03624931 -0.03822949
v 0.00650790 -0.03710153 -0.03758591
v 0.00766893 -0.03684113 -0.03755206
v 0.00678842 0.03992991 -0.03500435
v 0.00921955 0.03854110 -0.03581808
v 0.00844034 0.03865947 -0.03601621
v 0.00766893 0.03878572 -0.03613446
v 0.00766893 0.03759419 -0.03728533
v 0.00835463 0.03629218 -0.03833194
v 0.00878320 0.03573193 -0.03865419
v 0.00766893 0.03567669 -0.03892588
v 0.00649232 0.03567669 -0.03902111
v 0.00414690 0.03656837 -0.03855399
v -0.00571010 0.03743637 -0.03830622
v -0.00172834 0.03673408 -0.03869616
v -0.00289716 0.03676564 -0.03872279
v -0.00406597 0.03679721 -0.03874716
v -0.00641139 0.03683666 -0.03881125
v -0.00758021 0.03683666 -0.03885638
v -0.00875681 0.03683666 -0.03888571
v -0.00992563 0.03683666 -0.03888481
v -0.01227105 0.03566880 -0.03930815
v -0.01344766 0.03566880 -0.03920209
v -0.01461647 0.03651313 -0.03850164
v -0.01461647 0.03566880 -0.03894168
v -0.01539568 0.03634742 -0.03836940
v -0.02124755 0.03516378 -0.03719416
v -0.01774889 0.03517167 -0.03835045
v -0.01852810 0.03492705 -0.03824348
v -0.02403711 0.03338042 -0.03733543
v -0.02633578 0.03245718 -0.03704342
v -0.02775395 0.03128143 -0.03704207
v -0.02862666 0.03092634 -0.03688095
v -0.02981106 0.02976637 -0.03687327
v -0.03097208 0.02858273 -0.03686063
v -0.03017729 0.02893782 -0.03703349
v -0.02939808 0.02935604 -0.03717430
v -0.03214869 0.02388761 -0.03803723
v -0.03249933 0.02304328 -0.03819564
v -0.03219544 0.02159135 -0.03877378
v -0.03214869 0.02269608 -0.03844026
v -0.03102662 0.02159135 -0.03909829
v -0.03219544 0.01925563 -0.03925174
v -0.03337205 0.01690412 -0.03923594
v -0.03454086 0.01339265 -0.03927204
v -0.03689407 0.00634603 -0.03931041
v -0.03337205 0.01573626 -0.03929100
v -0.03454086 0.01221690 -0.03930815
v -0.03571747 0.00869754 -0.03932349
v -0.03219544 0.01807988 -0.03928919
v -0.01344766 0.03450094 -0.03931312
v 0.02407908 0.02277499 -0.03961505
v 0.00455988 -0.03294300 -0.03947875
v -0.01578529 -0.03233540 -0.03930635
v -0.01696189 -0.03233540 -0.03928694
v -0.03689407 -0.01239497 -0.03879229
v -0.03721355 -0.01709009 -0.03816947
v -0.03572526 -0.01826584 -0.03847275
v -0.01813850 -0.03233540 -0.03912536
v 0.03409972 0.00592781 -0.03797314
v 0.03378803 0.00635392 -0.03817443
v 0.03320363 0.00635392 -0.03845561
v 0.03228416 0.00635392 -0.03884148
v 0.03318804 0.00752968 -0.03842266
v 0.02584009 0.02103109 -0.03947559
v 0.02478816 0.02350885 -0.03953381
v 0.03169975 0.01749594 -0.03712737
v 0.03169196 0.01862435 -0.03589842
v 0.03299324 0.01452106 -0.03644226
v 0.03396725 0.01143570 -0.03685387
v 0.03420101 0.01104115 -0.03649507
v 0.03409192 0.01245363 -0.03500435
v 0.03445816 0.01104904 -0.03537037
v 0.03452049 0.01104904 -0.03500435
v 0.00883774 -0.03658073 -0.03731331
v 0.01588180 -0.03213813 -0.03851879
v 0.01588180 -0.03115965 -0.03883652
v 0.01704282 -0.02998390 -0.03892498
v 0.01821942 -0.02881604 -0.03897507
v 0.01832851 -0.03008648 -0.03863026
v 0.01913110 -0.02977084 -0.03846463
v 0.02025316 -0.02854774 -0.03844116
v 0.02249729 -0.02608577 -0.03839061
v 0.02474141 -0.02362379 -0.03833962
v 0.02586347 -0.02239280 -0.03831389
v 0.01274158 -0.03400828 -0.03823717
v 0.01444805 -0.03303769 -0.03837753
v 0.02692320 -0.02102767 -0.03826199
v 0.02965822 -0.01825795 -0.03732414
v 0.03042964 -0.01745307 -0.03706463
v 0.03134911 -0.01591433 -0.03690802
v 0.03218286 -0.01464389 -0.03672750
v 0.03243221 -0.01357072 -0.03685161
v 0.03265818 -0.01240286 -0.03698746
v 0.03279844 -0.01154275 -0.03707592
v 0.03170754 -0.00949899 -0.03830622
v 0.03179326 -0.00887561 -0.03836760
v 0.03455166 -0.00652410 -0.03674916
v 0.03451270 -0.00887561 -0.03630912
v 0.03409972 -0.00612956 -0.03716708
v 0.03252572 -0.00770775 -0.03803904
v 0.03193351 -0.00770775 -0.03846283
v 0.03263480 -0.00653200 -0.03813787
v 0.03270493 -0.00536414 -0.03819564
v 0.03495685 -0.00301263 -0.03696760
v 0.03205040 -0.00653200 -0.03851789
v 0.03374907 0.00517817 -0.03814600
v 0.03378024 0.00592781 -0.03816405
v 0.03289194 -0.00142655 -0.03831028
v 0.03298545 0.00048306 -0.03836263
v -0.02134105 -0.03190140 -0.03837527
v -0.01930731 -0.03314027 -0.03845245
v -0.01812291 -0.03355061 -0.03863613
v -0.01696189 -0.03433181 -0.03852240
v -0.01578529 -0.03455275 -0.03866231
v -0.00992563 -0.03784328 -0.03725148
v -0.01344766 -0.03545232 -0.03841047
v -0.01470998 -0.03478949 -0.03866412
v -0.01344766 -0.03467901 -0.03882523
v -0.00289716 -0.03568905 -0.03851789
v -0.00289716 -0.03627298 -0.03821144
v 0.00532351 -0.03631244 -0.03823671
v 0.00532351 -0.03572851 -0.03852240
v 0.00414690 -0.03467901 -0.03905631
v 0.00532351 -0.03467901 -0.03895567
v 0.00649232 -0.03566538 -0.03845290
v 0.00766893 -0.03549178 -0.03838249
v 0.00929747 -0.03521559 -0.03828320
v 0.00766893 -0.03607571 -0.03813833
v 0.00732607 0.03970897 -0.03500435
v 0.01177536 0.03742848 -0.03595754
v 0.01550778 0.03516378 -0.03721131
v 0.01470519 0.03530582 -0.03733723
v 0.01199354 0.03633164 -0.03719642
v 0.01001435 0.03603178 -0.03808056
v 0.01191562 0.03513222 -0.03833646
v 0.01118316 0.03525847 -0.03842672
v 0.01001435 0.03543996 -0.03856889
v 0.01001435 0.03450094 -0.03905000
v 0.00883774 0.03450094 -0.03924587
v 0.00766893 0.03450094 -0.03930544
v 0.00532351 0.03567669 -0.03904774
v 0.00064825 0.03567669 -0.03915199
v -0.00289716 0.03566880 -0.03922736
v -0.00406597 0.03566880 -0.03924948
v -0.00523479 0.03566880 -0.03926889
v -0.00641139 0.03566880 -0.03928603
v -0.00758021 0.03566880 -0.03929958
v -0.00875681 0.03566880 -0.03930905
v -0.00992563 0.03566880 -0.03931627
v -0.01110223 0.03566880 -0.03932034
v -0.01696189 0.03215733 -0.03928965
v -0.01579308 0.03332519 -0.03928197
v -0.01461647 0.03450094 -0.03926121
v -0.01579308 0.03450094 -0.03905812
v -0.01696189 0.03450094 -0.03877198
v -0.01813850 0.03452461 -0.03847230
v -0.02751239 0.02511860 -0.03895522
v -0.02820589 0.03050023 -0.03716076
v -0.02898510 0.03013724 -0.03704162
v -0.02977210 0.02506336 -0.03840641
v -0.03009937 0.02541846 -0.03821234
v -0.03054351 0.02463725 -0.03833330
v -0.03171233 0.02346150 -0.03833781
v -0.03102662 0.02276710 -0.03876702
v -0.02985781 0.02159135 -0.03925941
v -0.03102662 0.02043138 -0.03926392
v -0.02985781 0.02276710 -0.03905902
v -0.02633578 0.02511860 -0.03918404
v -0.02751239 0.02394285 -0.03922150
v -0.02868120 0.02276710 -0.03924767
v -0.02633578 0.02394285 -0.03928423
v 0.01621686 0.02922978 -0.03947920
v 0.01648958 0.02922978 -0.03947920
v 0.02399337 0.02391918 -0.03954509
v 0.02490504 0.02277499 -0.03955999
v 0.03060107 0.00592781 -0.03949500
v 0.03062444 0.00517817 -0.03950493
v 0.02642450 -0.01005136 -0.03951982
v 0.02407908 -0.01709009 -0.03953065
v 0.02290247 -0.01943370 -0.03953020
v 0.02055705 -0.02295306 -0.03951982
v 0.00480143 -0.03294300 -0.03947875
v 0.00180148 -0.03349537 -0.03942594
v 0.00064045 -0.03350326 -0.03941376
v -0.00172834 -0.03350326 -0.03938623
v -0.01110223 -0.03350326 -0.03927385
v -0.01461647 -0.03350326 -0.03923097
v -0.01578529 -0.03350326 -0.03918810
v -0.01696189 -0.03350326 -0.03901163
v 0.03319583 0.00592781 -0.03844974
v 0.03229195 0.00165881 -0.03875483
v 0.03229195 0.00517817 -0.03885548
v 0.03229195 0.00592781 -0.03884555
v 0.03103742 0.00637760 -0.03930319
v 0.03121664 0.00517817 -0.03930093
v 0.03064782 0.00592781 -0.03947920
v 0.02592581 0.02043138 -0.03951531
v 0.02001940 0.02690985 -0.03948687
v 0.02354143 0.02456624 -0.03948958
v 0.02432064 0.02429005 -0.03935735
v 0.02480375 0.02587613 -0.03838475
v 0.02520894 0.02391918 -0.03909377
v 0.02696995 0.02328001 -0.03827327
v 0.02941667 0.02226997 -0.03716934
v 0.02720371 0.02250670 -0.03840551
v 0.03055431 0.01993425 -0.03714858
v 0.03039847 0.02071545 -0.03697392
v 0.03062444 0.02122047 -0.03619223
v 0.03176209 0.01908202 -0.03500435
v 0.03396725 0.01256410 -0.03537037
v 0.03118547 0.02043138 -0.03537037
v 0.03400621 0.01269825 -0.03500435
v 0.01478311 -0.03243009 -0.03856979
v 0.01352858 -0.03232751 -0.03878055
v 0.01195458 -0.03414243 -0.03833104
v 0.01352858 -0.03322708 -0.03845200
v 0.01235198 -0.03356639 -0.03849668
v 0.01469740 -0.03115965 -0.03894303
v 0.01119095 -0.03232751 -0.03901389
v 0.01001435 -0.03232751 -0.03913078
v 0.00883774 -0.03232751 -0.03923865
v 0.01352858 -0.03115965 -0.03903961
v 0.01588180 -0.02998390 -0.03901750
v 0.01937265 -0.02524144 -0.03939525
v 0.02117263 -0.02357645 -0.03947920
v 0.01938045 -0.02763239 -0.03899854
v 0.02241157 -0.02247960 -0.03950177
v 0.02055705 -0.02646453 -0.03898591
v 0.01946616 -0.02888706 -0.03862891
v 0.02061160 -0.02767185 -0.03860364
v 0.02175704 -0.02647242 -0.03855986
v 0.02608165 -0.02177731 -0.03838971
v 0.02173366 -0.02529667 -0.03894348
v 0.02407908 -0.02295306 -0.03879590
v 0.02284793 -0.02290572 -0.03924045
v 0.01001435 -0.03508934 -0.03820603
v 0.02524790 -0.02177731 -0.03868126
v 0.02407908 -0.02177731 -0.03908745
v 0.02648684 -0.02062523 -0.03849352
v 0.02760111 -0.01591433 -0.03896966
v 0.02876992 -0.01357072 -0.03896695
v 0.02994653 -0.01122711 -0.03893446
v 0.02838811 -0.01709009 -0.03841589
v 0.02824006 -0.01780027 -0.03833239
v 0.02868421 -0.01821849 -0.03794697
v 0.02935433 -0.01533040 -0.03829945
v 0.03140365 -0.01122711 -0.03811215
v 0.03158287 -0.01028020 -0.03822588
v 0.03116210 -0.00994878 -0.03856753
v 0.03111534 -0.00887561 -0.03880989
v 0.03111534 -0.00770775 -0.03895251
v 0.03212053 -0.00536414 -0.03854858
v 0.03111534 -0.00653200 -0.03902156
v 0.03303220 0.00165881 -0.03838926
v 0.03217507 -0.00418838 -0.03857656
v -0.00055174 -0.03467901 -0.03908790
v 0.00064045 -0.03469479 -0.03909106
v 0.00180148 -0.03467901 -0.03909513
v 0.00297808 -0.03467901 -0.03909016
v 0.00297808 -0.03349537 -0.03942504
v 0.00416248 -0.03340068 -0.03940428
v 0.00524558 -0.03340068 -0.03933658
v 0.00649232 -0.03467901 -0.03881666
v 0.00649232 -0.03349537 -0.03918900
v 0.00766893 -0.03349537 -0.03907121
v 0.00883774 -0.03349537 -0.03894800
v 0.01001435 -0.03349537 -0.03881486
v 0.00887670 -0.03477370 -0.03849713
v 0.01119095 -0.03349537 -0.03867449
v 0.01119095 -0.03429235 -0.03838204
v 0.00968708 0.03868314 -0.03500435
v 0.00963253 0.03869893 -0.03503685
v 0.01258574 0.03727066 -0.03537037
v 0.01458831 0.03649735 -0.03500435
v 0.01587400 0.03578717 -0.03537037
v 0.01420649 0.03630008 -0.03604329
v 0.01629478 0.03499018 -0.03696534
v 0.01768956 0.03394857 -0.03716257
v 0.01705061 0.03416952 -0.03727675
v 0.01588959 0.03456407 -0.03743020
v 0.01118316 0.03584240 -0.03790319
v 0.01270262 0.03487970 -0.03822453
v -0.00172834 0.03566880 -0.03920344
v -0.02047613 0.02980583 -0.03922465
v -0.01930731 0.03098158 -0.03918539
v -0.01813850 0.03215733 -0.03914387
v -0.01696189 0.03332519 -0.03910370
v -0.02868120 0.02394285 -0.03901118
v -0.01930731 0.03215733 -0.03889113
v -0.02985781 0.02394285 -0.03872143
v 0.02711021 0.01669896 -0.03951892
v 0.02827123 0.01314014 -0.03951125
v 0.03059327 0.00599094 -0.03949409
v 0.03060107 0.00400242 -0.03949771
v 0.02980627 0.00048306 -0.03950177
v 0.02749202 -0.00770775 -0.03950628
v 0.02536478 -0.01485695 -0.03951170
v 0.02516218 -0.01591433 -0.03950854
v 0.02377519 -0.01943370 -0.03951531
v 0.02255962 -0.02177731 -0.03951531
v 0.02163236 -0.02290572 -0.03950718
v 0.01937265 -0.02416038 -0.03950809
v 0.01447143 -0.02724574 -0.03949680
v 0.01076239 -0.02949466 -0.03948642
v 0.01001435 -0.03115965 -0.03931582
v 0.00064045 -0.03467901 -0.03909919
v 0.00062487 -0.03467901 -0.03909919
v 0.03229195 0.00283456 -0.03879003
v 0.03229195 0.00048306 -0.03871331
v 0.03111534 -0.00536414 -0.03906579
v 0.03111534 -0.00418838 -0.03910551
v 0.03111534 -0.00301263 -0.03913981
v 0.03111534 -0.00184477 -0.03917050
v 0.03119327 0.00400242 -0.03928513
v 0.03054652 0.00198234 -0.03947830
v 0.03056990 0.00283456 -0.03948642
v 0.02234144 0.03041343 -0.03713910
v 0.02559075 0.02537900 -0.03813562
v 0.02522452 0.02503969 -0.03853684
v 0.02478816 0.02820396 -0.03721086
v 0.02613619 0.02394285 -0.03849984
v 0.03018808 0.02160713 -0.03656683
v 0.02958809 0.02159924 -0.03725870
v 0.02672839 0.02394285 -0.03811080
v 0.02763228 0.02395074 -0.03750693
v 0.02725826 0.02485820 -0.03729436
v 0.02587906 0.02692563 -0.03715625
v 0.02696216 0.02563151 -0.03705922
v 0.02803747 0.02434529 -0.03690171
v 0.02961926 0.02252248 -0.03654291
v 0.03040626 0.02198590 -0.03537037
v 0.03075691 0.02140196 -0.03537037
v 0.03140365 0.02008417 -0.03500435
v 0.03098288 0.02109422 -0.03500435
v 0.03127898 0.02041560 -0.03500435
v 0.01896747 -0.02480743 -0.03948642
v 0.02055705 -0.02375794 -0.03950177
v 0.02358039 -0.02023068 -0.03949771
v 0.02455440 -0.01865249 -0.03946070
v 0.02435960 -0.01943370 -0.03940157
v 0.02400895 -0.02061734 -0.03931808
v 0.02524790 -0.01943370 -0.03913123
v 0.02524790 -0.02060945 -0.03891866
v 0.02642450 -0.01943370 -0.03873226
v 0.02642450 -0.01709009 -0.03915245
v 0.02760111 -0.01474647 -0.03916373
v 0.02876992 -0.01240286 -0.03916779
v 0.02994653 -0.01005136 -0.03914252
v 0.03081145 -0.01122711 -0.03847907
v 0.02972835 -0.01357072 -0.03851969
v 0.02994653 -0.00887561 -0.03926934
v 0.02994653 -0.00770775 -0.03932846
v 0.01243769 0.03746005 -0.03500435
v 0.01589738 0.03590553 -0.03500435
v 0.01659088 0.03516378 -0.03618411
v 0.01701165 0.03470610 -0.03656231
v 0.01788436 0.03409850 -0.03654291
v 0.02132847 0.03169965 -0.03623962
v 0.02257521 0.03058703 -0.03654291
v 0.03049198 0.00120113 -0.03947063
v 0.02964264 -0.00066902 -0.03949319
v 0.02856733 -0.00418838 -0.03950041
v 0.02624528 -0.01240286 -0.03950177
v 0.02666606 -0.01357072 -0.03944987
v 0.02583230 -0.01533040 -0.03947333
v 0.02574659 -0.01591433 -0.03946611
v 0.02490504 -0.01709009 -0.03949725
v 0.01672334 -0.02603053 -0.03949409
v 0.02315961 0.03010568 -0.03654291
v 0.02442193 0.02903251 -0.03654291
v 0.02588685 0.02459780 -0.03833465
v 0.02500634 0.02844858 -0.03654291
v 0.02559075 0.02773051 -0.03654291
v 0.02825564 0.02462147 -0.03611957
v 0.02933875 0.02332736 -0.03581899
v 0.03042964 0.02202535 -0.03500435
v 0.03079587 0.02144142 -0.03500435
v 0.02975173 0.02287757 -0.03540467
v 0.02999328 0.02262506 -0.03500435
v 0.02876992 -0.01122711 -0.03929958
v 0.02876992 -0.01005136 -0.03936863
v 0.02994653 -0.00653200 -0.03935373
v 0.01694152 0.03536894 -0.03500435
v 0.01728437 0.03516378 -0.03500435
v 0.01752593 0.03501385 -0.03500435
v 0.01741684 0.03493494 -0.03537037
v 0.01827397 0.03431945 -0.03537760
v 0.02001161 0.03276493 -0.03601983
v 0.02078302 0.03247297 -0.03537037
v 0.02154665 0.03188903 -0.03537037
v 0.02342455 0.03034241 -0.03560596
v 0.02465570 0.02921400 -0.03589887
v 0.02876992 -0.00887561 -0.03939390
v 0.02876992 -0.00770775 -0.03941692
v 0.02577776 0.02796723 -0.03537037
v 0.02623749 0.02738330 -0.03537037
v 0.02834915 0.02474773 -0.03500435
v 0.02937771 0.02342205 -0.03500435
v 0.01788436 0.03475345 -0.03500435
v 0.01893630 0.03398803 -0.03500435
v 0.02005057 0.03315948 -0.03500435
v 0.02139081 0.03212576 -0.03500435
v 0.02220119 0.03147081 -0.03500435
v 0.02272326 0.03104470 -0.03500435
v 0.02369727 0.03020037 -0.03500435
v 0.02471803 0.02926924 -0.03500435
v 0.02523231 0.02867742 -0.03500435
v 0.02552841 0.02833022 -0.03500435
v 0.02580114 0.02800669 -0.03500435
f 1 2 3
f 1 3 4
f 1 4 5
f 1 5 6
f 1 6 7
f 1 7 8
f 1 8 9
f 1 9 2
f 2 10 11
f 2 11 3
f 2 9 10
f 3 11 12
f 3 12 4
f 4 6 5
f 4 12 13
f 4 13 6
f 6 14 7
f 6 13 15
f 6 15 16
f 6 16 14
f 7 14 8
f 8 17 76
f 8 76 176
f 8 176 296
f 8 296 295
f 8 295 450
f 8 450 588
f 8 588 586
f 8 586 727
f 8 727 724
f 8 724 848
f 8 848 850
f 8 850 849
f 8 849 892
f 8 892 891
f 8 891 894
f 8 894 913
f 8 913 912
f 8 912 924
f 8 924 923
f 8 923 922
f 8 922 921
f 8 921 920
f 8 920 919
f 8 919 918
f 8 918 917
f 8 917 916
f 8 916 915
f 8 915 914
f 8 914 900
f 8 900 899
f 8 899 898
f 8 898 869
f 8 869 789
f 8 789 868
f 8 868 786
f 8 786 644
f 8 644 518
f 8 518 377
f 8 377 376
f 8 376 375
f 8 375 236
f 8 236 120
f 8 120 24
f 8 24 9
f 8 14 16
f 8 16 18
f 8 18 19
f 8 19 20
f 8 20 21
f 8 21 22
f 8 22 23
f 8 23 17
f 9 24 25
f 9 25 26
f 9 26 27
f 9 27 28
f 9 28 29
f 9 29 30
f 9 30 31
f 9 31 32
f 9 32 33
f 9 33 34
f 9 34 35
f 9 35 36
f 9 36 37
f 9 37 38
f 9 38 39
f 9 39 40
f 9 40 41
f 9 41 42
f 9 42 43
f 9 43 44
f 9 44 45
f 9 45 46
f 9 46 47
f 9 47 48
f 9 48 49
f 9 49 50
f 9 50 51
f 9 51 52
f 9 52 53
f 9 53 54
f 9 54 55
f 9 55 56
f 9 56 57
f 9 57 58
f 9 58 59
f 9 59 60
f 9 60 61
f 9 61 62
f 9 62 63
f 9 63 10
f 10 63 64
f 10 64 11
f 11 64 65
f 11 65 12
f 12 65 66
f 12 66 67
f 12 67 68
f 12 68 69
f 12 69 13
f 13 70 71
f 13 71 72
f 13 72 73
f 13 73 15
f 13 69 70
f 15 73 75
f 15 75 74
f 15 74 16
f 16 74 75
f 16 75 18
f 17 23 119
f 17 119 76
f 18 75 19
f 19 77 80
f 19 80 20
f 19 75 78
f 19 78 72
f 19 72 77
f 20 79 21
f 20 80 79
f 21 79 81
f 21 81 82
f 21 82 22
f 22 82 23
f 23 82 83
f 23 83 84
f 23 84 85
f 23 85 86
f 23 86 87
f 23 87 88
f 23 88 89
f 23 89 90
f 23 90 91
f 23 91 92
f 23 92 93
f 23 93 94
f 23 94 95
f 23 95 96
f 23 96 97
f 23 97 98
f 23 98 99
f 23 99 100
f 23 100 101
f 23 101 102
f 23 102 103
f 23 103 104
f 23 104 105
f 23 105 106
f 23 106 107
f 23 107 108
f 23 108 109
f 23 109 110
f 23 110 111
f 23 111 112
f 23 112 113
f 23 113 114
f 23 114 115
f 23 115 116
f 23 116 117
f 23 117 118
f 23 118 119
f 24 120 121
f 24 121 122
f 24 122 25
f 25 122 123
f 25 123 26
f 26 123 27
f 27 124 28
f 27 123 125
f 27 125 124
f 28 124 126
f 28 126 29
f 29 126 30
f 30 126 31
f 31 126 127
f 31 127 128
f 31 128 129
f 31 129 130
f 31 130 32
f 32 130 131
f 32 131 33
f 33 131 34
f 34 131 35
f 35 131 132
f 35 132 133
f 35 133 36
f 36 133 134
f 36 134 135
f 36 135 37
f 37 135 136
f 37 136 38
f 38 136 39
f 39 136 137
f 39 137 40
f 40 137 41
f 41 137 138
f 41 138 42
f 42 138 43
f 43 138 139
f 43 139 140
f 43 140 44
f 44 140 45
f 45 140 141
f 45 141 142
f 45 142 46
f 46 142 47
f 47 142 48
f 48 142 143
f 48 143 49
f 49 144 50
f 49 143 144
f 50 144 145
f 50 145 51
f 51 145 52
f 52 145 144
f 52 144 146
f 52 146 53
f 53 146 54
f 54 146 55
f 55 146 147
f 55 147 148
f 55 148 56
f 56 148 149
f 56 149 57
f 57 149 150
f 57 150 58
f 58 150 151
f 58 151 59
f 59 151 152
f 59 152 60
f 60 152 61
f 61 152 153
f 61 153 62
f 62 153 152
f 62 152 154
f 62 154 155
f 62 155 63
f 63 155 64
f 64 155 154
f 64 154 152
f 64 152 151
f 64 151 65
f 65 156 66
f 65 151 157
f 65 157 156
f 66 156 158
f 66 158 159
f 66 159 160
f 66 160 67
f 67 160 161
f 67 161 162
f 67 162 68
f 68 162 163
f 68 163 164
f 68 164 165
f 68 165 69
f 69 165 166
f 69 166 70
f 70 166 167
f 70 167 168
f 70 168 71
f 71 168 79
f 71 79 80
f 71 80 77
f 71 77 72
f 72 78 75
f 72 75 73
f 76 169 170
f 76 170 171
f 76 171 172
f 76 172 173
f 76 173 174
f 76 174 175
f 76 175 176
f 76 119 177
f 76 177 178
f 76 178 179
f 76 179 180
f 76 180 181
f 76 181 182
f 76 182 183
f 76 183 184
f 76 184 185
f 76 185 186
f 76 186 187
f 76 187 188
f 76 188 189
f 76 189 190
f 76 190 191
f 76 191 192
f 76 192 193
f 76 193 194
f 76 194 195
f 76 195 196
f 76 196 197
f 76 197 198
f 76 198 199
f 76 199 200
f 76 200 201
f 76 201 169
f 79 167 82
f 79 82 81
f 79 168 167
f 82 167 202
f 82 202 83
f 83 203 84
f 83 202 203
f 84 203 85
f 85 204 86
f 85 203 204
f 86 204 205
f 86 205 206
f 86 206 87
f 87 206 88
f 88 206 207
f 88 207 89
f 89 208 90
f 89 207 208
f 90 208 209
f 90 209 210
f 90 210 211
f 90 211 91
f 91 211 92
f 92 212 213
f 92 213 93
f 92 211 214
f 92 214 212
f 93 213 94
f 94 213 95
f 95 213 215
f 95 215 96
f 96 215 97
f 97 215 216
f 97 216 98
f 98 217 99
f 98 216 217
f 99 217 100
f 100 217 101
f 101 218 102
f 101 217 218
f 102 218 103
f 103 218 104
f 104 219 105
f 104 218 220
f 104 220 219
f 105 219 221
f 105 221 106
f 106 222 107
f 106 221 222
f 107 222 223
f 107 223 224
f 107 224 225
f 107 225 226
f 107 226 108
f 108 226 227
f 108 227 109
f 109 227 110
f 110 227 228
f 110 228 111
f 111 228 229
f 111 229 112
f 112 229 230
f 112 230 113
f 113 230 114
f 114 230 231
f 114 231 115
f 115 231 116
f 116 231 117
f 117 231 118
f 118 231 232
f 118 232 233
f 118 233 234
f 118 234 235
f 118 235 177
f 118 177 119
f 120 236 121
f 121 237 238
f 121 238 239
f 121 239 240
f 121 240 241
f 121 241 242
f 121 242 122
f 121 236 237
f 122 242 243
f 122 243 123
f 123 243 244
f 123 244 245
f 123 245 125
f 124 125 246
f 124 246 126
f 125 245 247
f 125 247 246
f 126 246 128
f 126 128 127
f 128 246 248
f 128 248 249
f 128 249 129
f 129 249 130
f 130 249 132
f 130 132 131
f 132 249 250
f 132 250 251
f 132 251 252
f 132 252 253
f 132 253 133
f 133 253 254
f 133 254 255
f 133 255 134
f 134 255 256
f 134 256 135
f 135 256 136
f 136 256 257
f 136 257 258
f 136 258 259
f 136 259 138
f 136 138 137
f 138 259 139
f 139 259 140
f 140 260 141
f 140 259 260
f 141 260 142
f 142 261 143
f 142 260 262
f 142 262 261
f 143 261 146
f 143 146 144
f 146 263 264
f 146 264 265
f 146 265 147
f 146 261 263
f 147 266 148
f 147 265 267
f 147 267 268
f 147 268 269
f 147 269 266
f 148 150 149
f 148 266 269
f 148 269 151
f 148 151 150
f 151 269 157
f 156 157 270
f 156 270 271
f 156 271 272
f 156 272 158
f 157 269 273
f 157 273 268
f 157 268 274
f 157 274 275
f 157 275 276
f 157 276 277
f 157 277 270
f 158 278 159
f 158 272 278
f 159 278 279
f 159 279 160
f 160 279 161
f 161 279 280
f 161 280 281
f 161 281 162
f 162 281 282
f 162 282 163
f 163 282 283
f 163 283 284
f 163 284 164
f 164 284 285
f 164 285 286
f 164 286 287
f 164 287 165
f 165 287 288
f 165 288 166
f 166 288 289
f 166 289 203
f 166 203 202
f 166 202 167
f 169 201 290
f 169 290 291
f 169 291 170
f 170 291 171
f 171 291 173
f 171 173 172
f 173 292 293
f 173 293 294
f 173 294 174
f 173 291 292
f 174 294 175
f 175 294 295
f 175 295 296
f 175 296 176
f 177 235 297
f 177 297 178
f 178 297 298
f 178 298 299
f 178 299 300
f 178 300 301
f 178 301 302
f 178 302 303
f 178 303 179
f 179 303 304
f 179 304 305
f 179 305 306
f 179 306 307
f 179 307 308
f 179 308 309
f 179 309 310
f 179 310 311
f 179 311 180
f 180 311 312
f 180 312 313
f 180 313 314
f 180 314 181
f 181 314 315
f 181 315 316
f 181 316 317
f 181 317 182
f 182 317 183
f 183 317 318
f 183 318 184
f 184 318 319
f 184 319 185
f 185 319 320
f 185 320 186
f 186 320 321
f 186 321 322
f 186 322 187
f 187 322 323
f 187 323 324
f 187 324 188
f 188 324 325
f 188 325 189
f 189 325 190
f 190 325 191
f 191 325 326
f 191 326 327
f 191 327 192
f 192 327 328
f 192 328 329
f 192 329 193
f 193 329 194
f 194 329 330
f 194 330 195
f 195 330 331
f 195 331 196
f 196 331 332
f 196 332 197
f 197 332 198
f 198 332 333
f 198 333 199
f 199 333 334
f 199 334 335
f 199 335 200
f 200 335 336
f 200 336 337
f 200 337 338
f 200 338 201
f 201 338 339
f 201 339 340
f 201 340 290
f 203 289 341
f 203 341 204
f 204 341 342
f 204 342 205
f 205 342 206
f 206 342 207
f 207 342 343
f 207 343 209
f 207 209 208
f 209 344 210
f 209 343 344
f 210 344 345
f 210 345 346
f 210 346 347
f 210 347 211
f 211 348 349
f 211 349 214
f 211 347 350
f 211 350 348
f 212 214 349
f 212 349 351
f 212 351 213
f 213 352 353
f 213 353 215
f 213 351 352
f 215 353 216
f 216 353 354
f 216 354 217
f 217 355 218
f 217 354 355
f 218 355 354
f 218 354 356
f 218 356 220
f 219 220 221
f 220 356 357
f 220 357 358
f 220 358 359
f 220 359 221
f 221 360 222
f 221 359 360
f 222 360 223
f 223 360 224
f 224 361 225
f 224 360 362
f 224 362 361
f 225 363 364
f 225 364 226
f 225 361 363
f 226 364 365
f 226 365 366
f 226 366 228
f 226 228 227
f 228 366 367
f 228 367 229
f 229 231 230
f 229 367 231
f 231 367 368
f 231 368 369
f 231 369 232
f 232 369 370
f 232 370 371
f 232 371 233
f 233 371 372
f 233 372 373
f 233 373 234
f 234 373 235
f 235 373 374
f 235 374 297
f 236 375 237
f 237 375 376
f 237 376 377
f 237 377 378
f 237 378 379
f 237 379 238
f 238 379 380
f 238 380 381
f 238 381 382
f 238 382 383
f 238 383 384
f 238 384 239
f 239 384 385
f 239 385 386
f 239 386 240
f 240 387 241
f 240 386 388
f 240 388 387
f 241 243 242
f 241 387 389
f 241 389 243
f 243 389 390
f 243 390 391
f 243 391 244
f 244 391 245
f 245 391 247
f 246 392 393
f 246 393 394
f 246 394 248
f 246 247 392
f 247 391 392
f 248 394 395
f 248 395 396
f 248 396 250
f 248 250 249
f 250 396 251
f 251 253 252
f 251 396 397
f 251 397 398
f 251 398 253
f 253 398 254
f 254 398 399
f 254 399 400
f 254 400 401
f 254 401 256
f 254 256 255
f 256 402 403
f 256 403 257
f 256 401 400
f 256 400 402
f 257 404 258
f 257 403 404
f 258 405 259
f 258 404 405
f 259 405 406
f 259 406 260
f 260 406 262
f 261 262 407
f 261 407 263
f 262 408 407
f 262 406 408
f 263 409 264
f 263 407 409
f 264 409 410
f 264 410 411
f 264 411 412
f 264 412 413
f 264 413 265
f 265 413 414
f 265 414 267
f 267 414 415
f 267 415 274
f 267 274 268
f 268 273 269
f 270 277 271
f 271 416 417
f 271 417 418
f 271 418 419
f 271 419 272
f 271 277 416
f 272 419 420
f 272 420 278
f 274 415 414
f 274 414 421
f 274 421 422
f 274 422 275
f 275 422 423
f 275 423 276
f 276 423 424
f 276 424 416
f 276 416 277
f 278 425 426
f 278 426 279
f 278 420 425
f 279 426 280
f 280 426 281
f 281 426 425
f 281 425 427
f 281 427 428
f 281 428 282
f 282 428 429
f 282 429 430
f 282 430 283
f 283 430 431
f 283 431 432
f 283 432 284
f 284 432 433
f 284 433 434
f 284 434 435
f 284 435 436
f 284 436 285
f 285 436 286
f 286 436 435
f 286 435 287
f 287 437 438
f 287 438 288
f 287 435 439
f 287 439 437
f 288 438 289
f 289 438 341
f 290 340 440
f 290 440 441
f 290 441 291
f 291 441 442
f 291 442 292
f 292 442 441
f 292 441 443
f 292 443 444
f 292 444 293
f 293 444 445
f 293 445 446
f 293 446 447
f 293 447 294
f 294 447 448
f 294 448 587
f 294 587 449
f 294 449 450
f 294 450 295
f 297 374 451
f 297 451 298
f 298 451 299
f 299 451 452
f 299 452 300
f 300 452 453
f 300 453 301
f 301 453 302
f 302 453 454
f 302 454 303
f 303 454 455
f 303 455 456
f 303 456 304
f 304 456 305
f 305 456 306
f 306 456 307
f 307 456 457
f 307 457 458
f 307 458 308
f 308 458 459
f 308 459 309
f 309 459 316
f 309 316 310
f 310 316 312
f 310 312 311
f 312 460 313
f 312 316 460
f 313 460 315
f 313 315 314
f 315 460 316
f 316 461 462
f 316 462 463
f 316 463 318
f 316 318 317
f 316 459 458
f 316 458 464
f 316 464 457
f 316 457 465
f 316 465 466
f 316 466 461
f 318 463 467
f 318 467 319
f 319 467 321
f 319 321 320
f 321 467 463
f 321 463 468
f 321 468 469
f 321 469 470
f 321 470 323
f 321 323 322
f 323 471 326
f 323 326 325
f 323 325 324
f 323 470 471
f 326 471 472
f 326 472 473
f 326 473 474
f 326 474 328
f 326 328 327
f 328 330 329
f 328 474 330
f 330 474 475
f 330 475 476
f 330 476 331
f 331 476 332
f 332 476 333
f 333 476 477
f 333 477 334
f 334 477 478
f 334 478 479
f 334 479 480
f 334 480 481
f 334 481 482
f 334 482 483
f 334 483 335
f 335 483 336
f 336 483 484
f 336 484 485
f 336 485 486
f 336 486 487
f 336 487 337
f 337 487 488
f 337 488 338
f 338 488 339
f 339 489 490
f 339 490 340
f 339 488 489
f 340 490 440
f 341 438 491
f 341 491 343
f 341 343 342
f 343 491 435
f 343 435 492
f 343 492 346
f 343 346 345
f 343 345 344
f 346 492 435
f 346 435 347
f 347 493 350
f 347 435 493
f 348 350 493
f 348 493 351
f 348 351 349
f 351 494 495
f 351 495 352
f 351 493 496
f 351 496 494
f 352 495 353
f 353 358 354
f 353 495 358
f 354 357 356
f 354 358 357
f 358 495 435
f 358 435 497
f 358 497 498
f 358 498 499
f 358 499 359
f 359 499 360
f 360 499 500
f 360 500 501
f 360 501 502
f 360 502 362
f 361 362 503
f 361 503 504
f 361 504 505
f 361 505 363
f 362 502 504
f 362 504 503
f 363 365 364
f 363 505 506
f 363 506 365
f 365 507 508
f 365 508 367
f 365 367 509
f 365 509 366
f 365 506 510
f 365 510 507
f 366 509 367
f 367 508 368
f 368 508 511
f 368 511 369
f 369 511 512
f 369 512 370
f 370 512 513
f 370 513 514
f 370 514 372
f 370 372 371
f 372 514 373
f 373 514 515
f 373 515 516
f 373 516 374
f 374 452 451
f 374 516 517
f 374 517 452
f 377 518 378
f 378 518 519
f 378 519 520
f 378 520 379
f 379 520 521
f 379 521 380
f 380 521 522
f 380 522 381
f 381 523 524
f 381 524 525
f 381 525 383
f 381 383 382
f 381 522 523
f 383 525 526
f 383 526 527
f 383 527 386
f 383 386 385
f 383 385 384
f 386 527 528
f 386 528 388
f 387 388 389
f 388 528 529
f 388 529 530
f 388 530 531
f 388 531 532
f 388 532 533
f 388 533 534
f 388 534 389
f 389 534 535
f 389 535 391
f 389 391 390
f 391 535 393
f 391 393 392
f 393 395 394
f 393 535 536
f 393 536 537
f 393 537 395
f 395 538 397
f 395 397 396
f 395 537 539
f 395 539 538
f 397 538 398
f 398 538 540
f 398 540 399
f 399 540 541
f 399 541 400
f 400 541 402
f 402 404 403
f 402 541 404
f 404 541 540
f 404 540 542
f 404 542 543
f 404 543 544
f 404 544 545
f 404 545 405
f 405 545 546
f 405 546 547
f 405 547 406
f 406 547 548
f 406 548 408
f 407 549 409
f 407 408 548
f 407 548 549
f 409 549 410
f 410 549 550
f 410 550 551
f 410 551 411
f 411 551 552
f 411 552 553
f 411 553 412
f 412 554 418
f 412 418 417
f 412 417 414
f 412 414 413
f 412 553 555
f 412 555 554
f 414 417 416
f 414 416 421
f 416 424 423
f 416 423 421
f 418 554 556
f 418 556 557
f 418 557 419
f 419 557 558
f 419 558 420
f 420 558 559
f 420 559 425
f 421 423 422
f 425 559 427
f 427 559 560
f 427 560 429
f 427 429 428
f 429 560 561
f 429 561 562
f 429 562 563
f 429 563 430
f 430 563 564
f 430 564 565
f 430 565 566
f 430 566 567
f 430 567 568
f 430 568 431
f 431 568 569
f 431 569 432
f 432 569 433
f 433 569 570
f 433 570 435
f 433 435 434
f 435 496 493
f 435 491 437
f 435 437 571
f 435 571 439
f 435 570 572
f 435 572 569
f 435 569 573
f 435 573 497
f 435 495 494
f 435 494 496
f 437 439 571
f 437 491 438
f 440 574 441
f 440 490 574
f 441 574 575
f 441 575 576
f 441 576 577
f 441 577 578
f 441 578 443
f 443 578 579
f 443 579 580
f 443 580 581
f 443 581 444
f 444 581 445
f 445 581 446
f 446 581 582
f 446 582 583
f 446 583 584
f 446 584 447
f 447 584 448
f 448 584 585
f 448 585 586
f 448 586 587
f 449 587 588
f 449 588 450
f 452 455 453
f 452 517 589
f 452 589 457
f 452 457 456
f 452 456 455
f 453 455 454
f 457 589 465
f 457 464 458
f 461 466 590
f 461 590 591
f 461 591 592
f 461 592 593
f 461 593 594
f 461 594 462
f 462 594 595
f 462 595 463
f 463 595 596
f 463 596 597
f 463 597 598
f 463 598 599
f 463 599 468
f 465 600 601
f 465 601 466
f 465 589 600
f 466 601 590
f 468 599 469
f 469 599 470
f 470 599 472
f 470 472 471
f 472 599 602
f 472 602 473
f 473 602 475
f 473 475 474
f 475 603 604
f 475 604 476
f 475 602 603
f 476 604 605
f 476 605 606
f 476 606 477
f 477 606 607
f 477 607 608
f 477 608 478
f 478 608 609
f 478 609 479
f 479 609 610
f 479 610 611
f 479 611 612
f 479 612 480
f 480 612 613
f 480 613 481
f 481 484 482
f 481 613 612
f 481 612 614
f 481 614 484
f 482 484 483
f 484 614 485
f 485 614 615
f 485 615 616
f 485 616 617
f 485 617 486
f 486 617 487
f 487 618 619
f 487 619 488
f 487 617 620
f 487 620 618
f 488 619 618
f 488 618 489
f 489 618 490
f 490 621 622
f 490 622 574
f 490 618 623
f 490 623 624
f 490 624 621
f 497 573 625
f 497 625 498
f 498 625 626
f 498 626 502
f 498 502 501
f 498 501 500
f 498 500 499
f 502 626 627
f 502 627 628
f 502 628 504
f 504 628 505
f 505 628 506
f 506 628 629
f 506 629 510
f 507 630 508
f 507 510 631
f 507 631 630
f 508 630 511
f 510 629 632
f 510 632 631
f 511 630 633
f 511 633 634
f 511 634 635
f 511 635 512
f 512 635 636
f 512 636 513
f 513 636 514
f 514 636 515
f 515 637 638
f 515 638 639
f 515 639 640
f 515 640 641
f 515 641 642
f 515 642 643
f 515 643 516
f 515 636 637
f 516 643 517
f 517 643 600
f 517 600 589
f 518 644 645
f 518 645 519
f 519 645 646
f 519 646 520
f 520 646 647
f 520 647 648
f 520 648 521
f 521 648 522
f 522 648 523
f 523 648 649
f 523 649 650
f 523 650 651
f 523 651 524
f 524 651 652
f 524 652 525
f 525 652 651
f 525 651 653
f 525 653 654
f 525 654 526
f 526 654 655
f 526 655 656
f 526 656 534
f 526 534 533
f 526 533 530
f 526 530 529
f 526 529 527
f 527 529 528
f 530 533 531
f 531 533 532
f 534 656 657
f 534 657 658
f 534 658 659
f 534 659 660
f 534 660 661
f 534 661 662
f 534 662 663
f 534 663 664
f 534 664 665
f 534 665 535
f 535 665 536
f 536 665 565
f 536 565 666
f 536 666 667
f 536 667 668
f 536 668 537
f 537 668 669
f 537 669 539
f 538 539 542
f 538 542 540
f 539 669 542
f 542 669 543
f 543 669 670
f 543 670 671
f 543 671 544
f 544 671 545
f 545 671 672
f 545 672 546
f 546 673 551
f 546 551 674
f 546 674 547
f 546 672 675
f 546 675 676
f 546 676 677
f 546 677 673
f 547 674 548
f 548 674 551
f 548 551 550
f 548 550 549
f 551 673 677
f 551 677 678
f 551 678 555
f 551 555 552
f 552 555 553
f 554 555 678
f 554 678 677
f 554 677 679
f 554 679 556
f 556 680 681
f 556 681 557
f 556 679 682
f 556 682 683
f 556 683 684
f 556 684 685
f 556 685 680
f 557 564 561
f 557 561 558
f 557 681 564
f 558 561 559
f 559 561 560
f 561 564 562
f 562 564 563
f 564 681 686
f 564 686 565
f 565 665 566
f 565 686 666
f 566 665 687
f 566 687 688
f 566 688 689
f 566 689 580
f 566 580 690
f 566 690 691
f 566 691 692
f 566 692 693
f 566 693 694
f 566 694 695
f 566 695 567
f 567 695 696
f 567 696 697
f 567 697 698
f 567 698 568
f 568 698 699
f 568 699 700
f 568 700 701
f 568 701 702
f 568 702 569
f 569 702 703
f 569 703 573
f 569 572 570
f 573 703 704
f 573 704 625
f 574 622 575
f 575 705 576
f 575 622 706
f 575 706 705
f 576 705 707
f 576 707 708
f 576 708 577
f 577 709 578
f 577 708 710
f 577 710 711
f 577 711 709
f 578 709 712
f 578 712 579
f 579 712 580
f 580 712 690
f 580 689 688
f 580 688 713
f 580 713 714
f 580 714 715
f 580 715 716
f 580 716 717
f 580 717 718
f 580 718 719
f 580 719 720
f 580 720 581
f 581 721 722
f 581 722 723
f 581 723 582
f 581 720 721
f 582 724 725
f 582 725 583
f 582 723 726
f 582 726 724
f 583 725 584
f 584 725 585
f 585 725 586
f 586 588 587
f 586 725 727
f 590 728 729
f 590 729 591
f 590 601 730
f 590 730 731
f 590 731 732
f 590 732 728
f 591 733 592
f 591 729 734
f 591 734 735
f 591 735 736
f 591 736 733
f 592 733 737
f 592 737 738
f 592 738 739
f 592 739 740
f 592 740 593
f 593 741 594
f 593 740 742
f 593 742 741
f 594 741 743
f 594 743 744
f 594 744 595
f 595 744 745
f 595 745 596
f 596 745 746
f 596 746 597
f 597 746 598
f 598 746 599
f 599 747 602
f 599 746 748
f 599 748 749
f 599 749 750
f 599 750 742
f 599 742 747
f 600 730 601
f 600 643 751
f 600 751 730
f 602 747 752
f 602 752 753
f 602 753 754
f 602 754 755
f 602 755 756
f 602 756 757
f 602 757 758
f 602 758 759
f 602 759 760
f 602 760 603
f 603 760 604
f 604 760 605
f 605 761 606
f 605 760 761
f 606 761 762
f 606 762 607
f 607 762 763
f 607 763 608
f 608 763 609
f 609 763 610
f 610 764 765
f 610 765 611
f 610 763 764
f 611 765 616
f 611 616 615
f 611 615 614
f 611 614 612
f 616 765 766
f 616 766 620
f 616 620 617
f 618 767 623
f 618 620 767
f 620 766 768
f 620 768 767
f 621 624 622
f 622 624 769
f 622 769 706
f 623 767 624
f 624 767 770
f 624 770 768
f 624 768 769
f 625 704 627
f 625 627 626
f 627 704 628
f 628 704 629
f 629 704 703
f 629 703 632
f 630 631 633
f 631 632 633
f 632 703 633
f 633 771 634
f 633 703 702
f 633 702 771
f 634 771 635
f 635 771 772
f 635 772 636
f 636 772 773
f 636 773 774
f 636 774 637
f 637 774 638
f 638 774 775
f 638 775 776
f 638 776 777
f 638 777 639
f 639 778 641
f 639 641 640
f 639 777 779
f 639 779 780
f 639 780 781
f 639 781 782
f 639 782 778
f 641 778 783
f 641 783 642
f 642 783 784
f 642 784 785
f 642 785 730
f 642 730 751
f 642 751 643
f 644 786 787
f 644 787 645
f 645 787 788
f 645 788 789
f 645 789 790
f 645 790 791
f 645 791 792
f 645 792 646
f 646 792 793
f 646 793 794
f 646 794 795
f 646 795 650
f 646 650 647
f 647 650 796
f 647 796 649
f 647 649 648
f 649 796 650
f 650 795 794
f 650 794 797
f 650 797 714
f 650 714 713
f 650 713 688
f 650 688 653
f 650 653 651
f 653 688 654
f 654 688 655
f 655 665 664
f 655 664 663
f 655 663 662
f 655 662 661
f 655 661 660
f 655 660 659
f 655 659 658
f 655 658 798
f 655 798 657
f 655 657 656
f 655 688 665
f 657 798 658
f 665 688 687
f 666 686 681
f 666 681 680
f 666 680 667
f 667 680 685
f 667 685 668
f 668 685 684
f 668 684 799
f 668 799 800
f 668 800 801
f 668 801 802
f 668 802 669
f 669 802 682
f 669 682 803
f 669 803 672
f 669 672 804
f 669 804 670
f 670 804 671
f 671 804 672
f 672 803 805
f 672 805 675
f 675 805 677
f 675 677 676
f 677 805 679
f 679 805 682
f 682 805 803
f 682 802 801
f 682 801 683
f 683 801 800
f 683 800 799
f 683 799 684
f 690 712 806
f 690 806 807
f 690 807 808
f 690 808 691
f 691 808 711
f 691 711 692
f 692 711 710
f 692 710 809
f 692 809 810
f 692 810 693
f 693 810 811
f 693 811 812
f 693 812 694
f 694 812 813
f 694 813 814
f 694 814 695
f 695 814 815
f 695 815 696
f 696 815 816
f 696 816 817
f 696 817 818
f 696 818 697
f 697 818 819
f 697 819 820
f 697 820 738
f 697 738 737
f 697 737 733
f 697 733 736
f 697 736 735
f 697 735 777
f 697 777 776
f 697 776 775
f 697 775 698
f 698 775 821
f 698 821 822
f 698 822 699
f 699 822 771
f 699 771 700
f 700 771 701
f 701 771 702
f 705 823 707
f 705 706 823
f 706 769 824
f 706 824 825
f 706 825 826
f 706 826 823
f 707 710 708
f 707 823 827
f 707 827 828
f 707 828 829
f 707 829 710
f 709 807 806
f 709 806 712
f 709 711 808
f 709 808 807
f 710 829 830
f 710 830 831
f 710 831 809
f 714 797 794
f 714 794 715
f 715 794 793
f 715 793 832
f 715 832 716
f 716 833 834
f 716 834 717
f 716 832 835
f 716 835 833
f 717 836 718
f 717 834 836
f 718 836 719
f 719 837 722
f 719 722 721
f 719 721 838
f 719 838 720
f 719 836 839
f 719 839 840
f 719 840 841
f 719 841 842
f 719 842 843
f 719 843 844
f 719 844 845
f 719 845 837
f 720 838 721
f 722 837 723
f 723 837 845
f 723 845 846
f 723 846 847
f 723 847 726
f 724 727 725
f 724 726 848
f 726 847 849
f 726 849 850
f 726 850 848
f 728 732 729
f 729 732 784
f 729 784 782
f 729 782 781
f 729 781 780
f 729 780 779
f 729 779 734
f 730 785 732
f 730 732 731
f 732 785 784
f 734 779 777
f 734 777 735
f 738 820 819
f 738 819 739
f 739 851 740
f 739 819 851
f 740 851 852
f 740 852 742
f 741 742 743
f 742 750 748
f 742 748 743
f 742 852 816
f 742 816 815
f 742 815 814
f 742 814 853
f 742 853 854
f 742 854 855
f 742 855 856
f 742 856 857
f 742 857 753
f 742 753 752
f 742 752 747
f 743 748 744
f 744 748 745
f 745 748 746
f 748 750 749
f 753 857 858
f 753 858 754
f 754 858 859
f 754 859 755
f 755 860 861
f 755 861 862
f 755 862 756
f 755 859 858
f 755 858 857
f 755 857 860
f 756 862 863
f 756 863 757
f 757 863 765
f 757 765 764
f 757 764 864
f 757 864 865
f 757 865 759
f 757 759 758
f 759 865 864
f 759 864 761
f 759 761 760
f 761 864 762
f 762 864 764
f 762 764 763
f 765 863 766
f 766 863 866
f 766 866 768
f 767 768 770
f 768 866 867
f 768 867 825
f 768 825 824
f 768 824 769
f 771 822 772
f 772 822 821
f 772 821 773
f 773 821 775
f 773 775 774
f 778 782 784
f 778 784 783
f 786 868 787
f 787 868 788
f 788 868 789
f 789 869 790
f 790 869 870
f 790 870 791
f 791 870 792
f 792 870 871
f 792 871 793
f 793 871 872
f 793 872 873
f 793 873 874
f 793 874 832
f 809 831 830
f 809 830 810
f 810 875 876
f 810 876 877
f 810 877 811
f 810 830 875
f 811 877 813
f 811 813 812
f 813 877 878
f 813 878 879
f 813 879 880
f 813 880 881
f 813 881 882
f 813 882 814
f 814 882 881
f 814 881 853
f 816 852 817
f 817 852 818
f 818 852 819
f 819 852 883
f 819 883 851
f 823 826 827
f 825 875 826
f 825 867 875
f 826 875 830
f 826 830 827
f 827 830 828
f 828 830 829
f 832 874 884
f 832 884 885
f 832 885 835
f 833 841 839
f 833 839 886
f 833 886 834
f 833 835 842
f 833 842 841
f 834 886 836
f 835 885 887
f 835 887 842
f 836 886 839
f 839 841 840
f 842 887 888
f 842 888 843
f 843 889 844
f 843 888 889
f 844 889 845
f 845 889 890
f 845 890 846
f 846 891 892
f 846 892 847
f 846 890 893
f 846 893 894
f 846 894 891
f 847 892 849
f 851 883 852
f 853 881 854
f 854 881 895
f 854 895 862
f 854 862 861
f 854 861 855
f 855 861 860
f 855 860 856
f 856 860 857
f 862 895 863
f 863 895 866
f 866 895 881
f 866 881 896
f 866 896 867
f 867 897 875
f 867 896 908
f 867 908 897
f 869 898 870
f 870 898 899
f 870 899 900
f 870 900 901
f 870 901 871
f 871 901 872
f 872 901 900
f 872 900 902
f 872 902 903
f 872 903 873
f 873 903 904
f 873 904 905
f 873 905 906
f 873 906 874
f 874 906 907
f 874 907 884
f 875 897 908
f 875 908 909
f 875 909 877
f 875 877 876
f 877 909 879
f 877 879 878
f 879 881 880
f 879 909 908
f 879 908 896
f 879 896 881
f 884 907 885
f 885 907 887
f 887 907 888
f 888 907 889
f 889 907 910
f 889 910 890
f 890 910 911
f 890 911 893
f 893 911 912
f 893 912 913
f 893 913 894
f 900 914 902
f 902 914 915
f 902 915 904
f 902 904 903
f 904 915 916
f 904 916 905
f 905 916 917
f 905 917 906
f 906 917 918
f 906 918 919
f 906 919 920
f 906 920 907
f 907 921 922
f 907 922 923
f 907 923 924
f 907 924 910
f 907 920 921
f 910 924 911
f 911 924 912

