# https://github.com/mikedh/trimesh
v 0.02713382 -0.02798452 -0.02882790
v 0.02819500 -0.03752123 -0.02832396
v 0.02342245 -0.05287646 -0.02948044
v 0.02501696 -0.02798452 -0.02946429
v 0.02448362 -0.02798452 -0.01866179
v 0.02238876 -0.02798452 -0.01298918
v 0.02263618 -0.04471884 -0.01298918
v 0.02603965 -0.05048862 -0.02430694
v 0.02551731 -0.05287646 -0.02449753
v 0.01812755 -0.05287646 -0.02949014
v 0.01343747 -0.02798452 -0.02948367
v -0.02543027 -0.02798452 -0.01298918
v 0.02254821 -0.04606870 -0.01298918
v 0.02114613 -0.05287646 -0.01298918
v 0.02208635 -0.05287646 -0.01540876
v 0.02306505 -0.05287646 -0.01800117
v 0.01148556 -0.02798452 -0.02948690
v -0.01236622 -0.05287646 -0.02946914
v -0.02049826 -0.02798452 -0.02947721
v -0.02370379 -0.02798452 -0.02474143
v -0.02797600 -0.03688529 -0.02871484
v -0.02573818 -0.03451695 -0.01298918
v -0.02292303 -0.05287646 -0.01298918
v -0.01851886 -0.05287646 -0.02901849
v -0.02265911 -0.02798452 -0.02931892
v -0.02667839 -0.04884638 -0.02405496
v -0.02186735 -0.05287646 -0.02671359
v -0.02346736 -0.05287646 -0.02516946
v -0.02425912 -0.04504778 -0.01298918
v -0.02325843 -0.05151929 -0.01298918
f 1 2 3
f 1 3 4
f 1 4 11
f 1 11 17
f 1 17 19
f 1 19 25
f 1 25 20
f 1 20 12
f 1 12 6
f 1 6 5
f 1 5 2
f 2 5 6
f 2 6 7
f 2 7 8
f 2 8 9
f 2 9 3
f 3 9 16
f 3 16 15
f 3 15 14
f 3 14 23
f 3 23 28
f 3 28 27
f 3 27 24
f 3 24 18
f 3 18 10
f 3 10 4
f 4 10 11
f 6 12 22
f 6 22 29
f 6 29 30
f 6 30 23
f 6 23 14
f 6 14 13
f 6 13 7
f 7 13 8
f 8 13 14
f 8 14 15
f 8 15 16
f 8 16 9
f 10 17 11
f 10 18 19
f 10 19 17
f 12 20 21
f 12 21 22
f 18 24 21
f 18 21 19
f 19 21 25
f 20 25 21
f 21 26 22
f 21 24 27
f 21 27 28
f 21 28 26
f 22 26 29
f 23 30 26
f 23 26 28
f 26 30 29

