# https://github.com/mikedh/trimesh
v 0.02568114 -0.00240675 -0.00634780
v 0.02520846 -0.00240675 0.00019194
v 0.02719600 -0.04315875 -0.00784524
v 0.02223000 -0.00240675 -0.01298919
v 0.02582352 -0.02023543 0.00010119
v 0.02381320 -0.00240675 0.00215404
v 0.02566975 -0.05496367 0.00011026
v 0.02434853 -0.05513916 -0.00866566
v 0.02254892 -0.04606481 -0.01298919
v 0.02263435 -0.04471760 -0.01298919
v 0.02226417 -0.00405335 -0.01298919
v -0.02705409 -0.00240675 -0.01298919
v 0.02102837 -0.00240675 0.00533951
v 0.02155800 -0.04730363 0.00535222
v 0.02547613 -0.05513916 0.00023369
v 0.02558433 -0.05513916 0.00013023
v 0.02560711 -0.05513916 -0.00003676
v 0.02076071 -0.05513916 -0.01298919
v -0.02642764 -0.01940955 -0.01298919
v -0.02888786 -0.02419965 -0.00707928
v -0.03098360 -0.00240675 -0.00332932
v -0.00914347 -0.00240675 0.00544297
v 0.01917751 -0.05513916 0.00552828
v -0.02382505 -0.05513916 -0.01298919
v -0.02573855 -0.03451282 -0.01298919
v -0.02749260 -0.05150013 -0.00361066
v -0.02595496 -0.05513916 -0.00846419
v -0.02632513 -0.05513916 -0.00701394
v -0.03065899 -0.00550380 -0.00255428
v -0.02495265 -0.00732590 0.00533951
v -0.02446858 -0.00240675 0.00533951
v 0.00015638 -0.05513916 0.00555369
v -0.01924062 -0.05513916 0.00551739
v -0.02682059 -0.05513916 -0.00394826
v -0.02099466 -0.04514086 0.00535948
v -0.02321569 -0.02647082 0.00533770
f 1 2 3
f 1 3 4
f 1 4 12
f 1 12 21
f 1 21 31
f 1 31 22
f 1 22 13
f 1 13 6
f 1 6 2
f 2 5 3
f 2 6 5
f 3 5 7
f 3 7 8
f 3 8 9
f 3 9 10
f 3 10 11
f 3 11 4
f 4 11 10
f 4 10 9
f 4 9 18
f 4 18 24
f 4 24 25
f 4 25 19
f 4 19 12
f 5 6 13
f 5 13 14
f 5 14 7
f 7 15 16
f 7 16 17
f 7 17 8
f 7 14 15
f 8 17 16
f 8 16 15
f 8 15 23
f 8 23 32
f 8 32 33
f 8 33 34
f 8 34 28
f 8 28 27
f 8 27 24
f 8 24 18
f 8 18 9
f 12 19 20
f 12 20 21
f 13 22 23
f 13 23 14
f 14 23 15
f 19 25 20
f 20 26 21
f 20 25 27
f 20 27 28
f 20 28 26
f 21 26 29
f 21 29 30
f 21 30 31
f 22 32 23
f 22 31 33
f 22 33 32
f 24 27 25
f 26 28 34
f 26 34 33
f 26 33 35
f 26 35 36
f 26 36 30
f 26 30 29
f 30 36 33
f 30 33 31
f 33 36 35

