# https://github.com/mikedh/trimesh
v -0.00317038 0.05972873 -0.00902310
v -0.01408945 0.05730365 -0.00902310
v -0.02339491 0.05516038 -0.00667989
v -0.00284369 0.05943435 0.00179890
v -0.00099250 0.05924407 0.00179890
v 0.00566487 0.05855119 0.00179890
v -0.00099250 0.05948461 -0.00831336
v -0.00145777 0.05954743 -0.00902310
v -0.02390473 0.05394155 -0.00902310
v -0.01977172 0.05542425 0.00179890
v -0.02984439 0.04139069 -0.00575510
v -0.02641424 0.04574543 0.00179784
v -0.02640929 0.04575261 0.00179890
v -0.00096280 0.05938947 -0.00902310
v 0.00812487 0.05775420 0.00179890
v 0.01443576 0.05499523 -0.00412799
v -0.02791895 0.04347831 -0.00902310
v -0.02925042 0.04139069 -0.00771272
v -0.02922073 0.04139069 -0.00226041
v -0.02761207 0.04139069 0.00130525
v -0.02640929 0.04574543 0.00179890
v 0.00307616 0.05808089 -0.00902310
v 0.01436647 0.05013608 0.00179890
v 0.01355966 0.05074460 -0.00902310
v 0.02016258 0.04139248 0.00179890
v 0.02053381 0.04139248 0.00112835
v 0.02072190 0.04139248 -0.00567989
v -0.02795360 0.04139069 -0.00902310
v -0.02399383 0.04139069 0.00175864
v 0.01132239 0.04139248 0.00179890
v 0.01512377 0.04625343 -0.00902310
v -0.00099250 0.04139069 -0.00239071
v -0.00099250 0.04139069 -0.00902310
v 0.01681162 0.04139248 -0.00902310
f 1 2 3
f 1 3 4
f 1 4 5
f 1 5 6
f 1 6 7
f 1 7 8
f 1 8 14
f 1 14 22
f 1 22 24
f 1 24 31
f 1 31 34
f 1 34 33
f 1 33 28
f 1 28 17
f 1 17 9
f 1 9 2
f 2 9 3
f 3 10 4
f 3 9 11
f 3 11 12
f 3 12 13
f 3 13 10
f 4 10 13
f 4 13 21
f 4 21 30
f 4 30 25
f 4 25 23
f 4 23 15
f 4 15 6
f 4 6 5
f 6 14 7
f 6 15 16
f 6 16 14
f 7 14 8
f 9 17 18
f 9 18 11
f 11 18 28
f 11 28 33
f 11 33 32
f 11 32 29
f 11 29 20
f 11 20 19
f 11 19 12
f 12 19 20
f 12 20 21
f 12 21 13
f 14 16 22
f 15 23 16
f 16 24 22
f 16 23 25
f 16 25 26
f 16 26 27
f 16 27 24
f 17 28 18
f 20 29 21
f 21 29 30
f 24 27 31
f 25 30 29
f 25 29 32
f 25 32 26
f 26 32 27
f 27 32 33
f 27 33 34
f 27 34 31

