# https://github.com/mikedh/trimesh
v 0.01148235 -0.02798452 -0.02948735
v 0.00760957 -0.01345525 -0.02948412
v 0.02536520 -0.01345525 -0.02946312
v 0.02502096 -0.02798452 -0.02946474
v -0.02050038 -0.02798452 -0.02947766
v -0.02165684 -0.01345525 -0.02948089
v 0.02575786 -0.01345525 -0.02891405
v 0.02580627 -0.01606784 -0.02945828
v 0.02713485 -0.02798452 -0.02882846
v -0.02266268 -0.02798452 -0.02931940
v -0.02126418 -0.02564499 -0.02947766
v -0.02288322 -0.01345525 -0.02882684
v 0.02478967 -0.01345525 -0.02483473
v 0.02448307 -0.02798452 -0.01866083
v 0.02196576 -0.01345525 -0.01298918
v -0.02370619 -0.02798452 -0.02474106
v -0.02774571 -0.01463426 -0.02514964
v -0.02768655 -0.01345525 -0.02524653
v 0.02231001 -0.02238671 -0.01298918
v 0.02239069 -0.02798452 -0.01298918
v -0.02621811 -0.01345525 -0.01298918
v -0.02542742 -0.02798452 -0.01298918
v -0.02642789 -0.01940719 -0.01298918
v -0.02781564 -0.01345525 -0.02495585
f 1 2 3
f 1 3 4
f 1 4 9
f 1 9 14
f 1 14 20
f 1 20 22
f 1 22 16
f 1 16 10
f 1 10 5
f 1 5 6
f 1 6 2
f 2 6 12
f 2 12 18
f 2 18 24
f 2 24 21
f 2 21 15
f 2 15 13
f 2 13 7
f 2 7 3
f 3 7 8
f 3 8 4
f 4 8 9
f 5 10 11
f 5 11 6
f 6 11 10
f 6 10 12
f 7 9 8
f 7 13 9
f 9 13 15
f 9 15 14
f 10 16 17
f 10 17 18
f 10 18 12
f 14 15 19
f 14 19 20
f 15 21 23
f 15 23 22
f 15 22 20
f 15 20 19
f 16 22 17
f 17 22 23
f 17 23 24
f 17 24 18
f 21 24 23

