# https://github.com/mikedh/trimesh
v -0.01277700 -0.01154922 0.02292579
v -0.01260696 0.00682146 0.03057194
v -0.01179502 0.01963138 0.02382779
v -0.01168662 0.01963138 0.02315508
v -0.01248368 -0.03268348 0.01953761
v -0.01051973 0.01963138 0.02983670
v -0.01169725 -0.01722758 0.03236836
v -0.00880871 -0.00185568 0.03572243
v 0.00363603 0.01963138 0.02299591
v -0.00894262 -0.04755978 0.01685056
v -0.00916154 -0.05884091 0.01667812
v -0.00934008 0.01963138 0.03088840
v -0.00517412 -0.03157469 0.03410793
v -0.00766520 -0.05277614 0.02289358
v -0.00654294 -0.04818978 0.02757223
v 0.00398461 -0.02587952 0.03507436
v 0.00113858 -0.00140208 0.03603700
v 0.00231823 0.01963138 0.03150805
v 0.00183361 0.01963138 0.03148721
v 0.00378694 0.01963138 0.02299591
v 0.00662447 -0.05879891 0.01667812
v 0.00653095 -0.05879891 0.01667812
v -0.00723372 -0.06606486 0.01667812
v -0.00684051 -0.05587572 0.02289358
v 0.00359139 -0.05669052 0.02389980
v 0.00215031 -0.05801771 0.02289358
v 0.00569138 -0.00723164 0.03396581
v 0.00402924 -0.05791691 0.02289358
v 0.00671161 -0.06551886 0.01667812
v 0.00893700 -0.03275908 0.01957930
v 0.00251165 0.01963138 0.03137730
v 0.00797628 -0.01426240 0.02302054
v 0.00663297 -0.05882411 0.01667812
v -0.00675124 -0.06618246 0.01667812
v 0.00402712 -0.05792532 0.02289168
f 1 2 3
f 1 3 4
f 1 4 5
f 1 5 2
f 2 6 3
f 2 5 7
f 2 7 8
f 2 8 6
f 3 6 12
f 3 12 19
f 3 19 18
f 3 18 31
f 3 31 20
f 3 20 9
f 3 9 4
f 4 9 10
f 4 10 5
f 5 10 11
f 5 11 7
f 6 8 12
f 7 13 8
f 7 11 14
f 7 14 15
f 7 15 13
f 8 13 16
f 8 16 17
f 8 17 18
f 8 18 19
f 8 19 12
f 9 20 10
f 10 21 22
f 10 22 11
f 10 20 21
f 11 22 21
f 11 21 33
f 11 33 29
f 11 29 34
f 11 34 23
f 11 23 24
f 11 24 14
f 13 15 25
f 13 25 16
f 14 24 15
f 15 24 26
f 15 26 25
f 16 27 17
f 16 25 28
f 16 28 29
f 16 29 30
f 16 30 27
f 17 31 18
f 17 27 31
f 20 31 27
f 20 27 32
f 20 32 30
f 20 30 21
f 21 30 33
f 23 34 24
f 24 34 26
f 25 26 35
f 25 35 28
f 26 34 29
f 26 29 35
f 27 30 32
f 28 35 29
f 29 33 30

