# https://github.com/mikedh/trimesh
v -0.00266606 0.05992701 -0.01298918
v -0.00325139 0.05980180 -0.01174881
v -0.00317096 0.05972740 -0.00902349
v -0.00145966 0.05954957 -0.00902349
v -0.00096370 0.05938988 -0.00902349
v 0.00307550 0.05808336 -0.00902349
v 0.01344160 0.05059987 -0.01298918
v -0.02476997 0.05188281 -0.01298918
v -0.02390762 0.05394421 -0.00902349
v -0.01408664 0.05730489 -0.00902349
v 0.01356224 0.05074504 -0.00902349
v 0.01453183 0.04974337 -0.01298918
v -0.02534636 0.04727186 -0.01298918
v -0.02792448 0.04347750 -0.00902349
v 0.01512609 0.04625205 -0.00902349
v 0.01769081 0.04139069 -0.01298918
v -0.02538211 0.04139069 -0.01298918
v -0.02795576 0.04139069 -0.00902349
v 0.01681505 0.04139069 -0.00902349
f 1 2 3
f 1 3 4
f 1 4 5
f 1 5 6
f 1 6 7
f 1 7 12
f 1 12 16
f 1 16 17
f 1 17 13
f 1 13 8
f 1 8 9
f 1 9 10
f 1 10 2
f 2 10 3
f 3 10 9
f 3 9 14
f 3 14 18
f 3 18 19
f 3 19 15
f 3 15 11
f 3 11 6
f 3 6 5
f 3 5 4
f 6 11 7
f 7 11 12
f 8 13 14
f 8 14 9
f 11 15 16
f 11 16 12
f 13 17 18
f 13 18 14
f 15 19 16
f 16 19 18
f 16 18 17

