# https://github.com/mikedh/trimesh
v -0.02689336 0.03089170 -0.01298919
v -0.03212349 0.03089170 -0.00578680
v -0.03147800 0.03789068 -0.00552092
v -0.02538170 0.04138966 -0.01298919
v 0.02042053 0.03089170 -0.01298919
v -0.03150558 0.03089170 -0.00211732
v -0.02983945 0.04138966 -0.00575402
v -0.02924913 0.04138966 -0.00771351
v -0.03049597 0.03089170 0.00011715
v -0.02922154 0.04138966 -0.00226118
v 0.01768961 0.04138966 -0.01298919
v 0.02052535 0.03290579 -0.01298919
v 0.02423830 0.03089170 -0.00649520
v -0.02761057 0.04138966 0.00130268
v -0.00219370 0.03089170 0.00512695
v 0.02071293 0.04138966 -0.00567936
v 0.02409486 0.03407006 -0.00651159
v 0.01975849 0.03590844 -0.01298919
v 0.02415554 0.03089170 -0.00421521
v -0.02399142 0.04138966 0.00175795
v 0.01031888 0.03089170 0.00558768
v 0.01354633 0.03640580 0.00561500
v 0.01389942 0.04138966 0.00540011
v 0.02053087 0.04138966 0.00112785
v 0.02124256 0.03979174 0.00174520
v 0.02302456 0.03089170 0.00091296
v 0.01706618 0.03089170 0.00547296
v 0.02091154 0.03089170 0.00393050
v 0.01979159 0.04138966 0.00245906
f 1 2 3
f 1 3 4
f 1 4 11
f 1 11 18
f 1 18 12
f 1 12 5
f 1 5 13
f 1 13 19
f 1 19 26
f 1 26 28
f 1 28 27
f 1 27 21
f 1 21 15
f 1 15 9
f 1 9 6
f 1 6 2
f 2 6 3
f 3 7 8
f 3 8 4
f 3 6 9
f 3 9 10
f 3 10 7
f 4 8 7
f 4 7 10
f 4 10 14
f 4 14 20
f 4 20 23
f 4 23 29
f 4 29 24
f 4 24 16
f 4 16 11
f 5 12 13
f 9 14 10
f 9 15 14
f 11 16 17
f 11 17 18
f 12 17 13
f 12 18 17
f 13 17 19
f 14 15 20
f 15 21 22
f 15 22 23
f 15 23 20
f 16 24 17
f 17 24 25
f 17 25 26
f 17 26 19
f 21 27 22
f 22 27 23
f 23 27 28
f 23 28 29
f 24 29 25
f 25 29 28
f 25 28 26

