# https://github.com/mikedh/trimesh
v 0.02423574 0.03089067 -0.00649823
v 0.02416160 0.03089067 -0.00421576
v 0.02565578 -0.00164080 -0.00632000
v 0.02568429 -0.00240675 -0.00634728
v 0.02203441 0.01509591 -0.01298919
v 0.02042617 0.03089067 -0.01298919
v 0.02427566 0.02461318 0.00032555
v 0.02302672 0.03089067 0.00091299
v 0.02521095 -0.00240675 0.00019096
v 0.02222831 -0.00240675 -0.01298919
v -0.02689687 0.03089067 -0.01298919
v 0.02091663 0.03089067 0.00393204
v 0.02069991 0.02519334 0.00533062
v 0.02381372 -0.00240675 0.00215335
v -0.02705084 -0.00240675 -0.01298919
v -0.02787207 0.02680020 -0.01298919
v -0.03212076 0.03089067 -0.00578894
v 0.01706714 0.03089067 0.00547430
v 0.02102498 -0.00240675 0.00533972
v -0.03098017 -0.00240675 -0.00333005
v -0.03197819 0.00724090 -0.00574165
v -0.02743294 0.00112312 -0.01298919
v -0.02798613 0.02577024 -0.01298919
v -0.03257700 0.02593973 -0.00597990
v -0.03151055 0.03089067 -0.00211515
v 0.01032626 0.03089067 0.00559070
v -0.00914360 -0.00240675 0.00544338
v -0.02446741 -0.00240675 0.00533790
v -0.03152196 0.02716524 -0.00030372
v -0.02772950 0.00989400 -0.01298919
v -0.02792910 0.02048360 -0.01298919
v -0.03050113 0.03089067 0.00011640
v -0.00219171 0.03089067 0.00512693
v -0.01241138 0.02918278 0.00512693
v -0.02599580 0.02012833 0.00520877
v -0.02366329 0.00579375 0.00533790
f 1 2 3
f 1 3 4
f 1 4 5
f 1 5 6
f 1 6 11
f 1 11 17
f 1 17 25
f 1 25 32
f 1 32 33
f 1 33 26
f 1 26 18
f 1 18 12
f 1 12 8
f 1 8 2
f 2 7 3
f 2 8 7
f 3 7 4
f 4 7 9
f 4 9 14
f 4 14 19
f 4 19 27
f 4 27 28
f 4 28 20
f 4 20 15
f 4 15 10
f 4 10 5
f 5 10 15
f 5 15 22
f 5 22 30
f 5 30 31
f 5 31 23
f 5 23 16
f 5 16 11
f 5 11 6
f 7 8 12
f 7 12 13
f 7 13 9
f 9 13 14
f 11 16 17
f 12 18 13
f 13 19 14
f 13 18 19
f 15 20 21
f 15 21 22
f 16 23 24
f 16 24 17
f 17 24 25
f 18 26 19
f 19 26 27
f 20 28 29
f 20 29 21
f 21 29 24
f 21 24 22
f 22 24 30
f 23 31 24
f 24 31 30
f 24 29 25
f 25 29 32
f 26 33 34
f 26 34 35
f 26 35 36
f 26 36 28
f 26 28 27
f 28 36 35
f 28 35 29
f 29 35 32
f 32 35 34
f 32 34 33

