# https://github.com/mikedh/trimesh
v -0.01748053 0.05005921 0.00842393
v -0.01467401 0.04149363 0.01698999
v -0.01467110 0.04149728 0.01698999
v -0.00455776 0.05628473 0.00842393
v -0.01538581 0.04344003 0.00842393
v -0.01168736 0.01963503 0.02315186
v -0.01179486 0.01963503 0.02382747
v -0.01051943 0.01963503 0.02983569
v -0.01433699 0.04047306 0.01801132
v -0.01329690 0.04215701 0.01698999
v -0.00214636 0.05686792 0.00842393
v -0.00949677 0.02590430 0.02947642
v -0.01489481 0.04264179 0.00842393
v -0.00760251 0.02017448 0.01968792
v 0.00363518 0.01963503 0.02299369
v -0.00933988 0.01963503 0.03088639
v 0.00041321 0.04544838 0.01698999
v 0.00041611 0.04544838 0.01698999
v 0.00303088 0.04408518 0.01698999
v 0.00525343 0.05300066 0.00842393
v 0.00183390 0.01963503 0.03148744
v 0.00238009 0.02073579 0.03127052
v 0.00181646 0.03920098 0.02167183
v -0.01085935 0.04218982 0.00842393
v 0.00378626 0.01963503 0.02299595
v 0.00766483 0.04316301 0.00842393
v 0.01220000 0.04513491 0.00842393
v 0.00231908 0.01963503 0.03150778
v 0.00251083 0.01963503 0.03137672
f 1 2 3
f 1 3 4
f 1 4 11
f 1 11 20
f 1 20 27
f 1 27 26
f 1 26 24
f 1 24 13
f 1 13 5
f 1 5 6
f 1 6 7
f 1 7 8
f 1 8 2
f 2 9 3
f 2 8 9
f 3 9 10
f 3 10 4
f 4 10 12
f 4 12 11
f 5 13 6
f 6 14 15
f 6 15 25
f 6 25 29
f 6 29 28
f 6 28 21
f 6 21 16
f 6 16 8
f 6 8 7
f 6 13 14
f 8 16 12
f 8 12 9
f 9 12 10
f 11 17 18
f 11 18 19
f 11 19 20
f 11 12 17
f 12 16 21
f 12 21 22
f 12 22 23
f 12 23 17
f 13 24 14
f 14 25 15
f 14 24 26
f 14 26 25
f 17 23 18
f 18 23 19
f 19 27 20
f 19 23 27
f 21 28 22
f 22 28 29
f 22 29 27
f 22 27 23
f 25 26 27
f 25 27 29

