# https://github.com/mikedh/trimesh
v -0.00284421 0.05943617 0.00179890
v -0.00269832 0.05930723 0.00659257
v 0.00565856 0.05855126 0.00179890
v -0.01977225 0.05542496 0.00179890
v -0.01924795 0.05546382 0.00302261
v -0.01747901 0.05006431 0.00842393
v -0.00456300 0.05628690 0.00842393
v -0.00214667 0.05686624 0.00842393
v 0.00660229 0.05841879 0.00322753
v 0.00812048 0.05775291 0.00179890
v -0.02640577 0.04575284 0.00179890
v -0.02640577 0.04574754 0.00179890
v -0.01538637 0.04344255 0.00842393
v 0.00525279 0.05300516 0.00842393
v 0.01433457 0.04739018 0.00514384
v 0.01129819 0.05388300 0.00179890
v -0.01489398 0.04264597 0.00842393
v 0.01132555 0.04139191 0.00179890
v 0.01220090 0.04513464 0.00842393
v 0.01979640 0.04139191 0.00246036
v 0.01437104 0.05013497 0.00179890
v -0.01085916 0.04219027 0.00842393
v 0.02016113 0.04139191 0.00179890
v 0.01390601 0.04139191 0.00540064
v 0.01129819 0.04474253 0.00842393
v 0.00766457 0.04316525 0.00842393
f 1 2 3
f 1 3 10
f 1 10 16
f 1 16 21
f 1 21 23
f 1 23 18
f 1 18 12
f 1 12 11
f 1 11 4
f 1 4 2
f 2 4 5
f 2 5 6
f 2 6 7
f 2 7 8
f 2 8 9
f 2 9 3
f 3 9 10
f 4 11 5
f 5 11 6
f 6 11 12
f 6 12 13
f 6 13 17
f 6 17 22
f 6 22 26
f 6 26 25
f 6 25 19
f 6 19 14
f 6 14 8
f 6 8 7
f 8 14 9
f 9 14 15
f 9 15 16
f 9 16 10
f 12 17 13
f 12 18 17
f 14 19 15
f 15 19 20
f 15 20 21
f 15 21 16
f 17 18 22
f 18 23 20
f 18 20 24
f 18 24 22
f 19 25 24
f 19 24 20
f 20 23 21
f 22 24 26
f 24 25 26

