# https://github.com/mikedh/trimesh
v -0.03069800 0.01997318 -0.02378383
v -0.02793330 0.02048864 -0.01298919
v -0.02798551 0.02576865 -0.01298919
v -0.02787655 0.02679957 -0.01298919
v -0.03040519 0.02822754 -0.02677642
v -0.02781527 -0.01344829 -0.02495632
v -0.03006925 0.01059734 -0.02323957
v -0.02743393 0.00112397 -0.01298919
v -0.02772901 0.00989380 -0.01298919
v -0.02534792 0.04726482 -0.01298919
v -0.02890026 0.03882935 -0.02553126
v -0.02284425 0.02321920 -0.02948638
v -0.02165938 -0.01344829 -0.02947992
v -0.02288738 -0.01344829 -0.02882747
v -0.02769042 -0.01344829 -0.02524702
v -0.02621955 -0.01344829 -0.01298919
v -0.02477137 0.05188308 -0.01298919
v -0.02728866 0.04587168 -0.02456064
v -0.00750902 0.03639832 -0.02947992
v -0.01616857 -0.01344829 -0.02947831
v -0.00750902 -0.01344829 -0.01298919
v -0.00750902 0.05769945 -0.01298919
v -0.00750902 0.04619906 -0.02666498
v -0.00750902 0.03774270 -0.02922475
v -0.00750902 0.05540077 -0.01779219
v -0.00750902 -0.01344829 -0.02947347
f 1 2 3
f 1 3 4
f 1 4 5
f 1 5 6
f 1 6 7
f 1 7 8
f 1 8 9
f 1 9 2
f 2 9 8
f 2 8 16
f 2 16 21
f 2 21 22
f 2 22 17
f 2 17 10
f 2 10 4
f 2 4 3
f 4 10 11
f 4 11 5
f 5 12 13
f 5 13 14
f 5 14 15
f 5 15 6
f 5 11 12
f 6 15 14
f 6 14 13
f 6 13 20
f 6 20 26
f 6 26 21
f 6 21 16
f 6 16 7
f 7 16 8
f 10 17 11
f 11 17 18
f 11 18 12
f 12 18 19
f 12 19 20
f 12 20 13
f 17 22 18
f 18 23 24
f 18 24 19
f 18 22 25
f 18 25 23
f 19 26 20
f 19 24 23
f 19 23 25
f 19 25 22
f 19 22 21
f 19 21 26

