# https://github.com/mikedh/trimesh
v 0.02560858 -0.05513916 -0.00003568
v 0.02558291 -0.05513916 0.00012991
v 0.01608281 -0.07472547 0.00223852
v 0.02169254 -0.06629508 -0.00942802
v 0.02232383 -0.06434941 -0.01298918
v 0.02434600 -0.05513916 -0.00866506
v 0.02547513 -0.05513916 0.00023261
v 0.01183317 -0.07142099 0.00842392
v 0.00391899 -0.07458800 0.00842392
v -0.00047436 -0.08214600 0.00125548
v 0.01233102 -0.07930150 -0.01022661
v 0.02076357 -0.05513916 -0.01298918
v 0.00678801 -0.07781317 -0.01298918
v 0.01917766 -0.05513916 0.00552930
v 0.01203334 -0.06792088 0.00842392
v -0.00369752 -0.07477305 0.00842392
v -0.01194018 -0.07182017 0.00842392
v -0.01587674 -0.07617150 0.00177530
v -0.00725941 -0.08168602 -0.00999395
v -0.02382172 -0.05513916 -0.01298918
v 0.00010560 -0.07856395 -0.01298918
v 0.00015693 -0.05513916 0.00555235
v 0.01044229 -0.06307520 0.00842392
v 0.01076050 -0.06364886 0.00842392
v -0.01507095 -0.06315186 0.00842392
v -0.01783732 -0.06315451 0.00564458
v -0.02494059 -0.06529581 -0.00489639
v -0.01948483 -0.06629508 -0.01298918
v -0.01241236 -0.07321863 -0.01298918
v -0.02502270 -0.05816606 -0.01298918
v -0.02595680 -0.05513916 -0.00846384
v -0.01923847 -0.05513916 0.00551672
v -0.02682418 -0.05513916 -0.00394898
v -0.02632634 -0.05513916 -0.00701338
f 1 2 3
f 1 3 4
f 1 4 5
f 1 5 6
f 1 6 12
f 1 12 20
f 1 20 31
f 1 31 34
f 1 34 33
f 1 33 32
f 1 32 22
f 1 22 14
f 1 14 7
f 1 7 2
f 2 7 8
f 2 8 3
f 3 8 9
f 3 9 10
f 3 10 11
f 3 11 4
f 4 11 5
f 5 12 6
f 5 11 13
f 5 13 21
f 5 21 29
f 5 29 28
f 5 28 30
f 5 30 20
f 5 20 12
f 7 14 8
f 8 14 15
f 8 15 24
f 8 24 23
f 8 23 25
f 8 25 17
f 8 17 16
f 8 16 9
f 9 16 10
f 10 16 17
f 10 17 18
f 10 18 19
f 10 19 11
f 11 19 13
f 13 19 21
f 14 22 23
f 14 23 24
f 14 24 15
f 17 25 26
f 17 26 18
f 18 26 27
f 18 27 19
f 19 27 28
f 19 28 29
f 19 29 21
f 20 30 31
f 22 32 25
f 22 25 23
f 25 32 26
f 26 32 33
f 26 33 27
f 27 33 30
f 27 30 28
f 30 33 34
f 30 34 31

