# https://github.com/mikedh/trimesh
v 0.02198420 0.00765895 -0.02923378
v 0.02178882 0.00765895 -0.02950706
v 0.02184092 0.00765895 -0.01298919
v 0.02203630 0.00725592 -0.01298919
v 0.02548483 0.00032189 -0.02603855
v 0.02575837 -0.01345525 -0.02891361
v 0.02175625 0.00765895 -0.02950706
v 0.02536434 -0.01345525 -0.02946340
v 0.00761044 -0.01345525 -0.02948442
v -0.00750902 0.00765895 -0.01298919
v 0.02226425 -0.00404935 -0.01298919
v 0.02503870 -0.01345525 -0.02587846
v -0.00750902 -0.01345525 -0.02947310
v -0.00750902 0.00765895 -0.02947634
v -0.00750902 -0.01345525 -0.01298919
v 0.02218284 -0.00676302 -0.01298919
v 0.02479122 -0.01345525 -0.02483548
v 0.02196466 -0.01345525 -0.01298919
f 1 2 7
f 1 7 14
f 1 14 10
f 1 10 3
f 1 3 4
f 1 4 5
f 1 5 6
f 1 6 2
f 2 6 8
f 2 8 9
f 2 9 7
f 3 10 15
f 3 15 18
f 3 18 16
f 3 16 11
f 3 11 4
f 4 11 5
f 5 11 6
f 6 11 12
f 6 12 17
f 6 17 18
f 6 18 15
f 6 15 13
f 6 13 9
f 6 9 8
f 7 9 13
f 7 13 14
f 10 14 13
f 10 13 15
f 11 16 12
f 12 16 17
f 16 18 17

