# https://github.com/mikedh/trimesh
v 0.02551786 -0.05287928 -0.02449722
v 0.02257414 -0.06953095 -0.02949200
v 0.02342509 -0.05287928 -0.02947907
v 0.02208929 -0.05287928 -0.01540904
v 0.02232182 -0.06434992 -0.01298918
v 0.01812640 -0.05287928 -0.02948877
v 0.01047768 -0.07890599 -0.02361683
v -0.00299912 -0.08176800 -0.02620791
v -0.00474556 -0.07618256 -0.02946292
v -0.01236460 -0.05287928 -0.02946938
v 0.02114433 -0.05287928 -0.01298918
v 0.00678690 -0.07781153 -0.01298918
v 0.00010787 -0.07856380 -0.01298918
v -0.01241407 -0.07321875 -0.01298918
v -0.00997004 -0.07680756 -0.02632907
v -0.01852414 -0.05287928 -0.02901869
v -0.02292241 -0.05287928 -0.01298918
v -0.01948394 -0.06629563 -0.01298918
v -0.01822730 -0.06826963 -0.02374768
v -0.02186860 -0.05287928 -0.02671353
v -0.02346662 -0.05287928 -0.02517083
v -0.02301641 -0.05310553 -0.01298918
v -0.02502506 -0.05816494 -0.01298918
v -0.02379810 -0.06036800 -0.01999351
f 1 2 3
f 1 3 6
f 1 6 10
f 1 10 16
f 1 16 20
f 1 20 21
f 1 21 17
f 1 17 11
f 1 11 4
f 1 4 5
f 1 5 2
f 2 6 3
f 2 5 7
f 2 7 8
f 2 8 9
f 2 9 10
f 2 10 6
f 4 11 5
f 5 11 17
f 5 17 22
f 5 22 23
f 5 23 18
f 5 18 14
f 5 14 13
f 5 13 12
f 5 12 7
f 7 12 8
f 8 12 13
f 8 13 14
f 8 14 15
f 8 15 9
f 9 15 16
f 9 16 10
f 14 18 15
f 15 18 19
f 15 19 16
f 16 19 20
f 17 21 22
f 18 23 24
f 18 24 19
f 19 24 21
f 19 21 20
f 21 24 23
f 21 23 22

