# https://github.com/mikedh/trimesh
v -0.00750902 0.00766423 -0.02947569
v 0.02168122 0.00829281 -0.02950972
v 0.02175779 0.00766423 -0.02950810
v -0.00750902 0.00766423 -0.01299081
v -0.00750902 0.03639945 -0.02948055
v 0.00516705 0.06161672 -0.02954700
v 0.02178775 0.00766423 -0.02950810
v 0.01389849 0.05530976 -0.02952107
v 0.02126512 0.04949933 -0.02947082
v 0.02184101 0.00766423 -0.01299081
v -0.00750902 0.05770260 -0.01299081
v -0.00750902 0.03774113 -0.02922447
v -0.00750902 0.04620323 -0.02666527
v -0.00750902 0.05540484 -0.01779153
v -0.00266229 0.05992641 -0.01299081
v 0.01344244 0.05059803 -0.01299081
v 0.02180106 0.02148777 -0.02947731
v 0.02649800 0.01468957 -0.02587109
v 0.02198415 0.00766423 -0.02923419
v 0.01453096 0.04974231 -0.01299081
v 0.01976384 0.03590292 -0.01299081
v 0.02053279 0.03290791 -0.01299081
v 0.02478367 0.03222651 -0.02646429
v 0.02189760 0.00766423 -0.01940583
v 0.02209400 0.00807096 -0.01299081
v 0.02203408 0.01510158 -0.01299081
f 1 2 3
f 1 3 7
f 1 7 19
f 1 19 24
f 1 24 10
f 1 10 4
f 1 4 11
f 1 11 14
f 1 14 13
f 1 13 12
f 1 12 5
f 1 5 6
f 1 6 2
f 2 7 3
f 2 6 8
f 2 8 9
f 2 9 7
f 4 10 25
f 4 25 26
f 4 26 22
f 4 22 21
f 4 21 20
f 4 20 16
f 4 16 15
f 4 15 11
f 5 12 6
f 6 12 13
f 6 13 14
f 6 14 11
f 6 11 15
f 6 15 16
f 6 16 8
f 7 9 17
f 7 17 18
f 7 18 19
f 8 16 20
f 8 20 9
f 9 20 21
f 9 21 22
f 9 22 23
f 9 23 18
f 9 18 17
f 10 24 18
f 10 18 25
f 18 26 25
f 18 24 19
f 18 23 22
f 18 22 26

