# https://github.com/mikedh/trimesh
v -0.03581810 0.01755522 0.02571281
v -0.03413974 -0.01387920 0.02571281
v -0.02918800 -0.00201470 0.04595216
v -0.02765248 0.03036665 0.04106079
v -0.03008074 0.03532411 0.02571281
v -0.03141390 -0.01985787 0.02571281
v -0.01779659 0.01389746 0.05149722
v -0.02367679 -0.03302208 0.02906206
v -0.01451130 -0.02596651 0.04935441
v -0.01067845 -0.02440686 0.05149722
v -0.01473746 0.02615187 0.05149722
v -0.00010838 0.06107695 0.04103051
v -0.01693956 0.05168190 0.03189895
v -0.01586826 0.05779053 0.02571281
v -0.02380773 -0.03396901 0.02571281
v -0.01130932 -0.04995545 0.02571281
v -0.00294135 -0.04793161 0.03893060
v 0.02929263 -0.06428939 0.05005354
v 0.01383032 -0.04739316 0.05149722
v 0.00349831 0.04603744 0.05149722
v 0.01618716 0.05819901 0.05149722
v 0.02991160 0.10097806 0.02571281
v -0.00783358 0.06581160 0.02571281
v 0.01150919 -0.06742727 0.02571281
v 0.04126729 -0.08163124 0.02571281
v 0.05602731 -0.08597599 0.02571281
v 0.05732477 -0.07533694 0.03841067
v 0.05164692 -0.06007461 0.05149722
v 0.03269696 -0.06215415 0.05149722
v 0.02694769 0.06506891 0.05149722
v 0.03782725 0.09071034 0.03677012
v 0.04057690 0.10370744 0.02571281
v 0.06544277 -0.08333943 0.02571281
v 0.07313226 -0.07916179 0.02571281
v 0.07227523 -0.06841133 0.03718405
v 0.05628918 -0.05738236 0.05149722
v 0.04965907 0.07290431 0.05149722
v 0.05221827 0.07171601 0.05149722
v 0.05387282 0.09739456 0.02571281
v 0.08102412 -0.07049087 0.02571281
v 0.08251202 -0.06586761 0.02865318
v 0.06807339 -0.04392108 0.05149722
v 0.06268122 0.07947713 0.03634358
v 0.05763425 0.05855179 0.05149722
v 0.06814481 0.03898187 0.04877138
v 0.07094207 0.07544803 0.02571281
v 0.08288102 -0.06226556 0.02571281
v 0.08455938 -0.04330835 0.02571281
v 0.08427370 -0.04551786 0.03084395
v 0.06896613 -0.04193438 0.05149722
v 0.07314417 0.06889378 0.02571281
v 0.06710922 0.03025524 0.05149722
v 0.07811973 -0.00130915 0.04289064
v 0.08251202 0.02535348 0.03022054
v 0.08517835 -0.03612282 0.02571281
v 0.08578541 -0.01042569 0.02571281
v 0.07001362 -0.02910438 0.05149722
v 0.06934703 -0.03965060 0.05149722
v 0.07795308 0.05136625 0.02571281
v 0.07051355 0.00422391 0.05149722
v 0.08544021 0.00609920 0.02571281
v 0.08507122 0.01380463 0.02571281
v 0.08336906 0.02650465 0.02571281
f 1 2 3
f 1 3 4
f 1 4 5
f 1 5 14
f 1 14 23
f 1 23 22
f 1 22 32
f 1 32 39
f 1 39 46
f 1 46 51
f 1 51 59
f 1 59 63
f 1 63 62
f 1 62 61
f 1 61 56
f 1 56 55
f 1 55 48
f 1 48 47
f 1 47 40
f 1 40 34
f 1 34 33
f 1 33 26
f 1 26 25
f 1 25 24
f 1 24 16
f 1 16 15
f 1 15 6
f 1 6 2
f 2 6 3
f 3 7 4
f 3 6 8
f 3 8 9
f 3 9 10
f 3 10 7
f 4 7 11
f 4 11 12
f 4 12 13
f 4 13 14
f 4 14 5
f 6 15 8
f 7 10 19
f 7 19 29
f 7 29 28
f 7 28 36
f 7 36 42
f 7 42 50
f 7 50 58
f 7 58 57
f 7 57 60
f 7 60 52
f 7 52 44
f 7 44 38
f 7 38 37
f 7 37 30
f 7 30 21
f 7 21 20
f 7 20 11
f 8 15 16
f 8 16 9
f 9 16 17
f 9 17 18
f 9 18 19
f 9 19 10
f 11 20 12
f 12 14 13
f 12 20 21
f 12 21 22
f 12 22 23
f 12 23 14
f 16 24 17
f 17 24 18
f 18 24 25
f 18 25 26
f 18 26 27
f 18 27 28
f 18 28 29
f 18 29 19
f 21 30 22
f 22 31 32
f 22 30 31
f 26 33 27
f 27 33 34
f 27 34 35
f 27 35 28
f 28 35 36
f 30 37 31
f 31 37 32
f 32 37 38
f 32 38 39
f 34 40 41
f 34 41 35
f 35 41 42
f 35 42 36
f 38 43 39
f 38 44 45
f 38 45 43
f 39 43 46
f 40 47 41
f 41 47 48
f 41 48 49
f 41 49 50
f 41 50 42
f 43 51 46
f 43 45 51
f 44 52 45
f 45 52 53
f 45 53 54
f 45 54 51
f 48 55 49
f 49 55 56
f 49 56 53
f 49 53 57
f 49 57 58
f 49 58 50
f 51 54 59
f 52 60 53
f 53 56 61
f 53 61 54
f 53 60 57
f 54 61 62
f 54 62 63
f 54 63 59

