# https://github.com/mikedh/trimesh
v -0.00006349 0.11453251 -0.01580987
v -0.00252807 0.11298407 -0.01765006
v -0.00252807 0.11208859 -0.01580987
v 0.01319236 0.10514862 -0.01580987
v 0.01535412 0.07195989 -0.04149868
v 0.01252021 0.07132558 -0.04326046
v -0.00252807 0.06949731 -0.04235190
v -0.00252807 -0.07545855 -0.01580987
v 0.01535412 0.09259324 -0.01580987
v 0.01535412 0.06755710 -0.04462099
v 0.00305224 0.01834300 -0.06161158
v -0.00252807 0.04582305 -0.05162662
v -0.00252807 0.04908782 -0.05046900
v -0.00252807 -0.07605554 -0.01605892
v 0.00028834 -0.07605554 -0.01580987
v 0.01535412 -0.07605554 -0.01580987
v 0.01535412 0.02927532 -0.05798194
v -0.00252807 0.02151450 -0.05950390
v -0.00252807 0.02239132 -0.05922257
v 0.01535412 0.01670129 -0.06097052
v 0.01535412 -0.00988328 -0.06250631
v 0.00416550 -0.00697297 -0.06292600
v -0.00252807 -0.00587227 -0.06187446
v -0.00252807 0.01507823 -0.06092439
v -0.00252807 -0.07605554 -0.03958470
v 0.01535412 -0.07605554 -0.02993180
v 0.01535412 -0.01969625 -0.06125184
v 0.00258138 -0.02607655 -0.06049087
v -0.00252807 -0.02758767 -0.05914416
v 0.01376650 -0.04424733 -0.05581431
v 0.01535412 -0.04566517 -0.05473048
v 0.01535412 -0.05986227 -0.04451031
v 0.01535412 -0.06814546 -0.03731099
v -0.00252807 -0.03809091 -0.05541306
v 0.01535412 -0.04085197 -0.05649227
v 0.01535412 -0.04350110 -0.05574051
f 1 2 3
f 1 3 8
f 1 8 15
f 1 15 16
f 1 16 9
f 1 9 4
f 1 4 5
f 1 5 6
f 1 6 2
f 2 6 7
f 2 7 13
f 2 13 12
f 2 12 19
f 2 19 18
f 2 18 24
f 2 24 23
f 2 23 29
f 2 29 34
f 2 34 25
f 2 25 14
f 2 14 8
f 2 8 3
f 4 9 5
f 5 9 16
f 5 16 26
f 5 26 33
f 5 33 32
f 5 32 31
f 5 31 36
f 5 36 35
f 5 35 27
f 5 27 21
f 5 21 20
f 5 20 17
f 5 17 10
f 5 10 6
f 6 10 11
f 6 11 12
f 6 12 13
f 6 13 7
f 8 14 15
f 10 17 11
f 11 18 19
f 11 19 12
f 11 17 20
f 11 20 21
f 11 21 22
f 11 22 23
f 11 23 24
f 11 24 18
f 14 25 26
f 14 26 16
f 14 16 15
f 21 27 28
f 21 28 22
f 22 28 23
f 23 28 29
f 25 30 31
f 25 31 32
f 25 32 33
f 25 33 26
f 25 34 30
f 27 35 30
f 27 30 28
f 28 30 29
f 29 30 34
f 30 35 36
f 30 36 31

