# https://github.com/mikedh/trimesh
v -0.04264358 0.03385357 -0.01580987
v -0.04011765 0.03314393 -0.01580987
v -0.04011765 0.04512181 -0.03210904
v -0.05174691 0.04512181 -0.03816988
v -0.05188542 0.03760607 -0.03369234
v -0.04343040 -0.00009093 -0.01581911
v -0.04067940 0.01351053 -0.01580987
v -0.04011765 0.01351053 -0.01580987
v -0.04011765 0.04512181 -0.04828358
v -0.05455755 0.04512181 -0.05076238
v -0.05977100 0.02114454 -0.05787567
v -0.05900726 -0.01511166 -0.04884212
v -0.04012150 -0.01473534 -0.01581911
v -0.04011765 -0.03469131 -0.02952407
v -0.05941125 0.02280037 -0.05739099
v -0.04011765 0.00608080 -0.05760795
v -0.05500772 0.01351053 -0.05830958
v -0.05891107 0.01351053 -0.05873425
v -0.04012150 -0.01610086 -0.01646996
v -0.05466721 -0.02415421 -0.06296714
v -0.05385730 -0.03451927 -0.05969438
v -0.05369377 -0.03658368 -0.05904353
v -0.05420550 -0.03451927 -0.05805570
v -0.05027330 -0.05018513 -0.05321811
v -0.04011765 -0.04401341 -0.03362310
v -0.04011765 -0.03480958 -0.02957485
v -0.04011765 -0.01038072 -0.05965745
v -0.04011765 -0.04781967 -0.05681860
v -0.04011765 -0.05188398 -0.05483371
v -0.04011765 -0.06472203 -0.04759579
f 1 2 3
f 1 3 4
f 1 4 5
f 1 5 6
f 1 6 7
f 1 7 8
f 1 8 2
f 2 8 14
f 2 14 26
f 2 26 25
f 2 25 30
f 2 30 29
f 2 29 28
f 2 28 27
f 2 27 16
f 2 16 9
f 2 9 3
f 3 9 10
f 3 10 4
f 4 10 5
f 5 10 11
f 5 11 12
f 5 12 6
f 6 12 13
f 6 13 7
f 7 13 8
f 8 13 14
f 9 11 15
f 9 15 10
f 9 16 11
f 10 15 11
f 11 16 17
f 11 17 18
f 11 18 12
f 12 19 13
f 12 18 20
f 12 20 21
f 12 21 22
f 12 22 23
f 12 23 24
f 12 24 19
f 13 19 25
f 13 25 26
f 13 26 14
f 16 27 20
f 16 20 17
f 17 20 18
f 19 24 25
f 20 27 28
f 20 28 22
f 20 22 21
f 22 28 29
f 22 29 24
f 22 24 23
f 24 29 30
f 24 30 25

