# https://github.com/mikedh/trimesh
v 0.02402805 0.12539340 0.00154847
v 0.02049167 0.12442267 0.00154847
v 0.02573651 0.10641951 0.01987041
v 0.04363945 0.11821864 0.01336809
v 0.05860337 0.09152910 0.00222260
v 0.04716986 0.09796596 0.00154847
v 0.01784536 0.09823462 0.00154847
v 0.00215266 0.08880677 0.00222260
v 0.02493604 0.08879961 0.02571281
v 0.02992402 0.10099276 0.02571281
v 0.04058096 0.10371151 0.02571281
v 0.05271338 0.09796596 0.02571281
v 0.05387226 0.09741076 0.02571281
v 0.06317916 0.08879961 0.01419123
v 0.06252804 0.08879961 0.00784974
v 0.05642299 0.09796596 0.00883136
v 0.05570616 0.09904057 0.00894490
v 0.05612431 0.09796596 0.00798220
v 0.06051493 0.08879961 0.00222260
v 0.01782146 0.09796596 0.00154847
v 0.00881922 0.08879961 0.00222260
v 0.02001975 0.08879961 0.02040971
v 0.05895581 0.08879961 0.02571281
f 1 2 3
f 1 3 4
f 1 4 5
f 1 5 6
f 1 6 20
f 1 20 7
f 1 7 2
f 2 7 8
f 2 8 3
f 3 9 10
f 3 10 4
f 3 8 9
f 4 10 11
f 4 11 12
f 4 12 13
f 4 13 14
f 4 14 15
f 4 15 16
f 4 16 17
f 4 17 18
f 4 18 5
f 5 18 15
f 5 15 19
f 5 19 6
f 6 19 21
f 6 21 20
f 7 20 8
f 8 20 21
f 8 21 22
f 8 22 9
f 9 23 13
f 9 13 12
f 9 12 11
f 9 11 10
f 9 22 21
f 9 21 19
f 9 19 15
f 9 15 14
f 9 14 23
f 13 23 14
f 15 18 16
f 16 18 17

