# https://github.com/mikedh/trimesh
v 0.00834714 -0.04217727 0.08009396
v 0.00738400 -0.03808184 0.06305200
v 0.01298523 -0.05549686 0.06515296
v 0.01863653 -0.04340842 0.05927803
v 0.01956153 -0.02795945 0.06212889
v 0.01956153 -0.02647391 0.06249772
v 0.01956153 -0.02341803 0.06279117
v 0.01923254 -0.02341803 0.06273615
v 0.00842462 -0.02341803 0.05958370
v 0.00790133 -0.02341803 0.05927803
v 0.00906354 -0.03992227 0.05927803
v 0.01334760 -0.05201386 0.05927803
v 0.01725738 -0.04964893 0.05927803
v 0.01956153 -0.03269872 0.05927803
v 0.01956153 -0.02341803 0.06034583
v 0.01955795 -0.02341803 0.05927803
v 0.01956153 -0.03268616 0.05927803
f 1 2 3
f 1 3 4
f 1 4 5
f 1 5 6
f 1 6 7
f 1 7 8
f 1 8 9
f 1 9 10
f 1 10 2
f 2 11 12
f 2 12 3
f 2 10 11
f 3 12 13
f 3 13 4
f 4 14 5
f 4 13 12
f 4 12 11
f 4 11 10
f 4 10 16
f 4 16 17
f 4 17 14
f 5 14 17
f 5 17 15
f 5 15 7
f 5 7 6
f 7 15 16
f 7 16 10
f 7 10 9
f 7 9 8
f 15 17 16

