# https://github.com/mikedh/trimesh
v -0.02374449 0.07262773 -0.01580987
v -0.02374449 0.10011941 -0.02716085
v -0.02875803 0.06957111 -0.01580987
v -0.02374449 -0.05272936 -0.01580987
v -0.02374449 0.10061991 -0.02761162
v -0.03366298 0.07895546 -0.02402259
v -0.04011543 0.03310619 -0.01580987
v -0.02600692 -0.05728747 -0.01580987
v -0.02374449 -0.07968480 -0.02412133
v -0.02374449 0.10031604 -0.02838868
v -0.02525278 0.09870729 -0.02838868
v -0.02533423 0.09861791 -0.02838868
v -0.04011845 0.08001009 -0.03555816
v -0.02614267 0.09717004 -0.02838009
v -0.04011543 0.07816896 -0.03387097
v -0.05175035 0.04511817 -0.03816408
v -0.04011543 -0.01472720 -0.01580987
v -0.02943677 -0.05784160 -0.01580987
v -0.02599787 -0.07823692 -0.02838868
v -0.02374449 -0.08199067 -0.03929317
v -0.03514412 -0.05582173 -0.01580987
v -0.02374449 0.09865366 -0.03248859
v -0.03252574 0.08857219 -0.03437327
v -0.04174136 0.07795446 -0.03635239
v -0.05456180 0.04511817 -0.05076435
v -0.04011543 -0.01608569 -0.01646672
v -0.05148791 0.05923938 -0.04657427
v -0.03252574 -0.07401844 -0.04075712
v -0.03449857 -0.07273144 -0.04447924
v -0.03252574 -0.07442956 -0.04353475
v -0.03252574 -0.07362518 -0.04427317
v -0.02374449 -0.07752193 -0.04330722
v -0.04011543 -0.06468771 -0.04759174
v -0.04011543 -0.04400638 -0.03363056
v -0.02374449 0.06628212 -0.04207939
v -0.03252875 0.06406562 -0.04350900
v -0.04011543 0.06213513 -0.04473682
v -0.02374449 0.03358882 -0.05149847
v -0.02374449 0.00268301 -0.05830304
v -0.04011543 0.00611500 -0.05760327
v -0.04011543 -0.01038358 -0.05966825
v -0.04011543 -0.04781375 -0.05681334
v -0.04011543 -0.05183561 -0.05482992
v -0.03395257 -0.05287236 -0.05580445
v -0.03252574 -0.05103124 -0.05573576
v -0.02374449 -0.03955552 -0.05531075
v -0.02374449 -0.00237560 -0.05853058
f 1 2 3
f 1 3 7
f 1 7 17
f 1 17 21
f 1 21 18
f 1 18 8
f 1 8 4
f 1 4 9
f 1 9 20
f 1 20 32
f 1 32 46
f 1 46 47
f 1 47 39
f 1 39 38
f 1 38 35
f 1 35 22
f 1 22 10
f 1 10 5
f 1 5 2
f 2 5 6
f 2 6 3
f 3 6 7
f 4 8 9
f 5 10 11
f 5 11 12
f 5 12 13
f 5 13 14
f 5 14 6
f 6 14 13
f 6 13 15
f 6 15 16
f 6 16 7
f 7 16 17
f 8 18 9
f 9 19 20
f 9 18 21
f 9 21 19
f 10 22 23
f 10 23 13
f 10 13 11
f 11 13 12
f 13 23 24
f 13 24 15
f 15 24 16
f 16 25 26
f 16 26 17
f 16 24 27
f 16 27 25
f 17 26 21
f 19 28 20
f 19 21 28
f 20 28 29
f 20 29 30
f 20 30 31
f 20 31 32
f 21 33 29
f 21 29 28
f 21 26 25
f 21 25 34
f 21 34 33
f 22 35 36
f 22 36 37
f 22 37 27
f 22 27 23
f 23 27 24
f 25 27 38
f 25 38 39
f 25 39 40
f 25 40 41
f 25 41 42
f 25 42 43
f 25 43 33
f 25 33 34
f 27 37 38
f 29 33 44
f 29 44 31
f 29 31 30
f 31 44 32
f 32 44 45
f 32 45 46
f 33 43 44
f 35 38 36
f 36 38 37
f 39 47 41
f 39 41 40
f 41 47 44
f 41 44 42
f 42 44 43
f 44 47 45
f 45 47 46

