# https://github.com/mikedh/trimesh
v -0.05255272 0.03987085 -0.01261732
v -0.04316087 0.05700800 0.00777300
v -0.03298330 0.04383906 -0.01580525
v -0.04264074 0.03386221 -0.01580987
v -0.04342647 -0.00008662 -0.01580987
v -0.03513759 -0.05581677 -0.01580987
v -0.03687874 -0.05994771 -0.00649768
v -0.04158573 -0.02253140 -0.00334438
v -0.01486729 0.02976882 0.00399642
v -0.03298330 0.05276440 0.00613402
v -0.03850553 0.05506771 0.00702045
v -0.03968596 0.00493310 0.00399642
v -0.03895556 -0.00070000 0.00399642
v -0.02636179 -0.05455245 0.00399642
v -0.02359514 -0.05835792 0.00399642
v -0.01826104 -0.06008541 0.00399642
v -0.01644981 -0.05909649 0.00399642
v -0.01486729 -0.05822023 0.00399642
v -0.01486729 0.02976882 -0.01580987
v -0.01816882 -0.06868528 -0.01580987
v -0.01486729 -0.07087593 -0.01580987
v -0.01763394 -0.06649463 -0.00701939
f 1 2 3
f 1 3 4
f 1 4 5
f 1 5 6
f 1 6 7
f 1 7 8
f 1 8 2
f 2 9 10
f 2 10 11
f 2 11 3
f 2 8 12
f 2 12 13
f 2 13 14
f 2 14 15
f 2 15 16
f 2 16 17
f 2 17 18
f 2 18 9
f 3 11 10
f 3 10 19
f 3 19 4
f 4 19 21
f 4 21 20
f 4 20 6
f 4 6 5
f 6 20 7
f 7 20 21
f 7 21 22
f 7 22 15
f 7 15 14
f 7 14 13
f 7 13 8
f 8 13 12
f 9 19 10
f 9 18 21
f 9 21 19
f 15 22 16
f 16 22 21
f 16 21 17
f 17 21 18

