# https://github.com/mikedh/trimesh
v -0.03969261 0.00494015 0.00399712
v -0.03895874 -0.00069103 0.00399712
v -0.03446316 -0.01467220 0.02439065
v -0.03859666 0.01320215 0.02047732
v -0.03583371 0.02977894 0.00399712
v -0.02636139 -0.05455680 0.00399712
v -0.03413996 -0.01389791 0.02571281
v -0.03141345 -0.01985465 0.02571281
v -0.03581670 0.01756631 0.02571281
v -0.03187759 0.02977894 0.02571281
v -0.03389210 0.02977894 0.01802644
v -0.03468186 0.02977894 0.01501014
v -0.01486972 0.02977894 0.00399712
v -0.02359358 -0.05836665 0.00399712
v -0.02381228 -0.03398539 0.02571281
v -0.01486972 0.02977894 0.02571281
v -0.01486972 -0.05822587 0.00399712
v -0.01825720 -0.06009120 0.00399712
v -0.01848562 -0.05775074 0.00803161
v -0.01486972 -0.05081735 0.02010321
v -0.01486972 -0.04176346 0.02571281
v -0.01486972 -0.05311381 0.01591779
v -0.01644925 -0.05909694 0.00399712
f 1 2 3
f 1 3 4
f 1 4 5
f 1 5 13
f 1 13 17
f 1 17 23
f 1 23 18
f 1 18 14
f 1 14 6
f 1 6 2
f 2 6 3
f 3 7 4
f 3 6 8
f 3 8 7
f 4 7 9
f 4 9 10
f 4 10 11
f 4 11 12
f 4 12 5
f 5 12 11
f 5 11 10
f 5 10 16
f 5 16 13
f 6 14 15
f 6 15 8
f 7 8 15
f 7 15 21
f 7 21 16
f 7 16 10
f 7 10 9
f 13 16 21
f 13 21 20
f 13 20 22
f 13 22 17
f 14 18 19
f 14 19 20
f 14 20 15
f 15 20 21
f 17 22 23
f 18 23 22
f 18 22 20
f 18 20 19

