# https://github.com/mikedh/trimesh
v -0.01486729 -0.06036629 -0.00084802
v 0.02623078 -0.09491091 -0.00084802
v -0.01486729 -0.06015049 0.00086533
v -0.01486729 0.07396395 -0.00084802
v 0.03705411 -0.08563188 -0.00084802
v 0.03904358 -0.08651302 0.00222509
v 0.03904358 -0.08039893 0.02542682
v 0.03904358 -0.08030902 0.02571281
v 0.03832062 -0.08003928 0.02571281
v 0.01150239 -0.06741547 0.02571281
v -0.00021278 -0.06950146 0.00968947
v -0.01486729 -0.05310130 0.01591629
v -0.01486729 0.06919854 0.01172781
v -0.00077215 0.08879961 -0.00084802
v 0.03705411 0.08879961 -0.00084802
v 0.03904358 0.08878163 0.00222509
v 0.03904358 0.08878163 0.02571281
v -0.01131580 -0.04993636 0.02571281
v -0.01486729 -0.05079953 0.02009957
v -0.01381187 0.06948627 0.01386495
v -0.01486729 0.06348007 0.01993837
v -0.00007557 0.08879961 0.00009575
v 0.03705411 0.08879961 0.00222249
v 0.02492206 0.08878163 0.02571281
v -0.01486729 -0.04175426 0.02571281
v -0.01486729 0.05878661 0.02571281
v -0.00783291 0.06579983 0.02571281
v 0.00215136 0.08879961 0.00222249
f 1 2 3
f 1 3 12
f 1 12 19
f 1 19 25
f 1 25 26
f 1 26 21
f 1 21 13
f 1 13 4
f 1 4 14
f 1 14 15
f 1 15 5
f 1 5 2
f 2 5 6
f 2 6 7
f 2 7 8
f 2 8 9
f 2 9 10
f 2 10 11
f 2 11 3
f 3 11 12
f 4 13 14
f 5 15 16
f 5 16 6
f 6 16 17
f 6 17 8
f 6 8 7
f 8 17 24
f 8 24 27
f 8 27 26
f 8 26 25
f 8 25 18
f 8 18 10
f 8 10 9
f 10 18 11
f 11 18 19
f 11 19 12
f 13 20 14
f 13 21 20
f 14 22 28
f 14 28 23
f 14 23 15
f 14 20 22
f 15 23 17
f 15 17 16
f 17 23 28
f 17 28 24
f 18 25 19
f 20 21 26
f 20 26 27
f 20 27 22
f 22 24 28
f 22 27 24

