# https://github.com/mikedh/trimesh
v -0.00252807 0.11208049 -0.01581257
v -0.00252807 0.11298721 -0.01765218
v -0.02317753 0.10132933 -0.02733717
v -0.01477694 0.10201400 -0.01581257
v -0.00252807 -0.07544489 -0.01581257
v -0.00252807 0.06946445 -0.04234711
v -0.02186085 0.10084821 -0.03207146
v -0.02374449 0.10062616 -0.02760770
v -0.02374449 0.10012654 -0.02715682
v -0.02374449 0.07259172 -0.01581257
v -0.00993596 -0.07416808 -0.01581257
v -0.00252807 -0.07605555 -0.01606507
v -0.00252807 0.06685530 -0.04338865
v -0.00253015 0.06687381 -0.04339316
v -0.00253015 0.04907241 -0.05047204
v -0.00253015 0.04579709 -0.05162630
v -0.00253015 0.02150058 -0.05950326
v -0.02374449 0.09868318 -0.03247725
v -0.02374449 -0.05273978 -0.01581257
v -0.00501398 -0.07605555 -0.01624542
v -0.01816210 -0.06867223 -0.01581257
v -0.02161787 -0.07605555 -0.02087600
v -0.00921532 -0.07605555 -0.01655202
v -0.00252807 -0.07605555 -0.03958319
v -0.00253015 0.01507950 -0.06091903
v -0.00252807 -0.05899433 -0.04338865
v -0.00253015 -0.00586769 -0.06187490
v -0.02374449 0.03362108 -0.05150456
v -0.02374449 0.06628166 -0.04208560
v -0.02374449 -0.07605555 -0.02512333
v -0.00465262 -0.07605555 -0.04130557
v -0.00253015 -0.03808415 -0.05541373
v -0.00253015 -0.02759206 -0.05913803
v -0.00252807 -0.06948642 -0.04113423
v -0.02374449 0.00268143 -0.05831292
v -0.02374449 -0.03956452 -0.05531003
v -0.02374449 -0.00238882 -0.05853836
v -0.02374449 -0.07605555 -0.04332102
v -0.01737915 -0.07605555 -0.04265371
f 1 2 3
f 1 3 4
f 1 4 10
f 1 10 19
f 1 19 21
f 1 21 11
f 1 11 5
f 1 5 12
f 1 12 24
f 1 24 34
f 1 34 26
f 1 26 13
f 1 13 6
f 1 6 2
f 2 6 7
f 2 7 3
f 3 8 9
f 3 9 4
f 3 7 8
f 4 9 10
f 5 11 12
f 6 13 14
f 6 14 7
f 7 14 15
f 7 15 16
f 7 16 17
f 7 17 18
f 7 18 8
f 8 18 29
f 8 29 28
f 8 28 35
f 8 35 37
f 8 37 36
f 8 36 38
f 8 38 30
f 8 30 19
f 8 19 10
f 8 10 9
f 11 20 12
f 11 21 22
f 11 22 23
f 11 23 20
f 12 20 23
f 12 23 22
f 12 22 30
f 12 30 38
f 12 38 39
f 12 39 31
f 12 31 24
f 13 25 17
f 13 17 16
f 13 16 15
f 13 15 14
f 13 26 27
f 13 27 25
f 17 25 28
f 17 28 29
f 17 29 18
f 19 30 22
f 19 22 21
f 24 31 32
f 24 32 33
f 24 33 34
f 25 27 35
f 25 35 28
f 26 34 33
f 26 33 27
f 27 33 36
f 27 36 37
f 27 37 35
f 31 39 32
f 32 39 38
f 32 38 33
f 33 38 36

