# https://github.com/mikedh/trimesh
v 0.00207766 -0.07605824 -0.01581256
v 0.03632626 -0.08947904 -0.01581256
v 0.04387896 -0.07606136 -0.01581526
v 0.00207766 -0.07605824 -0.03584471
v 0.00029043 -0.07605824 -0.01581256
v 0.04117164 -0.10601093 -0.01581256
v 0.03120287 -0.07606136 -0.02678890
v -0.00464762 -0.07605824 -0.04130998
v -0.00921498 -0.07605824 -0.01654791
v 0.01354240 -0.10220503 -0.01581256
v 0.03218916 -0.10802969 -0.01581256
v 0.00207766 -0.10354148 -0.02692358
v 0.02877356 -0.09902197 -0.02545288
v -0.00747409 -0.08477488 -0.04153624
v -0.02374449 -0.07754491 -0.04331670
v -0.02374449 -0.07605824 -0.04332747
v -0.02161306 -0.07605824 -0.02087110
v -0.02342015 -0.07990482 -0.02351351
v 0.00122376 -0.10341315 -0.02723603
v 0.00207766 -0.10333178 -0.02644951
v 0.00207766 -0.10327857 -0.02718216
v -0.02374449 -0.08199243 -0.03929518
v -0.02374449 -0.07605824 -0.02511888
v -0.02374449 -0.07970138 -0.02411956
f 1 2 3
f 1 3 4
f 1 4 8
f 1 8 16
f 1 16 23
f 1 23 17
f 1 17 9
f 1 9 5
f 1 5 10
f 1 10 11
f 1 11 6
f 1 6 2
f 2 6 3
f 3 6 7
f 3 7 4
f 4 7 8
f 5 9 10
f 6 11 12
f 6 12 13
f 6 13 7
f 7 13 8
f 8 14 15
f 8 15 16
f 8 13 14
f 9 17 10
f 10 17 18
f 10 18 19
f 10 19 20
f 10 20 11
f 11 20 19
f 11 19 12
f 12 19 21
f 12 21 13
f 13 21 14
f 14 21 19
f 14 19 15
f 15 19 22
f 15 22 24
f 15 24 23
f 15 23 16
f 17 23 24
f 17 24 18
f 18 24 19
f 19 24 22

