# https://github.com/mikedh/trimesh
v 0.01535412 -0.07605554 -0.02992996
v 0.02794983 -0.07605554 -0.02787297
v 0.01535412 -0.07605554 -0.01580987
v 0.01535412 -0.06814730 -0.03731226
v 0.03121122 -0.07605554 -0.02678962
v 0.02681819 -0.05586394 -0.04689782
v 0.04735650 -0.06144428 -0.03493986
v 0.04388425 -0.07605554 -0.01580987
v 0.01535412 0.09260958 -0.01580987
v 0.01535412 -0.05985933 -0.04450714
v 0.04332194 -0.07605554 -0.01629898
v 0.06452097 -0.06535713 -0.01580987
v 0.01535412 -0.04566082 -0.05472809
v 0.01535412 -0.04351453 -0.05574287
v 0.04837569 -0.02820986 -0.05426184
v 0.07157794 -0.04623867 -0.02480120
v 0.04253471 0.08562589 -0.01580987
v 0.01535412 0.07197220 -0.04149480
v 0.07282908 -0.05586394 -0.01580987
v 0.01535412 -0.04085644 -0.05649253
v 0.02826613 -0.01325189 -0.06202354
v 0.04602102 0.01258610 -0.05937231
v 0.06998239 -0.00980132 -0.04281127
v 0.08699222 0.00343962 -0.01728176
v 0.07642082 -0.04174797 -0.01580987
v 0.04626703 0.08346309 -0.01580987
v 0.04303376 0.07814691 -0.02427552
v 0.01535412 0.06756406 -0.04462142
v 0.01535412 -0.01970726 -0.06125103
v 0.01535412 -0.00988387 -0.06250808
v 0.01535412 0.01668056 -0.06096762
v 0.01535412 0.02927761 -0.05798270
v 0.03258888 0.04459879 -0.05289966
v 0.06305897 0.04608469 -0.03686886
v 0.07240735 0.01857920 -0.03866530
v 0.08011097 0.00783125 -0.03072075
v 0.08715388 0.00362123 -0.01580987
v 0.08690788 0.00063294 -0.01580987
v 0.07687770 0.04002555 -0.02363557
v 0.08071545 0.03768115 -0.01580987
v 0.08710468 0.00599865 -0.01580987
v 0.06075350 0.07474587 -0.01580987
v 0.06518168 0.07121275 -0.01580987
v 0.06794402 0.06637535 -0.01580987
v 0.07781957 0.04605167 -0.01580987
f 1 2 5
f 1 5 11
f 1 11 8
f 1 8 3
f 1 3 9
f 1 9 18
f 1 18 28
f 1 28 32
f 1 32 31
f 1 31 30
f 1 30 29
f 1 29 20
f 1 20 14
f 1 14 13
f 1 13 10
f 1 10 4
f 1 4 2
f 2 4 6
f 2 6 7
f 2 7 5
f 3 8 12
f 3 12 19
f 3 19 25
f 3 25 38
f 3 38 37
f 3 37 41
f 3 41 40
f 3 40 45
f 3 45 44
f 3 44 43
f 3 43 42
f 3 42 26
f 3 26 17
f 3 17 9
f 4 10 6
f 5 7 12
f 5 12 11
f 6 10 13
f 6 13 14
f 6 14 15
f 6 15 7
f 7 15 16
f 7 16 12
f 8 11 12
f 9 17 18
f 12 16 19
f 14 20 21
f 14 21 15
f 15 21 22
f 15 22 23
f 15 23 16
f 16 23 24
f 16 24 25
f 16 25 19
f 17 26 27
f 17 27 18
f 18 27 28
f 20 29 21
f 21 29 30
f 21 30 31
f 21 31 22
f 22 31 32
f 22 32 33
f 22 33 34
f 22 34 35
f 22 35 23
f 23 35 36
f 23 36 24
f 24 37 38
f 24 38 25
f 24 36 39
f 24 39 40
f 24 40 41
f 24 41 37
f 26 42 27
f 27 42 43
f 27 43 34
f 27 34 33
f 27 33 28
f 28 33 32
f 34 39 35
f 34 43 39
f 35 39 36
f 39 43 44
f 39 44 45
f 39 45 40

