# https://github.com/mikedh/trimesh
v -0.01486729 -0.07086891 -0.01580987
v 0.01354923 -0.10218831 -0.01580987
v -0.01486729 -0.06033610 -0.00084915
v -0.01486729 0.07800869 -0.01580987
v 0.03220931 -0.10802437 -0.01580987
v 0.04927546 -0.11058200 -0.00950756
v 0.02789454 -0.10079324 -0.00250812
v 0.02624986 -0.09491068 -0.00084915
v 0.00216841 0.08877401 0.00221994
v -0.01486729 0.07393972 -0.00084915
v -0.01486729 0.07626484 -0.00700322
v -0.01477592 0.10200396 -0.01580987
v 0.04116370 -0.10600151 -0.01580987
v 0.07282898 -0.05582537 -0.01580987
v 0.06539744 -0.09209728 -0.00396060
v 0.06709289 -0.09207403 -0.00084915
v 0.05924510 -0.10309510 -0.00084915
v 0.05145822 -0.10535048 -0.00084915
v 0.06051414 0.08877401 0.00221994
v 0.01808734 0.09793499 0.00221994
v 0.02050361 0.12439489 0.00154400
v -0.00629868 0.10267824 -0.00419003
v 0.01976249 0.12695252 -0.00103093
v -0.00004481 0.11451312 -0.01580987
v 0.07642292 -0.04171187 -0.01580987
v 0.07435184 -0.06756724 -0.00486068
v 0.06963098 -0.08054142 -0.00438416
v 0.07153963 -0.08054142 -0.00084915
v 0.08447376 -0.03427148 -0.00084915
v 0.08603723 -0.02787739 -0.00084915
v 0.08884944 0.00555787 -0.00084915
v 0.08828090 0.03204102 -0.00084915
v 0.08805756 0.03318033 -0.00084915
v 0.07963108 0.05754761 -0.00084915
v 0.07564119 0.06573204 -0.00084915
v 0.06540759 0.07384672 -0.01358791
v 0.05991515 0.08807647 -0.00084915
v 0.05859534 0.09149440 0.00221994
v 0.07429092 -0.07333354 -0.00084915
v 0.08130622 -0.04673414 -0.00084915
v 0.04803687 0.09793499 0.00221994
v 0.02402649 0.12534818 0.00154400
v 0.06518424 0.07119608 -0.01580987
v 0.06074765 0.07473027 -0.01580987
v 0.08690018 0.00065186 -0.01580987
v 0.08715399 0.00365127 -0.01580987
v 0.08708292 0.00599964 -0.01580987
v 0.08071738 0.03766781 -0.01580987
v 0.07782396 0.04603825 -0.01580987
v 0.06793553 0.06638307 -0.01580987
f 1 2 3
f 1 3 10
f 1 10 11
f 1 11 4
f 1 4 12
f 1 12 24
f 1 24 44
f 1 44 43
f 1 43 50
f 1 50 49
f 1 49 48
f 1 48 47
f 1 47 46
f 1 46 45
f 1 45 25
f 1 25 14
f 1 14 13
f 1 13 5
f 1 5 2
f 2 5 6
f 2 6 7
f 2 7 3
f 3 7 8
f 3 8 9
f 3 9 10
f 4 11 12
f 5 13 6
f 6 13 14
f 6 14 15
f 6 15 16
f 6 16 17
f 6 17 18
f 6 18 7
f 7 18 8
f 8 18 9
f 9 19 38
f 9 38 41
f 9 41 20
f 9 20 21
f 9 21 10
f 9 18 19
f 10 21 22
f 10 22 12
f 10 12 11
f 12 22 23
f 12 23 24
f 14 25 26
f 14 26 27
f 14 27 15
f 15 27 16
f 16 27 28
f 16 28 19
f 16 19 17
f 17 19 18
f 19 29 30
f 19 30 31
f 19 31 32
f 19 32 33
f 19 33 34
f 19 34 35
f 19 35 36
f 19 36 37
f 19 37 38
f 19 28 39
f 19 39 40
f 19 40 29
f 20 41 42
f 20 42 21
f 21 42 23
f 21 23 22
f 23 42 36
f 23 36 43
f 23 43 44
f 23 44 24
f 25 40 26
f 25 45 29
f 25 29 40
f 26 39 28
f 26 28 27
f 26 40 39
f 29 45 30
f 30 45 46
f 30 46 31
f 31 46 32
f 32 46 47
f 32 47 33
f 33 47 48
f 33 48 49
f 33 49 34
f 34 49 36
f 34 36 35
f 36 49 50
f 36 50 43
f 36 42 37
f 37 42 38
f 38 42 41

