# https://github.com/mikedh/trimesh
v 0.03706429 -0.08562881 -0.00084802
v 0.05147517 -0.10535606 -0.00084802
v 0.03706429 -0.08549578 -0.00036184
v 0.03706429 0.08879961 -0.00084802
v 0.05926041 -0.10309446 -0.00084802
v 0.06280055 -0.10045276 0.00222509
v 0.07415659 -0.09193849 0.01208660
v 0.05456577 -0.09796310 0.01138462
v 0.04128385 -0.08161874 0.02571281
v 0.03904636 -0.08030740 0.02571281
v 0.03706429 -0.08475458 0.00220689
v 0.03706429 0.08879961 0.00222249
v 0.05876489 0.08879961 -0.00084802
v 0.06280055 -0.10045276 0.00222249
v 0.06710185 -0.09207153 -0.00084802
v 0.07314001 -0.07914809 0.02571281
v 0.06544161 -0.08332920 0.02571281
v 0.05603699 -0.08595190 0.02571281
v 0.07430473 -0.07335154 -0.00084802
v 0.08130839 -0.04674446 -0.00084802
v 0.08590087 -0.03296580 0.00180130
v 0.08583446 -0.03355496 0.00222509
v 0.08288690 -0.06225259 0.02571281
v 0.08102743 -0.07048178 0.02571281
v 0.03706429 -0.08473557 0.00222249
v 0.03904636 0.08879961 0.02571281
v 0.05992962 0.08809643 -0.00084802
v 0.05965887 0.08879961 -0.00022144
v 0.08447562 -0.03429615 -0.00084802
v 0.08588044 -0.03315585 0.00222509
v 0.08584979 -0.03347893 0.00222509
v 0.08584979 -0.03347893 0.00222249
v 0.08605412 -0.02791045 -0.00084802
v 0.08925200 0.00599457 0.00272167
v 0.08455735 -0.04330455 0.02571281
v 0.05896412 0.08879961 0.02571281
v 0.07564315 0.06576548 -0.00084802
v 0.06053241 0.08879961 0.00222249
v 0.08884843 0.00553845 -0.00084802
v 0.08829672 0.03197449 -0.00084802
v 0.08833759 0.03303877 -0.00028904
v 0.08653943 0.00719189 0.02313368
v 0.08517547 -0.03610163 0.02571281
v 0.06317858 0.08879961 0.01418994
v 0.07094850 0.07543906 0.02571281
v 0.07399312 0.07395666 0.02179472
v 0.06254003 0.08879961 0.00785132
v 0.07811052 0.06380796 0.00222249
v 0.07962772 0.05755530 -0.00084802
v 0.08829162 0.03206951 -0.00084802
v 0.08785740 0.03241160 0.00222249
v 0.08806173 0.03320982 -0.00084802
v 0.08044507 0.05521767 -0.00084802
v 0.08038887 0.05880963 0.00222249
v 0.08400564 0.04835685 0.00222509
v 0.08033779 0.06204049 0.00499661
v 0.08453692 0.04681744 0.00222249
v 0.08453692 0.04681744 0.00222509
v 0.08337220 0.02648203 0.02571281
v 0.08507331 0.01378665 0.02571281
v 0.08544111 0.00607059 0.02571281
v 0.08577827 -0.01040679 0.02571281
v 0.07314512 0.06888231 0.02571281
v 0.07795726 0.05134064 0.02571281
v 0.08000064 0.05991192 0.00222249
f 1 2 3
f 1 3 11
f 1 11 25
f 1 25 12
f 1 12 4
f 1 4 13
f 1 13 27
f 1 27 37
f 1 37 49
f 1 49 53
f 1 53 52
f 1 52 50
f 1 50 40
f 1 40 39
f 1 39 33
f 1 33 29
f 1 29 20
f 1 20 19
f 1 19 15
f 1 15 5
f 1 5 2
f 2 5 6
f 2 6 7
f 2 7 8
f 2 8 9
f 2 9 10
f 2 10 11
f 2 11 3
f 4 12 26
f 4 26 36
f 4 36 44
f 4 44 47
f 4 47 38
f 4 38 28
f 4 28 13
f 5 14 6
f 5 15 14
f 6 14 7
f 7 16 17
f 7 17 18
f 7 18 8
f 7 14 15
f 7 15 19
f 7 19 20
f 7 20 21
f 7 21 22
f 7 22 23
f 7 23 24
f 7 24 16
f 8 18 9
f 9 18 17
f 9 17 16
f 9 16 24
f 9 24 23
f 9 23 35
f 9 35 43
f 9 43 62
f 9 62 61
f 9 61 60
f 9 60 59
f 9 59 64
f 9 64 63
f 9 63 45
f 9 45 36
f 9 36 26
f 9 26 10
f 10 25 11
f 10 26 12
f 10 12 25
f 13 28 27
f 20 29 21
f 21 30 31
f 21 31 32
f 21 32 22
f 21 29 33
f 21 33 34
f 21 34 30
f 22 32 23
f 23 32 31
f 23 31 30
f 23 30 35
f 27 28 37
f 28 38 37
f 30 34 35
f 33 39 34
f 34 39 40
f 34 40 41
f 34 41 42
f 34 42 43
f 34 43 35
f 36 45 46
f 36 46 44
f 37 38 47
f 37 47 48
f 37 48 49
f 40 50 41
f 41 51 42
f 41 50 52
f 41 52 53
f 41 53 54
f 41 54 55
f 41 55 56
f 41 56 57
f 41 57 58
f 41 58 46
f 41 46 51
f 42 59 60
f 42 60 61
f 42 61 62
f 42 62 43
f 42 51 59
f 44 46 47
f 45 63 46
f 46 63 64
f 46 64 51
f 46 58 56
f 46 56 47
f 47 56 48
f 48 56 65
f 48 65 49
f 49 65 56
f 49 56 54
f 49 54 53
f 51 64 59
f 54 56 55
f 56 58 57

