# https://github.com/mikedh/trimesh
v -0.01486729 0.05879501 0.02571281
v -0.01486729 0.06349417 0.01994125
v -0.01587157 0.05779851 0.02571281
v -0.01486729 0.02979245 0.02571281
v -0.03297672 0.05278292 0.00613017
v -0.01486729 0.06922290 0.01172288
v -0.03008653 0.03533699 0.02571281
v -0.03187525 0.02979245 0.02571281
v -0.01486729 0.02979245 -0.01580987
v -0.02875134 0.06957238 -0.01580987
v -0.03850489 0.03881767 0.00167550
v -0.01486729 0.07628817 -0.00700215
v -0.03297903 0.02979245 0.02150608
v -0.01486729 0.07803560 -0.01580987
v -0.03850489 0.02979245 -0.01580987
v -0.03850489 0.03881767 -0.00965219
v -0.03850026 0.03268751 -0.01580987
v -0.03850489 0.03269224 -0.01580581
v -0.03850489 0.03386821 0.00004565
v -0.03468214 0.02979245 0.01500698
v -0.03850489 0.02979245 -0.00964000
v -0.03850489 0.03265918 -0.01580987
v -0.03850489 0.03019389 -0.00202317
v -0.03791713 0.02979245 -0.00158014
f 1 2 3
f 1 3 7
f 1 7 8
f 1 8 4
f 1 4 9
f 1 9 14
f 1 14 12
f 1 12 6
f 1 6 2
f 2 5 3
f 2 6 5
f 3 5 7
f 4 8 13
f 4 13 20
f 4 20 24
f 4 24 21
f 4 21 15
f 4 15 9
f 5 6 10
f 5 10 11
f 5 11 8
f 5 8 7
f 6 12 10
f 8 11 13
f 9 15 22
f 9 22 17
f 9 17 10
f 9 10 14
f 10 16 11
f 10 12 14
f 10 17 18
f 10 18 16
f 11 16 18
f 11 18 22
f 11 22 15
f 11 15 21
f 11 21 23
f 11 23 19
f 11 19 20
f 11 20 13
f 17 22 18
f 19 23 20
f 20 23 24
f 21 24 23

