# https://github.com/mikedh/trimesh
v -0.01779589 0.01389938 0.05149722
v -0.01068107 -0.02440559 0.05149722
v -0.00505318 0.03851928 0.07287965
v -0.01472692 0.02615644 0.05149722
v 0.01382748 -0.04738593 0.05149722
v 0.01335200 -0.05201373 0.05928081
v 0.00666078 0.04482630 0.07768000
v 0.01618756 0.05820726 0.05149722
v 0.00038452 0.04330574 0.05928081
v 0.00349672 0.04602954 0.05149722
v 0.03268219 -0.06216844 0.05149722
v 0.04870136 -0.05215918 0.05828127
v 0.04778499 -0.04787515 0.05928081
v 0.04043675 -0.01377487 0.06720279
v 0.04516556 0.04431064 0.06267668
v 0.04727493 0.05384391 0.05928081
v 0.05103550 0.07083454 0.05321182
v 0.04965230 0.07291044 0.05149722
v 0.02694192 0.06508285 0.05149722
v 0.05072428 0.00678578 0.06644929
v 0.05163201 -0.06007933 0.05149722
v 0.05627437 -0.05738198 0.05149722
v 0.06718434 -0.03880466 0.05450097
v 0.06009545 0.01676861 0.05928081
v 0.06453033 0.00857079 0.05826845
v 0.06710653 0.03025535 0.05149722
v 0.05763163 0.05856426 0.05149722
v 0.05220258 0.07172044 0.05149722
v 0.06282727 0.00833279 0.05928081
v 0.06805748 -0.04393491 0.05149722
v 0.07000261 -0.02911273 0.05149722
v 0.07052131 0.00423388 0.05149722
v 0.06896521 -0.04193834 0.05149722
v 0.06934559 -0.03965089 0.05149722
f 1 2 3
f 1 3 4
f 1 4 10
f 1 10 8
f 1 8 19
f 1 19 18
f 1 18 28
f 1 28 27
f 1 27 26
f 1 26 32
f 1 32 31
f 1 31 34
f 1 34 33
f 1 33 30
f 1 30 22
f 1 22 21
f 1 21 11
f 1 11 5
f 1 5 2
f 2 5 6
f 2 6 3
f 3 7 8
f 3 8 9
f 3 9 4
f 3 6 7
f 4 9 10
f 5 11 6
f 6 11 12
f 6 12 13
f 6 13 14
f 6 14 7
f 7 15 16
f 7 16 17
f 7 17 18
f 7 18 19
f 7 19 8
f 7 14 20
f 7 20 15
f 8 10 9
f 11 21 12
f 12 21 22
f 12 22 23
f 12 23 13
f 13 23 14
f 14 23 20
f 15 20 24
f 15 24 16
f 16 24 17
f 17 24 25
f 17 25 26
f 17 26 27
f 17 27 28
f 17 28 18
f 20 23 29
f 20 29 25
f 20 25 24
f 22 30 23
f 23 31 32
f 23 32 25
f 23 25 29
f 23 30 33
f 23 33 34
f 23 34 31
f 25 32 26

