# https://github.com/mikedh/trimesh
v 0.01849536 0.07470287 -0.00989819
v 0.01868715 0.07463759 -0.00989819
v 0.01849536 0.07472660 -0.01151436
v 0.01849536 0.02970811 -0.00989819
v 0.01866377 0.07466726 -0.01151436
v 0.01849536 0.07474441 -0.01285078
v 0.02247619 0.07328454 -0.00989819
v 0.01849536 0.02720972 -0.01527202
v 0.03044135 0.01448040 -0.01647359
v 0.03044135 0.01519253 -0.01529618
v 0.03044135 0.01545364 -0.01486748
v 0.03044135 0.01673548 -0.01358138
v 0.03044135 0.01699659 -0.01337609
v 0.03044135 0.02162544 -0.00989819
v 0.01850589 0.07478594 -0.01643132
v 0.01849536 0.07481562 -0.01849431
v 0.02358834 0.07288693 -0.00989819
v 0.02263173 0.07333202 -0.01808171
v 0.01849536 0.02707323 -0.01643937
v 0.03044135 0.01435578 -0.01755641
v 0.03044135 0.07030546 -0.00989819
v 0.01849536 0.07493430 -0.02792972
v 0.02524663 0.07228162 -0.00989819
v 0.02648976 0.07190182 -0.01479905
v 0.02652484 0.07191369 -0.01643937
v 0.02522909 0.07238250 -0.01643937
v 0.02665582 0.07195523 -0.02300471
v 0.01849536 0.02790405 -0.02784921
v 0.03044135 0.01431423 -0.01807970
v 0.03044135 0.07031140 -0.01011355
v 0.03035247 0.07034106 -0.00989819
v 0.01849536 0.07491650 -0.02836647
v 0.02753408 0.07168224 -0.02628738
v 0.02194759 0.07369995 -0.02792972
v 0.02280247 0.07339135 -0.02880523
v 0.02637398 0.07186028 -0.00989819
v 0.02645350 0.07188995 -0.01315671
v 0.02738205 0.07162290 -0.01808171
v 0.02741713 0.07163477 -0.01972405
v 0.02744754 0.07164664 -0.02136237
v 0.02747678 0.07165851 -0.02300471
v 0.01849536 0.02796933 -0.02815715
v 0.03044135 0.01575036 -0.02792972
v 0.03044135 0.07036480 -0.01315671
v 0.03015483 0.07047756 -0.01315671
v 0.03015483 0.07044789 -0.01151436
v 0.02853631 0.07103539 -0.00989819
v 0.01849536 0.07446548 -0.02944727
v 0.02194759 0.07354565 -0.02920173
v 0.02111845 0.07336762 -0.03039121
v 0.02851292 0.07134991 -0.02792972
v 0.02674236 0.07198490 -0.02792972
v 0.02652133 0.07190182 -0.02925405
v 0.02718325 0.07155169 -0.00989819
v 0.02723470 0.07156356 -0.01151436
v 0.02851292 0.07125497 -0.02136237
v 0.02851292 0.07132618 -0.02628738
v 0.01849536 0.02830759 -0.02949356
v 0.03044135 0.01597587 -0.02873076
v 0.03044135 0.07038854 -0.01479905
v 0.02851292 0.07110661 -0.01315671
v 0.01849536 0.07440614 -0.02953382
v 0.02002384 0.07342103 -0.03040933
v 0.01849536 0.07353972 -0.03041738
v 0.01849536 0.07362280 -0.03037109
v 0.01849536 0.07437647 -0.02957407
v 0.02944731 0.07013336 -0.03041335
v 0.03015483 0.07069119 -0.02792972
v 0.03044135 0.07053690 -0.02825174
v 0.03044135 0.07029359 -0.02936475
v 0.03005894 0.07035887 -0.02956401
v 0.01849536 0.02843221 -0.02974515
v 0.03044135 0.01642095 -0.02952979
v 0.03044135 0.07049536 -0.02300471
v 0.01849536 0.07270296 -0.03044153
v 0.02851292 0.06927288 -0.03045159
v 0.03044135 0.06970608 -0.03013561
v 0.03044135 0.06904143 -0.03042543
v 0.03005894 0.06917792 -0.03042946
v 0.03044135 0.07054284 -0.02674425
v 0.03044135 0.07055471 -0.02792972
v 0.01849536 0.02897818 -0.03041537
v 0.03044135 0.01658118 -0.02968879
v 0.01866377 0.07255460 -0.03044354
v 0.01849536 0.07255460 -0.03044354
v 0.02358834 0.07091671 -0.03044757
v 0.03044135 0.06883966 -0.03043147
v 0.03044135 0.06762904 -0.03045159
v 0.03015483 0.06762904 -0.03045361
v 0.02687100 0.06927288 -0.03045159
v 0.01849536 0.02907313 -0.03041939
v 0.03044135 0.01802918 -0.03042543
v 0.02918535 0.01904397 -0.03041335
v 0.03044135 0.01753069 -0.03032681
v 0.02971862 0.01795203 -0.03015976
v 0.03044135 0.01672954 -0.02980150
v 0.02194759 0.07091671 -0.03044757
v 0.01866377 0.06927288 -0.03044556
v 0.01849536 0.06780114 -0.03044556
v 0.03044135 0.06734419 -0.03045361
v 0.03044135 0.05285828 -0.03045562
v 0.02851292 0.06599114 -0.03045361
v 0.01849536 0.03661578 -0.03045361
v 0.01849536 0.02988614 -0.03044556
v 0.03044135 0.01821908 -0.03043147
v 0.03044135 0.01974423 -0.03045763
v 0.02030568 0.03151811 -0.03045562
v 0.01849536 0.03151811 -0.03045361
v 0.01849536 0.03004638 -0.03044958
v 0.01866377 0.02988021 -0.03044958
v 0.03044135 0.01844459 -0.03043549
v 0.02030568 0.02988021 -0.03045562
f 1 2 3
f 1 3 6
f 1 6 16
f 1 16 22
f 1 22 32
f 1 32 48
f 1 48 62
f 1 62 66
f 1 66 65
f 1 65 64
f 1 64 75
f 1 75 85
f 1 85 99
f 1 99 103
f 1 103 108
f 1 108 109
f 1 109 104
f 1 104 91
f 1 91 82
f 1 82 72
f 1 72 58
f 1 58 42
f 1 42 28
f 1 28 19
f 1 19 8
f 1 8 4
f 1 4 14
f 1 14 21
f 1 21 31
f 1 31 47
f 1 47 54
f 1 54 36
f 1 36 23
f 1 23 17
f 1 17 7
f 1 7 2
f 2 5 6
f 2 6 3
f 2 7 5
f 4 8 9
f 4 9 10
f 4 10 11
f 4 11 12
f 4 12 13
f 4 13 14
f 5 7 6
f 6 15 16
f 6 7 15
f 7 17 18
f 7 18 15
f 8 19 9
f 9 20 29
f 9 29 43
f 9 43 59
f 9 59 73
f 9 73 83
f 9 83 96
f 9 96 94
f 9 94 92
f 9 92 105
f 9 105 111
f 9 111 106
f 9 106 101
f 9 101 100
f 9 100 88
f 9 88 87
f 9 87 78
f 9 78 77
f 9 77 70
f 9 70 69
f 9 69 81
f 9 81 80
f 9 80 74
f 9 74 60
f 9 60 44
f 9 44 30
f 9 30 21
f 9 21 14
f 9 14 13
f 9 13 12
f 9 12 11
f 9 11 10
f 9 19 20
f 15 22 16
f 15 18 22
f 17 23 24
f 17 24 25
f 17 25 26
f 17 26 27
f 17 27 18
f 18 27 22
f 19 28 29
f 19 29 20
f 21 30 31
f 22 27 33
f 22 33 34
f 22 34 35
f 22 35 32
f 23 36 37
f 23 37 24
f 24 37 38
f 24 38 25
f 25 38 39
f 25 39 40
f 25 40 41
f 25 41 26
f 26 41 33
f 26 33 27
f 28 42 43
f 28 43 29
f 30 44 45
f 30 45 46
f 30 46 47
f 30 47 31
f 32 35 49
f 32 49 50
f 32 50 48
f 33 41 51
f 33 51 52
f 33 52 34
f 34 52 35
f 35 52 51
f 35 51 53
f 35 53 49
f 36 54 55
f 36 55 37
f 37 55 56
f 37 56 38
f 38 56 39
f 39 56 57
f 39 57 51
f 39 51 40
f 40 51 41
f 42 58 43
f 43 58 59
f 44 60 51
f 44 51 57
f 44 57 56
f 44 56 45
f 45 56 46
f 46 56 61
f 46 61 47
f 47 61 55
f 47 55 54
f 48 50 62
f 49 53 50
f 50 63 64
f 50 64 65
f 50 65 66
f 50 66 62
f 50 53 67
f 50 67 63
f 51 60 68
f 51 68 69
f 51 69 53
f 53 69 70
f 53 70 71
f 53 71 67
f 55 61 56
f 58 72 59
f 59 72 73
f 60 74 68
f 63 75 64
f 63 67 76
f 63 76 75
f 67 71 70
f 67 70 77
f 67 77 78
f 67 78 79
f 67 79 76
f 68 74 80
f 68 80 81
f 68 81 69
f 72 82 73
f 73 82 83
f 75 84 85
f 75 76 86
f 75 86 84
f 76 79 87
f 76 87 88
f 76 88 89
f 76 89 90
f 76 90 97
f 76 97 86
f 78 87 79
f 82 91 92
f 82 92 93
f 82 93 94
f 82 94 95
f 82 95 96
f 82 96 83
f 84 86 97
f 84 97 85
f 85 97 98
f 85 98 99
f 88 100 89
f 89 100 101
f 89 101 102
f 89 102 90
f 90 102 103
f 90 103 97
f 91 104 92
f 92 94 93
f 92 104 105
f 94 96 95
f 97 103 98
f 98 103 99
f 101 106 107
f 101 107 102
f 102 107 103
f 103 107 112
f 103 112 108
f 104 109 110
f 104 110 105
f 105 110 111
f 106 111 110
f 106 110 109
f 106 109 112
f 106 112 107
f 108 112 109

