# https://github.com/mikedh/trimesh
v 0.07447713 0.01838517 0.02520850
v 0.07447713 0.01674440 0.02497963
v 0.07694974 0.01261490 0.02378625
v 0.07698375 0.01346286 0.02381895
v 0.07698860 0.01465552 0.02382985
v 0.07581788 0.01838517 0.02448375
v 0.07447713 0.02002594 0.02512676
v 0.07283520 0.02167360 0.02512676
v 0.07283520 0.02002594 0.02515401
v 0.05314176 0.00525212 0.02355193
v 0.05314176 0.00361135 0.02348110
v 0.05314176 0.00197057 0.02340481
v 0.05314176 0.00032981 0.02331762
v 0.05314176 0.00013677 0.02330127
v 0.06443610 0.00013677 0.02318684
v 0.06463041 0.00013677 0.02318139
v 0.06607317 0.00013677 0.02308330
v 0.06627234 0.00013677 0.02306696
v 0.06791427 0.00013677 0.02284899
v 0.07756668 0.00013677 0.02152483
v 0.07776099 0.00013677 0.02149758
v 0.07860139 0.00598288 0.02215149
v 0.07861110 0.00689288 0.02216784
v 0.07690116 0.01573098 0.02295797
v 0.07669228 0.01674440 0.02295797
v 0.07632795 0.01838517 0.02295797
v 0.07557985 0.02002594 0.02438022
v 0.07860139 0.00783047 0.02216239
v 0.07453057 0.02161156 0.02452190
v 0.07041603 0.03077367 0.02382440
v 0.07063948 0.02987745 0.02399877
v 0.06894412 0.03278671 0.02391703
v 0.06713217 0.03570287 0.02380260
v 0.03180153 0.06762895 0.02299612
v 0.03044135 0.06762895 0.02308875
v 0.03044135 0.05778433 0.02325768
v 0.03044135 0.05613666 0.02327948
v 0.03044135 0.05478544 0.02329037
v 0.03044135 0.05449589 0.02329037
v 0.03044135 0.05285513 0.02328492
v 0.03044135 0.05121435 0.02326313
v 0.03044135 0.04985624 0.02324133
v 0.03044135 0.04957358 0.02323588
v 0.03044135 0.04793281 0.02320319
v 0.03044135 0.04464438 0.02312690
v 0.03044135 0.02823668 0.02272366
v 0.05314176 0.00689288 0.02359553
v 0.05149983 0.00032981 0.02323043
v 0.03044135 0.02495514 0.02263647
v 0.03044135 0.02359702 0.02259832
v 0.03044135 0.02331437 0.02258742
v 0.05149983 0.00013677 0.02321953
v 0.05294745 0.00013677 0.02329582
v 0.07933491 0.00013677 0.02093086
v 0.07999071 0.00013677 0.01981377
v 0.08006844 0.00013677 0.01967754
v 0.07864025 0.00798903 0.02131776
v 0.07966524 0.00361135 0.01967754
v 0.07781928 0.01182209 0.02131776
v 0.07691574 0.01580682 0.02131776
v 0.07632795 0.01838517 0.02131776
v 0.07587618 0.02002594 0.01967754
v 0.07587131 0.02002594 0.02131776
v 0.07586159 0.02002594 0.02295797
v 0.07539039 0.02102557 0.02406416
v 0.07398650 0.02331437 0.02423309
v 0.07990327 0.00197057 0.01967754
v 0.06548538 0.04059761 0.02221143
v 0.07208710 0.02755418 0.02387889
v 0.06396975 0.04236937 0.02233131
v 0.06295933 0.04295535 0.02260377
v 0.06082191 0.04580257 0.02237491
v 0.05921398 0.04748470 0.02234766
v 0.05758662 0.04914615 0.02230406
v 0.04757474 0.05874259 0.02222778
v 0.04277039 0.06207928 0.02229317
v 0.03342402 0.06767721 0.02262557
v 0.03180153 0.06881472 0.02253293
v 0.03044135 0.06904222 0.02263102
v 0.05130552 0.00013677 0.02320319
v 0.03044135 0.02164603 0.02241305
v 0.04000632 0.00013677 0.02177004
v 0.04174054 0.00013677 0.02204250
v 0.08005872 0.00013677 0.01827165
v 0.07990813 0.00197057 0.01803188
v 0.07966524 0.00361135 0.01803188
v 0.07930577 0.00525212 0.01967754
v 0.07930577 0.00525212 0.01803188
v 0.07742094 0.01346286 0.00489927
v 0.07776099 0.01182209 -0.01479421
v 0.07669714 0.01674440 0.01803188
v 0.07780957 0.01182209 0.01475145
v 0.07864996 0.00800282 -0.00166704
v 0.07690116 0.01573788 0.00325905
v 0.07689631 0.01572409 -0.00002683
v 0.07632309 0.01838517 0.01967754
v 0.07373875 0.02771963 -0.02900031
v 0.07373875 0.02771963 -0.02851534
v 0.07202881 0.03235929 -0.02873330
v 0.07544383 0.02112898 0.02295797
v 0.06599059 0.03972207 0.02131776
v 0.06550967 0.04063208 0.02131776
v 0.06487816 0.04145246 0.02131776
v 0.06405719 0.04247277 0.02131776
v 0.07212597 0.02763690 0.02295797
v 0.07433140 0.02331437 0.02295797
v 0.06239583 0.04409286 0.02236401
v 0.06334310 0.04329316 0.02131776
v 0.06252213 0.04423074 0.02131776
v 0.06097736 0.04598871 0.02131776
v 0.06023897 0.04680909 0.02131776
v 0.05564351 0.05208300 0.02072379
v 0.05538605 0.05188307 0.02181909
v 0.05595441 0.05078693 0.02226047
v 0.05372469 0.05343422 0.02180819
v 0.05402102 0.05373066 0.02071289
v 0.04778848 0.05891494 0.02131776
v 0.04578222 0.06025927 0.02215694
v 0.03784460 0.06536082 0.02233131
v 0.03286538 0.06859410 0.02233676
v 0.03044135 0.06968336 0.02130686
v 0.03044135 0.02106693 0.02231496
v 0.03987030 0.00013677 0.02168830
v 0.08003929 0.00032981 0.01803188
v 0.07928633 0.00013677 -0.02609043
v 0.07884428 0.00361135 -0.02628661
v 0.07801359 0.01018132 -0.02628661
v 0.07861596 0.00789251 -0.00986811
v 0.07863539 0.00796145 -0.00822790
v 0.07864511 0.00798214 -0.00658768
v 0.07928633 0.00525212 0.00982536
v 0.07929120 0.00525212 0.01146557
v 0.07929605 0.00525212 0.01311124
v 0.07813504 0.01018132 -0.01315399
v 0.07775127 0.01182209 -0.01808008
v 0.07539039 0.02123928 -0.02891313
v 0.07774156 0.01182209 -0.02136051
v 0.07388934 0.02659591 -0.02926733
v 0.07206281 0.03082193 -0.03041166
v 0.07223283 0.03142860 -0.02944170
v 0.07202881 0.03235929 -0.02880959
v 0.06408634 0.04254861 0.00982536
v 0.06491216 0.04148693 0.01475145
v 0.06490730 0.04148693 0.01639166
v 0.06553396 0.04066655 0.01639166
v 0.06552424 0.04065965 0.01803188
v 0.06551939 0.04064587 0.01967754
v 0.06490244 0.04148004 0.01803188
v 0.06408148 0.04250035 0.01803188
v 0.06052072 0.04710554 -0.00941583
v 0.05901482 0.04890487 -0.01315399
v 0.06107937 0.04610591 0.00982536
v 0.05817927 0.04958737 0.00161884
v 0.06102594 0.04604386 0.01639166
v 0.05720772 0.05035950 0.01967754
v 0.05567266 0.05211747 0.01967754
v 0.05488084 0.05293785 0.01967754
v 0.05405988 0.05376513 0.01967754
v 0.05052341 0.05682606 0.01967754
v 0.04970245 0.05753615 0.01967754
v 0.04874546 0.05835653 0.01967754
v 0.04792450 0.05902525 0.01967754
v 0.04670034 0.05973533 0.02131776
v 0.04587937 0.06032821 0.02131776
v 0.04086614 0.06355460 0.02216784
v 0.03590635 0.06681545 0.02214059
v 0.03299654 0.06866994 0.02131776
v 0.03180153 0.06919388 0.02131776
v 0.03044135 0.06975229 0.01967754
v 0.03044135 0.02059814 0.02131776
v 0.03837410 0.00013677 0.01967754
v 0.03880159 0.00013677 0.02104530
v 0.07928148 0.00013677 -0.02628661
v 0.07921347 0.00032981 -0.02792682
v 0.07779014 0.01018132 -0.02792682
v 0.07748896 0.01182209 -0.02792682
v 0.07769784 0.01182209 -0.02628661
v 0.07803302 0.01018132 -0.02464639
v 0.07863054 0.00481779 -0.02763256
v 0.07858195 0.00441794 -0.02872785
v 0.07811075 0.01018132 -0.01808008
v 0.07812532 0.01018132 -0.01643442
v 0.07691574 0.01413847 -0.02841180
v 0.07700804 0.01304233 -0.02884229
v 0.07552155 0.02002594 -0.02909295
v 0.07773184 0.01182209 -0.02300073
v 0.07771727 0.01182209 -0.02464639
v 0.07210168 0.02987745 -0.03042256
v 0.07119327 0.02987745 -0.03045526
v 0.07110583 0.03142860 -0.03042801
v 0.06777825 0.03629576 -0.03042256
v 0.06875952 0.03565462 -0.03040621
v 0.07053261 0.03417930 -0.02922373
v 0.07568186 0.01838517 -0.02925643
v 0.07726064 0.01018132 -0.02911475
v 0.07740152 0.00853366 -0.02921284
v 0.07456943 0.01838517 -0.03007381
v 0.07364645 0.02083253 -0.03038987
v 0.07370475 0.01974328 -0.03040621
v 0.06551939 0.04063208 -0.02901121
v 0.05905367 0.04897380 -0.02792682
v 0.05905853 0.04897380 -0.02464639
v 0.05906339 0.04897380 -0.02136051
v 0.06052558 0.04711243 -0.01258727
v 0.06408634 0.04254861 0.00818514
v 0.06409119 0.04254171 0.01146557
v 0.06052558 0.04711243 -0.01050567
v 0.06409119 0.04253482 0.01311124
v 0.06409119 0.04252793 0.01475145
v 0.05905853 0.04896002 -0.01972030
v 0.05836387 0.04979419 -0.02136051
v 0.05903910 0.04893244 -0.01643442
v 0.05833958 0.04976661 -0.01808008
v 0.05746518 0.05064905 -0.01151378
v 0.05745061 0.05063526 -0.00986811
v 0.05661507 0.05131776 0.00489927
v 0.05654706 0.05124193 0.01311124
v 0.05568723 0.05213125 0.01803188
v 0.05493914 0.05297921 0.01475145
v 0.05492456 0.05296543 0.01639166
v 0.05490513 0.05295164 0.01803188
v 0.05410360 0.05380650 0.01639166
v 0.05408417 0.05378581 0.01803188
v 0.05245195 0.05543348 0.00982536
v 0.05237423 0.05536454 0.01475145
v 0.05068858 0.05697084 0.00930768
v 0.05070801 0.05698462 0.00818514
v 0.04876976 0.05837721 0.01803188
v 0.04880862 0.05841857 0.01475145
v 0.04794879 0.05903903 0.01803188
v 0.04746787 0.06030064 -0.02792682
v 0.04683150 0.05985942 0.01803188
v 0.04680235 0.05984563 0.01967754
v 0.04598139 0.06039025 0.01967754
v 0.04091958 0.06358907 0.02131776
v 0.03887445 0.06496787 0.01967754
v 0.03684390 0.06636045 0.01639166
v 0.03508053 0.06736697 0.02131776
v 0.03381750 0.06817357 0.02131776
v 0.03389523 0.06823562 0.01639166
v 0.03391952 0.06825630 0.01475145
v 0.03393895 0.06827009 0.01311124
v 0.03309855 0.06871130 0.01475145
v 0.03106314 0.07013836 -0.01479421
v 0.03104371 0.07012457 -0.01315399
v 0.03099513 0.07010389 -0.01029860
v 0.03180153 0.06922835 0.01967754
v 0.03044135 0.06978676 0.01787930
v 0.03044135 0.01448317 -0.01646712
v 0.03406039 0.00013677 -0.02957248
v 0.07923776 0.00013677 -0.02792682
v 0.07866454 0.00332180 -0.02885863
v 0.07711490 0.01182209 -0.02896762
v 0.07375332 0.01838517 -0.03041711
v 0.04657404 0.05778433 -0.03046071
v 0.06627234 0.03644053 -0.03045526
v 0.06791427 0.03480665 -0.03044981
v 0.07283520 0.01838517 -0.03044981
v 0.07283520 0.01674440 -0.03045526
v 0.06121539 0.04451340 -0.03042801
v 0.06220152 0.04387915 -0.03040621
v 0.05714457 0.05029745 -0.03037897
v 0.05899538 0.04889797 -0.02911475
v 0.07876169 0.00197057 -0.02897852
v 0.07887828 0.00032981 -0.02909295
v 0.07889285 0.00013677 -0.02910385
v 0.07776099 0.00032981 -0.02974686
v 0.07776099 0.00013677 -0.02975776
v 0.07611906 0.00689288 -0.03007381
v 0.07596361 0.00516249 -0.03018824
v 0.07531267 0.00455582 -0.03039531
v 0.07535639 0.00361135 -0.03040621
v 0.05840759 0.04979419 -0.02792682
v 0.05840273 0.04979419 -0.02628661
v 0.05839302 0.04979419 -0.02464639
v 0.05837845 0.04979419 -0.02300073
v 0.05758177 0.05075935 -0.02628661
v 0.05755748 0.05073867 -0.02300073
v 0.05579410 0.05224156 0.00489927
v 0.05411817 0.05382028 0.01475145
v 0.05251511 0.05550242 0.00489927
v 0.05157269 0.05632280 0.00489927
v 0.05073230 0.05700530 0.00653948
v 0.04921181 0.05874949 -0.01972030
v 0.04608340 0.06047298 0.01311124
v 0.04921667 0.05876327 -0.02136051
v 0.04922153 0.05877017 -0.02300073
v 0.04828884 0.05959745 -0.02792682
v 0.04745815 0.06029374 -0.02892403
v 0.04657404 0.06091420 -0.02792682
v 0.04164825 0.06423710 -0.02464639
v 0.04240120 0.06347876 -0.01151378
v 0.04425202 0.06198966 -0.00002683
v 0.04423259 0.06196898 0.00161884
v 0.04601054 0.06041094 0.01803188
v 0.04237206 0.06346497 -0.00986811
v 0.04230891 0.06342361 -0.00658768
v 0.04155109 0.06399581 -0.00986811
v 0.04345049 0.06231368 0.00817969
v 0.04192028 0.06317543 0.01311124
v 0.03703821 0.06648454 0.00653948
v 0.04018120 0.06475416 -0.00494202
v 0.03508053 0.06740833 0.01967754
v 0.03508053 0.06753243 0.01475145
v 0.03628040 0.06704985 0.00325905
v 0.03726167 0.06665000 -0.00658768
v 0.03395352 0.06828387 0.01146557
v 0.03728110 0.06666379 -0.00822790
v 0.03316656 0.06875267 0.00818514
v 0.03115544 0.07019351 -0.02464639
v 0.03044135 0.07055889 -0.02792682
v 0.03044135 0.07049685 -0.02300073
v 0.03044135 0.07039344 -0.01530643
v 0.03044135 0.07038654 -0.01479421
v 0.03044135 0.07034518 -0.01204235
v 0.03044135 0.07030381 -0.00968284
v 0.03074739 0.07000737 -0.00002683
v 0.03054336 0.06993154 0.00818514
v 0.03044135 0.07000048 0.00653948
v 0.03044135 0.01435908 -0.01755151
v 0.03418184 0.00013677 -0.03042256
v 0.03044135 0.01431082 -0.01807464
v 0.03044135 0.01575166 -0.02792682
v 0.03044135 0.01597227 -0.02872785
v 0.03044135 0.01642038 -0.02952889
v 0.07894629 0.00013677 -0.02895672
v 0.07540497 0.00197057 -0.03041711
v 0.07378247 0.01674440 -0.03042256
v 0.03044135 0.05942510 -0.03045526
v 0.03180153 0.06598818 -0.03045526
v 0.03343860 0.06598818 -0.03045526
v 0.03672246 0.06434741 -0.03045526
v 0.04493211 0.05942510 -0.03045526
v 0.04648174 0.05932858 -0.03043346
v 0.04815282 0.05771538 -0.03043346
v 0.05652763 0.04967699 -0.03042801
v 0.05970462 0.04464438 -0.03045526
v 0.07303437 0.00013677 -0.03045526
v 0.03508053 0.00013677 -0.03045526
v 0.03044135 0.01974328 -0.03045526
v 0.06134655 0.04300361 -0.03044981
v 0.07447713 0.00197057 -0.03044981
v 0.07459372 0.00013677 -0.03044981
v 0.05605157 0.05073867 -0.03041166
v 0.04756502 0.05872191 -0.03041166
v 0.04586966 0.06029374 -0.03041166
v 0.04865803 0.05821865 -0.03018824
v 0.04916323 0.05872191 -0.02909295
v 0.05250053 0.05548863 -0.02919104
v 0.05416675 0.05387543 -0.02922918
v 0.05583297 0.05225535 -0.02925643
v 0.05747490 0.05064215 -0.02928367
v 0.05758662 0.05076625 -0.02792682
v 0.07790672 0.00013677 -0.02967602
v 0.07642510 0.00013677 -0.03017735
v 0.07622593 0.00197057 -0.03019914
v 0.07617735 0.00361135 -0.03017190
v 0.07625022 0.00013677 -0.03022639
v 0.05677052 0.05157973 -0.02628661
v 0.05676080 0.05154527 -0.02136051
v 0.05587183 0.05231050 -0.00822790
v 0.05582325 0.05226913 -0.00002683
v 0.05498771 0.05306194 0.00489927
v 0.05413275 0.05384786 0.01146557
v 0.05253939 0.05552999 0.00161884
v 0.05252968 0.05551620 0.00325905
v 0.05088775 0.05714319 -0.00822790
v 0.05075173 0.05701910 0.00489927
v 0.04922153 0.05877706 -0.02464639
v 0.05089261 0.05715008 -0.00986811
v 0.05171357 0.05638485 -0.00986811
v 0.04922153 0.05877706 -0.02792682
v 0.04648174 0.06054882 -0.02951254
v 0.04442690 0.06207239 -0.02920738
v 0.04240606 0.06348566 -0.02849899
v 0.04316873 0.06310649 -0.02794317
v 0.04254208 0.06357528 -0.02740369
v 0.04542760 0.06167943 -0.02792682
v 0.04696752 0.05981116 -0.03001932
v 0.04054553 0.06498854 -0.02464639
v 0.04052124 0.06497476 -0.02300073
v 0.04043866 0.06491961 -0.01808008
v 0.04037551 0.06487824 -0.01479421
v 0.03710136 0.06652591 0.00325905
v 0.03958369 0.06542287 -0.01643442
v 0.03964684 0.06545734 -0.01972030
v 0.03731511 0.06668447 -0.01151378
v 0.03400210 0.06831145 0.00653948
v 0.03972457 0.06548492 -0.02464639
v 0.03191326 0.06971093 -0.01808008
v 0.03647957 0.06712568 -0.00986811
v 0.03658644 0.06718773 -0.02136051
v 0.03431300 0.06848380 -0.02628661
v 0.03199098 0.06975229 -0.02628661
v 0.03118459 0.07020730 -0.02792682
v 0.03112144 0.07017283 -0.02901121
v 0.03044135 0.07053821 -0.02824832
v 0.03428871 0.00013677 -0.03042801
v 0.03044135 0.01658584 -0.02968692
v 0.03044135 0.01673061 -0.02980135
v 0.03044135 0.01753031 -0.03032448
v 0.03044135 0.01803358 -0.03042256
v 0.03044135 0.01821971 -0.03042801
v 0.03044135 0.01844721 -0.03043346
v 0.07552641 0.00013677 -0.03040076
v 0.07542440 0.00032981 -0.03042256
v 0.03044135 0.06762895 -0.03044981
v 0.03180153 0.06762895 -0.03044436
v 0.03328801 0.06750486 -0.03042256
v 0.03764058 0.06520915 -0.03041166
v 0.07542926 0.00013677 -0.03042256
v 0.03264192 0.06846312 -0.03040076
v 0.04085157 0.06354081 -0.03039531
v 0.05090718 0.05717766 -0.02792682
v 0.05427362 0.05397195 -0.02792682
v 0.05677052 0.05158663 -0.02792682
v 0.05591555 0.05235186 -0.01643442
v 0.05593984 0.05236565 -0.02136051
v 0.05500229 0.05308263 0.00161884
v 0.05416675 0.05388233 0.00489927
v 0.05337493 0.05473718 -0.00166704
v 0.05335064 0.05470961 0.00325905
v 0.05255397 0.05555067 -0.00166704
v 0.05256368 0.05555757 -0.00330181
v 0.05004249 0.05799804 -0.02464639
v 0.05256854 0.05555757 -0.00494202
v 0.05257825 0.05556446 -0.01151378
v 0.03421098 0.06842176 -0.02842270
v 0.04046295 0.06494718 -0.02628661
v 0.04164825 0.06420263 -0.02628661
v 0.04258094 0.06360285 -0.02628661
v 0.03836439 0.06622946 -0.02300073
v 0.03744141 0.06675341 -0.02464639
v 0.03964198 0.06543665 -0.02628661
v 0.03836439 0.06618121 -0.02628661
v 0.03741712 0.06673272 -0.02628661
v 0.03659615 0.06720841 -0.02628661
v 0.03430328 0.06847691 -0.02732741
v 0.03513396 0.06802879 -0.02628661
v 0.03836439 0.06624325 -0.02464639
v 0.03200555 0.06975229 -0.02792682
v 0.03044135 0.07029002 -0.02936541
v 0.03357462 0.06884918 -0.02789957
v 0.03044135 0.06883539 -0.03042801
v 0.03044135 0.06904222 -0.03042256
v 0.03044135 0.06970404 -0.03013375
v 0.05340893 0.05479233 -0.02464639
v 0.05426390 0.05396506 -0.01643442
v 0.05508972 0.05318604 -0.02300073
v 0.05425905 0.05396506 -0.01479421
v 0.05508001 0.05316535 -0.01479421
v 0.05338465 0.05474408 -0.00330181
v 0.05505572 0.05313088 -0.00822790
v 0.05504601 0.05312399 -0.00658768
v 0.05508487 0.05317225 -0.01643442
v 0.05421047 0.05392369 -0.00330181
f 1 2 3
f 1 3 4
f 1 4 5
f 1 5 6
f 1 6 7
f 1 7 8
f 1 8 9
f 1 9 10
f 1 10 11
f 1 11 12
f 1 12 13
f 1 13 14
f 1 14 15
f 1 15 16
f 1 16 2
f 2 16 17
f 2 17 18
f 2 18 19
f 2 19 20
f 2 20 21
f 2 21 3
f 3 21 22
f 3 22 4
f 4 22 23
f 4 23 5
f 5 24 25
f 5 25 26
f 5 26 27
f 5 27 6
f 5 23 28
f 5 28 24
f 6 27 7
f 7 27 29
f 7 29 30
f 7 30 31
f 7 31 32
f 7 32 33
f 7 33 8
f 8 33 34
f 8 34 35
f 8 35 36
f 8 36 9
f 9 36 37
f 9 37 38
f 9 38 39
f 9 39 40
f 9 40 41
f 9 41 42
f 9 42 43
f 9 43 44
f 9 44 45
f 9 45 46
f 9 46 47
f 9 47 10
f 10 48 11
f 10 47 46
f 10 46 49
f 10 49 50
f 10 50 51
f 10 51 48
f 11 48 12
f 12 48 13
f 13 48 52
f 13 52 53
f 13 53 14
f 14 53 52
f 14 52 80
f 14 80 83
f 14 83 82
f 14 82 123
f 14 123 172
f 14 172 171
f 14 171 250
f 14 250 321
f 14 321 398
f 14 398 339
f 14 339 338
f 14 338 343
f 14 343 411
f 14 411 405
f 14 405 358
f 14 358 355
f 14 355 268
f 14 268 354
f 14 354 266
f 14 266 326
f 14 326 251
f 14 251 173
f 14 173 125
f 14 125 84
f 14 84 56
f 14 56 55
f 14 55 54
f 14 54 21
f 14 21 20
f 14 20 19
f 14 19 18
f 14 18 17
f 14 17 16
f 14 16 15
f 21 54 22
f 22 54 23
f 23 54 55
f 23 55 56
f 23 56 28
f 24 28 25
f 25 28 57
f 25 57 58
f 25 58 59
f 25 59 26
f 26 60 61
f 26 61 62
f 26 62 63
f 26 63 64
f 26 64 65
f 26 65 27
f 26 59 60
f 27 65 66
f 27 66 29
f 28 56 67
f 28 67 58
f 28 58 57
f 29 66 30
f 30 68 33
f 30 33 32
f 30 32 31
f 30 66 69
f 30 69 68
f 33 68 70
f 33 70 71
f 33 71 72
f 33 72 73
f 33 73 74
f 33 74 75
f 33 75 34
f 34 75 76
f 34 76 77
f 34 77 78
f 34 78 79
f 34 79 35
f 35 79 121
f 35 121 169
f 35 169 248
f 35 248 319
f 35 319 316
f 35 316 315
f 35 315 314
f 35 314 313
f 35 313 312
f 35 312 311
f 35 311 397
f 35 397 442
f 35 442 446
f 35 446 445
f 35 445 444
f 35 444 407
f 35 407 329
f 35 329 340
f 35 340 404
f 35 404 403
f 35 403 402
f 35 402 401
f 35 401 400
f 35 400 399
f 35 399 325
f 35 325 324
f 35 324 323
f 35 323 322
f 35 322 320
f 35 320 249
f 35 249 170
f 35 170 122
f 35 122 81
f 35 81 51
f 35 51 50
f 35 50 49
f 35 49 46
f 35 46 45
f 35 45 44
f 35 44 43
f 35 43 42
f 35 42 41
f 35 41 40
f 35 40 39
f 35 39 38
f 35 38 37
f 35 37 36
f 48 80 52
f 48 51 80
f 51 81 82
f 51 82 83
f 51 83 80
f 56 84 85
f 56 85 67
f 58 67 85
f 58 85 86
f 58 86 88
f 58 88 87
f 58 87 59
f 59 87 88
f 59 88 60
f 60 89 90
f 60 90 91
f 60 91 61
f 60 88 92
f 60 92 93
f 60 93 89
f 61 91 94
f 61 94 95
f 61 95 96
f 61 96 97
f 61 97 62
f 62 97 98
f 62 98 63
f 63 98 64
f 64 98 99
f 64 99 100
f 64 100 65
f 65 100 69
f 65 69 66
f 68 101 102
f 68 102 103
f 68 103 104
f 68 104 70
f 68 69 105
f 68 105 101
f 69 100 106
f 69 106 105
f 70 107 71
f 70 104 108
f 70 108 109
f 70 109 110
f 70 110 111
f 70 111 112
f 70 112 107
f 71 107 72
f 72 107 112
f 72 112 113
f 72 113 73
f 73 113 74
f 74 113 114
f 74 114 75
f 75 114 113
f 75 113 115
f 75 115 116
f 75 116 117
f 75 117 118
f 75 118 76
f 76 119 77
f 76 118 119
f 77 120 78
f 77 119 120
f 78 121 79
f 78 120 121
f 81 122 82
f 82 122 123
f 84 124 85
f 84 125 124
f 85 124 125
f 85 125 126
f 85 126 127
f 85 127 128
f 85 128 129
f 85 129 86
f 86 129 130
f 86 130 131
f 86 131 132
f 86 132 133
f 86 133 88
f 88 133 130
f 88 130 93
f 88 93 92
f 89 93 90
f 90 93 130
f 90 130 134
f 90 134 135
f 90 135 95
f 90 95 94
f 90 94 91
f 95 136 96
f 95 135 137
f 95 137 136
f 96 136 97
f 97 136 138
f 97 138 139
f 97 139 140
f 97 140 141
f 97 141 99
f 97 99 98
f 99 141 205
f 99 205 142
f 99 142 143
f 99 143 144
f 99 144 145
f 99 145 146
f 99 146 147
f 99 147 102
f 99 102 101
f 99 101 105
f 99 105 106
f 99 106 100
f 102 147 148
f 102 148 103
f 103 148 149
f 103 149 104
f 104 149 150
f 104 150 108
f 108 150 151
f 108 151 152
f 108 152 153
f 108 153 154
f 108 154 155
f 108 155 156
f 108 156 109
f 109 156 110
f 110 156 112
f 110 112 111
f 112 156 157
f 112 157 116
f 112 116 113
f 113 116 115
f 116 157 158
f 116 158 159
f 116 159 160
f 116 160 161
f 116 161 117
f 117 161 162
f 117 162 163
f 117 163 118
f 118 163 164
f 118 164 165
f 118 165 119
f 119 165 166
f 119 166 120
f 120 166 167
f 120 167 168
f 120 168 121
f 121 168 169
f 122 170 171
f 122 171 172
f 122 172 123
f 125 173 126
f 126 173 251
f 126 251 174
f 126 174 127
f 127 175 176
f 127 176 177
f 127 177 187
f 127 187 178
f 127 178 129
f 127 129 128
f 127 174 179
f 127 179 180
f 127 180 175
f 129 178 181
f 129 181 182
f 129 182 130
f 130 133 132
f 130 132 131
f 130 182 134
f 134 182 137
f 134 137 135
f 136 183 184
f 136 184 185
f 136 185 139
f 136 139 138
f 136 137 186
f 136 186 187
f 136 187 177
f 136 177 176
f 136 176 183
f 137 182 186
f 139 188 189
f 139 189 190
f 139 190 191
f 139 191 192
f 139 192 193
f 139 193 141
f 139 141 140
f 139 185 194
f 139 194 195
f 139 195 196
f 139 196 197
f 139 197 198
f 139 198 199
f 139 199 188
f 141 193 200
f 141 200 201
f 141 201 202
f 141 202 203
f 141 203 204
f 141 204 205
f 142 206 143
f 142 205 204
f 142 204 207
f 142 207 206
f 143 206 144
f 144 148 145
f 144 206 208
f 144 208 209
f 144 209 148
f 145 148 146
f 146 148 147
f 148 209 149
f 149 209 150
f 150 207 203
f 150 203 210
f 150 210 211
f 150 211 212
f 150 212 151
f 150 209 207
f 151 212 211
f 151 211 213
f 151 213 214
f 151 214 215
f 151 215 153
f 151 153 152
f 153 215 216
f 153 216 217
f 153 217 154
f 154 217 155
f 155 217 156
f 156 217 216
f 156 216 218
f 156 218 219
f 156 219 220
f 156 220 221
f 156 221 157
f 157 221 222
f 157 222 223
f 157 223 158
f 158 223 224
f 158 224 225
f 158 225 159
f 159 225 160
f 160 225 224
f 160 224 226
f 160 226 227
f 160 227 161
f 161 228 162
f 161 227 283
f 161 283 228
f 162 228 229
f 162 229 230
f 162 230 231
f 162 231 232
f 162 232 233
f 162 233 163
f 163 233 164
f 164 233 234
f 164 234 235
f 164 235 165
f 165 235 166
f 166 236 237
f 166 237 238
f 166 238 239
f 166 239 167
f 166 235 234
f 166 234 236
f 167 239 240
f 167 240 241
f 167 241 242
f 167 242 243
f 167 243 244
f 167 244 245
f 167 245 246
f 167 246 247
f 167 247 168
f 168 247 169
f 169 247 248
f 170 249 250
f 170 250 171
f 174 251 180
f 174 180 179
f 175 180 184
f 175 184 176
f 176 184 183
f 178 187 181
f 180 251 252
f 180 252 184
f 181 187 186
f 181 186 182
f 184 194 185
f 184 252 253
f 184 253 194
f 188 199 254
f 188 254 189
f 189 255 256
f 189 256 257
f 189 257 190
f 189 254 258
f 189 258 259
f 189 259 255
f 190 257 191
f 191 257 260
f 191 260 192
f 192 260 261
f 192 261 262
f 192 262 263
f 192 263 193
f 193 263 200
f 194 253 195
f 195 253 252
f 195 252 264
f 195 264 196
f 196 264 265
f 196 265 266
f 196 266 197
f 197 266 267
f 197 267 198
f 198 267 268
f 198 268 269
f 198 269 270
f 198 270 199
f 199 270 271
f 199 271 272
f 199 272 254
f 200 263 273
f 200 273 201
f 201 273 202
f 202 273 203
f 203 207 204
f 203 273 274
f 203 274 275
f 203 275 276
f 203 276 211
f 203 211 210
f 206 207 208
f 207 209 208
f 211 276 277
f 211 277 278
f 211 278 213
f 213 278 214
f 214 278 279
f 214 279 216
f 214 216 215
f 216 279 218
f 218 279 219
f 219 280 222
f 219 222 220
f 219 279 280
f 220 222 221
f 222 280 366
f 222 366 281
f 222 281 223
f 223 281 224
f 224 281 282
f 224 282 227
f 224 227 226
f 227 282 283
f 228 283 229
f 229 284 231
f 229 231 230
f 229 283 284
f 231 285 232
f 231 284 286
f 231 286 287
f 231 287 288
f 231 288 289
f 231 289 290
f 231 290 291
f 231 291 292
f 231 292 293
f 231 293 285
f 232 285 233
f 233 285 294
f 233 294 295
f 233 295 234
f 234 295 296
f 234 296 297
f 234 297 298
f 234 298 299
f 234 299 300
f 234 300 236
f 236 300 237
f 237 301 238
f 237 300 302
f 237 302 383
f 237 383 301
f 238 303 239
f 238 301 303
f 239 303 304
f 239 304 305
f 239 305 240
f 240 305 241
f 241 305 306
f 241 306 308
f 241 308 242
f 242 307 243
f 242 308 307
f 243 309 244
f 243 307 309
f 244 310 311
f 244 311 312
f 244 312 245
f 244 309 310
f 245 312 313
f 245 313 314
f 245 314 246
f 246 314 315
f 246 315 316
f 246 316 317
f 246 317 247
f 247 317 318
f 247 318 248
f 248 318 319
f 249 320 250
f 250 320 322
f 250 322 323
f 250 323 324
f 250 324 325
f 250 325 321
f 251 326 252
f 252 326 264
f 254 272 327
f 254 327 328
f 254 328 258
f 255 329 330
f 255 330 331
f 255 331 332
f 255 332 333
f 255 333 334
f 255 334 335
f 255 335 336
f 255 336 337
f 255 337 256
f 255 259 338
f 255 338 339
f 255 339 340
f 255 340 329
f 256 337 257
f 257 337 341
f 257 341 260
f 258 328 406
f 258 406 342
f 258 342 259
f 259 342 343
f 259 343 338
f 260 341 337
f 260 337 336
f 260 336 344
f 260 344 262
f 260 262 261
f 262 344 345
f 262 345 346
f 262 346 347
f 262 347 348
f 262 348 349
f 262 349 350
f 262 350 351
f 262 351 352
f 262 352 263
f 263 352 353
f 263 353 273
f 264 326 265
f 265 326 266
f 266 354 267
f 267 354 268
f 268 355 356
f 268 356 357
f 268 357 269
f 269 357 270
f 270 357 271
f 271 357 356
f 271 356 272
f 272 356 358
f 272 358 327
f 273 353 274
f 274 353 275
f 275 353 277
f 275 277 276
f 277 353 359
f 277 359 360
f 277 360 361
f 277 361 362
f 277 362 279
f 277 279 278
f 279 362 363
f 279 363 364
f 279 364 280
f 280 364 365
f 280 365 366
f 281 366 367
f 281 367 282
f 282 367 368
f 282 368 283
f 283 368 284
f 284 368 367
f 284 367 286
f 285 293 294
f 286 367 370
f 286 370 287
f 287 369 288
f 287 370 371
f 287 371 369
f 288 369 372
f 288 372 289
f 289 373 374
f 289 374 375
f 289 375 376
f 289 376 377
f 289 377 378
f 289 378 290
f 289 372 348
f 289 348 379
f 289 379 373
f 290 378 380
f 290 380 291
f 291 380 381
f 291 381 292
f 292 381 296
f 292 296 293
f 293 296 294
f 294 296 295
f 296 381 382
f 296 382 298
f 296 298 297
f 298 382 383
f 298 383 302
f 298 302 300
f 298 300 299
f 301 384 304
f 301 304 303
f 301 383 384
f 304 384 305
f 305 384 382
f 305 382 385
f 305 385 386
f 305 386 306
f 306 386 308
f 307 308 387
f 307 387 388
f 307 388 309
f 308 386 389
f 308 389 387
f 309 390 310
f 309 388 387
f 309 387 391
f 309 391 392
f 309 392 393
f 309 393 390
f 310 394 395
f 310 395 311
f 310 390 393
f 310 393 394
f 311 395 396
f 311 396 397
f 316 319 318
f 316 318 317
f 321 325 399
f 321 399 400
f 321 400 401
f 321 401 402
f 321 402 403
f 321 403 404
f 321 404 340
f 321 340 398
f 327 358 405
f 327 405 406
f 327 406 328
f 329 407 330
f 330 407 331
f 331 407 408
f 331 408 332
f 332 408 409
f 332 409 334
f 332 334 333
f 334 346 345
f 334 345 344
f 334 344 335
f 334 409 410
f 334 410 346
f 335 344 336
f 339 398 340
f 342 406 343
f 343 406 411
f 346 373 379
f 346 379 347
f 346 410 412
f 346 412 413
f 346 413 373
f 347 379 348
f 348 372 414
f 348 414 415
f 348 415 416
f 348 416 349
f 349 416 350
f 350 416 351
f 351 416 352
f 352 416 353
f 353 416 359
f 355 358 356
f 359 417 360
f 359 416 418
f 359 418 417
f 360 417 361
f 361 417 454
f 361 454 419
f 361 419 363
f 361 363 362
f 363 419 364
f 364 419 420
f 364 420 421
f 364 421 422
f 364 422 365
f 365 423 367
f 365 367 366
f 365 422 423
f 367 423 424
f 367 424 370
f 369 425 414
f 369 414 372
f 369 371 425
f 370 424 371
f 371 424 426
f 371 426 427
f 371 427 425
f 373 413 374
f 374 413 396
f 374 396 375
f 375 396 428
f 375 428 377
f 375 377 376
f 377 428 429
f 377 429 430
f 377 430 431
f 377 431 378
f 378 431 380
f 380 429 389
f 380 389 386
f 380 386 381
f 380 431 430
f 380 430 429
f 381 386 382
f 382 386 385
f 382 384 383
f 387 389 432
f 387 432 433
f 387 433 391
f 389 429 434
f 389 434 435
f 389 435 436
f 389 436 437
f 389 437 438
f 389 438 439
f 389 439 440
f 389 440 432
f 391 433 392
f 392 433 393
f 393 433 440
f 393 440 439
f 393 439 441
f 393 441 395
f 393 395 394
f 395 441 396
f 396 412 442
f 396 442 397
f 396 441 438
f 396 438 443
f 396 443 428
f 396 413 412
f 405 411 406
f 407 444 408
f 408 444 445
f 408 445 409
f 409 445 412
f 409 412 410
f 412 445 446
f 412 446 442
f 414 425 447
f 414 447 415
f 415 447 448
f 415 448 449
f 415 449 416
f 416 449 448
f 416 448 450
f 416 450 418
f 417 418 451
f 417 451 452
f 417 452 453
f 417 453 454
f 418 450 424
f 418 424 455
f 418 455 451
f 419 454 456
f 419 456 420
f 420 456 421
f 421 456 452
f 421 452 424
f 421 424 423
f 421 423 422
f 424 452 451
f 424 451 455
f 424 450 448
f 424 448 426
f 425 427 447
f 426 448 427
f 427 448 447
f 428 443 434
f 428 434 429
f 432 440 433
f 434 443 438
f 434 438 435
f 435 438 436
f 436 438 437
f 438 441 439
f 452 456 453
f 453 456 454

