# https://github.com/mikedh/trimesh
v 0.01849536 0.05942631 0.02351618
v 0.01849536 0.05778424 0.02350964
v 0.01866377 0.05778424 0.02350964
v 0.02522909 0.05614218 0.02339190
v 0.03015483 0.05450012 0.02330032
v 0.01866377 0.05942631 0.02351291
v 0.01849536 0.06253563 0.02348675
v 0.01849536 0.05614218 0.02348348
v 0.02194759 0.05450012 0.02341807
v 0.02194759 0.05614218 0.02344423
v 0.03044135 0.05285806 0.02328724
v 0.02687100 0.05450012 0.02335592
v 0.02851292 0.05450012 0.02332976
v 0.03044135 0.05450012 0.02329378
v 0.03015483 0.05614218 0.02328724
v 0.02030568 0.05942631 0.02347693
v 0.01849536 0.06417770 0.02347040
v 0.02194759 0.06106307 0.02342461
v 0.01849536 0.05433062 0.02344096
v 0.01866377 0.05450012 0.02344423
v 0.02687100 0.04957393 0.02327089
v 0.02851292 0.04957393 0.02325781
v 0.02851292 0.05121600 0.02328724
v 0.02522909 0.05450012 0.02337882
v 0.03044135 0.04985997 0.02324145
v 0.03044135 0.05614218 0.02328070
v 0.02687100 0.05778424 0.02334611
v 0.02194759 0.06270514 0.02340825
v 0.02030568 0.06434720 0.02342461
v 0.01849536 0.06598926 0.02344423
v 0.01849536 0.05268855 0.02340171
v 0.01866377 0.05285806 0.02340498
v 0.03015483 0.04629511 0.02316950
v 0.03044135 0.04793187 0.02320548
v 0.03044135 0.05778424 0.02325781
v 0.03015483 0.05778424 0.02326762
v 0.02687100 0.05942631 0.02332976
v 0.03015483 0.06763132 0.02310736
v 0.01849536 0.07091544 0.02332976
v 0.01849536 0.04957393 0.02332322
v 0.01866377 0.04957393 0.02332322
v 0.02358834 0.04629511 0.02321202
v 0.02358834 0.04136892 0.02309101
v 0.03044135 0.02852375 0.02273124
v 0.03044135 0.04465305 0.02312698
v 0.03044135 0.06763132 0.02308773
v 0.02522909 0.06927338 0.02317604
v 0.01866377 0.07091544 0.02332322
v 0.01849536 0.07262637 0.02264294
v 0.01866377 0.04793187 0.02328070
v 0.01849536 0.04776237 0.02327416
v 0.03015483 0.02659566 0.02268545
v 0.03044135 0.02659566 0.02268218
v 0.03044135 0.06904032 0.02262985
v 0.03015483 0.06909328 0.02265275
v 0.02687100 0.06927338 0.02301251
v 0.02030568 0.07091544 0.02322510
v 0.02030568 0.07220791 0.02265929
v 0.01851524 0.07263167 0.02263640
v 0.01849536 0.07265285 0.02262004
v 0.01849536 0.04629511 0.02323164
v 0.03015483 0.02495359 0.02263967
v 0.03044135 0.02495359 0.02263967
v 0.03044135 0.06968655 0.02130853
v 0.02923798 0.07005734 0.02184164
v 0.02814337 0.07022684 0.02231915
v 0.02687100 0.07041753 0.02251538
v 0.02522909 0.07065590 0.02267237
v 0.02194759 0.07091544 0.02301251
v 0.02194759 0.07196425 0.02244016
v 0.01896432 0.07322493 0.02184818
v 0.01849536 0.07363280 0.02133470
v 0.01849536 0.04465305 0.02317931
v 0.03015483 0.02331153 0.02259061
v 0.03044135 0.02331153 0.02259061
v 0.03044135 0.06975011 0.01967651
v 0.02939001 0.07011560 0.02074926
v 0.02358834 0.07237211 0.01967651
v 0.02194759 0.07299186 0.01967651
v 0.02100268 0.07333617 0.01967651
v 0.02018172 0.07362220 0.01967651
v 0.01991157 0.07351097 0.02075253
v 0.02039690 0.07307661 0.02130853
v 0.02300712 0.07180534 0.02224719
v 0.01849536 0.07364339 0.02130853
v 0.01849536 0.04301098 0.02312371
v 0.02851292 0.02495359 0.02262985
v 0.02522909 0.02659566 0.02264294
v 0.02687100 0.02495359 0.02259061
v 0.03044135 0.02164298 0.02241399
v 0.03044135 0.06975541 0.01948354
v 0.02943912 0.07013679 0.01967651
v 0.02851292 0.07049169 0.01967651
v 0.02108103 0.07336265 0.01803467
v 0.02026007 0.07367517 0.01803467
v 0.01866377 0.07427902 0.01803467
v 0.01866377 0.07414130 0.01967651
v 0.01849536 0.07419427 0.01967651
v 0.01849536 0.03644273 0.02289477
v 0.02522909 0.02987978 0.02275741
v 0.01849536 0.03316391 0.02278030
v 0.01866377 0.03152184 0.02272470
v 0.02030568 0.02987978 0.02268545
v 0.03013378 0.02163769 0.02238456
v 0.02194759 0.02823772 0.02260696
v 0.03044135 0.02107091 0.02231588
v 0.03044135 0.06987724 0.01310916
v 0.02947888 0.07015269 0.01803467
v 0.02358834 0.07243568 0.01639284
v 0.02178855 0.07312428 0.01635032
v 0.03044135 0.06990902 0.01142481
v 0.02992211 0.07032219 -0.00001899
v 0.02113599 0.07338384 0.01577797
v 0.02030568 0.07374933 0.01310916
v 0.01866377 0.07433200 0.01475100
v 0.01849536 0.07435319 0.01656291
v 0.01849536 0.07432670 0.01803467
v 0.01849536 0.07431611 0.01820474
v 0.02136053 0.07346859 0.00654509
v 0.01849536 0.03152184 0.02271162
v 0.01860763 0.02981622 0.02246305
v 0.02525014 0.02494830 0.02240091
v 0.02037351 0.02825361 0.02240091
v 0.03044135 0.02059418 0.02131835
v 0.02701367 0.02338039 0.02231588
v 0.02581147 0.02396836 0.02226028
v 0.02765687 0.02246401 0.02216216
v 0.03044135 0.07030100 -0.00948408
v 0.02358834 0.07258929 0.00818365
v 0.02629329 0.07183182 -0.00658634
v 0.02358834 0.07271112 0.00162285
v 0.01849536 0.07453858 0.00349035
v 0.01849536 0.07443264 0.01146732
v 0.01849536 0.07437967 0.01492107
v 0.02030568 0.07382878 0.00818365
v 0.02149385 0.07351097 -0.00001899
v 0.02139561 0.07347918 0.00490325
v 0.02522909 0.07223439 -0.00658634
v 0.02524663 0.07228207 -0.00989618
v 0.02358834 0.07284355 -0.00658634
v 0.01849536 0.02985330 0.02244997
v 0.01911634 0.02881509 0.02230606
v 0.03044135 0.02063126 0.02000030
v 0.02765687 0.02246401 0.02201171
v 0.02096642 0.02730545 0.02223411
v 0.01849536 0.02899519 0.02131835
v 0.02091146 0.02726837 0.02131835
v 0.03044135 0.07030100 -0.00968686
v 0.03044018 0.07030630 -0.00989618
v 0.03032089 0.07035397 -0.00989618
v 0.02721365 0.07154049 -0.00989618
v 0.02637398 0.07185831 -0.00987001
v 0.01849536 0.07455977 0.00185833
v 0.02152308 0.07352156 -0.00166083
v 0.01849536 0.07458095 0.00022303
v 0.02358834 0.07288592 -0.00987001
v 0.02637398 0.07185831 -0.00989618
v 0.02358834 0.07288592 -0.00989618
v 0.03044135 0.02162709 -0.00989618
v 0.01849536 0.02971028 -0.00989618
v 0.03044135 0.07009441 -0.00989618
v 0.02160962 0.07355334 -0.00658634
v 0.01849536 0.07470808 -0.00989618
f 1 2 3
f 1 3 4
f 1 4 5
f 1 5 6
f 1 6 7
f 1 7 17
f 1 17 30
f 1 30 39
f 1 39 49
f 1 49 60
f 1 60 72
f 1 72 85
f 1 85 98
f 1 98 118
f 1 118 117
f 1 117 116
f 1 116 134
f 1 134 133
f 1 133 132
f 1 132 153
f 1 153 155
f 1 155 163
f 1 163 160
f 1 160 146
f 1 146 141
f 1 141 120
f 1 120 101
f 1 101 99
f 1 99 86
f 1 86 73
f 1 73 61
f 1 61 51
f 1 51 40
f 1 40 31
f 1 31 19
f 1 19 8
f 1 8 2
f 2 8 3
f 3 8 9
f 3 9 10
f 3 10 11
f 3 11 12
f 3 12 13
f 3 13 4
f 4 13 5
f 5 14 26
f 5 26 15
f 5 15 16
f 5 16 6
f 5 13 11
f 5 11 14
f 6 16 7
f 7 16 18
f 7 18 28
f 7 28 17
f 8 19 20
f 8 20 21
f 8 21 22
f 8 22 9
f 9 22 23
f 9 23 10
f 10 24 11
f 10 23 24
f 11 23 25
f 11 25 34
f 11 34 45
f 11 45 44
f 11 44 53
f 11 53 63
f 11 63 75
f 11 75 90
f 11 90 106
f 11 106 124
f 11 124 143
f 11 143 159
f 11 159 161
f 11 161 148
f 11 148 128
f 11 128 111
f 11 111 107
f 11 107 91
f 11 91 76
f 11 76 64
f 11 64 54
f 11 54 46
f 11 46 35
f 11 35 26
f 11 26 14
f 11 13 12
f 11 24 23
f 15 26 27
f 15 27 16
f 16 27 18
f 17 28 29
f 17 29 30
f 18 27 37
f 18 37 28
f 19 31 32
f 19 32 20
f 20 32 21
f 21 33 34
f 21 34 22
f 21 32 33
f 22 34 25
f 22 25 23
f 26 35 36
f 26 36 37
f 26 37 27
f 28 38 29
f 28 37 38
f 29 38 30
f 30 38 39
f 31 40 41
f 31 41 32
f 32 42 33
f 32 41 43
f 32 43 42
f 33 42 44
f 33 44 45
f 33 45 34
f 35 46 38
f 35 38 36
f 36 38 37
f 38 46 47
f 38 47 48
f 38 48 39
f 39 48 49
f 40 50 41
f 40 51 50
f 41 50 52
f 41 52 43
f 42 43 44
f 43 52 44
f 44 52 53
f 46 54 55
f 46 55 56
f 46 56 47
f 47 56 57
f 47 57 48
f 48 57 49
f 49 58 59
f 49 59 60
f 49 57 58
f 50 51 61
f 50 61 62
f 50 62 63
f 50 63 52
f 52 63 53
f 54 64 65
f 54 65 66
f 54 66 67
f 54 67 55
f 55 67 68
f 55 68 69
f 55 69 56
f 56 69 57
f 57 69 58
f 58 70 71
f 58 71 60
f 58 60 59
f 58 69 68
f 58 68 67
f 58 67 70
f 60 71 72
f 61 73 74
f 61 74 62
f 62 74 75
f 62 75 63
f 64 76 77
f 64 77 78
f 64 78 79
f 64 79 65
f 65 79 80
f 65 80 81
f 65 81 82
f 65 82 66
f 66 82 83
f 66 83 84
f 66 84 70
f 66 70 67
f 70 84 71
f 71 83 72
f 71 84 83
f 72 83 82
f 72 82 85
f 73 86 87
f 73 87 74
f 74 87 88
f 74 88 89
f 74 89 90
f 74 90 75
f 76 91 92
f 76 92 77
f 77 92 93
f 77 93 78
f 78 93 94
f 78 94 95
f 78 95 96
f 78 96 79
f 79 96 80
f 80 96 81
f 81 96 97
f 81 97 82
f 82 97 98
f 82 98 85
f 86 99 88
f 86 88 100
f 86 100 87
f 87 100 88
f 88 99 101
f 88 101 102
f 88 102 103
f 88 103 89
f 89 104 90
f 89 103 105
f 89 105 104
f 90 104 106
f 91 107 92
f 92 107 108
f 92 108 93
f 93 109 110
f 93 110 94
f 93 108 107
f 93 107 111
f 93 111 112
f 93 112 109
f 94 110 113
f 94 113 95
f 95 113 114
f 95 114 96
f 96 115 134
f 96 134 116
f 96 116 117
f 96 117 118
f 96 118 98
f 96 98 97
f 96 114 119
f 96 119 115
f 101 120 102
f 102 120 103
f 103 120 121
f 103 121 105
f 104 105 122
f 104 122 106
f 105 121 123
f 105 123 122
f 106 122 125
f 106 125 126
f 106 126 127
f 106 127 124
f 109 112 128
f 109 128 110
f 110 128 129
f 110 129 130
f 110 130 113
f 111 128 112
f 113 130 131
f 113 131 114
f 114 131 119
f 115 132 133
f 115 133 134
f 115 119 135
f 115 135 136
f 115 136 132
f 119 137 135
f 119 131 130
f 119 130 138
f 119 138 139
f 119 139 140
f 119 140 137
f 120 141 121
f 121 141 142
f 121 142 123
f 122 123 125
f 123 142 126
f 123 126 125
f 124 127 144
f 124 144 143
f 126 145 127
f 126 142 145
f 127 145 146
f 127 146 147
f 127 147 144
f 128 148 149
f 128 149 150
f 128 150 151
f 128 151 130
f 128 130 129
f 130 151 152
f 130 152 138
f 132 136 153
f 135 137 140
f 135 140 136
f 136 154 155
f 136 155 153
f 136 140 156
f 136 156 154
f 138 152 139
f 139 152 157
f 139 157 151
f 139 151 150
f 139 150 149
f 139 149 161
f 139 161 159
f 139 159 160
f 139 160 163
f 139 163 158
f 139 158 156
f 139 156 140
f 141 146 142
f 142 146 145
f 143 144 160
f 143 160 159
f 144 147 160
f 146 160 147
f 148 161 149
f 151 157 152
f 154 162 155
f 154 156 162
f 155 162 163
f 156 158 163
f 156 163 162

