# https://github.com/mikedh/trimesh
v -0.06341756 0.03807944 0.02459321
v -0.06506283 0.03807944 0.02455549
v -0.06506283 0.03644025 0.02456627
v -0.06341756 0.03644025 0.02457704
v -0.06177737 0.03807944 0.02457704
v -0.06177737 0.03971864 0.02458244
v -0.06341756 0.03971864 0.02455549
v -0.06998849 0.03807944 0.02437763
v -0.06506283 0.03971864 0.02450159
v -0.06506283 0.03480106 0.02454471
v -0.06834322 0.03644025 0.02444770
v -0.06998849 0.03316187 0.02437763
v -0.06998849 0.03152268 0.02437225
v -0.07491416 0.02331133 0.02415666
v -0.07491416 0.02167214 0.02414589
v -0.07655435 0.01838606 0.02406504
v -0.06341756 0.03480106 0.02455010
v -0.03124335 0.03578611 0.02403810
v -0.03124335 0.05285525 0.02426985
v -0.03124335 0.05384800 0.02428063
v -0.03124335 0.05449444 0.02428601
v -0.03124335 0.05548719 0.02429140
v -0.03124335 0.05614133 0.02429140
v -0.03879942 0.05449444 0.02436147
v -0.04208488 0.05449444 0.02438841
v -0.03879942 0.05778052 0.02435069
v -0.03223356 0.06599187 0.02426446
v -0.03124335 0.06763106 0.02424290
v -0.03124335 0.06862381 0.02422673
v -0.03124335 0.07026300 0.02417823
v -0.03124335 0.07091714 0.02415128
v -0.03223356 0.07091714 0.02411894
v -0.07163377 0.03797940 0.02403810
v -0.07162869 0.03644025 0.02422673
v -0.07162869 0.03480106 0.02431835
v -0.06998849 0.03644025 0.02438302
v -0.06834322 0.03971864 0.02438302
v -0.06834322 0.04136552 0.02428063
v -0.07014084 0.03987255 0.02412433
v -0.03387376 0.07091714 0.02406504
v -0.04043961 0.06763106 0.02400037
v -0.06341756 0.04792998 0.02415666
v -0.06670303 0.04300471 0.02428063
v -0.06670303 -0.00380074 0.02383869
v -0.06506283 0.02167214 0.02431296
v -0.07326889 0.02987579 0.02424290
v -0.07655435 0.02167214 0.02409199
v -0.07819454 0.01674687 0.02400576
v -0.07819454 0.01510767 0.02397882
v -0.06506283 0.01346079 0.02416206
v -0.06506283 -0.00295421 0.02386025
v -0.06341756 0.02495052 0.02436685
v -0.03551395 0.02987579 0.02400037
v -0.03124335 0.03480106 0.02401654
v -0.03715922 0.01182160 0.02366084
v -0.03879942 0.05614133 0.02435608
v -0.03124335 0.06106660 0.02427523
v -0.03124335 0.06270579 0.02426985
v -0.03387376 0.06270579 0.02429140
v -0.03124335 0.06533773 0.02425907
v -0.03124335 0.06698462 0.02424829
v -0.03124335 0.07190219 0.02408121
v -0.07265952 0.03644025 0.02394109
v -0.07109550 0.03943389 0.02396804
v -0.07326889 0.03152268 0.02424290
v -0.07427433 0.03283095 0.02391953
v -0.07585358 0.02937556 0.02388180
v -0.07602624 0.02823660 0.02394648
v -0.07491416 0.02823660 0.02415666
v -0.07491416 0.02659740 0.02416744
v -0.06506283 0.04629079 0.02416744
v -0.06503745 0.04789150 0.02398420
v -0.06601750 0.04732202 0.02388180
v -0.06834830 0.04298163 0.02404888
v -0.06967874 0.04136552 0.02400576
v -0.03124335 0.07254094 0.02400037
v -0.03969314 0.07011678 0.02380096
v -0.03879942 0.06927025 0.02396265
v -0.04372508 0.06720779 0.02384408
v -0.04372508 0.06599187 0.02394109
v -0.06176214 0.05120836 0.02396265
v -0.06341756 0.04957687 0.02397882
v -0.04949876 0.06355232 0.02379018
v -0.08065738 0.00770438 0.02377941
v -0.07983474 -0.00380074 0.02350454
v -0.06506283 -0.00380074 0.02384408
v -0.07655435 0.02331133 0.02409199
v -0.07819454 0.01838606 0.02399498
v -0.08069799 0.01182160 0.02381174
v -0.08068784 0.01018240 0.02380096
v -0.08066753 0.00853552 0.02379018
v -0.03124335 0.03415462 0.02400037
v -0.03879942 -0.00295421 0.02337519
v -0.07249195 0.03736374 0.02382791
v -0.06931820 0.04241984 0.02390336
v -0.07079082 0.04052669 0.02368239
v -0.07738206 0.02580474 0.02379018
v -0.07746839 0.02495052 0.02385486
v -0.07404582 0.03393144 0.02358538
v -0.07655435 0.02495052 0.02402732
v -0.06447886 0.04903817 0.02389797
v -0.06615968 0.04753750 0.02296020
v -0.06747996 0.04542887 0.02365544
v -0.06402184 0.05017714 0.02296020
v -0.06473276 0.04936139 0.02296020
v -0.06555540 0.04835325 0.02296020
v -0.03502646 0.07183293 0.02384947
v -0.03124335 0.07309503 0.02389797
v -0.04002829 0.07024761 0.02296020
v -0.04316649 0.06861611 0.02265300
v -0.04282627 0.06837754 0.02374707
v -0.04466958 0.06686918 0.02381174
v -0.04173450 0.06862381 0.02383330
v -0.04032282 0.06920868 0.02386563
v -0.03124335 0.07343365 0.02382791
v -0.03148710 0.07340286 0.02380635
v -0.06119847 0.05227038 0.02387103
v -0.05452091 0.05871940 0.02382791
v -0.06286914 0.05065427 0.02388180
v -0.04767068 0.06501451 0.02374707
v -0.04869136 0.06467590 0.02310572
v -0.04986438 0.06385245 0.02296020
v -0.05068701 0.06312906 0.02296020
v -0.05238814 0.06153604 0.02296020
v -0.05394201 0.05981219 0.02325124
v -0.05561268 0.05820379 0.02327818
v -0.06062466 0.05336317 0.02335903
v -0.05117450 0.06194391 0.02380096
v -0.08136829 -0.00380074 0.02281469
v -0.08063198 -0.00380074 0.02315422
v -0.03964236 -0.00380074 0.02336980
v -0.07912889 0.01838606 0.02386025
v -0.08068276 0.01286822 0.02380096
v -0.08210460 -0.00380074 0.02131642
v -0.08175930 -0.00380074 0.02204938
v -0.03124335 0.03316187 0.02396265
v -0.03879942 -0.00380074 0.02334286
v -0.07212633 0.03829492 0.02296020
v -0.07254781 0.03747917 0.02296020
v -0.07084160 0.04059595 0.02258833
v -0.07122752 0.03987255 0.02306800
v -0.06757136 0.04554430 0.02256138
v -0.07905780 0.01939420 0.02381713
v -0.07599069 0.02966800 0.02296020
v -0.07745315 0.02602792 0.02296020
v -0.07903241 0.02091026 0.02224341
v -0.08075385 0.01461515 0.02255060
v -0.07759534 0.02331133 0.02391953
v -0.07412199 0.03405457 0.02249132
v -0.06229532 0.05174707 0.02336980
v -0.06570266 0.04848408 0.02131642
v -0.06265078 0.05209337 0.02227574
v -0.06422496 0.05037722 0.02131642
v -0.06488003 0.04955378 0.02131642
v -0.04116577 0.07005521 0.02131642
v -0.03646861 0.07178676 0.02241587
v -0.04621837 0.06683071 0.02221107
v -0.04816833 0.06538391 0.02265300
v -0.03124335 0.07353369 0.02356922
v -0.03172068 0.07349521 0.02296020
v -0.05274868 0.06188235 0.02211406
v -0.08085034 0.01343770 0.02304105
v -0.08101791 0.01182160 0.02296020
v -0.08198781 -0.00131502 0.02131642
v -0.08215539 -0.00380074 0.01967802
v -0.03124335 0.03251543 0.02393570
v -0.03799709 -0.00380074 0.02319734
v -0.03715922 -0.00131502 0.02322429
v -0.03715922 0.00033187 0.02331052
v -0.07220758 0.03838727 0.02131642
v -0.07258843 0.03756383 0.02131642
v -0.07087207 0.04064212 0.02131642
v -0.07145096 0.03971864 0.02131642
v -0.06760691 0.04559817 0.02131642
v -0.07678793 0.02823660 0.02131642
v -0.07726527 0.02708224 0.02131642
v -0.07752425 0.02625879 0.02131642
v -0.07791018 0.02495052 0.02131642
v -0.07838243 0.02331133 0.02131642
v -0.08057613 0.01563868 0.02131642
v -0.08080971 0.01481524 0.02131642
v -0.08111947 0.01346079 0.02131642
v -0.07309623 0.03644025 0.02131642
v -0.07531532 0.03152268 0.02131642
v -0.05440411 0.06025085 0.02215717
v -0.06101059 0.05373256 0.02225957
v -0.06572297 0.04851486 0.01967802
v -0.06939944 0.04417446 -0.00986703
v -0.06783542 0.04593679 0.00490010
v -0.06713466 0.04652166 0.01639045
v -0.06626632 0.04769911 0.01967802
v -0.06268633 0.05213185 0.02131642
v -0.06349373 0.05121606 0.02131642
v -0.05788254 0.05716486 0.02131642
v -0.05870010 0.05634911 0.02131642
v -0.05727318 0.05821148 0.01967802
v -0.05807550 0.05738804 0.01967802
v -0.05889814 0.05650303 0.01967802
v -0.05963445 0.05568728 0.01967802
v -0.06424020 0.05039262 0.02043254
v -0.06477847 0.04973848 0.01980198
v -0.06495620 0.04956917 0.01803423
v -0.04034313 0.07037844 0.02131642
v -0.03798693 0.07174059 0.00422103
v -0.03805295 0.07177137 0.00161792
v -0.04120131 0.07007061 0.01967802
v -0.04208488 0.06949343 0.02131642
v -0.03124335 0.07374917 0.02225957
v -0.03124335 0.07384921 0.02131642
v -0.03551395 0.07222542 0.02131642
v -0.03656510 0.07182524 0.02131642
v -0.03879942 0.07097101 0.02131642
v -0.04835622 0.06550704 0.02131642
v -0.04917377 0.06496834 0.02131642
v -0.04413132 0.06819285 0.02131642
v -0.05022999 0.06414489 0.02131642
v -0.03124335 0.07364913 0.02296020
v -0.05536893 0.05960441 0.02131642
v -0.05623219 0.05878866 0.02131642
v -0.05105263 0.06347537 0.02131642
v -0.05552127 0.05979681 0.01967802
v -0.05646070 0.05897336 0.01967802
v -0.08132259 0.01182160 0.02131642
v -0.08149017 0.00853552 0.02131642
v -0.08194718 0.00033187 0.01967802
v -0.08215539 -0.00295421 0.01803423
v -0.08242959 -0.00380074 0.00898532
v -0.03124335 0.03150728 0.02387641
v -0.03709829 -0.00380074 0.02287936
v -0.03715922 -0.00295421 0.02307877
v -0.03124335 0.01937881 0.02305722
v -0.07262906 0.03764848 0.01803423
v -0.07260874 0.03761000 0.01967802
v -0.07149158 0.03971864 0.01967802
v -0.07224313 0.03846423 0.01803423
v -0.07414230 0.03571685 -0.00822863
v -0.07091777 0.04071138 0.01803423
v -0.06763230 0.04562895 0.01967802
v -0.07102948 0.04088069 0.00982608
v -0.07107011 0.04094995 0.00654389
v -0.07629537 0.02987579 0.01146986
v -0.07576218 0.03240769 -0.01315461
v -0.07581804 0.03253851 -0.01808058
v -0.07682348 0.02823660 0.01967802
v -0.07729066 0.02716689 0.01803423
v -0.07758519 0.02638962 0.01639045
v -0.07756487 0.02635114 0.01803423
v -0.07754456 0.02630497 0.01967802
v -0.07583327 0.03257699 -0.01971898
v -0.07806759 0.02495052 0.01475205
v -0.07795080 0.02495052 0.01967802
v -0.07849923 0.02331133 0.01639045
v -0.07889531 0.02206462 0.01475205
v -0.07939803 0.02003294 0.01803423
v -0.08033746 0.01674687 0.01803423
v -0.08066245 0.01593881 0.01406220
v -0.08083003 0.01488450 0.01967802
v -0.08084526 0.01495376 0.01803423
v -0.08114994 0.01346079 0.01967802
v -0.07379700 0.03497806 0.01967802
v -0.07420831 0.03424697 0.01639045
v -0.07441143 0.03469332 -0.00002587
v -0.07595007 0.03118406 0.00161792
v -0.05704975 0.05798831 0.02131642
v -0.06574329 0.04854564 0.01803423
v -0.06882055 0.04496712 -0.00822863
v -0.06946546 0.04425142 -0.01479300
v -0.07032872 0.04309706 -0.01808058
v -0.07030841 0.04306628 -0.01643679
v -0.06935375 0.04411290 -0.00658485
v -0.06867837 0.04472856 0.00325632
v -0.07044552 0.04163487 0.01310826
v -0.06281836 0.05228576 0.01310826
v -0.06045709 0.05474840 0.01967802
v -0.06125433 0.05401731 0.01475205
v -0.05734935 0.05828844 0.01803423
v -0.05812628 0.05747269 0.01803423
v -0.06430113 0.05046188 0.01639045
v -0.06156409 0.05437131 -0.00494645
v -0.06097505 0.05534097 -0.01315461
v -0.06105121 0.05542563 -0.01808058
v -0.06432145 0.05049266 0.01475205
v -0.06503237 0.04956917 0.01475205
v -0.03879942 0.07101718 0.01967802
v -0.03879942 0.07110953 0.01639045
v -0.03387376 0.07372608 -0.01151082
v -0.03479287 0.07341825 -0.01315461
v -0.03484365 0.07344134 -0.01479300
v -0.03492998 0.07347982 -0.01808058
v -0.03496553 0.07349521 -0.01971898
v -0.03578816 0.07314121 -0.01971898
v -0.03715922 0.07248707 -0.01643679
v -0.03918027 0.07154819 -0.01315461
v -0.03911425 0.07151741 -0.00986703
v -0.04123686 0.07008600 0.01803423
v -0.04125717 0.07009370 0.01711802
v -0.04192746 0.06968582 0.01649824
v -0.04211535 0.06960117 0.01475205
v -0.04433951 0.06832368 0.00818229
v -0.04333915 0.06873155 0.01967802
v -0.03124335 0.07387230 0.02046488
v -0.03662603 0.07184832 0.01967802
v -0.04655352 0.06704619 0.00161792
v -0.04865073 0.06590722 -0.00822863
v -0.04945306 0.06516073 0.00353657
v -0.04933119 0.06507607 0.01146986
v -0.05028077 0.06418338 0.01803423
v -0.05107802 0.06349845 0.01967802
v -0.05370843 0.06132056 0.01967802
v -0.05469864 0.06049712 0.01967802
v -0.05653687 0.05901954 0.01803423
v -0.08135306 0.01182160 0.01967802
v -0.08230265 0.00608827 -0.00567942
v -0.08178469 0.00853552 0.00982608
v -0.08144954 0.01018240 0.01967802
v -0.08270381 0.00033187 -0.00986703
v -0.08225186 -0.00311582 0.01458498
v -0.08165774 0.00689633 0.01803423
v -0.08244991 -0.00380074 0.00818229
v -0.08261748 -0.00295421 -0.00002587
v -0.03657017 -0.00380074 0.02257216
v -0.03610808 -0.00295421 0.02246438
v -0.03124335 0.01760109 0.02278235
v -0.07329935 0.03644025 0.01310826
v -0.07325873 0.03644025 0.01475205
v -0.07412199 0.03567837 -0.00658485
v -0.07402042 0.03547059 0.00161792
v -0.07156775 0.03971864 0.01639045
v -0.07084668 0.04225053 -0.01643679
v -0.07086699 0.04228131 -0.01808058
v -0.07228375 0.03857197 0.01310826
v -0.07417785 0.03578611 -0.01151082
v -0.07556922 0.03356974 -0.02792713
v -0.07549305 0.03343122 -0.02136276
v -0.07545242 0.03336196 -0.01808058
v -0.07060293 0.04187344 0.00161792
v -0.07732621 0.02727463 0.01310826
v -0.07763088 0.02648967 0.01146986
v -0.07761565 0.02645888 0.01310826
v -0.07918475 0.02297271 -0.00986703
v -0.07883945 0.02354990 -0.00166426
v -0.07588913 0.03275399 -0.02792713
v -0.07625475 0.03152268 -0.02136276
v -0.07912889 0.02283419 -0.00494645
v -0.07965701 0.02167214 -0.01315461
v -0.07910858 0.02278802 -0.00330266
v -0.07955037 0.02167214 -0.00822863
v -0.07900702 0.02245710 0.00527198
v -0.07998200 0.02003294 -0.00658485
v -0.08069292 0.01604655 0.01146986
v -0.08071323 0.01610812 0.00982608
v -0.08074878 0.01624664 0.00654389
v -0.08086049 0.01501533 0.01639045
v -0.08076401 0.01630821 0.00490010
v -0.08065738 0.01757031 -0.00567942
v -0.08119056 0.01346079 0.01639045
v -0.08142415 0.01182160 0.01475205
v -0.08137845 0.01182160 0.01803423
v -0.06506283 0.04956917 0.01310826
v -0.06576868 0.04859181 0.01475205
v -0.06889165 0.04509795 -0.01643679
v -0.06955686 0.04435147 -0.02300116
v -0.06950608 0.04429759 -0.01808058
v -0.06883579 0.04499791 -0.00986703
v -0.07037950 0.04318172 -0.02300116
v -0.07034395 0.04312784 -0.01971898
v -0.05902509 0.05662616 0.01310826
v -0.05905048 0.05665694 0.01146986
v -0.05739505 0.05834231 0.01475205
v -0.05927899 0.05691860 -0.00330266
v -0.05922821 0.05686473 -0.00002587
v -0.06110199 0.05547950 -0.02136276
v -0.06243243 0.05347860 -0.00822863
v -0.05997468 0.05607207 -0.00166426
v -0.06434176 0.05051575 0.01310826
v -0.06245782 0.05350169 -0.00986703
v -0.06435699 0.05053883 0.01146986
v -0.03445265 0.07328742 -0.00330266
v -0.03124335 0.07428787 0.00490010
v -0.03223356 0.07417244 -0.00494645
v -0.03223356 0.07421092 -0.00658485
v -0.03387376 0.07380304 -0.01479300
v -0.03387376 0.07383382 -0.01643679
v -0.03498076 0.07349521 -0.02136276
v -0.03580340 0.07315660 -0.02136276
v -0.03944432 0.07166362 -0.02628873
v -0.03387376 0.07388000 -0.01971898
v -0.03387376 0.07390308 -0.02136276
v -0.03941893 0.07164823 -0.02464495
v -0.03853028 0.07197915 -0.02136276
v -0.04127748 0.07010139 0.01602396
v -0.04219152 0.06964734 0.00982608
v -0.04043961 0.07122497 -0.02628873
v -0.04216613 0.06963195 0.01146986
v -0.04436491 0.06833907 0.00654389
v -0.04865073 0.06613039 -0.01971898
v -0.04979329 0.06539160 -0.01971898
v -0.05068701 0.06484521 -0.02464495
v -0.05066162 0.06482982 -0.02300116
v -0.05063623 0.06481442 -0.02136276
v -0.05152996 0.06387554 -0.01151082
v -0.05111357 0.06352923 0.01719887
v -0.05296196 0.06205935 0.01475205
v -0.05477481 0.06055868 0.01475205
v -0.05658257 0.05905801 0.01475205
v -0.05752708 0.05847314 0.00490010
v -0.05744076 0.05838848 0.01146986
v -0.05742044 0.05836540 0.01310826
v -0.05312953 0.06219787 0.00325632
v -0.05232721 0.06317523 -0.00986703
v -0.05493730 0.06069721 0.00325632
v -0.08230772 0.00612675 -0.00658485
v -0.08296279 0.00197106 -0.02628873
v -0.08294247 0.00197106 -0.02464495
v -0.08291709 0.00197106 -0.02300116
v -0.08286630 0.00197106 -0.01971898
v -0.08307958 0.00033187 -0.02464495
v -0.08283076 0.00197106 -0.01808058
v -0.08303895 0.00033187 -0.02300116
v -0.08249053 -0.00380074 0.00654389
v -0.08269873 -0.00295421 -0.00330266
v -0.08291200 -0.00131502 -0.01479300
v -0.03620964 -0.00380074 0.02234042
v -0.03124335 0.01638517 0.02246438
v -0.07089745 0.04233518 -0.02136276
v -0.07139002 0.04136552 -0.01971898
v -0.07194352 0.03971864 -0.00166426
v -0.07191306 0.03971864 -0.00002587
v -0.07231422 0.03863353 0.00982608
v -0.07229899 0.03860275 0.01146986
v -0.07426417 0.03594772 -0.02136276
v -0.07497509 0.03480106 -0.02792713
v -0.07494462 0.03480106 -0.02628873
v -0.07237008 0.03874897 0.00325632
v -0.07379192 0.03668651 -0.01643679
v -0.07583835 0.03263086 -0.02906431
v -0.07765628 0.02655123 0.00818229
v -0.07922538 0.02306506 -0.01479300
v -0.07919998 0.02300350 -0.01151082
v -0.07980935 0.02167214 -0.02136276
v -0.07977888 0.02167214 -0.01971898
v -0.07968748 0.02167214 -0.01479300
v -0.07634108 0.03152268 -0.02792713
v -0.07632076 0.03152268 -0.02628873
v -0.07725004 0.02871373 -0.01971898
v -0.07718402 0.02852904 -0.00986703
v -0.07958591 0.02167214 -0.00986703
v -0.08021051 0.02003294 -0.01643679
v -0.08017496 0.02003294 -0.01479300
v -0.08066245 0.01758570 -0.00658485
v -0.08024098 0.02003294 -0.01808058
v -0.08026637 0.02003294 -0.01971898
v -0.08030699 0.02003294 -0.02300116
v -0.08032223 0.02003294 -0.02464495
v -0.08120072 0.01346079 0.01475205
v -0.08143938 0.01182160 0.01310826
v -0.06580930 0.04865338 0.00982608
v -0.06439762 0.05060040 0.00654389
v -0.06957210 0.04436685 -0.02464495
v -0.07038966 0.04320480 -0.02464495
v -0.07091269 0.04235827 -0.02300116
v -0.05932469 0.05697247 -0.00701061
v -0.06037076 0.05635681 -0.02464495
v -0.06114769 0.05553337 -0.02464495
v -0.06247813 0.05352478 -0.01151082
v -0.06250860 0.05356326 -0.01479300
v -0.03124335 0.07437252 0.00161792
v -0.03223356 0.07427248 -0.00986703
v -0.03124335 0.07441100 -0.00002587
v -0.03124335 0.07451104 -0.00494645
v -0.03124335 0.07481888 -0.02464495
v -0.03387376 0.07389539 -0.02300116
v -0.03496045 0.07347982 -0.02300116
v -0.03942909 0.07166362 -0.02792713
v -0.04043961 0.07123267 -0.02792713
v -0.04143998 0.07020144 0.00490010
v -0.04139427 0.07017065 0.00818229
v -0.04269932 0.06996287 -0.02464495
v -0.04228800 0.06970891 0.00325632
v -0.04774685 0.06676144 -0.02300116
v -0.04765037 0.06669988 -0.01643679
v -0.04192746 0.07048618 -0.02792713
v -0.04187669 0.07046309 -0.02464495
v -0.04865073 0.06619196 -0.02300116
v -0.04986438 0.06543778 -0.02464495
v -0.04865073 0.06622274 -0.02464495
v -0.05067178 0.06484521 -0.02628873
v -0.05172800 0.06402176 -0.02628873
v -0.05170769 0.06402946 -0.02464495
v -0.05166707 0.06399098 -0.02136276
v -0.05157567 0.06391402 -0.01479300
v -0.05211393 0.06299823 0.00490010
v -0.05666890 0.05913497 0.00818229
v -0.05761848 0.05855009 -0.00166426
v -0.05944656 0.05709560 -0.01643679
v -0.05237291 0.06321371 -0.01315461
v -0.05244400 0.06326758 -0.01808058
v -0.05413498 0.06166687 -0.00986703
v -0.08231280 0.00616523 -0.00822863
v -0.08297294 0.00197106 -0.02792713
v -0.08310497 0.00033187 -0.02628873
v -0.08294755 -0.00131502 -0.01643679
v -0.08281553 -0.00295421 -0.00822863
v -0.08277998 -0.00295421 -0.00658485
v -0.08261240 -0.00380074 0.00161792
v -0.03620964 -0.00380074 0.02184459
v -0.03124335 0.01560020 -0.02464495
v -0.03461007 0.00245589 0.02227035
v -0.03124335 0.01595421 0.02228113
v -0.07147635 0.04136552 -0.02464495
v -0.07256812 0.03912606 -0.01971898
v -0.07262398 0.03923380 -0.02628873
v -0.07432003 0.03604777 -0.02792713
v -0.07424894 0.03590925 -0.02910742
v -0.07604147 0.03152268 -0.02938229
v -0.07740745 0.02755937 -0.02881639
v -0.07912889 0.02296502 -0.02735046
v -0.07899687 0.02405781 -0.02628873
v -0.07689965 0.02987579 -0.02792713
v -0.07448760 0.03471641 -0.02961942
v -0.07415245 0.03410844 -0.03041168
v -0.07790510 0.02659740 -0.01151082
v -0.07927108 0.02318820 -0.02136276
v -0.07986012 0.02167214 -0.02464495
v -0.07983474 0.02167214 -0.02300116
v -0.07868711 0.02495052 -0.02628873
v -0.07810314 0.02659740 -0.02628873
v -0.07756995 0.02795185 -0.02300116
v -0.08066753 0.01760879 -0.00822863
v -0.08056089 0.01855537 -0.01808058
v -0.07970779 0.02167214 -0.02628873
v -0.08012418 0.02003294 -0.02628873
v -0.08068276 0.01773192 -0.02563122
v -0.08057613 0.01862463 -0.02464495
v -0.08057105 0.01859384 -0.02136276
v -0.08102806 0.01510767 -0.00658485
v -0.08146985 0.01182160 0.00325632
v -0.06311796 0.05272442 -0.01315461
v -0.06590070 0.04877651 -0.00166426
v -0.06808424 0.04621384 -0.01808058
v -0.06891703 0.04513643 -0.01971898
v -0.06310272 0.05270903 -0.01151082
v -0.06956194 0.04435147 -0.02628873
v -0.07038458 0.04320480 -0.02628873
v -0.06702294 0.04776837 -0.02480663
v -0.06752567 0.04710654 -0.02545876
v -0.06752567 0.04710654 -0.02546953
v -0.07092793 0.04238136 -0.02628873
v -0.07092285 0.04238136 -0.02464495
v -0.05954813 0.05720334 -0.02464495
v -0.05956844 0.05721873 -0.02628873
v -0.06112738 0.05551797 -0.02628873
v -0.06196018 0.05449444 -0.02464495
v -0.06039108 0.05634142 -0.02628873
v -0.06256446 0.05363252 -0.02136276
v -0.03124335 0.07480349 -0.02600309
v -0.03223356 0.07446488 -0.02464495
v -0.03124335 0.07475731 -0.02792713
v -0.03715922 0.07252555 -0.02792713
v -0.03573230 0.07314890 -0.02464495
v -0.03474209 0.07339517 -0.02881639
v -0.03837794 0.07188680 -0.02917749
v -0.04171419 0.07036305 -0.02927989
v -0.04161263 0.07030148 -0.00658485
v -0.04372508 0.06910864 -0.01315461
v -0.04274502 0.06999365 -0.02792713
v -0.04697500 0.06730784 -0.02628873
v -0.04467974 0.06853916 -0.01479300
v -0.04984915 0.06543008 -0.02628873
v -0.04865073 0.06623044 -0.02628873
v -0.04779255 0.06678453 -0.02628873
v -0.04967142 0.06531465 -0.02792713
v -0.05049405 0.06472207 -0.02792713
v -0.05160613 0.06389863 -0.02792713
v -0.05242369 0.06328297 -0.02792713
v -0.05613063 0.06032011 -0.02894574
v -0.05617125 0.06035090 -0.02792713
v -0.05254556 0.06335993 -0.02628873
v -0.05435333 0.06185156 -0.02628873
v -0.05351038 0.06252109 -0.02464495
v -0.05344437 0.06246722 -0.01971898
v -0.05678062 0.05922732 -0.00002587
v -0.05690756 0.05959672 -0.02136276
v -0.05768450 0.05861166 -0.00694055
v -0.05874580 0.05804218 -0.02628873
v -0.05868487 0.05798061 -0.02136276
v -0.08273428 0.00361025 -0.02792713
v -0.08231280 0.00613445 -0.02877867
v -0.08238897 0.00525714 -0.02895652
v -0.08252100 0.00361025 -0.02925833
v -0.08263779 0.00197106 -0.02947391
v -0.08311005 0.00033187 -0.02792713
v -0.08173391 0.01018240 -0.00658485
v -0.08233819 0.00633454 -0.02464495
v -0.08155618 0.01182160 -0.02628873
v -0.08306943 -0.00131502 -0.02628873
v -0.08305927 -0.00131502 -0.02464495
v -0.08303895 -0.00131502 -0.02300116
v -0.08297294 -0.00131502 -0.01808058
v -0.08288154 -0.00295421 -0.01315461
v -0.08277490 -0.00380074 -0.00658485
v -0.08274444 -0.00380074 -0.00494645
v -0.08264795 -0.00380074 -0.00002587
v -0.03668189 -0.00380074 -0.02798641
v -0.03124335 0.01560020 -0.02792713
v -0.03124335 0.01566177 0.02123019
v -0.03124335 0.01566946 0.02131642
v -0.03124335 0.01579260 0.02212484
v -0.07149158 0.04136552 -0.02628873
v -0.07219234 0.04004955 -0.02628873
v -0.07386809 0.03687121 -0.02792713
v -0.07247163 0.03893367 -0.02878944
v -0.07269507 0.03791783 -0.02943079
v -0.07245132 0.03726370 -0.03039012
v -0.07088730 0.04231210 -0.02728578
v -0.07558445 0.03053762 -0.03037395
v -0.07620904 0.02994505 -0.02972721
v -0.07751917 0.02659740 -0.02903197
v -0.08071831 0.01291439 -0.02887568
v -0.07900195 0.02078713 -0.02871399
v -0.07890039 0.02167214 -0.02849841
v -0.07944373 0.02015608 -0.02807265
v -0.08071831 0.01620816 -0.02724806
v -0.07149666 0.03791783 -0.03041707
v -0.07326889 0.03316187 -0.03045479
v -0.07422862 0.03316187 -0.03042245
v -0.07576218 0.02943713 -0.03041168
v -0.07928123 0.02321898 -0.02300116
v -0.07929139 0.02324976 -0.02464495
v -0.08059644 0.01730096 -0.02672528
v -0.08047964 0.01832449 -0.02622406
v -0.08131244 0.01346079 -0.02628873
v -0.06458043 0.05084666 -0.01643679
v -0.06257969 0.05364791 -0.02300116
v -0.06894751 0.04517491 -0.02628873
v -0.06750027 0.04708345 -0.02656360
v -0.06463121 0.05091593 -0.02300116
v -0.06320429 0.05284756 -0.02464495
v -0.06800807 0.04643701 -0.02612166
v -0.06258985 0.05366330 -0.02464495
v -0.06318905 0.05281677 -0.02628873
v -0.05954813 0.05721873 -0.02792713
v -0.05876611 0.05804218 -0.02792713
v -0.06102582 0.05541024 -0.02792713
v -0.06191447 0.05449444 -0.02628873
v -0.06037076 0.05622598 -0.02792713
v -0.06256953 0.05363252 -0.02628873
v -0.03124335 0.07416474 -0.02964637
v -0.03387376 0.07355678 -0.02919905
v -0.03291401 0.07327203 -0.03037934
v -0.04090171 0.06985513 -0.03037395
v -0.04785349 0.06518382 -0.03039551
v -0.04471021 0.06856994 -0.02902119
v -0.04372508 0.06936260 -0.02792713
v -0.04865073 0.06603804 -0.02792713
v -0.04482700 0.06863921 -0.02792713
v -0.04564964 0.06808511 -0.02792713
v -0.04686836 0.06726167 -0.02792713
v -0.04768592 0.06670758 -0.02792713
v -0.04950384 0.06519151 -0.02881639
v -0.05699389 0.05966598 -0.02792713
v -0.05135731 0.06370624 -0.02912898
v -0.05269790 0.06182848 -0.03038473
v -0.05786223 0.05877327 -0.02919366
v -0.05794855 0.05885023 -0.02792713
v -0.05774036 0.05866553 -0.01151082
v -0.08248546 0.00525714 -0.02792713
v -0.08103314 0.01018240 -0.02938768
v -0.08032223 0.01675456 -0.02784629
v -0.08059644 0.01400718 -0.02861160
v -0.08084526 0.01182160 -0.02910742
v -0.08066753 0.00779673 -0.03039551
v -0.08168820 0.00197106 -0.03029311
v -0.08182532 0.00033187 -0.03037395
v -0.08270888 0.00033187 -0.02955475
v -0.08306435 -0.00131502 -0.02792713
v -0.08293231 -0.00295421 -0.02628873
v -0.08293231 -0.00295421 -0.02464495
v -0.08286122 -0.00380074 -0.02300116
v -0.08292724 -0.00295421 -0.01971898
v -0.08291709 -0.00295421 -0.01643679
v -0.08290185 -0.00295421 -0.01479300
v -0.08279521 -0.00380074 -0.00822863
v -0.03690024 -0.00380074 -0.02957092
v -0.03124335 0.01582338 -0.02917210
v -0.03124335 0.01569255 -0.02847686
v -0.07099902 0.04081912 -0.02907509
v -0.07061816 0.04191192 -0.02837985
v -0.06914555 0.04379737 -0.02870860
v -0.06619523 0.04756058 -0.02922599
v -0.06286406 0.05239351 -0.02917749
v -0.06097505 0.05370178 -0.03040090
v -0.06427574 0.04880730 -0.03040629
v -0.06757136 0.04390511 -0.03041168
v -0.06434176 0.05053883 -0.02892957
v -0.06599211 0.04889964 -0.02745286
v -0.06095981 0.05531788 -0.02875172
v -0.07738714 0.02261871 -0.03040090
v -0.07770197 0.02495052 -0.02934456
v -0.07927615 0.01838606 -0.02923138
v -0.06329569 0.04943834 -0.03042785
v -0.06341756 0.04792998 -0.03045479
v -0.07326889 -0.00380074 -0.03045479
v -0.07491416 0.02823660 -0.03044940
v -0.06606828 0.04899969 -0.02628873
v -0.06171643 0.05449444 -0.02792713
v -0.06246798 0.05349400 -0.02792713
v -0.05944656 0.05712638 -0.02906431
v -0.03124335 0.07346443 -0.03041168
v -0.03182224 0.07341825 -0.03040629
v -0.03231481 0.07379534 -0.02972721
v -0.03641275 0.07174828 -0.03039551
v -0.03980994 0.07010909 -0.03039551
v -0.04291767 0.06846220 -0.03039551
v -0.04849840 0.06420646 -0.03041707
v -0.05357640 0.06064334 -0.03042245
v -0.05447012 0.06028933 -0.03040629
v -0.04656368 0.06708466 -0.02923677
v -0.05735443 0.05828074 -0.03028772
v -0.07983474 0.00689633 -0.03041168
v -0.08100268 0.00033187 -0.03039551
v -0.07655435 0.02167214 -0.03043862
v -0.08068784 -0.00380074 -0.03039551
v -0.08167297 -0.00131502 -0.03030389
v -0.08267841 -0.00131502 -0.02947930
v -0.08256163 -0.00295421 -0.02926372
v -0.08287646 -0.00295421 -0.02792713
v -0.08286122 -0.00380074 -0.02628873
v -0.08285614 -0.00380074 -0.01892133
v -0.08285107 -0.00380074 -0.01643679
v -0.08284092 -0.00380074 -0.01479300
v -0.08282060 -0.00380074 -0.01151082
v -0.03716938 -0.00380074 -0.02991585
v -0.03124335 0.01750105 -0.03041168
v -0.03124335 0.01660834 -0.02987812
v -0.05937547 0.05543332 -0.03041168
v -0.06000515 0.05434822 -0.03042245
v -0.05849698 0.05449444 -0.03045479
v -0.03879942 -0.00380074 -0.03045479
v -0.07491416 -0.00380074 -0.03044401
v -0.07491416 0.00197106 -0.03044940
v -0.03124335 0.07259481 -0.03044401
v -0.03231481 0.07265638 -0.03042785
v -0.03551395 0.07091714 -0.03043862
v -0.03703735 0.07082479 -0.03041707
v -0.04038883 0.06929334 -0.03041168
v -0.04700546 0.06434498 -0.03043862
v -0.05357640 0.05941971 -0.03045479
v -0.05509980 0.05931197 -0.03042785
v -0.05626266 0.05868862 -0.03041168
v -0.05779114 0.05718795 -0.03041168
v -0.07983474 -0.00295421 -0.03041168
v -0.07655435 0.00853552 -0.03043862
v -0.07899687 -0.00380074 -0.03041707
v -0.08108392 -0.00380074 -0.03024460
v -0.08152063 -0.00295421 -0.03008292
v -0.08212999 -0.00380074 -0.02939846
v -0.08247022 -0.00380074 -0.02909125
v -0.08273428 -0.00380074 -0.02799719
v -0.03756546 -0.00380074 -0.03042245
v -0.03124335 0.01845532 -0.03043862
v -0.05840050 0.05604898 -0.03042785
v -0.05683139 0.05774974 -0.03042785
v -0.05685679 0.05614133 -0.03045479
v -0.03124335 0.02003294 -0.03045479
v -0.03806311 -0.00380074 -0.03043862
v -0.07819454 -0.00380074 -0.03042245
v -0.03124335 0.07091714 -0.03045479
v -0.03223356 0.07091714 -0.03045479
v -0.03387376 0.07091714 -0.03044940
v -0.03715922 0.06927025 -0.03044940
v -0.04372508 0.06599187 -0.03044401
v -0.04208488 0.06763106 -0.03042785
v -0.04208488 0.06599187 -0.03045479
f 1 2 3
f 1 3 4
f 1 4 5
f 1 5 6
f 1 6 7
f 1 7 2
f 2 8 3
f 2 7 9
f 2 9 8
f 3 10 4
f 3 8 11
f 3 11 12
f 3 12 13
f 3 13 14
f 3 14 15
f 3 15 16
f 3 16 10
f 4 10 17
f 4 17 18
f 4 18 5
f 5 18 19
f 5 19 20
f 5 20 21
f 5 21 22
f 5 22 6
f 6 22 23
f 6 23 24
f 6 24 25
f 6 25 26
f 6 26 27
f 6 27 28
f 6 28 29
f 6 29 30
f 6 30 7
f 7 30 31
f 7 31 32
f 7 32 9
f 8 33 34
f 8 34 35
f 8 35 36
f 8 36 11
f 8 9 37
f 8 37 38
f 8 38 39
f 8 39 33
f 9 32 40
f 9 40 41
f 9 41 42
f 9 42 43
f 9 43 37
f 10 16 44
f 10 44 45
f 10 45 17
f 11 36 35
f 11 35 12
f 12 35 46
f 12 46 47
f 12 47 13
f 13 47 14
f 14 47 48
f 14 48 15
f 15 48 16
f 16 48 49
f 16 49 44
f 17 45 50
f 17 50 51
f 17 51 52
f 17 52 53
f 17 53 18
f 18 54 92
f 18 92 136
f 18 136 166
f 18 166 228
f 18 228 231
f 18 231 323
f 18 323 424
f 18 424 509
f 18 509 608
f 18 608 607
f 18 607 606
f 18 606 507
f 18 507 605
f 18 605 686
f 18 686 685
f 18 685 735
f 18 735 734
f 18 734 761
f 18 761 765
f 18 765 768
f 18 768 742
f 18 742 709
f 18 709 648
f 18 648 558
f 18 558 556
f 18 556 471
f 18 471 470
f 18 470 469
f 18 469 467
f 18 467 379
f 18 379 301
f 18 301 209
f 18 209 208
f 18 208 217
f 18 217 159
f 18 159 115
f 18 115 108
f 18 108 76
f 18 76 62
f 18 62 31
f 18 31 30
f 18 30 29
f 18 29 28
f 18 28 61
f 18 61 60
f 18 60 58
f 18 58 57
f 18 57 23
f 18 23 22
f 18 22 21
f 18 21 20
f 18 20 19
f 18 53 55
f 18 55 54
f 23 56 24
f 23 57 56
f 24 56 25
f 25 56 26
f 26 56 57
f 26 57 58
f 26 58 59
f 26 59 27
f 27 59 60
f 27 60 61
f 27 61 28
f 31 62 32
f 32 62 40
f 33 63 34
f 33 39 64
f 33 64 63
f 34 65 35
f 34 63 66
f 34 66 67
f 34 67 68
f 34 68 69
f 34 69 65
f 35 65 70
f 35 70 47
f 35 47 46
f 37 43 38
f 38 43 71
f 38 71 72
f 38 72 73
f 38 73 74
f 38 74 39
f 39 74 75
f 39 75 64
f 40 62 76
f 40 76 77
f 40 77 78
f 40 78 41
f 41 78 79
f 41 79 80
f 41 80 42
f 42 81 82
f 42 82 71
f 42 71 43
f 42 80 83
f 42 83 81
f 44 84 85
f 44 85 130
f 44 130 129
f 44 129 135
f 44 135 134
f 44 134 165
f 44 165 227
f 44 227 319
f 44 319 420
f 44 420 505
f 44 505 603
f 44 603 602
f 44 602 601
f 44 601 683
f 44 683 732
f 44 732 731
f 44 731 730
f 44 730 729
f 44 729 679
f 44 679 728
f 44 728 759
f 44 759 758
f 44 758 757
f 44 757 755
f 44 755 723
f 44 723 754
f 44 754 767
f 44 767 740
f 44 740 703
f 44 703 739
f 44 739 766
f 44 766 760
f 44 760 733
f 44 733 684
f 44 684 604
f 44 604 506
f 44 506 423
f 44 423 321
f 44 321 229
f 44 229 167
f 44 167 137
f 44 137 131
f 44 131 86
f 44 86 51
f 44 51 50
f 44 50 45
f 44 49 84
f 47 70 87
f 47 87 48
f 48 87 88
f 48 88 89
f 48 89 90
f 48 90 91
f 48 91 84
f 48 84 49
f 51 86 52
f 52 86 53
f 53 86 55
f 54 55 93
f 54 93 92
f 55 86 93
f 58 60 59
f 63 64 94
f 63 94 66
f 64 75 95
f 64 95 96
f 64 96 94
f 65 69 87
f 65 87 70
f 66 94 67
f 67 97 98
f 67 98 68
f 67 94 99
f 67 99 97
f 68 98 69
f 69 98 100
f 69 100 87
f 71 82 72
f 72 82 101
f 72 101 73
f 73 102 103
f 73 103 96
f 73 96 95
f 73 95 75
f 73 75 74
f 73 101 104
f 73 104 105
f 73 105 106
f 73 106 102
f 76 107 77
f 76 108 107
f 77 109 110
f 77 110 111
f 77 111 112
f 77 112 113
f 77 113 114
f 77 114 78
f 77 107 115
f 77 115 116
f 77 116 109
f 78 114 113
f 78 113 79
f 79 112 83
f 79 83 80
f 79 113 112
f 81 117 82
f 81 83 118
f 81 118 117
f 82 117 119
f 82 119 101
f 83 112 120
f 83 120 121
f 83 121 122
f 83 122 123
f 83 123 124
f 83 124 125
f 83 125 126
f 83 126 127
f 83 127 128
f 83 128 118
f 84 91 129
f 84 129 130
f 84 130 85
f 86 131 93
f 87 100 132
f 87 132 133
f 87 133 88
f 88 133 89
f 89 133 134
f 89 134 135
f 89 135 129
f 89 129 90
f 90 129 91
f 92 93 136
f 93 131 137
f 93 137 136
f 94 96 138
f 94 138 139
f 94 139 99
f 96 140 141
f 96 141 138
f 96 103 142
f 96 142 140
f 97 143 98
f 97 99 144
f 97 144 145
f 97 145 146
f 97 146 147
f 97 147 143
f 98 143 132
f 98 132 148
f 98 148 100
f 99 139 149
f 99 149 144
f 100 148 132
f 101 119 150
f 101 150 104
f 102 142 103
f 102 106 151
f 102 151 142
f 104 150 152
f 104 152 105
f 105 152 106
f 106 152 153
f 106 153 154
f 106 154 151
f 107 108 115
f 109 155 110
f 109 116 156
f 109 156 155
f 110 155 157
f 110 157 111
f 111 157 158
f 111 158 120
f 111 120 112
f 115 159 116
f 116 159 160
f 116 160 156
f 117 118 127
f 117 127 150
f 117 150 119
f 118 128 127
f 120 158 121
f 121 158 122
f 122 161 123
f 122 158 161
f 123 161 124
f 124 161 127
f 124 127 126
f 124 126 125
f 127 161 150
f 132 143 133
f 133 162 163
f 133 163 134
f 133 143 162
f 134 164 165
f 134 163 164
f 136 137 166
f 137 167 168
f 137 168 169
f 137 169 166
f 138 170 139
f 138 141 170
f 139 170 171
f 139 171 149
f 140 172 173
f 140 173 141
f 140 142 151
f 140 151 174
f 140 174 172
f 141 173 170
f 143 147 162
f 144 175 176
f 144 176 145
f 144 149 175
f 145 176 177
f 145 177 146
f 146 177 178
f 146 178 179
f 146 179 180
f 146 180 181
f 146 181 147
f 147 181 182
f 147 182 162
f 149 171 183
f 149 183 184
f 149 184 175
f 150 161 185
f 150 185 186
f 150 186 152
f 151 154 187
f 151 187 188
f 151 188 189
f 151 189 190
f 151 190 191
f 151 191 238
f 151 238 174
f 152 192 193
f 152 193 153
f 152 186 194
f 152 194 195
f 152 195 196
f 152 196 197
f 152 197 198
f 152 198 199
f 152 199 192
f 153 200 154
f 153 193 200
f 154 200 201
f 154 201 202
f 154 202 187
f 155 156 203
f 155 203 204
f 155 204 205
f 155 205 206
f 155 206 207
f 155 207 157
f 156 160 208
f 156 208 209
f 156 209 210
f 156 210 211
f 156 211 212
f 156 212 203
f 157 213 214
f 157 214 158
f 157 207 215
f 157 215 213
f 158 214 216
f 158 216 161
f 159 217 160
f 160 217 208
f 161 218 219
f 161 219 185
f 161 216 220
f 161 220 221
f 161 221 222
f 161 222 196
f 161 196 218
f 162 182 223
f 162 223 163
f 163 223 224
f 163 224 164
f 164 224 315
f 164 315 225
f 164 225 226
f 164 226 165
f 165 226 227
f 166 169 168
f 166 168 228
f 167 229 230
f 167 230 168
f 168 230 231
f 168 231 228
f 170 232 233
f 170 233 171
f 170 173 234
f 170 234 235
f 170 235 236
f 170 236 232
f 171 233 183
f 172 237 173
f 172 174 238
f 172 238 237
f 173 237 239
f 173 239 240
f 173 240 234
f 175 241 242
f 175 242 243
f 175 243 244
f 175 244 176
f 175 184 241
f 176 245 246
f 176 246 247
f 176 247 248
f 176 248 177
f 176 244 243
f 176 243 249
f 176 249 245
f 177 248 250
f 177 250 251
f 177 251 178
f 178 251 179
f 179 251 250
f 179 250 252
f 179 252 253
f 179 253 254
f 179 254 180
f 180 255 256
f 180 256 257
f 180 257 181
f 180 254 255
f 181 257 182
f 182 257 258
f 182 258 259
f 182 259 312
f 182 312 223
f 183 233 260
f 183 260 184
f 184 260 261
f 184 261 262
f 184 262 242
f 184 242 263
f 184 263 241
f 185 219 264
f 185 264 186
f 186 264 194
f 187 202 265
f 187 265 188
f 188 266 267
f 188 267 268
f 188 268 269
f 188 269 270
f 188 270 189
f 188 265 266
f 189 270 271
f 189 271 190
f 190 271 272
f 190 272 238
f 190 238 191
f 192 199 193
f 193 273 200
f 193 199 274
f 193 274 275
f 193 275 273
f 194 264 196
f 194 196 195
f 196 264 219
f 196 219 218
f 196 222 276
f 196 276 197
f 197 276 277
f 197 277 198
f 198 277 199
f 199 277 274
f 200 278 201
f 200 273 279
f 200 279 280
f 200 280 281
f 200 281 278
f 201 278 282
f 201 282 202
f 202 282 283
f 202 283 265
f 203 212 284
f 203 284 285
f 203 285 204
f 204 285 286
f 204 286 287
f 204 287 288
f 204 288 289
f 204 289 205
f 205 289 290
f 205 290 291
f 205 291 292
f 205 292 293
f 205 293 294
f 205 294 295
f 205 295 206
f 206 295 207
f 207 295 296
f 207 296 297
f 207 297 298
f 207 298 299
f 207 299 300
f 207 300 215
f 209 301 302
f 209 302 210
f 210 302 211
f 211 302 212
f 212 302 284
f 213 303 304
f 213 304 305
f 213 305 306
f 213 306 214
f 213 215 300
f 213 300 303
f 214 306 307
f 214 307 216
f 216 307 308
f 216 308 220
f 220 308 309
f 220 309 310
f 220 310 221
f 221 310 311
f 221 311 222
f 222 311 276
f 223 312 313
f 223 313 314
f 223 314 315
f 223 315 224
f 225 315 318
f 225 318 226
f 226 316 317
f 226 317 227
f 226 318 316
f 227 317 316
f 227 316 320
f 227 320 319
f 229 321 230
f 230 321 322
f 230 322 231
f 231 322 323
f 232 236 326
f 232 326 233
f 233 324 325
f 233 325 260
f 233 326 327
f 233 327 324
f 234 328 235
f 234 240 329
f 234 329 330
f 234 330 328
f 235 331 332
f 235 332 236
f 235 328 330
f 235 330 331
f 236 332 333
f 236 333 334
f 236 334 335
f 236 335 326
f 237 238 272
f 237 272 336
f 237 336 329
f 237 329 239
f 239 329 240
f 241 263 242
f 242 262 335
f 242 335 243
f 243 335 334
f 243 334 333
f 243 333 249
f 245 337 338
f 245 338 339
f 245 339 246
f 245 249 337
f 246 339 340
f 246 340 247
f 247 250 248
f 247 340 341
f 247 341 250
f 249 333 342
f 249 342 343
f 249 343 337
f 250 341 344
f 250 344 345
f 250 345 346
f 250 346 347
f 250 347 348
f 250 348 252
f 252 348 253
f 253 348 349
f 253 349 255
f 253 255 254
f 255 349 256
f 256 349 350
f 256 350 257
f 257 350 351
f 257 351 352
f 257 352 258
f 258 353 259
f 258 352 354
f 258 354 353
f 259 353 354
f 259 354 355
f 259 355 356
f 259 356 357
f 259 357 358
f 259 358 312
f 260 325 261
f 261 325 324
f 261 324 327
f 261 327 262
f 262 327 335
f 265 283 359
f 265 359 360
f 265 360 361
f 265 361 362
f 265 362 363
f 265 363 364
f 265 364 267
f 265 267 266
f 267 363 365
f 267 365 366
f 267 366 268
f 267 364 363
f 268 366 330
f 268 330 329
f 268 329 269
f 269 329 270
f 270 329 336
f 270 336 272
f 270 272 271
f 273 275 279
f 274 277 367
f 274 367 275
f 275 367 368
f 275 368 280
f 275 280 279
f 276 311 369
f 276 369 277
f 277 369 370
f 277 370 371
f 277 371 368
f 277 368 367
f 278 281 372
f 278 372 373
f 278 373 282
f 280 368 374
f 280 374 371
f 280 371 281
f 281 371 370
f 281 370 372
f 282 375 283
f 282 373 376
f 282 376 465
f 282 465 375
f 283 375 377
f 283 377 359
f 284 302 285
f 285 302 378
f 285 378 286
f 286 288 287
f 286 378 379
f 286 379 380
f 286 380 381
f 286 381 382
f 286 382 288
f 288 382 289
f 289 382 383
f 289 383 290
f 290 384 385
f 290 385 386
f 290 386 291
f 290 383 387
f 290 387 388
f 290 388 384
f 291 386 389
f 291 389 390
f 291 390 292
f 292 390 293
f 293 390 389
f 293 389 296
f 293 296 295
f 293 295 294
f 296 391 392
f 296 392 297
f 296 389 393
f 296 393 391
f 297 392 394
f 297 394 298
f 298 394 395
f 298 395 299
f 299 395 396
f 299 396 304
f 299 304 303
f 299 303 300
f 301 379 302
f 302 379 378
f 304 396 305
f 305 397 398
f 305 398 399
f 305 399 400
f 305 400 306
f 305 396 397
f 306 400 307
f 307 400 401
f 307 401 402
f 307 402 308
f 308 402 403
f 308 403 404
f 308 404 311
f 308 311 309
f 309 311 310
f 311 405 494
f 311 494 406
f 311 406 407
f 311 407 408
f 311 408 369
f 311 404 409
f 311 409 410
f 311 410 411
f 311 411 405
f 312 358 313
f 313 412 413
f 313 413 414
f 313 414 415
f 313 415 416
f 313 416 417
f 313 417 418
f 313 418 314
f 313 358 357
f 313 357 412
f 314 418 315
f 315 418 316
f 315 316 318
f 316 418 419
f 316 419 320
f 319 320 421
f 319 421 420
f 320 419 422
f 320 422 421
f 321 423 322
f 322 423 424
f 322 424 323
f 326 335 327
f 330 366 365
f 330 365 425
f 330 425 426
f 330 426 427
f 330 427 428
f 330 428 429
f 330 429 430
f 330 430 331
f 331 430 332
f 332 431 432
f 332 432 433
f 332 433 333
f 332 430 429
f 332 429 434
f 332 434 435
f 332 435 431
f 333 433 432
f 333 432 436
f 333 436 342
f 337 437 338
f 337 343 437
f 338 437 438
f 338 438 439
f 338 439 340
f 338 340 339
f 340 439 440
f 340 440 441
f 340 441 442
f 340 442 345
f 340 345 341
f 341 345 344
f 342 436 443
f 342 443 444
f 342 444 343
f 343 444 445
f 343 445 446
f 343 446 437
f 345 447 346
f 345 442 448
f 345 448 449
f 345 449 447
f 346 447 347
f 347 447 449
f 347 449 349
f 347 349 348
f 349 449 350
f 350 449 351
f 351 449 355
f 351 355 352
f 352 355 354
f 355 450 356
f 355 449 448
f 355 448 451
f 355 451 452
f 355 452 453
f 355 453 454
f 355 454 450
f 356 455 456
f 356 456 357
f 356 450 455
f 357 456 412
f 359 457 360
f 359 377 458
f 359 458 457
f 360 457 361
f 361 457 362
f 362 459 460
f 362 460 365
f 362 365 363
f 362 457 459
f 365 460 549
f 365 549 461
f 365 461 425
f 368 371 374
f 369 408 370
f 370 408 462
f 370 462 463
f 370 463 464
f 370 464 372
f 372 464 373
f 373 464 376
f 375 465 377
f 376 464 465
f 377 465 466
f 377 466 458
f 379 467 380
f 380 467 381
f 381 468 382
f 381 467 469
f 381 469 470
f 381 470 468
f 382 468 383
f 383 468 471
f 383 471 387
f 384 388 472
f 384 472 473
f 384 473 474
f 384 474 386
f 384 386 385
f 386 474 475
f 386 475 393
f 386 393 389
f 387 471 388
f 388 471 472
f 391 393 476
f 391 476 477
f 391 477 478
f 391 478 479
f 391 479 392
f 392 395 394
f 392 479 480
f 392 480 481
f 392 481 395
f 393 475 482
f 393 482 483
f 393 483 476
f 395 481 396
f 396 481 484
f 396 484 397
f 397 485 398
f 397 484 486
f 397 486 485
f 398 487 488
f 398 488 489
f 398 489 490
f 398 490 399
f 398 485 487
f 399 490 400
f 400 490 491
f 400 491 401
f 401 491 410
f 401 410 409
f 401 409 492
f 401 492 402
f 402 492 409
f 402 409 403
f 403 409 404
f 405 493 494
f 405 411 493
f 406 494 495
f 406 495 462
f 406 462 407
f 407 462 408
f 410 491 490
f 410 490 496
f 410 496 411
f 411 496 497
f 411 497 498
f 411 498 493
f 412 499 500
f 412 500 413
f 412 456 499
f 413 500 501
f 413 501 414
f 414 501 417
f 414 417 415
f 415 417 416
f 417 419 418
f 417 501 599
f 417 599 502
f 417 502 503
f 417 503 504
f 417 504 422
f 417 422 419
f 420 421 504
f 420 504 505
f 421 422 504
f 423 506 605
f 423 605 507
f 423 507 508
f 423 508 509
f 423 509 424
f 425 461 510
f 425 510 426
f 426 510 434
f 426 434 427
f 427 434 429
f 427 429 428
f 431 435 511
f 431 511 512
f 431 512 432
f 432 513 514
f 432 514 436
f 432 512 513
f 434 510 511
f 434 511 435
f 436 515 516
f 436 516 517
f 436 517 518
f 436 518 519
f 436 519 443
f 436 514 520
f 436 520 521
f 436 521 515
f 437 446 445
f 437 445 522
f 437 522 523
f 437 523 438
f 438 523 524
f 438 524 439
f 439 524 525
f 439 525 440
f 440 525 452
f 440 452 451
f 440 451 448
f 440 448 441
f 441 448 442
f 443 519 518
f 443 518 526
f 443 526 527
f 443 527 444
f 444 527 528
f 444 528 445
f 445 528 522
f 450 529 455
f 450 454 530
f 450 530 529
f 452 525 524
f 452 524 453
f 453 524 454
f 454 524 531
f 454 531 532
f 454 532 533
f 454 533 534
f 454 534 535
f 454 535 530
f 455 529 535
f 455 535 536
f 455 536 537
f 455 537 500
f 455 500 456
f 456 500 499
f 457 458 538
f 457 538 539
f 457 539 540
f 457 540 541
f 457 541 459
f 458 466 542
f 458 542 538
f 459 543 544
f 459 544 460
f 459 541 540
f 459 540 545
f 459 545 546
f 459 546 547
f 459 547 543
f 460 544 548
f 460 548 549
f 461 549 510
f 462 495 463
f 463 495 550
f 463 550 551
f 463 551 464
f 464 552 553
f 464 553 466
f 464 466 465
f 464 551 554
f 464 554 552
f 466 553 555
f 466 555 542
f 468 470 471
f 471 556 557
f 471 557 472
f 472 557 556
f 472 556 558
f 472 558 559
f 472 559 560
f 472 560 473
f 473 560 474
f 474 559 561
f 474 561 562
f 474 562 475
f 474 560 559
f 475 562 563
f 475 563 482
f 476 564 477
f 476 483 564
f 477 564 478
f 478 565 479
f 478 564 566
f 478 566 567
f 478 567 568
f 478 568 565
f 479 565 568
f 479 568 480
f 480 567 486
f 480 486 481
f 480 568 567
f 481 486 484
f 482 563 566
f 482 566 483
f 483 566 564
f 485 569 487
f 485 486 570
f 485 570 569
f 486 567 571
f 486 571 570
f 487 569 572
f 487 572 573
f 487 573 574
f 487 574 575
f 487 575 576
f 487 576 488
f 488 576 577
f 488 577 578
f 488 578 489
f 489 578 579
f 489 579 580
f 489 580 490
f 490 580 581
f 490 581 497
f 490 497 496
f 493 582 494
f 493 498 582
f 494 582 583
f 494 583 584
f 494 584 585
f 494 585 586
f 494 586 550
f 494 550 495
f 497 581 498
f 498 581 582
f 500 587 588
f 500 588 589
f 500 589 590
f 500 590 591
f 500 591 592
f 500 592 501
f 500 537 593
f 500 593 594
f 500 594 595
f 500 595 587
f 501 592 596
f 501 596 597
f 501 597 598
f 501 598 599
f 502 599 503
f 503 599 598
f 503 598 600
f 503 600 601
f 503 601 602
f 503 602 603
f 503 603 505
f 503 505 504
f 506 604 605
f 507 606 508
f 508 606 607
f 508 607 608
f 508 608 509
f 510 609 610
f 510 610 512
f 510 512 511
f 510 549 609
f 512 610 513
f 513 610 609
f 513 609 611
f 513 611 514
f 514 612 613
f 514 613 614
f 514 614 520
f 514 611 615
f 514 615 612
f 515 521 616
f 515 616 617
f 515 617 618
f 515 618 516
f 516 618 619
f 516 619 588
f 516 588 620
f 516 620 621
f 516 621 622
f 516 622 517
f 517 622 623
f 517 623 532
f 517 532 531
f 517 531 518
f 518 531 524
f 518 524 526
f 520 614 521
f 521 614 624
f 521 624 625
f 521 625 626
f 521 626 627
f 521 627 616
f 522 528 523
f 523 628 524
f 523 528 527
f 523 527 628
f 524 628 629
f 524 629 527
f 524 527 526
f 527 629 628
f 529 530 535
f 532 623 630
f 532 630 631
f 532 631 533
f 533 632 534
f 533 631 630
f 533 630 623
f 533 623 588
f 533 588 632
f 534 632 595
f 534 595 594
f 534 594 535
f 535 594 536
f 536 594 593
f 536 593 537
f 538 633 539
f 538 542 634
f 538 634 633
f 539 633 540
f 540 633 545
f 542 555 634
f 543 615 544
f 543 547 635
f 543 635 636
f 543 636 615
f 544 615 548
f 545 633 637
f 545 637 634
f 545 634 638
f 545 638 546
f 546 638 547
f 547 639 635
f 547 638 640
f 547 640 641
f 547 641 639
f 548 615 611
f 548 611 609
f 548 609 549
f 550 586 585
f 550 585 551
f 551 642 554
f 551 585 643
f 551 643 642
f 552 644 645
f 552 645 553
f 552 554 642
f 552 642 646
f 552 646 644
f 553 645 647
f 553 647 641
f 553 641 640
f 553 640 634
f 553 634 555
f 558 648 649
f 558 649 561
f 558 561 559
f 561 649 562
f 562 649 650
f 562 650 651
f 562 651 563
f 563 651 652
f 563 652 653
f 563 653 566
f 566 653 654
f 566 654 571
f 566 571 567
f 569 655 572
f 569 570 656
f 569 656 657
f 569 657 658
f 569 658 659
f 569 659 655
f 570 571 654
f 570 654 656
f 572 660 573
f 572 655 653
f 572 653 660
f 573 576 574
f 573 660 576
f 574 576 575
f 576 661 577
f 576 660 662
f 576 662 663
f 576 663 664
f 576 664 665
f 576 665 661
f 577 661 578
f 578 661 579
f 579 581 580
f 579 661 583
f 579 583 582
f 579 582 581
f 583 661 665
f 583 665 666
f 583 666 584
f 584 666 585
f 585 666 665
f 585 665 643
f 587 667 588
f 587 595 632
f 587 632 667
f 588 668 589
f 588 667 632
f 588 623 669
f 588 669 622
f 588 622 670
f 588 670 620
f 588 619 671
f 588 671 668
f 589 668 590
f 590 668 672
f 590 672 591
f 591 672 673
f 591 673 674
f 591 674 675
f 591 675 592
f 592 675 676
f 592 676 596
f 596 676 677
f 596 677 678
f 596 678 679
f 596 679 680
f 596 680 681
f 596 681 597
f 597 681 682
f 597 682 598
f 598 682 600
f 600 682 601
f 601 682 683
f 604 684 685
f 604 685 686
f 604 686 605
f 612 687 614
f 612 614 613
f 612 615 688
f 612 688 689
f 612 689 687
f 614 687 690
f 614 690 691
f 614 691 692
f 614 692 693
f 614 693 694
f 614 694 624
f 615 695 689
f 615 689 688
f 615 636 696
f 615 696 697
f 615 697 695
f 616 627 698
f 616 698 699
f 616 699 617
f 617 699 618
f 618 699 700
f 618 700 671
f 618 671 619
f 620 670 621
f 621 670 622
f 622 669 623
f 624 694 701
f 624 701 702
f 624 702 625
f 625 702 738
f 625 738 764
f 625 764 748
f 625 748 774
f 625 774 769
f 625 769 768
f 625 768 765
f 625 765 739
f 625 739 703
f 625 703 741
f 625 741 704
f 625 704 627
f 625 627 626
f 627 704 672
f 627 672 698
f 633 634 637
f 634 640 638
f 635 639 636
f 636 639 705
f 636 705 641
f 636 641 644
f 636 644 706
f 636 706 707
f 636 707 696
f 639 641 705
f 641 647 644
f 642 708 646
f 642 643 664
f 642 664 708
f 643 665 664
f 644 697 706
f 644 647 645
f 644 646 697
f 646 708 697
f 648 709 710
f 648 710 650
f 648 650 711
f 648 711 649
f 649 711 650
f 650 710 712
f 650 712 651
f 651 712 713
f 651 713 714
f 651 714 652
f 652 714 715
f 652 715 716
f 652 716 717
f 652 717 663
f 652 663 653
f 653 657 656
f 653 656 654
f 653 663 718
f 653 718 662
f 653 662 660
f 653 655 659
f 653 659 658
f 653 658 657
f 662 718 663
f 663 717 719
f 663 719 664
f 664 719 708
f 668 671 700
f 668 700 699
f 668 699 698
f 668 698 672
f 672 720 721
f 672 721 674
f 672 674 673
f 672 704 722
f 672 722 720
f 674 721 723
f 674 723 724
f 674 724 725
f 674 725 675
f 675 725 676
f 676 725 726
f 676 726 727
f 676 727 728
f 676 728 677
f 677 728 679
f 677 679 678
f 679 729 680
f 680 729 730
f 680 730 681
f 681 730 731
f 681 731 732
f 681 732 683
f 681 683 682
f 684 733 734
f 684 734 735
f 684 735 685
f 687 689 695
f 687 695 690
f 690 695 691
f 691 695 697
f 691 697 708
f 691 708 692
f 692 708 719
f 692 719 736
f 692 736 737
f 692 737 693
f 693 737 694
f 694 737 701
f 696 707 697
f 697 707 706
f 701 737 702
f 702 737 738
f 703 740 741
f 704 741 753
f 704 753 722
f 709 742 710
f 710 742 743
f 710 743 712
f 712 743 744
f 712 744 745
f 712 745 713
f 713 746 714
f 713 745 744
f 713 744 746
f 714 746 747
f 714 747 715
f 715 747 748
f 715 748 716
f 716 748 749
f 716 749 717
f 717 749 750
f 717 750 719
f 719 750 751
f 719 751 736
f 720 752 721
f 720 722 753
f 720 753 752
f 721 752 723
f 723 752 754
f 723 755 724
f 724 755 756
f 724 756 726
f 724 726 725
f 726 756 755
f 726 755 757
f 726 757 758
f 726 758 759
f 726 759 727
f 727 759 728
f 733 760 734
f 734 760 761
f 736 762 737
f 736 751 762
f 737 762 738
f 738 762 763
f 738 763 764
f 739 765 766
f 740 767 741
f 741 767 754
f 741 754 752
f 741 752 753
f 742 768 769
f 742 769 770
f 742 770 744
f 742 744 743
f 744 770 771
f 744 771 772
f 744 772 773
f 744 773 746
f 746 773 747
f 747 773 772
f 747 772 748
f 748 764 763
f 748 763 749
f 748 772 774
f 749 763 750
f 750 763 751
f 751 763 762
f 760 766 765
f 760 765 761
f 769 774 770
f 770 774 771
f 771 774 772

