# https://github.com/mikedh/trimesh
v 0.00133570 0.06106520 0.02385389
v 0.00133570 0.06015177 0.02384831
v 0.00481611 0.06016604 0.02378416
v 0.01702107 0.05942388 0.02354429
v 0.01045330 0.06270654 0.02366144
v 0.00881388 0.06434786 0.02368096
v 0.00717278 0.06927185 0.02367259
v 0.00388890 0.07420059 0.02369491
v 0.00224612 0.07420059 0.02372280
v 0.00133570 0.07420059 0.02373674
v 0.00133570 0.05937155 0.02383994
v 0.01849420 0.05778255 0.02351082
v 0.01849420 0.05925261 0.02351362
v 0.01849420 0.05942388 0.02351362
v 0.01537829 0.06106520 0.02356940
v 0.01209608 0.06270654 0.02362797
v 0.00881388 0.06763052 0.02365307
v 0.00717278 0.07255927 0.02364191
v 0.00553000 0.07420059 0.02365586
v 0.00224612 0.07584192 0.02344946
v 0.00133570 0.07492849 0.02361681
v 0.00133570 0.05840102 0.02381205
v 0.01849420 0.04793458 0.02327933
v 0.01849420 0.04958066 0.02332395
v 0.01849420 0.05432862 0.02344110
v 0.01849420 0.05596995 0.02348014
v 0.01849420 0.05761128 0.02350804
v 0.01849420 0.06089870 0.02350246
v 0.01537829 0.06270654 0.02355545
v 0.01045330 0.06598919 0.02363354
v 0.00881388 0.07091794 0.02362239
v 0.01045330 0.07091794 0.02358055
v 0.00881388 0.07255927 0.02359450
v 0.00717278 0.07420059 0.02360845
v 0.01702107 0.06598919 0.02348572
v 0.00133570 0.07584192 0.02343831
v 0.00388890 0.07584192 0.02335463
v 0.00388890 0.07683147 0.02258205
v 0.00224612 0.07685051 0.02266014
v 0.00133570 0.05804897 0.02380089
v 0.01849420 0.04629325 0.02323191
v 0.01849420 0.06270654 0.02348572
v 0.01373719 0.06763052 0.02354429
v 0.01209608 0.07255927 0.02349688
v 0.01537829 0.06763052 0.02350246
v 0.01849420 0.06598919 0.02344388
v 0.01849420 0.07091794 0.02332953
v 0.01373719 0.07255927 0.02341321
v 0.00881388 0.07420059 0.02349409
v 0.01849420 0.06434786 0.02346899
v 0.00133570 0.07628912 0.02308688
v 0.00881388 0.07553268 0.02277450
v 0.00518901 0.07675060 0.02237287
v 0.00388890 0.07702654 0.02131858
v 0.00224612 0.07707411 0.02131858
v 0.00133570 0.07693614 0.02204654
v 0.00133570 0.07683623 0.02264062
v 0.00133570 0.05727350 0.02377300
v 0.01849420 0.03316262 0.02278008
v 0.01849420 0.03627401 0.02288885
v 0.01849420 0.04284408 0.02311756
v 0.01849420 0.04448541 0.02317334
v 0.01849420 0.04465192 0.02317892
v 0.01849420 0.07263063 0.02264062
v 0.01702107 0.07255927 0.02296137
v 0.01537829 0.07255927 0.02324586
v 0.01045330 0.07420059 0.02324028
v 0.01045330 0.07529957 0.02255137
v 0.01373719 0.07399602 0.02277450
v 0.01537829 0.07375339 0.02262110
v 0.01163584 0.07512830 0.02231429
v 0.01476014 0.07506645 0.02060457
v 0.00628252 0.07665069 0.02168395
v 0.00388890 0.07707411 0.01967858
v 0.00224612 0.07713596 0.01967858
v 0.00565430 0.07677914 0.02120981
v 0.00133570 0.07707411 0.02059062
v 0.00133570 0.07704556 0.02131858
v 0.00133570 0.05358646 0.02363912
v 0.00133570 0.04793458 0.02343273
v 0.01849420 0.03152129 0.02271314
v 0.01849420 0.07265441 0.02262110
v 0.01702107 0.07351076 0.02233661
v 0.01786765 0.07338706 0.02215253
v 0.01702107 0.07407690 0.02131858
v 0.01533629 0.07460974 0.02121817
v 0.01496339 0.07509976 0.01967858
v 0.01849420 0.07363921 0.02132137
v 0.01849420 0.07364397 0.02130742
v 0.01849420 0.07419108 0.01967858
v 0.01702107 0.07462401 0.01967858
v 0.01578478 0.07492373 0.01967858
v 0.01373719 0.07533287 0.01967858
v 0.01594940 0.07497606 0.01803579
v 0.00881388 0.07624155 0.01967858
v 0.00643202 0.07667923 0.01967858
v 0.00388890 0.07710741 0.01803579
v 0.00224612 0.07730722 0.01311021
v 0.00224612 0.07726916 0.01475300
v 0.00224612 0.07718353 0.01803579
v 0.00553000 0.07684099 0.01967858
v 0.00553000 0.07688381 0.01803579
v 0.00133570 0.07733101 0.01311021
v 0.00133570 0.07727867 0.01475300
v 0.00133570 0.07716925 0.01803579
v 0.00823437 0.07670778 0.00654743
v 0.00860223 0.07677439 0.00162185
v 0.00133570 0.04629325 0.02336300
v 0.01849420 0.02985617 0.02245096
v 0.00133570 0.04465192 0.02326817
v 0.00133570 0.04301059 0.02315382
v 0.00133570 0.04210191 0.02308688
v 0.00133570 0.03972794 0.02291117
v 0.00133570 0.03644528 0.02266572
v 0.00133570 0.03553184 0.02256531
v 0.01849420 0.07362970 0.02133531
v 0.01702107 0.07475721 0.01803579
v 0.01849420 0.07432905 0.01803579
v 0.01615600 0.07501412 0.01527736
v 0.00881388 0.07633194 0.01639300
v 0.01209608 0.07608931 0.00326185
v 0.01071030 0.07656030 -0.00463972
v 0.00961511 0.07666021 -0.00096087
v 0.00553000 0.07691711 0.01639300
v 0.00553000 0.07701226 0.01146742
v 0.00717278 0.07697420 0.00162185
v 0.00717278 0.07699799 -0.00002094
v 0.00553000 0.07706459 0.00818743
v 0.00553000 0.07708362 0.00654743
v 0.00388890 0.07714547 0.01475300
v 0.00224612 0.07736907 0.00818743
v 0.00224612 0.07733101 0.01146742
v 0.00133570 0.07746422 0.00654743
v 0.00133570 0.07743568 0.00818743
v 0.00133570 0.07736907 0.01146742
v 0.00872485 0.07679342 -0.00002094
v 0.00969910 0.07667448 -0.00205700
v 0.00989059 0.07670778 -0.00463972
v 0.01849420 0.02899032 0.02131858
v 0.00133570 0.03474210 0.02242586
v 0.00133570 0.03419499 0.02229477
v 0.00133570 0.03390003 0.02221667
v 0.01666664 0.07517588 0.00326185
v 0.01656586 0.07513306 0.00654743
v 0.01650875 0.07510927 0.00818743
v 0.01636933 0.07506645 0.01146742
v 0.01622991 0.07502840 0.01418123
v 0.01849420 0.07435759 0.01639300
v 0.01670360 0.07519490 0.00162185
v 0.01537829 0.07548511 0.00326185
v 0.01373719 0.07592280 -0.00166094
v 0.01342979 0.07606077 -0.00463972
v 0.00850649 0.07690284 -0.00463972
v 0.00881388 0.07684099 -0.00330373
v 0.00881388 0.07686478 -0.00463972
v 0.00717278 0.07701701 -0.00166094
v 0.00717278 0.07703605 -0.00330373
v 0.00553000 0.07715498 -0.00002094
v 0.00388890 0.07716450 0.01311021
v 0.00133570 0.07750704 0.00326185
v 0.00133570 0.07748801 0.00490464
v 0.00970750 0.07673633 -0.00463972
v 0.01849420 0.03006551 -0.00463972
v 0.00133570 0.03378109 0.02181504
v 0.00133570 0.03368118 0.02137157
v 0.00133570 0.03354798 0.02041212
v 0.00133570 0.03345758 0.01967858
v 0.00133570 0.03291523 0.01475300
v 0.00133570 0.03286290 0.01384096
v 0.00133570 0.03283911 0.01311021
v 0.01537829 0.07565638 -0.00463972
v 0.01537829 0.07556123 -0.00002094
v 0.01537829 0.07552317 0.00162185
v 0.01849420 0.07442895 0.01164593
v 0.01673383 0.07520918 -0.00002094
v 0.01373719 0.07600367 -0.00463972
v 0.00717278 0.07705032 -0.00463972
v 0.00133570 0.07759267 -0.00463972
v 0.01849420 0.07463828 -0.00463972
v 0.00133570 0.03422829 -0.00463972
v 0.01679094 0.07523296 -0.00330373
v 0.01681446 0.07523772 -0.00463972
v 0.01849420 0.07447653 0.00818743
v 0.01752499 0.07490945 0.00162185
v 0.01832790 0.07470013 -0.00463972
v 0.01849420 0.07462401 -0.00330373
v 0.01763585 0.07494752 -0.00463972
v 0.01696732 0.07518539 -0.00463972
v 0.01849420 0.07449555 0.00675382
v 0.01849420 0.07453837 0.00349055
v 0.01849420 0.07456216 0.00162185
f 1 2 3
f 1 3 4
f 1 4 5
f 1 5 6
f 1 6 7
f 1 7 8
f 1 8 9
f 1 9 10
f 1 10 21
f 1 21 36
f 1 36 51
f 1 51 57
f 1 57 56
f 1 56 78
f 1 78 77
f 1 77 105
f 1 105 104
f 1 104 103
f 1 103 135
f 1 135 134
f 1 134 133
f 1 133 161
f 1 161 160
f 1 160 178
f 1 178 180
f 1 180 170
f 1 170 169
f 1 169 168
f 1 168 167
f 1 167 166
f 1 166 165
f 1 165 164
f 1 164 142
f 1 142 141
f 1 141 140
f 1 140 115
f 1 115 114
f 1 114 113
f 1 113 112
f 1 112 111
f 1 111 110
f 1 110 108
f 1 108 80
f 1 80 79
f 1 79 58
f 1 58 40
f 1 40 22
f 1 22 11
f 1 11 2
f 2 11 12
f 2 12 3
f 3 12 4
f 4 12 13
f 4 13 14
f 4 14 15
f 4 15 16
f 4 16 5
f 5 16 6
f 6 16 17
f 6 17 7
f 7 17 31
f 7 31 18
f 7 18 8
f 8 18 19
f 8 19 20
f 8 20 9
f 9 20 21
f 9 21 10
f 11 22 23
f 11 23 24
f 11 24 25
f 11 25 26
f 11 26 27
f 11 27 12
f 12 27 26
f 12 26 25
f 12 25 24
f 12 24 23
f 12 23 41
f 12 41 63
f 12 63 62
f 12 62 61
f 12 61 60
f 12 60 59
f 12 59 81
f 12 81 109
f 12 109 139
f 12 139 163
f 12 163 179
f 12 179 186
f 12 186 191
f 12 191 190
f 12 190 189
f 12 189 183
f 12 183 174
f 12 174 148
f 12 148 118
f 12 118 90
f 12 90 89
f 12 89 88
f 12 88 116
f 12 116 82
f 12 82 64
f 12 64 47
f 12 47 46
f 12 46 50
f 12 50 42
f 12 42 28
f 12 28 14
f 12 14 13
f 14 28 15
f 15 28 16
f 16 28 29
f 16 29 30
f 16 30 17
f 17 30 31
f 18 32 33
f 18 33 34
f 18 34 19
f 18 31 35
f 18 35 32
f 19 34 20
f 20 36 21
f 20 34 37
f 20 37 38
f 20 38 39
f 20 39 36
f 22 40 41
f 22 41 23
f 28 42 29
f 29 42 43
f 29 43 31
f 29 31 30
f 31 43 35
f 32 44 33
f 32 35 45
f 32 45 46
f 32 46 44
f 33 44 34
f 34 44 47
f 34 47 48
f 34 48 49
f 34 49 37
f 35 50 46
f 35 46 45
f 35 43 50
f 36 39 51
f 37 52 38
f 37 49 52
f 38 52 53
f 38 53 54
f 38 54 55
f 38 55 39
f 39 55 56
f 39 56 57
f 39 57 51
f 40 58 59
f 40 59 60
f 40 60 61
f 40 61 62
f 40 62 63
f 40 63 41
f 42 50 43
f 44 46 47
f 47 64 65
f 47 65 66
f 47 66 48
f 48 66 49
f 49 66 67
f 49 67 52
f 52 68 53
f 52 67 69
f 52 69 70
f 52 70 68
f 53 68 71
f 53 71 72
f 53 72 73
f 53 73 54
f 54 74 75
f 54 75 55
f 54 73 76
f 54 76 74
f 55 75 77
f 55 77 78
f 55 78 56
f 58 79 59
f 59 80 81
f 59 79 80
f 64 82 70
f 64 70 65
f 65 70 67
f 65 67 66
f 67 70 69
f 68 70 83
f 68 83 71
f 70 82 83
f 71 83 84
f 71 84 85
f 71 85 86
f 71 86 72
f 72 87 73
f 72 86 85
f 72 85 88
f 72 88 89
f 72 89 90
f 72 90 91
f 72 91 92
f 72 92 87
f 73 87 93
f 73 93 94
f 73 94 95
f 73 95 96
f 73 96 76
f 74 97 98
f 74 98 99
f 74 99 100
f 74 100 75
f 74 76 101
f 74 101 102
f 74 102 124
f 74 124 97
f 75 100 103
f 75 103 104
f 75 104 105
f 75 105 77
f 76 96 106
f 76 106 107
f 76 107 101
f 80 108 81
f 81 108 110
f 81 110 111
f 81 111 112
f 81 112 113
f 81 113 114
f 81 114 115
f 81 115 109
f 82 84 83
f 82 116 84
f 84 116 88
f 84 88 85
f 87 92 117
f 87 117 94
f 87 94 93
f 90 118 91
f 91 118 117
f 91 117 92
f 94 119 96
f 94 96 95
f 94 117 119
f 96 119 120
f 96 120 121
f 96 121 122
f 96 122 123
f 96 123 106
f 97 124 125
f 97 125 126
f 97 126 127
f 97 127 128
f 97 128 129
f 97 129 130
f 97 130 131
f 97 131 132
f 97 132 98
f 98 132 161
f 98 161 133
f 98 133 134
f 98 134 135
f 98 135 103
f 98 103 99
f 99 103 100
f 101 107 102
f 102 107 136
f 102 136 124
f 106 123 107
f 107 123 137
f 107 137 138
f 107 138 136
f 109 115 140
f 109 140 141
f 109 141 142
f 109 142 139
f 117 118 143
f 117 143 144
f 117 144 145
f 117 145 146
f 117 146 147
f 117 147 119
f 118 148 149
f 118 149 143
f 119 147 150
f 119 150 151
f 119 151 121
f 119 121 120
f 121 151 122
f 122 138 137
f 122 137 123
f 122 151 152
f 122 152 176
f 122 176 171
f 122 171 182
f 122 182 188
f 122 188 187
f 122 187 185
f 122 185 179
f 122 179 163
f 122 163 180
f 122 180 178
f 122 178 177
f 122 177 153
f 122 153 155
f 122 155 162
f 122 162 138
f 124 136 125
f 125 136 126
f 126 153 127
f 126 136 154
f 126 154 155
f 126 155 153
f 127 153 156
f 127 156 129
f 127 129 128
f 129 156 157
f 129 157 158
f 129 158 159
f 129 159 130
f 130 159 131
f 131 159 160
f 131 160 161
f 131 161 132
f 136 138 162
f 136 162 154
f 139 142 164
f 139 164 165
f 139 165 166
f 139 166 167
f 139 167 168
f 139 168 169
f 139 169 170
f 139 170 163
f 143 149 171
f 143 171 144
f 144 171 172
f 144 172 145
f 145 172 146
f 146 172 173
f 146 173 150
f 146 150 147
f 148 174 149
f 149 175 171
f 149 174 175
f 150 173 176
f 150 176 152
f 150 152 151
f 153 177 157
f 153 157 156
f 154 162 155
f 157 177 158
f 158 178 159
f 158 177 178
f 159 178 160
f 163 170 180
f 171 176 172
f 171 175 181
f 171 181 182
f 172 176 173
f 174 183 184
f 174 184 175
f 175 184 181
f 179 185 186
f 181 187 188
f 181 188 182
f 181 184 187
f 183 189 184
f 184 189 190
f 184 190 191
f 184 191 186
f 184 186 185
f 184 185 187

