# https://github.com/mikedh/trimesh
v -0.08286529 -0.00380074 -0.02628870
v -0.08278475 -0.00460227 -0.01315326
v -0.08285954 -0.00380074 -0.02136092
v -0.08273298 -0.00380074 -0.02799508
v -0.08265819 -0.00624348 -0.02628870
v -0.08231301 -0.01048010 -0.02464611
v -0.08184702 -0.01609840 -0.02136092
v -0.08197934 -0.01445719 -0.01807573
v -0.08229575 -0.01027400 0.00654192
v -0.08228999 -0.01020530 0.01639217
v -0.08235903 -0.00941141 0.01310698
v -0.08249135 -0.00788470 0.00654192
v -0.08277900 -0.00460227 -0.00986807
v -0.08285379 -0.00380074 -0.01807573
v -0.08258915 -0.00380074 -0.02860109
v -0.08239355 -0.00750302 -0.02733592
v -0.08230725 -0.01043430 -0.02549664
v -0.08197934 -0.01445719 -0.02300351
v -0.08184127 -0.01609840 -0.01807573
v -0.08197358 -0.01445719 -0.01315326
v -0.08182976 -0.01609840 -0.02300351
v -0.08167443 -0.01773962 -0.02136092
v -0.08227849 -0.01015186 0.01803476
v -0.08235328 -0.00932744 0.01803476
v -0.08235328 -0.00938851 0.01639217
v -0.08248559 -0.00788470 0.00982711
v -0.08183551 -0.01609840 -0.01643845
v -0.08166867 -0.01773962 -0.01971832
v -0.08165716 -0.01773962 -0.01807573
v -0.08163991 -0.01773962 -0.01643845
v -0.08277324 -0.00460227 -0.00822548
v -0.08284228 -0.00380074 -0.01479586
v -0.08246833 -0.00380074 -0.02909014
v -0.08241656 -0.00428929 -0.02899446
v -0.08228999 -0.00538852 -0.02871804
v -0.08203687 -0.00798393 -0.02790471
v -0.08160539 -0.01281597 -0.02628870
v -0.08089777 -0.01938083 -0.02436437
v -0.08150184 -0.01609840 -0.02464611
v -0.08159964 -0.01773962 -0.02300351
v -0.08130624 -0.01938083 -0.02136092
v -0.08131774 -0.01938083 -0.01971832
v -0.08131774 -0.01938083 -0.01807573
v -0.08226698 -0.01002973 0.01967736
v -0.08234752 -0.00920530 0.01967736
v -0.08213467 -0.01117476 0.01803476
v -0.08247409 -0.00788470 0.01146970
v -0.08276749 -0.00460227 -0.00658820
v -0.08129473 -0.01938083 -0.01151067
v -0.08153635 -0.01773962 -0.00986807
v -0.08187578 -0.01445719 0.00161945
v -0.08124870 -0.01938083 -0.00822548
v -0.08279626 -0.00380074 -0.00822548
v -0.08212891 -0.00380074 -0.02939847
v -0.08066191 -0.00708317 -0.03039253
v -0.08097256 -0.00952591 -0.02931872
v -0.08077696 -0.01117476 -0.02898914
v -0.08067341 -0.01205262 -0.02878183
v -0.07756680 -0.02430447 -0.02912736
v -0.08092654 -0.01609840 -0.02606543
v -0.08053534 -0.01938083 -0.02518300
v -0.07912586 -0.02430447 -0.02570396
v -0.07902231 -0.02514416 -0.02548069
v -0.08074820 -0.02045716 -0.02403478
v -0.08121419 -0.01938083 -0.02300351
v -0.08081148 -0.02064036 -0.02300351
v -0.08084600 -0.02073197 -0.02136092
v -0.08086901 -0.02080830 -0.01971832
v -0.08061013 -0.02170143 -0.01807573
v -0.08088052 -0.02087701 -0.01807573
v -0.08089777 -0.02095334 -0.01479586
v -0.08090353 -0.02097624 -0.01315326
v -0.08069067 -0.02195334 -0.00330833
v -0.08069642 -0.02196860 -0.00166574
v -0.08224973 -0.00986179 0.02131995
v -0.08210590 -0.01117476 0.01967736
v -0.08207138 -0.01117476 0.02131995
v -0.08233026 -0.00903736 0.02131995
v -0.08197934 -0.01281597 0.01146970
v -0.08155937 -0.01445719 0.02131995
v -0.08274447 -0.00460227 -0.00494561
v -0.08069067 -0.02195334 -0.00002314
v -0.08067916 -0.02191517 0.00161945
v -0.08148458 -0.01773962 -0.00658820
v -0.08077121 -0.02089991 0.00654192
v -0.08119693 -0.01938083 -0.00494561
v -0.08065040 -0.02178540 0.00517575
v -0.08277324 -0.00380074 -0.00658820
v -0.08265243 -0.00460227 0.00161945
v -0.08108762 -0.00380074 -0.03024368
v -0.08068492 -0.00380074 -0.03039784
v -0.08067341 -0.00460227 -0.03039784
v -0.07983923 -0.00624348 -0.03040847
v -0.07655428 -0.01938083 -0.03042973
v -0.07326933 -0.03251054 -0.03045100
v -0.07326933 -0.03415176 -0.03044037
v -0.07739421 -0.02044189 -0.03040316
v -0.07410351 -0.03504488 -0.03039784
v -0.07936748 -0.01609840 -0.02937188
v -0.07596173 -0.03086933 -0.02919114
v -0.07905682 -0.01872434 -0.02882967
v -0.07581790 -0.03206016 -0.02893067
v -0.07730792 -0.02648767 -0.02859577
v -0.07860809 -0.02255639 -0.02779308
v -0.07914887 -0.02102204 -0.02740502
v -0.07742298 -0.02860216 -0.02721366
v -0.07875767 -0.02430447 -0.02652791
v -0.07927544 -0.02255639 -0.02630465
v -0.07569133 -0.03315176 -0.02861172
v -0.07431062 -0.03744182 -0.02920178
v -0.07414954 -0.03842655 -0.02890941
v -0.08052383 -0.02145716 -0.02300351
v -0.07458101 -0.03744182 -0.02792598
v -0.07419556 -0.03854869 -0.02792598
v -0.08015564 -0.02266326 -0.02136092
v -0.07974718 -0.02430447 -0.01643845
v -0.07903381 -0.02682354 -0.01122361
v -0.08062738 -0.02174723 -0.01643845
v -0.07749777 -0.03204490 -0.00166574
v -0.07962062 -0.02594569 0.01639217
v -0.07838373 -0.02922811 -0.00330833
v -0.07791198 -0.03086933 0.00161945
v -0.07885547 -0.02789988 0.00161945
v -0.07963212 -0.02594569 0.01803476
v -0.08004059 -0.02430447 0.01639217
v -0.08231301 -0.00886179 0.02217048
v -0.08073670 -0.01904495 0.02226085
v -0.08233026 -0.00811370 0.02131995
v -0.08252012 -0.00624348 0.00982711
v -0.08082874 -0.01938083 0.01803476
v -0.08078272 -0.01933503 0.02131995
v -0.08002908 -0.02430447 0.01803476
v -0.08001182 -0.02430447 0.01967736
v -0.08062738 -0.02163273 0.00818451
v -0.08030522 -0.02266326 0.01803476
v -0.08067916 -0.02031976 0.01803476
v -0.08040877 -0.02266326 0.01146970
v -0.08274447 -0.00380074 -0.00494561
v -0.08253162 -0.00460227 0.00654192
v -0.08255463 -0.00380074 0.00405942
v -0.08259491 -0.00380074 0.00241683
v -0.08261216 -0.00380074 0.00161945
v -0.08268120 -0.00380074 -0.00166574
v -0.07983923 -0.00380074 -0.03040847
v -0.07735394 -0.00380074 -0.03042973
v -0.07655428 -0.00788470 -0.03043505
v -0.07490893 -0.01609840 -0.03044568
v -0.07406899 -0.00380074 -0.03045100
v -0.07162973 -0.03908303 -0.03045632
v -0.07412652 -0.03415176 -0.03040847
v -0.07253870 -0.03908303 -0.03042442
v -0.07446019 -0.03567084 -0.02967489
v -0.07249268 -0.04002196 -0.03041379
v -0.07700876 -0.02918231 -0.02782498
v -0.07278033 -0.04063265 -0.02957389
v -0.07254446 -0.04167081 -0.02903167
v -0.07389065 -0.03937311 -0.02792598
v -0.07736545 -0.03002200 -0.02518832
v -0.08009236 -0.02266326 -0.02300351
v -0.07483989 -0.03744182 -0.02136092
v -0.07471908 -0.03744182 -0.02464611
v -0.07563955 -0.03470901 -0.02628870
v -0.07593296 -0.03389222 -0.02628870
v -0.07897053 -0.02664034 -0.01479586
v -0.07879219 -0.02745713 -0.01166483
v -0.07718135 -0.03280062 -0.00330833
v -0.07747476 -0.03197619 -0.00330833
v -0.07787746 -0.03086933 -0.00166574
v -0.07721012 -0.03286932 -0.00166574
v -0.07723313 -0.03291512 -0.00002314
v -0.07750352 -0.03209070 -0.00002314
v -0.07848152 -0.02922811 0.00654192
v -0.07794075 -0.03086933 0.00489932
v -0.07890725 -0.02807545 0.01310698
v -0.07919490 -0.02721286 0.01803476
v -0.07962062 -0.02594569 0.01967736
v -0.07890725 -0.02809072 0.01474957
v -0.08163416 -0.00789996 0.02265954
v -0.08231301 -0.00844958 0.02217048
v -0.08084024 -0.01773962 0.02240438
v -0.08097256 -0.01609840 0.02254259
v -0.08109913 -0.01445719 0.02263828
v -0.08122569 -0.01281597 0.02270207
v -0.08135226 -0.01117476 0.02273396
v -0.08161690 -0.00945721 0.02264891
v -0.07997155 -0.02430447 0.02131995
v -0.07928694 -0.02594569 0.02242564
v -0.07947679 -0.02430447 0.02256917
v -0.08240506 -0.00624348 0.01474957
v -0.08210590 -0.00380074 0.02131995
v -0.08219795 -0.00380074 0.01803476
v -0.08230150 -0.00543433 0.01720017
v -0.08027645 -0.02266326 0.01967736
v -0.08249135 -0.00380074 0.00654192
v -0.07655428 -0.00380074 -0.03043505
v -0.07490893 -0.00380074 -0.03044568
v -0.07242939 -0.00380074 -0.03045632
v -0.05521074 -0.06041119 -0.03046163
v -0.06834479 -0.04399904 -0.03045100
v -0.07153768 -0.04063265 -0.03042973
v -0.06821246 -0.04549522 -0.03042442
v -0.06919623 -0.04485400 -0.03040316
v -0.07202669 -0.04112119 -0.03012673
v -0.07118675 -0.04365553 -0.02792598
v -0.07200368 -0.04258683 -0.02792598
v -0.07260198 -0.04177004 -0.02792598
v -0.07322906 -0.04072425 -0.02792598
v -0.07102567 -0.04345706 -0.02923899
v -0.06602058 -0.04992268 -0.02911673
v -0.05949671 -0.05818218 -0.02919114
v -0.06102125 -0.05638830 -0.02893599
v -0.06754512 -0.04812879 -0.02882435
v -0.07390791 -0.03944181 -0.02628870
v -0.07558203 -0.03621282 -0.01315326
v -0.07715259 -0.03271665 -0.00494561
v -0.07714684 -0.03238077 -0.00834774
v -0.07664058 -0.03415176 -0.00330833
v -0.07668660 -0.03415176 -0.00002314
v -0.07669810 -0.03415176 0.00161945
v -0.07723313 -0.03293039 0.00161945
v -0.07558778 -0.03627389 -0.01151067
v -0.07918914 -0.02716705 0.01967736
v -0.07958034 -0.02594569 0.02131995
v -0.07752653 -0.03206016 0.00489932
v -0.08142705 -0.00624348 0.02278712
v -0.08138678 -0.00460227 0.02280838
v -0.08136952 -0.00380074 0.02281370
v -0.08175497 -0.00380074 0.02205353
v -0.07983923 -0.01609840 0.02310607
v -0.07983923 -0.01445719 0.02322833
v -0.07983923 -0.01281597 0.02330807
v -0.07983923 -0.01117476 0.02336123
v -0.07983923 -0.00380074 0.02350475
v -0.07910284 -0.02696095 0.02225022
v -0.07750927 -0.03035025 0.02228743
v -0.07773939 -0.02922811 0.02244159
v -0.07819387 -0.02594569 0.02287217
v -0.07819387 -0.02430447 0.02304228
v -0.03879750 -0.00380074 -0.03045632
v -0.02409290 -0.05384633 -0.03045632
v -0.04044286 -0.07026610 -0.03045632
v -0.04208245 -0.07026610 -0.03045632
v -0.05357114 -0.06206003 -0.03045632
v -0.05509568 -0.06193790 -0.03042973
v -0.05671802 -0.06025851 -0.03042442
v -0.06165408 -0.05371656 -0.03042973
v -0.02409290 -0.03408306 -0.03045632
v -0.06264359 -0.05309061 -0.03041379
v -0.05768452 -0.05960966 -0.03039784
v -0.06971975 -0.04552575 -0.02792598
v -0.06971399 -0.04578530 -0.02631528
v -0.07003041 -0.04564026 -0.02464611
v -0.07073802 -0.04473187 -0.02464611
v -0.06254579 -0.05460205 -0.02830340
v -0.07260774 -0.04180058 -0.02628870
v -0.07078980 -0.04478530 -0.02300351
v -0.07324632 -0.04072425 -0.02628870
v -0.05790889 -0.05989211 -0.02956857
v -0.05751768 -0.06104477 -0.02792598
v -0.05816777 -0.06022798 -0.02792598
v -0.07390216 -0.03947998 -0.02464611
v -0.07433363 -0.03870136 -0.01971832
v -0.07431637 -0.03870136 -0.02136092
v -0.07600199 -0.03548763 -0.00658820
v -0.07666934 -0.03415176 0.00325673
v -0.07601350 -0.03548000 -0.00494561
v -0.07601350 -0.03550290 0.00325673
v -0.07558778 -0.03633495 0.00489932
v -0.07599049 -0.03551053 0.00489932
v -0.07721012 -0.03290749 0.00325673
v -0.07751502 -0.03201436 0.00654192
v -0.07916613 -0.02709835 0.02131995
v -0.08063314 -0.00380074 0.02315391
v -0.07819387 -0.01938083 0.02320176
v -0.07819387 -0.01445719 0.02334528
v -0.07490893 -0.01938083 0.02335060
v -0.06834479 -0.02758690 0.02339312
v -0.06670519 -0.00380074 0.02383965
v -0.07760132 -0.03054872 0.02131995
v -0.07251569 -0.04168608 0.02131995
v -0.07245241 -0.04155630 0.02214390
v -0.07590419 -0.03373191 0.02230338
v -0.07428761 -0.03709831 0.02229806
v -0.07655428 -0.02922811 0.02285091
v -0.07082432 -0.04484637 0.02215453
v -0.07655428 -0.02758690 0.02299975
v -0.07655428 -0.02594569 0.02307417
v -0.03806112 -0.00380074 -0.03044037
v -0.02409290 -0.07847217 -0.03045100
v -0.04360124 -0.07014397 -0.03042973
v -0.04850278 -0.06685391 -0.03042442
v -0.02566347 -0.07847217 -0.03045100
v -0.03715791 -0.07354853 -0.03045100
v -0.03869395 -0.07344166 -0.03042973
v -0.04297416 -0.07112870 -0.03041379
v -0.05608520 -0.06131194 -0.03041379
v -0.05357114 -0.06322033 -0.03042442
v -0.05446861 -0.06293026 -0.03041379
v -0.03756062 -0.00380074 -0.03042442
v -0.03632373 -0.00535799 -0.03040316
v -0.02409290 -0.03271665 -0.03042442
v -0.05564221 -0.06248751 -0.02956857
v -0.05638435 -0.06167072 -0.02956857
v -0.06927676 -0.04660208 -0.02464611
v -0.06703886 -0.05044940 -0.01821394
v -0.06757964 -0.04982345 -0.01775146
v -0.06761991 -0.04988451 -0.01643845
v -0.05973833 -0.05848753 -0.02628870
v -0.06065881 -0.05757150 -0.02464611
v -0.06369063 -0.05396846 -0.02300351
v -0.05899045 -0.05918218 -0.02792598
v -0.07096814 -0.04506011 0.01967736
v -0.06762566 -0.04991505 -0.01479586
v -0.06713090 -0.05072420 -0.01315326
v -0.06768319 -0.04997612 -0.00494561
v -0.06905815 -0.04793032 0.00489932
v -0.07155494 -0.04399904 0.01967736
v -0.07265952 -0.04192272 0.01474957
v -0.05670076 -0.06199896 -0.02792598
v -0.05916304 -0.05941119 -0.02464611
v -0.06074510 -0.05769364 -0.02300351
v -0.06554884 -0.05260969 -0.01643845
v -0.05908825 -0.05931195 -0.02628870
v -0.07661756 -0.03415176 0.00489932
v -0.07718135 -0.03288459 0.00489932
v -0.07558203 -0.03629679 0.00654192
v -0.07264801 -0.04193035 0.01639217
v -0.07745750 -0.03186932 0.00982711
v -0.07733093 -0.03159452 0.01639217
v -0.07604226 -0.03431206 0.01808792
v -0.07607678 -0.03409832 0.01967736
v -0.07377559 -0.03920517 0.01967736
v -0.07309099 -0.04072425 0.01967736
v -0.07258473 -0.04184638 0.01967736
v -0.07411501 -0.03831968 0.02077773
v -0.07655428 -0.02430447 0.02312733
v -0.07162973 -0.02758690 0.02326554
v -0.07326933 -0.02430447 0.02328681
v -0.07162973 -0.02594569 0.02331339
v -0.06834479 -0.02922811 0.02335591
v -0.06670519 -0.03086933 0.02335060
v -0.06670519 -0.02922811 0.02338249
v -0.06670519 -0.01445719 0.02365360
v -0.06618167 -0.00753355 0.02378649
v -0.06505983 -0.00380074 0.02384497
v -0.07221079 -0.04266317 0.01967736
v -0.07090486 -0.04496087 0.02131995
v -0.07490893 -0.03251054 0.02280307
v -0.07096814 -0.04399904 0.02223427
v -0.06099248 -0.05799898 0.02059699
v -0.05947945 -0.05980050 0.02081494
v -0.05796067 -0.06152568 0.02090531
v -0.06403005 -0.05286160 0.02208543
v -0.06925951 -0.04658682 0.02219706
v -0.06988083 -0.04549522 0.02225022
v -0.06998438 -0.04399904 0.02242564
v -0.07490893 -0.02922811 0.02301570
v -0.07162973 -0.03086933 0.02312733
v -0.07162973 -0.02922811 0.02320707
v -0.07490893 -0.02758690 0.02309544
v -0.07326933 -0.03579297 0.02273928
v -0.07162973 -0.03908303 0.02266485
v -0.06998438 -0.02922811 0.02329212
v -0.02409290 -0.07937294 -0.03042442
v -0.02566347 -0.07935767 -0.03041910
v -0.02668174 -0.07932713 -0.03040847
v -0.03387296 -0.07518975 -0.03044568
v -0.03807263 -0.07440349 -0.03040847
v -0.04153017 -0.07291494 -0.02923899
v -0.04785844 -0.06782337 -0.03040316
v -0.05261615 -0.06438063 -0.03036594
v -0.05481954 -0.06319743 -0.02956857
v -0.03689902 -0.00380074 -0.02956857
v -0.02409290 -0.03184643 -0.02956857
v -0.02409290 -0.03198383 -0.02985563
v -0.02409290 -0.03268612 -0.03041910
v -0.05597014 -0.06281575 -0.02792598
v -0.06610112 -0.05166313 -0.01807573
v -0.06619893 -0.05178527 -0.01643845
v -0.06627947 -0.05188451 -0.01479586
v -0.06709639 -0.05073184 -0.01479586
v -0.06545679 -0.05247992 -0.01807573
v -0.07037559 -0.04587690 0.01967736
v -0.06905240 -0.04793032 0.00654192
v -0.06630823 -0.05192267 -0.01315326
v -0.06713090 -0.05073947 -0.01151067
v -0.06630823 -0.05193031 -0.01151067
v -0.06768319 -0.04996085 -0.00330833
v -0.07222804 -0.04272424 0.01803476
v -0.05757522 -0.06112111 -0.02628870
v -0.06237895 -0.05606006 -0.01971832
v -0.06472616 -0.05358679 -0.01643845
v -0.06396677 -0.05433488 -0.01807573
v -0.06560062 -0.05270129 -0.01479586
v -0.07711807 -0.03276245 0.00818451
v -0.07321755 -0.04072425 0.01639217
v -0.07488591 -0.03744182 0.01146970
v -0.07261925 -0.04189981 0.01803476
v -0.07705479 -0.03262505 0.01146970
v -0.06834479 -0.03086933 0.02331339
v -0.06670519 -0.03251054 0.02330276
v -0.06505983 -0.03251054 0.02330276
v -0.06558336 -0.00753355 0.02378649
v -0.03964319 -0.00380074 0.02336655
v -0.02409290 -0.06698367 0.02198974
v -0.06955866 -0.04696850 0.01967736
v -0.06596881 -0.05149520 0.02078836
v -0.07162973 -0.04072425 0.02248943
v -0.06247675 -0.05615166 0.01967736
v -0.05956574 -0.05992264 0.01967736
v -0.05892141 -0.06073943 0.01967736
v -0.05850145 -0.06037302 0.02123490
v -0.06244223 -0.05456388 0.02212796
v -0.05809874 -0.06166309 0.01967736
v -0.05718977 -0.06247988 0.01967736
v -0.05625779 -0.06306003 0.02079368
v -0.05682733 -0.06206766 0.02120831
v -0.06825849 -0.04718987 0.02227148
v -0.06998438 -0.04236546 0.02257449
v -0.06834479 -0.04564026 0.02243627
v -0.07326933 -0.03086933 0.02302633
v -0.06834479 -0.03251054 0.02323896
v -0.06998438 -0.03908303 0.02276586
v -0.06998438 -0.03251054 0.02313797
v -0.02409290 -0.07941110 -0.03041910
v -0.02409290 -0.08025079 -0.02957920
v -0.03125536 -0.07749508 -0.03036594
v -0.03474741 -0.07602944 -0.03040316
v -0.03016229 -0.07770119 -0.03041379
v -0.02409290 -0.08028896 -0.02951541
v -0.02726279 -0.07959431 -0.02965894
v -0.03869395 -0.07459433 -0.02946757
v -0.03966045 -0.07439586 -0.02885625
v -0.04635692 -0.06956381 -0.02911673
v -0.05305913 -0.06473178 -0.02927088
v -0.03668041 -0.00380074 -0.02798445
v -0.02409290 -0.03164032 -0.02889346
v -0.05514746 -0.06345697 -0.02792598
v -0.05599315 -0.06283865 -0.02628870
v -0.05675254 -0.06202186 -0.02628870
v -0.06959893 -0.04702956 0.01474957
v -0.06957592 -0.04699140 0.01803476
v -0.06766018 -0.04992268 -0.00002314
v -0.06901788 -0.04790742 0.00982711
v -0.06562363 -0.05273946 -0.01315326
v -0.06564089 -0.05274710 -0.01151067
v -0.06565239 -0.05274710 -0.00986807
v -0.06630248 -0.05192267 -0.00986807
v -0.06706187 -0.05078527 -0.00330833
v -0.06240771 -0.05610586 -0.01807573
v -0.06477794 -0.05361732 -0.01479586
v -0.06400704 -0.05440358 -0.01643845
v -0.06670519 -0.03415176 0.02322302
v -0.06505983 -0.03579297 0.02318049
v -0.06505983 -0.03415176 0.02325492
v -0.06342024 -0.03579297 0.02319644
v -0.03879750 -0.00380074 0.02334528
v -0.03593252 -0.06459437 0.02214390
v -0.02566347 -0.06698367 0.02199506
v -0.02409290 -0.06862489 0.02191001
v -0.02409290 -0.06541116 0.02200569
v -0.06254003 -0.05623563 0.01310698
v -0.06040568 -0.05887684 0.01803476
v -0.05958301 -0.05993790 0.01803476
v -0.06475493 -0.05369366 -0.00002314
v -0.06110179 -0.05813639 0.01146970
v -0.05961177 -0.05993790 0.01474957
v -0.05891566 -0.06075470 0.01803476
v -0.06263208 -0.05635013 0.00325673
v -0.06053800 -0.05602952 0.02211201
v -0.05943918 -0.05639594 0.02214390
v -0.06134917 -0.05493793 0.02215453
v -0.06184968 -0.05395320 0.02219706
v -0.06670519 -0.04728147 0.02240970
v -0.05685034 -0.06041119 0.02193127
v -0.05889840 -0.06076233 0.01639217
v -0.05888114 -0.06076233 0.01474957
v -0.05809298 -0.06164782 0.01803476
v -0.05601041 -0.06286156 -0.02464611
v -0.05603917 -0.06288446 -0.02136092
v -0.05630381 -0.06309819 0.01146970
v -0.05634408 -0.06312873 0.01639217
v -0.05534881 -0.06396842 0.01967736
v -0.05448587 -0.06459437 0.02063421
v -0.04629363 -0.07117450 0.02061294
v -0.04807130 -0.06964015 0.02072989
v -0.05357114 -0.06370125 0.02162295
v -0.05521074 -0.06206003 0.02180369
v -0.04690920 -0.07022030 0.02092657
v -0.04862934 -0.06864015 0.02106479
v -0.06834479 -0.04399904 0.02254791
v -0.06834479 -0.04236546 0.02264891
v -0.06834479 -0.03744182 0.02295191
v -0.02843065 -0.07942637 -0.02916988
v -0.03538024 -0.07618211 -0.02944099
v -0.03636400 -0.07602180 -0.02880309
v -0.03184791 -0.07784623 -0.02927088
v -0.02409290 -0.08086147 -0.02819708
v -0.02566347 -0.07995309 -0.02956857
v -0.03879750 -0.07490730 -0.02792598
v -0.03970072 -0.07442639 -0.02792598
v -0.04052340 -0.07384624 -0.02792598
v -0.04366452 -0.07162487 -0.02792598
v -0.05206962 -0.06567834 -0.02792598
v -0.05118941 -0.06621269 -0.02894130
v -0.03620867 -0.00380074 0.02184090
v -0.02409290 -0.03142658 -0.02792598
v -0.05517047 -0.06347988 -0.02628870
v -0.05404289 -0.06427376 -0.02792598
v -0.05408316 -0.06430430 -0.02628870
v -0.05412343 -0.06432720 -0.02464611
v -0.05415795 -0.06435010 -0.02300351
v -0.05418672 -0.06436536 -0.02136092
v -0.05777082 -0.06134248 -0.00986807
v -0.05761548 -0.06117454 -0.02300351
v -0.05999147 -0.05868600 -0.01971832
v -0.06756813 -0.04980054 0.00982711
v -0.06482396 -0.05365549 -0.01151067
v -0.06412210 -0.05454098 -0.00658820
v -0.06413936 -0.05455625 -0.00494561
v -0.06564664 -0.05273183 -0.00822548
v -0.06414511 -0.05454862 -0.00330833
v -0.06628522 -0.05190740 -0.00822548
v -0.06625646 -0.05186924 -0.00494561
v -0.06670519 -0.03579297 0.02312733
v -0.06505983 -0.03744182 0.02308481
v -0.06342024 -0.04072425 0.02294128
v -0.06177489 -0.04072425 0.02297849
v -0.05193155 -0.05056390 0.02263828
v -0.03815317 -0.06457911 0.02214390
v -0.03715791 -0.06461727 0.02214390
v -0.02409290 -0.03579297 0.02215985
v -0.02409290 -0.03569374 0.02215985
v -0.02409290 -0.03415176 0.02215453
v -0.02409290 -0.03380825 0.02214922
v -0.02409290 -0.03251054 0.02212796
v -0.03799784 -0.00380074 0.02319644
v -0.02409290 -0.06376995 0.02201632
v -0.03059376 -0.07683096 0.02138374
v -0.02730882 -0.07847217 0.02126147
v -0.02409290 -0.07847217 0.02123490
v -0.06560637 -0.05267076 -0.00330833
v -0.06413361 -0.05453335 -0.00166574
v -0.06263783 -0.05635013 0.00161945
v -0.05849569 -0.05744173 0.02210669
v -0.06004899 -0.05548754 0.02217580
v -0.05685034 -0.05876997 0.02207480
v -0.05849569 -0.05548754 0.02222364
v -0.06505983 -0.03908303 0.02298912
v -0.06670519 -0.03744182 0.02302633
v -0.06670519 -0.03908303 0.02292533
v -0.06505983 -0.04892269 0.02237780
v -0.06670519 -0.04564026 0.02251601
v -0.04700700 -0.06862489 0.02154853
v -0.04865235 -0.06698367 0.02167079
v -0.05029195 -0.06534246 0.02177711
v -0.05193155 -0.06370125 0.02187279
v -0.05357114 -0.06206003 0.02195253
v -0.05521074 -0.06041119 0.02201632
v -0.05886388 -0.06074706 0.01310698
v -0.05808148 -0.06163255 0.01639217
v -0.05422123 -0.06438827 -0.01807573
v -0.05802395 -0.06158675 0.01146970
v -0.05798368 -0.06155622 0.00818451
v -0.05792614 -0.06150279 0.00325673
v -0.05521074 -0.06359438 -0.01807573
v -0.05345033 -0.06507529 -0.01315326
v -0.05259889 -0.06603711 0.00818451
v -0.05263916 -0.06606765 0.01310698
v -0.05082122 -0.06757146 0.01639217
v -0.05186827 -0.06676994 0.01967736
v -0.05002731 -0.06825084 0.01967736
v -0.04633965 -0.07121267 0.01967736
v -0.04536740 -0.07193022 0.01967736
v -0.04438365 -0.07262487 0.01967736
v -0.04334811 -0.07296075 0.02075647
v -0.04536740 -0.07151037 0.02083621
v -0.04536740 -0.07026610 0.02139969
v -0.02566347 -0.08051034 -0.02792598
v -0.02730882 -0.08001415 -0.02792598
v -0.02860324 -0.07950270 -0.02792598
v -0.03640427 -0.07604470 -0.02792598
v -0.03722695 -0.07567829 -0.02792598
v -0.02942591 -0.07914393 -0.02792598
v -0.02409290 -0.08088438 -0.02792598
v -0.02435754 -0.08082331 -0.02792598
v -0.03879750 -0.07496074 -0.02628870
v -0.03974099 -0.07444929 -0.02628870
v -0.04312374 -0.07288441 -0.00166574
v -0.04304895 -0.07283098 -0.00494561
v -0.04195589 -0.07322029 -0.01643845
v -0.04176029 -0.07308289 -0.02464611
v -0.04650649 -0.06967069 -0.02628870
v -0.05036098 -0.06727375 -0.01643845
v -0.05226522 -0.06581574 -0.01971832
v -0.05323172 -0.06485392 -0.02792598
v -0.02409290 -0.03083116 0.02153790
v -0.03620867 -0.00380074 0.02234059
v -0.05326624 -0.06488445 -0.02628870
v -0.05155761 -0.06647986 -0.01479586
v -0.04627062 -0.07115159 0.01310698
v -0.04629938 -0.07117450 0.01474957
v -0.04631664 -0.07118977 0.01639217
v -0.05942767 -0.05971653 -0.00330833
v -0.06199350 -0.05697609 -0.00171889
v -0.06406457 -0.05447992 -0.01151067
v -0.05958301 -0.05988447 0.00982711
v -0.06262058 -0.05633487 -0.00002314
v -0.06013529 -0.04564026 0.02273928
v -0.05685034 -0.04728147 0.02271801
v -0.04208245 -0.06206003 0.02220769
v -0.04405572 -0.06269362 0.02212796
v -0.04865235 -0.06206003 0.02206416
v -0.04865235 -0.06370125 0.02195785
v -0.04208245 -0.07026610 0.02163890
v -0.03879750 -0.06862489 0.02183558
v -0.03715791 -0.06862489 0.02187279
v -0.03551831 -0.07190732 0.02167079
v -0.03387296 -0.07518975 0.02146879
v -0.03223336 -0.07683096 0.02137842
v -0.03223336 -0.07518975 0.02148474
v -0.02409290 -0.03089223 0.02158043
v -0.02492133 -0.03023574 0.02211201
v -0.03710038 -0.00380074 0.02288280
v -0.02894841 -0.07847217 0.02125084
v -0.02409290 -0.08012103 0.02099568
v -0.06342024 -0.04892269 0.02244690
v -0.05357114 -0.06041119 0.02205353
v -0.05239754 -0.05945699 0.02213327
v -0.05685034 -0.05384633 0.02235122
v -0.04208245 -0.07190732 0.02147411
v -0.04372205 -0.07026610 0.02159637
v -0.04536740 -0.06862489 0.02167611
v -0.04865235 -0.06534246 0.02183558
v -0.05246657 -0.06593025 -0.00822548
v -0.05172444 -0.06665543 0.00161945
v -0.04715083 -0.07054091 0.01803476
v -0.04536740 -0.07191495 0.01803476
v -0.04436063 -0.07262487 0.01803476
v -0.04356097 -0.07307525 0.01967736
v -0.03800359 -0.07602180 0.02051726
v -0.04208245 -0.07328899 0.02093721
v -0.04382561 -0.07202946 0.02107010
v -0.03478193 -0.07769355 0.02055447
v -0.03155451 -0.07936530 0.02058636
v -0.04012644 -0.07464013 0.02076710
v -0.02409290 -0.08095308 -0.02628870
v -0.02413317 -0.08108285 -0.02283872
v -0.02484654 -0.08093781 -0.02218487
v -0.02566347 -0.08057140 -0.02628870
v -0.02566347 -0.08062484 -0.02464611
v -0.02499037 -0.08098362 -0.01971832
v -0.02730882 -0.08005996 -0.02628870
v -0.02870103 -0.07954850 -0.02464611
v -0.02730882 -0.08010576 -0.02464611
v -0.03551831 -0.07652562 -0.02464611
v -0.03727297 -0.07570120 -0.02628870
v -0.02874706 -0.07957141 -0.02300351
v -0.03000696 -0.07940347 -0.00822548
v -0.03150849 -0.07934240 0.01474957
v -0.03092744 -0.07908286 -0.00494561
v -0.03879750 -0.07499891 -0.02464611
v -0.03977551 -0.07447220 -0.02464611
v -0.03737077 -0.07573936 -0.02300351
v -0.04429735 -0.07257907 0.01474957
v -0.04324456 -0.07295312 0.00325673
v -0.04536740 -0.07184625 0.01474957
v -0.04406148 -0.07238823 0.00325673
v -0.04536740 -0.07173938 0.01146970
v -0.04526385 -0.07159434 0.00489932
v -0.04479786 -0.07126610 -0.01479586
v -0.04791022 -0.06950275 -0.00166574
v -0.04618433 -0.07108289 0.00910947
v -0.02409290 -0.03083116 0.02154853
v -0.03657111 -0.00380074 0.02257449
v -0.04536740 -0.07188442 0.01639217
v -0.04658703 -0.06138828 0.02214922
v -0.04044286 -0.07190732 0.02155384
v -0.03879750 -0.07190732 0.02159637
v -0.03551831 -0.07518975 0.02142626
v -0.03387296 -0.07683096 0.02120300
v -0.03059376 -0.07847217 0.02114453
v -0.02894841 -0.07967828 0.02084152
v -0.02409290 -0.08108285 0.02065015
v -0.03715791 -0.07518975 0.02119237
v -0.03879750 -0.07354853 0.02145284
v -0.04353796 -0.07306762 0.01803476
v -0.04433187 -0.07260197 0.01639217
v -0.03980428 -0.07448746 -0.02300351
v -0.04086858 -0.07415922 -0.00658820
v -0.04037382 -0.07476990 0.01967736
v -0.03481645 -0.07771645 0.01967736
v -0.03161779 -0.07939583 0.01967736
v -0.03387296 -0.07793019 0.02074584
v -0.03215282 -0.07850271 0.02088405
v -0.03059376 -0.07973171 0.01967736
v -0.02504214 -0.08098362 0.02055447
v -0.03059376 -0.07950270 0.02072989
v -0.02409290 -0.08108285 -0.02305135
v -0.02409290 -0.08121262 -0.01971832
v -0.02409290 -0.08126606 -0.01819799
v -0.02489832 -0.08095308 -0.02136092
v -0.02409290 -0.08140346 -0.01325958
v -0.02409290 -0.08144926 -0.01151067
v -0.02505365 -0.08100651 -0.01807573
v -0.02884486 -0.07960958 -0.01971832
v -0.02581304 -0.08071644 -0.01971832
v -0.02587632 -0.08073171 -0.01807573
v -0.02730882 -0.08024316 -0.01807573
v -0.03059376 -0.07969354 0.01474957
v -0.03035214 -0.07954087 0.00325673
v -0.03030036 -0.07952561 0.00161945
v -0.03551831 -0.07678516 -0.01479586
v -0.03451729 -0.07757141 -0.00166574
v -0.03020256 -0.07948743 -0.00166574
v -0.03223336 -0.07876225 0.00489932
v -0.03158903 -0.07938057 0.01803476
v -0.03879750 -0.07505997 -0.02136092
v -0.03741679 -0.07575463 -0.02136092
v -0.03749733 -0.07577753 -0.01807573
v -0.03677246 -0.07623555 -0.01315326
v -0.04536740 -0.07179281 0.01310698
v -0.04589092 -0.07087679 -0.00330833
v -0.02409290 -0.08129659 0.01967736
v -0.04002864 -0.07458669 -0.00822548
v -0.04006891 -0.07460960 -0.00494561
v -0.04109294 -0.07428135 0.01146970
v -0.04031054 -0.07473937 0.01474957
v -0.03561611 -0.07727370 0.01803476
v -0.03387296 -0.07819737 0.01803476
v -0.03241170 -0.07896072 0.01803476
v -0.03460359 -0.07760959 0.00325673
v -0.03455181 -0.07758668 -0.00002314
v -0.03059376 -0.07972408 0.01639217
v -0.03059376 -0.07974698 0.01803476
v -0.02894841 -0.08027370 0.01639217
v -0.02894841 -0.08023552 0.01803476
v -0.02730882 -0.08064011 0.01803476
v -0.02894841 -0.08013629 0.01967736
v -0.02525500 -0.08102942 0.01967736
v -0.02409290 -0.08147980 -0.00996908
v -0.02592235 -0.08074698 -0.01643845
v -0.02730882 -0.08027370 -0.01643845
v -0.02894841 -0.08003705 0.00161945
v -0.02894841 -0.08006759 0.00325673
v -0.03879750 -0.07512868 -0.01643845
v -0.03681848 -0.07626608 -0.00986807
v -0.02409290 -0.08130422 0.01959230
v -0.03879750 -0.07515158 -0.01479586
v -0.03772170 -0.07587677 -0.00330833
v -0.03551831 -0.07719737 0.00818451
v -0.03704285 -0.07638822 0.00818451
v -0.03464961 -0.07763248 0.00654192
v -0.02894841 -0.08018972 0.00982711
v -0.02894841 -0.08027370 0.01474957
v -0.02665873 -0.08099125 0.01310698
v -0.02715349 -0.08075461 0.01628585
v -0.02657819 -0.08096072 0.01474957
v -0.02409290 -0.08170880 0.01146970
v -0.02545060 -0.08108285 0.01803476
v -0.02409290 -0.08140346 0.01803476
v -0.02409290 -0.08154086 -0.00658820
v -0.02730882 -0.08054087 -0.00166574
v -0.02730882 -0.08036530 -0.01151067
v -0.02535856 -0.08111339 -0.00658820
v -0.03768143 -0.07585387 -0.00658820
v -0.02644012 -0.08092254 0.00325673
v -0.02566347 -0.08124315 0.00654192
v -0.02747565 -0.08071644 0.01146970
v -0.02665298 -0.08099125 0.01146970
v -0.02409290 -0.08178514 0.00818451
v -0.02409290 -0.08176224 0.00982711
v -0.02566347 -0.08125079 0.01310698
v -0.02409290 -0.08168590 0.00153971
v -0.02409290 -0.08171644 0.00325673
v -0.02409290 -0.08176987 0.00647813
v -0.02566347 -0.08129659 0.00982711
f 1 2 3
f 1 3 14
f 1 14 32
f 1 32 53
f 1 53 88
f 1 88 138
f 1 138 143
f 1 143 142
f 1 142 141
f 1 141 140
f 1 140 194
f 1 194 191
f 1 191 190
f 1 190 228
f 1 228 227
f 1 227 273
f 1 273 233
f 1 233 278
f 1 278 345
f 1 345 404
f 1 404 457
f 1 457 537
f 1 537 624
f 1 624 675
f 1 675 598
f 1 598 506
f 1 506 436
f 1 436 373
f 1 373 299
f 1 299 288
f 1 288 239
f 1 239 197
f 1 197 148
f 1 148 196
f 1 196 195
f 1 195 145
f 1 145 144
f 1 144 91
f 1 91 90
f 1 90 54
f 1 54 33
f 1 33 15
f 1 15 4
f 1 4 5
f 1 5 6
f 1 6 7
f 1 7 8
f 1 8 2
f 2 9 10
f 2 10 11
f 2 11 12
f 2 12 26
f 2 26 13
f 2 13 14
f 2 14 3
f 2 8 9
f 4 15 16
f 4 16 17
f 4 17 5
f 5 17 6
f 6 17 18
f 6 18 7
f 7 19 10
f 7 10 20
f 7 20 8
f 7 18 21
f 7 21 22
f 7 22 19
f 8 20 10
f 8 10 9
f 10 23 24
f 10 24 25
f 10 25 26
f 10 26 11
f 10 19 27
f 10 27 28
f 10 28 29
f 10 29 30
f 10 30 23
f 11 26 12
f 13 31 14
f 13 26 31
f 14 31 32
f 15 33 16
f 16 33 34
f 16 34 35
f 16 35 36
f 16 36 37
f 16 37 38
f 16 38 39
f 16 39 40
f 16 40 17
f 17 40 21
f 17 21 18
f 19 22 28
f 19 28 27
f 21 40 22
f 22 40 41
f 22 41 42
f 22 42 43
f 22 43 28
f 23 44 45
f 23 45 24
f 23 30 46
f 23 46 44
f 24 45 47
f 24 47 26
f 24 26 25
f 26 47 48
f 26 48 31
f 28 43 49
f 28 49 29
f 29 49 30
f 30 50 51
f 30 51 46
f 30 49 52
f 30 52 50
f 31 48 32
f 32 48 53
f 33 54 55
f 33 55 56
f 33 56 34
f 34 57 58
f 34 58 35
f 34 56 59
f 34 59 57
f 35 58 36
f 36 58 60
f 36 60 37
f 37 60 38
f 38 40 39
f 38 60 61
f 38 61 62
f 38 62 63
f 38 63 64
f 38 64 40
f 40 64 65
f 40 65 41
f 41 65 66
f 41 66 67
f 41 67 68
f 41 68 69
f 41 69 70
f 41 70 71
f 41 71 72
f 41 72 73
f 41 73 42
f 42 73 74
f 42 74 43
f 43 74 49
f 44 75 78
f 44 78 45
f 44 46 76
f 44 76 77
f 44 77 75
f 45 78 48
f 45 48 47
f 46 51 79
f 46 79 80
f 46 80 76
f 48 81 53
f 48 78 81
f 49 74 82
f 49 82 83
f 49 83 52
f 50 84 51
f 50 52 86
f 50 86 84
f 51 84 85
f 51 85 79
f 52 83 87
f 52 87 86
f 53 81 89
f 53 89 88
f 54 90 55
f 55 90 91
f 55 91 92
f 55 92 93
f 55 93 94
f 55 94 95
f 55 95 96
f 55 96 97
f 55 97 98
f 55 98 56
f 56 98 99
f 56 99 100
f 56 100 59
f 57 101 58
f 57 59 102
f 57 102 101
f 58 101 103
f 58 103 104
f 58 104 105
f 58 105 60
f 59 100 102
f 60 105 104
f 60 104 106
f 60 106 107
f 60 107 108
f 60 108 62
f 60 62 61
f 62 108 107
f 62 107 106
f 62 106 63
f 63 66 64
f 63 106 109
f 63 109 110
f 63 110 111
f 63 111 66
f 64 66 65
f 66 112 67
f 66 111 113
f 66 113 114
f 66 114 112
f 67 69 68
f 67 112 115
f 67 115 116
f 67 116 117
f 67 117 69
f 69 118 70
f 69 117 119
f 69 119 118
f 70 118 71
f 71 120 73
f 71 73 72
f 71 118 121
f 71 121 122
f 71 122 123
f 71 123 120
f 73 120 124
f 73 124 74
f 74 124 125
f 74 125 82
f 75 126 78
f 75 77 126
f 76 80 77
f 77 80 127
f 77 127 126
f 78 126 179
f 78 179 128
f 78 128 129
f 78 129 89
f 78 89 81
f 79 130 80
f 79 85 130
f 80 130 131
f 80 131 127
f 82 125 132
f 82 132 133
f 82 133 83
f 83 133 87
f 84 86 85
f 85 86 87
f 85 87 134
f 85 134 135
f 85 135 136
f 85 136 130
f 87 133 137
f 87 137 135
f 87 135 134
f 88 89 138
f 89 139 140
f 89 140 141
f 89 141 142
f 89 142 143
f 89 143 138
f 89 129 128
f 89 128 139
f 91 144 93
f 91 93 92
f 93 144 145
f 93 145 146
f 93 146 147
f 93 147 94
f 94 147 95
f 95 147 148
f 95 148 149
f 95 149 96
f 96 150 97
f 96 149 151
f 96 151 150
f 97 150 98
f 98 152 100
f 98 100 99
f 98 150 151
f 98 151 153
f 98 153 110
f 98 110 152
f 100 152 110
f 100 110 102
f 101 102 103
f 102 109 106
f 102 106 154
f 102 154 103
f 102 110 109
f 103 154 106
f 103 106 104
f 110 153 111
f 111 114 113
f 111 153 155
f 111 155 156
f 111 156 157
f 111 157 114
f 112 158 159
f 112 159 115
f 112 114 158
f 114 157 160
f 114 160 161
f 114 161 162
f 114 162 163
f 114 163 158
f 115 164 165
f 115 165 116
f 115 159 158
f 115 158 162
f 115 162 161
f 115 161 164
f 116 165 117
f 117 165 166
f 117 166 167
f 117 167 119
f 118 119 168
f 118 168 121
f 119 167 169
f 119 169 170
f 119 170 171
f 119 171 168
f 120 123 172
f 120 172 173
f 120 173 174
f 120 174 124
f 121 168 122
f 122 173 172
f 122 172 123
f 122 168 171
f 122 171 173
f 124 175 176
f 124 176 132
f 124 132 125
f 124 174 177
f 124 177 175
f 126 178 179
f 126 127 180
f 126 180 181
f 126 181 182
f 126 182 183
f 126 183 184
f 126 184 185
f 126 185 178
f 127 131 186
f 127 186 187
f 127 187 188
f 127 188 180
f 128 189 139
f 128 179 190
f 128 190 191
f 128 191 192
f 128 192 189
f 130 136 131
f 131 136 135
f 131 135 193
f 131 193 133
f 131 133 186
f 132 176 133
f 133 193 135
f 133 135 137
f 133 176 223
f 133 223 186
f 139 189 140
f 140 189 194
f 145 195 146
f 146 195 196
f 146 196 147
f 147 196 148
f 148 197 149
f 149 198 199
f 149 199 200
f 149 200 153
f 149 153 151
f 149 197 198
f 153 200 201
f 153 201 202
f 153 202 203
f 153 203 155
f 155 203 156
f 156 204 205
f 156 205 206
f 156 206 207
f 156 207 157
f 156 203 202
f 156 202 208
f 156 208 209
f 156 209 210
f 156 210 211
f 156 211 212
f 156 212 204
f 157 207 213
f 157 213 214
f 157 214 160
f 158 163 162
f 160 214 166
f 160 166 215
f 160 215 161
f 161 215 216
f 161 216 164
f 164 216 215
f 164 215 165
f 165 215 166
f 166 169 167
f 166 214 169
f 169 214 170
f 170 217 218
f 170 218 219
f 170 219 220
f 170 220 173
f 170 173 171
f 170 214 221
f 170 221 217
f 173 220 177
f 173 177 174
f 175 222 176
f 175 177 222
f 176 222 223
f 177 220 224
f 177 224 222
f 178 185 225
f 178 225 226
f 178 226 227
f 178 227 179
f 179 227 228
f 179 228 190
f 180 188 181
f 181 188 182
f 182 188 229
f 182 229 183
f 183 229 230
f 183 230 184
f 184 230 231
f 184 231 232
f 184 232 233
f 184 233 225
f 184 225 185
f 186 223 234
f 186 234 187
f 187 234 235
f 187 235 236
f 187 236 237
f 187 237 188
f 188 237 238
f 188 238 229
f 189 192 191
f 189 191 194
f 197 239 198
f 198 240 241
f 198 241 242
f 198 242 243
f 198 243 244
f 198 244 245
f 198 245 246
f 198 246 199
f 198 239 247
f 198 247 240
f 199 246 201
f 199 201 200
f 201 246 248
f 201 248 202
f 202 248 249
f 202 249 208
f 204 250 251
f 204 251 252
f 204 252 253
f 204 253 205
f 204 212 254
f 204 254 250
f 205 253 206
f 206 255 207
f 206 253 256
f 206 256 255
f 207 255 257
f 207 257 213
f 208 249 210
f 208 210 209
f 210 249 258
f 210 258 259
f 210 259 211
f 211 254 212
f 211 259 260
f 211 260 254
f 213 257 261
f 213 261 262
f 213 262 263
f 213 263 221
f 213 221 214
f 217 221 218
f 218 221 264
f 218 264 219
f 219 265 220
f 219 264 266
f 219 266 267
f 219 267 268
f 219 268 269
f 219 269 265
f 220 265 270
f 220 270 271
f 220 271 224
f 221 263 262
f 221 262 266
f 221 266 264
f 222 272 223
f 222 224 271
f 222 271 272
f 223 272 234
f 225 233 273
f 225 273 226
f 226 273 227
f 229 238 230
f 230 238 231
f 231 238 274
f 231 274 232
f 232 274 275
f 232 275 276
f 232 276 277
f 232 277 233
f 233 277 278
f 234 272 279
f 234 279 280
f 234 280 281
f 234 281 235
f 235 282 236
f 235 281 282
f 236 282 283
f 236 283 237
f 237 284 238
f 237 283 285
f 237 285 284
f 238 284 286
f 238 286 287
f 238 287 336
f 238 336 274
f 239 288 247
f 240 289 241
f 240 247 301
f 240 301 376
f 240 376 375
f 240 375 374
f 240 374 437
f 240 437 507
f 240 507 597
f 240 597 674
f 240 674 622
f 240 622 536
f 240 536 535
f 240 535 534
f 240 534 533
f 240 533 532
f 240 532 538
f 240 538 461
f 240 461 405
f 240 405 460
f 240 460 541
f 240 541 626
f 240 626 684
f 240 684 724
f 240 724 748
f 240 748 761
f 240 761 759
f 240 759 772
f 240 772 771
f 240 771 776
f 240 776 775
f 240 775 774
f 240 774 762
f 240 762 741
f 240 741 704
f 240 704 703
f 240 703 701
f 240 701 700
f 240 700 699
f 240 699 647
f 240 647 585
f 240 585 498
f 240 498 430
f 240 430 426
f 240 426 425
f 240 425 364
f 240 364 289
f 241 289 292
f 241 292 242
f 242 290 291
f 242 291 243
f 242 292 293
f 242 293 294
f 242 294 295
f 242 295 290
f 243 291 244
f 244 296 245
f 244 291 297
f 244 297 298
f 244 298 296
f 245 296 248
f 245 248 246
f 247 288 299
f 247 299 300
f 247 300 301
f 248 296 249
f 249 296 302
f 249 302 303
f 249 303 258
f 250 254 251
f 251 304 252
f 251 254 304
f 252 304 305
f 252 305 253
f 253 305 306
f 253 306 307
f 253 307 256
f 254 308 309
f 254 309 310
f 254 310 304
f 254 260 311
f 254 311 308
f 255 256 312
f 255 312 257
f 256 307 313
f 256 313 314
f 256 314 315
f 256 315 316
f 256 316 312
f 257 312 317
f 257 317 318
f 257 318 262
f 257 262 261
f 258 303 319
f 258 319 259
f 259 319 320
f 259 320 321
f 259 321 322
f 259 322 323
f 259 323 260
f 260 323 308
f 260 308 311
f 262 268 266
f 262 318 268
f 265 324 325
f 265 325 270
f 265 269 326
f 265 326 324
f 266 268 267
f 268 318 327
f 268 327 326
f 268 326 269
f 270 325 271
f 271 325 324
f 271 324 328
f 271 328 272
f 272 328 329
f 272 329 330
f 272 330 331
f 272 331 332
f 272 332 333
f 272 333 334
f 272 334 335
f 272 335 279
f 274 336 337
f 274 337 338
f 274 338 275
f 275 338 339
f 275 339 276
f 276 339 340
f 276 340 277
f 277 340 341
f 277 341 342
f 277 342 343
f 277 343 344
f 277 344 278
f 278 344 345
f 279 335 280
f 280 335 346
f 280 346 317
f 280 317 347
f 280 347 281
f 281 347 285
f 281 285 283
f 281 283 282
f 284 348 286
f 284 285 349
f 284 349 348
f 285 347 350
f 285 350 351
f 285 351 352
f 285 352 353
f 285 353 354
f 285 354 355
f 285 355 356
f 285 356 349
f 286 357 358
f 286 358 359
f 286 359 360
f 286 360 287
f 286 348 361
f 286 361 362
f 286 362 357
f 287 360 359
f 287 359 363
f 287 363 337
f 287 337 336
f 289 364 292
f 290 295 291
f 291 298 297
f 291 295 298
f 292 364 365
f 292 365 366
f 292 366 367
f 292 367 293
f 293 367 368
f 293 368 294
f 294 368 295
f 295 368 369
f 295 369 370
f 295 370 298
f 296 298 302
f 298 371 372
f 298 372 302
f 298 370 371
f 299 373 300
f 300 373 374
f 300 374 375
f 300 375 376
f 300 376 301
f 302 372 377
f 302 377 303
f 303 377 319
f 304 310 305
f 305 310 309
f 305 309 378
f 305 378 379
f 305 379 306
f 306 379 380
f 306 380 307
f 307 380 381
f 307 381 314
f 307 314 313
f 308 323 309
f 309 322 382
f 309 382 378
f 309 323 322
f 312 383 347
f 312 347 317
f 312 316 384
f 312 384 383
f 314 381 385
f 314 385 386
f 314 386 315
f 315 386 385
f 315 385 387
f 315 387 388
f 315 388 384
f 315 384 316
f 317 346 389
f 317 389 318
f 318 389 327
f 319 390 320
f 319 377 390
f 320 390 391
f 320 391 392
f 320 392 321
f 321 392 393
f 321 393 322
f 322 392 394
f 322 394 380
f 322 380 379
f 322 379 378
f 322 378 382
f 322 393 392
f 324 395 328
f 324 326 396
f 324 396 397
f 324 397 395
f 326 327 389
f 326 389 398
f 326 398 396
f 328 395 399
f 328 399 329
f 329 399 397
f 329 397 330
f 330 397 396
f 330 396 333
f 330 333 332
f 330 332 331
f 333 396 334
f 334 396 346
f 334 346 335
f 337 363 339
f 337 339 338
f 339 363 400
f 339 400 340
f 340 400 341
f 341 400 401
f 341 401 455
f 341 455 402
f 341 402 342
f 342 402 403
f 342 403 344
f 342 344 343
f 344 403 345
f 345 403 405
f 345 405 404
f 346 396 398
f 346 398 389
f 347 383 406
f 347 406 407
f 347 407 350
f 348 349 408
f 348 408 361
f 349 356 408
f 350 407 406
f 350 406 409
f 350 409 410
f 350 410 411
f 350 411 351
f 351 411 352
f 352 412 413
f 352 413 353
f 352 411 414
f 352 414 415
f 352 415 416
f 352 416 417
f 352 417 412
f 353 413 354
f 354 418 355
f 354 413 418
f 355 418 356
f 356 419 362
f 356 362 361
f 356 361 408
f 356 418 420
f 356 420 419
f 357 421 358
f 357 362 421
f 358 421 424
f 358 424 422
f 358 422 359
f 359 422 400
f 359 400 363
f 362 419 423
f 362 423 422
f 362 422 424
f 362 424 421
f 364 425 365
f 365 425 426
f 365 426 366
f 366 427 428
f 366 428 429
f 366 429 367
f 366 426 430
f 366 430 431
f 366 431 427
f 367 428 368
f 367 429 428
f 368 428 432
f 368 432 433
f 368 433 369
f 369 433 434
f 369 434 370
f 370 434 435
f 370 435 371
f 371 435 372
f 372 435 377
f 373 436 437
f 373 437 374
f 377 435 438
f 377 438 508
f 377 508 439
f 377 439 440
f 377 440 390
f 380 394 385
f 380 385 381
f 383 384 441
f 383 441 442
f 383 442 406
f 384 388 443
f 384 443 444
f 384 444 442
f 384 442 441
f 385 394 445
f 385 445 446
f 385 446 447
f 385 447 387
f 387 447 448
f 387 448 388
f 388 448 449
f 388 449 443
f 390 440 450
f 390 450 451
f 390 451 452
f 390 452 394
f 390 394 391
f 391 394 392
f 394 452 451
f 394 451 445
f 395 397 399
f 400 422 401
f 401 422 453
f 401 453 454
f 401 454 455
f 402 455 456
f 402 456 405
f 402 405 403
f 404 405 457
f 405 458 459
f 405 459 460
f 405 461 457
f 405 456 458
f 406 442 409
f 409 442 462
f 409 462 463
f 409 463 410
f 410 464 411
f 410 463 465
f 410 465 466
f 410 466 464
f 411 467 468
f 411 468 414
f 411 464 469
f 411 469 467
f 412 417 413
f 413 470 471
f 413 471 472
f 413 472 473
f 413 473 474
f 413 474 420
f 413 420 418
f 413 417 475
f 413 475 470
f 414 468 476
f 414 476 477
f 414 477 478
f 414 478 415
f 415 479 480
f 415 480 481
f 415 481 482
f 415 482 483
f 415 483 484
f 415 484 416
f 415 478 479
f 416 484 485
f 416 485 486
f 416 486 417
f 417 487 488
f 417 488 475
f 417 486 489
f 417 489 490
f 417 490 487
f 419 420 474
f 419 474 491
f 419 491 492
f 419 492 551
f 419 551 550
f 419 550 493
f 419 493 423
f 422 423 493
f 422 493 453
f 427 431 494
f 427 494 428
f 428 495 496
f 428 496 432
f 428 494 497
f 428 497 495
f 430 498 499
f 430 499 431
f 431 499 498
f 431 498 494
f 432 496 433
f 433 496 500
f 433 500 501
f 433 501 502
f 433 502 503
f 433 503 504
f 433 504 505
f 433 505 434
f 434 505 435
f 435 505 438
f 436 506 507
f 436 507 437
f 438 505 509
f 438 509 510
f 438 510 511
f 438 511 512
f 438 512 508
f 439 508 512
f 439 512 513
f 439 513 479
f 439 479 514
f 439 514 440
f 440 514 515
f 440 515 516
f 440 516 450
f 442 444 443
f 442 443 449
f 442 449 517
f 442 517 462
f 445 451 518
f 445 518 519
f 445 519 520
f 445 520 446
f 446 520 447
f 447 521 448
f 447 520 522
f 447 522 521
f 448 521 523
f 448 523 449
f 449 523 524
f 449 524 465
f 449 465 517
f 450 516 518
f 450 518 451
f 453 525 549
f 453 549 526
f 453 526 454
f 453 493 525
f 454 526 527
f 454 527 528
f 454 528 529
f 454 529 530
f 454 530 455
f 455 530 456
f 456 530 531
f 456 531 458
f 457 532 533
f 457 533 534
f 457 534 535
f 457 535 536
f 457 536 537
f 457 461 538
f 457 538 532
f 458 531 460
f 458 460 459
f 460 531 539
f 460 539 540
f 460 540 541
f 462 517 465
f 462 465 463
f 464 466 469
f 465 524 542
f 465 542 543
f 465 543 466
f 466 543 469
f 467 477 476
f 467 476 468
f 467 469 544
f 467 544 477
f 469 543 521
f 469 521 522
f 469 522 544
f 470 545 471
f 470 475 545
f 471 546 473
f 471 473 472
f 471 545 547
f 471 547 548
f 471 548 527
f 471 527 526
f 471 526 549
f 471 549 550
f 471 550 551
f 471 551 546
f 473 552 474
f 473 546 553
f 473 553 552
f 474 553 491
f 474 552 553
f 475 488 554
f 475 554 555
f 475 555 556
f 475 556 557
f 475 557 558
f 475 558 559
f 475 559 545
f 477 560 561
f 477 561 478
f 477 544 608
f 477 608 560
f 478 561 479
f 479 513 562
f 479 562 480
f 479 561 563
f 479 563 564
f 479 564 565
f 479 565 560
f 479 560 514
f 480 566 481
f 480 562 567
f 480 567 566
f 481 566 567
f 481 567 568
f 481 568 569
f 481 569 482
f 482 569 570
f 482 570 572
f 482 572 571
f 482 571 483
f 483 571 484
f 484 571 572
f 484 572 573
f 484 573 485
f 485 573 574
f 485 574 575
f 485 575 576
f 485 576 577
f 485 577 489
f 485 489 486
f 487 490 578
f 487 578 488
f 488 578 554
f 489 578 490
f 489 577 578
f 491 553 551
f 491 551 492
f 493 550 525
f 494 498 579
f 494 579 580
f 494 580 581
f 494 581 496
f 494 496 497
f 495 497 496
f 496 582 583
f 496 583 500
f 496 581 584
f 496 584 582
f 498 585 586
f 498 586 579
f 500 587 501
f 500 583 587
f 501 587 588
f 501 588 589
f 501 589 590
f 501 590 591
f 501 591 502
f 502 591 592
f 502 592 593
f 502 593 503
f 503 593 504
f 504 593 594
f 504 594 595
f 504 595 596
f 504 596 505
f 505 596 509
f 506 597 507
f 506 598 674
f 506 674 597
f 509 596 510
f 510 596 599
f 510 599 595
f 510 595 600
f 510 600 511
f 511 600 601
f 511 601 512
f 512 601 602
f 512 602 513
f 513 602 603
f 513 603 562
f 514 560 515
f 515 560 604
f 515 604 516
f 516 605 606
f 516 606 518
f 516 604 607
f 516 607 605
f 518 606 605
f 518 605 607
f 518 607 519
f 519 608 544
f 519 544 520
f 519 607 560
f 519 560 608
f 520 544 522
f 521 542 524
f 521 524 523
f 521 543 542
f 525 550 549
f 527 548 528
f 528 548 609
f 528 609 610
f 528 610 611
f 528 611 529
f 529 611 530
f 530 611 612
f 530 612 613
f 530 613 558
f 530 558 614
f 530 614 615
f 530 615 616
f 530 616 617
f 530 617 618
f 530 618 619
f 530 619 620
f 530 620 621
f 530 621 531
f 531 621 539
f 536 622 623
f 536 623 624
f 536 624 537
f 539 621 620
f 539 620 540
f 540 620 625
f 540 625 626
f 540 626 541
f 545 559 547
f 546 551 627
f 546 627 553
f 547 559 628
f 547 628 629
f 547 629 548
f 548 629 630
f 548 630 609
f 551 553 627
f 554 578 631
f 554 631 555
f 555 631 632
f 555 632 556
f 556 632 557
f 557 632 633
f 557 633 634
f 557 634 614
f 557 614 558
f 558 613 628
f 558 628 559
f 560 607 604
f 560 565 564
f 560 564 563
f 560 563 561
f 562 603 567
f 567 635 636
f 567 636 568
f 567 603 635
f 568 636 570
f 568 570 569
f 570 636 637
f 570 637 572
f 572 637 573
f 573 603 638
f 573 638 574
f 573 637 603
f 574 638 575
f 575 639 640
f 575 640 641
f 575 641 576
f 575 638 639
f 576 642 643
f 576 643 577
f 576 641 644
f 576 644 645
f 576 645 646
f 576 646 642
f 577 643 578
f 578 643 631
f 579 586 647
f 579 647 648
f 579 648 649
f 579 649 650
f 579 650 580
f 580 650 651
f 580 651 652
f 580 652 653
f 580 653 581
f 581 654 584
f 581 653 655
f 581 655 654
f 582 656 657
f 582 657 583
f 582 584 656
f 583 657 587
f 584 654 658
f 584 658 659
f 584 659 660
f 584 660 661
f 584 661 656
f 585 647 586
f 587 662 663
f 587 663 588
f 587 657 664
f 587 664 662
f 588 663 688
f 588 688 665
f 588 665 666
f 588 666 589
f 589 666 667
f 589 667 668
f 589 668 590
f 590 668 669
f 590 669 670
f 590 670 591
f 591 670 671
f 591 671 592
f 592 671 593
f 593 671 594
f 594 672 595
f 594 671 672
f 595 672 673
f 595 673 600
f 595 599 596
f 598 675 623
f 598 623 622
f 598 622 674
f 600 673 601
f 601 673 667
f 601 667 602
f 602 667 676
f 602 676 638
f 602 638 603
f 603 637 636
f 603 636 635
f 609 630 629
f 609 629 610
f 610 629 611
f 611 629 677
f 611 677 612
f 612 677 628
f 612 628 613
f 614 634 633
f 614 633 615
f 615 633 632
f 615 632 678
f 615 678 680
f 615 680 619
f 615 619 679
f 615 679 616
f 616 679 618
f 616 618 617
f 618 679 619
f 619 680 620
f 620 680 681
f 620 681 682
f 620 682 625
f 623 675 624
f 625 682 683
f 625 683 626
f 626 683 684
f 628 677 629
f 631 643 642
f 631 642 685
f 631 685 681
f 631 681 686
f 631 686 632
f 632 686 680
f 632 680 678
f 638 676 639
f 639 687 640
f 639 676 667
f 639 667 688
f 639 688 663
f 639 663 689
f 639 689 690
f 639 690 687
f 640 687 691
f 640 691 641
f 641 691 692
f 641 692 693
f 641 693 644
f 642 646 694
f 642 694 695
f 642 695 685
f 644 693 645
f 645 693 696
f 645 696 697
f 645 697 698
f 645 698 695
f 645 695 694
f 645 694 646
f 647 699 648
f 648 700 649
f 648 699 700
f 649 700 701
f 649 701 702
f 649 702 650
f 650 702 652
f 650 652 651
f 652 702 701
f 652 701 703
f 652 703 704
f 652 704 705
f 652 705 655
f 652 655 653
f 654 655 658
f 655 706 658
f 655 705 707
f 655 707 708
f 655 708 709
f 655 709 710
f 655 710 711
f 655 711 712
f 655 712 706
f 656 713 657
f 656 661 713
f 657 713 714
f 657 714 664
f 658 715 660
f 658 660 659
f 658 706 712
f 658 712 715
f 660 716 661
f 660 715 712
f 660 712 711
f 660 711 710
f 660 710 717
f 660 717 714
f 660 714 713
f 660 713 716
f 661 716 713
f 662 718 689
f 662 689 663
f 662 664 719
f 662 719 720
f 662 720 721
f 662 721 718
f 664 714 719
f 665 688 667
f 665 667 666
f 667 673 722
f 667 722 668
f 668 722 669
f 669 722 673
f 669 673 670
f 670 673 672
f 670 672 723
f 670 723 671
f 671 723 672
f 680 686 681
f 681 685 695
f 681 695 682
f 682 695 698
f 682 698 683
f 683 698 684
f 684 697 724
f 684 698 697
f 687 690 725
f 687 725 726
f 687 726 727
f 687 727 691
f 689 718 690
f 690 718 725
f 691 727 728
f 691 728 729
f 691 729 692
f 692 729 730
f 692 730 693
f 693 730 731
f 693 731 732
f 693 732 733
f 693 733 717
f 693 717 734
f 693 734 735
f 693 735 696
f 696 735 736
f 696 736 737
f 696 737 738
f 696 738 739
f 696 739 697
f 697 739 740
f 697 740 724
f 704 741 705
f 705 741 708
f 705 708 707
f 708 742 709
f 708 741 742
f 709 743 745
f 709 745 744
f 709 744 710
f 709 742 743
f 710 744 745
f 710 745 754
f 710 754 734
f 710 734 717
f 714 717 733
f 714 733 721
f 714 721 719
f 718 746 725
f 718 721 747
f 718 747 746
f 719 721 720
f 721 733 747
f 724 740 748
f 725 746 749
f 725 749 726
f 726 749 750
f 726 750 751
f 726 751 752
f 726 752 727
f 727 752 728
f 728 752 751
f 728 751 729
f 729 751 730
f 730 751 753
f 730 753 731
f 731 753 732
f 732 753 747
f 732 747 733
f 734 754 755
f 734 755 735
f 735 755 736
f 736 755 756
f 736 756 737
f 737 757 738
f 737 756 758
f 737 758 757
f 738 757 759
f 738 759 760
f 738 760 740
f 738 740 739
f 740 760 761
f 740 761 748
f 741 762 742
f 742 763 764
f 742 764 743
f 742 762 765
f 742 765 763
f 743 764 754
f 743 754 745
f 746 747 749
f 747 766 749
f 747 753 751
f 747 751 766
f 749 766 750
f 750 766 751
f 754 764 763
f 754 763 767
f 754 767 768
f 754 768 769
f 754 769 755
f 755 769 770
f 755 770 756
f 756 770 771
f 756 771 772
f 756 772 773
f 756 773 758
f 757 758 759
f 758 773 759
f 759 773 772
f 759 761 760
f 762 774 765
f 763 765 767
f 765 774 775
f 765 775 767
f 767 775 768
f 768 775 769
f 769 775 776
f 769 776 770
f 770 776 777
f 770 777 771
f 771 777 776

