# https://github.com/mikedh/trimesh
v 0.08160991 -0.02348618 0.01475156
v 0.08158634 -0.02348618 0.01367058
v 0.08154704 -0.02348618 0.01525601
v 0.08031324 -0.02703884 0.01736135
v 0.08035253 -0.02715522 0.01639361
v 0.08007748 -0.02797601 0.01639361
v 0.07964525 -0.02923170 0.01639361
v 0.08132700 -0.02430696 0.01475156
v 0.08128771 -0.02430696 0.01310950
v 0.08154704 -0.02348618 0.01208000
v 0.08130343 -0.02348618 0.01636788
v 0.08042326 -0.02594854 0.01750547
v 0.07863935 -0.03188395 0.01894678
v 0.07867864 -0.03199420 0.01803567
v 0.07841145 -0.03281499 0.01803567
v 0.07794779 -0.03415643 0.01803567
v 0.07839573 -0.03279661 0.01639361
v 0.08094193 -0.02430696 -0.00002694
v 0.08153133 -0.02348618 0.01146745
v 0.07983386 -0.02759012 0.00161511
v 0.08028966 -0.02530539 -0.01151103
v 0.08102051 -0.02348618 0.01698558
v 0.08054114 -0.02430696 0.01763931
v 0.07872579 -0.03087327 0.01906002
v 0.07694189 -0.03336627 0.02049618
v 0.07735839 -0.03400942 0.01980641
v 0.07718550 -0.03543049 0.01934313
v 0.07856076 -0.02998511 -0.01479514
v 0.07830928 -0.03254548 0.00982539
v 0.07729552 -0.03564487 0.01803567
v 0.07727195 -0.03561425 0.01639361
v 0.07780634 -0.03415643 0.01310950
v 0.07857648 -0.03002798 -0.01365240
v 0.08144488 -0.02348618 0.00818334
v 0.07931519 -0.02759012 -0.01807925
v 0.07912659 -0.02759012 -0.02464748
v 0.08025822 -0.02523188 -0.01315309
v 0.08059615 -0.02430696 -0.01151103
v 0.08105981 -0.02348618 -0.00494281
v 0.08116197 -0.02348618 -0.00166385
v 0.08137415 -0.02348618 0.00568679
v 0.08058829 -0.02348618 0.01770108
v 0.07992816 -0.02430696 0.01846291
v 0.07882796 -0.02923170 0.01918871
v 0.07847431 -0.02348618 0.02043441
v 0.07663540 -0.03446269 0.02043955
v 0.07825428 -0.02348618 0.02052706
v 0.07771989 -0.02348618 0.02072267
v 0.07698118 -0.03251485 0.02052191
v 0.07611673 -0.02348618 0.02105726
v 0.07611673 -0.02759012 0.02085650
v 0.07611673 -0.03251485 0.02061457
v 0.07610101 -0.03400942 0.02054251
v 0.07554305 -0.03532636 0.02051677
v 0.07516584 -0.03642279 0.02048074
v 0.07547232 -0.03855439 0.01922989
v 0.07685544 -0.03646566 0.01803567
v 0.07853718 -0.02991773 -0.01643720
v 0.07869436 -0.02869267 -0.02628438
v 0.07683972 -0.03643504 0.01639361
v 0.07681615 -0.03639216 0.01475156
v 0.07676900 -0.03628803 0.01146745
v 0.07721694 -0.03551624 0.01310950
v 0.07764916 -0.03415643 0.00818334
v 0.07867078 -0.02862529 -0.02792644
v 0.07901656 -0.02759012 -0.02792644
v 0.08021893 -0.02510938 -0.01547462
v 0.08043112 -0.02446010 -0.01487236
v 0.08077690 -0.02348618 -0.01315309
v 0.08020321 -0.02504812 -0.01643720
v 0.08028180 -0.02348618 0.01811288
v 0.07997532 -0.02348618 0.01851953
v 0.07901656 -0.02594854 0.01943064
v 0.07909515 -0.02348618 0.01968287
v 0.06462741 -0.05385536 0.02018733
v 0.06626987 -0.05221378 0.01991451
v 0.06624629 -0.05370835 0.01935858
v 0.06913826 -0.04893063 0.01936887
v 0.07058426 -0.04682353 0.01921445
v 0.07529157 -0.02348618 0.02112932
v 0.07283182 -0.03087327 0.02098004
v 0.07447428 -0.03415643 0.02067634
v 0.06791232 -0.03743958 0.02108299
v 0.07283182 -0.03743958 0.02063516
v 0.06462741 -0.03908116 0.02128375
v 0.06298496 -0.04072274 0.02133522
v 0.06791232 -0.03908116 0.02098519
v 0.07397132 -0.03743958 0.02052706
v 0.07176305 -0.04120051 0.02047559
v 0.06626987 -0.05057220 0.02031087
v 0.07373557 -0.04167216 0.01904973
v 0.06884750 -0.04994130 0.01908061
v 0.06711074 -0.05306520 0.01889530
v 0.07555091 -0.03868914 0.01803567
v 0.07327191 -0.04252357 0.01639361
v 0.07423852 -0.04072274 0.01146745
v 0.07183378 -0.04451429 0.00161511
v 0.07036421 -0.04644988 -0.01643720
v 0.07753914 -0.03415643 0.00489922
v 0.07034064 -0.04641313 -0.01807925
v 0.07604600 -0.03743958 0.00818334
v 0.07588883 -0.03743958 0.00325717
v 0.07529943 -0.03661267 -0.02869342
v 0.07718550 -0.03546724 0.01146745
v 0.07709906 -0.03529573 0.00654128
v 0.07808925 -0.03087327 -0.01807925
v 0.07833286 -0.02944608 -0.02792644
v 0.07863149 -0.02853341 -0.02895079
v 0.07951952 -0.02594854 -0.02792644
v 0.07963739 -0.02594854 -0.02464748
v 0.07975528 -0.02594854 -0.02136337
v 0.08047827 -0.02348618 -0.02136337
v 0.08005390 -0.02453360 -0.02464748
v 0.07955881 -0.02348618 0.01907032
v 0.06449382 -0.05208515 0.02039323
v 0.06285922 -0.05373285 0.02040352
v 0.06298496 -0.05549081 0.02019762
v 0.05483556 -0.06539540 0.01959022
v 0.05647016 -0.06374157 0.01958507
v 0.05973149 -0.06044617 0.01956963
v 0.06463527 -0.05549694 0.01954389
v 0.06568833 -0.05495178 0.01918871
v 0.06735435 -0.05221378 0.01919386
v 0.07447428 -0.02348618 0.02119624
v 0.07283182 -0.02430696 0.02129404
v 0.06955478 -0.02923170 0.02134037
v 0.06791232 -0.03251485 0.02132493
v 0.06298496 -0.03908116 0.02142788
v 0.07119723 -0.03908116 0.02067634
v 0.06134251 -0.04236432 0.02138155
v 0.06134251 -0.04072274 0.02147935
v 0.06626987 -0.04400589 0.02079988
v 0.06536613 -0.04963503 0.02049103
v 0.06629345 -0.04902251 0.02044470
v 0.06579049 -0.05506817 0.01803567
v 0.06660779 -0.05388598 0.01803567
v 0.06711074 -0.05306520 0.01803567
v 0.06761370 -0.05221378 0.01803567
v 0.07019918 -0.04780970 0.01803567
v 0.06879249 -0.04984942 0.00654128
v 0.07104792 -0.04564747 -0.00494281
v 0.06877677 -0.04982492 0.00489922
v 0.06873748 -0.04975754 0.00062679
v 0.06913826 -0.04879587 -0.00822692
v 0.06986912 -0.04728905 -0.01643720
v 0.07706762 -0.03524060 0.00489922
v 0.07698118 -0.03505685 -0.00002694
v 0.07695760 -0.03500784 -0.00128293
v 0.07686330 -0.03478734 -0.00658487
v 0.07031706 -0.04636413 -0.01972131
v 0.07078858 -0.04559234 -0.01807925
v 0.07400276 -0.04053285 -0.00330590
v 0.07457644 -0.03908116 -0.00986898
v 0.07280039 -0.04236432 -0.00986898
v 0.07163731 -0.04412227 -0.01643720
v 0.07197523 -0.04310548 -0.02300542
v 0.07362554 -0.03984682 -0.02628438
v 0.07402633 -0.03887903 -0.02792644
v 0.07352338 -0.03969982 -0.02792644
v 0.07388488 -0.03859726 -0.02923906
v 0.07530729 -0.03499559 -0.03039724
v 0.07547232 -0.03539374 -0.02956850
v 0.07708334 -0.03202483 -0.02918758
v 0.07773561 -0.03087327 -0.02792644
v 0.07636034 -0.03415643 -0.02792644
v 0.07662754 -0.03422381 -0.01972131
v 0.07725623 -0.03244135 -0.02300542
v 0.07785348 -0.03087327 -0.02464748
v 0.07878866 -0.02759012 -0.02926479
v 0.08021108 -0.02348618 -0.02856473
v 0.08022679 -0.02348618 -0.02816322
v 0.08029752 -0.02348618 -0.02628438
v 0.06384941 -0.05144812 0.02050132
v 0.06332288 -0.05254455 0.02046014
v 0.05959003 -0.05702213 0.02040867
v 0.05478055 -0.06369870 0.02022851
v 0.05970006 -0.05877396 0.02021306
v 0.05313810 -0.06534027 0.02021821
v 0.05318525 -0.06704311 0.01956963
v 0.05432475 -0.06654083 0.01923504
v 0.06083955 -0.05991939 0.01920930
v 0.06409303 -0.05660561 0.01919901
v 0.06502820 -0.05588895 0.01803567
v 0.07283182 -0.02348618 0.02133007
v 0.06462741 -0.03579801 0.02144332
v 0.06134251 -0.03908116 0.02155656
v 0.05970006 -0.04236432 0.02150509
v 0.05970006 -0.04400589 0.02139699
v 0.06134251 -0.04400589 0.02126316
v 0.06387299 -0.05637898 0.00161511
v 0.06575906 -0.05502529 0.01639361
v 0.06700072 -0.05289981 0.00818334
v 0.06703215 -0.05293656 0.00982539
v 0.06704787 -0.05296719 0.01146745
v 0.06751939 -0.05211577 0.00982539
v 0.06865103 -0.04961666 -0.00822692
v 0.06975910 -0.04728905 -0.01972131
v 0.07026991 -0.04629675 -0.02136337
v 0.07073357 -0.04547596 -0.02136337
v 0.07190451 -0.04300747 -0.02464748
v 0.07176305 -0.04280534 -0.02628438
v 0.07283968 -0.04072274 -0.02792644
v 0.07204596 -0.04159253 -0.02884784
v 0.07067856 -0.04532283 -0.02300542
v 0.07015989 -0.04614362 -0.02300542
v 0.07205382 -0.03997545 -0.03041269
v 0.06728363 -0.04839160 -0.02918758
v 0.06219124 -0.05471903 -0.03040754
v 0.06548400 -0.04980654 -0.03040754
v 0.06876891 -0.04489406 -0.03041269
v 0.07436425 -0.03564487 -0.03041783
v 0.07447428 -0.03415643 -0.03044357
v 0.07698118 -0.03026075 -0.03041269
v 0.07903228 -0.02594854 -0.02949643
v 0.07943307 -0.02348618 -0.02950158
v 0.06134251 -0.04728905 0.02102122
v 0.06134251 -0.05057220 0.02076899
v 0.05970006 -0.05385536 0.02064545
v 0.05896920 -0.05640348 0.02050647
v 0.05734246 -0.05805730 0.02050647
v 0.05570787 -0.05971114 0.02050647
v 0.05632084 -0.06031754 0.02040867
v 0.05464696 -0.06192849 0.02041382
v 0.05313810 -0.06369870 0.02037264
v 0.05149565 -0.06534027 0.02034175
v 0.04985319 -0.06698185 0.02030057
v 0.05149565 -0.06698185 0.02016674
v 0.04985319 -0.06862343 0.01990936
v 0.05136991 -0.06861118 0.01938432
v 0.05266658 -0.06805990 0.01920415
v 0.05363319 -0.06751475 0.01803567
v 0.05447406 -0.06669396 0.01803567
v 0.07119723 -0.02348618 0.02144332
v 0.07119723 -0.02430696 0.02141758
v 0.06462741 -0.03251485 0.02157201
v 0.06298496 -0.03415643 0.02162348
v 0.06134251 -0.03743958 0.02161319
v 0.05970006 -0.04072274 0.02158230
v 0.05805760 -0.04400589 0.02149479
v 0.05970006 -0.04728905 0.02114991
v 0.05805760 -0.04564747 0.02138155
v 0.05805760 -0.04893063 0.02114476
v 0.06004584 -0.05912923 -0.02464748
v 0.06084741 -0.05830844 -0.02464748
v 0.06381012 -0.05631160 -0.00085054
v 0.06571976 -0.05498241 0.01475156
v 0.06626987 -0.05385536 0.00818334
v 0.06696142 -0.05284468 0.00654128
v 0.06858030 -0.04953090 -0.01151103
v 0.06861960 -0.04957990 -0.00986898
v 0.06964122 -0.04728905 -0.02136337
v 0.06905182 -0.04855698 -0.01643720
v 0.06902825 -0.04850186 -0.01807925
v 0.06898895 -0.04844673 -0.01972131
v 0.07055282 -0.04508394 -0.02464748
v 0.06990841 -0.04553722 -0.02630498
v 0.07077286 -0.04377313 -0.02792644
v 0.06544471 -0.05138687 -0.02872945
v 0.06397515 -0.05328571 -0.02915669
v 0.06882392 -0.04823847 -0.02262451
v 0.07119723 -0.03908116 -0.03045387
v 0.07225028 -0.03908116 -0.03042298
v 0.06462741 -0.04893063 -0.03045387
v 0.06065880 -0.05811243 -0.02910522
v 0.06012442 -0.05755503 -0.03020164
v 0.06058808 -0.05645861 -0.03041269
v 0.06121677 -0.05534993 -0.03042298
v 0.06450168 -0.05044357 -0.03042813
v 0.07611673 -0.02923170 -0.03045387
v 0.07705191 -0.02923170 -0.03042298
v 0.07810496 -0.02594854 -0.03031488
v 0.07802637 -0.02759012 -0.03008839
v 0.07804995 -0.02430696 -0.03032518
v 0.07802637 -0.02348618 -0.03032518
v 0.05805760 -0.05385536 0.02077414
v 0.05401041 -0.06129146 0.02050132
v 0.04521660 -0.06745962 0.02047559
v 0.05313810 -0.06159160 0.02052191
v 0.05641515 -0.05057220 0.02112417
v 0.05478055 -0.05385536 0.02097490
v 0.03672928 -0.06041554 0.02133007
v 0.03508683 -0.06862343 0.02084621
v 0.04821074 -0.06862343 0.02022336
v 0.04217531 -0.06925433 0.02048588
v 0.04656829 -0.06862343 0.02032116
v 0.04492583 -0.07026501 0.02025424
v 0.04328338 -0.07190658 0.02013070
v 0.04656829 -0.07026501 0.02005864
v 0.04820288 -0.07032626 0.01951300
v 0.04164092 -0.07354816 0.01988362
v 0.04002205 -0.07526324 0.01949241
v 0.04656829 -0.07156969 0.01935858
v 0.04765278 -0.07124505 0.01910120
v 0.05074122 -0.06948710 0.01893648
v 0.05281590 -0.06817016 0.01803567
v 0.05269802 -0.06812115 0.01475156
v 0.05050546 -0.06764951 -0.02792644
v 0.05141706 -0.06682872 -0.02792644
v 0.05329527 -0.06513202 -0.02798306
v 0.05824621 -0.06066056 -0.02792644
v 0.05914995 -0.05983976 -0.02792644
v 0.06000654 -0.05908636 -0.02628438
v 0.07036421 -0.02348618 0.02149994
v 0.06708717 -0.02348618 0.02171614
v 0.06462741 -0.03087327 0.02162863
v 0.06298496 -0.03251485 0.02168010
v 0.06134251 -0.03415643 0.02171099
v 0.05970006 -0.03908116 0.02163378
v 0.06298496 -0.02923170 0.02178305
v 0.05805760 -0.04236432 0.02156686
v 0.05641515 -0.04400589 0.02154627
v 0.05478055 -0.04564747 0.02152053
v 0.04000633 -0.05549081 0.02151024
v 0.02031261 -0.06862343 0.02149479
v 0.03836388 -0.05713239 0.02147935
v 0.05641515 -0.04564747 0.02145876
v 0.05996725 -0.05903735 -0.02792644
v 0.06080026 -0.05826557 -0.02628438
v 0.06075311 -0.05821657 -0.02792644
v 0.06166471 -0.05732227 -0.02464748
v 0.06245843 -0.05667911 -0.01972131
v 0.06535041 -0.05455364 0.00161511
v 0.06542899 -0.05465164 0.00443595
v 0.06546043 -0.05468840 0.00553237
v 0.06557831 -0.05483540 0.00982539
v 0.06600267 -0.05373285 0.00161511
v 0.06729149 -0.05164413 -0.00494281
v 0.06891823 -0.04836097 -0.02136337
v 0.06843885 -0.04937777 -0.01643720
v 0.06762155 -0.05041907 -0.01643720
v 0.06834454 -0.04926752 -0.01972131
v 0.06748010 -0.05024144 -0.02136337
v 0.06829739 -0.04918176 -0.02136337
v 0.06569619 -0.05175439 -0.02628438
v 0.06690642 -0.04947578 -0.02792644
v 0.06414804 -0.05353684 -0.02792644
v 0.06359008 -0.05435763 -0.02792644
v 0.06214408 -0.05627485 -0.02858532
v 0.06585336 -0.05194427 -0.02464748
v 0.06667852 -0.05079272 -0.02464748
v 0.06513823 -0.05257517 -0.02628438
v 0.04000633 -0.02348618 -0.03045901
v 0.06134251 -0.05385536 -0.03044872
v 0.05970006 -0.05549081 -0.03045387
v 0.06168043 -0.05700988 -0.02799336
v 0.05904779 -0.05974176 -0.02914125
v 0.05851340 -0.05922724 -0.03023252
v 0.05903207 -0.05813081 -0.03041269
v 0.05962933 -0.05705888 -0.03042813
v 0.07611673 -0.02759012 -0.03045387
v 0.07727981 -0.02594854 -0.03042298
v 0.07720122 -0.02759012 -0.03042298
v 0.07720908 -0.02348618 -0.03042298
v 0.01867016 -0.07190658 0.02135066
v 0.05313810 -0.04893063 0.02138155
v 0.02194720 -0.06862343 0.02142788
v 0.04000633 -0.07354816 0.02016674
v 0.04109082 -0.06957285 0.02051162
v 0.02523211 -0.07190658 0.02105726
v 0.04328338 -0.07026501 0.02033660
v 0.03672928 -0.07153294 0.02054251
v 0.04000633 -0.07190658 0.02034175
v 0.03672928 -0.07518974 0.02018733
v 0.03836388 -0.07518974 0.02000716
v 0.03836388 -0.07651280 0.01934313
v 0.03947980 -0.07618816 0.01910635
v 0.04455648 -0.07300301 0.01919386
v 0.04256039 -0.07443020 0.01896222
v 0.04985319 -0.07003837 0.01803567
v 0.05074908 -0.06949322 0.01803567
v 0.05157423 -0.06899094 0.01803567
v 0.03960554 -0.07626166 0.01803567
v 0.04042284 -0.07576552 0.01803567
v 0.04259182 -0.07444858 0.01803567
v 0.05152708 -0.06896645 0.01639361
v 0.05149565 -0.06886844 0.01310950
v 0.05039544 -0.06927883 0.00489922
v 0.05034829 -0.06924208 0.00325717
v 0.04852508 -0.06914408 -0.02792644
v 0.04968030 -0.06832329 -0.02792644
v 0.05055261 -0.06769851 -0.02628438
v 0.04938167 -0.06808440 -0.02956850
v 0.05394754 -0.06450724 -0.02856473
v 0.05564500 -0.06292079 -0.02888902
v 0.05734246 -0.06133434 -0.02902801
v 0.06544471 -0.02348618 0.02182424
v 0.06462741 -0.02430696 0.02184997
v 0.06134251 -0.03251485 0.02175732
v 0.04821074 -0.04893063 0.02156171
v 0.05970006 -0.03743958 0.02168010
v 0.02851702 -0.06205712 0.02155142
v 0.06462741 -0.02348618 0.02187571
v 0.06380226 -0.02348618 0.02191174
v 0.06298496 -0.02430696 0.02192204
v 0.05149565 -0.04728905 0.02154627
v 0.03672928 -0.05713239 0.02153597
v 0.01702770 -0.07026501 0.02152053
v 0.01538525 -0.07190658 0.02148965
v 0.01702770 -0.07190658 0.02142273
v 0.03344438 -0.06041554 0.02147420
v 0.06222267 -0.05637898 -0.02748890
v 0.06226983 -0.05644636 -0.02628438
v 0.06161756 -0.05726714 -0.02628438
v 0.06470600 -0.05385536 -0.01972131
v 0.06507536 -0.05420450 -0.00822692
v 0.06572762 -0.05338371 -0.00822692
v 0.06678068 -0.05097035 -0.02300542
v 0.06372368 -0.05455364 -0.02628438
v 0.06601053 -0.05209740 -0.02136337
v 0.06752725 -0.05030269 -0.01972131
v 0.06531111 -0.05285694 -0.02300542
v 0.06377868 -0.05463940 -0.02499751
v 0.07530729 -0.02348618 -0.03045387
v 0.05478055 -0.06041554 -0.03045387
v 0.04821074 -0.06698185 -0.03045387
v 0.03672928 -0.07354816 -0.03045387
v 0.03344438 -0.07518974 -0.03045387
v 0.02031261 -0.08011447 -0.03045387
v 0.01210034 -0.08175605 -0.03045387
v 0.00133402 -0.08175605 -0.03045387
v 0.00133402 -0.04236432 -0.03045387
v 0.03344438 -0.02348618 -0.03045387
v 0.05800259 -0.05871884 -0.03042813
v 0.04908305 -0.06783939 -0.03041269
v 0.05741319 -0.05972338 -0.03041269
v 0.07611673 -0.02348618 -0.03044872
v 0.01538525 -0.07354816 0.02138155
v 0.01210034 -0.07518974 0.02140214
v 0.01538525 -0.07518974 0.02124771
v 0.02523211 -0.07354816 0.02091827
v 0.02031261 -0.07518974 0.02100578
v 0.02918500 -0.07593090 0.02049103
v 0.03180192 -0.07683132 0.02026454
v 0.03344438 -0.07683132 0.02015644
v 0.03508683 -0.07683132 0.01996598
v 0.03680787 -0.07696607 0.01948727
v 0.03508683 -0.07798899 0.01929681
v 0.03631277 -0.07778686 0.01907547
v 0.03732654 -0.07756023 0.01803567
v 0.03836388 -0.07699057 0.01803567
v 0.05061548 -0.06941359 0.01310950
v 0.04656829 -0.07198009 0.01639361
v 0.03836388 -0.07693544 0.01639361
v 0.03955839 -0.07623104 0.01639361
v 0.04037569 -0.07574101 0.01639361
v 0.04957814 -0.06977498 0.00489922
v 0.04953099 -0.06974436 0.00325717
v 0.04873727 -0.06927271 -0.02136337
v 0.04862725 -0.06921146 -0.02464748
v 0.04458791 -0.07302139 0.01146745
v 0.04769993 -0.06962798 -0.02792644
v 0.04758205 -0.06955447 -0.02911037
v 0.03836388 -0.07686807 0.01475156
v 0.06298496 -0.02348618 0.02194263
v 0.06134251 -0.02759012 0.02188086
v 0.05970006 -0.03415643 0.02175732
v 0.05641515 -0.03087327 0.02189115
v 0.01210034 -0.07190658 0.02156686
v 0.01538525 -0.07026501 0.02155656
v 0.01374279 -0.07190658 0.02154112
v 0.01210034 -0.07354816 0.02151538
v 0.01374279 -0.07354816 0.02145361
v 0.06381012 -0.05468227 -0.02390109
v 0.06535827 -0.05291819 -0.02136337
v 0.04971960 -0.06685322 -0.03042813
v 0.04151519 -0.07179020 -0.03042813
v 0.04000633 -0.07190658 -0.03044872
v 0.03766446 -0.07441795 -0.03041269
v 0.03672928 -0.07457109 -0.03042298
v 0.03344438 -0.07628617 -0.03042298
v 0.03127539 -0.07769498 -0.03041269
v 0.03015947 -0.07683132 -0.03044872
v 0.02194720 -0.08011447 -0.03044872
v 0.01210034 -0.08263809 -0.03042298
v 0.00388807 -0.08329962 -0.03042298
v 0.00225348 -0.08316486 -0.03042298
v 0.00133402 -0.08305461 -0.03042298
v 0.00133402 -0.04187429 -0.03043842
v 0.03215556 -0.02348618 -0.03042813
v 0.04088650 -0.07275187 -0.03040754
v 0.01045789 -0.07518974 0.02147420
v 0.00881544 -0.07683132 0.02140214
v 0.01045789 -0.07683132 0.02132493
v 0.01538525 -0.07683132 0.02108299
v 0.02687456 -0.07847289 0.02033660
v 0.03015947 -0.07683132 0.02034690
v 0.01702770 -0.08203169 0.02043441
v 0.01374279 -0.08359976 0.02038808
v 0.02031261 -0.08286472 0.01933799
v 0.03015947 -0.07961832 0.01930710
v 0.03650924 -0.07788487 0.01803567
v 0.01538525 -0.08448793 0.01935343
v 0.03136184 -0.07942231 0.01907547
v 0.03508683 -0.07838714 0.01803567
v 0.03728724 -0.07753573 0.01639361
v 0.03361727 -0.07904867 0.01475156
v 0.03280783 -0.07937331 0.01310950
v 0.03646995 -0.07789712 0.01639361
v 0.03584126 -0.07762760 -0.00166385
v 0.03424596 -0.07764598 -0.02361283
v 0.04656829 -0.07028951 -0.02792644
v 0.03929120 -0.07443020 -0.02896624
v 0.03616346 -0.07616366 -0.02918758
v 0.03672928 -0.07705795 -0.00330590
v 0.04019494 -0.07400143 -0.02792644
v 0.05970006 -0.02348618 0.02200440
v 0.05805760 -0.02430696 0.02201469
v 0.05471769 -0.02348618 0.02209191
v 0.05313810 -0.02348618 0.02211764
v 0.00717298 -0.07518974 0.02156171
v 0.00881544 -0.07518974 0.02153083
v 0.03236775 -0.07741322 -0.03034062
v 0.03448172 -0.07607178 -0.03041269
v 0.02776259 -0.07931206 -0.03040239
v 0.02687456 -0.07934268 -0.03041269
v 0.02289024 -0.08095976 -0.03040754
v 0.02194720 -0.08099039 -0.03041783
v 0.01374279 -0.08260747 -0.03040754
v 0.00388807 -0.08412041 -0.03037665
v 0.00133402 -0.08342213 -0.03038695
v 0.00133402 -0.04147615 -0.03042298
v 0.03141685 -0.02348618 -0.03006266
v 0.00881544 -0.07847289 0.02121168
v 0.01210034 -0.08307911 0.02055795
v 0.01210034 -0.08175605 0.02070722
v 0.00717298 -0.07683132 0.02144847
v 0.01210034 -0.07847289 0.02106755
v 0.01867016 -0.07847289 0.02074326
v 0.02192363 -0.07855252 0.02057339
v 0.02358966 -0.07888329 0.02045500
v 0.01702770 -0.08121090 0.02052706
v 0.01568388 -0.08233795 0.02047044
v 0.01210034 -0.08389990 0.02044985
v 0.01374279 -0.08470844 0.01956963
v 0.02905926 -0.08084338 0.01146745
v 0.03015947 -0.08043298 0.01146745
v 0.01374279 -0.08518008 0.01803567
v 0.01647760 -0.08431029 0.01907547
v 0.02640304 -0.08105164 0.01907547
v 0.03344438 -0.07892617 0.01803567
v 0.03271352 -0.07932431 0.01596122
v 0.03588055 -0.07764598 -0.00051081
v 0.02910641 -0.08084951 0.00982539
v 0.03015947 -0.08041461 0.00982539
v 0.03180192 -0.07975920 0.01146745
v 0.03523614 -0.07793999 0.00000909
v 0.03362512 -0.07902417 0.01310950
v 0.03357011 -0.07899967 0.01146745
v 0.03344438 -0.07806863 -0.02136337
v 0.03428525 -0.07766435 -0.02252156
v 0.03338151 -0.07798287 -0.02464748
v 0.03323219 -0.07792774 -0.02792644
v 0.03404949 -0.07755410 -0.02792644
v 0.03508683 -0.07697220 -0.02792644
v 0.03300429 -0.07782361 -0.02924420
v 0.05149565 -0.02348618 0.02212794
v 0.00225348 -0.07354816 0.02164407
v 0.00388807 -0.07354816 0.02162863
v 0.00553053 -0.07518974 0.02156686
v 0.00553053 -0.07683132 0.02145876
v 0.02839128 -0.07950807 -0.02953761
v 0.02471344 -0.08103327 -0.02908463
v 0.02349535 -0.08116802 -0.02960968
v 0.01808076 -0.08261359 -0.02890961
v 0.01702770 -0.08269934 -0.02918758
v 0.01461510 -0.08258296 -0.03039724
v 0.00553053 -0.08445117 -0.02944495
v 0.00388807 -0.08451855 -0.02955820
v 0.00225348 -0.08448793 -0.02952731
v 0.00133402 -0.08446342 -0.02948614
v 0.00225348 -0.08398565 -0.03035092
v 0.00133402 -0.08387540 -0.03030974
v 0.00133402 -0.04094325 -0.02956850
v 0.03073315 -0.02348618 -0.02923391
v 0.00717298 -0.07847289 0.02125801
v 0.01045789 -0.08175605 0.02076899
v 0.01045789 -0.08327512 0.02058368
v 0.01374279 -0.08277897 0.02051677
v 0.01374279 -0.08175605 0.02063001
v 0.00133402 -0.08175605 0.02098519
v 0.00388807 -0.08011447 0.02113447
v 0.01538525 -0.08011447 0.02072782
v 0.01459153 -0.08258909 0.02049618
v 0.01045789 -0.08409591 0.02047559
v 0.00951485 -0.08419392 0.02049103
v 0.00133402 -0.08551085 0.02014615
v 0.01210034 -0.08482482 0.01963140
v 0.00133402 -0.08597025 0.01932255
v 0.00225348 -0.08593962 0.01920930
v 0.00477610 -0.08586612 0.01887471
v 0.01210034 -0.08540672 0.01803567
v 0.02824196 -0.08111902 0.01146745
v 0.02828912 -0.08114352 0.00982539
v 0.01374279 -0.08513720 0.01639361
v 0.01619469 -0.08421841 0.00251593
v 0.01538525 -0.08472069 0.01475156
v 0.01538525 -0.08475744 0.01639361
v 0.01538525 -0.08476357 0.01803567
v 0.01669764 -0.08437155 0.01803567
v 0.01752280 -0.08412041 0.01803567
v 0.02031261 -0.08321386 0.01803567
v 0.03164475 -0.07951419 0.01803567
v 0.03194338 -0.07953869 0.01646053
v 0.02687456 -0.08144978 0.01310950
v 0.02806907 -0.08105777 0.01310950
v 0.02905140 -0.08082500 0.00818334
v 0.02816338 -0.08110677 0.00654128
v 0.03015947 -0.08021860 0.00325717
v 0.03141685 -0.07948357 -0.00330590
v 0.03180192 -0.07971020 0.00982539
v 0.03124396 -0.07941006 -0.00822692
v 0.03111822 -0.07935494 -0.01151103
v 0.03180192 -0.07874853 -0.02136337
v 0.03180192 -0.07863828 -0.02464748
v 0.03180192 -0.07852189 -0.02792644
v 0.02948363 -0.07935494 -0.02897138
v 0.04985319 -0.02348618 0.02210735
v 0.00133402 -0.04564747 0.02172128
v 0.00133402 -0.06041554 0.02174187
v 0.00133402 -0.06205712 0.02174187
v 0.00133402 -0.07190658 0.02166981
v 0.00133402 -0.07354816 0.02164407
v 0.00225348 -0.07518974 0.02156686
v 0.00133402 -0.07518974 0.02156171
v 0.00388807 -0.07683132 0.02144847
v 0.00225348 -0.07847289 0.02129404
v 0.00225348 -0.08011447 0.02114476
v 0.02687456 -0.08043911 -0.02792644
v 0.02572720 -0.08083113 -0.02792644
v 0.02358966 -0.08150491 -0.02792644
v 0.02194720 -0.08197656 -0.02792644
v 0.00813174 -0.08424292 -0.02884270
v 0.02031261 -0.08232570 -0.02792644
v 0.01911810 -0.08252171 -0.02792644
v 0.00717298 -0.08431642 -0.02911037
v 0.00553053 -0.08471457 -0.02792644
v 0.00388807 -0.08484319 -0.02792644
v 0.00225348 -0.08479419 -0.02792644
v 0.00133402 -0.08459818 -0.02877578
v 0.00133402 -0.04047160 -0.02792644
v 0.03050525 -0.02348618 -0.02792644
v 0.00717298 -0.08175605 0.02085650
v 0.00133402 -0.08266872 0.02088739
v 0.00225348 -0.08339762 0.02077929
v 0.00553053 -0.08339762 0.02069693
v 0.00133402 -0.08102714 0.02105726
v 0.00133402 -0.08415104 0.02068663
v 0.00842250 -0.08425517 0.02050647
v 0.00133402 -0.08469006 0.02059913
v 0.00133402 -0.08514946 0.02039323
v 0.00133402 -0.08603150 0.01855557
v 0.01045789 -0.08551085 0.01803567
v 0.00133402 -0.08606213 0.01803567
v 0.00477610 -0.08586612 0.01867911
v 0.01045789 -0.08529034 0.00818334
v 0.01210034 -0.08536384 0.01639361
v 0.02289810 -0.08261972 0.01475156
v 0.02523211 -0.08197656 0.01310950
v 0.02687456 -0.08154779 0.01146745
v 0.02687456 -0.08156617 0.00982539
v 0.02687456 -0.08153554 0.00818334
v 0.01374279 -0.08508820 0.01475156
v 0.01625756 -0.08423066 0.00361235
v 0.01374279 -0.08503308 0.01310950
v 0.01374279 -0.08491058 0.00982539
v 0.01588034 -0.08416941 -0.00002694
v 0.02031261 -0.08239308 -0.02628438
v 0.02051693 -0.08246046 -0.02300542
v 0.02005327 -0.08271772 -0.01807925
v 0.02013972 -0.08274835 -0.01643720
v 0.01631257 -0.08424904 0.00489922
v 0.01713772 -0.08403466 0.00489922
v 0.01867016 -0.08366714 0.00654128
v 0.02291381 -0.08261972 0.00982539
v 0.02298454 -0.08263809 0.01146745
v 0.01867016 -0.08385090 0.01475156
v 0.01677622 -0.08437768 0.01639361
v 0.01760138 -0.08415104 0.01639361
v 0.02300812 -0.08265034 0.01310950
v 0.01867016 -0.08383865 0.01639361
v 0.03015947 -0.08012672 0.01639361
v 0.02898854 -0.08080050 0.00654128
v 0.02810051 -0.08108227 0.00489922
v 0.02687456 -0.08145591 0.00489922
v 0.02885494 -0.08075150 0.00325717
v 0.03015947 -0.08011447 -0.00002694
v 0.03100820 -0.07930594 -0.01429069
v 0.03015947 -0.07979596 -0.00986898
v 0.03063099 -0.07915893 -0.02300542
v 0.03041880 -0.07907317 -0.02792644
v 0.02959365 -0.07939781 -0.02792644
v 0.02851702 -0.07982046 -0.02792644
v 0.04819502 -0.02348618 0.02208161
v 0.00133402 -0.04400589 0.02170070
v 0.00133402 -0.07683132 0.02142788
v 0.00133402 -0.07938556 0.02120653
v 0.02580579 -0.08086176 -0.02628438
v 0.02851702 -0.07988171 -0.02628438
v 0.02751897 -0.08088014 -0.00822692
v 0.02498849 -0.08111902 -0.02628438
v 0.02523211 -0.08134565 -0.01643720
v 0.02358966 -0.08160292 -0.02464748
v 0.02194720 -0.08208069 -0.02464748
v 0.02194720 -0.08203169 -0.02628438
v 0.01374279 -0.08339150 -0.02792644
v 0.00912192 -0.08413879 -0.02792644
v 0.01867016 -0.08285860 -0.02136337
v 0.01850512 -0.08268709 -0.02628438
v 0.01538525 -0.08332413 -0.02300542
v 0.00553053 -0.08476969 -0.02628438
v 0.00717298 -0.08451855 -0.02628438
v 0.00717298 -0.08478194 -0.01972131
v 0.01045789 -0.08503920 -0.00002694
v 0.00388807 -0.08494732 -0.02464748
v 0.00225348 -0.08504533 -0.02136337
v 0.00225348 -0.08498407 -0.02300542
v 0.00133402 -0.08480644 -0.02628438
v 0.00133402 -0.08476969 -0.02720064
v 0.00133402 -0.08473906 -0.02792644
v 0.00133402 -0.04045935 -0.02701533
v 0.03059169 -0.02348618 0.00654128
v 0.00133402 -0.04045935 -0.02628438
v 0.00133402 -0.04049610 0.01894678
v 0.00133402 -0.08339762 0.02079988
v 0.00225348 -0.08600700 0.01803567
v 0.00717298 -0.08535159 0.00161511
v 0.00133402 -0.08581099 0.00654128
v 0.00225348 -0.08554148 -0.00330590
v 0.01045789 -0.08519234 0.00489922
v 0.00881544 -0.08521071 -0.00002694
v 0.00717298 -0.08509433 -0.00986898
v 0.00553053 -0.08497182 -0.01972131
v 0.01210034 -0.08526584 0.01310950
v 0.02523211 -0.08202556 0.01146745
v 0.02380970 -0.08241758 0.01146745
v 0.02358966 -0.08191531 -0.01315309
v 0.02031261 -0.08315874 0.00325717
v 0.02153070 -0.08268709 -0.00330590
v 0.02109061 -0.08257071 -0.01350312
v 0.01210034 -0.08516171 0.00982539
v 0.01210034 -0.08510658 0.00818334
v 0.01210034 -0.08504533 0.00654128
v 0.01538525 -0.08398565 -0.00658487
v 0.01702770 -0.08358751 -0.00986898
v 0.02065839 -0.08247883 -0.02136337
v 0.02194720 -0.08212356 -0.02300542
v 0.02031261 -0.08282185 -0.01151103
v 0.02775473 -0.08095976 -0.00330590
v 0.02687456 -0.08127828 -0.00166385
v 0.02358966 -0.08174380 -0.01972131
v 0.02864276 -0.08067187 -0.00166385
v 0.02851702 -0.08039011 -0.01151103
v 0.04656829 -0.02348618 0.02205587
v 0.00133402 -0.04327698 0.02166981
v 0.03753872 -0.02348618 0.02191174
v 0.03589627 -0.02348618 0.02188086
v 0.02602583 -0.08092914 -0.02187297
v 0.02701602 -0.08114352 -0.00488104
v 0.02523211 -0.08144366 -0.01315309
v 0.02358966 -0.08165192 -0.02300542
v 0.01014354 -0.08430417 -0.01972131
v 0.00881544 -0.08451855 -0.01972131
v 0.00553053 -0.08487382 -0.02300542
v 0.00388807 -0.08499632 -0.02300542
v 0.00225348 -0.08524747 -0.01479514
v 0.00133402 -0.08539447 -0.00986898
v 0.00133402 -0.08533934 -0.01151103
v 0.00133402 -0.08516783 -0.01643720
v 0.00133402 -0.08505146 -0.01972131
v 0.00133402 -0.08495957 -0.02227447
v 0.03061527 -0.02348618 0.00818334
v 0.00133402 -0.04050835 0.01967772
v 0.00388807 -0.08515558 -0.01643720
v 0.00717298 -0.08531484 -0.00002694
v 0.00133402 -0.08577424 0.00487864
v 0.00225348 -0.08543123 -0.00822692
v 0.00388807 -0.08508208 -0.01972131
v 0.00553053 -0.08501470 -0.01807925
v 0.02194720 -0.08231345 -0.01479514
v 0.02851702 -0.08055549 -0.00658487
v 0.00133402 -0.04236432 0.02162348
v 0.03425381 -0.02348618 0.02178305
v 0.00225348 -0.08534547 -0.01151103
v 0.00133402 -0.08552923 -0.00494281
v 0.03067814 -0.02348618 0.00982539
v 0.00133402 -0.04076561 0.02043441
v 0.03205340 -0.02348618 0.02094401
v 0.03158188 -0.02348618 0.02002261
v 0.03146400 -0.02348618 0.01967772
v 0.03131469 -0.02348618 0.01839085
v 0.03111036 -0.02348618 0.01655833
v 0.03100034 -0.02348618 0.01540529
v 0.03096105 -0.02348618 0.01480818
v 0.03085889 -0.02348618 0.01310950
v 0.03076458 -0.02348618 0.01146745
v 0.00133402 -0.08570073 0.00161511
v 0.00133402 -0.04174566 0.02137125
v 0.03344438 -0.02348618 0.02157201
v 0.00133402 -0.08565785 -0.00002694
v 0.00133402 -0.08557210 -0.00330590
v 0.00133402 -0.04102900 0.02103152
v 0.03260350 -0.02348618 0.02125801
f 1 2 10
f 1 10 19
f 1 19 34
f 1 34 41
f 1 41 40
f 1 40 39
f 1 39 69
f 1 69 112
f 1 112 172
f 1 172 171
f 1 171 170
f 1 170 215
f 1 215 274
f 1 274 353
f 1 353 426
f 1 426 413
f 1 413 342
f 1 342 422
f 1 422 479
f 1 479 522
f 1 522 574
f 1 574 641
f 1 641 721
f 1 721 771
f 1 771 785
f 1 785 795
f 1 795 794
f 1 794 793
f 1 793 792
f 1 792 791
f 1 791 790
f 1 790 789
f 1 789 788
f 1 788 787
f 1 787 802
f 1 802 798
f 1 798 782
f 1 782 756
f 1 756 755
f 1 755 753
f 1 753 693
f 1 693 617
f 1 617 556
f 1 556 509
f 1 509 508
f 1 508 506
f 1 506 454
f 1 454 393
f 1 393 392
f 1 392 386
f 1 386 304
f 1 304 303
f 1 303 233
f 1 233 184
f 1 184 124
f 1 124 80
f 1 80 50
f 1 50 48
f 1 48 47
f 1 47 45
f 1 45 74
f 1 74 114
f 1 114 72
f 1 72 71
f 1 71 42
f 1 42 22
f 1 22 11
f 1 11 3
f 1 3 4
f 1 4 5
f 1 5 6
f 1 6 7
f 1 7 8
f 1 8 2
f 2 8 9
f 2 9 10
f 3 11 4
f 4 11 12
f 4 12 13
f 4 13 14
f 4 14 5
f 5 14 15
f 5 15 6
f 6 15 7
f 7 9 8
f 7 15 16
f 7 16 17
f 7 17 9
f 9 18 34
f 9 34 19
f 9 19 10
f 9 17 20
f 9 20 21
f 9 21 18
f 11 22 12
f 12 22 23
f 12 23 24
f 12 24 13
f 13 24 25
f 13 25 26
f 13 26 27
f 13 27 16
f 13 16 15
f 13 15 14
f 16 28 29
f 16 29 17
f 16 27 30
f 16 30 31
f 16 31 32
f 16 32 28
f 17 29 33
f 17 33 20
f 18 21 34
f 20 35 21
f 20 33 35
f 21 35 36
f 21 36 37
f 21 37 38
f 21 38 39
f 21 39 40
f 21 40 41
f 21 41 34
f 22 42 23
f 23 42 71
f 23 71 43
f 23 43 44
f 23 44 24
f 24 44 45
f 24 45 25
f 25 46 26
f 25 45 47
f 25 47 48
f 25 48 49
f 25 49 50
f 25 50 51
f 25 51 52
f 25 52 53
f 25 53 54
f 25 54 55
f 25 55 46
f 26 46 27
f 27 46 56
f 27 56 57
f 27 57 30
f 28 33 29
f 28 32 58
f 28 58 65
f 28 65 59
f 28 59 35
f 28 35 33
f 30 57 60
f 30 60 31
f 31 60 61
f 31 61 62
f 31 62 63
f 31 63 32
f 32 63 64
f 32 64 58
f 35 59 65
f 35 65 36
f 36 66 37
f 36 65 66
f 37 67 38
f 37 66 67
f 38 68 69
f 38 69 39
f 38 67 70
f 38 70 68
f 43 71 72
f 43 72 73
f 43 73 44
f 44 73 45
f 45 73 74
f 46 55 75
f 46 75 76
f 46 76 77
f 46 77 78
f 46 78 79
f 46 79 56
f 48 50 49
f 50 80 51
f 51 80 81
f 51 81 82
f 51 82 52
f 52 82 53
f 53 82 83
f 53 83 54
f 54 84 55
f 54 83 85
f 54 85 86
f 54 86 87
f 54 87 84
f 55 84 88
f 55 88 89
f 55 89 90
f 55 90 75
f 56 91 57
f 56 79 92
f 56 92 93
f 56 93 91
f 57 91 93
f 57 93 94
f 57 94 95
f 57 95 96
f 57 96 97
f 57 97 98
f 57 98 60
f 58 64 99
f 58 99 65
f 60 98 100
f 60 100 61
f 61 101 62
f 61 100 101
f 62 101 102
f 62 102 103
f 62 103 63
f 63 104 64
f 63 103 104
f 64 104 105
f 64 105 99
f 65 99 106
f 65 106 107
f 65 107 108
f 65 108 66
f 66 109 110
f 66 110 111
f 66 111 67
f 66 108 109
f 67 111 70
f 68 70 69
f 69 70 112
f 70 111 110
f 70 110 109
f 70 109 113
f 70 113 112
f 72 114 73
f 73 114 74
f 75 90 115
f 75 115 116
f 75 116 117
f 75 117 118
f 75 118 119
f 75 119 120
f 75 120 121
f 75 121 122
f 75 122 77
f 75 77 76
f 77 122 123
f 77 123 78
f 78 123 79
f 79 123 92
f 80 124 125
f 80 125 126
f 80 126 127
f 80 127 81
f 81 127 83
f 81 83 82
f 83 127 128
f 83 128 85
f 84 129 88
f 84 87 130
f 84 130 129
f 85 128 131
f 85 131 86
f 86 131 130
f 86 130 87
f 88 129 89
f 89 129 130
f 89 130 132
f 89 132 133
f 89 133 134
f 89 134 115
f 89 115 90
f 92 123 122
f 92 122 93
f 93 122 135
f 93 135 136
f 93 136 137
f 93 137 138
f 93 138 139
f 93 139 94
f 94 139 95
f 95 97 96
f 95 139 140
f 95 140 97
f 97 141 98
f 97 140 142
f 97 142 141
f 98 143 144
f 98 144 145
f 98 145 100
f 98 141 143
f 99 105 146
f 99 146 147
f 99 147 148
f 99 148 149
f 99 149 106
f 100 145 150
f 100 150 101
f 101 151 152
f 101 152 102
f 101 150 151
f 102 153 103
f 102 152 154
f 102 154 155
f 102 155 156
f 102 156 153
f 103 153 156
f 103 156 157
f 103 157 158
f 103 158 159
f 103 159 160
f 103 160 161
f 103 161 162
f 103 162 163
f 103 163 108
f 103 108 107
f 103 107 164
f 103 164 165
f 103 165 166
f 103 166 149
f 103 149 148
f 103 148 147
f 103 147 146
f 103 146 105
f 103 105 104
f 106 149 167
f 106 167 168
f 106 168 107
f 107 168 164
f 108 163 161
f 108 161 169
f 108 169 170
f 108 170 109
f 109 170 171
f 109 171 172
f 109 172 113
f 112 113 172
f 115 134 133
f 115 133 173
f 115 173 174
f 115 174 116
f 116 174 175
f 116 175 176
f 116 176 177
f 116 177 117
f 117 177 118
f 118 176 178
f 118 178 179
f 118 179 180
f 118 180 119
f 118 177 176
f 119 180 121
f 119 121 120
f 121 181 182
f 121 182 122
f 121 180 181
f 122 183 135
f 122 182 183
f 124 184 125
f 125 184 126
f 126 185 128
f 126 128 127
f 126 184 185
f 128 185 186
f 128 186 131
f 130 131 187
f 130 187 188
f 130 188 189
f 130 189 173
f 130 173 133
f 130 133 132
f 131 186 238
f 131 238 187
f 135 183 190
f 135 190 191
f 135 191 192
f 135 192 193
f 135 193 136
f 136 193 194
f 136 194 137
f 137 194 138
f 138 194 195
f 138 195 143
f 138 143 142
f 138 142 140
f 138 140 139
f 141 142 143
f 143 195 144
f 144 196 145
f 144 195 194
f 144 194 196
f 145 197 150
f 145 196 250
f 145 250 197
f 149 166 167
f 150 197 198
f 150 198 199
f 150 199 156
f 150 156 151
f 151 156 155
f 151 155 154
f 151 154 152
f 156 199 157
f 157 200 158
f 157 199 198
f 157 198 200
f 158 200 159
f 159 201 202
f 159 202 203
f 159 203 160
f 159 200 204
f 159 204 205
f 159 205 201
f 160 206 161
f 160 203 207
f 160 207 208
f 160 208 209
f 160 209 210
f 160 210 206
f 161 206 211
f 161 211 212
f 161 212 213
f 161 213 169
f 161 163 162
f 164 168 167
f 164 167 165
f 165 167 166
f 169 213 214
f 169 214 170
f 170 214 215
f 173 189 216
f 173 216 174
f 174 216 217
f 174 217 218
f 174 218 219
f 174 219 175
f 175 219 220
f 175 220 221
f 175 221 222
f 175 222 176
f 176 222 223
f 176 223 178
f 178 224 225
f 178 225 226
f 178 226 227
f 178 227 179
f 178 223 224
f 179 227 228
f 179 228 229
f 179 229 230
f 179 230 180
f 180 230 231
f 180 231 232
f 180 232 181
f 181 232 182
f 182 232 183
f 183 232 190
f 184 233 234
f 184 234 186
f 184 186 185
f 186 235 236
f 186 236 306
f 186 306 237
f 186 237 238
f 186 234 235
f 187 238 239
f 187 239 188
f 188 240 216
f 188 216 189
f 188 239 241
f 188 241 242
f 188 242 221
f 188 221 240
f 190 243 244
f 190 244 245
f 190 245 246
f 190 246 191
f 190 232 243
f 191 246 192
f 192 246 247
f 192 247 248
f 192 248 249
f 192 249 250
f 192 250 196
f 192 196 193
f 193 196 194
f 197 251 198
f 197 250 252
f 197 252 253
f 197 253 254
f 197 254 251
f 198 251 205
f 198 205 204
f 198 204 200
f 201 205 255
f 201 255 202
f 202 255 256
f 202 256 257
f 202 257 258
f 202 258 203
f 203 258 259
f 203 259 207
f 205 251 260
f 205 260 255
f 206 261 262
f 206 262 212
f 206 212 211
f 206 210 263
f 206 263 261
f 207 259 208
f 208 259 264
f 208 264 265
f 208 265 266
f 208 266 267
f 208 267 268
f 208 268 210
f 208 210 209
f 210 268 263
f 212 269 213
f 212 262 261
f 212 261 269
f 213 270 271
f 213 271 272
f 213 272 214
f 213 269 270
f 214 272 271
f 214 271 215
f 215 271 273
f 215 273 274
f 216 240 275
f 216 275 218
f 216 218 217
f 218 275 219
f 219 275 220
f 220 275 221
f 221 275 240
f 221 242 223
f 221 223 222
f 223 276 224
f 223 242 276
f 224 276 225
f 225 277 226
f 225 276 278
f 225 278 279
f 225 279 280
f 225 280 281
f 225 281 282
f 225 282 277
f 226 283 227
f 226 277 284
f 226 284 285
f 226 285 286
f 226 286 283
f 227 283 287
f 227 287 288
f 227 288 228
f 228 289 229
f 228 288 290
f 228 290 291
f 228 291 289
f 229 289 292
f 229 292 230
f 230 292 293
f 230 293 294
f 230 294 295
f 230 295 231
f 231 295 296
f 231 296 297
f 231 297 298
f 231 298 299
f 231 299 300
f 231 300 301
f 231 301 302
f 231 302 232
f 232 302 243
f 233 303 234
f 234 303 304
f 234 304 305
f 234 305 235
f 235 305 306
f 235 306 236
f 237 307 308
f 237 308 238
f 237 306 387
f 237 387 392
f 237 392 309
f 237 309 307
f 238 308 310
f 238 310 239
f 239 310 311
f 239 311 312
f 239 312 396
f 239 396 313
f 239 313 314
f 239 314 315
f 239 315 316
f 239 316 279
f 239 279 241
f 241 279 276
f 241 276 242
f 243 302 244
f 244 302 317
f 244 317 318
f 244 318 245
f 245 318 319
f 245 319 320
f 245 320 321
f 245 321 322
f 245 322 323
f 245 323 324
f 245 324 325
f 245 325 246
f 246 325 247
f 247 325 324
f 247 324 323
f 247 323 322
f 247 322 326
f 247 326 327
f 247 327 254
f 247 254 249
f 247 249 248
f 249 254 253
f 249 253 250
f 250 253 252
f 251 254 328
f 251 328 260
f 254 327 329
f 254 329 330
f 254 330 331
f 254 331 332
f 254 332 333
f 254 333 328
f 255 260 334
f 255 334 256
f 256 334 335
f 256 335 257
f 257 335 258
f 258 335 334
f 258 334 336
f 258 336 337
f 258 337 338
f 258 338 259
f 259 338 264
f 260 328 339
f 260 339 338
f 260 338 340
f 260 340 341
f 260 341 334
f 261 263 342
f 261 342 269
f 263 268 343
f 263 343 344
f 263 344 342
f 264 338 345
f 264 345 319
f 264 319 317
f 264 317 346
f 264 346 347
f 264 347 265
f 265 347 266
f 266 347 348
f 266 348 349
f 266 349 267
f 267 349 343
f 267 343 268
f 269 342 350
f 269 350 351
f 269 351 352
f 269 352 270
f 270 352 271
f 271 352 351
f 271 351 273
f 273 351 353
f 273 353 274
f 276 279 278
f 277 282 354
f 277 354 284
f 279 316 280
f 280 316 355
f 280 355 281
f 281 355 316
f 281 316 356
f 281 356 354
f 281 354 282
f 283 286 357
f 283 357 287
f 284 358 286
f 284 286 285
f 284 354 359
f 284 359 358
f 286 358 360
f 286 360 361
f 286 361 362
f 286 362 363
f 286 363 357
f 287 357 364
f 287 364 288
f 288 364 290
f 289 291 365
f 289 365 292
f 290 364 291
f 291 364 365
f 292 365 366
f 292 366 367
f 292 367 293
f 293 367 366
f 293 366 368
f 293 368 294
f 294 369 370
f 294 370 371
f 294 371 295
f 294 368 372
f 294 372 373
f 294 373 374
f 294 374 369
f 295 371 375
f 295 375 376
f 295 376 296
f 296 376 377
f 296 377 378
f 296 378 379
f 296 379 380
f 296 380 381
f 296 381 297
f 297 381 380
f 297 380 382
f 297 382 383
f 297 383 298
f 298 383 299
f 299 383 300
f 300 383 301
f 301 346 317
f 301 317 302
f 301 383 384
f 301 384 385
f 301 385 346
f 304 386 305
f 305 386 387
f 305 387 306
f 307 388 390
f 307 390 308
f 307 309 394
f 307 394 388
f 308 389 310
f 308 390 391
f 308 391 389
f 309 392 393
f 309 393 394
f 310 389 395
f 310 395 311
f 311 395 312
f 312 395 396
f 313 396 314
f 314 397 461
f 314 461 398
f 314 398 462
f 314 462 399
f 314 399 400
f 314 400 315
f 314 396 397
f 315 400 399
f 315 399 356
f 315 356 316
f 317 319 318
f 319 345 401
f 319 401 402
f 319 402 403
f 319 403 320
f 320 403 321
f 321 403 404
f 321 404 405
f 321 405 322
f 322 405 406
f 322 406 326
f 326 406 330
f 326 330 327
f 327 330 329
f 328 333 407
f 328 407 401
f 328 401 408
f 328 408 339
f 330 406 404
f 330 404 409
f 330 409 410
f 330 410 331
f 331 410 332
f 332 407 333
f 332 410 409
f 332 409 411
f 332 411 412
f 332 412 407
f 334 341 337
f 334 337 336
f 337 341 338
f 338 408 401
f 338 401 345
f 338 341 340
f 338 339 408
f 342 413 350
f 342 344 414
f 342 414 415
f 342 415 416
f 342 416 417
f 342 417 418
f 342 418 419
f 342 419 420
f 342 420 421
f 342 421 422
f 343 349 344
f 344 349 423
f 344 423 414
f 346 385 424
f 346 424 347
f 347 424 425
f 347 425 348
f 348 425 423
f 348 423 349
f 350 413 426
f 350 426 353
f 350 353 351
f 354 356 399
f 354 399 462
f 354 462 427
f 354 427 359
f 357 363 364
f 358 361 360
f 358 359 427
f 358 427 428
f 358 428 429
f 358 429 430
f 358 430 361
f 361 363 362
f 361 430 431
f 361 431 363
f 363 431 432
f 363 432 433
f 363 433 434
f 363 434 364
f 364 434 435
f 364 435 365
f 365 435 436
f 365 436 437
f 365 437 438
f 365 438 366
f 366 438 439
f 366 439 440
f 366 440 368
f 368 440 372
f 369 377 441
f 369 441 375
f 369 375 370
f 369 374 442
f 369 442 377
f 370 375 371
f 372 440 443
f 372 443 444
f 372 444 445
f 372 445 373
f 373 445 374
f 374 445 442
f 375 441 377
f 375 377 376
f 377 446 447
f 377 447 448
f 377 448 449
f 377 449 379
f 377 379 378
f 377 442 450
f 377 450 446
f 379 451 452
f 379 452 380
f 379 449 444
f 379 444 443
f 379 443 453
f 379 453 451
f 380 452 382
f 382 452 424
f 382 424 385
f 382 385 384
f 382 384 383
f 386 392 387
f 388 394 390
f 389 391 395
f 390 394 454
f 390 454 455
f 390 455 456
f 390 456 457
f 390 457 458
f 390 458 459
f 390 459 460
f 390 460 391
f 391 460 395
f 393 454 394
f 395 460 396
f 396 460 397
f 397 460 461
f 398 461 462
f 401 407 412
f 401 412 402
f 402 412 411
f 402 411 463
f 402 463 403
f 403 463 404
f 404 464 409
f 404 406 405
f 404 463 464
f 409 464 463
f 409 463 411
f 414 423 415
f 415 423 465
f 415 465 424
f 415 424 466
f 415 466 467
f 415 467 416
f 416 467 466
f 416 466 468
f 416 468 469
f 416 469 470
f 416 470 417
f 417 470 471
f 417 471 472
f 417 472 473
f 417 473 418
f 418 473 419
f 419 474 475
f 419 475 420
f 419 473 474
f 420 475 476
f 420 476 477
f 420 477 520
f 420 520 572
f 420 572 570
f 420 570 639
f 420 639 719
f 420 719 718
f 420 718 717
f 420 717 770
f 420 770 769
f 420 769 768
f 420 768 767
f 420 767 766
f 420 766 784
f 420 784 800
f 420 800 799
f 420 799 796
f 420 796 775
f 420 775 727
f 420 727 653
f 420 653 651
f 420 651 588
f 420 588 586
f 420 586 650
f 420 650 649
f 420 649 647
f 420 647 724
f 420 724 643
f 420 643 580
f 420 580 646
f 420 646 696
f 420 696 695
f 420 695 624
f 420 624 622
f 420 622 621
f 420 621 620
f 420 620 619
f 420 619 618
f 420 618 694
f 420 694 754
f 420 754 781
f 420 781 797
f 420 797 801
f 420 801 786
f 420 786 772
f 420 772 723
f 420 723 722
f 420 722 720
f 420 720 640
f 420 640 573
f 420 573 521
f 420 521 478
f 420 478 421
f 421 478 422
f 422 478 479
f 423 425 465
f 424 452 480
f 424 480 466
f 424 465 425
f 427 462 481
f 427 481 428
f 428 481 482
f 428 482 483
f 428 483 429
f 429 483 484
f 429 484 431
f 429 431 430
f 431 484 432
f 432 484 485
f 432 485 486
f 432 486 433
f 433 486 485
f 433 485 434
f 434 485 487
f 434 487 488
f 434 488 435
f 435 488 437
f 435 437 436
f 437 488 489
f 437 489 490
f 437 490 438
f 438 491 439
f 438 490 489
f 438 489 492
f 438 492 493
f 438 493 494
f 438 494 491
f 439 495 440
f 439 491 496
f 439 496 497
f 439 497 498
f 439 498 495
f 440 495 443
f 442 445 450
f 443 495 499
f 443 499 500
f 443 500 453
f 444 449 448
f 444 448 445
f 445 448 447
f 445 447 446
f 445 446 450
f 451 453 501
f 451 501 502
f 451 502 452
f 452 502 503
f 452 503 480
f 453 500 504
f 453 504 505
f 453 505 501
f 454 506 455
f 455 506 507
f 455 507 457
f 455 457 456
f 457 507 508
f 457 508 509
f 457 509 510
f 457 510 458
f 458 510 460
f 458 460 459
f 460 510 511
f 460 511 461
f 461 481 462
f 461 511 481
f 466 480 468
f 468 480 512
f 468 512 513
f 468 513 470
f 468 470 469
f 470 513 471
f 471 513 512
f 471 512 514
f 471 514 515
f 471 515 473
f 471 473 472
f 473 515 516
f 473 516 517
f 473 517 474
f 474 518 519
f 474 519 475
f 474 517 518
f 475 519 476
f 476 519 477
f 477 519 520
f 478 521 479
f 479 521 522
f 480 503 512
f 481 511 482
f 482 523 524
f 482 524 525
f 482 525 579
f 482 579 527
f 482 527 483
f 482 511 526
f 482 526 575
f 482 575 523
f 483 527 484
f 484 527 582
f 484 582 528
f 484 528 485
f 485 529 530
f 485 530 531
f 485 531 532
f 485 532 487
f 485 528 529
f 487 532 533
f 487 533 488
f 488 533 534
f 488 534 492
f 488 492 489
f 491 494 535
f 491 535 536
f 491 536 496
f 492 534 537
f 492 537 538
f 492 538 539
f 492 539 493
f 493 539 494
f 494 539 538
f 494 538 540
f 494 540 541
f 494 541 535
f 495 498 542
f 495 542 499
f 496 536 497
f 497 536 543
f 497 543 544
f 497 544 545
f 497 545 498
f 498 546 542
f 498 545 547
f 498 547 548
f 498 548 546
f 499 542 549
f 499 549 550
f 499 550 500
f 500 550 549
f 500 549 551
f 500 551 552
f 500 552 553
f 500 553 554
f 500 554 505
f 500 505 504
f 501 505 502
f 502 505 554
f 502 554 503
f 503 554 553
f 503 553 555
f 503 555 512
f 506 508 507
f 509 556 557
f 509 557 558
f 509 558 510
f 510 558 557
f 510 557 559
f 510 559 560
f 510 560 526
f 510 526 511
f 512 555 514
f 514 555 561
f 514 561 562
f 514 562 516
f 514 516 515
f 516 562 563
f 516 563 564
f 516 564 565
f 516 565 566
f 516 566 518
f 516 518 517
f 518 566 519
f 519 567 568
f 519 568 569
f 519 569 570
f 519 570 571
f 519 571 520
f 519 566 567
f 520 571 572
f 521 573 522
f 522 573 574
f 523 575 576
f 523 576 524
f 524 576 577
f 524 577 584
f 524 584 533
f 524 533 578
f 524 578 525
f 525 578 579
f 526 560 580
f 526 580 581
f 526 581 575
f 527 579 582
f 528 582 530
f 528 530 529
f 530 582 531
f 531 582 579
f 531 579 532
f 532 583 533
f 532 579 578
f 532 578 583
f 533 583 578
f 533 584 534
f 534 584 585
f 534 585 586
f 534 586 587
f 534 587 588
f 534 588 589
f 534 589 590
f 534 590 591
f 534 591 537
f 535 541 592
f 535 592 593
f 535 593 543
f 535 543 536
f 537 594 595
f 537 595 596
f 537 596 597
f 537 597 598
f 537 598 538
f 537 591 656
f 537 656 594
f 538 598 599
f 538 599 600
f 538 600 601
f 538 601 602
f 538 602 540
f 540 602 603
f 540 603 541
f 541 603 604
f 541 604 605
f 541 605 592
f 542 546 549
f 543 606 544
f 543 593 607
f 543 607 606
f 544 606 608
f 544 608 609
f 544 609 545
f 545 609 610
f 545 610 548
f 545 548 547
f 546 548 609
f 546 609 549
f 548 610 609
f 549 609 611
f 549 611 612
f 549 612 613
f 549 613 614
f 549 614 551
f 551 614 615
f 551 615 552
f 552 615 616
f 552 616 555
f 552 555 553
f 555 616 561
f 556 617 618
f 556 618 619
f 556 619 620
f 556 620 621
f 556 621 557
f 557 621 622
f 557 622 623
f 557 623 559
f 559 623 560
f 560 623 624
f 560 624 625
f 560 625 626
f 560 626 627
f 560 627 580
f 561 616 562
f 562 628 629
f 562 629 630
f 562 630 631
f 562 631 564
f 562 564 563
f 562 616 628
f 564 632 565
f 564 631 633
f 564 633 634
f 564 634 632
f 565 632 635
f 565 635 567
f 565 567 566
f 567 635 636
f 567 636 637
f 567 637 568
f 568 637 569
f 569 637 638
f 569 638 570
f 570 572 571
f 570 638 639
f 573 640 574
f 574 640 641
f 575 642 577
f 575 577 576
f 575 581 643
f 575 643 644
f 575 644 642
f 577 585 584
f 577 642 645
f 577 645 585
f 580 643 581
f 580 627 646
f 585 645 644
f 585 644 647
f 585 647 648
f 585 648 649
f 585 649 650
f 585 650 586
f 586 588 587
f 588 651 590
f 588 590 589
f 590 652 591
f 590 651 653
f 590 653 654
f 590 654 652
f 591 652 726
f 591 726 774
f 591 774 730
f 591 730 655
f 591 655 656
f 592 605 604
f 592 604 657
f 592 657 658
f 592 658 659
f 592 659 593
f 593 659 660
f 593 660 661
f 593 661 607
f 594 662 595
f 594 656 733
f 594 733 662
f 595 663 596
f 595 662 664
f 595 664 665
f 595 665 666
f 595 666 667
f 595 667 668
f 595 668 669
f 595 669 670
f 595 670 663
f 596 663 671
f 596 671 672
f 596 672 673
f 596 673 674
f 596 674 675
f 596 675 597
f 597 676 677
f 597 677 598
f 597 675 676
f 598 677 678
f 598 678 679
f 598 679 680
f 598 680 599
f 599 680 659
f 599 659 600
f 600 659 657
f 600 657 601
f 601 657 604
f 601 604 681
f 601 681 602
f 602 681 603
f 603 681 604
f 606 607 683
f 606 683 682
f 606 682 608
f 607 661 684
f 607 684 683
f 608 682 685
f 608 685 686
f 608 686 611
f 608 611 609
f 611 686 685
f 611 685 612
f 612 687 614
f 612 614 613
f 612 685 688
f 612 688 687
f 614 689 690
f 614 690 615
f 614 687 688
f 614 688 689
f 615 690 616
f 616 690 691
f 616 691 692
f 616 692 628
f 617 693 694
f 617 694 618
f 622 624 623
f 624 695 625
f 625 695 626
f 626 695 696
f 626 696 646
f 626 646 627
f 628 697 629
f 628 692 698
f 628 698 699
f 628 699 697
f 629 697 630
f 630 697 700
f 630 700 701
f 630 701 702
f 630 702 703
f 630 703 704
f 630 704 631
f 631 704 668
f 631 668 667
f 631 667 633
f 632 705 706
f 632 706 636
f 632 636 635
f 632 634 705
f 633 667 634
f 634 667 707
f 634 707 708
f 634 708 709
f 634 709 705
f 636 710 637
f 636 706 711
f 636 711 712
f 636 712 713
f 636 713 710
f 637 710 763
f 637 763 714
f 637 714 715
f 637 715 716
f 637 716 638
f 638 716 717
f 638 717 718
f 638 718 719
f 638 719 639
f 640 720 641
f 641 720 722
f 641 722 723
f 641 723 721
f 642 644 645
f 643 724 644
f 644 724 647
f 647 649 648
f 652 654 725
f 652 725 726
f 653 727 728
f 653 728 725
f 653 725 654
f 655 729 733
f 655 733 656
f 655 730 778
f 655 778 731
f 655 731 732
f 655 732 763
f 655 763 729
f 657 659 658
f 659 679 734
f 659 734 660
f 659 680 679
f 660 734 679
f 660 679 676
f 660 676 735
f 660 735 661
f 661 736 684
f 661 735 675
f 661 675 674
f 661 674 737
f 661 737 738
f 661 738 739
f 661 739 736
f 662 733 740
f 662 740 741
f 662 741 664
f 663 670 671
f 664 741 742
f 664 742 665
f 665 742 666
f 666 743 744
f 666 744 707
f 666 707 667
f 666 742 743
f 668 704 745
f 668 745 669
f 669 745 670
f 670 745 704
f 670 704 703
f 670 703 746
f 670 746 747
f 670 747 671
f 671 747 672
f 672 747 737
f 672 737 673
f 673 737 674
f 675 735 676
f 676 678 677
f 676 679 678
f 682 683 685
f 683 748 685
f 683 684 749
f 683 749 748
f 684 736 746
f 684 746 703
f 684 703 750
f 684 750 749
f 685 748 751
f 685 751 688
f 688 751 752
f 688 752 689
f 689 752 698
f 689 698 690
f 690 698 691
f 691 698 692
f 693 753 694
f 694 753 755
f 694 755 756
f 694 756 754
f 697 757 700
f 697 699 748
f 697 748 757
f 698 752 699
f 699 752 748
f 700 757 758
f 700 758 701
f 701 759 760
f 701 760 702
f 701 758 759
f 702 760 703
f 703 760 750
f 705 709 761
f 705 761 706
f 706 761 762
f 706 762 711
f 707 744 708
f 708 744 743
f 708 743 709
f 709 743 761
f 710 713 763
f 711 762 712
f 712 762 742
f 712 742 713
f 713 742 741
f 713 741 740
f 713 740 733
f 713 733 763
f 714 763 732
f 714 732 764
f 714 764 783
f 714 783 765
f 714 765 715
f 715 765 766
f 715 766 767
f 715 767 768
f 715 768 769
f 715 769 770
f 715 770 716
f 716 770 717
f 721 723 771
f 723 772 771
f 725 728 726
f 726 728 773
f 726 773 777
f 726 777 774
f 727 775 728
f 728 775 776
f 728 776 777
f 728 777 773
f 729 763 733
f 730 774 777
f 730 777 778
f 731 778 732
f 732 778 777
f 732 777 764
f 736 739 779
f 736 779 746
f 737 747 738
f 738 747 739
f 739 746 779
f 739 747 746
f 742 761 743
f 742 762 761
f 748 749 758
f 748 758 757
f 748 752 780
f 748 780 751
f 749 750 759
f 749 759 758
f 750 760 759
f 751 780 752
f 754 756 781
f 756 782 781
f 764 777 776
f 764 776 783
f 765 783 766
f 766 783 784
f 771 772 785
f 772 786 787
f 772 787 788
f 772 788 789
f 772 789 790
f 772 790 791
f 772 791 792
f 772 792 793
f 772 793 794
f 772 794 795
f 772 795 785
f 775 796 776
f 776 796 799
f 776 799 783
f 781 782 797
f 782 798 797
f 783 799 800
f 783 800 784
f 786 801 787
f 787 801 802
f 797 798 801
f 798 802 801

