# https://github.com/mikedh/trimesh
v -0.02409290 -0.03579718 0.02216327
v 0.00133402 -0.04564485 0.02172030
v 0.00060227 -0.04400176 0.02173060
v -0.02409290 -0.03415409 0.02215812
v -0.02409290 -0.06377302 0.02201905
v -0.01581223 -0.06369711 0.02192633
v 0.00133402 -0.06205944 0.02174090
v 0.00133402 -0.06041636 0.02174090
v 0.00133402 -0.04400176 0.02169969
v 0.00133402 -0.04327512 0.02166879
v -0.02409290 -0.03251100 0.02213236
v -0.02409290 -0.06534019 0.02200875
v 0.00133402 -0.06369711 0.02173060
v 0.00133402 -0.06297046 0.02173575
v 0.00133402 -0.04236410 0.02162243
v -0.02362747 -0.03251100 0.02210146
v -0.02409290 -0.03088961 0.02158122
v -0.02409290 -0.06698328 0.02198814
v -0.02402072 -0.06698328 0.02198814
v -0.02237803 -0.06698328 0.02197269
v -0.02073782 -0.06698328 0.02195724
v -0.00924643 -0.07026403 0.02180271
v -0.01252684 -0.06698328 0.02186452
v -0.00268063 -0.07190711 0.02171515
v 0.00133402 -0.07190711 0.02166879
v 0.00133402 -0.04174048 0.02137004
v -0.02409290 -0.03082996 0.02155032
v 0.00133402 -0.04102468 0.02103008
v -0.02409290 -0.06862636 0.02191088
v -0.01909513 -0.06862636 0.02191088
v -0.00432083 -0.07190711 0.02173060
v 0.00133402 -0.07355020 0.02164818
v -0.02409290 -0.03082996 0.02154002
v 0.00133402 -0.04076439 0.02043258
v 0.00133402 -0.04050410 0.01967541
v 0.00133402 -0.04049868 0.01894399
v 0.00133402 -0.04046072 -0.02628566
v -0.01088912 -0.07190711 0.02174090
v -0.01581223 -0.07026403 0.02182846
v -0.02409290 -0.07847403 0.02123612
v -0.00760622 -0.07190711 0.02174090
v -0.00103793 -0.07355020 0.02165334
v 0.00133402 -0.07519329 0.02156577
v -0.02409290 -0.03142646 -0.02792878
v 0.00133402 -0.04046072 -0.02701708
v 0.00133402 -0.04047156 -0.02792878
v -0.02409290 -0.08012254 0.02099403
v -0.02402072 -0.08011712 0.02100433
v -0.02237803 -0.08011712 0.02109704
v -0.02073782 -0.08011712 0.02111249
v 0.00133402 -0.07774739 0.02134944
v -0.02409290 -0.03164337 -0.02889200
v 0.00133402 -0.04094334 -0.02957191
v -0.02409290 -0.08108237 0.02065407
v -0.02402072 -0.08109321 0.02065922
v -0.02237803 -0.08124505 0.02076224
v -0.01581223 -0.08280137 0.02067983
v -0.00924643 -0.08435227 0.02059741
v -0.01581223 -0.08176021 0.02094252
v -0.00760622 -0.08339787 0.02081375
v -0.01416953 -0.08176021 0.02096312
v -0.00189661 -0.08586522 0.02049955
v 0.00133402 -0.08102814 0.02106099
v 0.00133402 -0.08011712 0.02114340
v 0.00133402 -0.07847403 0.02128762
v -0.00103793 -0.08339787 0.02083435
v -0.02409290 -0.03184401 -0.02957191
v 0.00133402 -0.04147477 -0.03042180
v -0.02409290 -0.03198500 -0.02985521
v -0.02409290 -0.08129928 0.01967541
v -0.01827627 -0.08257904 0.02049955
v -0.01745243 -0.08266038 0.02057681
v -0.01033409 -0.08427093 0.02054590
v -0.00299174 -0.08580556 0.02045319
v -0.00924643 -0.08339787 0.02078799
v -0.00253876 -0.08517110 0.02060256
v -0.00268063 -0.08339787 0.02082920
v -0.00253876 -0.08601704 0.01981448
v -0.00184435 -0.08586522 0.02049955
v 0.00133402 -0.08176021 0.02098372
v 0.00060227 -0.08339787 0.02081890
v -0.00119225 -0.08512772 0.02060256
v 0.00133402 -0.04187063 -0.03043725
v -0.02409290 -0.03268453 -0.03042180
v -0.02409290 -0.08140231 0.01803229
v -0.00512725 -0.08585979 0.01875341
v -0.00403461 -0.08597909 0.01935605
v -0.00268063 -0.08622854 0.01803229
v -0.00119225 -0.08600620 0.01977328
v 0.00060227 -0.08598994 0.01941272
v 0.00133402 -0.08596825 0.01932515
v 0.00133402 -0.08551274 0.02014414
v 0.00133402 -0.08514941 0.02039138
v 0.00133402 -0.08468848 0.02059741
v 0.00133402 -0.08267123 0.02088586
v 0.00133402 -0.08415705 0.02068498
v 0.00133402 -0.08339787 0.02079829
v 0.00133402 -0.04236410 -0.03045271
v -0.02409290 -0.03408359 -0.03045271
v -0.02409290 -0.08148365 0.01632220
v -0.02237803 -0.08180901 0.01803229
v -0.01581223 -0.08336534 0.01803229
v -0.01088912 -0.08453122 0.01803229
v -0.00924643 -0.08499758 0.01639431
v -0.01243973 -0.08439565 0.01310807
v -0.01909513 -0.08312673 0.00654073
v -0.01745243 -0.08351175 0.00654073
v -0.01357468 -0.08427093 0.00982698
v -0.00520938 -0.08587606 0.01766142
v -0.00447764 -0.08600620 0.01814045
v -0.00268063 -0.08619058 0.01639431
v -0.00103793 -0.08609297 0.01310807
v -0.00103793 -0.08616888 0.01639431
v -0.00103793 -0.08620142 0.01803229
v -0.00432083 -0.08602790 0.01639431
v 0.00133402 -0.08603332 0.01855767
v 0.00060227 -0.04236410 -0.03045786
v 0.00133402 -0.08176021 -0.03045271
v -0.02409290 -0.07847403 -0.03045271
v -0.02409290 -0.08163549 0.01303596
v -0.02402072 -0.08165175 0.01310807
v -0.02131774 -0.08252481 0.00818385
v -0.01981443 -0.08255735 0.01506024
v -0.01416953 -0.08383169 0.01639431
v -0.01227546 -0.08435769 0.01475119
v -0.01581223 -0.08367443 0.01146495
v -0.01909513 -0.08305082 0.00818385
v -0.02155917 -0.08257904 0.00573720
v -0.01909513 -0.08319723 0.00490276
v -0.01909513 -0.08324061 0.00325964
v -0.01745243 -0.08355513 0.00490276
v -0.01446571 -0.08411910 0.00818385
v -0.00520689 -0.08587606 0.01639431
v -0.00417150 -0.08595739 0.01310807
v -0.00268063 -0.08614719 0.01475119
v -0.00009712 -0.08587064 0.00538694
v 0.00060227 -0.08596282 0.01146495
v 0.00133402 -0.08600620 0.01548261
v 0.00133402 -0.08606043 0.01803229
v 0.00133402 -0.08581098 0.00654073
v -0.00581170 -0.08574591 0.01481815
v -0.00596353 -0.08558323 0.00818385
v -0.01073481 -0.08410282 -0.02454983
v -0.01014244 -0.08423297 -0.02300457
v -0.01008520 -0.08422213 -0.02394203
v -0.01252684 -0.08176021 -0.03045271
v -0.01909513 -0.08011712 -0.03045271
v 0.00133402 -0.08305624 -0.03042180
v -0.02409290 -0.07941217 -0.03042180
v -0.02409290 -0.08170598 0.01146495
v -0.02402072 -0.08172767 0.01146495
v -0.02402072 -0.08178190 0.00982698
v -0.02409290 -0.08176021 0.00982698
v -0.02409290 -0.08178190 0.00818385
v -0.02156664 -0.08257904 0.00490276
v -0.02088716 -0.08277968 0.00333175
v -0.02068058 -0.08282307 0.00161651
v -0.01909513 -0.08321892 0.00161651
v -0.01745243 -0.08354429 0.00325964
v -0.01441345 -0.08412452 0.00654073
v -0.01364437 -0.08427635 0.00818385
v -0.00400723 -0.08592487 0.01146495
v -0.00988857 -0.08421128 -0.02503401
v -0.00065962 -0.08587064 0.00538694
v -0.00432083 -0.08574049 0.00654073
v -0.00268063 -0.08609297 0.01310807
v 0.00060227 -0.08544766 -0.00822677
v 0.00133402 -0.08577303 0.00488215
v 0.00133402 -0.08539343 -0.00986989
v 0.00133402 -0.08544224 -0.00822677
v 0.00060227 -0.08574049 0.00161651
v 0.00133402 -0.08565915 -0.00002661
v -0.01252684 -0.08447700 0.00818385
v -0.01745243 -0.08351175 0.00161651
v -0.01088912 -0.08475355 0.00818385
v -0.01054565 -0.08430347 -0.01643723
v -0.01096379 -0.08409740 -0.02300457
v -0.01088912 -0.08402691 -0.02628566
v -0.01581223 -0.08358224 -0.00822677
v -0.01252684 -0.08385881 -0.02136145
v -0.01252684 -0.08263327 -0.03042180
v -0.01909513 -0.08100102 -0.03042180
v -0.02023755 -0.08096849 -0.03041150
v 0.00133402 -0.08342498 -0.03039090
v -0.02133268 -0.08071362 -0.03034969
v -0.02409290 -0.08024727 -0.02957706
v -0.02409290 -0.08178190 0.00811174
v -0.02156415 -0.08257904 0.00392925
v -0.02153677 -0.08257362 0.00283727
v -0.02150192 -0.08256277 0.00161651
v -0.02144966 -0.08254650 -0.00002661
v -0.02131774 -0.08251939 -0.00330770
v -0.02062831 -0.08279053 -0.00002661
v -0.01745243 -0.08340329 -0.00330770
v -0.01745243 -0.08344126 -0.00166458
v -0.02056857 -0.08275799 -0.00166458
v -0.01909513 -0.08317011 -0.00002661
v -0.01581223 -0.08353886 -0.00986989
v -0.01088912 -0.08396726 -0.02792878
v -0.00924643 -0.08414079 -0.02792878
v -0.00930367 -0.08419501 -0.02644534
v -0.00879344 -0.08424382 -0.02600237
v -0.00432083 -0.08568626 0.00490276
v -0.00268063 -0.08603332 0.01146495
v 0.00060227 -0.08539343 -0.00986989
v 0.00133402 -0.08533921 -0.01151301
v 0.00133402 -0.08557239 -0.00330770
v -0.01581223 -0.08365274 -0.00494567
v -0.01581223 -0.08378831 0.00161651
v -0.01298978 -0.08416248 -0.00330770
v -0.01252684 -0.08381000 -0.02300457
v -0.01252684 -0.08370697 -0.02628566
v 0.00133402 -0.08388049 -0.03030848
v -0.01357468 -0.08260615 -0.03041150
v -0.02076520 -0.08124505 -0.02971098
v -0.02237803 -0.08109863 -0.02925771
v -0.02337609 -0.08097934 -0.02892290
v -0.02409290 -0.08029065 -0.02951525
v -0.02409290 -0.08177105 0.00647892
v -0.02402072 -0.08179817 0.00654073
v -0.02409290 -0.08174394 0.00482550
v -0.02402072 -0.08171140 0.00161651
v -0.02409290 -0.08159753 -0.00339527
v -0.02402072 -0.08156499 -0.00658365
v -0.02402072 -0.08150534 -0.00986989
v -0.02237803 -0.08217776 -0.00330770
v -0.02121321 -0.08249228 -0.00494567
v -0.02049640 -0.08272545 -0.00330770
v -0.02402072 -0.08147280 -0.01151301
v -0.02409290 -0.08140773 -0.01315099
v -0.02409290 -0.08135892 -0.01490228
v -0.02409290 -0.08126674 -0.01819882
v -0.01909513 -0.08312131 -0.00166458
v -0.01581223 -0.08349006 -0.01151301
v -0.00695412 -0.08422755 -0.02879413
v -0.01252684 -0.08364189 -0.02792878
v -0.01581223 -0.08270376 -0.02915469
v -0.01414215 -0.08285018 -0.02968523
v -0.01252684 -0.08314843 -0.02957191
v -0.00813885 -0.08420586 -0.02792878
v -0.00432083 -0.08442277 -0.02792878
v -0.00103793 -0.08467221 -0.02628566
v -0.00103793 -0.08562119 -0.00166458
v -0.00432083 -0.08556154 0.00161651
v 0.00060227 -0.08533378 -0.01151301
v 0.00133402 -0.08495962 -0.02227315
v 0.00133402 -0.08511145 -0.01808035
v -0.01416953 -0.08362563 -0.01808035
v -0.01581223 -0.08344126 -0.01315099
v -0.01581223 -0.08338703 -0.01479411
v -0.01416953 -0.08351717 -0.02136145
v 0.00133402 -0.08446615 -0.02948949
v 0.00060227 -0.08444446 -0.02945344
v -0.00103793 -0.08439565 -0.02936072
v -0.00268063 -0.08435227 -0.02923711
v -0.00432083 -0.08430347 -0.02908773
v -0.00596353 -0.08426008 -0.02891260
v -0.02409290 -0.08086546 -0.02819663
v -0.01670575 -0.08259531 -0.02882503
v -0.02409290 -0.08151076 -0.00822677
v -0.02409290 -0.08147823 -0.00996776
v -0.02107632 -0.08246516 -0.00658365
v -0.02039186 -0.08269292 -0.00494567
v -0.02409290 -0.08121251 -0.01971832
v -0.01909513 -0.08306708 -0.00330770
v -0.02409290 -0.08144569 -0.01161088
v 0.00133402 -0.08474271 -0.02792878
v -0.01416953 -0.08345210 -0.02300457
v -0.01416953 -0.08338703 -0.02464254
v -0.01581223 -0.08286102 -0.02792878
v 0.00133402 -0.08493250 -0.02300457
v -0.01745243 -0.08319723 -0.00986989
v 0.00133402 -0.08459629 -0.02877868
v -0.02353538 -0.08101730 -0.02792878
v -0.02409290 -0.08088173 -0.02792878
v -0.01763164 -0.08242720 -0.02792878
v -0.02237803 -0.08129385 -0.02792878
v -0.02409290 -0.08114744 -0.02143356
v -0.02237803 -0.08189036 -0.01315099
v -0.02237803 -0.08182528 -0.01479411
v -0.02093694 -0.08243263 -0.00822677
v -0.01745243 -0.08313216 -0.01151301
v -0.01909513 -0.08287187 -0.00822677
v -0.01835591 -0.08260073 -0.01937837
v -0.02073782 -0.08181986 -0.02464254
v -0.02409290 -0.08092511 -0.02697588
v -0.02409290 -0.08109321 -0.02280884
v -0.02073782 -0.08215065 -0.01643723
v -0.01874170 -0.08269292 -0.01479411
v -0.01983932 -0.08256277 -0.01151301
f 1 2 3
f 1 3 4
f 1 4 11
f 1 11 17
f 1 17 27
f 1 27 33
f 1 33 44
f 1 44 52
f 1 52 67
f 1 67 69
f 1 69 84
f 1 84 99
f 1 99 119
f 1 119 149
f 1 149 186
f 1 186 218
f 1 218 258
f 1 258 275
f 1 275 286
f 1 286 287
f 1 287 278
f 1 278 264
f 1 264 232
f 1 232 231
f 1 231 230
f 1 230 266
f 1 266 261
f 1 261 260
f 1 260 223
f 1 223 221
f 1 221 219
f 1 219 187
f 1 187 154
f 1 154 153
f 1 153 150
f 1 150 120
f 1 120 100
f 1 100 85
f 1 85 70
f 1 70 54
f 1 54 47
f 1 47 40
f 1 40 29
f 1 29 18
f 1 18 12
f 1 12 5
f 1 5 6
f 1 6 7
f 1 7 8
f 1 8 2
f 2 9 3
f 2 8 7
f 2 7 14
f 2 14 13
f 2 13 25
f 2 25 32
f 2 32 43
f 2 43 51
f 2 51 65
f 2 65 64
f 2 64 63
f 2 63 80
f 2 80 95
f 2 95 97
f 2 97 96
f 2 96 94
f 2 94 93
f 2 93 92
f 2 92 91
f 2 91 116
f 2 116 139
f 2 139 138
f 2 138 140
f 2 140 168
f 2 168 172
f 2 172 207
f 2 207 170
f 2 170 169
f 2 169 206
f 2 206 247
f 2 247 246
f 2 246 271
f 2 271 267
f 2 267 273
f 2 273 252
f 2 252 213
f 2 213 184
f 2 184 148
f 2 148 118
f 2 118 98
f 2 98 83
f 2 83 68
f 2 68 53
f 2 53 46
f 2 46 45
f 2 45 37
f 2 37 36
f 2 36 35
f 2 35 34
f 2 34 28
f 2 28 26
f 2 26 15
f 2 15 10
f 2 10 9
f 3 9 10
f 3 10 11
f 3 11 4
f 5 12 6
f 6 13 14
f 6 14 7
f 6 12 13
f 10 15 11
f 11 16 17
f 11 15 16
f 12 18 19
f 12 19 20
f 12 20 21
f 12 21 22
f 12 22 23
f 12 23 13
f 13 23 22
f 13 22 24
f 13 24 25
f 15 26 17
f 15 17 16
f 17 26 28
f 17 28 27
f 18 29 30
f 18 30 19
f 19 30 31
f 19 31 22
f 19 22 20
f 20 22 21
f 22 31 24
f 24 31 32
f 24 32 25
f 27 28 34
f 27 34 35
f 27 35 36
f 27 36 37
f 27 37 45
f 27 45 33
f 29 38 39
f 29 39 30
f 29 40 38
f 30 39 41
f 30 41 32
f 30 32 31
f 32 42 43
f 32 41 42
f 33 45 46
f 33 46 44
f 38 40 43
f 38 43 42
f 38 42 41
f 38 41 39
f 40 47 48
f 40 48 49
f 40 49 50
f 40 50 43
f 43 50 51
f 44 46 52
f 46 53 52
f 47 54 55
f 47 55 48
f 48 55 56
f 48 56 57
f 48 57 58
f 48 58 49
f 49 59 60
f 49 60 61
f 49 61 50
f 49 58 62
f 49 62 59
f 50 63 64
f 50 64 65
f 50 65 51
f 50 61 66
f 50 66 63
f 52 53 67
f 53 68 69
f 53 69 67
f 54 70 71
f 54 71 55
f 55 71 72
f 55 72 73
f 55 73 56
f 56 73 57
f 57 73 58
f 58 73 74
f 58 74 62
f 59 62 75
f 59 75 60
f 60 75 62
f 60 62 76
f 60 76 77
f 60 77 61
f 61 77 66
f 62 74 78
f 62 78 79
f 62 79 76
f 63 66 81
f 63 81 80
f 66 77 76
f 66 76 82
f 66 82 81
f 68 83 84
f 68 84 69
f 70 85 86
f 70 86 71
f 71 86 87
f 71 87 73
f 71 73 72
f 73 87 74
f 74 87 78
f 76 79 82
f 78 88 89
f 78 89 79
f 78 87 88
f 79 89 90
f 79 90 91
f 79 91 92
f 79 92 93
f 79 93 94
f 79 94 82
f 80 81 95
f 81 82 96
f 81 96 97
f 81 97 95
f 82 94 96
f 83 98 84
f 84 98 99
f 85 100 101
f 85 101 86
f 86 101 102
f 86 102 103
f 86 103 104
f 86 104 105
f 86 105 106
f 86 106 107
f 86 107 108
f 86 108 109
f 86 109 110
f 86 110 87
f 87 110 88
f 88 111 112
f 88 112 113
f 88 113 114
f 88 114 89
f 88 110 115
f 88 115 111
f 89 114 90
f 90 114 91
f 91 114 116
f 98 117 99
f 98 118 117
f 99 117 119
f 100 120 151
f 100 151 121
f 100 121 122
f 100 122 123
f 100 123 102
f 100 102 101
f 102 123 124
f 102 124 104
f 102 104 103
f 104 124 125
f 104 125 105
f 105 125 126
f 105 126 127
f 105 127 106
f 106 127 122
f 106 122 128
f 106 128 129
f 106 129 107
f 107 129 108
f 108 129 130
f 108 130 131
f 108 131 132
f 108 132 109
f 109 133 110
f 109 132 131
f 109 131 133
f 110 133 115
f 111 115 134
f 111 134 135
f 111 135 112
f 112 135 136
f 112 136 113
f 113 137 138
f 113 138 139
f 113 139 114
f 113 136 140
f 113 140 137
f 114 139 116
f 115 133 141
f 115 141 142
f 115 142 143
f 115 143 144
f 115 144 145
f 115 145 134
f 117 118 146
f 117 146 147
f 117 147 119
f 118 148 146
f 119 147 149
f 120 150 151
f 121 151 122
f 122 127 126
f 122 126 125
f 122 125 123
f 122 151 128
f 123 125 124
f 128 152 153
f 128 153 154
f 128 154 155
f 128 155 156
f 128 156 130
f 128 130 129
f 128 151 152
f 130 156 157
f 130 157 158
f 130 158 159
f 130 159 131
f 131 159 160
f 131 160 161
f 131 161 133
f 133 161 160
f 133 160 141
f 134 162 135
f 134 145 163
f 134 163 162
f 135 164 136
f 135 162 165
f 135 165 166
f 135 166 205
f 135 205 167
f 135 167 164
f 136 168 140
f 136 164 167
f 136 167 169
f 136 169 170
f 136 170 171
f 136 171 172
f 136 172 168
f 137 140 138
f 141 160 173
f 141 173 174
f 141 174 175
f 141 175 176
f 141 176 177
f 141 177 142
f 142 177 143
f 143 178 145
f 143 145 144
f 143 177 179
f 143 179 180
f 143 180 178
f 145 178 163
f 146 148 181
f 146 181 182
f 146 182 147
f 147 182 183
f 147 183 149
f 148 184 181
f 149 183 185
f 149 185 186
f 150 153 152
f 150 152 151
f 154 187 155
f 155 188 156
f 155 187 188
f 156 188 157
f 157 188 189
f 157 189 190
f 157 190 191
f 157 191 192
f 157 192 193
f 157 193 158
f 158 194 195
f 158 195 174
f 158 174 159
f 158 193 196
f 158 196 197
f 158 197 234
f 158 234 198
f 158 198 194
f 159 174 173
f 159 173 160
f 162 163 165
f 163 178 199
f 163 199 200
f 163 200 201
f 163 201 202
f 163 202 203
f 163 203 165
f 165 203 166
f 166 203 204
f 166 204 245
f 166 245 205
f 167 205 206
f 167 206 169
f 170 207 171
f 171 207 172
f 174 195 179
f 174 179 208
f 174 208 177
f 174 177 209
f 174 209 175
f 175 209 210
f 175 210 176
f 176 210 177
f 177 210 209
f 177 208 179
f 178 180 211
f 178 211 212
f 178 212 199
f 179 195 194
f 179 194 180
f 180 194 198
f 180 198 234
f 180 234 248
f 180 248 211
f 181 184 213
f 181 213 214
f 181 214 183
f 181 183 182
f 183 215 216
f 183 216 185
f 183 214 215
f 185 216 217
f 185 217 186
f 186 217 218
f 187 219 220
f 187 220 188
f 188 220 189
f 189 220 221
f 189 221 222
f 189 222 223
f 189 223 224
f 189 224 225
f 189 225 190
f 190 226 191
f 190 225 226
f 191 226 192
f 192 227 228
f 192 228 196
f 192 196 193
f 192 226 229
f 192 229 230
f 192 230 231
f 192 231 232
f 192 232 227
f 196 228 233
f 196 233 197
f 197 233 249
f 197 249 234
f 199 235 200
f 199 212 236
f 199 236 237
f 199 237 238
f 199 238 239
f 199 239 235
f 200 235 240
f 200 240 202
f 200 202 201
f 202 240 241
f 202 241 242
f 202 242 243
f 202 243 244
f 202 244 203
f 203 244 204
f 204 244 243
f 204 243 245
f 205 245 246
f 205 246 247
f 205 247 206
f 211 248 212
f 212 248 249
f 212 249 250
f 212 250 251
f 212 251 268
f 212 268 236
f 213 252 253
f 213 253 254
f 213 254 214
f 214 254 255
f 214 255 256
f 214 256 257
f 214 257 235
f 214 235 239
f 214 239 238
f 214 238 216
f 214 216 215
f 216 238 237
f 216 237 217
f 217 258 218
f 217 237 259
f 217 259 258
f 219 221 220
f 221 223 222
f 223 260 224
f 224 260 225
f 225 260 261
f 225 261 266
f 225 266 229
f 225 229 226
f 227 262 263
f 227 263 228
f 227 232 264
f 227 264 262
f 228 263 265
f 228 265 233
f 229 266 230
f 233 265 250
f 233 250 249
f 234 249 248
f 235 257 267
f 235 267 241
f 235 241 240
f 236 268 269
f 236 269 270
f 236 270 259
f 236 259 237
f 241 267 242
f 242 267 271
f 242 271 243
f 243 271 245
f 245 271 246
f 250 265 251
f 251 265 272
f 251 272 282
f 251 282 268
f 252 273 253
f 253 273 254
f 254 273 255
f 255 273 267
f 255 267 257
f 255 257 256
f 258 274 275
f 258 259 274
f 259 270 276
f 259 276 277
f 259 277 274
f 262 264 278
f 262 278 279
f 262 279 280
f 262 280 281
f 262 281 282
f 262 282 283
f 262 283 265
f 262 265 263
f 265 283 282
f 265 282 272
f 268 282 269
f 269 276 270
f 269 282 284
f 269 284 285
f 269 285 286
f 269 286 276
f 274 277 286
f 274 286 275
f 276 286 277
f 278 287 279
f 279 287 280
f 280 288 289
f 280 289 290
f 280 290 281
f 280 287 288
f 281 290 282
f 282 290 289
f 282 289 284
f 284 289 288
f 284 288 287
f 284 287 286
f 284 286 285

