# https://github.com/mikedh/trimesh
v 0.08242138 -0.02101731 0.01311143
v 0.08227908 -0.01943613 0.01311143
v 0.08240105 -0.02101731 0.01475343
v 0.08203008 -0.02230260 0.01475343
v 0.08200975 -0.02224250 0.01311143
v 0.08198942 -0.02218008 0.01146942
v 0.08194368 -0.02205756 0.00818542
v 0.08191828 -0.02199284 0.00654341
v 0.08189287 -0.02191424 0.00490141
v 0.08221810 -0.02101731 0.00654341
v 0.08189287 -0.02028220 -0.00822935
v 0.08187253 -0.02021978 -0.00923455
v 0.08186745 -0.01856231 -0.01736562
v 0.08186745 -0.01855075 -0.01736562
v 0.08005829 0.00012757 0.01826900
v 0.08006338 0.00012757 0.01967417
v 0.08224351 -0.01945462 0.01475343
v 0.08208598 -0.01971353 0.01587967
v 0.08211647 -0.02101731 0.01594809
v 0.08197926 -0.02216621 0.01576915
v 0.08024124 -0.00189052 0.02052149
v 0.08161336 -0.02348387 0.01475343
v 0.08158795 -0.02348387 0.01366928
v 0.08154730 -0.02348387 0.01207991
v 0.08167942 -0.02294062 0.00982742
v 0.08142024 -0.02348387 0.00728547
v 0.08139992 -0.02348387 0.00654341
v 0.08135418 -0.02348387 0.00490141
v 0.08121188 -0.02348387 -0.00002460
v 0.08111025 -0.02348387 -0.00330860
v 0.08105943 -0.02348387 -0.00494534
v 0.08083582 -0.02348387 -0.01151336
v 0.08131861 -0.02265860 -0.00494534
v 0.08187253 -0.02186107 0.00387516
v 0.08114074 -0.02265860 -0.00987135
v 0.08206057 -0.02115370 0.00330151
v 0.08198434 -0.02059196 -0.00330860
v 0.08192336 -0.02038622 -0.00658735
v 0.08095779 -0.02101731 -0.02792812
v 0.08146598 -0.01937371 -0.02628612
v 0.08140500 -0.01937371 -0.02792812
v 0.07942813 -0.00131722 -0.02792812
v 0.07928584 0.00012757 -0.02609139
v 0.07998714 0.00012757 0.01981627
v 0.08027682 -0.00296082 0.02056359
v 0.08154730 -0.02101731 0.01676909
v 0.08058681 -0.02348387 0.01770061
v 0.08102386 -0.02348387 0.01698487
v 0.08032255 -0.00460211 0.02061096
v 0.08029714 -0.00624340 0.02057938
v 0.08130336 -0.02348387 0.01636912
v 0.08154730 -0.02348387 0.01525866
v 0.07933666 0.00012757 0.02093199
v 0.08065795 -0.02348387 -0.01643410
v 0.08022091 -0.02345844 -0.02858598
v 0.08037846 -0.02236502 -0.02900174
v 0.08057665 -0.02101731 -0.02919646
v 0.08079517 -0.01937371 -0.02927541
v 0.07889454 0.00012757 -0.02910173
v 0.07894535 0.00012757 -0.02895437
v 0.07923502 0.00012757 -0.02792812
v 0.07928076 0.00012757 -0.02628612
v 0.08072910 -0.02101731 0.01788481
v 0.08063763 -0.02265860 0.01776377
v 0.08024124 -0.00721430 0.02052149
v 0.08028189 -0.02348387 0.01811638
v 0.07940273 -0.00296082 0.02096357
v 0.07940273 -0.00460211 0.02097936
v 0.07895552 -0.01444984 0.02084252
v 0.07890978 -0.01609113 0.02080568
v 0.07885388 -0.01773242 0.02073727
v 0.07876240 -0.01937371 0.02066359
v 0.07860995 -0.02209455 0.02052675
v 0.07776126 0.00012757 0.02149511
v 0.08029714 -0.02348387 -0.02628612
v 0.08025140 -0.02348387 -0.02752288
v 0.08021075 -0.02348387 -0.02856492
v 0.07943322 -0.02348387 -0.02950171
v 0.07940273 -0.02101731 -0.02993852
v 0.07899109 -0.00131722 -0.02917015
v 0.07940273 -0.01937371 -0.03000168
v 0.07776126 -0.00131722 -0.02984905
v 0.07790864 0.00012757 -0.02967538
v 0.08024124 -0.01868945 0.01887422
v 0.08018026 -0.01978288 0.01879528
v 0.07909273 -0.02264704 0.01981627
v 0.07909781 -0.02348387 0.01967944
v 0.07776126 -0.01444984 0.02125828
v 0.07776126 -0.01609113 0.02121092
v 0.07776126 -0.01773242 0.02112145
v 0.07825421 -0.02348387 0.02052675
v 0.07850831 -0.02318797 0.02045307
v 0.07776126 -0.01937371 0.02100567
v 0.07772061 -0.02348387 0.02072148
v 0.06791252 0.00012757 0.02284766
v 0.07803061 -0.02348387 -0.03032271
v 0.07776126 0.00012757 -0.02975958
v 0.07801028 -0.02265860 -0.03032271
v 0.07795438 -0.01937371 -0.03029639
v 0.07697865 -0.01280856 -0.03041218
v 0.07695832 -0.01172438 -0.03039639
v 0.07642472 0.00012757 -0.03018061
v 0.07847274 -0.02348387 0.02043202
v 0.06771940 0.00012757 0.02287397
v 0.06627106 0.00012757 0.02306870
v 0.07611981 -0.01773242 0.02131618
v 0.07611981 -0.01937371 0.02124776
v 0.07611981 -0.02101731 0.02117408
v 0.07611981 -0.02265860 0.02109514
v 0.07611981 -0.02348387 0.02105303
v 0.07698882 -0.02348387 0.02087410
v 0.07762405 -0.02348387 -0.03037534
v 0.07701423 -0.01444984 -0.03041744
v 0.07542867 0.00012757 -0.03042270
v 0.07552522 0.00012757 -0.03040165
v 0.06607286 0.00012757 0.02308449
v 0.07365000 -0.02348387 0.02126355
v 0.07447835 -0.02265860 0.02123723
v 0.07529146 -0.02348387 0.02112672
v 0.07711078 -0.01773242 -0.03041744
v 0.07706505 -0.01609113 -0.03041744
v 0.07721242 -0.02348387 -0.03042270
v 0.07718701 -0.02265860 -0.03042270
v 0.07611981 -0.01444984 -0.03044902
v 0.07459523 0.00012757 -0.03044902
v 0.06462960 0.00012757 0.02317922
v 0.06544271 -0.02348387 0.02182667
v 0.06791252 -0.02348387 0.02166352
v 0.07036708 -0.02348387 0.02150038
v 0.07200854 -0.02348387 0.02138986
v 0.07283689 -0.02348387 0.02132670
v 0.07447835 -0.02348387 0.02119513
v 0.07611981 -0.02348387 -0.03044902
v 0.07530670 -0.02348387 -0.03045428
v 0.07447835 -0.00460211 -0.03045428
v 0.07303001 0.00012757 -0.03045428
v 0.06443141 0.00012757 0.02318448
v 0.06298814 -0.02348387 0.02194245
v 0.06380125 -0.02348387 0.02191088
v 0.06462960 -0.02348387 0.02187404
v 0.03344189 -0.02348387 -0.03045428
v 0.04164918 0.00012757 -0.03045954
v 0.06298814 0.00012757 0.02320027
v 0.05313939 -0.02348387 0.02211613
v 0.05383561 -0.02348387 0.02210560
v 0.05723541 -0.02348387 0.02204771
v 0.06051833 -0.02348387 0.02198982
v 0.06134668 -0.02348387 0.02197403
v 0.03344189 -0.02265860 -0.03045428
v 0.03215108 -0.02348387 -0.03042797
v 0.03508335 0.00012757 -0.03045428
v 0.05313939 0.00012757 0.02330553
v 0.05149793 -0.02348387 0.02212665
v 0.03141929 -0.02348387 -0.03006483
v 0.03418385 0.00012757 -0.03042270
v 0.03429057 0.00012757 -0.03042797
v 0.04985647 -0.02348387 0.02210560
v 0.05149793 0.00012757 0.02322132
v 0.03589645 -0.02348387 0.02188456
v 0.04410375 -0.02348387 0.02201613
v 0.04575028 -0.02348387 0.02204245
v 0.03073323 -0.02348387 -0.02923330
v 0.03050962 -0.02348387 -0.02792812
v 0.03406188 0.00012757 -0.02957012
v 0.05130482 0.00012757 0.02320027
v 0.03425500 -0.02348387 0.02178457
v 0.03059093 -0.02348387 0.00654341
v 0.03061634 -0.02348387 0.00818542
v 0.03067733 -0.02348387 0.00982742
v 0.03076372 -0.02348387 0.01146942
v 0.03093142 -0.02348387 0.01432714
v 0.03099749 -0.02348387 0.01540602
v 0.03837643 0.00012757 0.01967417
v 0.04985647 0.00012757 0.02302660
v 0.04174065 0.00012757 0.02204245
v 0.04000772 0.00012757 0.02176878
v 0.03344189 -0.02348387 0.02157406
v 0.03110929 -0.02348387 0.01655858
v 0.03127191 -0.02348387 0.01803217
v 0.03146502 -0.02348387 0.01967417
v 0.03879823 0.00012757 0.02104777
v 0.03205453 -0.02348387 0.02094252
v 0.03260337 -0.02348387 0.02125828
v 0.03158191 -0.02348387 0.02002152
f 1 2 3
f 1 3 4
f 1 4 5
f 1 5 6
f 1 6 7
f 1 7 8
f 1 8 9
f 1 9 10
f 1 10 11
f 1 11 12
f 1 12 13
f 1 13 14
f 1 14 2
f 2 15 16
f 2 16 17
f 2 17 3
f 2 14 15
f 3 18 19
f 3 19 20
f 3 20 4
f 3 17 21
f 3 21 18
f 4 22 23
f 4 23 5
f 4 20 22
f 5 23 24
f 5 24 6
f 6 24 25
f 6 25 7
f 7 25 26
f 7 26 27
f 7 27 28
f 7 28 29
f 7 29 8
f 8 29 30
f 8 30 31
f 8 31 9
f 9 31 32
f 9 32 33
f 9 33 34
f 9 34 10
f 10 34 33
f 10 33 35
f 10 35 36
f 10 36 37
f 10 37 38
f 10 38 11
f 11 38 39
f 11 39 12
f 12 40 13
f 12 39 41
f 12 41 40
f 13 40 41
f 13 41 14
f 14 41 42
f 14 42 43
f 14 43 15
f 15 43 62
f 15 62 61
f 15 61 60
f 15 60 59
f 15 59 83
f 15 83 97
f 15 97 102
f 15 102 115
f 15 115 114
f 15 114 125
f 15 125 136
f 15 136 142
f 15 142 151
f 15 151 156
f 15 156 155
f 15 155 164
f 15 164 173
f 15 173 181
f 15 181 176
f 15 176 175
f 15 175 174
f 15 174 165
f 15 165 158
f 15 158 152
f 15 152 143
f 15 143 137
f 15 137 126
f 15 126 116
f 15 116 105
f 15 105 104
f 15 104 95
f 15 95 74
f 15 74 53
f 15 53 44
f 15 44 16
f 16 44 21
f 16 21 17
f 18 21 45
f 18 45 19
f 19 46 47
f 19 47 48
f 19 48 20
f 19 45 49
f 19 49 50
f 19 50 46
f 20 48 51
f 20 51 52
f 20 52 22
f 21 44 53
f 21 53 45
f 22 52 51
f 22 51 48
f 22 48 47
f 22 47 66
f 22 66 87
f 22 87 103
f 22 103 91
f 22 91 94
f 22 94 111
f 22 111 110
f 22 110 119
f 22 119 132
f 22 132 117
f 22 117 131
f 22 131 130
f 22 130 129
f 22 129 128
f 22 128 127
f 22 127 140
f 22 140 139
f 22 139 138
f 22 138 148
f 22 148 147
f 22 147 146
f 22 146 145
f 22 145 144
f 22 144 153
f 22 153 157
f 22 157 161
f 22 161 160
f 22 160 159
f 22 159 166
f 22 166 177
f 22 177 183
f 22 183 182
f 22 182 184
f 22 184 180
f 22 180 179
f 22 179 178
f 22 178 172
f 22 172 171
f 22 171 170
f 22 170 169
f 22 169 168
f 22 168 167
f 22 167 163
f 22 163 162
f 22 162 154
f 22 154 150
f 22 150 141
f 22 141 134
f 22 134 133
f 22 133 122
f 22 122 112
f 22 112 96
f 22 96 78
f 22 78 77
f 22 77 76
f 22 76 75
f 22 75 54
f 22 54 32
f 22 32 31
f 22 31 30
f 22 30 29
f 22 29 28
f 22 28 27
f 22 27 26
f 22 26 24
f 22 24 23
f 24 26 25
f 32 54 35
f 32 35 33
f 35 54 55
f 35 55 39
f 35 39 37
f 35 37 36
f 37 39 38
f 39 55 41
f 41 55 56
f 41 56 57
f 41 57 58
f 41 58 59
f 41 59 60
f 41 60 42
f 42 60 61
f 42 61 62
f 42 62 43
f 45 53 49
f 46 63 64
f 46 64 47
f 46 50 65
f 46 65 63
f 47 64 66
f 49 53 67
f 49 67 68
f 49 68 50
f 50 68 69
f 50 69 70
f 50 70 71
f 50 71 72
f 50 72 73
f 50 73 65
f 53 74 67
f 54 75 55
f 55 75 76
f 55 76 77
f 55 77 78
f 55 78 56
f 56 78 57
f 57 78 79
f 57 79 58
f 58 80 59
f 58 79 81
f 58 81 82
f 58 82 80
f 59 80 83
f 63 65 84
f 63 84 85
f 63 85 66
f 63 66 64
f 65 73 86
f 65 86 84
f 66 85 86
f 66 86 87
f 67 74 68
f 68 88 89
f 68 89 69
f 68 74 88
f 69 89 70
f 70 89 71
f 71 89 90
f 71 90 72
f 72 90 73
f 73 91 92
f 73 92 87
f 73 87 86
f 73 90 93
f 73 93 94
f 73 94 91
f 74 95 88
f 78 96 79
f 79 96 81
f 80 82 97
f 80 97 83
f 81 96 98
f 81 98 99
f 81 99 100
f 81 100 101
f 81 101 102
f 81 102 82
f 82 102 97
f 84 86 85
f 87 92 103
f 88 95 104
f 88 104 105
f 88 105 89
f 89 106 107
f 89 107 108
f 89 108 109
f 89 109 110
f 89 110 90
f 89 105 106
f 90 110 93
f 91 103 92
f 93 110 111
f 93 111 94
f 96 112 98
f 98 112 113
f 98 113 100
f 98 100 99
f 100 113 114
f 100 114 101
f 101 114 115
f 101 115 102
f 105 116 117
f 105 117 118
f 105 118 119
f 105 119 109
f 105 109 108
f 105 108 107
f 105 107 106
f 109 119 110
f 112 120 121
f 112 121 113
f 112 122 120
f 113 121 123
f 113 123 124
f 113 124 114
f 114 124 125
f 116 126 127
f 116 127 128
f 116 128 129
f 116 129 130
f 116 130 131
f 116 131 117
f 117 132 118
f 118 132 119
f 120 122 121
f 121 122 123
f 122 133 124
f 122 124 123
f 124 133 134
f 124 134 135
f 124 135 125
f 125 135 136
f 126 137 138
f 126 138 139
f 126 139 140
f 126 140 127
f 134 141 142
f 134 142 135
f 135 142 136
f 137 143 144
f 137 144 145
f 137 145 146
f 137 146 147
f 137 147 148
f 137 148 138
f 141 149 142
f 141 150 149
f 142 149 151
f 143 152 144
f 144 152 153
f 149 150 151
f 150 154 155
f 150 155 156
f 150 156 151
f 152 157 153
f 152 158 159
f 152 159 160
f 152 160 161
f 152 161 157
f 154 162 155
f 155 162 163
f 155 163 164
f 158 165 166
f 158 166 159
f 163 167 164
f 164 167 168
f 164 168 169
f 164 169 170
f 164 170 171
f 164 171 172
f 164 172 173
f 165 174 166
f 166 174 175
f 166 175 176
f 166 176 177
f 172 178 173
f 173 178 179
f 173 179 180
f 173 180 181
f 176 181 182
f 176 182 183
f 176 183 177
f 180 184 181
f 181 184 182

