# https://github.com/mikedh/trimesh
v 0.00133570 0.07759097 -0.00463972
v 0.00193872 0.07753630 -0.00463972
v 0.00133570 0.07759594 -0.00494803
v 0.00133570 0.03422773 -0.00463972
v 0.00522261 0.07723313 -0.00463972
v 0.00133570 0.07784444 -0.02793019
v 0.00717278 0.07707409 -0.00659070
v 0.00717278 0.07719834 -0.01807925
v 0.00133570 0.03295044 -0.00987350
v 0.01849420 0.02721009 -0.01527156
v 0.01849420 0.03006784 -0.00463972
v 0.00686539 0.07707906 -0.00463972
v 0.00717278 0.07705421 -0.00494803
v 0.00133570 0.07762079 -0.02866055
v 0.00881388 0.07706415 -0.01972192
v 0.01045330 0.07692996 -0.02136206
v 0.01045330 0.07699954 -0.02793019
v 0.01307201 0.07670134 -0.02892337
v 0.01209608 0.07676098 -0.02914071
v 0.01045330 0.07683553 -0.02935552
v 0.00881388 0.07691008 -0.02949957
v 0.00553000 0.07709397 -0.02957033
v 0.00881388 0.07697469 -0.01151617
v 0.00133570 0.03257271 -0.01151617
v 0.01772656 0.02736913 -0.01551922
v 0.01849420 0.02707093 -0.01643911
v 0.01849420 0.07463879 -0.00463972
v 0.00717278 0.07704924 -0.00463972
v 0.00881388 0.07693493 -0.00823084
v 0.00388890 0.07717846 -0.02957033
v 0.00224612 0.07726295 -0.02957033
v 0.00133570 0.07730768 -0.02957033
v 0.01209608 0.07684547 -0.02793019
v 0.01313248 0.07671625 -0.02793019
v 0.01395387 0.07650254 -0.02793019
v 0.01537829 0.07604530 -0.02793019
v 0.01798524 0.07507118 -0.02896128
v 0.01689005 0.07520537 -0.02953495
v 0.01625679 0.07503142 -0.03040177
v 0.00782452 0.07654230 -0.03037903
v 0.00672933 0.07667649 -0.03040177
v 0.00723493 0.07692996 -0.02972954
v 0.00133570 0.03241865 -0.01315631
v 0.01849420 0.02790589 -0.02784932
v 0.00133570 0.03265721 -0.02793019
v 0.01849420 0.07464376 -0.00494803
v 0.01763585 0.07494693 -0.00463972
v 0.00850649 0.07690014 -0.00463972
v 0.00881388 0.07690511 -0.00659070
v 0.01159216 0.07672122 -0.01643911
v 0.01170470 0.07673613 -0.01807925
v 0.01308041 0.07670134 -0.02628753
v 0.01209608 0.07682559 -0.02628753
v 0.00133570 0.07706415 -0.02994688
v 0.00553000 0.07669140 -0.03041188
v 0.01390012 0.07648763 -0.02628753
v 0.01537829 0.07582662 -0.01315631
v 0.01537829 0.07591608 -0.01807925
v 0.01537829 0.07594093 -0.01972192
v 0.01537829 0.07600554 -0.02464739
v 0.01537829 0.07602542 -0.02628753
v 0.01849420 0.07492208 -0.02699766
v 0.01702107 0.07545884 -0.02793019
v 0.01849420 0.07493202 -0.02793019
v 0.01849420 0.07491214 -0.02836739
v 0.01849420 0.07446981 -0.02944650
v 0.01849420 0.07440520 -0.02953495
v 0.01849420 0.07437538 -0.02957286
v 0.01849420 0.07361994 -0.03037145
v 0.01849420 0.07354042 -0.03041694
v 0.01849420 0.07270546 -0.03044221
v 0.01537829 0.07506125 -0.03041188
v 0.01849420 0.02796553 -0.02815511
v 0.00133570 0.03320887 -0.02957033
v 0.01849420 0.02830846 -0.02949451
v 0.01849420 0.07468352 -0.00795285
v 0.01681446 0.07524016 -0.00463972
v 0.00881388 0.07686535 -0.00463972
v 0.01015599 0.07675601 -0.00823084
v 0.01003505 0.07673613 -0.00659070
v 0.00989059 0.07671128 -0.00463972
v 0.01193483 0.07652739 -0.01165011
v 0.01342979 0.07606021 -0.00463972
v 0.01294267 0.07666655 -0.02361124
v 0.01299978 0.07668146 -0.02464739
v 0.01373719 0.07636338 -0.01807925
v 0.01373719 0.07643296 -0.02136206
v 0.01382117 0.07647769 -0.02464739
v 0.00388890 0.07670134 -0.03041441
v 0.00133570 0.07671128 -0.03041441
v 0.00553000 0.07584153 -0.03043463
v 0.00388890 0.07584153 -0.03043968
v 0.01537829 0.07576201 -0.00987350
v 0.01690684 0.07527495 -0.00987350
v 0.01702107 0.07541908 -0.02464739
v 0.01849420 0.07487238 -0.02300472
v 0.01373719 0.07420143 -0.03043968
v 0.01537829 0.07420143 -0.03043463
v 0.01849420 0.07108524 -0.03044474
v 0.00133570 0.03388976 -0.03042452
v 0.00630771 0.03233416 -0.03039924
v 0.01774335 0.02903905 -0.03040430
v 0.01849420 0.02843271 -0.02974471
v 0.01849420 0.07472825 -0.01151617
v 0.01537829 0.07565764 -0.00463972
v 0.01373719 0.07600057 -0.00463972
v 0.01373719 0.07601051 -0.00494803
v 0.01373719 0.07609997 -0.00823084
v 0.01373719 0.07632362 -0.01643911
v 0.00133570 0.07584153 -0.03043968
v 0.00133570 0.06435089 -0.03044474
v 0.00133570 0.07018567 -0.03044221
v 0.01849420 0.03315917 -0.03045484
v 0.00224612 0.03480424 -0.03045737
v 0.00133570 0.04063903 -0.03045484
v 0.00133570 0.03440167 -0.03044221
v 0.01849420 0.02897941 -0.03041441
v 0.01849420 0.03151908 -0.03045484
v 0.01373719 0.03151908 -0.03045484
v 0.00133570 0.03480424 -0.03045484
v 0.01849420 0.02988395 -0.03044474
v 0.01849420 0.03004796 -0.03044979
f 1 2 3
f 1 3 6
f 1 6 14
f 1 14 32
f 1 32 54
f 1 54 90
f 1 90 110
f 1 110 112
f 1 112 111
f 1 111 115
f 1 115 120
f 1 120 116
f 1 116 100
f 1 100 74
f 1 74 45
f 1 45 43
f 1 43 24
f 1 24 9
f 1 9 4
f 1 4 11
f 1 11 27
f 1 27 47
f 1 47 77
f 1 77 105
f 1 105 106
f 1 106 83
f 1 83 81
f 1 81 78
f 1 78 48
f 1 48 28
f 1 28 12
f 1 12 5
f 1 5 2
f 2 5 3
f 3 5 7
f 3 7 8
f 3 8 6
f 4 9 10
f 4 10 11
f 5 12 13
f 5 13 7
f 6 8 15
f 6 15 16
f 6 16 17
f 6 17 18
f 6 18 19
f 6 19 20
f 6 20 21
f 6 21 22
f 6 22 14
f 7 13 29
f 7 29 23
f 7 23 16
f 7 16 15
f 7 15 8
f 9 24 10
f 10 25 26
f 10 26 44
f 10 44 73
f 10 73 75
f 10 75 103
f 10 103 117
f 10 117 121
f 10 121 122
f 10 122 118
f 10 118 113
f 10 113 99
f 10 99 71
f 10 71 70
f 10 70 69
f 10 69 68
f 10 68 67
f 10 67 66
f 10 66 65
f 10 65 64
f 10 64 62
f 10 62 96
f 10 96 104
f 10 104 76
f 10 76 46
f 10 46 27
f 10 27 11
f 10 24 25
f 12 28 13
f 13 28 29
f 14 22 30
f 14 30 31
f 14 31 32
f 16 23 33
f 16 33 17
f 17 33 18
f 18 33 34
f 18 34 35
f 18 35 36
f 18 36 37
f 18 37 38
f 18 38 39
f 18 39 19
f 19 40 41
f 19 41 20
f 19 39 40
f 20 41 21
f 21 42 22
f 21 41 42
f 22 42 41
f 22 41 30
f 23 29 53
f 23 53 33
f 24 43 25
f 25 43 26
f 26 43 45
f 26 45 44
f 27 46 47
f 28 48 49
f 28 49 29
f 29 49 50
f 29 50 51
f 29 51 52
f 29 52 53
f 30 41 31
f 31 41 32
f 32 41 55
f 32 55 54
f 33 53 34
f 34 52 35
f 34 53 52
f 35 52 56
f 35 56 57
f 35 57 58
f 35 58 59
f 35 59 60
f 35 60 61
f 35 61 36
f 36 61 62
f 36 62 63
f 36 63 37
f 37 63 64
f 37 64 65
f 37 65 66
f 37 66 39
f 37 39 38
f 39 66 67
f 39 67 68
f 39 68 69
f 39 69 70
f 39 70 71
f 39 71 72
f 39 72 41
f 39 41 40
f 41 72 55
f 44 45 73
f 45 74 75
f 45 75 73
f 46 76 47
f 47 76 77
f 48 78 49
f 49 78 79
f 49 79 50
f 50 79 80
f 50 80 81
f 50 81 82
f 50 82 83
f 50 83 84
f 50 84 85
f 50 85 52
f 50 52 51
f 52 85 86
f 52 86 87
f 52 87 88
f 52 88 56
f 54 55 89
f 54 89 90
f 55 72 91
f 55 91 92
f 55 92 89
f 56 88 57
f 57 93 77
f 57 77 58
f 57 88 93
f 58 77 59
f 59 77 60
f 60 77 94
f 60 94 95
f 60 95 62
f 60 62 61
f 62 64 63
f 62 95 96
f 71 97 98
f 71 98 72
f 71 99 92
f 71 92 97
f 72 98 91
f 74 100 101
f 74 101 102
f 74 102 103
f 74 103 75
f 76 104 94
f 76 94 77
f 77 93 105
f 78 81 80
f 78 80 79
f 81 83 82
f 83 106 107
f 83 107 108
f 83 108 109
f 83 109 84
f 84 109 85
f 85 109 86
f 86 109 105
f 86 105 87
f 87 105 88
f 88 105 93
f 89 92 90
f 90 92 110
f 91 98 97
f 91 97 92
f 92 99 110
f 94 104 96
f 94 96 95
f 99 111 112
f 99 112 110
f 99 113 114
f 99 114 115
f 99 115 111
f 100 116 117
f 100 117 102
f 100 102 101
f 102 117 103
f 105 108 107
f 105 107 106
f 105 109 108
f 113 118 114
f 114 118 119
f 114 119 120
f 114 120 115
f 116 120 121
f 116 121 117
f 118 122 119
f 119 122 120
f 120 122 121

