# https://github.com/mikedh/trimesh
v -0.03394208 -0.01660151 0.00075622
v -0.03321225 -0.01660151 -0.00184243
v -0.03346299 -0.01660151 0.00427516
v -0.03335553 -0.01249429 0.00104888
v -0.03203914 -0.00791027 -0.00127828
v -0.03113020 -0.01660151 -0.00630281
v -0.03333762 -0.01660151 0.00512139
v -0.03318986 -0.01554752 0.00524480
v -0.03163616 -0.00690647 0.00535763
v -0.02929442 0.00528133 0.00234997
v -0.03111229 -0.00218025 0.00029079
v -0.03011381 -0.01157414 -0.00660604
v -0.02823773 0.00766536 -0.00086221
v -0.02941084 -0.00091713 -0.00348202
v -0.02982724 -0.01660151 -0.00860175
v -0.03318090 -0.01660151 0.00563619
v -0.03056603 -0.01248593 0.01094280
v -0.02851086 -0.00114299 0.01030107
v -0.02888697 0.00356651 0.00654589
v -0.02672881 0.01374671 0.00237817
v -0.02641090 -0.00340154 -0.00941273
v -0.02501392 0.01746914 -0.00089394
v -0.02528705 0.01048437 -0.00497704
v -0.02751685 -0.01660151 -0.01188092
v -0.03140333 -0.01660151 0.01019529
v -0.02732879 -0.00718252 0.01404567
v -0.03018097 -0.01660151 0.01239198
v -0.02379156 0.00766536 0.01361903
v -0.02443632 0.01349576 0.00983564
v -0.02418110 0.01832237 0.00657057
v -0.02412737 0.02064784 0.00302696
v -0.02164235 0.00781593 -0.01123919
v -0.02155280 0.00255434 -0.01324195
v -0.02656761 -0.01479467 -0.01265664
v -0.02074685 0.02890409 0.00113350
v -0.02166474 0.02570030 -0.00086926
v -0.02163787 0.02188586 -0.00407791
v -0.01956478 0.01966913 -0.00855592
v -0.02653180 -0.01660151 -0.01304802
v -0.02926308 -0.01660151 0.01360845
v -0.02738700 -0.01660151 0.01560063
v -0.02735118 -0.01660151 0.01563589
v -0.02525123 -0.00673081 0.01596028
v -0.02338858 0.00201062 0.01591797
v -0.02124385 0.01491781 0.01387642
v -0.01779617 0.02319080 0.01430307
v -0.01922897 0.02652843 0.01008246
v -0.01980657 0.03030941 0.00391198
v -0.01407536 0.02127522 -0.01397183
v -0.02286919 -0.00642967 -0.01424686
v -0.01675291 0.01047600 -0.01507194
v -0.01554846 0.03881662 0.00132743
v -0.01756782 0.03351321 -0.00174723
v -0.01620665 0.03145542 -0.00591495
v -0.01432162 0.02660372 -0.01127798
v -0.02414081 -0.01660151 -0.01512483
v -0.02730641 -0.01660151 0.01566057
v -0.02313336 -0.00761750 0.01709565
v -0.02021402 0.00564939 0.01725784
v -0.01854391 0.01470869 0.01672895
v -0.01337239 0.03268507 0.01452873
v -0.01514100 0.03677556 0.00804091
v -0.01147840 0.04560064 0.00260736
v -0.00940979 0.03007519 -0.01442669
v -0.00895756 0.02726456 -0.01557263
v -0.01854839 0.00240377 -0.01542102
v -0.01220823 0.01899993 -0.01565020
v -0.01023813 0.04724854 0.00051645
v -0.01423207 0.03798849 -0.00326341
v -0.01076647 0.03716035 -0.00907776
v -0.00591733 0.03847365 -0.01341473
v -0.02402439 -0.01660151 -0.01518477
v -0.02360350 -0.01660151 0.01711681
v -0.01984687 -0.00858784 0.01813229
v -0.01704842 0.00354978 0.01842495
v -0.01502459 0.01464177 0.01818165
v -0.01158138 0.02722273 0.01771270
v -0.00831280 0.03848202 0.01635872
v -0.00818295 0.04406984 0.01269874
v -0.01002768 0.04580140 0.00719467
v -0.00569793 0.05220062 0.00579133
v -0.00518749 0.05378997 0.00127101
v -0.00018163 0.04522421 -0.01452542
v -0.00138608 0.04000445 -0.01568899
v -0.00404125 0.03177329 -0.01605569
v -0.02029462 -0.00819468 -0.01583708
v -0.01414252 0.00695433 -0.01604159
v -0.01027843 0.04377707 -0.00397566
v -0.00534420 0.05141431 -0.00310121
v -0.00383976 0.04626147 -0.01024839
v -0.02162444 -0.01660151 -0.01604159
v -0.02240801 -0.01660151 0.01748704
v -0.01423207 -0.00745020 0.01895032
v -0.01825735 -0.01660151 0.01831212
v -0.01714693 -0.01660151 0.01847431
v -0.00890830 0.00917942 0.01950743
v -0.01007246 0.01888283 0.01902789
v -0.00816504 0.02980751 0.01831917
v -0.00584121 0.03885008 0.01746941
v 0.00045417 0.04862877 0.01694756
v -0.00350842 0.04769189 0.01523745
v -0.00361589 0.05152305 0.01159511
v 0.00029298 0.05773825 0.00865443
v 0.00117505 0.06030631 0.00305164
v 0.00016761 0.05932760 -0.00031921
v 0.00433618 0.05451773 -0.01141197
v 0.00638688 0.05133903 -0.01516362
v 0.00978531 0.04964093 -0.01623552
v 0.00773013 0.04269798 -0.01635188
v -0.01869615 -0.01660151 -0.01625315
v -0.01991851 -0.01660151 -0.01617910
v 0.00023030 0.05517856 -0.00644385
v -0.01223510 -0.01660151 0.01883749
v -0.01050678 -0.01660151 0.01889391
v -0.00785609 -0.00535895 0.01919361
v -0.00328007 0.01064330 0.01954621
v -0.00220995 0.02422806 0.01958500
v -0.00060700 0.03450028 0.01906315
v -0.00042342 0.04086605 0.01837558
v 0.00636897 0.05210860 0.01745178
v 0.00515556 0.05643331 0.01574167
v 0.00251831 0.05685157 0.01336163
v 0.00577346 0.06126828 0.01168326
v 0.00840624 0.06463101 0.00931027
v 0.00517347 0.06381124 0.00399660
v 0.00857638 0.06668044 -0.00060481
v 0.00576003 0.06198767 -0.00499114
v 0.01129871 0.06325079 -0.00906366
v 0.01179571 0.05920213 -0.01348877
v 0.01179571 0.05877551 -0.01378848
v 0.01179571 0.05534586 -0.01547391
v 0.01179571 0.05220062 -0.01612621
v 0.01179571 0.05085386 -0.01630251
v 0.01179571 0.04678847 -0.01643650
v -0.01398133 -0.01660151 -0.01580887
v 0.01179571 0.04569265 -0.01639772
v -0.00911875 -0.01660151 0.01873524
v 0.00320785 0.01728511 0.01925708
v 0.00530780 0.02457102 0.01940165
v 0.00565257 0.03278545 0.01944396
v 0.00678986 0.04420368 0.01871408
v 0.01164348 0.05470175 0.01749056
v 0.01179571 0.05998008 0.01592150
v 0.01179571 0.06064091 0.01569583
v 0.01179571 0.06289109 0.01462746
v 0.01153154 0.06344319 0.01428191
v 0.01179571 0.06423786 0.01335105
v 0.01179571 0.06674736 0.00955709
v 0.01179571 0.06732454 0.00796687
v 0.00973158 0.06715725 0.00470533
v 0.01179571 0.06885533 0.00120755
v 0.01179571 0.06860439 -0.00102088
v 0.01078380 0.06719907 -0.00351023
v 0.01179571 0.06357702 -0.00906366
v 0.01179571 0.06334281 -0.00933869
v 0.01179571 0.06151087 -0.01121451
v 0.01179571 0.06775116 -0.00370768
v 0.01179571 0.06389489 -0.00867933
v -0.00744864 -0.01660151 -0.01403883
v 0.01179571 0.04110027 -0.01591113
v -0.00807101 -0.01660151 0.01858362
v -0.00770833 -0.01423421 0.01869997
v 0.01179571 0.03107063 0.01847784
v 0.01179571 0.03493526 0.01883749
v 0.01179571 0.03513602 0.01883749
v 0.01179571 0.04502345 0.01859067
v 0.01179571 0.04547516 0.01856246
v 0.01179571 0.05467666 0.01748704
v 0.01179571 0.05484396 0.01745530
v 0.01179571 0.05572228 0.01720496
v 0.01179571 0.05129720 0.01788547
v 0.01179571 0.06359376 0.01425018
v 0.01179571 0.06366067 0.01419024
v 0.01179571 0.06810249 0.00564324
v 0.01179571 0.06872986 0.00304811
v 0.01179571 0.06792682 -0.00323167
v -0.00301142 -0.01660151 -0.01176456
v 0.01179571 0.03501891 -0.01472640
v -0.00491436 -0.01660151 0.01692993
v 0.01179571 0.03100371 0.01846726
v 0.00067357 -0.01660151 -0.00892967
v 0.01179571 0.02866988 -0.01291051
v -0.00457407 -0.01660151 0.01664785
v 0.01179571 0.02682121 0.01721906
v 0.00171683 -0.01660151 -0.00665541
v 0.01179571 0.01981134 -0.01010735
v -0.00040999 -0.01660151 0.01287151
v 0.01179571 0.02041362 0.01433480
v 0.00206608 -0.01660151 -0.00578449
v 0.01179571 0.01606382 -0.00688107
v 0.00234816 -0.01660151 0.00908460
v 0.01179571 0.01172238 0.00794924
v 0.00319441 -0.01660151 -0.00150746
v 0.01179571 0.01203189 -0.00210688
v 0.00253622 -0.01660151 0.00859449
v 0.00360634 -0.01660151 0.00553041
v 0.01179571 0.01033379 0.00282950
v 0.00384813 -0.01660151 0.00250864
f 1 2 6
f 1 6 15
f 1 15 24
f 1 24 39
f 1 39 56
f 1 56 72
f 1 72 91
f 1 91 111
f 1 111 110
f 1 110 135
f 1 135 159
f 1 159 177
f 1 177 181
f 1 181 185
f 1 185 189
f 1 189 193
f 1 193 198
f 1 198 196
f 1 196 195
f 1 195 191
f 1 191 187
f 1 187 183
f 1 183 179
f 1 179 161
f 1 161 137
f 1 137 114
f 1 114 113
f 1 113 95
f 1 95 94
f 1 94 92
f 1 92 73
f 1 73 57
f 1 57 42
f 1 42 41
f 1 41 40
f 1 40 27
f 1 27 25
f 1 25 16
f 1 16 7
f 1 7 3
f 1 3 4
f 1 4 5
f 1 5 2
f 2 5 6
f 3 7 8
f 3 8 4
f 4 9 10
f 4 10 11
f 4 11 5
f 4 8 9
f 5 12 6
f 5 11 13
f 5 13 14
f 5 14 12
f 6 12 15
f 7 16 8
f 8 16 17
f 8 17 9
f 9 17 18
f 9 18 19
f 9 19 10
f 10 19 20
f 10 20 13
f 10 13 11
f 12 14 21
f 12 21 15
f 13 20 22
f 13 22 23
f 13 23 14
f 14 23 21
f 15 21 24
f 16 25 17
f 17 26 18
f 17 25 27
f 17 27 26
f 18 26 28
f 18 28 29
f 18 29 19
f 19 29 30
f 19 30 20
f 20 30 31
f 20 31 22
f 21 23 32
f 21 32 33
f 21 33 34
f 21 34 24
f 22 31 35
f 22 35 36
f 22 36 37
f 22 37 23
f 23 37 38
f 23 38 32
f 24 34 39
f 26 27 40
f 26 40 41
f 26 41 42
f 26 42 43
f 26 43 44
f 26 44 28
f 28 44 45
f 28 45 29
f 29 45 46
f 29 46 47
f 29 47 30
f 30 47 48
f 30 48 31
f 31 48 35
f 32 38 49
f 32 49 33
f 33 50 34
f 33 49 51
f 33 51 50
f 34 50 39
f 35 48 52
f 35 52 53
f 35 53 36
f 36 53 54
f 36 54 37
f 37 54 38
f 38 54 55
f 38 55 49
f 39 50 56
f 42 57 43
f 43 58 59
f 43 59 44
f 43 57 58
f 44 59 60
f 44 60 45
f 45 60 46
f 46 61 47
f 46 60 61
f 47 61 62
f 47 62 48
f 48 62 63
f 48 63 52
f 49 55 64
f 49 64 65
f 49 65 51
f 50 51 66
f 50 66 56
f 51 65 67
f 51 67 66
f 52 63 68
f 52 68 53
f 53 68 69
f 53 69 54
f 54 69 70
f 54 70 55
f 55 70 71
f 55 71 64
f 56 66 72
f 57 73 58
f 58 74 75
f 58 75 59
f 58 73 74
f 59 75 76
f 59 76 60
f 60 76 77
f 60 77 78
f 60 78 61
f 61 78 79
f 61 79 62
f 62 79 80
f 62 80 63
f 63 80 81
f 63 81 82
f 63 82 68
f 64 71 83
f 64 83 84
f 64 84 65
f 65 84 85
f 65 85 67
f 66 86 72
f 66 67 86
f 67 85 87
f 67 87 86
f 68 88 69
f 68 82 89
f 68 89 88
f 69 88 70
f 70 88 90
f 70 90 71
f 71 90 83
f 72 86 91
f 73 92 74
f 74 93 75
f 74 92 94
f 74 94 95
f 74 95 93
f 75 96 97
f 75 97 76
f 75 93 96
f 76 97 77
f 77 97 98
f 77 98 99
f 77 99 78
f 78 99 100
f 78 100 101
f 78 101 79
f 79 101 102
f 79 102 80
f 80 102 81
f 81 102 103
f 81 103 104
f 81 104 82
f 82 104 105
f 82 105 89
f 83 90 106
f 83 106 107
f 83 107 84
f 84 107 108
f 84 108 85
f 85 108 109
f 85 109 110
f 85 110 87
f 86 87 91
f 87 110 111
f 87 111 91
f 88 89 90
f 89 105 112
f 89 112 90
f 90 112 106
f 93 95 113
f 93 113 96
f 96 113 114
f 96 114 115
f 96 115 116
f 96 116 117
f 96 117 97
f 97 117 118
f 97 118 98
f 98 118 119
f 98 119 99
f 99 119 100
f 100 120 121
f 100 121 101
f 100 119 120
f 101 121 122
f 101 122 102
f 102 122 103
f 103 122 123
f 103 123 124
f 103 124 125
f 103 125 104
f 104 125 126
f 104 126 105
f 105 126 127
f 105 127 112
f 106 112 127
f 106 127 128
f 106 128 129
f 106 129 107
f 107 129 130
f 107 130 131
f 107 131 108
f 108 131 132
f 108 132 133
f 108 133 134
f 108 134 109
f 109 134 110
f 110 134 136
f 110 136 135
f 114 137 138
f 114 138 116
f 114 116 115
f 116 138 139
f 116 139 140
f 116 140 117
f 117 140 118
f 118 140 141
f 118 141 119
f 119 141 120
f 120 141 142
f 120 142 143
f 120 143 121
f 121 143 144
f 121 144 145
f 121 145 146
f 121 146 122
f 122 146 123
f 123 146 124
f 124 147 148
f 124 148 149
f 124 149 150
f 124 150 125
f 124 146 147
f 125 150 126
f 126 150 151
f 126 151 152
f 126 152 153
f 126 153 127
f 127 153 128
f 128 154 155
f 128 155 156
f 128 156 129
f 128 153 157
f 128 157 158
f 128 158 154
f 129 156 155
f 129 155 154
f 129 154 158
f 129 158 157
f 129 157 176
f 129 176 152
f 129 152 151
f 129 151 175
f 129 175 174
f 129 174 149
f 129 149 148
f 129 148 147
f 129 147 173
f 129 173 172
f 129 172 145
f 129 145 144
f 129 144 143
f 129 143 170
f 129 170 169
f 129 169 168
f 129 168 171
f 129 171 167
f 129 167 166
f 129 166 165
f 129 165 164
f 129 164 163
f 129 163 180
f 129 180 184
f 129 184 188
f 129 188 192
f 129 192 197
f 129 197 194
f 129 194 190
f 129 190 186
f 129 186 182
f 129 182 178
f 129 178 160
f 129 160 136
f 129 136 134
f 129 134 133
f 129 133 132
f 129 132 131
f 129 131 130
f 135 136 160
f 135 160 159
f 137 161 162
f 137 162 138
f 138 163 164
f 138 164 139
f 138 162 161
f 138 161 163
f 139 164 140
f 140 164 165
f 140 165 166
f 140 166 167
f 140 167 141
f 141 167 142
f 142 168 169
f 142 169 170
f 142 170 143
f 142 167 171
f 142 171 168
f 145 172 146
f 146 172 173
f 146 173 147
f 149 174 150
f 150 174 175
f 150 175 151
f 152 176 153
f 153 176 157
f 159 160 178
f 159 178 177
f 161 179 180
f 161 180 163
f 177 178 181
f 178 182 181
f 179 183 184
f 179 184 180
f 181 182 186
f 181 186 185
f 183 187 184
f 184 187 188
f 185 186 189
f 186 190 189
f 187 191 188
f 188 191 192
f 189 190 193
f 190 194 193
f 191 195 192
f 192 195 196
f 192 196 197
f 193 194 198
f 194 197 198
f 196 198 197

