# https://github.com/mikedh/trimesh
v -0.03560000 -0.03092303 0.00036946
v -0.03491265 -0.02805045 0.00374551
v -0.03452650 -0.02073240 0.00046363
v -0.03400134 -0.02242118 -0.00222187
v -0.03501691 -0.03584865 -0.00241717
v -0.03531425 -0.04485548 -0.00005603
v -0.03492423 -0.04472302 0.00371761
v -0.03503622 -0.03702417 0.00436632
v -0.03308616 -0.02486329 0.00869101
v -0.03333716 -0.01660151 0.00511965
v -0.03346459 -0.01660151 0.00427564
v -0.03393955 -0.01660151 0.00075659
v -0.03321359 -0.01660151 -0.00184171
v -0.03267298 -0.02423414 -0.00584205
v -0.03279655 -0.03163497 -0.00724409
v -0.03430253 -0.04262860 -0.00414356
v -0.03354954 -0.04880424 -0.00531542
v -0.03449947 -0.05223147 -0.00114418
v -0.03401678 -0.05518684 0.00208190
v -0.03349548 -0.03991331 0.00872937
v -0.03294328 -0.05084071 0.00780863
v -0.03140254 -0.02874583 0.01226586
v -0.02989269 -0.01964794 0.01346561
v -0.03140640 -0.01660151 0.01019419
v -0.03317884 -0.01660151 0.00563582
v -0.03112838 -0.01660151 -0.00630242
v -0.02983091 -0.01660151 -0.00860427
v -0.02960694 -0.02056684 -0.01017721
v -0.02973051 -0.02861338 -0.01151647
v -0.02950655 -0.03596454 -0.01239884
v -0.03234475 -0.04205740 -0.00826248
v -0.03107431 -0.05161888 -0.00937156
v -0.03112452 -0.05923495 -0.00778468
v -0.03352637 -0.05743027 -0.00274850
v -0.03214781 -0.06751328 0.00024391
v -0.03201266 -0.06003795 0.00642752
v -0.03130987 -0.03655230 0.01277854
v -0.03128670 -0.04597305 0.01195197
v -0.02985022 -0.06422678 0.00906768
v -0.02985794 -0.05735576 0.01125792
v -0.02923624 -0.02794283 0.01491996
v -0.02739044 -0.01678364 0.01563144
v -0.02926713 -0.01660151 0.01360860
v -0.03017845 -0.01660151 0.01239490
v -0.02751787 -0.01660151 -0.01188267
v -0.02640962 -0.02281854 -0.01439378
v -0.02653319 -0.01660151 -0.01304755
v -0.02745609 -0.04117990 -0.01443215
v -0.02937526 -0.04795157 -0.01213727
v -0.02637486 -0.03050912 -0.01507039
v -0.02763758 -0.06608113 -0.01134906
v -0.03133690 -0.06738911 -0.00477832
v -0.03075768 -0.07285281 -0.00193588
v -0.02863385 -0.07868076 0.00072520
v -0.03054529 -0.07122198 0.00346999
v -0.02978071 -0.04025272 0.01407595
v -0.02866088 -0.07055971 0.00802835
v -0.02802759 -0.05365535 0.01324589
v -0.02636328 -0.06449169 0.01186129
v -0.02640189 -0.03174259 0.01613018
v -0.02360230 -0.01660151 0.01711718
v -0.02730548 -0.01660151 0.01565934
v -0.02735182 -0.01660151 0.01563493
v -0.02739044 -0.01660151 0.01560005
v -0.02383785 -0.02108009 0.01712765
v -0.02418925 -0.01697404 -0.01515758
v -0.02414291 -0.01660151 -0.01512270
v -0.02469125 -0.04315842 -0.01621085
v -0.02509671 -0.05142847 -0.01572607
v -0.02740589 -0.05655277 -0.01321147
v -0.02444797 -0.02931704 -0.01602252
v -0.02407727 -0.06932624 -0.01394388
v -0.02468352 -0.07747212 -0.01080499
v -0.02796966 -0.07602341 -0.00723363
v -0.02430510 -0.06209097 -0.01511922
v -0.02743678 -0.08103181 -0.00492480
v -0.02689617 -0.08296894 -0.00230208
v -0.02281069 -0.09082508 -0.00102560
v -0.02527433 -0.08482329 0.00174709
v -0.02730935 -0.07854831 0.00470113
v -0.02581881 -0.04316670 0.01563493
v -0.02660656 -0.07620554 0.00767261
v -0.02488819 -0.07454159 0.00984891
v -0.02301922 -0.05266195 0.01508388
v -0.02212721 -0.07496379 0.01093706
v -0.02148234 -0.06390393 0.01348305
v -0.02204612 -0.04389519 0.01651382
v -0.02002269 -0.03743809 0.01733691
v -0.02240910 -0.01660151 0.01748688
v -0.01932375 -0.02946605 0.01779379
v -0.01782935 -0.01876216 0.01836228
v -0.01825798 -0.01660151 0.01831345
v -0.02402321 -0.01660151 -0.01518548
v -0.02162521 -0.01660151 -0.01603996
v -0.02225850 -0.02059995 -0.01613761
v -0.02191483 -0.04598961 -0.01673400
v -0.02228939 -0.05928462 -0.01636780
v -0.02110391 -0.06930141 -0.01573653
v -0.02120431 -0.07602341 -0.01420545
v -0.01960178 -0.08676870 -0.01156878
v -0.02283000 -0.08733991 -0.00805671
v -0.02030458 -0.09435993 -0.00649076
v -0.02336675 -0.08991447 -0.00457603
v -0.01967515 -0.09664475 -0.00340069
v -0.01855918 -0.09769610 -0.00095585
v -0.01944346 -0.09516293 0.00179591
v -0.02241296 -0.08676041 0.00513709
v -0.02114639 -0.08408651 0.00766564
v -0.01632337 -0.06771196 0.01373416
v -0.01665159 -0.05559248 0.01558959
v -0.01704933 -0.07517075 0.01206706
v -0.01687942 -0.08420241 0.00915487
v -0.01528462 -0.04125440 0.01738922
v -0.01269355 -0.02971440 0.01826113
v -0.01140767 -0.02041782 0.01879126
v -0.01223789 -0.01660151 0.01884009
v -0.01714587 -0.01660151 0.01847388
v -0.01991843 -0.01660151 -0.01617946
v -0.02014626 -0.03370456 -0.01658054
v -0.01869819 -0.01660151 -0.01625270
v -0.01864799 -0.05922667 -0.01662240
v -0.01820778 -0.06734772 -0.01624573
v -0.01736211 -0.07744729 -0.01518897
v -0.01721923 -0.08300205 -0.01400317
v -0.01499115 -0.09277049 -0.01221051
v -0.01619208 -0.09607355 -0.00979357
v -0.01596425 -0.09904547 -0.00745684
v -0.01787569 -0.09871434 -0.00469461
v -0.01527304 -0.10091637 -0.00176498
v -0.01545839 -0.09882196 0.00184125
v -0.01821164 -0.09373078 0.00442561
v -0.01506065 -0.09322580 0.00593576
v -0.01152352 -0.07371376 0.01283434
v -0.01189808 -0.06530297 0.01428870
v -0.01249661 -0.05321660 0.01589302
v -0.01233057 -0.08094903 0.01095450
v -0.01136133 -0.03536850 0.01775194
v -0.00912166 -0.01660151 0.01873546
v -0.01050794 -0.01660151 0.01889589
v -0.01577889 -0.05065859 -0.01638523
v -0.01398329 -0.01660151 -0.01580977
v -0.01154669 -0.06336584 -0.01571212
v -0.01359328 -0.07325845 -0.01540171
v -0.01301019 -0.08640445 -0.01375903
v -0.01060834 -0.09371422 -0.01219656
v -0.01035348 -0.09815141 -0.01093054
v -0.01318782 -0.09915309 -0.00935761
v -0.01427291 -0.10092465 -0.00499106
v -0.01111806 -0.10116472 -0.00118952
v -0.01245028 -0.10005543 0.00164943
v -0.01267811 -0.09594109 0.00486156
v -0.01016040 -0.09317613 0.00646937
v -0.00898265 -0.07065078 0.01241234
v -0.01019130 -0.08834158 0.00830388
v -0.00800954 -0.07930991 0.01020116
v -0.01045002 -0.04364684 0.01654521
v -0.00978584 -0.02767793 0.01804839
v -0.00807133 -0.01660151 0.01858549
v -0.00744963 -0.01660151 -0.01403804
v -0.00647267 -0.06304298 -0.01411826
v -0.00805975 -0.07146205 -0.01443564
v -0.00944602 -0.08327524 -0.01349397
v -0.00660782 -0.09554373 -0.01040391
v -0.00549571 -0.08791939 -0.01135255
v -0.00763498 -0.09852394 -0.00896699
v -0.01078983 -0.10048590 -0.00637915
v -0.00620236 -0.09943455 -0.00423773
v -0.00680862 -0.09962495 0.00020903
v -0.00831847 -0.09821764 0.00316656
v -0.00605176 -0.09041945 0.00580323
v -0.00455350 -0.07767908 0.00825505
v -0.00589344 -0.06521191 0.01104169
v -0.00491262 -0.01660151 0.01692885
v -0.00301276 -0.01660151 -0.01176409
v -0.00348000 -0.06426818 -0.01244767
v -0.00460756 -0.07398695 -0.01275807
v -0.00333326 -0.09620600 -0.00649076
v -0.00304751 -0.09140457 -0.00904372
v -0.00317494 -0.09729047 -0.00234045
v -0.00451102 -0.09639640 0.00131810
v -0.00386615 -0.09171914 0.00348394
v -0.00214392 -0.08203349 0.00474298
v -0.00274631 -0.07243062 0.00756798
v -0.00457281 -0.01660151 0.01664984
v -0.00181955 -0.01660151 -0.01084684
v -0.00193926 -0.07386277 -0.01077708
v 0.00067498 -0.01660151 -0.00892863
v -0.00142568 -0.08913630 -0.00667909
v -0.00142954 -0.09166947 -0.00256017
v -0.00183500 -0.08232323 -0.00929832
v -0.00169212 -0.08967439 0.00135996
v -0.00045258 -0.08167752 0.00206795
v -0.00127508 -0.07191736 0.00580323
v -0.00041010 -0.01660151 0.01287271
v -0.00080784 -0.06983122 -0.00890421
v 0.00171759 -0.01660151 -0.00665816
v -0.00017455 -0.07836619 -0.00593971
v -0.00004712 -0.08277026 -0.00188356
v 0.00037764 -0.07589096 0.00162153
v 0.00234701 -0.01660151 0.00908511
v 0.00206898 -0.01660151 -0.00578276
v 0.00069043 -0.07195047 -0.00172662
v 0.00319268 -0.01660151 -0.00151038
v 0.00384914 -0.01660151 0.00250740
v 0.00360586 -0.01660151 0.00553119
v 0.00253623 -0.01660151 0.00859335
f 1 2 3
f 1 3 4
f 1 4 5
f 1 5 6
f 1 6 7
f 1 7 8
f 1 8 2
f 2 9 10
f 2 10 11
f 2 11 3
f 2 8 9
f 3 11 12
f 3 12 13
f 3 13 4
f 4 14 15
f 4 15 5
f 4 13 14
f 5 16 6
f 5 15 16
f 6 16 17
f 6 17 18
f 6 18 19
f 6 19 7
f 7 20 8
f 7 19 21
f 7 21 20
f 8 20 9
f 9 20 22
f 9 22 23
f 9 23 24
f 9 24 25
f 9 25 10
f 10 25 24
f 10 24 44
f 10 44 43
f 10 43 64
f 10 64 63
f 10 63 62
f 10 62 61
f 10 61 89
f 10 89 92
f 10 92 117
f 10 117 116
f 10 116 139
f 10 139 138
f 10 138 158
f 10 158 173
f 10 173 184
f 10 184 194
f 10 194 200
f 10 200 206
f 10 206 205
f 10 205 204
f 10 204 203
f 10 203 201
f 10 201 196
f 10 196 187
f 10 187 185
f 10 185 174
f 10 174 159
f 10 159 141
f 10 141 120
f 10 120 118
f 10 118 94
f 10 94 93
f 10 93 67
f 10 67 47
f 10 47 45
f 10 45 27
f 10 27 26
f 10 26 13
f 10 13 12
f 10 12 11
f 13 26 14
f 14 26 27
f 14 27 28
f 14 28 15
f 15 28 29
f 15 29 30
f 15 30 31
f 15 31 16
f 16 31 17
f 17 32 33
f 17 33 34
f 17 34 18
f 17 31 32
f 18 34 35
f 18 35 19
f 19 36 21
f 19 35 36
f 20 37 22
f 20 21 38
f 20 38 37
f 21 36 39
f 21 39 40
f 21 40 38
f 22 41 23
f 22 37 41
f 23 42 43
f 23 43 44
f 23 44 24
f 23 41 42
f 27 45 28
f 28 46 29
f 28 45 47
f 28 47 46
f 29 46 30
f 30 48 49
f 30 49 31
f 30 46 50
f 30 50 48
f 31 49 32
f 32 51 33
f 32 49 51
f 33 51 52
f 33 52 34
f 34 52 35
f 35 52 53
f 35 53 54
f 35 54 55
f 35 55 36
f 36 55 39
f 37 38 56
f 37 56 41
f 38 40 56
f 39 55 57
f 39 57 40
f 40 58 56
f 40 57 59
f 40 59 58
f 41 56 60
f 41 60 42
f 42 61 62
f 42 62 63
f 42 63 64
f 42 64 43
f 42 60 65
f 42 65 61
f 46 47 66
f 46 66 50
f 47 67 66
f 48 50 68
f 48 68 69
f 48 69 49
f 49 69 70
f 49 70 51
f 50 66 71
f 50 71 68
f 51 72 73
f 51 73 74
f 51 74 52
f 51 70 75
f 51 75 72
f 52 74 76
f 52 76 53
f 53 76 77
f 53 77 54
f 54 77 78
f 54 78 79
f 54 79 80
f 54 80 55
f 55 80 57
f 56 58 81
f 56 81 60
f 57 80 82
f 57 82 83
f 57 83 59
f 58 59 84
f 58 84 81
f 59 83 85
f 59 85 86
f 59 86 84
f 60 81 87
f 60 87 88
f 60 88 65
f 61 65 89
f 65 88 90
f 65 90 91
f 65 91 92
f 65 92 89
f 66 67 93
f 66 93 94
f 66 94 95
f 66 95 71
f 68 71 96
f 68 96 97
f 68 97 69
f 69 97 75
f 69 75 70
f 71 95 96
f 72 75 98
f 72 98 99
f 72 99 73
f 73 100 101
f 73 101 74
f 73 99 100
f 74 101 76
f 75 97 98
f 76 101 102
f 76 102 103
f 76 103 77
f 77 103 78
f 78 103 104
f 78 104 105
f 78 105 106
f 78 106 79
f 79 106 80
f 80 106 107
f 80 107 82
f 81 84 87
f 82 107 108
f 82 108 83
f 83 108 85
f 84 86 109
f 84 109 110
f 84 110 87
f 85 111 86
f 85 108 112
f 85 112 111
f 86 111 109
f 87 113 88
f 87 110 113
f 88 113 114
f 88 114 90
f 90 114 115
f 90 115 91
f 91 116 117
f 91 117 92
f 91 115 116
f 94 118 95
f 95 119 96
f 95 118 120
f 95 120 119
f 96 119 121
f 96 121 97
f 97 121 122
f 97 122 98
f 98 122 123
f 98 123 124
f 98 124 99
f 99 124 125
f 99 125 100
f 100 125 126
f 100 126 101
f 101 126 102
f 102 126 127
f 102 127 128
f 102 128 104
f 102 104 103
f 104 128 105
f 105 128 129
f 105 129 130
f 105 130 106
f 106 130 131
f 106 131 107
f 107 131 108
f 108 131 132
f 108 132 112
f 109 111 133
f 109 133 134
f 109 134 110
f 110 135 113
f 110 134 135
f 111 112 136
f 111 136 133
f 112 132 136
f 113 137 114
f 113 135 137
f 114 137 115
f 115 137 138
f 115 138 139
f 115 139 116
f 119 120 140
f 119 140 121
f 120 141 140
f 121 142 122
f 121 140 142
f 122 143 123
f 122 142 143
f 123 144 125
f 123 125 124
f 123 143 144
f 125 145 146
f 125 146 147
f 125 147 126
f 125 144 145
f 126 147 127
f 127 147 148
f 127 148 128
f 128 148 129
f 129 148 149
f 129 149 150
f 129 150 130
f 130 150 151
f 130 151 132
f 130 132 131
f 132 151 152
f 132 152 136
f 133 153 134
f 133 136 154
f 133 154 155
f 133 155 153
f 134 153 156
f 134 156 135
f 135 156 137
f 136 152 154
f 137 156 157
f 137 157 158
f 137 158 138
f 140 141 142
f 141 159 142
f 142 159 160
f 142 160 161
f 142 161 143
f 143 161 162
f 143 162 144
f 144 162 145
f 145 163 146
f 145 162 164
f 145 164 163
f 146 165 166
f 146 166 147
f 146 163 165
f 147 166 148
f 148 166 149
f 149 166 167
f 149 167 168
f 149 168 150
f 150 168 169
f 150 169 151
f 151 169 152
f 152 169 170
f 152 170 154
f 153 155 171
f 153 171 172
f 153 172 173
f 153 173 156
f 154 170 155
f 155 170 171
f 156 173 158
f 156 158 157
f 159 174 160
f 160 175 176
f 160 176 161
f 160 174 175
f 161 176 162
f 162 176 164
f 163 177 165
f 163 164 178
f 163 178 177
f 164 176 178
f 165 167 166
f 165 177 167
f 167 177 179
f 167 179 168
f 168 179 180
f 168 180 169
f 169 180 181
f 169 181 170
f 170 181 171
f 171 181 182
f 171 182 183
f 171 183 172
f 172 183 173
f 173 183 184
f 174 185 175
f 175 186 176
f 175 185 187
f 175 187 186
f 176 186 178
f 177 178 188
f 177 188 189
f 177 189 179
f 178 186 190
f 178 190 188
f 179 189 191
f 179 191 180
f 180 191 181
f 181 191 182
f 182 191 192
f 182 192 193
f 182 193 183
f 183 193 194
f 183 194 184
f 186 195 190
f 186 187 195
f 187 196 195
f 188 190 197
f 188 197 198
f 188 198 189
f 189 198 192
f 189 192 191
f 190 195 197
f 192 198 199
f 192 199 193
f 193 199 200
f 193 200 194
f 195 196 201
f 195 201 197
f 197 202 198
f 197 201 203
f 197 203 204
f 197 204 202
f 198 202 199
f 199 202 204
f 199 204 205
f 199 205 206
f 199 206 200

