# https://github.com/mikedh/trimesh
v -0.01064400 -0.07519800 -0.11141900
v 0.00600700 -0.07442400 -0.11129600
v 0.01373300 -0.08145800 -0.10887700
v -0.03431500 -0.04527500 -0.09809600
v -0.02996800 -0.08103800 -0.10990900
v -0.03199900 -0.07688000 -0.10695400
v -0.03282800 -0.07985100 -0.04488200
v -0.03444100 -0.05951400 -0.05316600
v -0.03334400 -0.06786100 -0.09319000
v -0.03598000 -0.03706100 -0.02586400
v -0.03445800 -0.01574100 -0.09924100
v -0.02923000 -0.07125000 -0.11030500
v -0.01842400 -0.08134800 -0.10956000
v -0.03348900 -0.08021700 -0.00112800
v -0.03408800 -0.07539000 0.00392700
v -0.03501600 -0.05673000 -0.02067700
v 0.00740300 -0.05938500 -0.11135000
v -0.00491200 -0.08151100 -0.10943700
v -0.03588200 -0.03257900 -0.06729100
v -0.03453500 -0.05115700 -0.08766200
v -0.03498400 -0.04819700 -0.06642500
v -0.02299300 -0.03352700 -0.11079400
v -0.03571400 -0.02295000 -0.08654800
v -0.03140300 -0.08044600 -0.09633000
v -0.03255500 -0.07859500 -0.07416000
v 0.00749100 -0.03833500 -0.11138600
v -0.03285400 -0.07867700 -0.05868300
v -0.02646600 -0.05827600 -0.11056000
v -0.03073000 -0.04789700 -0.10959200
v -0.03328600 -0.05747300 -0.10303800
v 0.02918000 -0.08111500 -0.10932300
v 0.02516100 -0.08318500 0.01245900
v 0.02066400 -0.08359300 0.01714700
v 0.02541600 -0.08319000 0.01965400
v 0.01642000 -0.08362400 0.02304900
v 0.03244400 -0.06839300 -0.10295800
v 0.02980800 -0.05133200 -0.10835300
v 0.03381600 -0.05631300 -0.09831300
v 0.03442200 -0.04202200 -0.09372900
v 0.03441500 -0.03259600 -0.09776800
v 0.02744600 -0.08198600 -0.01112500
v -0.02692100 -0.01150100 -0.11046400
v 0.00707100 0.06859000 -0.11075900
v 0.00749100 0.07509300 -0.10934400
v 0.03358400 0.05437100 -0.10315000
v -0.03639800 -0.01057800 -0.03737400
v 0.03006700 0.06519800 -0.10581000
v 0.03210100 0.06284700 -0.09917800
v 0.03070500 0.06880000 -0.10256000
v -0.03566000 0.00846600 -0.09167400
v -0.03626300 0.00603900 -0.08401200
v 0.01741600 0.07246200 -0.10909800
v 0.02829700 0.07533600 -0.10645300
v 0.02425200 0.07788000 -0.10684400
v -0.03459800 0.02594300 -0.10048800
v 0.00837700 -0.02940900 -0.11133800
v -0.03629900 -0.01090400 -0.06939900
v 0.02946500 0.00552700 -0.10754000
v -0.01667000 -0.00393900 -0.11116600
v 0.02844400 0.07677000 -0.08414300
v 0.02815600 0.07698400 -0.09286600
v -0.03222200 0.07896700 -0.07167500
v -0.03550700 0.03031100 -0.09552300
v -0.02602800 0.01730300 -0.11042600
v -0.03622700 0.02011300 -0.07909500
v -0.03622700 0.01817500 -0.05908400
v -0.03260300 0.07899000 -0.05303900
v -0.01799300 0.03528600 -0.11068800
v -0.00971700 0.01732000 -0.11134600
v 0.00559800 0.02247800 -0.11147100
v -0.01722300 0.07032500 -0.11004500
v 0.00760400 0.03876700 -0.11132400
v -0.03263100 0.07765500 -0.10828500
v -0.02974100 0.07914200 -0.10910600
v -0.01806400 0.07937100 -0.10891900
v 0.02813400 0.07715000 -0.05497500
v 0.02759400 0.07738900 -0.04810600
v -0.03107200 0.05440600 -0.10947000
v 0.02958600 0.02057600 -0.10715700
v 0.03445500 0.01651500 -0.09891200
v -0.00850400 0.07570900 -0.11021500
v 0.00071100 0.07226100 -0.11069100
v -0.03121000 0.06387900 -0.10930500
v -0.00241500 0.07801600 -0.10904000
v 0.00991500 0.07847300 -0.10821400
v -0.03429700 0.06678800 -0.10276400
v -0.01171700 0.05825000 -0.11058600
v -0.03178800 0.07891400 -0.09749400
v 0.03424000 0.03373300 -0.10041000
v 0.00774000 0.05369100 -0.11103400
v -0.03581300 0.04032800 -0.08261000
v -0.03507400 0.04833300 -0.09710500
v -0.03491000 0.05697200 -0.08331500
v 0.03507600 0.03492500 -0.09561200
v 0.03486900 -0.03038600 -0.09068800
v 0.02982600 -0.00565100 -0.10758700
v 0.03522200 -0.00709000 -0.09360400
v 0.03535200 0.00573600 -0.09423400
v 0.03522200 0.02376600 -0.09044200
v -0.03600400 -0.01654400 -0.00221900
v -0.03604800 0.00594700 -0.01470400
v -0.03552300 -0.02010300 0.02651500
v 0.00050900 -0.08208300 0.09747500
v 0.01277100 -0.07928100 0.10085900
v -0.01811000 -0.08196600 0.09551300
v -0.03416100 -0.07993900 0.03381100
v -0.01290300 -0.07623800 0.10175000
v 0.01956700 -0.08182400 0.09685100
v 0.02623700 -0.08006400 0.09930100
v 0.02196300 -0.07811600 0.10107400
v -0.03185000 -0.02010500 0.10152800
v -0.03399900 -0.08127200 0.05614700
v -0.00517300 -0.02157300 0.10149800
v 0.02652700 -0.08231300 0.04572000
v 0.03015400 -0.06086300 0.09090400
v -0.03452600 -0.07843500 0.06647000
v -0.03243000 -0.08199600 0.07849500
v 0.02554700 -0.06511100 0.10032000
v -0.03455800 -0.07966200 0.08021400
v 0.02930100 -0.06821600 0.09416400
v -0.03408100 -0.08191600 0.08890900
v -0.01105100 -0.00819900 0.10158500
v -0.03411300 -0.08143500 0.09944600
v -0.03394600 -0.07651000 0.10069000
v -0.02229100 -0.07938400 0.10107200
v 0.03028000 -0.04202900 0.09192400
v -0.02804600 -0.07753300 0.10143100
v -0.03258400 0.00423900 0.10159900
v 0.02568700 -0.03720800 0.10054200
v 0.02695900 -0.08009200 0.07593000
v 0.02630900 -0.08136500 0.08686200
v 0.03120300 -0.03872500 0.08210400
v 0.03216700 -0.00643900 0.08062100
v 0.03108400 -0.00624200 0.09113500
v -0.03292100 -0.05106600 0.10133000
v -0.03438100 0.04255900 0.09122900
v -0.03241600 0.04089300 0.10131100
v -0.03427800 0.05655900 0.09404200
v -0.03360200 0.07822600 0.03889200
v -0.03391000 0.07778600 0.08133200
v -0.03357200 0.06666000 0.09678600
v -0.03357700 0.07855400 0.09401300
v -0.03201200 0.07473500 0.10083300
v -0.03136700 0.07923700 0.09951600
v -0.02460800 0.08021500 0.09793200
v -0.02070200 0.07566300 0.10048300
v 0.03153100 0.04023100 0.09211800
v 0.02670000 0.03931200 0.10031500
v 0.03289600 0.05106100 0.08543800
v 0.02738900 0.07683700 0.06210100
v 0.02625100 0.07782400 -0.00878400
v -0.00902600 0.03029100 0.10146700
v 0.03253400 0.01014100 0.08192900
v -0.00835600 0.04147200 0.10139800
v 0.03282700 0.02384700 0.08159200
v 0.03298600 0.04068300 0.08341500
v 0.02727100 0.07742400 0.03635900
v -0.00353800 0.07162300 0.10088300
v 0.02642600 0.00636200 0.10028400
v 0.00420700 0.07297900 0.10085000
v 0.02652800 0.02463400 0.10035300
v 0.02796300 0.07580700 0.08857400
v 0.02648200 0.07669200 0.09606400
v 0.00527600 0.08003500 0.09712900
v 0.01498200 0.07847800 0.09805700
v 0.01729100 0.07369600 0.10043200
v 0.03170200 0.05961400 0.09180600
v 0.03026000 0.06877300 0.09669100
v 0.03092400 0.06502500 0.08970500
v 0.02759700 0.07580200 0.09970400
v 0.02712800 0.07766300 0.01306800
v -0.01246700 0.08015300 0.09636700
f 45 48 168
f 23 19 57
f 142 143 144
f 142 144 67
f 67 144 145
f 118 109 168
f 31 45 36
f 5 31 18
f 5 35 117
f 140 138 142
f 141 143 142
f 142 138 141
f 46 57 10
f 10 57 19
f 145 144 164
f 164 144 165
f 89 36 45
f 94 99 98
f 98 89 94
f 94 89 45
f 168 48 49
f 48 45 49
f 45 53 49
f 163 164 165
f 138 140 66
f 146 143 160
f 146 144 143
f 73 67 88
f 88 67 62
f 104 125 123
f 170 163 165
f 165 144 170
f 170 146 160
f 144 146 170
f 120 36 38
f 168 109 120
f 1 31 5
f 1 2 31
f 29 6 73
f 5 6 29
f 73 78 29
f 24 6 5
f 20 19 23
f 4 20 23
f 30 6 4
f 93 140 86
f 86 55 63
f 73 6 86
f 86 6 30
f 30 55 86
f 23 57 51
f 51 57 46
f 13 35 5
f 5 18 13
f 3 18 31
f 41 34 31
f 31 34 32
f 103 108 109
f 103 104 123
f 109 104 103
f 35 108 103
f 109 108 131
f 131 108 34
f 131 120 109
f 33 108 35
f 34 108 33
f 33 32 34
f 31 32 33
f 33 3 31
f 18 3 33
f 35 13 33
f 33 13 18
f 46 100 101
f 101 100 138
f 101 66 46
f 138 66 101
f 123 138 136
f 138 100 136
f 38 36 40
f 36 89 40
f 37 45 31
f 31 96 37
f 37 96 45
f 31 53 58
f 58 96 31
f 47 53 45
f 45 96 47
f 123 125 127
f 127 125 107
f 128 127 107
f 152 154 128
f 149 94 45
f 99 94 149
f 38 40 39
f 39 40 95
f 132 95 133
f 70 56 26
f 26 1 70
f 70 1 69
f 85 164 54
f 145 164 172
f 52 53 31
f 54 53 52
f 52 85 54
f 44 85 52
f 31 56 72
f 72 56 70
f 72 52 31
f 70 69 72
f 164 85 75
f 145 172 75
f 75 172 164
f 24 112 7
f 106 116 16
f 16 10 19
f 16 116 10
f 50 4 23
f 63 4 50
f 23 51 50
f 50 51 63
f 63 55 11
f 11 4 63
f 11 55 30
f 30 4 11
f 9 4 6
f 20 4 9
f 73 86 139
f 139 86 140
f 139 67 73
f 142 67 139
f 139 140 142
f 63 51 91
f 93 86 91
f 91 140 93
f 91 66 140
f 121 117 35
f 5 117 121
f 106 112 121
f 121 24 5
f 121 112 24
f 34 41 114
f 114 131 34
f 114 41 31
f 36 120 130
f 120 131 130
f 31 36 130
f 130 114 31
f 131 114 130
f 160 143 158
f 158 154 160
f 143 154 158
f 102 136 100
f 80 89 98
f 98 40 80
f 80 40 89
f 61 53 54
f 61 49 53
f 96 58 79
f 79 47 96
f 79 58 53
f 53 47 79
f 123 127 124
f 124 127 135
f 135 128 124
f 124 138 123
f 124 141 138
f 122 128 107
f 152 128 122
f 107 113 122
f 122 113 152
f 135 127 111
f 111 128 135
f 127 128 111
f 137 154 143
f 137 128 154
f 137 124 128
f 143 141 137
f 141 124 137
f 168 120 147
f 115 132 133
f 115 120 38
f 38 39 115
f 115 39 95
f 95 132 115
f 169 45 168
f 97 40 98
f 95 40 97
f 2 1 17
f 1 26 17
f 31 2 17
f 17 56 31
f 17 26 56
f 12 1 5
f 12 28 1
f 5 29 12
f 12 29 78
f 28 12 42
f 42 78 64
f 42 12 78
f 59 69 1
f 64 69 59
f 59 42 64
f 43 52 90
f 90 72 43
f 52 72 90
f 84 75 85
f 14 112 106
f 106 7 14
f 14 7 112
f 19 20 21
f 21 16 19
f 20 9 8
f 106 16 8
f 8 21 20
f 16 21 8
f 27 7 106
f 106 9 27
f 92 86 63
f 63 91 92
f 92 91 86
f 66 91 65
f 65 91 51
f 46 66 65
f 65 51 46
f 105 103 123
f 123 121 105
f 35 103 105
f 105 121 35
f 10 116 119
f 119 121 123
f 119 102 100
f 119 116 106
f 106 121 119
f 119 100 46
f 46 10 119
f 123 136 119
f 136 102 119
f 49 61 60
f 60 61 76
f 168 49 60
f 77 171 76
f 77 61 54
f 76 61 77
f 129 118 168
f 166 170 160
f 160 148 166
f 166 148 170
f 110 129 148
f 110 113 107
f 152 113 110
f 118 129 110
f 110 154 152
f 160 154 110
f 110 148 160
f 109 118 110
f 110 104 109
f 107 125 110
f 125 104 110
f 168 147 167
f 167 147 149
f 167 169 168
f 167 149 45
f 45 169 167
f 153 115 133
f 133 95 153
f 149 147 134
f 134 115 149
f 134 147 120
f 28 42 22
f 42 59 22
f 1 28 22
f 22 59 1
f 43 72 82
f 82 72 69
f 44 52 82
f 82 52 43
f 82 85 44
f 83 78 73
f 68 69 64
f 64 78 68
f 78 83 68
f 15 9 106
f 106 8 15
f 15 8 9
f 24 7 25
f 7 27 25
f 6 24 25
f 25 9 6
f 25 27 9
f 151 77 54
f 171 77 151
f 54 164 151
f 164 171 151
f 162 170 168
f 163 170 162
f 162 150 163
f 168 60 162
f 162 60 76
f 76 171 157
f 157 162 76
f 150 162 157
f 163 150 157
f 164 163 157
f 157 171 164
f 159 129 168
f 168 170 159
f 170 148 159
f 149 115 156
f 115 153 156
f 156 97 98
f 98 99 156
f 99 149 156
f 120 115 126
f 126 134 120
f 115 134 126
f 73 88 74
f 74 83 73
f 71 68 74
f 74 68 83
f 145 75 74
f 74 88 62
f 74 67 145
f 62 67 74
f 71 82 87
f 87 68 71
f 87 82 69
f 69 68 87
f 148 129 161
f 161 159 148
f 129 159 161
f 155 153 95
f 155 156 153
f 95 97 155
f 97 156 155
f 81 82 71
f 71 74 81
f 81 74 75
f 75 84 81
f 81 84 85
f 85 82 81

