# https://github.com/mikedh/trimesh
v -0.00929699 -0.06005719 -0.00640635
v -0.02169611 -0.05732727 -0.01026049
v -0.02169611 -0.05657482 -0.01851934
v -0.00876538 -0.05963734 -0.00989056
v -0.00876538 -0.05996449 -0.00666014
v -0.00876538 -0.05994086 -0.00512451
v -0.01262333 -0.05740361 0.02289968
v -0.01977599 -0.05806155 0.00224824
v -0.02169611 -0.05772713 -0.00154137
v -0.02169611 -0.05622586 -0.01904843
v -0.00876538 -0.05835235 -0.01830427
v -0.00876538 -0.05766533 0.01997467
v -0.00876538 -0.05723276 0.02290829
v -0.02116577 -0.05604047 0.02289538
v -0.02169611 -0.05585508 0.02215983
v -0.00876538 -0.05749085 -0.01956460
v -0.02169611 -0.04985545 -0.02054965
v -0.00876538 -0.05562971 -0.02084645
v -0.00876538 -0.04269807 0.02294700
v -0.02169611 -0.04182566 0.02294700
v -0.02169611 -0.05519714 0.02289968
v -0.02169611 -0.05571150 0.02289538
v -0.02169611 -0.04726731 -0.02076902
v -0.00876538 -0.04992997 -0.02099270
v -0.00876538 -0.04320697 -0.02099270
v -0.02169611 -0.04149124 -0.02061417
v -0.01047032 -0.04353049 -0.02099700
f 1 2 3
f 1 3 4
f 1 4 5
f 1 5 6
f 1 6 7
f 1 7 8
f 1 8 9
f 1 9 2
f 2 9 15
f 2 15 22
f 2 22 21
f 2 21 20
f 2 20 26
f 2 26 23
f 2 23 17
f 2 17 10
f 2 10 3
f 3 10 11
f 3 11 4
f 4 11 16
f 4 16 18
f 4 18 24
f 4 24 25
f 4 25 19
f 4 19 13
f 4 13 12
f 4 12 6
f 4 6 5
f 6 12 7
f 7 13 14
f 7 14 8
f 7 12 13
f 8 14 9
f 9 14 15
f 10 16 11
f 10 17 18
f 10 18 16
f 13 19 20
f 13 20 21
f 13 21 14
f 14 22 15
f 14 21 22
f 17 23 18
f 18 23 24
f 19 25 26
f 19 26 20
f 23 27 24
f 23 26 27
f 24 27 25
f 25 27 26

