# https://github.com/mikedh/trimesh
v 0.04178734 -0.00483663 0.01889778
v 0.04171502 -0.00825109 0.00418972
v 0.04125462 -0.00483663 0.00046219
v 0.04168503 -0.00483663 0.02266401
v 0.04039556 -0.01446991 0.02143439
v 0.04059665 -0.01446991 0.01397073
v 0.04130225 -0.01155334 -0.00137363
v 0.04019976 -0.00724590 -0.02022626
v 0.04045906 -0.00483663 -0.01297757
v 0.04035675 -0.01446991 0.02283598
v 0.03947829 -0.00483663 0.02293487
v 0.04093357 -0.01446991 -0.00628349
v 0.04069720 -0.01446991 -0.01005401
v 0.03932482 -0.01446991 -0.01888917
v 0.03867215 -0.01446991 -0.02052292
v 0.03940773 -0.00483663 -0.02031225
v 0.03959118 -0.00483663 -0.01962006
v 0.03953650 -0.01446991 0.02293487
v 0.03230771 -0.00483663 0.02294346
v 0.03269225 -0.01446991 0.02294776
v 0.03892793 -0.01446991 0.02293917
v 0.03551815 -0.01446991 -0.02097005
v 0.03474553 -0.00483663 -0.02097005
v 0.03087006 -0.00483663 0.02294346
v 0.02836344 -0.00483663 0.02293917
v 0.03079421 -0.01446991 0.02294346
v 0.02653243 -0.01446991 -0.02097005
v 0.02892615 -0.00483663 -0.02097435
v 0.02642483 -0.00483663 0.02289187
v 0.02656771 -0.01446991 0.02291337
v 0.02749027 -0.01446991 0.02293487
v 0.02534880 -0.00483663 -0.02092276
v 0.02376651 -0.01446991 -0.01808089
v 0.02518299 -0.00483663 -0.01722962
v 0.02394820 -0.01446991 -0.00740132
f 1 2 3
f 1 3 9
f 1 9 17
f 1 17 16
f 1 16 23
f 1 23 28
f 1 28 32
f 1 32 34
f 1 34 29
f 1 29 25
f 1 25 24
f 1 24 19
f 1 19 11
f 1 11 4
f 1 4 5
f 1 5 2
f 2 5 6
f 2 6 7
f 2 7 8
f 2 8 3
f 3 8 9
f 4 10 5
f 4 11 10
f 5 10 18
f 5 18 21
f 5 21 20
f 5 20 26
f 5 26 31
f 5 31 30
f 5 30 35
f 5 35 33
f 5 33 27
f 5 27 22
f 5 22 15
f 5 15 14
f 5 14 13
f 5 13 12
f 5 12 6
f 6 12 7
f 7 12 13
f 7 13 8
f 8 13 14
f 8 14 15
f 8 15 16
f 8 16 17
f 8 17 9
f 10 11 18
f 11 19 20
f 11 20 21
f 11 21 18
f 15 22 16
f 16 22 23
f 19 24 20
f 20 24 25
f 20 25 26
f 22 27 28
f 22 28 23
f 25 29 30
f 25 30 31
f 25 31 26
f 27 32 28
f 27 33 32
f 29 34 35
f 29 35 30
f 32 33 34
f 33 35 34

