# https://github.com/mikedh/trimesh
v -0.05169247 0.00693371 -0.02099808
v -0.04851819 0.02047120 -0.02096365
v -0.03263041 0.02219191 -0.02097226
v -0.03263041 0.01808619 -0.02097656
v -0.04155910 0.00693371 -0.02097656
v -0.05525973 0.00693371 -0.01693120
v -0.03263041 0.03142760 -0.02087328
v -0.05501178 0.01350639 -0.01523128
v -0.04482227 0.02652004 -0.00949031
v -0.03642458 0.03233771 -0.01691398
v -0.03263041 0.01915724 0.02295009
v -0.04185617 0.00693371 0.02294579
v -0.05652758 0.00693371 -0.00932677
v -0.03263041 0.03379798 -0.01819645
v -0.05641296 0.00693371 -0.00101655
v -0.05495096 0.01291233 -0.00045279
v -0.04614391 0.02614547 0.01228151
v -0.03771347 0.03330927 0.00200886
v -0.04158015 0.03131055 0.02294579
v -0.03263041 0.03586986 -0.00034520
v -0.03263041 0.03484562 -0.01190892
v -0.03263041 0.01919822 0.02295870
v -0.03269591 0.01912506 0.02295870
v -0.05334394 0.00693371 0.02294579
v -0.05554044 0.00693371 0.02290705
v -0.05390301 0.01337762 0.02294579
v -0.03472398 0.03604837 0.02293718
v -0.03263041 0.03682679 0.01801819
v -0.03263041 0.03485733 0.02288123
v -0.05488079 0.00693371 0.02291996
v -0.03263041 0.03579085 0.02192584
f 1 2 3
f 1 3 4
f 1 4 5
f 1 5 12
f 1 12 24
f 1 24 30
f 1 30 25
f 1 25 15
f 1 15 13
f 1 13 6
f 1 6 2
f 2 7 3
f 2 6 8
f 2 8 9
f 2 9 10
f 2 10 7
f 3 7 14
f 3 14 21
f 3 21 20
f 3 20 28
f 3 28 31
f 3 31 29
f 3 29 22
f 3 22 11
f 3 11 4
f 4 11 12
f 4 12 5
f 6 13 8
f 7 10 14
f 8 13 15
f 8 15 16
f 8 16 17
f 8 17 9
f 9 18 10
f 9 17 19
f 9 19 18
f 10 18 20
f 10 20 21
f 10 21 14
f 11 22 12
f 12 22 23
f 12 23 24
f 15 25 16
f 16 25 26
f 16 26 17
f 17 26 19
f 18 19 27
f 18 27 20
f 19 26 23
f 19 23 22
f 19 22 27
f 20 27 28
f 22 29 27
f 23 26 24
f 24 26 30
f 25 30 26
f 27 29 31
f 27 31 28

