# https://github.com/mikedh/trimesh
v -0.04328750 -0.02006189 -0.02098488
v -0.04603089 -0.02006189 -0.02064061
v -0.04723523 -0.00807400 -0.02101070
v -0.04539968 -0.01243067 -0.02101070
v -0.04508179 -0.00807400 -0.02100209
v -0.04536606 -0.00807400 0.02294333
v -0.04380714 -0.02006189 0.02294333
v -0.05085590 -0.02006189 -0.01984450
v -0.05437264 -0.00807400 -0.01968097
v -0.04581234 -0.00807400 -0.02100640
v -0.05102860 -0.02006189 -0.01981438
v -0.05204190 -0.00807400 0.02294333
v -0.05108515 -0.02006189 0.02294333
v -0.05207400 -0.02006189 -0.01907421
v -0.05639770 -0.00807400 -0.01824367
v -0.05715577 -0.00807400 0.02285296
v -0.05372614 -0.02006189 0.02289599
v -0.05598505 -0.02006189 -0.01629427
v -0.05785575 -0.01712889 -0.01551537
v -0.05887516 -0.00807400 -0.01504200
v -0.05802387 -0.00807400 0.01969003
v -0.05380103 -0.02006189 0.02262489
v -0.05664071 -0.02006189 -0.01573053
v -0.05687455 -0.02006189 -0.01400060
v -0.05788479 -0.02006189 -0.00384048
v -0.05791994 -0.02006189 -0.00270871
v -0.05890114 -0.00807400 -0.01420286
v -0.05732388 -0.01766995 0.01226251
v -0.05789549 -0.02006189 -0.00199436
v -0.05781296 -0.02006189 -0.00036771
v -0.05620513 -0.02006189 0.01385474
v -0.05643744 -0.02006189 0.01214632
f 1 2 3
f 1 3 4
f 1 4 5
f 1 5 6
f 1 6 7
f 1 7 13
f 1 13 17
f 1 17 22
f 1 22 31
f 1 31 32
f 1 32 30
f 1 30 29
f 1 29 26
f 1 26 25
f 1 25 24
f 1 24 23
f 1 23 18
f 1 18 14
f 1 14 11
f 1 11 8
f 1 8 2
f 2 8 3
f 3 9 15
f 3 15 20
f 3 20 27
f 3 27 21
f 3 21 16
f 3 16 12
f 3 12 6
f 3 6 5
f 3 5 10
f 3 10 4
f 3 8 11
f 3 11 9
f 4 10 5
f 6 12 13
f 6 13 7
f 9 11 14
f 9 14 15
f 12 16 13
f 13 16 17
f 14 18 19
f 14 19 15
f 15 19 20
f 16 21 22
f 16 22 17
f 18 23 19
f 19 23 24
f 19 24 25
f 19 25 26
f 19 26 27
f 19 27 20
f 21 28 22
f 21 27 26
f 21 26 29
f 21 29 30
f 21 30 28
f 22 28 31
f 28 32 31
f 28 30 32

