# https://github.com/mikedh/trimesh
v -0.02169914 -0.04182579 0.02294700
v -0.03572406 -0.03289418 0.02294700
v -0.02216583 -0.04179419 0.02294700
v -0.04146676 -0.04348133 0.02294270
v -0.02169914 -0.05519647 0.02289968
v -0.02169914 -0.04149274 -0.02061146
v -0.05005808 -0.03289418 0.02294270
v -0.04981565 -0.03373774 0.02294270
v -0.03543617 -0.03289418 -0.02100295
v -0.05079449 -0.03531792 0.01140885
v -0.04084855 -0.04713274 -0.00299448
v -0.03256936 -0.05205315 0.00710248
v -0.02169914 -0.05585528 0.02215972
v -0.02169914 -0.05571185 0.02289537
v -0.02169914 -0.04726401 -0.02077064
v -0.05020961 -0.03289418 0.02238343
v -0.05169150 -0.03289418 0.01152500
v -0.02486899 -0.04831908 -0.02070610
v -0.04202133 -0.03289418 -0.02051251
v -0.05265518 -0.03289418 -0.00662113
v -0.05229153 -0.03375233 -0.00691367
v -0.04604274 -0.04054221 -0.01658472
v -0.03801811 -0.04900706 -0.01586197
v -0.02528719 -0.05709754 -0.00863450
v -0.02169914 -0.05772718 -0.00154038
v -0.02169914 -0.04985306 -0.02055123
v -0.04717007 -0.03388604 -0.01997045
v -0.02216583 -0.05648735 -0.01895516
v -0.04676702 -0.03289418 -0.02005649
v -0.05257942 -0.03289418 -0.00736108
v -0.05224910 -0.03289418 -0.00981326
v -0.05088843 -0.03289418 -0.01653310
v -0.04882772 -0.03289418 -0.01882180
v -0.02169914 -0.05732606 -0.01025638
v -0.02169914 -0.05622480 -0.01904550
v -0.04780343 -0.03289418 -0.01970372
v -0.04744584 -0.03289418 -0.01995754
v -0.04708824 -0.03289418 -0.02001777
v -0.02169914 -0.05657487 -0.01852065
f 1 2 3
f 1 3 4
f 1 4 5
f 1 5 14
f 1 14 13
f 1 13 25
f 1 25 34
f 1 34 39
f 1 39 35
f 1 35 26
f 1 26 15
f 1 15 6
f 1 6 2
f 2 7 8
f 2 8 4
f 2 4 3
f 2 6 9
f 2 9 19
f 2 19 29
f 2 29 38
f 2 38 37
f 2 37 36
f 2 36 33
f 2 33 32
f 2 32 31
f 2 31 30
f 2 30 20
f 2 20 17
f 2 17 16
f 2 16 7
f 4 8 10
f 4 10 11
f 4 11 12
f 4 12 13
f 4 13 14
f 4 14 5
f 6 15 9
f 7 16 8
f 8 16 17
f 8 17 10
f 9 15 18
f 9 18 19
f 10 17 20
f 10 20 21
f 10 21 11
f 11 21 22
f 11 22 23
f 11 23 24
f 11 24 12
f 12 24 13
f 13 24 25
f 15 26 18
f 18 27 19
f 18 26 28
f 18 28 27
f 19 27 29
f 20 30 21
f 21 30 31
f 21 31 22
f 22 31 32
f 22 32 33
f 22 33 27
f 22 27 23
f 23 27 28
f 23 28 24
f 24 28 34
f 24 34 25
f 26 35 28
f 27 36 37
f 27 37 38
f 27 38 29
f 27 33 36
f 28 39 34
f 28 35 39

