# https://github.com/mikedh/trimesh
v -0.03543742 -0.03289049 -0.02099943
v -0.04202282 -0.03289049 -0.02051248
v -0.03673381 -0.03186957 -0.02107700
v -0.04328840 -0.02006307 -0.02098651
v -0.03572575 -0.03289049 0.02294700
v -0.04676818 -0.03289049 -0.02005569
v -0.04259948 -0.02255321 -0.02097789
v -0.04603085 -0.02006307 -0.02064176
v -0.04380783 -0.02006307 0.02294700
v -0.03573896 -0.03288296 0.02294700
v -0.05005648 -0.03289049 0.02294269
v -0.04708733 -0.03289049 -0.02001691
v -0.05085324 -0.02006307 -0.01984454
v -0.05108435 -0.02006307 0.02294269
v -0.05372555 -0.02006307 0.02289529
v -0.05380038 -0.02006307 0.02262380
v -0.05021055 -0.03289049 0.02238248
v -0.04744829 -0.03289049 -0.01995658
v -0.05102712 -0.02006307 -0.01981437
v -0.05620388 -0.02006307 0.01385434
v -0.05643718 -0.02006307 0.01214785
v -0.05169182 -0.03289049 0.01152300
v -0.04780485 -0.03289049 -0.01970664
v -0.05211001 -0.02006307 -0.01904731
v -0.05781281 -0.02006307 -0.00037072
v -0.05788985 -0.02043854 -0.00234870
v -0.05265366 -0.03289049 -0.00661924
v -0.04882832 -0.03289049 -0.01881892
v -0.05214963 -0.03090139 -0.01652205
v -0.05598598 -0.02006307 -0.01629797
v -0.05789645 -0.02006307 -0.00199534
v -0.05792066 -0.02006307 -0.00271068
v -0.05788544 -0.02006307 -0.00384403
v -0.05687518 -0.02006307 -0.01399679
v -0.05258103 -0.03289049 -0.00736044
v -0.05088846 -0.03289049 -0.01653498
v -0.05224868 -0.03289049 -0.00981244
v -0.05663968 -0.02006307 -0.01572913
f 1 2 3
f 1 3 4
f 1 4 5
f 1 5 11
f 1 11 17
f 1 17 22
f 1 22 27
f 1 27 35
f 1 35 37
f 1 37 36
f 1 36 28
f 1 28 23
f 1 23 18
f 1 18 12
f 1 12 6
f 1 6 2
f 2 6 3
f 3 6 7
f 3 7 4
f 4 7 8
f 4 8 13
f 4 13 19
f 4 19 24
f 4 24 30
f 4 30 38
f 4 38 34
f 4 34 33
f 4 33 32
f 4 32 31
f 4 31 25
f 4 25 21
f 4 21 20
f 4 20 16
f 4 16 15
f 4 15 14
f 4 14 9
f 4 9 5
f 5 9 10
f 5 10 11
f 6 12 7
f 7 12 8
f 8 12 13
f 9 14 11
f 9 11 10
f 11 14 15
f 11 15 16
f 11 16 17
f 12 18 13
f 13 18 19
f 16 20 17
f 17 20 21
f 17 21 22
f 18 23 19
f 19 23 24
f 21 25 26
f 21 26 22
f 22 26 27
f 23 28 29
f 23 29 30
f 23 30 24
f 25 31 26
f 26 32 33
f 26 33 34
f 26 34 35
f 26 35 27
f 26 31 32
f 28 36 29
f 29 36 37
f 29 37 35
f 29 35 34
f 29 34 38
f 29 38 30

