# https://github.com/mikedh/trimesh
v 0.03849018 -0.02319850 0.02185925
v 0.03665587 -0.02319850 0.02294370
v 0.03506138 -0.03529268 0.02292218
v 0.03553577 -0.03529268 0.02222503
v 0.03840848 -0.02319850 0.00115568
v 0.02989050 -0.02319850 0.02294370
v 0.03169319 -0.03529268 0.02294370
v 0.03315854 -0.03529268 -0.01091961
v 0.03623155 -0.03092267 -0.00647852
v 0.03779441 -0.02319850 -0.01323913
v 0.02669362 -0.02319850 0.02293509
v 0.01156577 -0.03529268 0.02292648
v 0.03063108 -0.03529268 0.02294370
v 0.03158514 -0.03529268 -0.01928107
v 0.03638441 -0.02529293 -0.02096800
v 0.03706701 -0.02319850 -0.02027946
v 0.01898737 -0.02722515 0.02057684
v 0.02118012 -0.02319850 0.00829499
v 0.02113532 -0.02319850 -0.00436986
v 0.02110633 -0.02319850 -0.02010302
v 0.01206124 -0.03529268 -0.02101103
v 0.02900233 -0.03529268 -0.02094218
v 0.03621837 -0.02319850 -0.02096800
v 0.03682717 -0.02319850 -0.02088193
v 0.02148057 -0.02319850 -0.02086472
v 0.02313567 -0.02319850 -0.02091206
v 0.02474597 -0.02319850 -0.02095509
v 0.02756861 -0.02319850 -0.02095939
v 0.03439723 -0.02319850 -0.02096800
f 1 2 3
f 1 3 4
f 1 4 5
f 1 5 10
f 1 10 16
f 1 16 24
f 1 24 23
f 1 23 29
f 1 29 28
f 1 28 27
f 1 27 26
f 1 26 25
f 1 25 20
f 1 20 19
f 1 19 18
f 1 18 11
f 1 11 6
f 1 6 2
f 2 6 13
f 2 13 7
f 2 7 3
f 3 7 13
f 3 13 12
f 3 12 21
f 3 21 22
f 3 22 14
f 3 14 8
f 3 8 4
f 4 8 9
f 4 9 5
f 5 9 10
f 6 11 12
f 6 12 13
f 8 14 9
f 9 14 15
f 9 15 10
f 10 15 16
f 11 17 12
f 11 18 17
f 12 17 18
f 12 18 19
f 12 19 20
f 12 20 21
f 14 22 15
f 15 21 23
f 15 23 24
f 15 24 16
f 15 22 21
f 20 25 21
f 21 25 26
f 21 26 27
f 21 27 28
f 21 28 29
f 21 29 23

