# https://github.com/mikedh/trimesh
v 0.04093625 -0.01446991 -0.00627891
v 0.04059656 -0.01446991 0.01397093
v 0.03957170 -0.02017079 0.02293933
v 0.04078096 -0.01568988 -0.00833829
v 0.04069750 -0.01446991 -0.01004942
v 0.04039470 -0.01446991 0.02143887
v 0.03665433 -0.02319764 0.02294363
v 0.03848861 -0.02319764 0.02186020
v 0.03840903 -0.02319764 0.00115893
v 0.04035588 -0.01446991 0.02283615
v 0.03953482 -0.01446991 0.02293933
v 0.03779178 -0.02319764 -0.01323953
v 0.03706778 -0.02319764 -0.02028183
v 0.03897775 -0.01734726 -0.01836003
v 0.03932519 -0.01446991 -0.01889315
v 0.03303820 -0.02319764 0.02294793
v 0.03565470 -0.01446991 0.02294363
v 0.03682709 -0.02319764 -0.02087514
v 0.03867300 -0.01446991 -0.02052259
v 0.03035569 -0.01446991 0.02294363
v 0.02989373 -0.02319764 0.02294363
v 0.03621760 -0.02319764 -0.02096542
v 0.03551689 -0.01446991 -0.02096972
v 0.02749073 -0.01446991 0.02293933
v 0.02669685 -0.02319764 0.02293503
v 0.03439692 -0.02319764 -0.02096972
v 0.02671044 -0.01446991 -0.02097402
v 0.02656874 -0.01446991 0.02291784
v 0.02118045 -0.02319764 0.00829152
v 0.02757031 -0.02319764 -0.02096112
v 0.02474612 -0.02319764 -0.02095252
v 0.02653187 -0.01446991 -0.02096972
v 0.02394641 -0.01446991 -0.00739674
v 0.02376784 -0.01446991 -0.01808057
v 0.02113386 -0.02319764 -0.00436571
v 0.02313506 -0.02319764 -0.02090953
v 0.02148130 -0.02319764 -0.02086224
v 0.02110669 -0.02319764 -0.02010126
f 1 2 3
f 1 3 4
f 1 4 5
f 1 5 15
f 1 15 19
f 1 19 23
f 1 23 27
f 1 27 32
f 1 32 34
f 1 34 33
f 1 33 28
f 1 28 24
f 1 24 20
f 1 20 17
f 1 17 11
f 1 11 10
f 1 10 6
f 1 6 2
f 2 6 3
f 3 7 8
f 3 8 9
f 3 9 4
f 3 6 10
f 3 10 11
f 3 11 7
f 4 12 13
f 4 13 14
f 4 14 15
f 4 15 5
f 4 9 12
f 7 11 16
f 7 16 21
f 7 21 25
f 7 25 29
f 7 29 35
f 7 35 38
f 7 38 37
f 7 37 36
f 7 36 31
f 7 31 30
f 7 30 26
f 7 26 22
f 7 22 18
f 7 18 13
f 7 13 12
f 7 12 9
f 7 9 8
f 11 17 16
f 13 18 19
f 13 19 14
f 14 19 15
f 16 17 20
f 16 20 21
f 18 22 19
f 19 22 23
f 20 24 21
f 21 24 25
f 22 26 23
f 23 26 27
f 24 28 25
f 25 28 29
f 26 30 27
f 27 31 32
f 27 30 31
f 28 33 29
f 29 33 34
f 29 34 35
f 31 36 32
f 32 36 37
f 32 37 34
f 34 37 38
f 34 38 35

