# https://github.com/mikedh/trimesh
v -0.02208590 0.02426695 -0.02099050
v -0.02208590 0.02801388 -0.02095609
v -0.00987985 0.04044820 -0.02090878
v -0.01373097 0.02668361 -0.02101200
v -0.00366684 0.02672610 -0.02096899
v -0.00366684 0.02570623 -0.01739087
v -0.02208590 0.02453485 0.00391444
v -0.02208590 0.03746988 -0.02083997
v -0.02208590 0.03946344 -0.00774026
v -0.00876742 0.04205192 -0.00199032
v -0.00876742 0.04160295 -0.00795529
v -0.00876742 0.04041310 -0.01994114
v -0.00876742 0.04023758 -0.02091308
v -0.00366684 0.03926574 -0.02093029
v -0.00366684 0.02597229 -0.00738331
v -0.02208590 0.02473070 0.02143520
v -0.02208590 0.03981633 -0.00303537
v -0.00709427 0.04314200 0.01922467
v -0.00824997 0.04213691 -0.00194732
v -0.00366684 0.04142928 -0.00361596
v -0.00366684 0.04025051 -0.01549429
v -0.00366684 0.02978757 0.02292321
v -0.01143220 0.02674089 0.02291461
v -0.02208590 0.02932752 0.02266948
v -0.02208590 0.03983480 0.00607766
v -0.02208590 0.03956505 0.01502726
v -0.02208590 0.03782092 0.01713887
v -0.00366684 0.04276140 0.02093202
v -0.00366684 0.03232802 0.02291891
v -0.00876742 0.02804159 0.02291891
v -0.00876562 0.02804159 0.02291891
v -0.00366684 0.04021356 0.02287161
v -0.00876562 0.03750683 0.02281140
v -0.02208590 0.03043793 0.02265227
v -0.00366684 0.04208148 0.02145240
f 1 2 3
f 1 3 4
f 1 4 5
f 1 5 6
f 1 6 7
f 1 7 16
f 1 16 24
f 1 24 34
f 1 34 27
f 1 27 26
f 1 26 25
f 1 25 17
f 1 17 9
f 1 9 8
f 1 8 2
f 2 8 3
f 3 8 9
f 3 9 10
f 3 10 11
f 3 11 12
f 3 12 13
f 3 13 4
f 4 13 14
f 4 14 5
f 5 14 21
f 5 21 20
f 5 20 28
f 5 28 35
f 5 35 32
f 5 32 29
f 5 29 22
f 5 22 15
f 5 15 6
f 6 15 16
f 6 16 7
f 9 17 10
f 10 17 18
f 10 18 19
f 10 19 11
f 11 19 20
f 11 20 21
f 11 21 12
f 12 21 13
f 13 21 14
f 15 22 23
f 15 23 16
f 16 23 24
f 17 25 18
f 18 25 26
f 18 26 27
f 18 27 28
f 18 28 20
f 18 20 19
f 22 29 30
f 22 30 31
f 22 31 23
f 23 31 30
f 23 30 29
f 23 29 32
f 23 32 33
f 23 33 24
f 24 33 34
f 27 34 33
f 27 33 32
f 27 32 35
f 27 35 28

