# https://github.com/mikedh/trimesh
v -0.03263041 0.01808361 -0.02097866
v -0.03263041 0.02219308 -0.02097435
v -0.02208823 0.02426697 -0.02099156
v -0.02208823 0.02453526 0.00391877
v -0.02208823 0.02473115 0.02143775
v -0.03263041 0.01915888 0.02295216
v -0.02208823 0.02801446 -0.02095715
v -0.03263041 0.03142766 -0.02087110
v -0.02208823 0.02932396 0.02267251
v -0.03263041 0.01919721 0.02296076
v -0.02208823 0.03747050 -0.02084098
v -0.03263041 0.03379753 -0.01819507
v -0.02484375 0.03679765 -0.02082377
v -0.02208823 0.03043543 0.02265530
v -0.03263041 0.03485790 0.02287902
v -0.02615133 0.03913557 -0.00335642
v -0.02208823 0.03946348 -0.00774047
v -0.03263041 0.03484725 -0.01190940
v -0.02208823 0.03782183 0.01713975
v -0.03263041 0.03579051 0.02192821
v -0.03094304 0.03745134 0.01405499
v -0.02208823 0.03983610 0.00607852
v -0.02208823 0.03981694 -0.00303805
v -0.02208823 0.03971261 -0.00443200
v -0.03263041 0.03586930 -0.00034481
v -0.03263041 0.03682533 0.01801741
v -0.02208823 0.03956569 0.01503162
f 1 2 3
f 1 3 4
f 1 4 5
f 1 5 6
f 1 6 10
f 1 10 15
f 1 15 20
f 1 20 26
f 1 26 25
f 1 25 18
f 1 18 12
f 1 12 8
f 1 8 2
f 2 7 3
f 2 8 7
f 3 7 11
f 3 11 17
f 3 17 24
f 3 24 23
f 3 23 22
f 3 22 27
f 3 27 19
f 3 19 14
f 3 14 9
f 3 9 5
f 3 5 4
f 5 9 6
f 6 9 10
f 7 8 11
f 8 12 13
f 8 13 11
f 9 14 15
f 9 15 10
f 11 13 16
f 11 16 17
f 12 18 13
f 13 18 16
f 14 19 15
f 15 19 20
f 16 21 22
f 16 22 23
f 16 23 24
f 16 24 17
f 16 18 25
f 16 25 26
f 16 26 21
f 19 27 20
f 20 27 26
f 21 26 27
f 21 27 22

