# https://github.com/mikedh/trimesh
v 0.00595643 0.02472833 -0.01683931
v -0.00366590 0.02597121 -0.00738324
v 0.00039121 0.02531269 -0.01593239
v -0.00366590 0.02570816 -0.01738948
v 0.00595643 0.02527385 -0.02093981
v 0.00595643 0.02642670 0.02293638
v -0.00366590 0.02978635 0.02291919
v -0.00366590 0.02592884 -0.01817176
v 0.00595643 0.03813694 -0.02095700
v -0.00366590 0.02672682 -0.02097420
v 0.00475447 0.03765851 -0.02096560
v 0.00595643 0.02883477 0.02293208
v 0.00030832 0.04232460 0.02291489
v -0.00366590 0.03232860 0.02291919
v -0.00366590 0.03926507 -0.02093551
v -0.00366590 0.04025019 -0.01549397
v 0.00595643 0.03994124 -0.00715113
v 0.00595643 0.04206331 0.02288051
v -0.00366590 0.04276420 0.02093341
v -0.00366590 0.04021488 0.02286761
v -0.00366590 0.04142951 -0.00361800
v -0.00313839 0.04134830 -0.00381142
f 1 2 3
f 1 3 4
f 1 4 5
f 1 5 9
f 1 9 17
f 1 17 18
f 1 18 12
f 1 12 6
f 1 6 2
f 2 4 3
f 2 6 7
f 2 7 14
f 2 14 20
f 2 20 19
f 2 19 21
f 2 21 16
f 2 16 15
f 2 15 10
f 2 10 8
f 2 8 4
f 4 8 5
f 5 8 10
f 5 10 11
f 5 11 9
f 6 12 13
f 6 13 14
f 6 14 7
f 9 11 15
f 9 15 16
f 9 16 17
f 10 15 11
f 12 18 13
f 13 18 19
f 13 19 20
f 13 20 14
f 16 21 22
f 16 22 17
f 17 22 18
f 18 22 21
f 18 21 19

