# https://github.com/mikedh/trimesh
v -0.04155909 0.00693079 -0.02097495
v -0.04508163 -0.00807283 -0.02100077
v -0.04723401 -0.00807283 -0.02101368
v -0.05235849 0.00409778 -0.02100938
v -0.05169385 0.00693079 -0.02100077
v -0.04185732 0.00693079 0.02294429
v -0.04536623 -0.00807283 0.02294429
v -0.05437283 -0.00807283 -0.01967967
v -0.05565607 -0.00347452 -0.01962803
v -0.05526071 0.00693079 -0.01693418
v -0.05334350 0.00693079 0.02294859
v -0.05204321 -0.00807283 0.02294429
v -0.05639739 -0.00807283 -0.01824668
v -0.05896900 -0.00724158 -0.01499770
v -0.05652691 0.00693079 -0.00933029
v -0.05554189 0.00693079 0.02290556
v -0.05831971 -0.00399882 0.02283671
v -0.05715575 -0.00807283 0.02285392
v -0.05887527 -0.00807283 -0.01504074
v -0.05845775 -0.00144486 -0.00180816
v -0.05890083 -0.00807283 -0.01420160
v -0.05641273 0.00693079 -0.00101636
v -0.05802318 -0.00807283 0.01968671
f 1 2 3
f 1 3 4
f 1 4 5
f 1 5 10
f 1 10 15
f 1 15 22
f 1 22 16
f 1 16 11
f 1 11 6
f 1 6 7
f 1 7 2
f 2 7 12
f 2 12 18
f 2 18 23
f 2 23 21
f 2 21 19
f 2 19 13
f 2 13 8
f 2 8 3
f 3 8 4
f 4 8 9
f 4 9 5
f 5 9 10
f 6 11 7
f 7 11 12
f 8 13 9
f 9 13 14
f 9 14 10
f 10 14 15
f 11 16 17
f 11 17 18
f 11 18 12
f 13 19 14
f 14 17 20
f 14 20 15
f 14 19 21
f 14 21 17
f 15 20 22
f 16 22 17
f 17 23 18
f 17 22 20
f 17 21 23

