# https://github.com/mikedh/trimesh
v -0.01029800 -0.01260800 -0.03598700
v -0.01253800 -0.01246600 -0.03438500
v -0.00934600 -0.01268500 -0.03169300
v -0.01201800 -0.01273900 -0.03022200
v -0.01328300 -0.01136700 -0.03595200
v -0.01348700 -0.00785300 -0.03511700
v -0.00231200 -0.01251100 -0.03490400
v 0.00125400 -0.01194000 -0.03598000
v 0.00133600 -0.01242800 -0.03587900
v 0.00047100 -0.01252100 -0.02839100
v -0.01261200 -0.01253200 -0.02977000
v -0.01328900 -0.01185700 -0.02707500
v -0.01247000 -0.01279000 -0.02393800
v -0.01282700 -0.01248900 -0.02026600
v -0.01354900 -0.01137100 -0.01292600
v -0.01308900 -0.01232000 -0.00971300
v -0.01289600 -0.01260400 -0.00584200
v -0.01374300 -0.00784800 -0.00908200
v -0.01389200 -0.00292400 -0.01341700
v 0.01261600 -0.01163600 -0.03383400
v 0.01291900 -0.01049800 -0.03596900
v 0.01201200 -0.01220800 -0.02754800
v 0.01194600 -0.01222000 -0.03593000
v 0.01299000 -0.01052200 -0.03235800
v 0.01300600 -0.00898300 -0.03450500
v 0.01280800 -0.01126200 -0.03006600
v 0.01300100 -0.00997400 -0.02639900
v 0.01301400 -0.00897000 -0.03043600
v 0.01292200 -0.01078600 -0.02275800
v 0.01256700 -0.01168300 -0.01648300
v 0.01283400 -0.01109500 -0.01318600
v 0.01292500 -0.01011500 -0.01372900
v 0.01263600 -0.01142200 0.00188900
v -0.01365800 -0.00345600 -0.03582900
v -0.01381000 0.00072900 -0.03588800
v 0.01065200 0.01367000 -0.03589500
v 0.00502800 0.01369900 -0.03595500
v 0.00802900 0.01367300 -0.03596000
v -0.01390400 0.00448600 -0.03596000
v -0.01388300 0.01032700 -0.03598500
v -0.01364600 0.01314300 -0.03326700
v -0.01310900 0.01362900 -0.03508700
v -0.01379000 0.01271100 -0.03590100
v -0.01370500 -0.00414600 -0.02845600
v -0.01398300 0.00249700 -0.02686600
v -0.01130900 0.01368300 -0.03590000
v -0.00579900 0.01363200 -0.03593300
v -0.00831800 0.01367800 -0.03592500
v -0.01294800 0.01365900 -0.03083100
v -0.01408300 0.00659300 -0.01975000
v -0.01406100 0.00927400 -0.01455000
v -0.01363200 0.01320000 -0.02288000
v -0.01397700 0.01284400 -0.01770800
v 0.01292900 -0.00828300 -0.03592500
v 0.01290500 -0.00432800 -0.03589200
v 0.01276600 0.00799200 -0.03589100
v 0.01273700 0.00453200 -0.03596200
v 0.01217600 0.00972200 -0.03601500
v 0.01274000 0.00990600 -0.03593400
v 0.01263800 0.01266100 -0.03592500
v 0.01217600 0.01362500 -0.03595200
v 0.01120600 0.01371100 -0.03307100
v 0.01260000 0.01316300 -0.03277600
v 0.01197600 0.01371700 -0.02844700
v 0.01105000 0.01371300 -0.02456400
v 0.01153900 0.01370300 -0.02171300
v 0.01116900 0.01364600 -0.00573600
v -0.01358200 -0.01152300 -0.00663700
v -0.01379900 -0.00768100 -0.00176900
v -0.01398300 -0.00223500 -0.00448400
v -0.01266000 -0.01289600 0.00623300
v -0.01204000 -0.01296800 0.01990400
v -0.01381100 -0.00986700 0.01576600
v -0.01305100 -0.01261700 0.01986700
v -0.01233300 -0.01291500 0.02518100
v -0.01342700 -0.01216900 0.02194900
v -0.01382600 -0.01013100 0.02132500
v -0.01373900 -0.01162600 0.02539500
v -0.01400000 -0.00687800 0.02534800
v -0.01404200 -0.00406200 0.02539600
v -0.01421400 0.00021100 0.02469200
v -0.01428900 0.00349300 0.02523800
v -0.01050300 0.00428900 0.02548600
v -0.01424900 0.00677100 0.02534400
v -0.01403700 0.01101900 0.02534200
v 0.01278300 -0.01068300 0.00424100
v 0.01270900 -0.01111200 0.00871700
v -0.00055000 -0.01263200 0.02548900
v 0.01183900 -0.01244800 0.01882400
v 0.01207500 -0.01236300 0.01566700
v 0.00693900 -0.01275700 0.02444200
v 0.01068500 -0.01255200 0.02553500
v 0.01036300 -0.01064800 0.02558200
v 0.01257300 -0.01132700 0.01927300
v 0.01260500 -0.01091300 0.02328200
v 0.01234500 -0.01185800 0.02542200
v 0.01264100 -0.00933000 0.02560200
v -0.01006500 -0.01300500 0.02442300
v -0.00915700 -0.01271000 0.02541800
v -0.00373100 -0.01258000 0.02548000
v 0.00294700 -0.01255500 0.02553600
v 0.01258500 -0.00453700 0.02555300
v 0.01234900 -0.00009700 0.02562100
v 0.01212600 0.00417900 0.02567300
v 0.00992800 0.00654600 0.02568100
v -0.01415000 0.00401100 -0.00791200
v -0.01375000 0.01316000 -0.00588100
v -0.01320000 0.01360000 -0.00240800
v -0.01323800 0.01358400 -0.01451800
v -0.01327300 0.01357000 -0.00998600
v -0.01306700 0.01361100 -0.00583100
v -0.01340700 0.01349100 0.00107300
v -0.01332300 0.01353200 0.00598900
v -0.01325800 0.01354500 0.01352800
v -0.01316500 0.01354700 0.01931700
v -0.01401300 0.01300400 0.02293500
v -0.01372000 0.01296000 0.02480300
v -0.01105500 0.01336400 0.02533200
v -0.00865000 0.01342900 0.02541800
v -0.01273000 0.01348300 0.02400100
v -0.01214100 0.01139900 0.02537800
v 0.01247600 0.01163700 0.01052900
v 0.01127500 0.01355900 0.01504300
v -0.00244600 0.01071200 0.02553100
v 0.01230000 0.00881500 0.02535000
v 0.01234600 0.01256400 0.02419900
v 0.01185000 0.01350600 0.01945700
v 0.01162300 0.01352300 0.02298400
v 0.00441100 0.01056100 0.02562400
v 0.00403500 0.01321800 0.02557500
v 0.00680300 0.01174800 0.02559900
v 0.00747700 0.01341400 0.02541900
v 0.01214400 0.01333200 0.02552300
v -0.00962900 0.01136800 0.02542400
f 133 61 64
f 61 133 63
f 64 61 62
f 106 81 82
f 85 83 121
f 104 133 105
f 97 93 92
f 97 104 105
f 116 117 120
f 85 117 116
f 85 116 84
f 81 106 70
f 105 83 78
f 91 23 92
f 127 133 64
f 64 128 127
f 127 128 133
f 133 128 132
f 105 133 131
f 133 130 131
f 129 83 105
f 105 131 129
f 129 131 130
f 32 97 86
f 28 122 32
f 86 97 95
f 133 104 103
f 103 97 133
f 104 97 103
f 126 63 133
f 126 122 63
f 50 106 82
f 82 84 50
f 82 81 79
f 81 70 79
f 105 78 100
f 92 75 98
f 98 91 92
f 83 129 124
f 120 117 118
f 118 117 85
f 94 95 96
f 96 97 92
f 96 95 97
f 125 126 133
f 122 126 102
f 97 32 102
f 102 32 122
f 126 125 102
f 133 97 102
f 102 125 133
f 28 32 27
f 27 24 28
f 59 122 28
f 20 24 26
f 20 21 24
f 23 21 20
f 42 43 41
f 36 62 61
f 36 37 62
f 46 43 42
f 64 62 46
f 62 37 46
f 39 50 40
f 43 46 40
f 64 46 65
f 128 67 123
f 2 12 5
f 39 40 5
f 91 98 13
f 8 21 23
f 45 70 106
f 45 50 39
f 106 50 45
f 80 84 82
f 82 79 80
f 80 79 78
f 85 84 80
f 80 78 83
f 83 85 80
f 99 78 75
f 99 100 78
f 121 83 134
f 119 129 130
f 119 124 129
f 83 124 119
f 119 134 83
f 121 134 119
f 119 130 133
f 119 85 121
f 119 118 85
f 133 132 119
f 120 118 119
f 119 128 120
f 119 132 128
f 86 95 87
f 87 95 94
f 90 96 89
f 89 96 92
f 92 23 89
f 23 90 89
f 61 63 60
f 63 122 60
f 122 59 60
f 57 59 21
f 28 24 25
f 25 59 28
f 24 21 25
f 22 90 23
f 23 20 22
f 22 20 90
f 30 96 90
f 90 20 30
f 30 20 26
f 116 41 53
f 53 41 43
f 53 84 116
f 43 40 53
f 53 40 50
f 38 36 61
f 37 36 38
f 38 40 37
f 49 46 42
f 48 46 37
f 48 40 46
f 108 49 42
f 107 112 42
f 107 41 116
f 116 112 107
f 64 65 66
f 66 65 67
f 66 128 64
f 66 67 128
f 34 5 6
f 23 91 10
f 2 5 1
f 23 9 1
f 1 8 23
f 1 5 40
f 72 98 75
f 72 13 98
f 11 12 2
f 2 13 11
f 35 45 39
f 34 45 35
f 39 5 35
f 35 5 34
f 69 79 70
f 70 18 69
f 70 45 19
f 19 18 70
f 45 18 19
f 44 45 34
f 44 18 45
f 34 6 44
f 44 6 18
f 100 99 101
f 92 93 101
f 105 100 101
f 101 97 105
f 93 97 101
f 86 87 31
f 58 57 21
f 21 8 58
f 8 1 58
f 58 38 61
f 59 57 58
f 58 1 40
f 40 38 58
f 61 60 58
f 58 60 59
f 51 50 84
f 84 53 51
f 51 53 50
f 37 40 47
f 47 48 37
f 40 48 47
f 42 112 110
f 114 108 113
f 116 114 113
f 113 112 116
f 113 110 112
f 108 110 113
f 46 49 111
f 49 108 111
f 111 65 46
f 115 108 114
f 67 65 115
f 65 111 115
f 115 111 108
f 115 123 67
f 128 123 115
f 120 128 115
f 115 116 120
f 115 114 116
f 42 41 52
f 52 107 42
f 41 107 52
f 7 1 9
f 7 9 23
f 4 13 2
f 2 1 4
f 71 72 75
f 13 72 71
f 75 74 71
f 13 71 17
f 17 71 74
f 75 78 76
f 76 74 75
f 78 12 76
f 76 17 74
f 68 12 78
f 92 101 88
f 88 101 99
f 88 75 92
f 88 99 75
f 26 24 29
f 29 31 26
f 86 31 29
f 29 32 86
f 29 27 32
f 24 27 29
f 33 30 26
f 26 31 33
f 96 30 33
f 94 96 33
f 33 87 94
f 33 31 87
f 21 59 54
f 59 55 54
f 54 25 21
f 54 55 25
f 59 25 56
f 56 55 59
f 25 55 56
f 109 108 42
f 42 110 109
f 109 110 108
f 23 10 3
f 3 7 23
f 13 4 3
f 1 7 3
f 3 4 1
f 91 13 3
f 3 10 91
f 14 17 12
f 13 17 14
f 12 11 14
f 14 11 13
f 12 17 16
f 16 76 12
f 17 76 16
f 73 69 18
f 79 69 73
f 15 73 18
f 68 73 15
f 18 6 15
f 15 6 5
f 15 5 12
f 12 68 15
f 78 79 77
f 79 73 77
f 77 68 78
f 77 73 68

