# https://github.com/mikedh/trimesh
v -0.00060800 -0.04771200 -0.08981800
v 0.00315600 -0.04663600 -0.09111900
v 0.00623200 -0.04798400 -0.08928400
v 0.00108800 -0.04192700 -0.09152400
v 0.01332100 -0.04503700 -0.09080700
v 0.01698200 -0.02484700 -0.09161400
v -0.01477600 -0.04707200 -0.07152300
v -0.01672800 -0.04512600 -0.09106400
v -0.01537000 -0.04701600 -0.08654500
v -0.01482100 -0.04322200 -0.09178300
v -0.01770100 -0.03806900 -0.09083200
v -0.01228100 -0.03491200 -0.09220000
v -0.01460200 -0.02542000 -0.09186500
v -0.01613600 -0.03318900 -0.09147100
v -0.01682100 -0.02229600 -0.09111400
v -0.01079000 -0.02023000 -0.09234600
v -0.01901500 -0.01785100 -0.07956000
v -0.01845000 -0.02901500 -0.08408500
v -0.01107800 -0.04720800 -0.09041700
v -0.01668400 -0.04619300 -0.08457600
v -0.00727900 -0.04550000 -0.09165900
v -0.01050100 -0.04745900 -0.07905000
v -0.00079700 -0.04812400 -0.08341300
v 0.01237600 -0.04841800 -0.08724100
v 0.00182500 -0.02949300 -0.09203700
v -0.01621900 -0.04685000 -0.07597900
v -0.00133400 -0.04791500 -0.06595500
v 0.00006100 -0.04750600 -0.03332200
v -0.01972700 -0.01162600 -0.06687600
v -0.02046700 -0.00631700 -0.04222100
v -0.01972800 -0.02089900 -0.06213600
v -0.01954300 -0.04539100 -0.00834500
v -0.02060600 -0.02000900 -0.03546800
v -0.02080900 -0.00352400 -0.02120600
v 0.01823800 -0.04780800 -0.09029400
v 0.01867800 -0.04819900 -0.08350300
v 0.02132600 -0.04705800 -0.08969900
v 0.02003300 -0.04066500 -0.09072800
v 0.01772900 -0.04808100 -0.07323100
v 0.02123400 -0.04671600 -0.08612200
v 0.01885400 -0.04773400 -0.06612700
v 0.02323100 -0.02639300 -0.05912200
v 0.00642200 -0.04796400 -0.05078900
v 0.02227700 -0.03172400 -0.05082600
v 0.02011900 -0.03908400 -0.02898700
v 0.02160500 -0.03061800 -0.02962500
v 0.02311500 -0.02181000 -0.03827100
v 0.02105900 -0.02733700 -0.01036100
v 0.02289500 -0.01363900 -0.01952700
v 0.02127300 -0.00797500 0.00969800
v -0.01627500 -0.01584800 -0.09133800
v -0.01414800 -0.00933000 -0.09185400
v -0.01380000 0.00056400 -0.09176400
v -0.00989900 -0.00147000 -0.09226400
v -0.01805700 -0.01272200 -0.08584400
v -0.01868200 -0.00142400 -0.07985800
v -0.01751600 0.00915000 -0.08656800
v -0.01831500 0.01064000 -0.07987800
v 0.00112300 -0.01551800 -0.09230200
v 0.01321500 -0.01194700 -0.09217200
v 0.00181400 0.00504000 -0.09223500
v 0.02048600 -0.01203600 -0.09141100
v 0.02224600 -0.00253500 -0.09115500
v -0.01632600 0.01458500 -0.09030000
v -0.01695800 0.02032100 -0.08720800
v -0.01594200 0.02523200 -0.08914400
v -0.01414600 0.02433700 -0.09124100
v -0.01218400 0.02971000 -0.09131200
v -0.01118600 0.01615700 -0.09180100
v -0.00578800 0.02273100 -0.09185200
v -0.00826300 0.03366600 -0.09137100
v -0.01426300 0.03484900 -0.09058800
v 0.00213900 0.03682400 -0.09148900
v -0.00251200 0.04083700 -0.09117100
v 0.01319500 0.00703500 -0.09218900
v 0.01996200 0.02056300 -0.09174800
v 0.01976800 0.00157700 -0.09179600
v 0.02257100 0.00611500 -0.09127300
v 0.02307100 0.01455800 -0.09130800
v 0.00891800 0.01978200 -0.09205600
v 0.02509900 0.00506900 -0.07675600
v 0.02544200 0.01119300 -0.06777900
v 0.02318600 0.03373200 -0.09145300
v 0.02436900 0.01794000 -0.09028700
v 0.02375800 0.02543000 -0.09132500
v 0.02501500 0.02727700 -0.09002900
v 0.02494700 0.01608200 -0.08612800
v 0.02544500 0.02655800 -0.08076400
v 0.00854900 0.04253800 -0.08934300
v 0.00827800 0.04316800 -0.08712000
v 0.01392600 0.03658300 -0.09159100
v 0.00895000 0.04099900 -0.09112700
v 0.01950800 0.04033300 -0.09113300
v 0.02020600 0.04166500 -0.08885700
v 0.02195600 0.04131300 -0.08463400
v 0.02471600 0.03833300 -0.09108100
v 0.02540900 0.03460900 -0.08967400
v 0.02462700 0.04004700 -0.08866500
v -0.01951500 0.00027300 -0.06602000
v -0.01807300 0.01607100 -0.07697400
v -0.01917000 0.01090200 -0.05773000
v -0.01752200 0.02373100 -0.06404300
v -0.01569400 0.03016900 -0.08594900
v -0.01426200 0.03650400 -0.08791600
v -0.01131400 0.04177900 -0.09020000
v -0.01123300 0.04244100 -0.08555400
v -0.00668800 0.04355100 -0.08971100
v -0.01269100 0.04109300 -0.07964000
v -0.00363900 0.04361900 -0.08663000
v -0.01390500 0.04039200 -0.06918500
v 0.02513700 0.02138400 -0.06095500
v 0.02406700 0.03295300 -0.05413200
v 0.02276200 0.04123500 -0.06482200
v 0.02385400 0.03944800 -0.06434800
v 0.02342400 0.03900800 -0.05194900
v 0.02258600 0.04113000 -0.04805700
v -0.01997700 0.00839800 -0.03245100
v -0.01552700 0.04010300 -0.04235900
v 0.02293600 0.03957700 -0.04154900
v 0.02341800 0.04093400 -0.07386800
v 0.02336900 -0.01884200 -0.08342400
v 0.02332600 -0.02770100 -0.07671600
v 0.02421300 -0.01603700 -0.07438500
v 0.02467400 -0.01037900 -0.06477900
v 0.02401200 -0.01897800 -0.06028800
v 0.02536100 0.00687100 -0.05360000
v 0.02421600 0.01067400 -0.03125300
v 0.02433000 0.00077400 -0.03498000
v 0.02418500 -0.00824600 -0.03975700
v 0.02364100 0.00411300 -0.02035300
v 0.02389800 0.02015200 -0.03038700
v 0.02117400 0.04193800 -0.02460900
v -0.02059700 -0.04415100 0.00659400
v -0.02137800 -0.04473900 0.07044800
v -0.01591800 -0.04521500 0.07405900
v -0.01976400 -0.04536400 0.04030600
v 0.01704100 -0.04485400 0.01624400
v 0.01547800 -0.04508800 0.04737100
v 0.01649300 -0.04326800 0.03330100
v 0.02091300 -0.02061300 0.00426000
v -0.02064400 -0.04515800 0.04941500
v -0.02107200 -0.04499200 0.05569300
v -0.01749400 -0.04548500 0.05971100
v 0.01484300 -0.04396800 0.06526900
v 0.01366500 -0.04587000 0.06902200
v -0.02279800 -0.04415700 0.07560100
v -0.02080400 -0.04469900 0.07826800
v -0.00248800 -0.04588300 0.07275000
v -0.00843600 -0.04532300 0.08006300
v -0.02364300 -0.04289500 0.08113800
v -0.02029600 -0.04242400 0.08252100
v -0.01791400 -0.04416900 0.08201600
v -0.00540000 -0.04418600 0.08250300
v -0.02306700 -0.03548700 0.08166800
v -0.02325200 -0.02611700 0.08048900
v -0.01126000 -0.04357000 0.08261700
v -0.02071800 -0.03044800 0.08239100
v -0.02139900 -0.02034000 0.08204000
v -0.01018100 -0.00741400 0.08304700
v -0.01513000 -0.02119000 0.08286900
v 0.00062600 -0.04572500 0.08040500
v 0.00814400 -0.04609400 0.07837300
v 0.00613500 -0.04462900 0.08230000
v 0.01102800 -0.04104600 0.08235400
v 0.00911000 -0.03570500 0.08329300
v 0.01302100 -0.04515700 0.07769200
v 0.01492500 -0.03853900 0.08026700
v -0.00383400 -0.02421700 0.08315400
v 0.00949400 -0.02034900 0.08352800
v 0.01437200 -0.03330000 0.08272100
v 0.01554500 -0.03004700 0.08191700
v 0.01474400 -0.02126500 0.08327800
v -0.01920300 -0.00564700 0.08230900
v -0.02128600 0.00304900 0.08151900
v -0.01682900 0.00886500 0.08241800
v -0.02057600 0.02502300 0.08124000
v -0.01727300 0.02314900 0.08202100
v 0.00488900 0.02179800 0.08316400
v 0.01533200 -0.00814900 0.08302200
v 0.01648300 -0.00315200 0.08189900
v 0.01222300 -0.00155400 0.08323000
v 0.00493600 0.00199600 0.08345500
v 0.01593100 0.00143700 0.08270100
v 0.01716600 0.00616200 0.08118100
v 0.01690300 0.01069000 0.08184100
v -0.02218100 0.01550700 0.07961400
v -0.01543000 0.04174900 -0.03103100
v -0.01606400 0.04215600 -0.01517200
v -0.01697800 0.04187200 -0.00131700
v -0.01807100 0.04201100 0.02312600
v -0.01835800 0.04345300 0.04093000
v -0.01748300 0.04452200 0.04807100
v -0.01888100 0.04442800 0.06437100
v -0.01547500 0.04553100 0.06190300
v -0.01716800 0.04532000 0.06906600
v -0.02146500 0.03307800 0.07976400
v -0.01939100 0.04433000 0.07208500
v -0.02102600 0.03763800 0.08070600
v -0.01823200 0.04027600 0.08147300
v -0.02018200 0.04396600 0.07942200
v 0.02004000 0.04213400 0.00784700
v 0.01933400 0.04250500 0.01989600
v 0.02015800 0.04124300 0.02039700
v 0.01896400 0.04261400 0.02851300
v 0.01886500 0.04251900 0.03517900
v 0.01880900 0.04170700 0.04793600
v 0.01697000 0.04340500 0.06744800
v 0.01055000 0.03420400 0.08289600
v 0.01707800 0.04306500 0.07463200
v 0.00474600 0.04473200 0.07837700
v 0.01241800 0.04428700 0.07784700
v 0.00861100 0.04380000 0.08098700
v 0.01443500 0.04261300 0.08222200
v 0.01807500 0.02948500 0.08080600
v 0.01698300 0.04275400 0.07830400
v 0.01571100 0.03273600 0.08207000
v 0.01783600 0.03847800 0.08069100
v 0.01852800 0.04167300 0.05500300
v -0.00911700 0.04502400 0.07916700
v -0.01541100 0.04413100 0.08157800
v -0.01842800 0.04486800 0.07798500
v 0.00770200 0.04286800 0.08278000
f 10 21 8
f 21 10 12
f 199 220 200
f 176 173 199
f 88 126 82
f 8 21 19
f 29 17 31
f 31 17 18
f 177 220 199
f 221 200 220
f 215 211 213
f 199 200 198
f 198 176 199
f 150 198 186
f 146 147 150
f 134 141 143
f 143 147 134
f 147 146 134
f 214 130 127
f 127 130 126
f 126 131 127
f 129 126 128
f 126 130 128
f 129 128 49
f 49 128 130
f 37 87 121
f 123 121 87
f 37 121 123
f 144 167 166
f 163 162 166
f 13 12 10
f 10 14 13
f 13 14 51
f 16 12 13
f 2 19 21
f 35 19 2
f 135 147 143
f 21 12 25
f 12 60 25
f 59 12 16
f 59 60 12
f 51 14 11
f 11 8 150
f 11 18 17
f 11 10 8
f 11 14 10
f 150 31 11
f 31 18 11
f 219 221 220
f 215 213 217
f 217 218 215
f 214 127 217
f 217 127 131
f 217 131 112
f 176 198 174
f 100 198 200
f 150 186 155
f 196 186 198
f 198 100 196
f 150 8 133
f 180 183 172
f 180 184 214
f 167 144 46
f 184 180 171
f 171 180 172
f 50 49 130
f 50 130 214
f 214 184 50
f 184 171 50
f 50 171 49
f 124 82 126
f 124 126 129
f 81 123 87
f 82 124 81
f 81 124 123
f 122 42 37
f 37 123 122
f 123 124 122
f 145 144 166
f 138 144 145
f 166 162 145
f 37 138 145
f 150 147 152
f 160 169 159
f 199 173 175
f 175 177 199
f 173 157 175
f 175 157 160
f 160 159 175
f 175 159 178
f 220 177 175
f 8 19 9
f 19 23 9
f 142 26 141
f 146 26 142
f 141 134 142
f 142 134 146
f 143 141 136
f 148 135 143
f 147 135 149
f 149 152 147
f 135 148 149
f 21 25 4
f 79 63 78
f 63 62 78
f 92 91 74
f 74 107 92
f 60 59 75
f 51 11 15
f 51 15 64
f 64 15 11
f 11 57 64
f 112 131 111
f 111 126 88
f 111 131 126
f 105 107 74
f 106 107 105
f 200 221 197
f 197 193 200
f 106 187 188
f 188 193 106
f 106 193 192
f 195 219 194
f 221 219 195
f 106 192 195
f 195 192 193
f 195 197 221
f 193 197 195
f 194 107 195
f 195 107 106
f 212 213 211
f 212 219 220
f 179 208 172
f 213 208 179
f 172 183 179
f 179 183 213
f 216 217 213
f 213 183 216
f 214 217 216
f 216 183 214
f 200 103 102
f 102 100 200
f 103 100 102
f 58 100 65
f 65 100 103
f 65 57 58
f 65 64 57
f 30 99 29
f 101 196 100
f 58 99 101
f 101 100 58
f 214 183 185
f 185 180 214
f 183 180 185
f 167 46 48
f 129 49 47
f 49 48 47
f 47 48 46
f 37 42 44
f 44 46 37
f 42 47 44
f 44 47 46
f 137 144 138
f 137 138 37
f 170 171 172
f 167 171 170
f 154 198 150
f 154 174 198
f 158 157 173
f 173 176 158
f 176 174 158
f 174 154 158
f 158 154 157
f 172 208 181
f 181 169 172
f 160 157 151
f 150 152 151
f 151 154 150
f 157 154 151
f 178 159 182
f 182 159 169
f 182 208 178
f 182 181 208
f 169 181 182
f 8 9 20
f 20 9 26
f 20 133 8
f 150 133 20
f 26 9 7
f 143 136 7
f 141 26 7
f 7 136 141
f 162 148 43
f 43 24 162
f 23 24 43
f 161 148 162
f 161 149 148
f 162 163 161
f 152 149 161
f 35 24 3
f 1 23 19
f 1 24 23
f 1 3 24
f 1 19 35
f 35 3 1
f 162 24 39
f 6 4 25
f 6 25 60
f 85 84 37
f 37 63 85
f 85 63 79
f 77 6 60
f 62 6 77
f 60 75 77
f 83 85 77
f 77 85 79
f 79 78 77
f 77 78 62
f 93 83 91
f 91 92 93
f 93 92 107
f 61 59 16
f 61 75 59
f 71 70 68
f 71 105 74
f 68 72 71
f 72 105 71
f 74 91 73
f 91 70 73
f 73 71 74
f 70 71 73
f 58 57 56
f 56 99 58
f 17 29 56
f 29 99 56
f 55 11 17
f 55 57 11
f 17 56 55
f 55 56 57
f 51 64 67
f 67 64 72
f 67 72 68
f 203 217 112
f 112 119 203
f 218 217 203
f 203 206 218
f 203 114 98
f 119 114 203
f 189 118 200
f 187 118 189
f 200 188 189
f 189 188 187
f 200 118 190
f 104 105 72
f 104 72 103
f 104 190 118
f 104 103 200
f 200 190 104
f 110 118 187
f 110 104 118
f 210 90 194
f 211 90 210
f 194 219 210
f 210 212 211
f 219 212 210
f 109 107 194
f 194 90 109
f 109 90 107
f 200 193 191
f 191 188 200
f 193 188 191
f 116 203 98
f 205 203 116
f 132 207 202
f 215 218 209
f 218 206 209
f 209 205 207
f 206 203 209
f 209 203 205
f 209 211 215
f 209 207 211
f 222 212 220
f 213 212 222
f 222 208 213
f 178 208 222
f 222 175 178
f 220 175 222
f 72 64 66
f 64 65 66
f 103 72 66
f 66 65 103
f 186 196 34
f 196 30 34
f 34 155 186
f 150 155 34
f 34 30 150
f 150 30 33
f 33 30 29
f 33 31 150
f 33 29 31
f 117 30 196
f 196 101 117
f 99 30 117
f 117 101 99
f 167 48 140
f 140 48 49
f 140 171 167
f 49 171 140
f 125 47 42
f 42 122 125
f 125 122 124
f 125 124 129
f 129 47 125
f 139 46 144
f 144 137 139
f 139 137 46
f 46 137 45
f 167 170 164
f 166 167 164
f 164 163 166
f 168 169 160
f 160 151 168
f 168 151 169
f 156 151 152
f 52 13 51
f 51 67 52
f 52 67 53
f 16 13 52
f 68 70 69
f 69 67 68
f 53 67 69
f 150 20 32
f 32 146 150
f 32 26 146
f 32 20 26
f 22 9 23
f 22 7 9
f 143 7 22
f 23 43 27
f 143 22 27
f 27 22 23
f 37 145 41
f 4 6 38
f 37 35 38
f 38 6 62
f 38 63 37
f 38 62 63
f 84 85 96
f 96 85 83
f 83 93 96
f 76 75 83
f 83 77 76
f 76 77 75
f 94 95 98
f 98 96 94
f 94 96 93
f 94 90 211
f 132 95 94
f 94 207 132
f 211 207 94
f 54 61 16
f 54 69 70
f 53 69 54
f 16 52 54
f 54 52 53
f 80 70 91
f 75 61 80
f 80 54 70
f 61 54 80
f 91 83 80
f 83 75 80
f 115 114 119
f 108 187 106
f 108 110 187
f 106 105 108
f 105 104 108
f 104 110 108
f 98 95 120
f 132 116 120
f 120 116 98
f 201 116 132
f 205 116 201
f 132 202 201
f 201 202 205
f 207 205 204
f 204 202 207
f 205 202 204
f 37 46 40
f 46 45 40
f 40 137 37
f 40 45 137
f 153 156 152
f 153 161 163
f 152 161 153
f 169 151 165
f 151 156 165
f 156 153 165
f 165 153 163
f 163 164 165
f 165 164 170
f 172 169 165
f 165 170 172
f 28 43 148
f 28 27 43
f 28 148 143
f 143 27 28
f 36 41 145
f 36 145 162
f 162 39 36
f 37 41 36
f 36 35 37
f 36 24 35
f 36 39 24
f 4 38 5
f 5 2 21
f 21 4 5
f 35 2 5
f 5 38 35
f 97 81 87
f 97 96 98
f 88 82 97
f 82 81 97
f 97 111 88
f 98 114 97
f 112 111 97
f 114 115 97
f 97 119 112
f 97 115 119
f 89 93 107
f 89 94 93
f 107 90 89
f 90 94 89
f 113 95 132
f 132 120 113
f 113 120 95
f 84 96 86
f 96 97 86
f 37 84 86
f 86 87 37
f 86 97 87

