# https://github.com/mikedh/trimesh
v -0.01264300 -0.02080200 0.01588500
v -0.04035600 -0.02485500 0.00080300
v -0.01220300 -0.02332000 0.01511200
v -0.00216200 -0.02064500 0.01774600
v -0.00530200 -0.01970700 0.01760400
v -0.00363500 -0.02192000 0.01686600
v -0.01027100 -0.02900300 0.00682700
v 0.00679000 -0.01750300 0.01959400
v 0.00229600 0.01691900 0.01905100
v 0.00329800 0.00409600 0.02254100
v -0.00797500 -0.02664400 0.01196600
v 0.04701500 -0.00788300 0.00243600
v 0.05010500 -0.00020800 -0.00675900
v -0.02134000 -0.02633500 0.01082200
v 0.00411100 -0.02005800 0.01828200
v -0.03441500 -0.02562700 -0.01127600
v 0.01874400 -0.01274600 0.02078800
v 0.00433500 0.01219000 0.02093600
v -0.01868800 -0.02933700 0.00738400
v -0.03205300 -0.02316400 -0.01438700
v 0.01486500 -0.02621100 0.01009300
v 0.01164800 -0.01900900 0.01865900
v -0.04764700 -0.01745200 -0.00464500
v 0.02123000 -0.00469500 -0.01925200
v 0.00544400 -0.02561500 0.01287100
v 0.02146100 -0.02665000 0.00692200
v -0.04561800 -0.01908100 -0.00652900
v -0.02074900 -0.03071300 0.00331100
v -0.04319900 -0.00485000 0.00628400
v 0.04668900 0.00072500 0.00449300
v 0.01947800 -0.02018100 0.01609800
v 0.03487600 -0.02591100 0.00015900
v 0.03685400 -0.02515800 -0.00219500
v 0.03405300 -0.01340200 0.01454500
v 0.02757400 -0.02698400 0.00207500
v 0.04919400 0.00489400 -0.00849100
v 0.03813800 -0.02181900 -0.01068900
v 0.04231000 -0.02191200 -0.00300200
v 0.03726300 -0.01514400 0.01143300
v 0.00796000 -0.02616900 0.01149000
v 0.04744000 -0.01394900 -0.00292800
v 0.04766300 -0.01322300 -0.00721000
v -0.02186000 -0.02373400 0.01258900
v 0.03801400 -0.00728000 0.01421700
v -0.03462900 -0.00196700 0.01451600
v 0.01603600 -0.02451100 0.01301800
v 0.04530200 -0.01795000 -0.00237600
v 0.04501200 -0.01358100 0.00323300
v 0.04806400 -0.01328400 -0.00523000
v 0.04459200 -0.01873200 -0.00539600
v -0.03674900 -0.02801400 -0.00267100
v -0.03250900 -0.03006600 0.00005400
v -0.02530600 -0.02777600 -0.01112200
v -0.03778500 -0.02779500 -0.00124900
v 0.04957300 -0.00158900 -0.00244400
v 0.03082100 -0.00702000 0.01839500
v 0.02958600 -0.02439800 0.00787100
v -0.02936600 -0.02747600 0.00702500
v 0.04954300 -0.00669700 -0.00408700
v 0.04153000 -0.01309900 0.00847900
v 0.04928700 -0.00840100 -0.00602200
v 0.04946500 -0.00568300 -0.00824900
v -0.03613100 -0.02505500 0.00514600
v 0.03738600 -0.02366300 0.00267900
v -0.02109600 -0.01946200 -0.01757200
v 0.00233500 -0.01521400 -0.01915600
v -0.01507000 -0.02682700 -0.01268500
v 0.04947700 0.00671400 -0.00369400
v 0.04941600 0.00735800 -0.00549200
v -0.02674200 -0.03089500 0.00147900
v -0.04721700 -0.00744300 0.00197400
v -0.04837200 -0.01510200 -0.00638100
v 0.02569700 0.01217500 0.01853000
v 0.02404700 0.01672000 0.01708800
v 0.03187000 -0.02565200 -0.00500900
v -0.04896700 -0.00828300 -0.00889900
v -0.03663700 -0.02136500 0.00653900
v 0.02939200 0.01639600 0.01549500
v -0.00636700 -0.02643200 -0.01252800
v -0.04055500 -0.02202800 0.00354000
v -0.00557400 -0.01855100 -0.01812300
v -0.03955600 -0.02257500 -0.00948500
v -0.04684000 -0.01545300 -0.00022200
v 0.02564300 -0.01242000 0.01904000
v -0.04213900 -0.01916600 -0.01035500
v -0.04520800 -0.01996500 -0.00115400
v 0.04208300 0.01706700 0.00514000
v -0.04884400 -0.00742500 -0.00034600
v 0.02927300 -0.01974400 0.01310500
v 0.00472400 -0.01940600 -0.01730800
v -0.00518200 0.01672300 -0.01746300
v -0.04388800 0.00176100 0.00611400
v -0.03098800 -0.02377300 0.00902100
v 0.03093600 -0.00203400 0.01928000
v -0.04186900 -0.00116200 -0.01503200
v -0.02781900 -0.02667700 -0.01259900
v 0.04150400 -0.01949800 0.00332600
v -0.04178200 -0.01264100 -0.01363700
v -0.04647800 0.00614800 -0.01199300
v -0.03755100 0.00397800 -0.01627500
v 0.01419700 -0.01535700 -0.01862000
v -0.03927400 0.01211200 -0.01422100
v -0.02829500 -0.00291900 -0.01884500
v 0.03866700 0.02040400 0.00589200
v 0.01337900 0.02078000 0.01654600
v -0.02579100 -0.02443400 -0.01476700
v -0.00008300 -0.00731700 0.02149400
v -0.04460500 0.02134600 -0.00337000
v 0.00716900 -0.02381300 0.01495600
v 0.04632900 0.01692200 -0.00677300
v 0.02955500 0.00259400 0.01979200
v -0.04593800 0.01706100 -0.00822100
v -0.04208100 -0.02469900 -0.00276300
v 0.00497200 -0.01440900 0.02023100
v 0.03721000 0.00175100 0.01550100
v -0.04099900 0.02412300 -0.00051800
v 0.03195700 0.00789200 0.01760600
v -0.01687400 -0.02254300 0.01453800
v -0.00504700 0.02543900 -0.01433400
v 0.03961700 0.00965200 0.01202200
v -0.04014100 0.02576500 -0.00246500
v 0.04670500 -0.01139000 -0.00985200
v -0.04989500 0.00997500 -0.00729700
v -0.04962800 0.01061500 -0.00326500
v -0.02549500 0.00471700 -0.01856000
v -0.03393700 0.02322800 -0.01023500
v 0.04806700 0.00867500 -0.00024500
v -0.03938400 0.02607800 -0.00414800
v -0.03758200 0.02695900 -0.00084500
v 0.01416000 0.00477700 -0.01858200
v -0.02075600 0.01149200 -0.01777900
v 0.03712600 0.01428400 0.01216300
v 0.04313300 0.02009300 -0.00940700
v -0.05086000 -0.00177300 -0.00491500
v -0.03480100 0.02653300 0.00297400
v -0.04426600 0.02027500 -0.00028100
v 0.00633000 0.01580300 0.01933300
v -0.01481100 -0.00148500 -0.01990600
v -0.01036800 0.02125000 0.01543200
v 0.03233200 0.01267200 -0.01554400
v 0.04644200 0.01254900 -0.01027500
v -0.04470400 0.01251400 0.00334400
v -0.00275100 0.01539200 0.01884500
v -0.04377800 0.02109200 -0.00643000
v 0.01886100 -0.01987900 -0.01631600
v -0.01800400 -0.01086400 -0.01945000
v -0.04118200 0.02103700 0.00313200
v 0.00006100 -0.00817300 -0.01999200
v 0.02438300 -0.02272300 -0.01378300
v -0.05087800 0.00455600 -0.00546700
v 0.00055000 0.00068700 -0.01977200
v -0.03693900 0.02401900 0.00455600
v -0.05043600 -0.00868400 -0.00554100
v 0.04322800 -0.00587100 0.00897300
v -0.02887700 0.02884100 0.00382300
v -0.03190900 0.02466600 0.00759200
v 0.03655300 -0.00314100 -0.01683000
v -0.00653000 0.02269900 0.01516100
v 0.03118600 -0.02103300 -0.01413400
v -0.03344500 0.02862900 -0.00309700
v -0.05098200 0.00101300 -0.00682800
v 0.04165600 0.00221200 0.01151300
v -0.04802300 -0.00086600 -0.01117500
v 0.02400900 -0.01702100 -0.01727900
v -0.03756800 0.02181900 -0.00982500
v -0.02793100 0.03004500 0.00025900
v -0.02813200 0.02497000 0.00892200
v 0.02000900 0.02774100 0.00724700
v -0.01913700 0.02904000 0.00695300
v 0.02938200 -0.02362400 -0.01222800
v 0.03375700 -0.01711200 -0.01526000
v -0.02875800 0.02930900 -0.00407300
v -0.04547100 0.01625300 0.00118600
v 0.01177800 0.02822200 0.00709500
v 0.02797900 0.02950000 -0.00051600
v 0.04235200 -0.01216300 -0.01296400
v 0.01956500 -0.01450700 0.02000200
v 0.02340700 0.02107600 0.01451700
v -0.02129500 0.02486500 0.01141800
v -0.02503800 0.03070000 -0.00226300
v 0.02139500 0.02547700 0.01075000
v 0.04815400 0.01271100 -0.00594300
v -0.02268800 0.03084500 0.00072000
v -0.03714900 0.02154300 0.00629100
v 0.03334100 0.02101700 0.00966300
v 0.02701900 -0.01104000 -0.01821800
v -0.04640100 0.01188700 -0.01046200
v 0.02915700 0.02715600 -0.00703800
v 0.02653600 0.02939700 -0.00228200
v 0.04433000 -0.00386600 -0.01344400
v 0.03827900 -0.01834600 0.00819400
v 0.03294300 0.02862600 -0.00231100
v -0.04492300 -0.01406200 0.00247200
v 0.04640400 0.01618100 -0.00269200
v -0.01282500 0.02748800 0.01016300
v -0.04893200 0.00300300 0.00051200
v 0.03560700 0.02750600 -0.00547700
v -0.02969000 0.00093600 0.01711200
v 0.03652600 0.02731300 -0.00348100
v 0.03487100 0.01890600 -0.01295400
v 0.03902500 -0.01896100 -0.01229300
v 0.03568700 0.02382300 -0.01008200
v 0.03524700 0.02744400 -0.00178100
v -0.02877300 -0.00202300 0.01697100
v -0.00879600 0.02907900 0.00592500
v 0.04276900 0.02082900 -0.00109000
v 0.03699900 0.02587300 -0.00789900
v -0.03520300 -0.00022500 0.01438500
v -0.02887500 0.02159200 0.01035000
v 0.04085000 0.02379300 -0.00831600
v 0.04317400 -0.01792400 -0.00951800
v 0.04087900 0.02429400 -0.00619300
v 0.03960300 0.02508500 -0.00723400
v -0.00570400 0.02629900 0.01162600
v 0.04548400 0.00974800 0.00467700
v 0.03954600 0.02039400 -0.01127900
v -0.02017800 0.02087600 0.01334900
v 0.04224600 0.01075100 -0.01359400
v -0.04941600 0.01241600 -0.00580200
v 0.00828600 0.02513400 0.01315400
v 0.04463400 0.02005800 -0.00697500
v 0.00443700 0.02021400 0.01736300
v -0.04798900 0.01626400 -0.00433800
v 0.04834500 0.00035900 -0.01051300
v -0.04759400 0.01700600 -0.00551000
v -0.03583300 -0.02230400 -0.01342200
v -0.04624800 0.01919000 -0.00400000
v -0.00732900 0.00132100 0.02144000
v 0.01194200 0.02716400 0.01007800
v -0.03356700 -0.01300400 -0.01714300
v -0.02856500 -0.01667700 -0.01746400
v 0.02953500 0.02658500 0.00510500
v 0.03738200 0.02316600 0.00383600
v -0.01480100 -0.02767700 -0.01065300
v -0.01613000 -0.02404800 -0.01536700
v -0.00535000 -0.02370600 -0.01550000
f 19 58 70
f 142 184 147
f 85 98 226
f 85 72 98
f 98 72 76
f 180 175 189
f 189 119 180
f 192 175 232
f 197 189 192
f 192 189 175
f 163 76 161
f 95 98 163
f 98 76 163
f 200 119 202
f 161 76 153
f 153 76 72
f 107 204 1
f 228 107 10
f 228 204 107
f 28 19 70
f 70 53 234
f 234 53 67
f 183 175 180
f 169 155 167
f 169 183 155
f 195 229 169
f 220 229 195
f 232 175 168
f 108 128 144
f 144 128 165
f 160 128 129
f 184 142 208
f 142 92 208
f 129 128 121
f 121 116 129
f 121 128 108
f 108 116 121
f 147 184 152
f 152 116 147
f 129 116 152
f 200 202 216
f 52 53 70
f 70 58 52
f 52 63 54
f 58 63 52
f 146 65 231
f 231 103 146
f 146 103 138
f 66 65 146
f 67 53 96
f 53 52 96
f 52 16 96
f 75 170 37
f 70 234 75
f 61 42 62
f 61 62 13
f 49 41 47
f 47 50 49
f 49 50 42
f 42 61 49
f 66 146 148
f 148 146 138
f 62 42 122
f 190 122 176
f 72 85 27
f 188 189 197
f 119 189 188
f 95 163 99
f 187 102 99
f 187 99 123
f 123 163 161
f 123 99 163
f 95 103 230
f 230 103 231
f 230 98 95
f 226 98 230
f 100 103 95
f 95 99 100
f 100 99 102
f 138 103 125
f 103 100 125
f 125 100 102
f 133 216 210
f 210 216 202
f 86 113 2
f 2 113 54
f 54 63 2
f 80 83 86
f 86 2 80
f 80 2 63
f 58 19 14
f 14 43 58
f 3 43 14
f 118 1 204
f 204 43 118
f 118 43 3
f 93 63 58
f 58 43 93
f 93 204 45
f 93 43 204
f 204 228 198
f 45 204 198
f 198 208 45
f 198 209 184
f 184 208 198
f 156 209 167
f 184 209 156
f 156 152 184
f 167 155 156
f 31 46 89
f 22 46 31
f 89 177 31
f 31 177 22
f 11 6 3
f 3 14 11
f 11 14 19
f 89 34 84
f 84 177 89
f 19 28 7
f 26 46 21
f 21 7 26
f 26 7 28
f 79 234 67
f 67 236 79
f 170 75 79
f 79 75 234
f 81 65 66
f 201 171 176
f 18 228 10
f 167 209 179
f 179 169 167
f 195 169 179
f 166 183 180
f 155 183 166
f 180 160 166
f 129 155 166
f 166 160 129
f 105 220 222
f 229 220 181
f 181 168 229
f 105 178 181
f 181 220 105
f 232 168 181
f 181 185 232
f 178 185 181
f 175 183 174
f 174 168 175
f 174 169 229
f 229 168 174
f 219 124 223
f 112 144 165
f 165 102 112
f 112 102 187
f 187 123 112
f 165 128 126
f 128 160 126
f 126 102 165
f 29 92 71
f 29 208 92
f 45 208 29
f 161 153 134
f 196 92 142
f 71 92 196
f 135 155 129
f 129 152 135
f 135 156 155
f 152 156 135
f 215 194 87
f 54 113 51
f 113 16 51
f 51 52 54
f 51 16 52
f 211 50 37
f 42 50 211
f 37 201 211
f 211 122 42
f 176 122 211
f 211 201 176
f 38 50 47
f 47 97 38
f 37 50 38
f 35 28 70
f 70 75 35
f 35 75 32
f 35 26 28
f 89 46 57
f 46 26 57
f 57 35 32
f 26 35 57
f 13 55 59
f 59 61 13
f 41 49 59
f 59 49 61
f 151 130 24
f 151 148 138
f 24 148 151
f 151 138 91
f 91 130 151
f 13 62 224
f 224 36 13
f 62 122 224
f 122 190 224
f 176 171 157
f 157 190 176
f 157 171 186
f 186 24 157
f 72 27 23
f 23 27 113
f 23 113 86
f 86 83 23
f 23 153 72
f 83 153 23
f 82 16 113
f 113 27 82
f 82 27 85
f 82 85 226
f 226 16 82
f 207 202 119
f 119 188 207
f 207 188 197
f 207 210 202
f 150 124 219
f 219 123 150
f 150 123 161
f 161 134 150
f 150 196 124
f 134 196 150
f 91 138 131
f 138 125 131
f 131 125 102
f 131 119 91
f 102 126 131
f 131 126 119
f 133 210 221
f 77 80 63
f 63 93 77
f 45 80 77
f 77 93 45
f 22 8 15
f 107 1 5
f 5 118 3
f 1 118 5
f 21 46 40
f 40 7 21
f 19 7 40
f 37 170 159
f 159 201 37
f 171 201 159
f 236 81 90
f 90 145 236
f 101 24 186
f 145 90 101
f 66 148 101
f 101 148 24
f 101 81 66
f 101 90 81
f 9 18 137
f 105 222 137
f 137 222 9
f 209 198 217
f 217 179 209
f 214 220 195
f 179 217 139
f 139 217 198
f 183 169 205
f 205 174 183
f 169 174 205
f 108 144 227
f 173 223 124
f 173 196 142
f 124 196 173
f 173 142 147
f 225 123 219
f 225 112 123
f 219 223 225
f 223 227 225
f 144 112 225
f 225 227 144
f 119 126 172
f 172 126 160
f 180 119 172
f 172 160 180
f 193 29 71
f 71 83 193
f 83 80 193
f 193 80 45
f 45 29 193
f 88 134 153
f 88 196 134
f 71 196 88
f 88 83 71
f 88 153 83
f 13 36 69
f 36 182 69
f 104 185 132
f 132 87 104
f 235 106 65
f 65 81 235
f 235 81 236
f 235 236 67
f 67 96 235
f 96 106 235
f 20 106 96
f 20 16 226
f 20 96 16
f 226 230 20
f 20 230 231
f 231 65 20
f 65 106 20
f 32 38 64
f 64 38 97
f 64 57 32
f 37 38 33
f 33 38 32
f 33 75 37
f 32 75 33
f 191 64 97
f 89 57 191
f 57 64 191
f 60 191 97
f 48 60 97
f 47 41 48
f 48 97 47
f 55 30 12
f 12 59 55
f 41 59 12
f 12 48 41
f 36 224 141
f 141 182 36
f 133 221 141
f 140 130 91
f 24 130 140
f 140 157 24
f 140 119 200
f 91 119 140
f 56 84 34
f 56 94 84
f 177 84 17
f 84 94 17
f 17 8 22
f 22 177 17
f 10 107 17
f 194 221 206
f 104 87 206
f 206 87 194
f 4 15 8
f 6 15 4
f 107 5 4
f 3 6 4
f 4 5 3
f 109 15 6
f 6 11 109
f 109 46 22
f 22 15 109
f 149 159 170
f 145 159 149
f 236 145 149
f 170 79 149
f 149 79 236
f 171 159 164
f 164 159 145
f 145 101 164
f 186 171 164
f 164 101 186
f 9 222 158
f 158 139 9
f 158 214 195
f 195 179 158
f 179 139 158
f 158 222 220
f 220 214 158
f 143 139 198
f 143 198 228
f 228 18 143
f 143 18 9
f 9 139 143
f 136 227 223
f 223 173 136
f 108 227 136
f 136 173 147
f 136 116 108
f 147 116 136
f 68 55 13
f 13 69 68
f 68 182 194
f 68 69 182
f 78 185 178
f 78 132 185
f 215 87 120
f 87 132 120
f 191 60 39
f 39 34 89
f 89 191 39
f 182 141 110
f 110 141 221
f 194 182 110
f 110 221 194
f 218 224 190
f 218 141 224
f 190 157 218
f 157 140 218
f 218 216 133
f 133 141 218
f 200 216 218
f 218 140 200
f 104 206 233
f 232 185 233
f 233 185 104
f 203 192 232
f 232 233 203
f 212 221 210
f 212 206 221
f 107 4 114
f 114 4 8
f 114 17 107
f 8 17 114
f 25 109 11
f 25 11 19
f 19 40 25
f 25 40 46
f 46 109 25
f 127 30 55
f 55 68 127
f 215 30 127
f 127 194 215
f 127 68 194
f 132 78 117
f 117 120 132
f 162 30 215
f 215 120 162
f 206 212 199
f 199 233 206
f 199 203 233
f 197 192 199
f 192 203 199
f 213 212 210
f 213 207 197
f 210 207 213
f 197 199 213
f 213 199 212
f 73 117 78
f 73 18 10
f 154 12 30
f 30 162 154
f 60 48 154
f 48 12 154
f 120 117 115
f 115 162 120
f 117 73 111
f 94 115 111
f 111 115 117
f 111 73 10
f 10 17 111
f 111 17 94
f 74 78 178
f 74 73 78
f 74 178 105
f 105 137 74
f 74 137 18
f 18 73 74
f 60 154 44
f 34 39 44
f 44 39 60
f 44 56 34
f 44 154 162
f 162 115 44
f 94 56 44
f 44 115 94

