# https://github.com/mikedh/trimesh
v -0.02410661 0.00485113 -0.03937518
v -0.02914351 0.00485113 -0.03552983
v 0.00585551 0.00485113 -0.03917499
v -0.00367332 -0.00680137 -0.03842983
v -0.01491639 -0.00680137 -0.03675600
v -0.02417539 -0.00680137 -0.02313739
v -0.02412248 -0.00680137 -0.02258408
v -0.02231830 -0.00680137 -0.01097018
v -0.02274686 -0.00112112 -0.01097018
v -0.02315955 0.00485113 -0.01097018
v -0.01976811 -0.00680137 -0.03274382
v -0.02014905 -0.00680137 -0.03235734
v 0.01211988 0.00485113 -0.03906099
v 0.00807767 -0.00680137 -0.03809617
v 0.02238943 -0.00680137 -0.01097018
v 0.02160110 0.00485113 -0.01097018
v 0.02027309 0.00485113 -0.03663922
v 0.01449018 -0.00680137 -0.03721477
v 0.01213046 -0.00680137 -0.03775140
v 0.02484439 -0.00680137 -0.02436079
v 0.02490788 0.00485113 -0.03021918
v 0.02198733 -0.00680137 -0.03427585
v 0.02218309 0.00485113 -0.03457891
v 0.02242647 -0.00680137 -0.03407843
v 0.02471741 -0.00680137 -0.02541736
f 1 2 10
f 1 10 16
f 1 16 21
f 1 21 23
f 1 23 17
f 1 17 13
f 1 13 3
f 1 3 4
f 1 4 5
f 1 5 2
f 2 6 7
f 2 7 8
f 2 8 9
f 2 9 10
f 2 5 11
f 2 11 12
f 2 12 6
f 3 13 4
f 4 13 14
f 4 14 19
f 4 19 18
f 4 18 22
f 4 22 24
f 4 24 25
f 4 25 20
f 4 20 15
f 4 15 8
f 4 8 7
f 4 7 6
f 4 6 12
f 4 12 11
f 4 11 5
f 8 15 16
f 8 16 10
f 8 10 9
f 13 17 18
f 13 18 19
f 13 19 14
f 15 20 16
f 16 20 21
f 17 22 18
f 17 23 24
f 17 24 22
f 20 25 21
f 21 25 24
f 21 24 23

