# https://github.com/mikedh/trimesh
v -0.02618844 -0.01409319 -0.00403865
v -0.02514302 -0.01543033 0.00699464
v -0.02071065 0.00132887 -0.00272647
v -0.02229478 -0.00680634 -0.00403865
v -0.02391625 -0.04056633 -0.00403865
v -0.02360156 -0.04353275 0.00227866
v -0.02336154 -0.04574634 0.00699464
v -0.02550038 -0.01689107 0.00699464
v -0.00443194 -0.00680634 0.01201234
v -0.02378291 -0.01235154 0.00699464
v -0.01931853 0.00132887 -0.00089571
v 0.02038083 0.00132887 -0.00272647
v 0.02186895 -0.00680634 -0.00403865
v -0.02164939 -0.05585917 -0.00403865
v -0.02254013 -0.05047689 0.00228023
v -0.01943587 -0.05251069 0.00699464
v 0.00549423 -0.00680634 0.01201234
v -0.00371721 -0.00587371 0.01201234
v -0.01472614 -0.05262306 0.00699464
v -0.01673164 0.00132887 0.00017918
v 0.01869002 0.00132887 -0.00022312
v 0.02512256 -0.00937387 0.00699464
v 0.02715473 -0.01100316 -0.00403865
v -0.02076398 -0.05606704 -0.00403865
v -0.02156939 -0.05606142 -0.00329534
v -0.00662412 -0.05447146 0.00228023
v 0.02595463 -0.01494155 0.00699464
v 0.00531289 -0.00626137 0.01201234
v -0.00324250 -0.05260621 0.00699464
v 0.00827314 -0.05184775 0.00699464
v 0.01674318 -0.05123535 0.00699464
v 0.02201830 -0.05080837 0.00699464
v 0.02768811 -0.04607781 0.00699464
v 0.02772011 -0.04253271 0.00699464
v 0.00072583 0.00132887 0.00116920
v -0.01408075 0.00132887 0.00080777
v -0.01531819 0.00132887 0.00052176
v -0.01663564 0.00132887 0.00021689
v 0.00518488 -0.00588495 0.01201234
v -0.00482664 -0.05427482 0.00294968
v 0.01752192 0.00132887 0.00111263
v 0.02770411 -0.02355430 -0.00403865
v 0.00156857 -0.05514565 -0.00403865
v -0.00420258 -0.05435910 0.00227866
v 0.02160760 -0.05227473 0.00313983
v 0.02205563 -0.05235339 0.00227866
v 0.02531458 -0.05293206 -0.00403865
v 0.02818949 -0.05085332 -0.00403865
v 0.02790680 -0.04812285 0.00227866
v 0.02797613 -0.04190346 0.00228023
v 0.02797613 -0.04189784 0.00227866
v 0.02010880 -0.05255564 0.00227866
v 0.02830150 -0.04105511 -0.00403865
v 0.00910521 -0.05458383 -0.00403865
f 1 2 3
f 1 3 4
f 1 4 13
f 1 13 23
f 1 23 42
f 1 42 53
f 1 53 48
f 1 48 47
f 1 47 54
f 1 54 43
f 1 43 24
f 1 24 14
f 1 14 5
f 1 5 6
f 1 6 7
f 1 7 8
f 1 8 2
f 2 9 10
f 2 10 3
f 2 8 9
f 3 11 20
f 3 20 38
f 3 38 37
f 3 37 36
f 3 36 35
f 3 35 41
f 3 41 21
f 3 21 12
f 3 12 13
f 3 13 4
f 3 10 11
f 5 14 6
f 6 14 7
f 7 14 15
f 7 15 16
f 7 16 9
f 7 9 8
f 9 17 28
f 9 28 39
f 9 39 18
f 9 18 10
f 9 16 19
f 9 19 17
f 10 18 11
f 11 18 20
f 12 21 22
f 12 22 23
f 12 23 13
f 14 24 25
f 14 25 15
f 15 25 16
f 16 25 26
f 16 26 19
f 17 27 22
f 17 22 28
f 17 19 29
f 17 29 30
f 17 30 31
f 17 31 32
f 17 32 33
f 17 33 34
f 17 34 27
f 18 35 36
f 18 36 37
f 18 37 38
f 18 38 20
f 18 39 35
f 19 26 40
f 19 40 29
f 21 41 22
f 22 27 23
f 22 41 39
f 22 39 28
f 23 27 34
f 23 34 42
f 24 43 25
f 25 43 26
f 26 44 40
f 26 43 44
f 29 40 30
f 30 40 31
f 31 40 45
f 31 45 32
f 32 45 46
f 32 46 47
f 32 47 48
f 32 48 49
f 32 49 33
f 33 49 50
f 33 50 34
f 34 50 51
f 34 51 42
f 35 39 41
f 40 44 52
f 40 52 45
f 42 51 53
f 43 54 52
f 43 52 44
f 45 52 46
f 46 52 47
f 47 52 54
f 48 53 49
f 49 53 50
f 50 53 51

