# https://github.com/mikedh/trimesh
v 0.02296220 -0.00680638 -0.01759196
v -0.00025953 -0.00680638 -0.01759196
v 0.02186955 -0.00680638 -0.00404166
v 0.03023478 -0.01075477 -0.00972111
v 0.02901289 -0.01314986 -0.01759196
v -0.00025953 -0.00681139 -0.01880764
v -0.00025953 -0.00680638 -0.00404166
v -0.02287619 -0.00681139 -0.01880764
v -0.00025953 -0.00681139 -0.00404022
v 0.02715069 -0.01100029 -0.00404166
v 0.03073410 -0.02955973 -0.01000443
v 0.03099846 -0.03154394 -0.01759196
v 0.02770288 -0.02354695 -0.00404166
v 0.02829621 -0.04105415 -0.00404166
v -0.00025953 -0.05762936 -0.01880764
v -0.02237099 -0.00681139 -0.00565342
v -0.02229462 -0.00681139 -0.00404022
v -0.02432131 -0.01503887 -0.01880764
v -0.02901500 -0.01564015 -0.01487583
v -0.00025953 -0.05514909 -0.00404022
v 0.02819046 -0.05084495 -0.00404166
v 0.02942997 -0.05445261 -0.01759196
v 0.01238230 -0.05642681 -0.01759196
v 0.00565017 -0.05700805 -0.01759196
v 0.00233110 -0.05728864 -0.01759196
v 0.00417568 -0.05548982 -0.00687344
v 0.00157330 -0.05513907 -0.00404166
v -0.02076726 -0.05606103 -0.00404022
v -0.01064557 -0.05785985 -0.01880764
v -0.02618351 -0.01409186 -0.00404022
v -0.02527885 -0.02539087 -0.01880764
v -0.02729379 -0.03542218 -0.01346211
v -0.02647724 -0.03876929 -0.01880764
v 0.00910435 -0.05458289 -0.00404166
v 0.02316780 -0.05314985 -0.00404166
v 0.02531198 -0.05292938 -0.00404166
v 0.02846656 -0.05349558 -0.01016922
v -0.01968049 -0.05786486 -0.01797502
v -0.01827062 -0.05799013 -0.01880764
v -0.02164843 -0.05586061 -0.00404022
v -0.02391010 -0.04057313 -0.00404022
v -0.02330503 -0.05492362 -0.01880764
v -0.02016219 -0.05773459 -0.01880764
v -0.01966874 -0.05792499 -0.01880764
f 1 2 7
f 1 7 3
f 1 3 4
f 1 4 5
f 1 5 6
f 1 6 8
f 1 8 2
f 2 8 7
f 3 7 17
f 3 17 9
f 3 9 10
f 3 10 4
f 4 11 12
f 4 12 5
f 4 10 13
f 4 13 14
f 4 14 11
f 5 12 6
f 6 15 29
f 6 29 39
f 6 39 44
f 6 44 43
f 6 43 42
f 6 42 33
f 6 33 31
f 6 31 18
f 6 18 8
f 6 12 15
f 7 8 16
f 7 16 17
f 8 18 19
f 8 19 16
f 9 14 13
f 9 13 10
f 9 17 30
f 9 30 41
f 9 41 40
f 9 40 28
f 9 28 20
f 9 20 14
f 11 14 21
f 11 21 22
f 11 22 12
f 12 22 15
f 14 20 21
f 15 23 24
f 15 24 25
f 15 25 26
f 15 26 27
f 15 27 28
f 15 28 29
f 15 22 23
f 16 19 17
f 17 19 30
f 18 31 19
f 19 32 30
f 19 31 33
f 19 33 32
f 20 28 27
f 20 27 34
f 20 34 35
f 20 35 36
f 20 36 21
f 21 36 37
f 21 37 22
f 22 37 23
f 23 37 36
f 23 36 35
f 23 35 34
f 23 34 26
f 23 26 24
f 24 26 25
f 26 34 27
f 28 38 39
f 28 39 29
f 28 40 38
f 30 32 41
f 32 33 42
f 32 42 40
f 32 40 41
f 38 40 43
f 38 43 44
f 38 44 39
f 40 42 43

