# https://github.com/mikedh/trimesh
v 0.02297943 -0.00680138 -0.03198569
v 0.02874167 -0.01199999 -0.03198569
v 0.03118041 -0.01514292 -0.03596210
v 0.02242362 -0.00680138 -0.03408284
v -0.00026236 -0.00680138 -0.03190605
v 0.03021626 -0.01359346 -0.03198569
v 0.03147533 -0.03463881 -0.03198569
v 0.03148100 -0.02521440 -0.03910672
v 0.03014253 -0.02488426 -0.04320480
v 0.02198692 -0.00680138 -0.03427862
v -0.02032244 -0.00680138 -0.03190605
v -0.00026236 -0.05175768 -0.03190605
v 0.02695515 -0.04027320 -0.03198569
v -0.00026236 -0.00680138 -0.03833467
v 0.00808041 -0.00680138 -0.03809796
v 0.01213553 -0.00680138 -0.03775286
v 0.01449487 -0.00680138 -0.03721862
v 0.01940639 -0.04801169 -0.03198569
v 0.01879387 -0.04834183 -0.03198569
v 0.01358743 -0.04978125 -0.03198569
v 0.00216504 -0.05039751 -0.03305528
v -0.02380474 -0.02847179 -0.04309530
v -0.00367660 -0.00680138 -0.03843090
v -0.02014663 -0.00680138 -0.03236287
v -0.02645900 -0.02318074 -0.04044288
v -0.02425846 -0.01471594 -0.03190605
v 0.00434289 -0.05156840 -0.03198569
v -0.00085787 -0.05176209 -0.03190605
v 0.00090597 -0.05166085 -0.03198569
v -0.00026236 -0.05098295 -0.03256749
v -0.00354616 -0.05177089 -0.03190605
v -0.01488915 -0.04959196 -0.03190605
v -0.01947739 -0.04730299 -0.03190605
v -0.02503546 -0.03686615 -0.03617778
v -0.01491751 -0.00680138 -0.03675959
v -0.01976664 -0.00680138 -0.03274778
v -0.02516023 -0.03976259 -0.03190605
v -0.02501277 -0.01891973 -0.03190605
f 1 2 3
f 1 3 4
f 1 4 10
f 1 10 17
f 1 17 16
f 1 16 15
f 1 15 14
f 1 14 23
f 1 23 35
f 1 35 36
f 1 36 24
f 1 24 11
f 1 11 5
f 1 5 2
f 2 6 3
f 2 5 6
f 3 7 8
f 3 8 9
f 3 9 10
f 3 10 4
f 3 6 7
f 5 7 6
f 5 11 26
f 5 26 38
f 5 38 37
f 5 37 33
f 5 33 32
f 5 32 31
f 5 31 28
f 5 28 12
f 5 12 7
f 7 9 8
f 7 12 13
f 7 13 9
f 9 14 15
f 9 15 16
f 9 16 17
f 9 17 10
f 9 13 18
f 9 18 19
f 9 19 20
f 9 20 21
f 9 21 22
f 9 22 23
f 9 23 14
f 11 24 25
f 11 25 26
f 12 27 20
f 12 20 19
f 12 19 18
f 12 18 13
f 12 28 29
f 12 29 27
f 20 27 21
f 21 27 29
f 21 29 30
f 21 30 22
f 22 30 31
f 22 31 32
f 22 32 33
f 22 33 34
f 22 34 25
f 22 25 35
f 22 35 23
f 24 36 25
f 25 37 38
f 25 38 26
f 25 36 35
f 25 34 37
f 28 31 30
f 28 30 29
f 33 37 34

