# https://github.com/mikedh/trimesh
v 0.00265571 0.00833605 0.04555856
v 0.00601557 0.01036514 0.04519640
v 0.00601557 0.01058014 0.04537386
v -0.00527914 0.00833605 0.04505154
v -0.00651976 0.00833157 0.02262711
v 0.00062483 0.00833157 0.02262711
v 0.00601557 0.00833605 0.04350515
v 0.00601557 0.04122260 0.02262711
v 0.00062483 0.05409144 0.01489154
v 0.00046678 0.03533688 0.02790004
v -0.01016174 0.03343321 0.02753426
v -0.01134627 0.00833605 0.04248027
v -0.00651976 0.00833157 0.02201869
v 0.00062483 0.00833157 0.02095397
v 0.00601557 0.00833605 0.02262711
v 0.00062483 0.05008700 0.00856113
v 0.00062483 0.05356289 0.01355883
v -0.00284719 0.05351362 0.01451491
v -0.01134627 0.03658211 0.02498109
v -0.01134627 0.00833605 0.02262711
v -0.01134457 0.00833605 0.01841528
v -0.00651976 0.00833605 0.01841528
v 0.00062483 0.00834053 0.01841528
v 0.00062483 0.00835844 0.01508349
v 0.00062483 0.00836292 0.01454026
v 0.00062483 0.00843907 0.01221524
v 0.00062483 0.01488469 0.00856113
v -0.00680867 0.04872532 0.00856113
v -0.00847756 0.05164578 0.01316046
v -0.00651976 0.05229527 0.01363126
v -0.01134457 0.05117994 0.01338137
v -0.01134627 0.03954289 0.02262711
v -0.01134457 0.01549834 0.00856113
v -0.01134457 0.00851522 0.01170823
v -0.01134457 0.00835396 0.01665522
v -0.00651976 0.00838532 0.01486619
v -0.00651976 0.00848386 0.01191104
v -0.00287269 0.01354540 0.00856113
v -0.01134457 0.04779364 0.00856113
v -0.01134457 0.04819677 0.00913333
v -0.00911656 0.01451739 0.00856113
v -0.00651976 0.01410978 0.00856113
f 1 2 3
f 1 3 4
f 1 4 5
f 1 5 6
f 1 6 7
f 1 7 2
f 2 7 15
f 2 15 8
f 2 8 3
f 3 8 9
f 3 9 10
f 3 10 11
f 3 11 4
f 4 12 5
f 4 11 12
f 5 13 14
f 5 14 6
f 5 12 20
f 5 20 13
f 6 14 15
f 6 15 7
f 8 16 17
f 8 17 9
f 8 15 27
f 8 27 16
f 9 17 18
f 9 18 19
f 9 19 11
f 9 11 10
f 11 19 12
f 12 19 32
f 12 32 20
f 13 20 21
f 13 21 14
f 14 22 23
f 14 23 15
f 14 21 22
f 15 23 24
f 15 24 25
f 15 25 26
f 15 26 27
f 16 28 29
f 16 29 17
f 16 27 38
f 16 38 42
f 16 42 41
f 16 41 33
f 16 33 39
f 16 39 28
f 17 29 30
f 17 30 18
f 18 30 31
f 18 31 19
f 19 31 32
f 20 32 39
f 20 39 33
f 20 33 34
f 20 34 35
f 20 35 21
f 21 35 25
f 21 25 24
f 21 24 22
f 22 24 23
f 25 35 36
f 25 36 26
f 26 36 37
f 26 37 38
f 26 38 27
f 28 39 29
f 29 39 40
f 29 40 31
f 29 31 30
f 31 40 32
f 32 40 39
f 33 41 34
f 34 38 37
f 34 37 36
f 34 36 35
f 34 41 42
f 34 42 38

