# https://github.com/mikedh/trimesh
v 0.01300816 -0.00680138 0.02572638
v 0.02130159 -0.00804581 0.02703528
v 0.02292401 -0.00783284 0.02016101
v 0.00777820 -0.00680138 0.02016101
v -0.00660297 -0.00680138 0.02984484
v -0.01791577 -0.00680138 0.03151838
v 0.01086618 -0.02673324 0.03350425
v 0.02121827 -0.00967026 0.02735488
v 0.02459544 -0.04320741 0.03123510
v 0.02156138 -0.00967026 0.02693940
v 0.02319359 -0.00967026 0.02016101
v -0.01043599 -0.00680138 0.02016101
v -0.01885687 -0.00680138 0.03140652
v -0.00710293 -0.03260882 0.03406209
v 0.00644007 -0.03705622 0.03500200
v 0.01966937 -0.03897716 0.03309167
v 0.02541400 -0.04729568 0.02371727
v 0.02501697 -0.02333401 0.02016101
v 0.02453662 -0.02831593 0.02583534
v 0.00722922 -0.04186693 0.03391246
v -0.00359832 -0.04721633 0.02920710
v 0.02404156 -0.01549573 0.02016101
v -0.02347413 -0.01136570 0.02016101
v -0.01579830 -0.00680138 0.02526442
v -0.02428779 -0.01172066 0.02248101
v -0.02134196 -0.04436415 0.02997268
v -0.01169569 -0.04371688 0.03257305
v -0.00071130 -0.04794713 0.02016101
v 0.02339456 -0.04578816 0.02016101
v 0.02426213 -0.04486109 0.02016101
v 0.02513461 -0.03698105 0.02016101
v -0.02091062 -0.04946300 0.02477049
v -0.02451817 -0.01288158 0.02016101
v -0.02466031 -0.04471493 0.02016101
v -0.00449040 -0.04801394 0.02016101
v -0.02028812 -0.04785108 0.02016101
f 1 2 3
f 1 3 4
f 1 4 12
f 1 12 24
f 1 24 13
f 1 13 6
f 1 6 5
f 1 5 2
f 2 5 6
f 2 6 7
f 2 7 8
f 2 8 9
f 2 9 10
f 2 10 11
f 2 11 3
f 3 11 22
f 3 22 18
f 3 18 31
f 3 31 30
f 3 30 29
f 3 29 28
f 3 28 35
f 3 35 36
f 3 36 34
f 3 34 33
f 3 33 23
f 3 23 12
f 3 12 4
f 6 13 14
f 6 14 15
f 6 15 7
f 7 15 16
f 7 16 8
f 8 16 9
f 9 17 18
f 9 18 19
f 9 19 10
f 9 16 20
f 9 20 21
f 9 21 17
f 10 19 22
f 10 22 11
f 12 23 24
f 13 23 25
f 13 25 26
f 13 26 14
f 13 24 23
f 14 26 27
f 14 27 15
f 15 20 16
f 15 27 20
f 17 28 29
f 17 29 30
f 17 30 31
f 17 31 18
f 17 21 32
f 17 32 28
f 18 22 19
f 20 27 21
f 21 27 32
f 23 33 25
f 25 33 34
f 25 34 26
f 26 34 32
f 26 32 27
f 28 32 35
f 32 34 36
f 32 36 35

