# https://github.com/mikedh/trimesh
v -0.02797700 0.03795858 -0.00051179
v -0.02759733 0.03984173 0.00202489
v -0.02450077 0.03389720 -0.01097018
v -0.02521081 0.03284564 -0.01097018
v -0.02360830 0.00831642 -0.01097018
v -0.02232135 -0.00679170 -0.01097018
v -0.02237066 -0.00679170 -0.00565384
v -0.02235094 -0.00679706 -0.00518060
v -0.02224246 -0.00679706 -0.00291107
v -0.02731134 0.03468587 0.00202489
v -0.00443236 0.04456302 0.00202489
v 0.00179525 0.04579162 0.00202489
v -0.01362340 0.03601105 -0.01097018
v 0.02239620 -0.00679170 -0.01097018
v 0.02195735 -0.00679706 -0.00518060
v -0.02172473 -0.00679706 -0.00272788
v -0.01971789 0.01547346 0.00202489
v 0.01356018 0.04801277 0.00202489
v 0.01430473 0.04492784 -0.00249635
v -0.00558124 0.03674607 -0.01097018
v 0.02073451 0.02956221 -0.01097018
v 0.02186860 -0.00679706 -0.00403820
v 0.02134593 -0.00679706 -0.00272788
v 0.00071541 0.00133643 0.00116746
v -0.01408197 0.00133643 0.00080617
v -0.01664106 0.00133643 0.00021589
v -0.00612856 0.00856321 0.00202489
v 0.01554236 0.04303396 0.00202489
v 0.01899886 0.03813563 -0.01097018
v 0.01874246 0.03853801 -0.01097018
v 0.02006392 0.01831696 -0.00520477
v 0.02180943 -0.00679706 -0.00341357
v 0.01751469 0.00133643 0.00111021
v -0.00544811 0.00845055 0.00202489
v 0.01480274 0.02903642 0.00202489
v 0.01298327 0.01904125 0.00202489
v 0.00762348 0.01346691 0.00202489
v 0.00416698 0.01213637 0.00202489
f 1 2 3
f 1 3 4
f 1 4 5
f 1 5 6
f 1 6 7
f 1 7 8
f 1 8 9
f 1 9 10
f 1 10 2
f 2 11 3
f 2 10 17
f 2 17 27
f 2 27 34
f 2 34 38
f 2 38 37
f 2 37 36
f 2 36 35
f 2 35 28
f 2 28 18
f 2 18 12
f 2 12 11
f 3 11 12
f 3 12 13
f 3 13 20
f 3 20 30
f 3 30 29
f 3 29 21
f 3 21 14
f 3 14 6
f 3 6 5
f 3 5 4
f 6 14 15
f 6 15 8
f 6 8 7
f 8 15 22
f 8 22 32
f 8 32 23
f 8 23 16
f 8 16 9
f 9 16 17
f 9 17 10
f 12 18 13
f 13 18 19
f 13 19 20
f 14 21 15
f 15 21 22
f 16 23 24
f 16 24 25
f 16 25 26
f 16 26 17
f 17 26 25
f 17 25 27
f 18 28 29
f 18 29 30
f 18 30 19
f 19 30 20
f 21 29 28
f 21 28 31
f 21 31 32
f 21 32 22
f 23 33 24
f 23 32 28
f 23 28 33
f 24 33 34
f 24 34 27
f 24 27 25
f 28 35 33
f 28 32 31
f 33 36 37
f 33 37 38
f 33 38 34
f 33 35 36

