# https://github.com/mikedh/trimesh
v 0.00777326 -0.00680138 0.02016101
v 0.02291970 -0.00783311 0.02016101
v 0.02373168 -0.00772545 0.01672288
v 0.00618644 -0.00680138 0.00699609
v -0.01043536 -0.00680138 0.02016101
v 0.02318505 -0.00961845 0.02016101
v 0.02087116 -0.00858223 0.00699609
v 0.02381129 -0.00961845 0.01756050
v 0.02557324 -0.01750446 0.01352314
v 0.02516460 -0.00961845 0.00699609
v 0.02512214 -0.00936725 0.00699609
v -0.00626930 -0.00680138 0.00699609
v -0.02205789 -0.01148454 0.00699609
v -0.02210565 -0.01077130 0.01625638
v -0.02347488 -0.01136342 0.02016101
v 0.02403949 -0.01549034 0.02016101
v 0.02740949 -0.04337848 0.01325510
v 0.02596066 -0.01493859 0.00699609
v 0.02501600 -0.02333598 0.02016101
v -0.02378800 -0.01234581 0.00699609
v -0.02452038 -0.01287962 0.02016101
v 0.02769077 -0.04608341 0.00699609
v 0.02773323 -0.04253963 0.00699609
v 0.02513275 -0.03698175 0.02016101
v 0.02426239 -0.04486327 0.02016101
v -0.02514131 -0.01542754 0.00699609
v -0.02465836 -0.04471973 0.02016101
v -0.02550219 -0.01688094 0.00699609
v -0.02535359 -0.01706934 0.01178345
v -0.02648400 -0.04491261 0.01475381
v 0.02339203 -0.04578734 0.02016101
v 0.02201749 -0.05080694 0.00699609
v -0.01944149 -0.05251154 0.00699609
v -0.02029593 -0.04785529 0.02016101
v -0.02336343 -0.04575145 0.00699609
v -0.02336343 -0.04575594 0.00699866
v -0.00071808 -0.04794949 0.02016101
v 0.01674755 -0.05123758 0.00699609
v -0.01473410 -0.05262817 0.00699609
v -0.01907000 -0.05190147 0.00877057
v -0.00449673 -0.04801678 0.02016101
v -0.00324425 -0.05261022 0.00699609
v 0.00827744 -0.05185661 0.00699609
f 1 2 3
f 1 3 4
f 1 4 12
f 1 12 5
f 1 5 15
f 1 15 21
f 1 21 27
f 1 27 34
f 1 34 41
f 1 41 37
f 1 37 31
f 1 31 25
f 1 25 24
f 1 24 19
f 1 19 16
f 1 16 6
f 1 6 2
f 2 6 3
f 3 7 4
f 3 6 8
f 3 8 9
f 3 9 10
f 3 10 11
f 3 11 7
f 4 7 11
f 4 11 10
f 4 10 18
f 4 18 23
f 4 23 22
f 4 22 32
f 4 32 38
f 4 38 43
f 4 43 42
f 4 42 39
f 4 39 33
f 4 33 35
f 4 35 28
f 4 28 26
f 4 26 20
f 4 20 13
f 4 13 12
f 5 12 13
f 5 13 14
f 5 14 15
f 6 16 8
f 8 16 9
f 9 17 18
f 9 18 10
f 9 16 19
f 9 19 17
f 13 20 14
f 14 20 15
f 15 20 21
f 17 22 23
f 17 23 18
f 17 19 24
f 17 24 25
f 17 25 22
f 20 26 21
f 21 26 28
f 21 28 29
f 21 29 30
f 21 30 27
f 22 25 31
f 22 31 32
f 27 30 33
f 27 33 34
f 28 30 29
f 28 35 30
f 30 36 33
f 30 35 36
f 31 37 32
f 32 37 38
f 33 39 40
f 33 40 34
f 33 36 35
f 34 40 39
f 34 39 41
f 37 41 42
f 37 42 43
f 37 43 38
f 39 42 41

