# https://github.com/mikedh/trimesh
v -0.00443633 -0.00679989 0.01201800
v -0.00371548 -0.00587112 0.01201800
v 0.00549793 -0.00679989 0.01201800
v -0.01579879 -0.00679989 0.02526573
v -0.01691160 -0.00374101 0.02388051
v -0.02129079 0.00833009 0.01842251
v -0.02128628 0.00833009 0.01841905
v 0.01763530 0.00833009 0.01842251
v 0.00518706 -0.00588001 0.01201800
v -0.02127727 0.00833009 0.01841905
v 0.01765332 0.00833009 0.01843633
v 0.02414100 -0.00138130 0.02746621
v 0.01300832 -0.00679989 0.02572517
v -0.01885340 -0.00679989 0.03140426
v -0.01963733 -0.00627848 0.03236804
v -0.02129529 0.00833009 0.01843978
v 0.01989247 0.00833009 0.02111006
v 0.02245601 0.00833009 0.02914506
v 0.02366344 0.00195606 0.03405035
v 0.01394092 0.00833009 0.04564687
v -0.01652415 0.00382694 0.04730500
v 0.00834530 -0.00679989 0.02670623
v -0.01791629 -0.00679989 0.03151480
v -0.01935350 0.00211160 0.04519780
v -0.01984007 -0.00374101 0.03560484
v -0.02188549 0.00833009 0.03412635
v -0.02179539 0.00833009 0.02258510
v 0.02230733 0.00833009 0.04162937
v 0.00265056 0.00833009 0.04555706
v -0.01731258 0.00833009 0.04405784
v -0.00660340 -0.00679989 0.02983940
v -0.00517521 0.00779978 0.04542234
v -0.00527883 0.00833009 0.04505271
v -0.01973645 0.00833009 0.04146010
v -0.02089883 0.00833009 0.03988488
v -0.02006083 -0.00090433 0.03922163
f 1 2 9
f 1 9 3
f 1 3 13
f 1 13 22
f 1 22 31
f 1 31 23
f 1 23 14
f 1 14 4
f 1 4 5
f 1 5 6
f 1 6 7
f 1 7 2
f 2 8 9
f 2 7 10
f 2 10 8
f 3 9 8
f 3 8 11
f 3 11 12
f 3 12 13
f 4 14 5
f 5 14 6
f 6 14 15
f 6 15 16
f 6 16 27
f 6 27 26
f 6 26 35
f 6 35 34
f 6 34 30
f 6 30 33
f 6 33 29
f 6 29 20
f 6 20 28
f 6 28 18
f 6 18 17
f 6 17 11
f 6 11 8
f 6 8 10
f 6 10 7
f 11 17 12
f 12 17 18
f 12 18 19
f 12 19 13
f 13 19 20
f 13 20 21
f 13 21 22
f 14 23 15
f 15 23 24
f 15 24 25
f 15 25 26
f 15 26 27
f 15 27 16
f 18 28 19
f 19 28 20
f 20 29 21
f 21 30 24
f 21 24 31
f 21 31 22
f 21 29 32
f 21 32 33
f 21 33 30
f 23 31 24
f 24 30 34
f 24 34 35
f 24 35 26
f 24 26 36
f 24 36 25
f 25 36 26
f 29 33 32

