# https://github.com/mikedh/trimesh
v 0.02484005 -0.00680138 -0.02435919
v 0.02877753 -0.01128580 -0.02605378
v 0.03021862 -0.01359440 -0.03198415
v 0.02874349 -0.01199574 -0.03198415
v 0.02471523 -0.00680138 -0.02541849
v 0.02295642 -0.00680138 -0.01759351
v 0.02901582 -0.01315005 -0.01759351
v 0.03099591 -0.03154230 -0.01759351
v 0.03147816 -0.03463747 -0.03198415
v 0.02297911 -0.00680138 -0.03198415
v -0.00025994 -0.00680138 -0.01759351
v 0.03147249 -0.03518908 -0.03156437
v 0.02943000 -0.05445472 -0.01759351
v 0.03019593 -0.05521064 -0.02346189
v 0.02695630 -0.04027108 -0.03198415
v -0.00025994 -0.00680138 -0.03198415
v -0.02287490 -0.00680138 -0.01880775
v -0.02432167 -0.01503473 -0.01880775
v -0.02527484 -0.02539282 -0.01880775
v -0.02648331 -0.03876947 -0.01880775
v -0.00025994 -0.05734559 -0.01759351
v 0.01238083 -0.05643134 -0.01759351
v 0.00960077 -0.05784613 -0.02067138
v 0.01495665 -0.05726387 -0.02677782
v 0.01883171 -0.04949019 -0.03148972
v 0.01940475 -0.04800900 -0.03198415
v -0.00025994 -0.05166090 -0.03198415
v -0.02516136 -0.03976544 -0.03190245
v -0.02501385 -0.01891646 -0.03190245
v -0.02425926 -0.01471806 -0.03190245
v -0.02032179 -0.00680138 -0.03190245
v -0.02411742 -0.00680138 -0.02258431
v -0.02407771 -0.05669182 -0.02559598
v -0.02330043 -0.05492972 -0.01880775
v -0.02416849 -0.00680138 -0.02313650
v -0.02532023 -0.04351437 -0.02636650
v -0.02016293 -0.05773887 -0.01880775
v -0.01966932 -0.05792785 -0.01880775
v -0.01826794 -0.05798914 -0.01880775
v -0.01064830 -0.05786145 -0.01880775
v 0.00233856 -0.05728941 -0.01759351
v -0.00025994 -0.05785634 -0.01976422
v -0.00025994 -0.05854586 -0.02381687
v 0.00090314 -0.05166090 -0.03198415
v 0.00434702 -0.05156896 -0.03198415
v 0.01358363 -0.04978132 -0.03198415
v -0.00641012 -0.05898000 -0.02577487
v 0.01879767 -0.04834100 -0.03198415
v -0.00354496 -0.05176816 -0.03190245
v -0.01489215 -0.04959234 -0.03190245
v -0.01947642 -0.04730416 -0.03190245
v -0.01955018 -0.05841817 -0.02579741
v -0.01307093 -0.05405123 -0.02998529
f 1 2 3
f 1 3 4
f 1 4 5
f 1 5 10
f 1 10 16
f 1 16 31
f 1 31 35
f 1 35 32
f 1 32 17
f 1 17 11
f 1 11 6
f 1 6 7
f 1 7 2
f 2 7 3
f 3 7 8
f 3 8 9
f 3 9 15
f 3 15 26
f 3 26 48
f 3 48 46
f 3 46 45
f 3 45 44
f 3 44 27
f 3 27 16
f 3 16 10
f 3 10 4
f 4 10 5
f 6 11 21
f 6 21 41
f 6 41 22
f 6 22 13
f 6 13 8
f 6 8 7
f 8 12 9
f 8 13 14
f 8 14 12
f 9 12 14
f 9 14 15
f 11 17 18
f 11 18 19
f 11 19 20
f 11 20 21
f 13 22 23
f 13 23 14
f 14 23 24
f 14 24 25
f 14 25 26
f 14 26 15
f 16 27 28
f 16 28 29
f 16 29 30
f 16 30 31
f 17 32 18
f 18 32 19
f 19 32 20
f 20 33 34
f 20 34 21
f 20 32 35
f 20 35 29
f 20 29 28
f 20 28 36
f 20 36 33
f 21 34 37
f 21 37 38
f 21 38 39
f 21 39 40
f 21 40 41
f 22 41 23
f 23 41 42
f 23 42 43
f 23 43 24
f 24 44 45
f 24 45 46
f 24 46 25
f 24 43 47
f 24 47 44
f 25 46 48
f 25 48 26
f 27 44 49
f 27 49 50
f 27 50 51
f 27 51 28
f 28 33 36
f 28 51 33
f 29 35 30
f 30 35 31
f 33 52 38
f 33 38 37
f 33 37 34
f 33 51 50
f 33 50 53
f 33 53 52
f 38 52 39
f 39 47 42
f 39 42 40
f 39 52 47
f 40 42 41
f 42 47 43
f 44 47 53
f 44 53 49
f 47 52 53
f 49 53 50

