# https://github.com/mikedh/trimesh
v 0.01874727 0.03854037 -0.01097355
v 0.01725524 0.04196637 -0.01613854
v -0.00149788 0.03681465 -0.01097355
v 0.01900338 0.03813710 -0.01097355
v 0.02636526 0.03741774 -0.02291822
v 0.01913144 0.04191187 -0.03000192
v -0.00149788 0.04037144 -0.03088021
v -0.00149788 0.04052040 -0.01685468
v -0.00149788 0.00485802 -0.01097355
v 0.02073962 0.02956665 -0.01097355
v 0.02701448 0.02526507 -0.01196331
v 0.02892643 0.02411702 -0.04548000
v 0.02305658 0.03220790 -0.03997383
v 0.02219293 0.03339592 -0.03916649
v 0.01565302 0.03769386 -0.03539324
v -0.00149788 0.03664753 -0.03563646
v -0.00149788 0.00485802 -0.03912257
v 0.02160625 0.00485802 -0.01097355
v 0.02800917 0.01441304 -0.01270647
v -0.00149788 0.01710153 -0.04050080
v -0.00149788 0.02843675 -0.03958536
v -0.00149788 0.03353398 -0.03732884
v 0.02829209 0.00837849 -0.03265367
v 0.02730038 0.01629135 -0.04422676
v -0.00149788 0.00765550 -0.03953131
v 0.00587293 0.00485802 -0.03917662
v 0.02490599 0.00485802 -0.03021812
v 0.02305658 0.00937758 -0.03964279
v 0.02305658 0.00535939 -0.03430214
v 0.01212397 0.00485802 -0.03905839
v 0.02305658 0.00485802 -0.03318064
v 0.02027503 0.00485802 -0.03663635
v 0.02218400 0.00485802 -0.03457576
f 1 2 3
f 1 3 9
f 1 9 18
f 1 18 10
f 1 10 4
f 1 4 5
f 1 5 2
f 2 6 7
f 2 7 8
f 2 8 3
f 2 5 6
f 3 8 7
f 3 7 16
f 3 16 22
f 3 22 21
f 3 21 20
f 3 20 25
f 3 25 17
f 3 17 9
f 4 10 11
f 4 11 5
f 5 11 12
f 5 12 6
f 6 12 13
f 6 13 14
f 6 14 15
f 6 15 7
f 7 15 16
f 9 17 26
f 9 26 30
f 9 30 32
f 9 32 33
f 9 33 31
f 9 31 27
f 9 27 18
f 10 18 11
f 11 18 19
f 11 19 12
f 12 20 21
f 12 21 22
f 12 22 16
f 12 16 14
f 12 14 13
f 12 19 23
f 12 23 24
f 12 24 25
f 12 25 20
f 14 16 15
f 17 25 24
f 17 24 26
f 18 27 23
f 18 23 19
f 23 28 24
f 23 27 29
f 23 29 28
f 24 28 30
f 24 30 26
f 27 31 29
f 28 29 32
f 28 32 30
f 29 31 33
f 29 33 32

