# https://github.com/mikedh/trimesh
v 0.01585676 0.00994926 0.04750800
v 0.00601610 0.01058347 0.04537690
v 0.00601610 0.01036747 0.04519772
v 0.00601610 0.00833616 0.04350504
v 0.01394205 0.00833616 0.04564376
v 0.02230822 0.00833616 0.04162556
v 0.02223770 0.00920475 0.04282645
v 0.01576060 0.02301948 0.03836219
v 0.00786670 0.05528140 0.01567495
v 0.00062670 0.00833157 0.02262485
v 0.00601610 0.05497808 0.01547290
v 0.00062670 0.05408652 0.01488961
v 0.00062670 0.04197221 0.02262485
v 0.00601610 0.00833157 0.02262485
v 0.02245780 0.00833616 0.02913633
v 0.01726928 0.03653548 0.00856113
v 0.01370699 0.05372346 0.00995263
v 0.01704704 0.03600697 0.02374949
v 0.00062670 0.00833157 0.02095505
v 0.00601610 0.05362694 0.01207229
v 0.00062670 0.05355801 0.01355529
v 0.00601610 0.00833157 0.02015064
v 0.01989346 0.00833616 0.02111516
v 0.01925879 0.01747245 0.01661279
v 0.02072687 0.01748164 0.02209875
v 0.01724791 0.03404919 0.00856113
v 0.01345910 0.05267103 0.00856113
v 0.01161918 0.05233555 0.00856113
v 0.00062670 0.00834076 0.01841984
v 0.00062670 0.05009284 0.00856113
v 0.01763470 0.00833616 0.01841984
v 0.01765393 0.00833616 0.01843509
v 0.01680343 0.02385590 0.00856113
v 0.00062670 0.00835914 0.01508404
v 0.00062670 0.01488046 0.00856113
v 0.00601610 0.00836374 0.01398990
v 0.01122385 0.00837752 0.01266321
v 0.01666453 0.02365369 0.00856113
v 0.00062670 0.00836374 0.01453888
v 0.00289615 0.01574905 0.00856113
v 0.00601610 0.00840510 0.01244209
v 0.00062670 0.00843727 0.01221335
v 0.00601610 0.00836833 0.01358579
v 0.01470708 0.02084570 0.00856113
v 0.00062670 0.00838672 0.01374972
f 1 2 3
f 1 3 4
f 1 4 5
f 1 5 6
f 1 6 7
f 1 7 8
f 1 8 9
f 1 9 2
f 2 10 3
f 2 9 11
f 2 11 12
f 2 12 13
f 2 13 10
f 3 10 4
f 4 10 5
f 5 10 14
f 5 14 6
f 6 14 15
f 6 15 7
f 7 15 16
f 7 16 17
f 7 17 18
f 7 18 8
f 8 18 9
f 9 17 11
f 9 18 17
f 10 19 22
f 10 22 14
f 10 13 12
f 10 12 21
f 10 21 30
f 10 30 35
f 10 35 42
f 10 42 45
f 10 45 39
f 10 39 34
f 10 34 29
f 10 29 19
f 11 17 20
f 11 20 21
f 11 21 12
f 14 22 15
f 15 22 23
f 15 23 24
f 15 24 25
f 15 25 16
f 16 25 26
f 16 26 33
f 16 33 38
f 16 38 44
f 16 44 40
f 16 40 35
f 16 35 30
f 16 30 28
f 16 28 27
f 16 27 17
f 17 27 28
f 17 28 21
f 17 21 20
f 19 29 22
f 21 28 30
f 22 31 32
f 22 32 23
f 22 29 31
f 23 32 33
f 23 33 24
f 24 33 26
f 24 26 25
f 29 34 31
f 31 36 37
f 31 37 32
f 31 34 36
f 32 37 33
f 33 37 38
f 34 39 36
f 35 40 37
f 35 37 41
f 35 41 42
f 36 39 43
f 36 43 37
f 37 43 41
f 37 40 44
f 37 44 38
f 39 45 43
f 41 43 45
f 41 45 42

