# https://github.com/mikedh/trimesh
v -0.03182600 0.03401399 -0.02527426
v -0.02235960 0.03964332 -0.01762499
v -0.02448501 0.03763883 -0.02608817
v -0.03016961 0.03476131 -0.02608817
v -0.03093546 0.02848593 -0.02608817
v -0.02981339 0.00738992 -0.02608817
v -0.03165680 0.02457125 -0.01336603
v -0.02520931 0.03285111 -0.01097018
v -0.02450579 0.03390574 -0.01097018
v -0.01363531 0.03601499 -0.01097018
v -0.00558783 0.03675183 -0.01097018
v -0.00150026 0.04052683 -0.01685400
v -0.00150026 0.03957697 -0.02608817
v -0.01233512 0.03876679 -0.02608817
v -0.03068908 0.01219161 -0.01262611
v -0.02373696 0.00485113 -0.02608817
v -0.02391507 0.00485113 -0.02456098
v -0.02316405 0.00485113 -0.01097018
v -0.02361229 0.00831184 -0.01097018
v -0.00150026 0.03681818 -0.01097018
v -0.00150026 0.00485113 -0.02608817
v -0.00150026 0.00485113 -0.01097018
f 1 2 3
f 1 3 4
f 1 4 5
f 1 5 6
f 1 6 7
f 1 7 8
f 1 8 9
f 1 9 2
f 2 10 11
f 2 11 12
f 2 12 13
f 2 13 14
f 2 14 3
f 2 9 10
f 3 14 13
f 3 13 21
f 3 21 16
f 3 16 6
f 3 6 5
f 3 5 4
f 6 15 7
f 6 16 17
f 6 17 18
f 6 18 15
f 7 15 8
f 8 15 19
f 8 19 18
f 8 18 22
f 8 22 20
f 8 20 11
f 8 11 10
f 8 10 9
f 11 20 12
f 12 20 22
f 12 22 21
f 12 21 13
f 15 18 19
f 16 21 22
f 16 22 18
f 16 18 17

