# https://github.com/mikedh/trimesh
v 0.01345552 0.05267341 0.00856113
v 0.01726801 0.03653667 0.00856113
v 0.01639395 0.04134566 0.00514524
v 0.01629293 0.04188673 0.00475823
v 0.01554624 0.04303378 0.00202616
v 0.01356094 0.04800293 0.00202616
v 0.01161517 0.05233145 0.00856113
v 0.01724605 0.03404777 0.00856113
v 0.01480395 0.02904832 0.00202616
v 0.01679803 0.02385842 0.00856113
v 0.01575707 0.02656808 0.00514524
v 0.00180724 0.04579105 0.00202616
v -0.00556297 0.04654855 0.00514524
v -0.00680159 0.04871713 0.00856113
v 0.01299434 0.01904077 0.00202616
v 0.01470732 0.02084577 0.00856113
v -0.00443416 0.04456608 0.00202616
v -0.01109722 0.04759172 0.00819971
v -0.01109722 0.04784710 0.00856113
v 0.00762699 0.01346564 0.00202616
v 0.00289652 0.01575110 0.00856113
v -0.02760335 0.03984799 0.00202616
v -0.02704992 0.04261824 0.00575038
v -0.02748036 0.04448384 0.00856113
v -0.00544877 0.00845753 0.00202616
v -0.00287052 0.01354788 0.00856113
v -0.02731785 0.03468406 0.00202616
v -0.02562683 0.02626941 0.00856113
v -0.00612958 0.00856575 0.00202616
v -0.00422333 0.01088583 0.00514524
v -0.01715855 0.01334011 0.00856113
v -0.01972363 0.01546974 0.00202616
v -0.01972802 0.01579005 0.00856113
f 1 2 3
f 1 3 4
f 1 4 5
f 1 5 6
f 1 6 7
f 1 7 14
f 1 14 19
f 1 19 24
f 1 24 28
f 1 28 33
f 1 33 31
f 1 31 26
f 1 26 21
f 1 21 16
f 1 16 10
f 1 10 8
f 1 8 2
f 2 8 3
f 3 8 5
f 3 5 4
f 5 9 15
f 5 15 20
f 5 20 25
f 5 25 29
f 5 29 32
f 5 32 27
f 5 27 22
f 5 22 17
f 5 17 12
f 5 12 6
f 5 8 10
f 5 10 11
f 5 11 9
f 6 12 7
f 7 12 13
f 7 13 14
f 9 11 15
f 10 16 15
f 10 15 11
f 12 17 13
f 13 17 18
f 13 18 14
f 14 18 19
f 15 16 20
f 16 21 20
f 17 22 23
f 17 23 18
f 18 23 19
f 19 23 24
f 20 21 25
f 21 26 25
f 22 27 24
f 22 24 23
f 24 27 28
f 25 26 30
f 25 30 31
f 25 31 29
f 26 31 30
f 27 32 28
f 28 32 33
f 29 31 32
f 31 33 32

