# https://github.com/mikedh/trimesh
v 0.07606650 0.00262529 -0.02553700
v 0.07551515 -0.00690274 -0.02491728
v 0.04950690 -0.00172907 -0.02406923
v 0.01994071 0.00154112 -0.02105215
v 0.06648678 0.00805677 -0.02357998
v 0.07653170 0.01573782 -0.01606990
v 0.07881464 0.00493491 -0.02328642
v 0.07885772 -0.01230597 -0.02051397
v 0.05280639 -0.00983391 -0.02224675
v 0.04143478 -0.00889099 -0.02158626
v 0.02963243 -0.00413757 -0.02189204
v 0.00221995 0.00103964 -0.01938868
v 0.04283900 0.00691256 -0.02149248
v 0.01167907 0.00590961 -0.01853248
v 0.02479949 0.01040170 -0.01753359
v 0.04042684 0.01389084 -0.01525855
v 0.06282547 0.01635584 -0.01364808
v 0.07823744 0.01691382 -0.00564059
v 0.08085636 0.01175074 -0.01353392
v 0.08282055 0.00113146 -0.01693833
v 0.08288947 -0.00689921 -0.01622075
v 0.07808237 -0.01785045 -0.01246979
v 0.06161077 -0.01596109 -0.01662846
v 0.04520809 -0.01486279 -0.01685270
v 0.02914999 -0.01550553 -0.01520554
v 0.00245256 -0.01008464 -0.01718703
v 0.01812298 -0.00880623 -0.01943353
v -0.00137244 -0.00335004 -0.01629006
v -0.00030420 0.00940228 -0.01401910
v 0.01166184 0.01369308 -0.01225370
v 0.03265624 0.01617573 -0.00958725
v 0.05047176 0.01721400 -0.00559166
v 0.07770332 0.01360479 0.00356558
v 0.08255349 0.00815918 0.00221605
v 0.04675015 0.01599916 0.00141285
v 0.05992226 0.01496442 0.00268492
v 0.08424200 -0.00094860 -0.00940378
v 0.08256210 -0.01103462 0.00103776
v 0.07588559 -0.01694285 0.00005517
v 0.06480688 -0.01851791 -0.00339001
v 0.04922261 -0.01827070 -0.00976665
v 0.03574897 -0.01775157 -0.01134857
v 0.00284022 -0.01815063 -0.00727144
v 0.01363464 -0.01543843 -0.01373370
v -0.00376737 -0.01416355 -0.00448676
v -0.00376737 -0.00757373 -0.00881667
v -0.00376737 0.00013557 -0.00928147
v -0.00376737 0.00871717 -0.00721844
v 0.00275407 0.01556125 -0.00449084
v -0.00376737 0.01188847 -0.00314946
v 0.02624679 0.01622871 -0.00135960
v 0.00451151 0.01513393 0.00482949
v 0.07154370 0.00831104 0.00881285
v 0.07929707 -0.00215991 0.00976690
v 0.02470473 0.01411333 0.00637065
v 0.01869156 0.00770009 0.01334255
v 0.08369926 0.00147402 0.00076459
v 0.07519640 -0.01178684 0.00662751
v 0.03466350 -0.01611648 0.00541252
v 0.01965642 -0.01691107 0.00536768
v 0.05353004 -0.01794580 -0.00071541
v 0.00486471 -0.01746552 0.00495996
v 0.02970996 -0.01873687 -0.00324731
v 0.01381555 -0.01886400 -0.00445414
v -0.00376737 -0.01644138 0.00208558
v -0.00376737 0.01226987 0.00665197
v 0.00470103 0.00562355 0.01503048
v 0.04340758 0.00018148 0.01313869
v 0.06659877 -0.00370672 0.01111236
v 0.04020285 -0.00880270 0.01136922
v 0.00490779 -0.01208702 0.01254343
v -0.00376737 -0.01560441 0.00497627
v -0.00376737 -0.01628599 0.00401407
v -0.00376737 0.01004148 0.00864161
v 0.00565728 -0.00378088 0.01611500
v -0.00376737 0.00801792 0.00929803
v -0.00376737 -0.00731593 0.01047225
v -0.00376737 -0.01014468 0.00995445
f 1 2 3
f 1 3 4
f 1 4 5
f 1 5 6
f 1 6 7
f 1 7 2
f 2 7 8
f 2 8 9
f 2 9 10
f 2 10 11
f 2 11 3
f 3 11 12
f 3 12 4
f 4 12 5
f 5 12 13
f 5 13 14
f 5 14 15
f 5 15 16
f 5 16 6
f 6 16 17
f 6 17 18
f 6 18 19
f 6 19 7
f 7 19 20
f 7 20 21
f 7 21 8
f 8 22 23
f 8 23 9
f 8 21 22
f 9 24 25
f 9 25 26
f 9 26 27
f 9 27 10
f 9 23 24
f 10 27 11
f 11 27 26
f 11 26 12
f 12 26 28
f 12 28 29
f 12 29 14
f 12 14 13
f 14 29 15
f 15 29 30
f 15 30 16
f 16 30 17
f 17 30 31
f 17 31 32
f 17 32 18
f 18 33 34
f 18 34 19
f 18 32 35
f 18 35 36
f 18 36 33
f 19 34 37
f 19 37 20
f 20 37 21
f 21 37 38
f 21 38 22
f 22 38 39
f 22 39 40
f 22 40 41
f 22 41 42
f 22 42 23
f 23 42 25
f 23 25 24
f 25 42 43
f 25 43 44
f 25 44 26
f 26 44 43
f 26 43 45
f 26 45 28
f 28 45 46
f 28 46 47
f 28 47 48
f 28 48 29
f 29 49 30
f 29 48 50
f 29 50 49
f 30 49 31
f 31 49 32
f 32 49 51
f 32 51 52
f 32 52 35
f 33 53 54
f 33 54 34
f 33 36 55
f 33 55 56
f 33 56 53
f 34 57 37
f 34 54 57
f 35 55 36
f 35 52 55
f 37 57 38
f 38 57 54
f 38 54 58
f 38 58 39
f 39 58 59
f 39 59 60
f 39 60 61
f 39 61 40
f 40 61 60
f 40 60 62
f 40 62 63
f 40 63 64
f 40 64 41
f 41 64 43
f 41 43 42
f 43 64 62
f 43 62 65
f 43 65 45
f 45 65 73
f 45 73 72
f 45 72 78
f 45 78 77
f 45 77 76
f 45 76 74
f 45 74 66
f 45 66 50
f 45 50 48
f 45 48 47
f 45 47 46
f 49 52 51
f 49 50 66
f 49 66 52
f 52 66 67
f 52 67 56
f 52 56 55
f 53 68 54
f 53 56 67
f 53 67 68
f 54 69 58
f 54 68 69
f 58 69 70
f 58 70 71
f 58 71 59
f 59 71 60
f 60 71 62
f 62 64 63
f 62 71 72
f 62 72 73
f 62 73 65
f 66 74 67
f 67 75 68
f 67 74 76
f 67 76 77
f 67 77 75
f 68 75 69
f 69 75 70
f 70 75 71
f 71 75 78
f 71 78 72
f 75 77 78

