# https://github.com/mikedh/trimesh
v -0.00376737 -0.00731352 0.01047214
v -0.00842772 -0.00076633 0.02195428
v -0.00827698 -0.02530031 0.01711969
v -0.00376737 -0.01014344 0.00995051
v -0.00376737 0.00801721 0.00929530
v -0.01033708 -0.02043189 0.02169347
v -0.00376737 0.01003773 0.00864009
v -0.01045014 0.01419867 0.02134996
v -0.02132848 0.00154197 0.03187154
v -0.01389202 -0.01011946 0.02661075
v -0.02274166 -0.02265625 0.03058656
v -0.03088157 -0.02682919 0.03062473
v -0.02043661 -0.02709899 0.02215148
v -0.00690777 -0.02891565 0.00594290
v -0.00376737 -0.01560543 0.00497598
v -0.00678843 0.02648964 0.00848105
v -0.00376737 0.01226809 0.00664900
v -0.02071924 0.02702325 0.02213876
v -0.03117049 0.01449246 0.03217688
v -0.03253342 -0.00859658 0.03432700
v -0.04341805 -0.01544355 0.03240589
v -0.04432248 -0.02905355 0.02682067
v -0.03213145 -0.03110405 0.00121645
v -0.01460803 -0.03034261 -0.01784199
v -0.01098401 -0.02387336 -0.01525930
v -0.00376737 -0.01416049 -0.00448327
v -0.00376737 -0.01643882 0.00208795
v -0.00376737 -0.01628893 0.00400906
v -0.00621060 0.02617188 -0.00281661
v -0.06046413 0.03008700 -0.00193875
v -0.00376737 0.01189037 -0.00314739
v -0.03933553 0.02693332 0.02671253
v -0.06158839 0.02961935 0.00765409
v -0.04533997 0.00295693 0.03231683
v -0.05236818 -0.00326650 0.02893898
v -0.05782620 -0.02314789 0.01893266
v -0.05758124 -0.03116400 0.01024949
v -0.05692804 -0.03055845 -0.01048833
v -0.04350598 -0.02959316 -0.02038651
v -0.02438723 -0.02943727 -0.02280380
v -0.01882244 -0.01619900 -0.02463585
v -0.01548734 -0.01025736 -0.02362441
v -0.00376737 -0.00757133 -0.00881531
v -0.00376737 0.00871270 -0.00721862
v -0.00883597 0.02580615 -0.01520841
v -0.02580669 0.02708920 -0.01362445
v -0.05439060 0.02702925 -0.02046284
v -0.06500515 0.02791660 -0.01140436
v -0.05218604 0.01422865 0.02586648
v -0.05370600 0.02479889 0.01942884
v -0.06620478 0.02455906 -0.00155071
v -0.06405675 0.02332397 0.00972787
v -0.06300157 -0.00574867 0.01855099
v -0.06509308 -0.01197210 0.01268587
v -0.06568348 -0.01997022 0.00385003
v -0.06643717 -0.01190615 -0.00373900
v -0.05521967 -0.02844800 -0.01554556
v -0.04393935 -0.02775850 -0.02302008
v -0.03319919 -0.02673925 -0.02599081
v -0.02741458 -0.01134856 -0.02912693
v -0.01490951 0.00182376 -0.02427326
v -0.00376737 0.00013301 -0.00927968
v -0.02427418 0.00873669 -0.02840810
v -0.02590718 0.02384559 -0.02401881
v -0.04209908 0.02446913 -0.02576180
v -0.04073615 0.01678877 -0.02809004
v -0.05135069 0.02246660 -0.02254299
v -0.04670918 0.00051073 -0.02811548
v -0.05687151 0.00842492 -0.02118803
v -0.05871807 -0.01335708 -0.01821094
v -0.06396881 0.00029489 -0.01142980
v -0.06700872 0.00173383 -0.00443238
v -0.06793200 0.01225610 0.00782584
v -0.06308322 0.01083514 0.01444795
v -0.06701500 0.00073856 0.01021769
v -0.06756771 -0.00884840 0.00553577
v -0.04932200 -0.01140852 -0.02630887
v -0.03735708 -0.01197810 -0.02982667
v -0.03244549 0.00092443 -0.03066000
f 1 2 3
f 1 3 4
f 1 4 15
f 1 15 28
f 1 28 27
f 1 27 26
f 1 26 43
f 1 43 62
f 1 62 44
f 1 44 31
f 1 31 17
f 1 17 7
f 1 7 5
f 1 5 2
f 2 6 3
f 2 5 7
f 2 7 8
f 2 8 9
f 2 9 10
f 2 10 6
f 3 6 11
f 3 11 12
f 3 12 13
f 3 13 14
f 3 14 15
f 3 15 4
f 6 10 11
f 7 16 8
f 7 17 16
f 8 18 9
f 8 16 18
f 9 19 20
f 9 20 11
f 9 11 10
f 9 18 19
f 11 20 12
f 12 20 21
f 12 21 22
f 12 22 14
f 12 14 13
f 14 23 24
f 14 24 25
f 14 25 26
f 14 26 27
f 14 27 28
f 14 28 15
f 14 22 23
f 16 17 29
f 16 29 30
f 16 30 18
f 17 31 29
f 18 32 19
f 18 30 33
f 18 33 32
f 19 34 20
f 19 32 34
f 20 34 21
f 21 34 35
f 21 35 36
f 21 36 22
f 22 36 37
f 22 37 23
f 23 37 38
f 23 38 24
f 24 38 39
f 24 39 40
f 24 40 41
f 24 41 42
f 24 42 25
f 25 42 43
f 25 43 26
f 29 31 44
f 29 44 45
f 29 45 30
f 30 45 46
f 30 46 47
f 30 47 48
f 30 48 33
f 32 49 34
f 32 33 50
f 32 50 49
f 33 48 51
f 33 51 52
f 33 52 50
f 34 49 35
f 35 49 53
f 35 53 36
f 36 53 54
f 36 54 55
f 36 55 37
f 37 55 38
f 38 56 57
f 38 57 39
f 38 55 56
f 39 58 59
f 39 59 40
f 39 57 58
f 40 59 60
f 40 60 41
f 41 60 42
f 42 60 61
f 42 61 43
f 43 61 62
f 44 62 45
f 45 62 61
f 45 61 63
f 45 63 64
f 45 64 65
f 45 65 47
f 45 47 46
f 47 65 66
f 47 66 67
f 47 67 68
f 47 68 69
f 47 69 48
f 48 69 70
f 48 70 71
f 48 71 72
f 48 72 73
f 48 73 51
f 49 50 52
f 49 52 74
f 49 74 53
f 51 73 52
f 52 73 74
f 53 74 73
f 53 73 75
f 53 75 54
f 54 75 76
f 54 76 55
f 55 76 56
f 56 72 71
f 56 71 70
f 56 70 57
f 56 76 72
f 57 70 77
f 57 77 58
f 58 77 78
f 58 78 59
f 59 78 60
f 60 78 79
f 60 79 63
f 60 63 61
f 63 79 66
f 63 66 64
f 64 66 65
f 66 79 68
f 66 68 67
f 68 79 78
f 68 78 77
f 68 77 69
f 69 77 70
f 72 76 73
f 73 76 75

