# https://github.com/mikedh/trimesh
v -0.01432900 -0.03643600 -0.01712500
v -0.02282300 -0.03506000 -0.01712400
v -0.01455900 -0.03131400 -0.01714800
v -0.02526800 -0.03787800 0.00053300
v -0.02586300 -0.03682600 0.00257200
v -0.02597500 -0.03345300 -0.00287100
v -0.02563000 -0.03151000 -0.01410000
v -0.02528400 -0.03673900 -0.01625800
v -0.02262100 -0.03726700 -0.01596200
v -0.01519900 -0.03738800 -0.01622900
v -0.02527900 -0.03737100 -0.01256700
v -0.02573400 -0.03624800 -0.01233200
v -0.02411700 -0.03789900 -0.00693500
v -0.02566100 -0.03734600 -0.00536300
v -0.02384000 -0.03818000 0.00574500
v -0.01646800 -0.03765000 -0.01262800
v -0.02525100 -0.03780000 0.01135200
v -0.02539400 -0.03285700 -0.01673400
v -0.02448800 -0.02844100 -0.01700400
v 0.00252600 -0.03690600 -0.01680100
v 0.00393200 -0.03396800 -0.01715700
v 0.00887800 -0.03646500 -0.01713200
v 0.02117200 -0.03554000 -0.01703800
v 0.02405600 -0.03219100 -0.01699100
v 0.01506300 -0.03665200 -0.01711400
v 0.02450400 -0.02686200 -0.01652800
v 0.00852800 -0.03753000 -0.01613600
v 0.02459600 -0.01904900 -0.01688300
v 0.01658600 -0.03748000 -0.01578300
v 0.02177600 -0.03675900 -0.01672400
v 0.02329800 -0.03750700 -0.01381800
v 0.02431600 -0.03479800 -0.01561600
v 0.02437600 -0.03715600 -0.00825200
v 0.02447200 -0.03743400 0.00056300
v 0.02454200 -0.03748600 0.00570500
v 0.02473300 -0.03671700 0.01268500
v 0.02422900 -0.03786900 0.01848300
v 0.02463400 -0.03769900 0.02236300
v 0.00364200 0.03668000 -0.01699100
v -0.02264900 0.03732000 -0.01685600
v -0.02339000 0.03117500 -0.01686700
v 0.01454000 0.03635700 -0.01668900
v -0.00737700 0.03742900 -0.01695200
v -0.00193400 0.03805500 -0.01596500
v 0.00386600 0.03783900 -0.01587800
v -0.02540300 0.03389100 -0.01107400
v -0.02421600 0.02611000 -0.01646600
v 0.01017800 0.03756800 -0.01560300
v -0.02492500 0.03276800 -0.01573200
v -0.02484600 0.03858400 -0.01079200
v -0.02509500 0.03733900 -0.01536500
v -0.02542600 0.03709000 -0.00982800
v -0.01913800 0.03818600 -0.01651800
v -0.02357000 0.03872600 -0.01528600
v -0.01818400 0.03562300 -0.01705500
v -0.01269500 0.03834800 -0.01629700
v -0.01871500 0.03868800 -0.01218700
v 0.02013900 0.03195300 -0.01670900
v 0.02371500 0.03459500 -0.01653500
v 0.02558800 0.03373700 -0.01569100
v 0.02514000 0.00328500 -0.01685200
v 0.02502700 0.03655100 -0.01566800
v 0.02548600 0.00983600 -0.01673800
v 0.02492500 0.01365100 -0.01677000
v 0.02574100 0.01570100 -0.01643300
v 0.02541000 -0.00677200 -0.01653400
v 0.02577900 0.03566600 -0.01037300
v 0.02563300 0.03655700 -0.00491700
v 0.01962400 0.03692600 -0.01597200
v 0.02512500 0.03685200 -0.01106600
v 0.02557100 0.02117500 -0.01662100
v -0.02372000 -0.03830300 0.02230700
v -0.02590100 -0.02851800 0.02389900
v -0.02363200 -0.03815300 0.02928400
v -0.02545300 -0.03735800 0.02810100
v -0.02518800 -0.03769800 0.01875000
v -0.02343800 -0.03829200 0.01470700
v -0.02497600 -0.02100100 0.03368000
v -0.02575800 -0.03590700 0.01767900
v -0.02493200 0.00941600 0.03373000
v -0.02518800 -0.03729600 0.03251200
v -0.02368900 -0.03634500 0.03322700
v -0.02192200 -0.03845600 0.03318300
v -0.01857500 -0.03803500 0.03344900
v -0.02562800 -0.03361300 0.02928200
v -0.02573400 -0.01761900 0.03349100
v -0.02499400 -0.03159400 0.03359300
v 0.02057200 -0.01032600 0.03281300
v 0.01245200 -0.03861700 0.03313700
v 0.01782300 -0.03858400 0.03269300
v -0.01510200 -0.03861600 0.03275800
v 0.02296000 -0.03843600 0.03267700
v 0.02371800 -0.03824900 0.02844700
v 0.02494600 -0.03726900 0.03124800
v 0.02420200 -0.03500700 0.03275600
v -0.00877500 -0.03855700 0.03325800
v 0.02522500 -0.02494900 0.02957300
v 0.02492900 -0.01976500 0.03233800
v -0.00078400 -0.03840300 0.03335900
v 0.00582700 -0.03890000 0.03310400
v 0.02447000 -0.01032800 0.03267500
v -0.02474000 0.03807500 0.00780400
v -0.02496800 0.03277600 0.03018800
v -0.02526700 0.03792000 -0.00225500
v -0.02540800 0.03669400 0.00683200
v -0.02510700 0.03667200 0.01925200
v -0.02508900 0.03561000 0.02501200
v -0.02401300 0.03860400 -0.00291600
v -0.02540900 0.03365300 0.01614900
v -0.02547400 0.03493900 0.00476500
v -0.02536400 0.03669700 0.01153200
v -0.02408300 0.03798600 0.01225200
v -0.02480000 0.03756100 0.01485800
v -0.02405500 0.03669400 0.02669200
v -0.02459200 0.03546700 0.03269900
v -0.02467800 0.03169800 0.03345900
v -0.02390900 0.03755600 0.01883500
v -0.02196000 0.03595000 0.03330400
v -0.01841300 0.03632700 0.03351900
v -0.00571200 0.03617700 0.03324900
v -0.00083400 0.03647400 0.03306700
v -0.02498800 0.02601200 0.03205200
v -0.02310100 0.02826100 0.03354900
v 0.02133200 0.03287400 0.03262900
v 0.02601800 0.01718900 0.03109500
v 0.02558700 -0.00639300 0.02085100
v 0.02544300 0.00251400 0.03201700
v 0.02357300 0.01325800 0.03266000
v 0.02624500 0.03565700 0.02427700
v 0.02550000 0.02628700 0.03250600
v 0.02541100 0.03669100 0.02179800
v 0.02611200 0.02930500 0.03150500
v 0.02427700 0.03646900 0.02808500
v 0.02202200 0.03650300 0.03248400
v 0.02567600 0.03392300 0.03242800
v 0.02552000 0.01352800 0.03223600
v 0.02583000 0.03653500 0.00135200
v 0.01437600 0.03671900 0.03241000
v 0.01039500 0.03602500 0.03289600
v 0.02501200 0.03682300 0.01213800
v 0.02587800 0.03590700 0.03062300
v 0.02620800 0.03440800 0.02882200
f 110 52 6
f 6 52 12
f 12 5 6
f 12 14 5
f 137 131 129
f 129 131 141
f 92 94 95
f 52 110 105
f 105 110 109
f 18 2 8
f 8 12 18
f 18 12 7
f 42 69 62
f 46 12 52
f 7 12 46
f 62 60 59
f 59 42 62
f 132 141 135
f 133 141 131
f 25 30 27
f 8 2 1
f 21 1 2
f 92 31 93
f 93 94 92
f 93 38 94
f 33 36 94
f 52 105 104
f 81 87 86
f 87 78 86
f 86 78 80
f 80 116 86
f 41 2 19
f 19 18 41
f 2 18 19
f 47 49 41
f 41 18 47
f 47 18 49
f 48 69 45
f 49 18 51
f 51 46 52
f 51 18 7
f 7 46 51
f 41 49 51
f 131 137 70
f 137 68 70
f 70 68 62
f 69 48 70
f 62 69 70
f 67 68 137
f 67 137 129
f 67 60 62
f 62 68 67
f 129 65 67
f 67 65 60
f 94 36 66
f 36 33 66
f 66 26 24
f 71 59 60
f 60 65 71
f 123 116 80
f 88 95 128
f 129 141 142
f 141 132 142
f 125 142 132
f 129 142 125
f 126 66 125
f 125 65 129
f 125 66 65
f 83 84 87
f 32 30 24
f 31 30 32
f 32 33 31
f 24 26 32
f 26 66 32
f 32 66 33
f 24 30 23
f 23 30 25
f 23 61 24
f 29 30 31
f 31 27 29
f 29 27 30
f 20 1 25
f 3 21 2
f 41 51 40
f 54 53 40
f 40 51 54
f 25 1 22
f 22 21 25
f 1 21 22
f 25 21 39
f 39 23 25
f 61 23 39
f 39 59 58
f 42 59 39
f 69 42 39
f 34 93 31
f 31 33 34
f 6 5 73
f 73 110 6
f 109 110 73
f 73 86 109
f 122 86 116
f 116 103 122
f 122 103 86
f 115 103 116
f 115 118 114
f 116 118 115
f 45 44 57
f 57 44 54
f 131 70 140
f 140 70 48
f 140 48 45
f 140 57 131
f 45 57 140
f 65 66 63
f 63 71 65
f 61 71 63
f 59 71 64
f 64 71 61
f 58 59 64
f 64 39 58
f 61 39 64
f 119 123 80
f 119 118 116
f 116 123 119
f 114 118 119
f 135 124 130
f 124 128 130
f 136 132 135
f 136 127 132
f 135 130 136
f 97 125 94
f 126 125 97
f 94 66 97
f 97 66 126
f 132 127 98
f 98 125 132
f 94 125 98
f 98 95 94
f 127 136 98
f 98 130 95
f 98 136 130
f 82 87 81
f 81 83 82
f 82 83 87
f 87 84 99
f 99 78 87
f 80 78 99
f 100 27 31
f 100 13 27
f 8 1 9
f 21 3 55
f 55 39 21
f 55 3 2
f 55 2 41
f 41 40 55
f 43 40 53
f 43 55 40
f 39 55 43
f 69 39 43
f 38 93 37
f 93 34 37
f 111 104 105
f 111 106 104
f 111 105 109
f 79 73 5
f 103 115 107
f 107 115 106
f 109 86 107
f 86 103 107
f 107 111 109
f 106 111 107
f 134 133 131
f 131 138 134
f 141 133 134
f 135 141 134
f 134 124 135
f 28 66 24
f 28 63 66
f 24 61 28
f 61 63 28
f 117 138 112
f 117 119 138
f 114 119 117
f 101 128 95
f 95 130 101
f 101 130 128
f 17 72 76
f 74 83 81
f 74 72 83
f 4 72 17
f 84 83 96
f 96 99 84
f 83 100 96
f 96 100 99
f 90 31 92
f 92 100 90
f 90 100 31
f 89 100 92
f 99 100 89
f 92 95 89
f 89 95 88
f 88 128 89
f 89 119 80
f 80 99 89
f 91 100 83
f 27 13 16
f 13 9 16
f 8 9 11
f 11 9 13
f 11 12 8
f 14 12 11
f 11 4 14
f 13 4 11
f 45 69 56
f 69 43 56
f 56 44 45
f 56 43 53
f 56 53 54
f 54 44 56
f 38 37 35
f 35 37 34
f 94 38 35
f 35 33 94
f 35 34 33
f 104 106 113
f 113 102 104
f 113 115 114
f 106 115 113
f 114 117 113
f 112 102 113
f 113 117 112
f 108 102 112
f 108 57 54
f 112 138 108
f 108 138 131
f 131 57 108
f 73 79 85
f 81 86 85
f 86 73 85
f 124 134 139
f 139 128 124
f 139 89 128
f 83 72 77
f 77 91 83
f 100 91 77
f 27 16 10
f 10 16 9
f 10 9 1
f 1 20 10
f 25 27 10
f 10 20 25
f 104 102 50
f 102 108 50
f 50 108 54
f 54 51 50
f 52 104 50
f 50 51 52
f 81 85 75
f 75 85 79
f 75 79 5
f 5 14 75
f 17 76 75
f 14 4 75
f 75 4 17
f 75 74 81
f 75 76 72
f 72 74 75
f 121 139 134
f 138 119 121
f 121 134 138
f 13 100 15
f 100 77 15
f 15 4 13
f 72 4 15
f 15 77 72
f 120 121 119
f 139 121 120
f 119 89 120
f 89 139 120

