# https://github.com/mikedh/trimesh
v 0.00700858 0.01950718 0.01920232
v 0.00504427 0.01940560 0.01737483
v 0.00295185 0.01938303 0.01762609
v 0.00489481 0.01945075 0.01944635
v 0.00688048 0.01934917 0.02064840
v 0.05392792 0.01697515 0.02096112
v 0.05555061 0.01679456 0.01937042
v 0.05491007 0.01676069 0.01820452
v 0.02791144 0.01672683 0.00249465
v 0.02708942 0.01677198 0.00249465
v 0.02579767 0.01683970 0.00249465
v 0.00313333 0.01922877 0.01592694
v 0.02372660 0.01688861 0.00249465
v 0.00164942 0.01908957 0.01601190
v 0.00164942 0.01908957 0.01711815
v -0.02656623 0.00998477 0.02096112
v 0.00543927 0.01903313 0.02051645
v 0.00688048 0.01813394 0.02096112
v 0.05369305 0.01698267 0.02096112
v 0.05556129 0.01688109 0.02096112
v 0.05720533 0.01677951 0.02096112
v 0.05796330 0.01671931 0.02072793
v 0.05615912 0.01672307 0.01877572
v 0.05555061 0.01661396 0.01752848
v 0.03305709 0.01643337 0.00249465
v 0.03122088 0.01653872 0.00249465
v 0.02369457 0.01688861 0.00249465
v 0.02184769 0.01687733 0.00249465
v 0.01995810 0.01685099 0.00249465
v 0.01876244 0.01679079 0.00249465
v 0.01780163 0.01663278 0.00249465
v 0.01624299 0.01630546 0.00249465
v -0.00249271 0.01199761 0.00249465
v -0.00447838 0.01146712 0.00249465
v -0.02309666 0.01014279 0.01183092
v -0.02309666 0.01044377 0.01370359
v -0.02478340 0.00968002 0.01370359
v -0.03413524 0.00644443 0.02096112
v 0.05771776 0.01674565 0.02096112
v 0.05847573 0.01669297 0.02096112
v 0.05922302 0.01662149 0.02096112
v 0.05737614 0.01665535 0.01937042
v 0.06118733 0.01641456 0.02096112
v 0.05930843 0.01642585 0.01932343
v 0.05744019 0.01637318 0.01745075
v 0.03495735 0.01624150 0.00249465
v -0.00464919 0.01141445 0.00249465
v -0.02414287 0.00931508 0.01084939
v -0.02448448 0.00950696 0.01183092
v -0.02790068 0.00752045 0.01232078
v -0.02762312 0.00719690 0.01107353
v -0.03613158 0.00457080 0.02096112
v -0.02692920 0.00794936 0.01174957
v 0.06305557 0.01613239 0.02096112
v 0.06118733 0.01613239 0.01932343
v 0.05930843 0.01608348 0.01745075
v 0.06241503 0.01492469 0.01454774
v 0.03683625 0.01559814 0.00249465
v 0.06366408 0.01481182 0.01492734
v -0.00533243 0.01115109 0.00249465
v -0.01565575 0.00625255 0.00250007
v -0.02792203 0.00595157 0.01075178
v -0.01641372 0.00504485 0.00249465
v -0.03615293 0.00451437 0.02096112
v 0.06325840 0.01606467 0.02096112
v 0.06412313 0.01493973 0.01617639
v 0.06305557 0.01580507 0.01932343
v 0.06118733 0.01575616 0.01745075
v 0.06304489 0.01504884 0.01556181
v 0.03794652 0.01498488 0.00249465
v 0.06304489 0.01424371 0.01383555
v 0.06404840 0.01305858 0.01274014
v 0.06305557 0.01542884 0.01745075
v 0.06481704 0.01425123 0.01556181
v 0.06590596 0.01304729 0.01457666
v 0.06477434 0.01340095 0.01385362
v -0.01564507 0.00624879 0.00249465
v -0.01565575 0.00623374 0.00249465
v -0.02737758 0.00269717 0.00931112
v -0.02850919 0.00269717 0.01024746
v -0.02963013 0.00168511 0.01096688
v -0.01647777 0.00457080 0.00249465
v -0.02643812 0.00269717 0.00868930
v -0.03651591 0.00300944 0.02096112
v 0.06463556 0.01525577 0.01932343
v 0.06434732 0.01506765 0.01745075
v 0.06498785 0.01534606 0.02096112
v 0.06557501 0.01460865 0.01932343
v 0.06527609 0.01438291 0.01745075
v 0.03888597 0.01433024 0.00249465
v 0.06616217 0.01206157 0.01429648
v 0.06521204 0.01206157 0.01336015
v 0.06555366 0.01018793 0.01300405
v 0.06427258 0.01206157 0.01261542
v 0.06386692 0.00547752 0.01090361
v 0.04310285 0.01015031 0.00249465
v 0.04208866 0.01172296 0.00249465
v 0.04109583 0.01265977 0.00249465
v 0.04016705 0.01338590 0.00249465
v 0.06603406 0.01320531 0.01557808
v 0.07006945 0.00978913 0.02096112
v 0.07106228 0.00838955 0.02096112
v 0.07109431 0.00834064 0.02096112
v 0.06776351 0.01115485 0.01647284
v 0.06746460 0.01055664 0.01522379
v 0.06776351 0.00930755 0.01461282
v -0.02747366 0.00082354 0.00922074
v -0.02976892 0.00043602 0.01078251
v -0.01693682 -0.00089584 0.00249465
v -0.03655860 0.00269717 0.02096112
v 0.06575650 0.01477419 0.02066648
v 0.06540420 0.01506765 0.02096112
v 0.06575650 0.00884103 0.01285402
v 0.06418718 0.00422843 0.01078070
v 0.06461421 0.01018793 0.01239308
v 0.06791297 0.00831430 0.01449171
v 0.04374338 0.00847608 0.00249465
v 0.06624758 0.01344610 0.01745075
v 0.06817986 0.01163642 0.01932343
v 0.06917270 0.01088020 0.02096112
v 0.07206579 0.00668146 0.02096112
v 0.07146795 0.00734363 0.02029773
v 0.07124377 0.00688839 0.01932343
v 0.06932216 0.00867172 0.01713623
v 0.06963175 0.00742263 0.01647284
v 0.07123309 0.00457080 0.01713985
v 0.07030431 0.00457080 0.01580222
v 0.06935418 0.00457080 0.01486588
v -0.02976892 -0.00039169 0.01078251
v -0.01704358 -0.00288987 0.00249465
v -0.01704358 -0.00291996 0.00249465
v -0.03616361 0.00082354 0.02096112
v 0.06614082 0.01441677 0.02096112
v 0.06592731 0.00759194 0.01272387
v 0.06485975 0.00474010 0.01136817
v 0.06665325 0.00825411 0.01345053
v 0.06817986 0.00644443 0.01428745
v 0.06631163 0.00457080 0.01241658
v 0.06643974 0.00269717 0.01230812
v 0.06649312 0.00082354 0.01229547
v 0.06418718 0.00305835 0.01078070
v 0.04599593 -0.00114792 0.00249465
v 0.04467215 0.00456328 0.00249465
v 0.06650379 0.01400292 0.02096112
v 0.07211916 0.00657988 0.02096112
v 0.07148930 0.00551514 0.01837986
v 0.07076336 0.00626008 0.01763332
v 0.07250349 0.00457080 0.02096112
v 0.07155336 0.00315993 0.01798038
v 0.07131849 0.00259935 0.01739472
v 0.07035769 0.00269717 0.01568111
v 0.06949296 0.00269717 0.01474477
v 0.06841473 0.00457080 0.01410126
v -0.02787933 -0.00404866 0.01082227
v -0.02861595 -0.00460924 0.01193033
v -0.02967284 -0.00392450 0.01272568
v -0.01690480 -0.00469954 0.00249465
v -0.01660588 -0.00666347 0.00249465
v -0.01673399 -0.00776582 0.00308212
v -0.03541632 -0.00104633 0.02096112
v 0.06607677 0.00644443 0.01260276
v 0.06855351 0.00269717 0.01399281
v 0.06737919 0.00269717 0.01305466
v 0.06743257 0.00082354 0.01301670
v 0.06744325 -0.00104633 0.01297874
v 0.06734717 -0.00291996 0.01296971
v 0.04559026 -0.00275819 0.00249465
v 0.07247146 0.00474387 0.02096112
v 0.07239673 0.00268588 0.02096112
v 0.07217255 0.00073700 0.02096112
v 0.07216187 0.00067681 0.02096112
v 0.07186295 -0.00064000 0.02096112
v 0.06983458 -0.00104633 0.01595044
v 0.06947161 -0.00104633 0.01501410
v 0.07010147 0.00082354 0.01566484
v 0.06953567 0.00082354 0.01472850
v 0.06859621 0.00082354 0.01395304
v -0.02595772 -0.00770563 0.01086023
v -0.02810352 -0.00634367 0.01238585
v -0.02777257 -0.00759276 0.01277991
v -0.02935256 -0.00516983 0.01335653
v -0.01573048 -0.00803671 0.00249465
v -0.02419624 -0.00968084 0.01083493
v -0.02544529 -0.00895471 0.01129406
v -0.03432740 -0.00283343 0.02096112
v 0.06854283 -0.00104633 0.01391508
v 0.06832932 -0.00291996 0.01390604
v 0.06805176 -0.00443241 0.01415730
v 0.06694149 -0.00489518 0.01352464
v 0.06616217 -0.00410886 0.01268772
v 0.04444797 -0.00463934 0.00249465
v 0.07173484 -0.00104633 0.02096112
v 0.06924743 -0.00283719 0.01565580
v -0.02639542 -0.00841294 0.01188333
v -0.03137026 -0.00666347 0.02096112
v -0.03282214 -0.00479360 0.02096112
v -0.03427402 -0.00291996 0.02096112
v -0.02604312 -0.00961688 0.01254130
v -0.01566643 -0.00805552 0.00249465
v -0.02309666 -0.01064023 0.01183092
v -0.02487948 -0.01001945 0.01188333
v 0.06829729 -0.00495161 0.01545154
v 0.06771014 -0.00568150 0.01474296
v 0.06598069 -0.00775454 0.01450255
v 0.06639704 -0.00666347 0.01416092
v 0.06422989 -0.00978242 0.01445375
v 0.04062610 -0.01046716 0.00249465
v 0.04074353 -0.01033925 0.00249465
v 0.04200326 -0.00865373 0.00249465
v 0.07087012 -0.00297264 0.02096112
v -0.02900027 -0.00854462 0.02096112
v -0.02614988 -0.00971094 0.01370359
v -0.02496489 -0.01047469 0.01370359
v -0.01372346 -0.00858225 0.00249465
v -0.02296855 -0.01120458 0.01358248
v 0.00401941 -0.01323999 0.00249465
v -0.00158529 -0.01885712 0.01832202
v 0.06788095 -0.00594486 0.01599202
v 0.06781689 -0.00771691 0.01997417
v 0.06763541 -0.00744979 0.01872511
v 0.06711230 -0.00842047 0.01933969
v 0.06608744 -0.00976737 0.01932343
v 0.06591663 -0.00953411 0.01824429
v 0.06571380 -0.00927075 0.01699524
v 0.06619420 -0.00802919 0.01557808
v 0.06451813 -0.01016242 0.01557808
v 0.06360002 -0.01109923 0.01557808
v 0.06225489 -0.01140022 0.01458209
v 0.03909948 -0.01180655 0.00249465
v 0.04044461 -0.01065904 0.00249465
v 0.06793432 -0.00791255 0.02096112
v -0.02684380 -0.00962064 0.02096112
v -0.00158529 -0.01885712 0.01844313
v 0.01624299 -0.01552371 0.00249465
v 0.01626434 -0.01552748 0.00249465
v 0.01810055 -0.01578331 0.00249465
v 0.01997946 -0.01579836 0.00249465
v -0.00146786 -0.01885712 0.01832202
v 0.00062456 -0.01892861 0.01998501
v -0.00067786 -0.01889098 0.01921497
v 0.00011214 -0.01892861 0.02045318
v 0.06730446 -0.00883432 0.02096112
v 0.06396300 -0.01133250 0.01658672
v 0.06635433 -0.01007588 0.02096112
v 0.06267125 -0.01152437 0.01557808
v 0.03308911 -0.01482392 0.00249465
v 0.03496802 -0.01413918 0.00249465
v 0.03498937 -0.01412790 0.00249465
v 0.03627045 -0.01343187 0.00249465
v 0.03720990 -0.01290138 0.00249465
v 0.03751950 -0.01272455 0.00249465
v 0.03887530 -0.01194575 0.00249465
v 0.00114767 -0.01811218 0.02096112
v 0.02000081 -0.01579836 0.00249465
v 0.02187972 -0.01577579 0.00249465
v 0.02562686 -0.01573064 0.00249465
v 0.02747374 -0.01565916 0.00249465
v 0.00062456 -0.01892861 0.02045318
v 0.02934197 -0.01545223 0.00249465
v 0.05930843 -0.01239347 0.02096112
v 0.06623690 -0.01019252 0.02096112
v 0.06530812 -0.01101270 0.02096112
v 0.06410178 -0.01141903 0.01783577
v 0.06322638 -0.01161467 0.01730795
v 0.06118733 -0.01199090 0.01745075
v 0.03189344 -0.01505342 0.00249465
v 0.00119037 -0.01811218 0.02096112
v 0.06118733 -0.01207744 0.01932343
v 0.06118733 -0.01211506 0.02096112
v 0.06436866 -0.01146042 0.02096112
v 0.06420853 -0.01145665 0.01932343
v 0.06305557 -0.01174635 0.01932343
v 0.06305557 -0.01175387 0.02096112
v 0.06422989 -0.01149804 0.02096112
f 1 2 3
f 1 3 4
f 1 4 5
f 1 5 6
f 1 6 7
f 1 7 8
f 1 8 9
f 1 9 10
f 1 10 11
f 1 11 2
f 2 12 3
f 2 11 13
f 2 13 12
f 3 12 14
f 3 14 15
f 3 15 16
f 3 16 4
f 4 17 5
f 4 16 17
f 5 17 16
f 5 16 18
f 5 18 19
f 5 19 6
f 6 19 18
f 6 18 16
f 6 16 38
f 6 38 52
f 6 52 64
f 6 64 84
f 6 84 110
f 6 110 132
f 6 132 160
f 6 160 185
f 6 185 197
f 6 197 196
f 6 196 195
f 6 195 211
f 6 211 232
f 6 232 253
f 6 253 267
f 6 267 260
f 6 260 269
f 6 269 273
f 6 273 274
f 6 274 270
f 6 270 262
f 6 262 261
f 6 261 244
f 6 244 242
f 6 242 231
f 6 231 210
f 6 210 192
f 6 192 172
f 6 172 171
f 6 171 170
f 6 170 169
f 6 169 148
f 6 148 168
f 6 168 145
f 6 145 121
f 6 121 103
f 6 103 102
f 6 102 101
f 6 101 120
f 6 120 144
f 6 144 133
f 6 133 112
f 6 112 87
f 6 87 65
f 6 65 54
f 6 54 43
f 6 43 41
f 6 41 40
f 6 40 39
f 6 39 21
f 6 21 20
f 6 20 7
f 7 20 21
f 7 21 22
f 7 22 23
f 7 23 8
f 8 23 24
f 8 24 25
f 8 25 26
f 8 26 9
f 9 26 25
f 9 25 46
f 9 46 58
f 9 58 70
f 9 70 90
f 9 90 99
f 9 99 98
f 9 98 97
f 9 97 96
f 9 96 117
f 9 117 143
f 9 143 142
f 9 142 167
f 9 167 191
f 9 191 209
f 9 209 208
f 9 208 207
f 9 207 230
f 9 230 229
f 9 229 252
f 9 252 251
f 9 251 250
f 9 250 249
f 9 249 248
f 9 248 247
f 9 247 246
f 9 246 266
f 9 266 259
f 9 259 257
f 9 257 256
f 9 256 255
f 9 255 254
f 9 254 237
f 9 237 236
f 9 236 235
f 9 235 234
f 9 234 216
f 9 216 214
f 9 214 199
f 9 199 182
f 9 182 158
f 9 158 157
f 9 157 131
f 9 131 130
f 9 130 109
f 9 109 82
f 9 82 63
f 9 63 78
f 9 78 77
f 9 77 60
f 9 60 47
f 9 47 34
f 9 34 33
f 9 33 32
f 9 32 31
f 9 31 30
f 9 30 29
f 9 29 28
f 9 28 27
f 9 27 13
f 9 13 11
f 9 11 10
f 12 13 27
f 12 27 28
f 12 28 29
f 12 29 30
f 12 30 14
f 14 30 31
f 14 31 32
f 14 32 33
f 14 33 34
f 14 34 35
f 14 35 36
f 14 36 16
f 14 16 15
f 16 36 37
f 16 37 38
f 21 39 22
f 22 39 40
f 22 40 23
f 23 40 41
f 23 41 42
f 23 42 43
f 23 43 44
f 23 44 24
f 24 44 45
f 24 45 46
f 24 46 25
f 34 47 35
f 35 48 49
f 35 49 37
f 35 37 36
f 35 47 48
f 37 49 38
f 38 50 51
f 38 51 52
f 38 49 53
f 38 53 50
f 41 43 42
f 43 54 44
f 44 54 55
f 44 55 56
f 44 56 45
f 45 56 57
f 45 57 46
f 46 57 59
f 46 59 58
f 47 60 48
f 48 61 51
f 48 51 53
f 48 53 49
f 48 60 61
f 50 53 51
f 51 62 52
f 51 61 63
f 51 63 62
f 52 62 64
f 54 65 66
f 54 66 59
f 54 59 67
f 54 67 55
f 55 68 56
f 55 67 73
f 55 73 68
f 56 68 69
f 56 69 59
f 56 59 57
f 58 59 71
f 58 71 72
f 58 72 70
f 59 73 67
f 59 66 74
f 59 74 75
f 59 75 76
f 59 76 72
f 59 72 71
f 59 69 73
f 60 77 61
f 61 77 78
f 61 78 63
f 62 79 80
f 62 80 81
f 62 81 64
f 62 63 79
f 63 82 83
f 63 83 79
f 64 81 84
f 65 85 86
f 65 86 66
f 65 87 85
f 66 86 88
f 66 88 89
f 66 89 74
f 68 73 69
f 70 72 90
f 72 76 75
f 72 75 91
f 72 91 92
f 72 92 93
f 72 93 94
f 72 94 95
f 72 95 96
f 72 96 97
f 72 97 98
f 72 98 99
f 72 99 90
f 74 89 75
f 75 89 100
f 75 100 101
f 75 101 102
f 75 102 103
f 75 103 104
f 75 104 105
f 75 105 106
f 75 106 91
f 79 83 107
f 79 107 108
f 79 108 80
f 80 108 81
f 81 108 84
f 82 109 107
f 82 107 83
f 84 108 110
f 85 87 111
f 85 111 86
f 86 111 88
f 87 112 111
f 88 111 100
f 88 100 89
f 91 106 92
f 92 106 93
f 93 113 114
f 93 114 115
f 93 115 94
f 93 106 116
f 93 116 113
f 94 115 114
f 94 114 95
f 95 114 96
f 96 114 117
f 100 111 118
f 100 118 119
f 100 119 101
f 101 119 120
f 103 121 122
f 103 122 104
f 104 122 123
f 104 123 124
f 104 124 125
f 104 125 105
f 105 125 106
f 106 125 126
f 106 126 127
f 106 127 128
f 106 128 116
f 107 129 108
f 107 109 130
f 107 130 131
f 107 131 129
f 108 129 110
f 110 129 132
f 111 112 133
f 111 133 118
f 113 134 135
f 113 135 114
f 113 116 136
f 113 136 137
f 113 137 134
f 114 135 138
f 114 138 139
f 114 139 140
f 114 140 141
f 114 141 142
f 114 142 143
f 114 143 117
f 116 137 136
f 116 128 137
f 118 144 120
f 118 120 119
f 118 133 144
f 121 145 122
f 122 145 146
f 122 146 123
f 123 146 124
f 124 146 147
f 124 147 125
f 125 147 126
f 126 147 146
f 126 146 148
f 126 148 149
f 126 149 150
f 126 150 151
f 126 151 127
f 127 151 152
f 127 152 128
f 128 152 153
f 128 153 137
f 129 154 155
f 129 155 156
f 129 156 132
f 129 131 157
f 129 157 158
f 129 158 159
f 129 159 154
f 132 156 160
f 134 161 135
f 134 137 161
f 135 161 138
f 137 153 138
f 137 138 161
f 138 153 152
f 138 152 162
f 138 162 163
f 138 163 139
f 139 163 164
f 139 164 140
f 140 164 165
f 140 165 166
f 140 166 141
f 141 166 142
f 142 166 167
f 145 168 146
f 146 168 148
f 148 169 149
f 149 169 150
f 150 169 170
f 150 170 171
f 150 171 172
f 150 172 173
f 150 173 174
f 150 174 175
f 150 175 151
f 151 175 174
f 151 174 176
f 151 176 152
f 152 176 177
f 152 177 164
f 152 164 162
f 154 178 155
f 154 159 178
f 155 178 179
f 155 179 156
f 156 179 180
f 156 180 181
f 156 181 160
f 158 182 159
f 159 182 183
f 159 183 184
f 159 184 178
f 160 181 180
f 160 180 185
f 162 164 163
f 164 177 165
f 165 177 176
f 165 176 186
f 165 186 166
f 166 186 187
f 166 187 188
f 166 188 189
f 166 189 190
f 166 190 167
f 167 190 191
f 172 192 193
f 172 193 173
f 173 193 174
f 174 193 188
f 174 188 187
f 174 187 176
f 176 187 186
f 178 184 194
f 178 194 180
f 178 180 179
f 180 195 196
f 180 196 197
f 180 197 185
f 180 194 198
f 180 198 195
f 182 199 200
f 182 200 183
f 183 200 201
f 183 201 198
f 183 198 184
f 184 198 194
f 188 193 202
f 188 202 203
f 188 203 204
f 188 204 205
f 188 205 189
f 189 205 206
f 189 206 190
f 190 206 207
f 190 207 208
f 190 208 209
f 190 209 191
f 192 210 202
f 192 202 193
f 195 198 212
f 195 212 211
f 198 201 213
f 198 213 212
f 199 214 200
f 200 215 201
f 200 214 216
f 200 216 217
f 200 217 215
f 201 215 213
f 202 210 203
f 203 210 218
f 203 218 219
f 203 219 220
f 203 220 221
f 203 221 222
f 203 222 223
f 203 223 224
f 203 224 225
f 203 225 226
f 203 226 204
f 204 226 206
f 204 206 205
f 206 226 227
f 206 227 228
f 206 228 229
f 206 229 230
f 206 230 207
f 210 231 219
f 210 219 218
f 211 212 213
f 211 213 232
f 213 215 232
f 215 233 232
f 215 217 233
f 216 234 217
f 217 234 235
f 217 235 236
f 217 236 237
f 217 237 254
f 217 254 238
f 217 238 239
f 217 239 240
f 217 240 241
f 217 241 233
f 219 231 242
f 219 242 220
f 220 242 221
f 221 242 222
f 222 243 224
f 222 224 223
f 222 242 244
f 222 244 243
f 224 243 225
f 225 243 226
f 226 243 227
f 227 243 228
f 228 243 245
f 228 245 246
f 228 246 247
f 228 247 248
f 228 248 249
f 228 249 250
f 228 250 251
f 228 251 252
f 228 252 229
f 232 233 241
f 232 241 253
f 238 254 255
f 238 255 256
f 238 256 257
f 238 257 239
f 239 258 241
f 239 241 240
f 239 257 259
f 239 259 260
f 239 260 258
f 241 258 267
f 241 267 253
f 243 244 261
f 243 261 262
f 243 262 263
f 243 263 264
f 243 264 245
f 245 264 265
f 245 265 266
f 245 266 246
f 258 260 267
f 259 266 265
f 259 265 268
f 259 268 260
f 260 268 269
f 262 270 271
f 262 271 263
f 263 271 272
f 263 272 264
f 264 272 265
f 265 272 268
f 268 272 269
f 269 272 273
f 270 274 271
f 271 274 272
f 272 274 273

