# https://github.com/mikedh/trimesh
v -0.01748013 0.02741636 0.04367472
v -0.02122644 0.02680837 0.04741922
v -0.01748013 0.02721546 0.04554954
v -0.01561136 0.02724189 0.04367472
v -0.01561136 0.02705685 0.04180503
v -0.01748013 0.02720488 0.04180503
v -0.01935768 0.02701984 0.04180503
v -0.04118631 0.02426539 0.03889777
v -0.04370432 0.02407506 0.03993020
v -0.04465187 0.02423895 0.04830783
v -0.04471328 0.02425482 0.04928891
v -0.04482734 0.02428125 0.05116373
v -0.04370432 0.02441342 0.05116373
v -0.04480102 0.02427596 0.05240162
v -0.03995801 0.02470420 0.05303855
v -0.03808924 0.02487866 0.05303855
v -0.02310399 0.02648587 0.04928891
v -0.03621169 0.02504256 0.05303855
v -0.01935768 0.02687710 0.04741922
v -0.02122644 0.02653874 0.04928891
v -0.01225986 0.02452445 0.06018856
v -0.01561136 0.02698284 0.04554954
v -0.02685030 0.02581444 0.05303855
v -0.02310399 0.02624796 0.05088122
v -0.01424269 0.02653345 0.04367472
v -0.01436552 0.02646472 0.04180503
v -0.01450590 0.02627440 0.03993020
v -0.01461118 0.02615808 0.03886181
v -0.01748013 0.02660218 0.03993020
v -0.01935768 0.02654931 0.03993020
v -0.02352512 0.02609464 0.03908268
v -0.01225986 0.02313400 0.02927197
v -0.03567651 0.02428654 0.03702808
v -0.03692235 0.02420723 0.03720786
v -0.04181800 0.02394818 0.03818893
v -0.04370432 0.02364683 0.03805538
v -0.08222904 0.01862960 0.04270392
v -0.02685030 0.02553952 0.03805538
v -0.03059661 0.02514830 0.03805538
v -0.08490499 0.01838640 0.04367472
v -0.04427460 0.02418080 0.05364979
v -0.04367800 0.02433412 0.05302828
v -0.04183555 0.02451916 0.05303855
v -0.08490499 0.01832825 0.04554954
v -0.08231678 0.01865603 0.04683880
v -0.07928990 0.01890451 0.04928891
v -0.08029009 0.01862960 0.05026484
v -0.04302876 0.02427068 0.05402476
v -0.02871907 0.02567698 0.05303855
v -0.02497276 0.02619509 0.05077336
v -0.01225986 0.02391646 0.06112854
v -0.01225986 0.02469363 0.04558036
v -0.02497276 0.02583030 0.05303855
v -0.02685030 0.02542321 0.05490824
v -0.02871907 0.02530690 0.05490824
v -0.03995801 0.02445572 0.05431754
v -0.04183555 0.02434469 0.05413776
v -0.01225986 0.02469363 0.04554954
v -0.01225986 0.02359396 0.03096701
v -0.02227927 0.02611050 0.03898509
v -0.02497276 0.02567698 0.03805538
v -0.03059661 0.02459318 0.03647848
v -0.01225986 0.02296482 0.02905624
v -0.03542207 0.02238856 0.03333494
v -0.03434292 0.02246257 0.03321680
v -0.03434292 0.02304412 0.03431088
v -0.03626434 0.02384773 0.03631411
v -0.03434292 0.02436584 0.03686886
v -0.03246538 0.02447686 0.03665312
v -0.03808924 0.02355695 0.03618570
v -0.03995801 0.02402219 0.03775233
v -0.03995801 0.02327675 0.03618570
v -0.08543140 0.01481248 0.03536900
v -0.08482602 0.01630867 0.03820434
v -0.08539630 0.01666817 0.03915459
v -0.08482602 0.01708583 0.03983775
v -0.08490499 0.01795817 0.04180503
v -0.08677376 0.01797403 0.04367472
v -0.08490499 0.01763038 0.05116373
v -0.08677376 0.01690080 0.05252490
v -0.08677376 0.01788944 0.04554954
v -0.08490499 0.01814321 0.04741922
v -0.08490499 0.01794231 0.04928891
v -0.08154471 0.01852386 0.04928891
v -0.08061471 0.01868247 0.04928891
v -0.08490499 0.01568482 0.05678306
v -0.08612451 0.01501339 0.05788741
v -0.04370432 0.01341147 0.06753375
v -0.01225986 0.02372084 0.06132372
v -0.03434292 0.02172241 0.03227682
v -0.01225986 0.02132061 0.02739715
v -0.02497276 0.01896267 0.02738174
v -0.08490499 0.01335331 0.03301134
v -0.08485234 0.01437368 0.03446497
v -0.08635263 0.01319471 0.03317571
v -0.08689658 0.01365995 0.03416706
v -0.08677376 0.01461158 0.03577992
v -0.08677376 0.01646199 0.03957065
v -0.08677376 0.01691666 0.04051063
v -0.08677376 0.01752993 0.04180503
v -0.08800205 0.01698010 0.04180503
v -0.08831790 0.01721272 0.04367472
v -0.08830913 0.01717042 0.04554954
v -0.08677376 0.01724444 0.05116373
v -0.08775639 0.01677391 0.05218076
v -0.08808979 0.01700125 0.04928891
v -0.08677376 0.01751936 0.04928891
v -0.08676498 0.01523015 0.05671115
v -0.08783535 0.01496052 0.05603826
v -0.08737036 0.01460101 0.05728644
v -0.08805469 0.01335331 0.05802609
v -0.08661583 0.01380798 0.05858083
v -0.08586130 0.01300967 0.05960300
v -0.04370432 0.01206332 0.06840182
v -0.03621169 0.01272418 0.06885383
v -0.03476406 0.01288278 0.06891547
v -0.03351821 0.01300967 0.06896684
v -0.02685030 0.01443712 0.06864837
v -0.02685030 0.01542047 0.06771352
v -0.08621224 0.00754305 0.06346050
v -0.01225986 0.02277450 0.06222261
v -0.02497276 0.01555793 0.06779571
v -0.01225986 0.01946492 0.02578429
v -0.02497276 0.01796874 0.02644176
v -0.08490499 0.01226422 0.03207650
v -0.02649936 0.01689022 0.02576374
v -0.08601045 0.01118041 0.03146012
v -0.08725630 0.01094779 0.03165531
v -0.08760724 0.01293565 0.03344795
v -0.08773884 0.01489179 0.03707945
v -0.08772130 0.01674748 0.04085478
v -0.08894083 0.01623465 0.04180503
v -0.08925667 0.01648842 0.04367472
v -0.09181855 0.01327930 0.04029490
v -0.09716165 0.00931415 0.04074691
v -0.09141497 0.01483892 0.04554954
v -0.09047620 0.01555793 0.04554954
v -0.08924790 0.01649371 0.04554954
v -0.08913384 0.01641440 0.04741922
v -0.08790554 0.01687436 0.05116373
v -0.08860743 0.01577469 0.05296150
v -0.09338025 0.01303081 0.05034189
v -0.10086410 0.00742146 0.05029052
v -0.09757401 0.00962079 0.05116373
v -0.09518760 0.01111168 0.05205748
v -0.08981818 0.01505039 0.05249408
v -0.08901978 0.01632981 0.04928891
v -0.08910752 0.01450056 0.05490824
v -0.09151148 0.01303610 0.05405044
v -0.09395930 0.01160865 0.05303855
v -0.09051129 0.01347491 0.05476955
v -0.09724062 0.00937759 0.05226807
v -0.08987959 0.01323172 0.05616154
v -0.08930054 0.01269774 0.05740971
v -0.09174836 0.00955206 0.05800041
v -0.09605619 0.00447139 0.05858083
v -0.09480156 0.00509524 0.05921776
v -0.09541571 0.00384754 0.05976223
v -0.08918648 0.01072046 0.05925885
v -0.08793186 0.01134431 0.05976736
v -0.08711592 0.01259201 0.05927426
v -0.08776516 0.00929829 0.06150350
v -0.08745809 0.00725228 0.06323964
v -0.04370432 0.01093193 0.06889492
v -0.03995801 0.01230651 0.06867919
v -0.03808924 0.01251799 0.06876651
v -0.08490499 0.00644339 0.06437480
v -0.04255498 0.01107468 0.06894115
v -0.03995801 0.01137074 0.06903875
v -0.03246538 0.01206332 0.06935721
v -0.02871907 0.01206332 0.06962944
v -0.02685030 0.01206332 0.06975785
v -0.02871907 0.01335331 0.06914148
v -0.02685030 0.01350134 0.06920311
v -0.02497276 0.01453757 0.06873055
v -0.08680885 0.00655441 0.06390738
v -0.01225986 0.01888865 0.06585412
v -0.01225986 0.01920587 0.02557883
v -0.08303622 0.01152406 0.03117248
v -0.08490499 0.01132844 0.03134712
v -0.03059661 0.01440011 0.02441284
v -0.02871907 0.01453757 0.02424848
v -0.08669479 0.01027107 0.03097215
v -0.08472074 0.01000144 0.03032495
v -0.08522083 0.00908153 0.02975480
v -0.08677376 0.00887006 0.02993458
v -0.08799327 0.00766465 0.02942093
v -0.08815121 0.01333745 0.03469611
v -0.08808979 0.00970009 0.03116220
v -0.08817752 0.01168795 0.03290347
v -0.09128337 0.01091607 0.03545632
v -0.09550345 0.00949919 0.03868204
v -0.08939705 0.01281934 0.03555391
v -0.08804592 0.01512970 0.03805538
v -0.08856356 0.01387142 0.03631925
v -0.09111667 0.01272946 0.03805538
v -0.09477525 0.01078919 0.03993020
v -0.09332761 0.01298852 0.04280151
v -0.09041478 0.01555265 0.04367472
v -0.09353817 0.01316299 0.04554954
v -0.09347675 0.01123328 0.03876936
v -0.09613515 0.00976882 0.04004321
v -0.09675807 0.00886477 0.03949874
v -0.09899533 0.00745318 0.04078800
v -0.09824080 0.00855813 0.04180503
v -0.09730203 0.00943575 0.04180503
v -0.09663524 0.01076804 0.04741922
v -0.09878476 0.00911854 0.04928891
v -0.09784600 0.00984284 0.04928891
v -0.09355572 0.01316827 0.04741922
v -0.09660892 0.01077861 0.04928891
v -0.09345921 0.01308897 0.04928891
v -0.09123950 0.01471203 0.04928891
v -0.10086410 0.00742146 0.04998233
v -0.10117994 0.00456655 0.04928891
v -0.10146070 0.00082346 0.05116373
v -0.10094306 0.00644339 0.05051653
v -0.10113608 0.00082346 0.05275091
v -0.10095183 0.00269500 0.05234513
v -0.10083778 0.00369951 0.05212939
v -0.10070617 0.00494721 0.05180066
v -0.09895146 0.00362020 0.05584308
v -0.09907429 0.00566093 0.05413776
v -0.09909184 0.00752191 0.05224753
v -0.09173081 0.01140775 0.05613586
v -0.09115176 0.01079976 0.05738403
v -0.09544204 0.00575081 0.05796445
v -0.09726693 0.00384754 0.05794391
v -0.09666156 0.00310738 0.05919208
v -0.09713533 0.00185968 0.05964409
v -0.09337147 0.00366779 0.06148809
v -0.08876535 0.00655441 0.06286467
v -0.09150270 0.00554991 0.06150350
v -0.09221336 0.00626363 0.06038888
v -0.09354694 0.00572437 0.05976223
v -0.08980940 0.00947276 0.05976223
v -0.08901101 0.00867444 0.06101554
v -0.08963393 0.00742674 0.06150350
v -0.08821262 0.00600458 0.06366597
v -0.04370432 0.00999616 0.06919284
v -0.08303622 0.00520626 0.06515041
v -0.08508046 0.00455598 0.06509391
v -0.08677376 0.00456655 0.06475491
v -0.04189696 0.01034509 0.06922366
v -0.03333397 0.00736330 0.07082625
v -0.03261453 0.00820391 0.07060537
v -0.02871907 0.00881190 0.07068756
v -0.02685030 0.00900751 0.07075434
v -0.02415682 0.00927714 0.07084166
v -0.02122644 0.01050369 0.07063106
v -0.01748013 0.01086320 0.07074919
v -0.02497276 0.01206332 0.06987600
v -0.02310399 0.01206332 0.06998386
v -0.02497276 0.01360179 0.06926475
v -0.02310399 0.01363352 0.06931098
v -0.02310399 0.01457458 0.06876137
v -0.01373382 0.01702768 0.06730774
v -0.01561136 0.01696952 0.06728206
v -0.01225986 0.01775198 0.06677869
v -0.01225986 0.01204217 0.02096112
v -0.01346184 0.01223778 0.02096112
v -0.01545344 0.01225365 0.02096112
v -0.01713796 0.01220078 0.02096112
v -0.01749768 0.01217434 0.02096112
v -0.08303622 0.01030279 0.03023250
v -0.03059661 0.01346434 0.02368860
v -0.08397498 0.00925071 0.02962639
v -0.08677376 0.00793428 0.02925143
v -0.08677376 0.00644339 0.02849123
v -0.08863375 0.00632179 0.02918979
v -0.08965148 0.00561864 0.02956989
v -0.08924790 0.00686634 0.02997054
v -0.08866884 0.00830965 0.03056637
v -0.08934441 0.00895465 0.03175290
v -0.08876535 0.01031866 0.03232819
v -0.08943214 0.01093722 0.03353527
v -0.09490685 0.00889649 0.03743387
v -0.09608251 0.00825678 0.03812216
v -0.09725816 0.00761178 0.03881045
v -0.09308195 0.01086320 0.03752119
v -0.09243270 0.01172496 0.03811189
v -0.09747750 0.00959436 0.04367472
v -0.09544204 0.01132316 0.04367472
v -0.09135355 0.01478076 0.04367472
v -0.09447695 0.01238582 0.04554954
v -0.09778458 0.00983226 0.04741922
v -0.09880231 0.00495778 0.03925219
v -0.09896901 0.00371008 0.03895941
v -0.09911816 0.00644339 0.04053118
v -0.10083778 -0.00379197 0.03896968
v -0.09947787 0.00644339 0.04180503
v -0.10075881 0.00712539 0.04873417
v -0.09911816 0.00762236 0.04180503
v -0.09756523 0.00644339 0.03844062
v -0.09850401 0.00644339 0.03959633
v -0.09710901 0.00182267 0.03520976
v -0.09728448 0.00082346 0.03494267
v -0.09841627 0.00877489 0.04367472
v -0.09931117 0.00783912 0.04367472
v -0.09872335 0.00905510 0.04741922
v -0.10096061 0.00647511 0.04933000
v -0.09856543 0.00892821 0.04554954
v -0.10119749 0.00269500 0.04741922
v -0.10139929 -0.00479119 0.04180503
v -0.10135542 -0.00104281 0.04554954
v -0.10131155 0.00269500 0.04928891
v -0.10163618 -0.00104281 0.05116373
v -0.10089919 0.00587241 0.04799965
v -0.10098693 0.00458770 0.04739354
v -0.10184674 -0.00479119 0.05303855
v -0.10159230 -0.00291964 0.05303855
v -0.10109221 -0.00291964 0.05448191
v -0.10093429 -0.00148162 0.05418913
v -0.10047806 -0.00093178 0.05485174
v -0.09950419 0.00288004 0.05509315
v -0.09909184 0.00237251 0.05611532
v -0.09877599 0.00082346 0.05738403
v -0.09727571 0.00570851 0.05605368
v -0.09358204 0.00950977 0.05611017
v -0.09484543 0.00699851 0.05732753
v -0.09668788 0.00509524 0.05730185
v -0.09239761 0.00082346 0.06244348
v -0.09352062 0.00269500 0.06157028
v -0.10057457 -0.00291964 0.05541675
v -0.10128523 -0.00479119 0.05463087
v -0.10053948 -0.00479119 0.05556571
v -0.09713533 0.00150546 0.05964409
v -0.08782658 -0.00151862 0.06527369
v -0.09239761 0.00269500 0.06219693
v -0.08976554 0.00397971 0.06343483
v -0.08876535 0.00458770 0.06385602
v -0.08945846 0.00522741 0.06323964
v -0.04370432 0.00644339 0.07030232
v -0.04183555 0.00644339 0.07045128
v -0.03958952 0.00564507 0.07087761
v -0.04183555 0.00831494 0.06986572
v -0.03434292 0.00630064 0.07108307
v -0.08582620 0.00362549 0.06521205
v -0.08865130 0.00269500 0.06426180
v -0.08747564 0.00082346 0.06511960
v -0.08680007 0.00288004 0.06503741
v -0.08619469 0.00237251 0.06533019
v -0.03261453 0.00661785 0.07111389
v -0.03059661 0.00644339 0.07131935
v -0.02871907 0.00644339 0.07145803
v -0.03207935 0.00750076 0.07087247
v -0.02685030 0.00644339 0.07158644
v -0.02485870 0.00844182 0.07106766
v -0.02122644 0.00956792 0.07093411
v -0.01935768 0.00975296 0.07099061
v -0.01748013 0.00992743 0.07103171
v -0.01561136 0.01099537 0.07079543
v -0.02122644 0.01364409 0.06933666
v -0.01561136 0.01206332 0.07026123
v -0.02122644 0.01458515 0.06878192
v -0.01373382 0.01580641 0.06808336
v -0.01225986 0.01701711 0.06725638
v -0.01225986 -0.01193374 0.02096112
v -0.01934013 0.01173553 0.02096112
v -0.02656955 0.00998030 0.02096112
v -0.08490499 0.00525913 0.02782862
v -0.08684394 0.00459827 0.02793135
v -0.04370432 0.00603101 0.02187028
v -0.08865130 0.00456655 0.02867614
v -0.08985327 0.00456655 0.02945175
v -0.09343289 0.00194427 0.03141903
v -0.09309072 0.00319197 0.03175804
v -0.09149393 0.00556577 0.03146526
v -0.09395053 0.00644339 0.03459852
v -0.09541571 0.00764879 0.03690481
v -0.09110790 0.00681347 0.03186077
v -0.09356449 0.00766465 0.03500431
v -0.09171327 0.00768580 0.03310894
v -0.08986204 0.00770695 0.03121870
v -0.09305562 0.00891764 0.03553336
v -0.09424006 0.00828321 0.03622166
v -0.09671420 0.00644339 0.03750578
v -0.09763542 0.00972124 0.04554954
v -0.09652996 0.01065701 0.04554954
v -0.09747750 -0.00119084 0.03427492
v -0.09910061 0.00269500 0.03873854
v -0.09857420 -0.00092121 0.03623707
v -0.10094306 -0.00479119 0.03882586
v -0.10120627 -0.00479119 0.03993020
v -0.10095183 -0.00306767 0.04001753
v -0.10087287 -0.00175653 0.04070068
v -0.09952174 -0.00092121 0.03789615
v -0.10024118 -0.00306767 0.03823003
v -0.09710024 -0.00191514 0.03335035
v -0.09985513 0.00456655 0.04180503
v -0.10024995 0.00456655 0.04367472
v -0.10076759 0.00522212 0.04675148
v -0.10075004 -0.00050883 0.04124515
v -0.09701250 0.00538073 0.03719246
v -0.09602109 0.00247824 0.03443929
v -0.09527534 0.00188083 0.03330412
v -0.09650364 0.00082346 0.03400783
v -0.09687213 -0.00066744 0.03362772
v -0.10121504 -0.00104281 0.04367472
v -0.10189061 -0.00479119 0.05116373
v -0.10147824 -0.00291964 0.04554954
v -0.10122381 -0.00291964 0.04180503
v -0.10107466 -0.00623450 0.03993020
v -0.10176778 -0.00291964 0.05116373
v -0.10089042 0.00206058 0.04432705
v -0.10096938 -0.00109567 0.04184099
v -0.10154843 -0.00666274 0.05303855
v -0.10115363 -0.00666274 0.05435863
v -0.09112544 0.00082346 0.06315745
v -0.10031137 -0.00666274 0.05529861
v -0.09937259 -0.00666274 0.05618209
v -0.09960070 -0.00479119 0.05637728
v -0.09868826 -0.00291964 0.05750217
v -0.09844260 -0.00479119 0.05731212
v -0.09711779 -0.00773597 0.05774872
v -0.09696863 0.00026305 0.05951567
v -0.09453836 -0.00104281 0.06098472
v -0.09108157 -0.00291964 0.06307013
v -0.08774762 -0.00392414 0.06523260
v -0.08781780 -0.00291964 0.06527369
v -0.08677376 -0.00291964 0.06584898
v -0.08694045 -0.00095293 0.06560243
v -0.08766866 -0.00027092 0.06519151
v -0.09089733 0.00269500 0.06302904
v -0.04378328 0.00453483 0.07072352
v -0.04183555 0.00520626 0.07078515
v -0.04083536 0.00547589 0.07082625
v -0.02685030 0.00456655 0.07206928
v -0.08490499 -0.00104281 0.06619312
v -0.08653687 0.00082346 0.06547915
v -0.02497276 0.00456655 0.07220283
v -0.02497276 0.00644339 0.07168918
v -0.01748013 0.00831494 0.07147858
v -0.02310399 0.00644339 0.07177649
v -0.01935768 0.00831494 0.07140667
v -0.01561136 0.01005960 0.07104198
v -0.01446203 0.00982169 0.07097007
v -0.01225986 0.01551035 0.06797035
v -0.01225986 0.01675805 0.06742075
v -0.01935768 0.01365466 0.06935207
v -0.01561136 0.01367052 0.06936235
v -0.01748013 0.01366524 0.06935721
v -0.01935768 0.01459044 0.06879219
v -0.01748013 0.01460101 0.06879733
v -0.01561136 0.01460630 0.06880246
v -0.01225986 -0.01867977 0.02610276
v -0.01373382 -0.01208177 0.02096112
v -0.03414113 0.00644339 0.02096112
v -0.03434292 0.00644339 0.02098166
v -0.08626488 0.00399028 0.02765398
v -0.08751073 0.00319197 0.02781320
v -0.08490499 0.00082346 0.02658558
v -0.04370432 0.00456655 0.02158264
v -0.08490499 0.00269500 0.02708382
v -0.08775639 0.00194427 0.02773102
v -0.08848460 0.00262099 0.02827549
v -0.09011648 0.00269500 0.02930279
v -0.09105525 0.00269500 0.02991917
v -0.09363468 0.00082346 0.03130089
v -0.09557364 0.00082346 0.03303189
v -0.09283629 0.00475688 0.03240524
v -0.10096938 -0.00600717 0.03880018
v -0.10088164 0.00015202 0.04249332
v -0.09710024 -0.00202616 0.03335035
v -0.09473138 -0.00104281 0.03180940
v -0.09552099 0.00419647 0.03491698
v -0.10114485 -0.00637725 0.04180503
v -0.10154843 -0.00666274 0.05116373
v -0.10053070 -0.00717028 0.03993020
v -0.09710024 -0.01325016 0.04082396
v -0.10066231 -0.00731302 0.04180503
v -0.10099570 -0.00787343 0.05116373
v -0.10097816 -0.00782585 0.05303855
v -0.10089042 -0.00768310 0.05407099
v -0.09915325 -0.00796331 0.05600231
v -0.09693354 -0.00898367 0.05760490
v -0.09819694 -0.00666274 0.05711693
v -0.09678439 -0.00104281 0.05937699
v -0.09409091 -0.00666274 0.06013720
v -0.09080959 -0.00479119 0.06287494
v -0.09444185 -0.00492336 0.06025020
v -0.09342411 -0.00227993 0.06152918
v -0.08987082 -0.00479119 0.06354269
v -0.08740545 -0.00517184 0.06503227
v -0.08678253 -0.00464316 0.06557674
v -0.08968657 -0.00590143 0.06340914
v -0.08490499 -0.00479119 0.06619312
v -0.08490499 -0.00291964 0.06643968
v -0.04445885 0.00317611 0.07081597
v -0.04321300 0.00388983 0.07086734
v -0.04183555 0.00427049 0.07092384
v -0.02122644 0.00238837 0.07285003
v -0.02310399 0.00456655 0.07227474
v -0.01935768 0.00255755 0.07291167
v -0.01672561 0.00365721 0.07271134
v -0.02122644 0.00644339 0.07184327
v -0.01561136 0.00831494 0.07149399
v -0.01645362 0.00365721 0.07271134
v -0.01519901 0.00349861 0.07267025
v -0.01437429 0.00225091 0.07282434
v -0.01311090 0.00082346 0.07251616
v -0.01225986 0.01361765 0.06861755
v -0.01273364 0.01317885 0.06900793
v -0.01748013 -0.01209763 0.02096112
v -0.01584825 -0.01221394 0.02096112
v -0.01561136 -0.01221923 0.02096112
v -0.01225986 -0.01933005 0.02682186
v -0.03995801 -0.02064119 0.03158340
v -0.04415177 -0.01504241 0.02592811
v -0.03614151 0.00456655 0.02096112
v -0.03808924 0.00456655 0.02110494
v -0.03995801 0.00456655 0.02125390
v -0.04183555 0.00456655 0.02140799
v -0.08677376 0.00082346 0.02711464
v -0.08490499 -0.00104281 0.02650340
v -0.04370432 0.00269500 0.02159291
v -0.08787045 0.00082346 0.02765911
v -0.09030950 0.00082346 0.02917952
v -0.09124827 0.00082346 0.02976508
v -0.09239761 0.00082346 0.03049960
v -0.09904797 -0.00585385 0.03704350
v -0.09981127 -0.00655171 0.03811189
v -0.09931117 -0.00812191 0.03867690
v -0.09887250 -0.00937490 0.03917514
v -0.09671420 -0.00327386 0.03368936
v -0.09380138 -0.00104281 0.03122384
v -0.09364345 -0.00291964 0.03132144
v -0.09458223 -0.00291964 0.03193268
v -0.09342411 -0.00400345 0.03144985
v -0.08780026 -0.00960752 0.02955962
v -0.10073250 -0.00742405 0.04367472
v -0.10082900 -0.00760380 0.04647411
v -0.10086410 -0.00765667 0.04741922
v -0.09539816 -0.01522745 0.04367472
v -0.09555609 -0.01534905 0.04554954
v -0.09568769 -0.01546536 0.04741922
v -0.09661769 -0.01450844 0.04741922
v -0.09713533 -0.01330303 0.04180503
v -0.09774071 -0.01228267 0.04180503
v -0.09994288 -0.00853957 0.04180503
v -0.09667033 -0.01265275 0.03957579
v -0.09542449 -0.01342463 0.03880018
v -0.09608251 -0.01371541 0.04008944
v -0.09476647 -0.01475692 0.03993020
v -0.09515251 -0.01505827 0.04112701
v -0.09527534 -0.01514286 0.04237518
v -0.10042542 -0.00881449 0.05116373
v -0.09948665 -0.01029481 0.05116373
v -0.09887250 -0.01123058 0.05116373
v -0.09725816 -0.01348807 0.05116373
v -0.09911816 -0.00967625 0.05433809
v -0.09809165 -0.01049571 0.05506747
v -0.09705637 -0.01132046 0.05580199
v -0.09883740 -0.00921629 0.05558625
v -0.09863561 -0.01096624 0.05303855
v -0.09758278 -0.01007276 0.05635673
v -0.09568769 -0.01008862 0.05804150
v -0.09466996 -0.00853957 0.05925371
v -0.08615960 -0.00618692 0.06538669
v -0.09157289 -0.00777298 0.06153946
v -0.08865130 -0.00657815 0.06375842
v -0.08678253 -0.00675261 0.06480113
v -0.08553668 -0.00743462 0.06514528
v -0.08491376 -0.00675261 0.06551510
v -0.08429083 -0.00778884 0.06527369
v -0.04183555 -0.01041112 0.07011741
v -0.04169517 -0.00837568 0.07064134
v -0.04223036 -0.00733417 0.07078515
v -0.04330951 -0.00608647 0.07089816
v -0.04456413 -0.00563180 0.07082111
v -0.04384470 -0.00491807 0.07097007
v -0.04370432 -0.00291964 0.07105739
v -0.04465187 0.00192312 0.07083652
v -0.01748013 -0.00104281 0.07343559
v -0.01935768 0.00082346 0.07319930
v -0.01748013 0.00082346 0.07335854
v -0.01740117 0.00285361 0.07289626
v -0.01574297 0.00280603 0.07288085
v -0.01561136 0.00082346 0.07334312
v -0.01404967 0.00082346 0.07297330
v -0.01324250 -0.00104281 0.07250588
v -0.01225986 -0.00104281 0.07171486
v -0.01225986 0.00082346 0.07172000
v -0.01771702 -0.01206591 0.02096112
v -0.01225986 -0.01953095 0.02707869
v -0.03808924 -0.02250745 0.03350958
v -0.03995801 -0.02147123 0.03251824
v -0.06495389 -0.02068349 0.03529709
v -0.04183555 -0.01875379 0.02973939
v -0.04359904 -0.01431282 0.02541960
v -0.07845641 -0.01511643 0.03148067
v -0.08303622 -0.01289595 0.02998081
v -0.08490499 -0.01176984 0.02921034
v -0.03615905 0.00451368 0.02096112
v -0.03652755 0.00301222 0.02096112
v -0.03656264 0.00269500 0.02096112
v -0.03808924 0.00269500 0.02108953
v -0.03995801 0.00269500 0.02124876
v -0.08677376 -0.00104281 0.02706842
v -0.08490499 -0.00291964 0.02683214
v -0.08564196 -0.00750863 0.02777725
v -0.08603677 -0.00625565 0.02765398
v -0.04370432 -0.00291964 0.02177268
v -0.04370432 -0.00479119 0.02183946
v -0.04480979 -0.00605475 0.02207574
v -0.04183555 0.00082346 0.02147990
v -0.08786167 -0.00104281 0.02766425
v -0.08880045 -0.00104281 0.02822413
v -0.09239761 -0.00104281 0.03038145
v -0.08734403 -0.01085522 0.02992944
v -0.09712656 -0.01140505 0.03895941
v -0.08938827 -0.00705397 0.02976508
v -0.08774762 -0.00206846 0.02773616
v -0.09015158 -0.00291964 0.02930279
v -0.08872148 -0.00652528 0.02924629
v -0.08809856 -0.00853957 0.02939525
v -0.08677376 -0.00853957 0.02858882
v -0.08674743 -0.01030010 0.02917438
v -0.09290648 -0.01667605 0.04180503
v -0.09308195 -0.01679765 0.04367472
v -0.09426638 -0.01622138 0.04554954
v -0.09574911 -0.01552351 0.04928891
v -0.09668788 -0.01459831 0.04928891
v -0.09410846 -0.01650687 0.04736786
v -0.09435412 -0.01646458 0.04928891
v -0.09735467 -0.01366254 0.04928891
v -0.09343289 -0.01330832 0.03703322
v -0.09404704 -0.01399032 0.03824030
v -0.09341534 -0.01515343 0.03892859
v -0.08807224 -0.01169054 0.03117761
v -0.09134478 -0.01687695 0.03915459
v -0.09173959 -0.01715715 0.04040276
v -0.09197647 -0.01730518 0.04180503
v -0.09558241 -0.01538606 0.05078363
v -0.09710901 -0.01325545 0.05216535
v -0.09734590 -0.01166411 0.05455382
v -0.09515251 -0.01505298 0.05203180
v -0.09547713 -0.01342463 0.05430726
v -0.09496826 -0.01304398 0.05555543
v -0.09318723 -0.01309156 0.05755353
v -0.09519638 -0.01133632 0.05771276
v -0.09759156 -0.01228796 0.05288960
v -0.09432779 -0.01048514 0.05870411
v -0.09345044 -0.00962867 0.05965949
v -0.09373119 -0.00853957 0.05986496
v -0.08627366 -0.01041112 0.06359406
v -0.08590517 -0.01142091 0.06337832
v -0.09052007 -0.00845498 0.06188360
v -0.08802837 -0.00805318 0.06352728
v -0.08490499 -0.01041112 0.06415907
v -0.08303622 -0.01041112 0.06453917
v -0.04370432 -0.01173812 0.06925961
v -0.04183555 -0.01191259 0.06938289
v -0.03621169 -0.00953879 0.07087247
v -0.03721188 -0.00948592 0.07083652
v -0.03846650 -0.00920043 0.07078002
v -0.03995801 -0.00883035 0.07071324
v -0.08303622 -0.01210820 0.06377897
v -0.03794009 -0.00856072 0.07094438
v -0.04169517 -0.00669446 0.07094952
v -0.03995801 -0.00666274 0.07109848
v -0.04183555 -0.00479119 0.07116526
v -0.04370432 -0.00104281 0.07100602
v -0.02253371 -0.00402459 0.07275244
v -0.02122644 -0.00409861 0.07277298
v -0.01748013 -0.00291964 0.07306062
v -0.01561136 -0.00104281 0.07330717
v -0.01418127 -0.00104281 0.07291680
v -0.01279505 -0.00761437 0.07083652
v -0.01225986 -0.01403262 0.06915688
v -0.01225986 -0.01228267 0.06953698
v -0.01225986 -0.00814306 0.07035882
v -0.01941032 -0.01169054 0.02096112
v -0.01225986 -0.02094254 0.02901001
v -0.03538698 -0.02259204 0.03336576
v -0.03664160 -0.02255504 0.03343254
v -0.01561136 -0.02416753 0.03399755
v -0.01748013 -0.02409880 0.03408487
v -0.03995801 -0.02293040 0.03458311
v -0.03995801 -0.02240700 0.03364827
v -0.06431343 -0.02105886 0.03602647
v -0.08303622 -0.02007550 0.03993020
v -0.08303622 -0.01927718 0.03825057
v -0.08132537 -0.01936177 0.03787561
v -0.08081650 -0.01896526 0.03694077
v -0.07674556 -0.01703027 0.03330412
v -0.07554359 -0.01713601 0.03319626
v -0.04183555 -0.02424154 0.03757255
v -0.04370432 -0.02457990 0.03873854
v -0.08490499 -0.01041112 0.02844500
v -0.04370432 -0.01240427 0.02437175
v -0.07971103 -0.01499483 0.03161935
v -0.08303622 -0.01369426 0.03092079
v -0.08490499 -0.01270562 0.03026331
v -0.08609819 -0.01153722 0.02941579
v -0.03616783 0.00082346 0.02096112
v -0.08684394 -0.00278218 0.02739715
v -0.08630875 -0.00479119 0.02751015
v -0.08497517 -0.00847613 0.02790567
v -0.04370432 -0.00737646 0.02218361
v -0.08671234 -0.00679491 0.02814708
v -0.08751950 -0.00331616 0.02786971
v -0.04183555 -0.00291964 0.02160318
v -0.03995801 -0.00291964 0.02143368
v -0.04183555 -0.00479119 0.02167509
v -0.04370432 -0.00644069 0.02200383
v -0.09323109 -0.01690338 0.04554954
v -0.09340657 -0.01700912 0.05032648
v -0.09331006 -0.01695097 0.04672066
v -0.09337147 -0.01698797 0.04796369
v -0.09341534 -0.01701441 0.04928891
v -0.09141497 -0.01317615 0.03528167
v -0.09239761 -0.01371012 0.03661203
v -0.09239761 -0.01554466 0.03852281
v -0.09009894 -0.01734219 0.03858958
v -0.09064289 -0.01765941 0.03983775
v -0.08951988 -0.01881194 0.04180503
v -0.09052007 -0.01821453 0.04180503
v -0.09427515 -0.01605749 0.05117914
v -0.09161676 -0.01520630 0.05603313
v -0.09417864 -0.01408549 0.05479524
v -0.09123072 -0.01681879 0.05366521
v -0.08950233 -0.01690867 0.05573521
v -0.08908120 -0.01659675 0.05678306
v -0.09049375 -0.01561339 0.05670601
v -0.09371364 -0.01349865 0.05630536
v -0.09109035 -0.01481507 0.05728130
v -0.08773884 -0.01698269 0.05774872
v -0.08984450 -0.01528032 0.05793877
v -0.08581743 -0.01695625 0.05958245
v -0.09100261 -0.01282193 0.05930508
v -0.08628244 -0.01360438 0.06174491
v -0.08752828 -0.01305455 0.06134941
v -0.09172204 -0.01157423 0.05974682
v -0.09296789 -0.01087636 0.05936158
v -0.08779149 -0.01515872 0.05964409
v -0.08945846 -0.01116714 0.06138536
v -0.08876535 -0.01049042 0.06208393
v -0.08821262 -0.01180685 0.06176033
v -0.08672111 -0.01223509 0.06237671
v -0.08490499 -0.01270033 0.06300849
v -0.08490499 -0.01176456 0.06357351
v -0.08303622 -0.01304398 0.06321909
v -0.08408027 -0.01513757 0.06150350
v -0.04183555 -0.01284836 0.06864837
v -0.01935768 -0.01392160 0.06950616
v -0.01935768 -0.01228267 0.07038965
v -0.02310399 -0.01116185 0.07076461
v -0.02685030 -0.00853957 0.07156077
v -0.02685030 -0.00666274 0.07202818
v -0.03621169 -0.00853957 0.07108821
v -0.03808924 -0.00666274 0.07124230
v -0.02497276 -0.00666274 0.07208469
v -0.02497276 -0.00853957 0.07156590
v -0.02310399 -0.00666274 0.07207442
v -0.02310399 -0.00853957 0.07155049
v -0.01935768 -0.00406689 0.07276271
v -0.01935768 -0.01021551 0.07104198
v -0.01748013 -0.00400873 0.07275244
v -0.01646240 -0.00393472 0.07273189
v -0.01225986 -0.01478335 0.06872028
v -0.01748013 -0.01228267 0.07028691
v -0.01748013 -0.01392160 0.06948048
v -0.02509559 -0.01014678 0.02096112
v -0.01225986 -0.02262377 0.03143444
v -0.01373382 -0.02327934 0.03251310
v -0.01225986 -0.02315245 0.03229224
v -0.01447958 -0.02452703 0.03503513
v -0.01561136 -0.02456933 0.03493753
v -0.01748013 -0.02454818 0.03501971
v -0.08303622 -0.02090554 0.04217486
v -0.08303622 -0.02057246 0.04123488
v -0.08433470 -0.02080509 0.04250873
v -0.08490499 -0.01970542 0.03993020
v -0.08631752 -0.01894411 0.03883099
v -0.08206235 -0.01883309 0.03713082
v -0.08132537 -0.01832555 0.03626275
v -0.07928990 -0.01747965 0.03459852
v -0.07800019 -0.01688752 0.03347876
v -0.08115867 -0.01484151 0.03181454
v -0.04183555 -0.02466978 0.03851253
v -0.04183555 -0.02507158 0.03993020
v -0.04370432 -0.02489183 0.03993020
v -0.08303622 -0.02136021 0.04367472
v -0.04276555 -0.00759851 0.02213738
v -0.02685030 -0.00962338 0.02096112
v -0.08303622 -0.01463004 0.03209705
v -0.08490499 -0.01345635 0.03120330
v -0.08599290 -0.01329246 0.03140876
v -0.08809856 -0.01533319 0.03494780
v -0.08813365 -0.01353565 0.03304216
v -0.03543085 -0.00104281 0.02096112
v -0.02900860 -0.00854486 0.02096112
v -0.03621169 -0.00291964 0.02111521
v -0.03995801 -0.00479119 0.02152100
v -0.03137746 -0.00666274 0.02096112
v -0.09057271 -0.01750080 0.05303855
v -0.09169572 -0.01710428 0.05241704
v -0.09294157 -0.01672892 0.05157979
v -0.08991469 -0.01902341 0.04928891
v -0.08732649 -0.02049316 0.04928891
v -0.08983573 -0.01898112 0.05058844
v -0.08585253 -0.02072050 0.05211912
v -0.08958129 -0.01883837 0.04277069
v -0.08965148 -0.01887538 0.04401886
v -0.09257308 -0.01741092 0.04736786
v -0.09016912 -0.01366254 0.03478857
v -0.09073941 -0.01619494 0.03788588
v -0.08860743 -0.01760654 0.03800402
v -0.08756337 -0.01880137 0.03907755
v -0.08878290 -0.01864276 0.03979152
v -0.08825649 -0.01906042 0.04032572
v -0.08858111 -0.01924018 0.04180503
v -0.08626488 -0.02093197 0.04741922
v -0.08638772 -0.02101656 0.04928891
v -0.08998487 -0.01719945 0.05448704
v -0.08879167 -0.01766998 0.05503151
v -0.08666847 -0.01817752 0.05670088
v -0.08814243 -0.01722588 0.05678306
v -0.08677376 -0.01729990 0.05820073
v -0.08596658 -0.01891768 0.05601772
v -0.08490499 -0.01863747 0.05728130
v -0.08507168 -0.01765941 0.05883766
v -0.08456281 -0.01713601 0.05975709
v -0.08478216 -0.01419651 0.06197092
v -0.08677376 -0.01560282 0.05996769
v -0.04183555 -0.01392160 0.06771352
v -0.01935768 -0.01485737 0.06874596
v -0.01225986 -0.01587245 0.06791385
v -0.01935768 -0.01115128 0.07077488
v -0.02122644 -0.01118829 0.07078515
v -0.01225986 -0.02371286 0.03432115
v -0.01423391 -0.02462749 0.03618570
v -0.01447958 -0.02638272 0.04799965
v -0.01561136 -0.02481781 0.03618570
v -0.01748013 -0.02481781 0.03618570
v -0.02122644 -0.02518789 0.03805538
v -0.02497276 -0.02555269 0.03993020
v -0.02685030 -0.02551568 0.03993020
v -0.02310399 -0.02515089 0.03805538
v -0.08494008 -0.02093726 0.04376717
v -0.08558055 -0.02064648 0.04320216
v -0.08677376 -0.01992218 0.04180503
v -0.08687904 -0.01924018 0.03979152
v -0.08115867 -0.01726818 0.03487076
v -0.08687904 -0.01829383 0.03814784
v -0.08490499 -0.01750609 0.03642198
v -0.08559809 -0.01502655 0.03346336
v -0.08494008 -0.01449258 0.03254392
v -0.08434347 -0.01519573 0.03324249
v -0.07928990 -0.01673949 0.03366368
v -0.04183555 -0.02523019 0.04180503
v -0.04370432 -0.02506101 0.04180503
v -0.08303622 -0.02188361 0.04741922
v -0.08303622 -0.02171443 0.04554954
v -0.02685030 -0.02579060 0.04180503
v -0.08677376 -0.01558696 0.03461907
v -0.08794941 -0.01706728 0.03698699
v -0.03434292 -0.00283505 0.02096112
v -0.03429028 -0.00291964 0.02096112
v -0.03808924 -0.00479119 0.02137204
v -0.08873026 -0.01852645 0.05320292
v -0.08615083 -0.02088439 0.05116373
v -0.08490499 -0.02140250 0.05116373
v -0.08490499 -0.02088968 0.05246840
v -0.08677376 -0.01976886 0.05302828
v -0.08662460 -0.02034513 0.04376717
v -0.08605432 -0.02081037 0.04554954
v -0.08490499 -0.02149766 0.04741922
v -0.08490499 -0.02166684 0.04928891
v -0.08490499 -0.01975829 0.05490824
v -0.08303622 -0.01802948 0.05865788
v -0.08303622 -0.02104828 0.05276632
v -0.04183555 -0.02241229 0.05921776
v -0.04199347 -0.02134963 0.06071248
v -0.04273045 -0.02070992 0.06146241
v -0.04183555 -0.01485737 0.06687114
v -0.02122644 -0.01671834 0.06685573
v -0.01225986 -0.01996448 0.06408202
v -0.01225986 -0.01979001 0.06425153
v -0.01225986 -0.01807707 0.06590548
v -0.04183555 -0.01878551 0.06329100
v -0.04148461 -0.02076279 0.06151377
v -0.03808924 -0.02090025 0.06164732
v -0.03246538 -0.02012837 0.06280303
v -0.01225986 -0.02542051 0.04928891
v -0.01324250 -0.02617125 0.04928891
v -0.01418127 -0.02647260 0.04928891
v -0.01561136 -0.02659420 0.04928891
v -0.01561136 -0.02641973 0.04772741
v -0.01561136 -0.02585932 0.04367472
v -0.01561136 -0.02508215 0.03805538
v -0.01748013 -0.02513502 0.03805538
v -0.02310399 -0.02554211 0.03993020
v -0.02497276 -0.02582760 0.04180503
v -0.08490499 -0.02127033 0.04554954
v -0.08589639 -0.02073636 0.04445033
v -0.08677376 -0.01652273 0.03582101
v -0.08677376 -0.01724703 0.03675585
v -0.02032277 -0.02633514 0.04646897
v -0.01748013 -0.02652018 0.04928891
v -0.01748013 -0.02648846 0.05116373
v -0.04183555 -0.02511388 0.04554954
v -0.08303622 -0.02202635 0.04928891
v -0.08303622 -0.02174086 0.05116373
v -0.04370432 -0.02455876 0.05420968
v -0.04183555 -0.02284581 0.05828292
v -0.03434292 -0.02437372 0.05565816
v -0.03246538 -0.02440544 0.05573521
v -0.03995801 -0.02243873 0.05928967
v -0.03059661 -0.02204750 0.06052757
v -0.03246538 -0.02197348 0.06052757
v -0.03434292 -0.02189418 0.06052757
v -0.03059661 -0.02113287 0.06194010
v -0.03808924 -0.02171443 0.06052757
v -0.03995801 -0.02161398 0.06052757
v -0.03434292 -0.02102713 0.06179628
v -0.02497276 -0.02042443 0.06306499
v -0.03059661 -0.02019181 0.06288008
v -0.01225986 -0.02136021 0.06246916
v -0.01225986 -0.02538879 0.05116373
v -0.01315477 -0.02621354 0.05116373
v -0.01409354 -0.02647789 0.05116373
v -0.01561136 -0.02658362 0.05116373
v -0.01998937 -0.02633514 0.04646897
v -0.01874353 -0.02632985 0.04651520
v -0.01748013 -0.02617125 0.04554954
v -0.01748013 -0.02591219 0.04367472
v -0.02122644 -0.02601264 0.04367472
v -0.02310399 -0.02580645 0.04180503
v -0.02122644 -0.02549453 0.03993020
v -0.01882249 -0.02636157 0.05216535
v -0.04183555 -0.02493941 0.05116373
v -0.04183555 -0.02486011 0.05303855
v -0.04370432 -0.02471736 0.05303855
v -0.04183555 -0.02462749 0.05436890
v -0.04183555 -0.02420982 0.05530375
v -0.04183555 -0.02353310 0.05678306
v -0.03995801 -0.02425212 0.05539107
v -0.03621169 -0.02475437 0.05463600
v -0.03434292 -0.02479138 0.05472333
v -0.03246538 -0.02483367 0.05479524
v -0.03059661 -0.02487597 0.05485174
v -0.02861379 -0.02482310 0.05508288
v -0.03059661 -0.02443187 0.05578658
v -0.03808924 -0.02246516 0.05934617
v -0.02685030 -0.02214795 0.06057893
v -0.02685030 -0.02121217 0.06206851
v -0.02871907 -0.02117517 0.06200174
v -0.02497276 -0.02123332 0.06212502
v -0.01225986 -0.02154525 0.06220207
v -0.01225986 -0.02515617 0.05247867
v -0.01231250 -0.02510330 0.05303855
v -0.01247920 -0.02477552 0.05490824
v -0.01266345 -0.02454818 0.05603313
v -0.01373382 -0.02594920 0.05292041
v -0.01436552 -0.02638801 0.05221671
v -0.01561136 -0.02640916 0.05226294
v -0.01748013 -0.02638801 0.05222185
v -0.02685030 -0.02493941 0.05490824
v -0.02792067 -0.02446359 0.05585335
v -0.02916652 -0.02444773 0.05582767
v -0.03059661 -0.02303085 0.05861679
v -0.03621169 -0.02249159 0.05939753
v -0.02821898 -0.02259733 0.05961840
v -0.01561136 -0.02225897 0.06081521
v -0.01373382 -0.02226426 0.06085630
v -0.01373382 -0.02274008 0.05991632
v -0.01225986 -0.02248631 0.06032211
v -0.01225986 -0.02505572 0.05295123
v -0.01225986 -0.02447417 0.05490310
v -0.01225986 -0.02397191 0.05643891
v -0.01225986 -0.02272422 0.05977764
v -0.01373382 -0.02458519 0.05611017
v -0.01373382 -0.02335335 0.05865788
v -0.01561136 -0.02272422 0.05987523
f 1 2 3
f 1 3 4
f 1 4 5
f 1 5 6
f 1 6 7
f 1 7 8
f 1 8 9
f 1 9 10
f 1 10 11
f 1 11 12
f 1 12 13
f 1 13 14
f 1 14 15
f 1 15 16
f 1 16 2
f 2 17 3
f 2 16 18
f 2 18 17
f 3 19 20
f 3 20 21
f 3 21 22
f 3 22 4
f 3 17 23
f 3 23 24
f 3 24 19
f 4 25 26
f 4 26 5
f 4 22 21
f 4 21 25
f 5 26 27
f 5 27 28
f 5 28 6
f 6 29 30
f 6 30 31
f 6 31 7
f 6 28 32
f 6 32 29
f 7 31 8
f 8 33 34
f 8 34 35
f 8 35 36
f 8 36 37
f 8 37 9
f 8 31 38
f 8 38 39
f 8 39 33
f 9 37 40
f 9 40 10
f 10 40 11
f 11 40 12
f 12 14 13
f 12 40 14
f 14 41 42
f 14 42 43
f 14 43 15
f 14 40 44
f 14 44 45
f 14 45 46
f 14 46 47
f 14 47 41
f 15 43 48
f 15 48 16
f 16 48 18
f 17 18 49
f 17 49 50
f 17 50 23
f 18 48 49
f 19 24 20
f 20 24 21
f 21 51 89
f 21 89 121
f 21 121 177
f 21 177 259
f 21 259 357
f 21 357 439
f 21 439 438
f 21 438 502
f 21 502 583
f 21 583 582
f 21 582 672
f 21 672 671
f 21 671 670
f 21 670 761
f 21 761 829
f 21 829 881
f 21 881 880
f 21 880 879
f 21 879 920
f 21 920 951
f 21 951 969
f 21 969 973
f 21 973 972
f 21 972 971
f 21 971 970
f 21 970 952
f 21 952 921
f 21 921 886
f 21 886 832
f 21 832 767
f 21 767 765
f 21 765 674
f 21 674 585
f 21 585 507
f 21 507 446
f 21 446 358
f 21 358 260
f 21 260 178
f 21 178 123
f 21 123 91
f 21 91 63
f 21 63 32
f 21 32 59
f 21 59 58
f 21 58 52
f 21 52 25
f 21 24 53
f 21 53 23
f 21 23 54
f 21 54 55
f 21 55 56
f 21 56 57
f 21 57 48
f 21 48 51
f 23 49 55
f 23 55 54
f 23 53 24
f 23 50 49
f 25 52 58
f 25 58 59
f 25 59 26
f 26 59 27
f 27 59 28
f 28 59 32
f 29 32 30
f 30 32 60
f 30 60 31
f 31 60 32
f 31 32 61
f 31 61 38
f 32 62 38
f 32 38 61
f 32 63 64
f 32 64 65
f 32 65 66
f 32 66 67
f 32 67 33
f 32 33 68
f 32 68 69
f 32 69 62
f 33 67 70
f 33 70 34
f 33 39 38
f 33 38 68
f 34 70 36
f 34 36 71
f 34 71 35
f 35 71 36
f 36 70 72
f 36 72 73
f 36 73 74
f 36 74 75
f 36 75 76
f 36 76 77
f 36 77 37
f 37 77 40
f 38 62 69
f 38 69 68
f 40 77 78
f 40 78 44
f 41 48 42
f 41 47 79
f 41 79 80
f 41 80 48
f 42 48 43
f 44 78 81
f 44 81 107
f 44 107 82
f 44 82 45
f 45 82 83
f 45 83 84
f 45 84 85
f 45 85 46
f 46 85 47
f 47 85 84
f 47 84 83
f 47 83 79
f 48 57 55
f 48 55 49
f 48 80 86
f 48 86 87
f 48 87 51
f 51 88 89
f 51 87 88
f 55 57 56
f 63 90 64
f 63 91 92
f 63 92 93
f 63 93 90
f 64 72 70
f 64 70 66
f 64 66 65
f 64 90 93
f 64 93 94
f 64 94 73
f 64 73 72
f 66 70 67
f 73 94 95
f 73 95 96
f 73 96 97
f 73 97 98
f 73 98 75
f 73 75 74
f 75 98 99
f 75 99 100
f 75 100 77
f 75 77 76
f 77 100 78
f 78 100 101
f 78 101 102
f 78 102 103
f 78 103 81
f 79 83 104
f 79 104 80
f 80 104 105
f 80 105 87
f 80 87 86
f 81 103 106
f 81 106 107
f 82 107 83
f 83 107 104
f 87 105 108
f 87 108 109
f 87 109 110
f 87 110 111
f 87 111 112
f 87 112 113
f 87 113 88
f 88 114 115
f 88 115 116
f 88 116 117
f 88 117 118
f 88 118 119
f 88 119 89
f 88 113 120
f 88 120 114
f 89 119 122
f 89 122 121
f 91 123 124
f 91 124 92
f 92 124 93
f 93 125 95
f 93 95 94
f 93 124 126
f 93 126 125
f 95 125 127
f 95 127 128
f 95 128 129
f 95 129 96
f 96 129 130
f 96 130 97
f 97 130 131
f 97 131 98
f 98 131 99
f 99 131 100
f 100 131 101
f 101 132 133
f 101 133 102
f 101 131 134
f 101 134 135
f 101 135 132
f 102 133 136
f 102 136 137
f 102 137 138
f 102 138 103
f 103 138 139
f 103 139 106
f 104 107 140
f 104 140 105
f 105 141 109
f 105 109 108
f 105 140 142
f 105 142 143
f 105 143 144
f 105 144 145
f 105 145 146
f 105 146 141
f 106 139 147
f 106 147 140
f 106 140 107
f 109 141 148
f 109 148 149
f 109 149 150
f 109 150 151
f 109 151 152
f 109 152 153
f 109 153 110
f 110 153 111
f 111 154 155
f 111 155 156
f 111 156 157
f 111 157 158
f 111 158 159
f 111 159 160
f 111 160 161
f 111 161 112
f 111 153 154
f 112 161 113
f 113 161 162
f 113 162 163
f 113 163 120
f 114 164 165
f 114 165 166
f 114 166 115
f 114 120 167
f 114 167 164
f 115 166 164
f 115 164 168
f 115 168 116
f 116 168 169
f 116 169 117
f 117 169 170
f 117 170 171
f 117 171 172
f 117 172 173
f 117 173 174
f 117 174 118
f 118 174 175
f 118 175 122
f 118 122 119
f 120 163 176
f 120 176 167
f 121 122 177
f 122 175 177
f 123 178 126
f 123 126 124
f 125 179 180
f 125 180 127
f 125 126 181
f 125 181 179
f 126 178 182
f 126 182 181
f 127 183 128
f 127 180 184
f 127 184 185
f 127 185 186
f 127 186 183
f 128 186 187
f 128 187 129
f 128 183 186
f 129 188 130
f 129 187 189
f 129 189 190
f 129 190 191
f 129 191 192
f 129 192 193
f 129 193 188
f 130 194 131
f 130 188 195
f 130 195 196
f 130 196 197
f 130 197 134
f 130 134 194
f 131 194 134
f 132 135 198
f 132 198 133
f 133 198 199
f 133 199 200
f 133 200 136
f 134 197 135
f 135 197 201
f 135 201 202
f 135 202 192
f 135 192 203
f 135 203 204
f 135 204 205
f 135 205 206
f 135 206 198
f 136 200 207
f 136 207 208
f 136 208 209
f 136 209 210
f 136 210 137
f 137 210 138
f 138 210 211
f 138 211 212
f 138 212 213
f 138 213 139
f 139 213 147
f 140 147 142
f 141 146 145
f 141 145 148
f 142 213 212
f 142 212 211
f 142 211 143
f 142 147 213
f 143 211 209
f 143 209 208
f 143 208 214
f 143 214 215
f 143 215 216
f 143 216 217
f 143 217 218
f 143 218 219
f 143 219 220
f 143 220 221
f 143 221 222
f 143 222 223
f 143 223 224
f 143 224 152
f 143 152 145
f 143 145 144
f 145 152 150
f 145 150 149
f 145 149 148
f 150 152 151
f 152 224 225
f 152 225 154
f 152 154 153
f 154 225 319
f 154 319 226
f 154 226 227
f 154 227 155
f 155 227 156
f 156 158 157
f 156 227 228
f 156 228 158
f 158 228 229
f 158 229 230
f 158 230 231
f 158 231 232
f 158 232 233
f 158 233 234
f 158 234 235
f 158 235 159
f 159 235 236
f 159 236 160
f 160 162 161
f 160 236 237
f 160 237 162
f 162 237 238
f 162 238 232
f 162 232 239
f 162 239 163
f 163 239 176
f 164 240 168
f 164 166 165
f 164 167 241
f 164 241 242
f 164 242 240
f 167 176 243
f 167 243 242
f 167 242 241
f 168 240 244
f 168 244 245
f 168 245 169
f 169 245 246
f 169 246 171
f 169 171 170
f 171 247 248
f 171 248 172
f 171 246 247
f 172 248 249
f 172 249 250
f 172 250 251
f 172 251 252
f 172 252 174
f 172 174 173
f 174 252 253
f 174 253 254
f 174 254 175
f 175 254 255
f 175 255 256
f 175 256 257
f 175 257 258
f 175 258 177
f 176 239 243
f 177 258 259
f 178 260 261
f 178 261 262
f 178 262 263
f 178 263 264
f 178 264 182
f 179 265 180
f 179 181 266
f 179 266 265
f 180 265 184
f 181 182 266
f 182 264 266
f 184 265 267
f 184 267 185
f 185 267 268
f 185 268 186
f 186 268 187
f 187 268 269
f 187 269 270
f 187 270 271
f 187 271 272
f 187 272 273
f 187 273 189
f 188 193 195
f 189 273 274
f 189 274 275
f 189 275 190
f 190 275 276
f 190 276 191
f 191 276 277
f 191 277 192
f 192 277 278
f 192 278 279
f 192 279 203
f 192 202 280
f 192 280 193
f 193 280 202
f 193 202 201
f 193 201 281
f 193 281 195
f 195 281 201
f 195 201 196
f 196 201 197
f 198 206 282
f 198 282 283
f 198 283 284
f 198 284 199
f 199 284 200
f 200 284 285
f 200 285 300
f 200 300 286
f 200 286 207
f 203 279 204
f 204 287 288
f 204 288 289
f 204 289 290
f 204 290 291
f 204 291 292
f 204 292 293
f 204 293 205
f 204 279 294
f 204 294 295
f 204 295 296
f 204 296 297
f 204 297 287
f 205 298 206
f 205 293 299
f 205 299 298
f 206 298 282
f 207 286 208
f 208 286 300
f 208 300 214
f 209 211 210
f 214 299 293
f 214 293 292
f 214 292 301
f 214 301 215
f 214 300 302
f 214 302 298
f 214 298 299
f 215 303 304
f 215 304 305
f 215 305 306
f 215 306 307
f 215 307 216
f 215 301 308
f 215 308 309
f 215 309 303
f 216 307 310
f 216 310 217
f 217 310 311
f 217 311 218
f 218 311 312
f 218 312 219
f 219 312 313
f 219 313 314
f 219 314 315
f 219 315 220
f 220 315 222
f 220 222 221
f 222 315 316
f 222 316 317
f 222 317 230
f 222 230 223
f 223 230 228
f 223 228 224
f 224 228 318
f 224 318 319
f 224 319 225
f 226 319 318
f 226 318 320
f 226 320 227
f 227 318 321
f 227 321 228
f 227 320 318
f 228 230 229
f 228 321 318
f 230 322 323
f 230 323 231
f 230 317 324
f 230 324 325
f 230 325 326
f 230 326 327
f 230 327 328
f 230 328 322
f 231 323 329
f 231 329 330
f 231 330 331
f 231 331 332
f 231 332 239
f 231 239 232
f 232 238 233
f 233 238 234
f 234 238 237
f 234 237 236
f 234 236 235
f 239 332 331
f 239 331 243
f 240 333 334
f 240 334 335
f 240 335 336
f 240 336 337
f 240 337 244
f 240 242 333
f 242 243 338
f 242 338 333
f 243 331 339
f 243 339 340
f 243 340 341
f 243 341 342
f 243 342 338
f 244 337 245
f 245 337 343
f 245 343 344
f 245 344 345
f 245 345 346
f 245 346 246
f 246 346 345
f 246 345 247
f 247 345 248
f 248 345 347
f 248 347 348
f 248 348 249
f 249 348 250
f 250 348 349
f 250 349 251
f 251 350 351
f 251 351 352
f 251 352 253
f 251 253 252
f 251 349 350
f 253 352 254
f 254 352 255
f 255 353 256
f 255 352 354
f 255 354 353
f 256 353 355
f 256 355 257
f 257 356 357
f 257 357 259
f 257 259 258
f 257 355 356
f 260 358 447
f 260 447 506
f 260 506 505
f 260 505 504
f 260 504 584
f 260 584 673
f 260 673 764
f 260 764 786
f 260 786 793
f 260 793 796
f 260 796 860
f 260 860 859
f 260 859 792
f 260 792 696
f 260 696 596
f 260 596 595
f 260 595 594
f 260 594 510
f 260 510 448
f 260 448 360
f 260 360 359
f 260 359 264
f 260 264 263
f 260 263 262
f 260 262 261
f 264 359 266
f 265 266 267
f 266 359 360
f 266 360 268
f 266 268 267
f 268 360 269
f 269 361 362
f 269 362 270
f 269 360 363
f 269 363 361
f 270 362 364
f 270 364 271
f 271 365 366
f 271 366 367
f 271 367 368
f 271 368 369
f 271 369 370
f 271 370 371
f 271 371 272
f 271 364 365
f 272 371 370
f 272 370 372
f 272 372 373
f 272 373 374
f 272 374 273
f 273 374 274
f 274 374 276
f 274 276 275
f 276 374 375
f 276 375 277
f 277 375 376
f 277 376 370
f 277 370 278
f 278 370 279
f 279 377 294
f 279 370 369
f 279 369 377
f 282 298 302
f 282 302 300
f 282 300 378
f 282 378 283
f 283 378 300
f 283 300 379
f 283 379 284
f 284 379 300
f 284 300 285
f 287 297 380
f 287 380 288
f 288 381 290
f 288 290 289
f 288 380 382
f 288 382 381
f 290 383 384
f 290 384 385
f 290 385 386
f 290 386 291
f 290 381 387
f 290 387 388
f 290 388 389
f 290 389 383
f 291 390 391
f 291 391 392
f 291 392 308
f 291 308 292
f 291 386 393
f 291 393 390
f 292 308 301
f 294 377 394
f 294 394 296
f 294 296 295
f 296 394 395
f 296 395 396
f 296 396 397
f 296 397 398
f 296 398 297
f 297 398 389
f 297 389 380
f 303 309 399
f 303 399 304
f 304 400 401
f 304 401 305
f 304 399 402
f 304 402 384
f 304 384 403
f 304 403 400
f 305 401 306
f 306 401 400
f 306 400 404
f 306 404 307
f 307 404 310
f 308 392 405
f 308 405 406
f 308 406 402
f 308 402 309
f 309 402 399
f 310 404 400
f 310 400 407
f 310 407 408
f 310 408 325
f 310 325 312
f 310 312 311
f 312 325 324
f 312 324 317
f 312 317 314
f 312 314 313
f 314 317 316
f 314 316 315
f 322 409 323
f 322 328 409
f 323 409 329
f 325 408 326
f 326 408 410
f 326 410 411
f 326 411 412
f 326 412 327
f 327 412 413
f 327 413 414
f 327 414 415
f 327 415 416
f 327 416 417
f 327 417 418
f 327 418 419
f 327 419 420
f 327 420 328
f 328 420 421
f 328 421 422
f 328 422 423
f 328 423 339
f 328 339 409
f 329 409 424
f 329 424 330
f 330 424 339
f 330 339 331
f 333 425 426
f 333 426 427
f 333 427 335
f 333 335 334
f 333 338 425
f 335 337 336
f 335 427 428
f 335 428 345
f 335 345 337
f 337 345 344
f 337 344 343
f 338 342 429
f 338 429 425
f 339 423 340
f 339 424 409
f 340 423 422
f 340 422 430
f 340 430 341
f 341 430 342
f 342 430 429
f 345 428 431
f 345 431 347
f 347 349 348
f 347 431 432
f 347 432 350
f 347 350 349
f 350 432 351
f 351 433 352
f 351 432 434
f 351 434 435
f 351 435 433
f 352 433 436
f 352 436 437
f 352 437 438
f 352 438 439
f 352 439 354
f 353 354 440
f 353 440 355
f 354 439 356
f 354 356 441
f 354 441 442
f 354 442 440
f 355 440 443
f 355 443 356
f 356 439 357
f 356 443 444
f 356 444 445
f 356 445 441
f 358 446 447
f 360 448 449
f 360 449 363
f 361 450 362
f 361 363 450
f 362 451 364
f 362 450 452
f 362 452 451
f 363 449 453
f 363 453 452
f 363 452 454
f 363 454 450
f 364 451 455
f 364 455 456
f 364 456 457
f 364 457 365
f 365 457 458
f 365 458 459
f 365 459 366
f 366 396 367
f 366 459 389
f 366 389 398
f 366 398 460
f 366 460 396
f 367 396 395
f 367 395 461
f 367 461 368
f 368 461 377
f 368 377 369
f 370 376 372
f 372 376 373
f 373 376 375
f 373 375 374
f 377 461 394
f 380 389 382
f 381 382 387
f 382 389 388
f 382 388 387
f 383 462 384
f 383 389 462
f 384 402 406
f 384 406 386
f 384 386 385
f 384 462 403
f 386 406 463
f 386 463 393
f 389 464 462
f 389 459 465
f 389 465 464
f 390 393 405
f 390 405 391
f 391 405 392
f 393 463 405
f 394 461 466
f 394 466 395
f 395 466 461
f 396 460 397
f 397 460 398
f 400 403 467
f 400 467 468
f 400 468 407
f 403 462 469
f 403 469 470
f 403 470 471
f 403 471 467
f 405 463 406
f 407 472 473
f 407 473 474
f 407 474 408
f 407 468 472
f 408 474 475
f 408 475 410
f 410 475 411
f 411 475 476
f 411 476 415
f 411 415 477
f 411 477 414
f 411 414 413
f 411 413 412
f 414 477 415
f 415 478 416
f 415 476 479
f 415 479 480
f 415 480 481
f 415 481 482
f 415 482 478
f 416 478 482
f 416 482 417
f 417 482 418
f 418 482 480
f 418 480 483
f 418 483 419
f 419 484 485
f 419 485 421
f 419 421 420
f 419 483 486
f 419 486 484
f 421 485 487
f 421 487 488
f 421 488 422
f 422 488 429
f 422 429 430
f 425 489 490
f 425 490 426
f 425 429 489
f 426 490 491
f 426 491 427
f 427 491 492
f 427 492 428
f 428 492 431
f 429 488 489
f 431 493 434
f 431 434 432
f 431 492 494
f 431 494 493
f 433 495 436
f 433 435 434
f 433 434 496
f 433 496 493
f 433 493 495
f 434 493 496
f 436 497 437
f 436 495 498
f 436 498 497
f 437 497 499
f 437 499 500
f 437 500 501
f 437 501 502
f 437 502 503
f 437 503 438
f 438 503 502
f 440 442 444
f 440 444 443
f 441 445 444
f 441 444 442
f 446 504 505
f 446 505 506
f 446 506 447
f 446 507 508
f 446 508 509
f 446 509 504
f 448 510 511
f 448 511 512
f 448 512 513
f 448 513 453
f 448 453 449
f 450 454 452
f 451 514 455
f 451 452 514
f 452 515 514
f 452 453 515
f 453 513 516
f 453 516 515
f 455 514 517
f 455 517 518
f 455 518 519
f 455 519 457
f 455 457 456
f 457 519 520
f 457 520 459
f 457 459 458
f 459 520 465
f 462 464 521
f 462 521 522
f 462 522 523
f 462 523 524
f 462 524 470
f 462 470 469
f 464 525 521
f 464 465 526
f 464 526 527
f 464 527 528
f 464 528 529
f 464 529 530
f 464 530 525
f 465 520 519
f 465 519 526
f 467 471 531
f 467 531 532
f 467 532 533
f 467 533 472
f 467 472 468
f 470 534 535
f 470 535 536
f 470 536 537
f 470 537 538
f 470 538 472
f 470 472 539
f 470 539 540
f 470 540 471
f 470 524 541
f 470 541 542
f 470 542 543
f 470 543 544
f 470 544 545
f 470 545 546
f 470 546 534
f 471 540 531
f 472 547 473
f 472 533 539
f 472 538 547
f 473 547 548
f 473 548 549
f 473 549 550
f 473 550 474
f 474 551 552
f 474 552 553
f 474 553 554
f 474 554 475
f 474 550 555
f 474 555 551
f 475 554 556
f 475 556 476
f 476 556 557
f 476 557 558
f 476 558 486
f 476 486 483
f 476 483 479
f 479 483 480
f 480 482 481
f 484 559 485
f 484 486 559
f 485 559 487
f 486 558 560
f 486 560 561
f 486 561 562
f 486 562 559
f 487 559 563
f 487 563 564
f 487 564 565
f 487 565 566
f 487 566 567
f 487 567 568
f 487 568 569
f 487 569 570
f 487 570 488
f 488 570 571
f 488 571 572
f 488 572 573
f 488 573 489
f 489 573 574
f 489 574 575
f 489 575 490
f 490 575 576
f 490 576 492
f 490 492 491
f 492 576 494
f 493 494 495
f 494 576 577
f 494 577 495
f 495 577 498
f 497 498 578
f 497 578 499
f 498 577 576
f 498 576 579
f 498 579 578
f 499 578 579
f 499 579 500
f 500 580 501
f 500 579 580
f 501 581 582
f 501 582 583
f 501 583 502
f 501 580 581
f 504 509 584
f 507 585 586
f 507 586 587
f 507 587 508
f 508 587 588
f 508 588 589
f 508 589 509
f 509 590 584
f 509 589 588
f 509 588 591
f 509 591 592
f 509 592 593
f 509 593 590
f 510 594 511
f 511 595 512
f 511 594 595
f 512 595 596
f 512 596 513
f 513 596 597
f 513 597 598
f 513 598 516
f 514 599 517
f 514 515 599
f 515 600 601
f 515 601 602
f 515 602 599
f 515 516 603
f 515 603 604
f 515 604 605
f 515 605 600
f 516 598 606
f 516 606 603
f 517 599 607
f 517 607 608
f 517 608 609
f 517 609 526
f 517 526 518
f 518 526 519
f 521 525 530
f 521 530 522
f 522 530 610
f 522 610 523
f 523 542 611
f 523 611 524
f 523 610 542
f 524 611 541
f 526 609 527
f 527 612 529
f 527 529 528
f 527 609 608
f 527 608 607
f 527 607 613
f 527 613 614
f 527 614 615
f 527 615 612
f 529 612 616
f 529 616 530
f 530 616 617
f 530 617 618
f 530 618 610
f 531 540 532
f 532 540 539
f 532 539 533
f 534 546 619
f 534 619 620
f 534 620 535
f 535 620 621
f 535 621 536
f 536 622 623
f 536 623 537
f 536 621 624
f 536 624 625
f 536 625 622
f 537 623 538
f 538 623 626
f 538 626 547
f 541 611 542
f 542 627 628
f 542 628 629
f 542 629 544
f 542 544 543
f 542 610 630
f 542 630 627
f 544 629 631
f 544 631 545
f 545 631 632
f 545 632 633
f 545 633 619
f 545 619 546
f 547 626 548
f 548 626 549
f 549 626 623
f 549 623 550
f 550 623 634
f 550 634 635
f 550 635 555
f 551 555 552
f 552 555 636
f 552 636 553
f 553 556 554
f 553 636 635
f 553 635 634
f 553 634 637
f 553 637 638
f 553 638 639
f 553 639 640
f 553 640 641
f 553 641 556
f 555 635 642
f 555 642 636
f 556 641 557
f 557 641 643
f 557 643 644
f 557 644 645
f 557 645 558
f 558 645 560
f 559 562 646
f 559 646 647
f 559 647 563
f 560 648 649
f 560 649 562
f 560 562 561
f 560 645 644
f 560 644 648
f 562 649 646
f 563 647 650
f 563 650 565
f 563 565 564
f 565 650 651
f 565 651 566
f 566 652 653
f 566 653 654
f 566 654 655
f 566 655 656
f 566 656 657
f 566 657 567
f 566 651 658
f 566 658 652
f 567 657 656
f 567 656 568
f 568 656 659
f 568 659 660
f 568 660 569
f 569 660 661
f 569 661 662
f 569 662 571
f 569 571 570
f 571 662 572
f 572 662 574
f 572 574 663
f 572 663 573
f 573 663 574
f 574 664 665
f 574 665 666
f 574 666 667
f 574 667 579
f 574 579 576
f 574 576 575
f 574 662 664
f 579 667 580
f 580 667 668
f 580 668 581
f 581 669 670
f 581 670 671
f 581 671 672
f 581 672 582
f 581 668 669
f 584 590 673
f 585 674 675
f 585 675 676
f 585 676 586
f 586 676 677
f 586 677 678
f 586 678 679
f 586 679 680
f 586 680 587
f 587 680 588
f 588 681 682
f 588 682 683
f 588 683 684
f 588 684 685
f 588 685 686
f 588 686 687
f 588 687 591
f 588 680 679
f 588 679 688
f 588 688 689
f 588 689 681
f 590 593 690
f 590 690 691
f 590 691 673
f 591 687 686
f 591 686 692
f 591 692 592
f 592 692 693
f 592 693 694
f 592 694 593
f 593 694 695
f 593 695 690
f 596 696 597
f 597 696 598
f 598 696 606
f 599 697 613
f 599 613 607
f 599 602 698
f 599 698 697
f 600 605 601
f 601 699 690
f 601 690 617
f 601 617 602
f 601 605 700
f 601 700 699
f 602 617 701
f 602 701 702
f 602 702 613
f 602 613 697
f 602 697 698
f 603 606 696
f 603 696 703
f 603 703 604
f 604 703 704
f 604 704 705
f 604 705 706
f 604 706 605
f 605 706 700
f 610 618 695
f 610 695 630
f 612 615 617
f 612 617 616
f 613 702 614
f 614 702 615
f 615 702 701
f 615 701 617
f 617 690 618
f 618 690 695
f 619 633 620
f 620 633 707
f 620 707 621
f 621 707 624
f 622 625 708
f 622 708 634
f 622 634 623
f 624 707 709
f 624 709 710
f 624 710 625
f 625 710 711
f 625 711 708
f 627 712 713
f 627 713 629
f 627 629 628
f 627 630 695
f 627 695 712
f 629 713 714
f 629 714 715
f 629 715 631
f 631 715 716
f 631 716 632
f 632 716 717
f 632 717 718
f 632 718 633
f 633 718 707
f 634 708 719
f 634 719 637
f 635 636 642
f 637 720 721
f 637 721 639
f 637 639 638
f 637 719 722
f 637 722 723
f 637 723 724
f 637 724 720
f 639 721 720
f 639 720 725
f 639 725 726
f 639 726 640
f 640 726 727
f 640 727 728
f 640 728 729
f 640 729 730
f 640 730 641
f 641 731 732
f 641 732 733
f 641 733 734
f 641 734 735
f 641 735 643
f 641 730 736
f 641 736 731
f 643 735 644
f 644 735 737
f 644 737 738
f 644 738 648
f 646 649 738
f 646 738 737
f 646 737 647
f 647 739 740
f 647 740 732
f 647 732 741
f 647 741 742
f 647 742 650
f 647 737 739
f 648 738 649
f 650 742 651
f 651 742 658
f 652 658 743
f 652 743 653
f 653 743 744
f 653 744 745
f 653 745 746
f 653 746 747
f 653 747 748
f 653 748 654
f 654 748 749
f 654 749 750
f 654 750 655
f 655 751 659
f 655 659 656
f 655 750 751
f 658 742 743
f 659 751 661
f 659 661 660
f 661 751 752
f 661 752 664
f 661 664 662
f 664 750 753
f 664 753 665
f 664 752 751
f 664 751 750
f 665 753 754
f 665 754 755
f 665 755 756
f 665 756 757
f 665 757 666
f 666 757 758
f 666 758 759
f 666 759 760
f 666 760 667
f 667 760 670
f 667 670 668
f 668 670 669
f 670 760 762
f 670 762 747
f 670 747 763
f 670 763 761
f 673 691 690
f 673 690 764
f 674 765 675
f 675 765 766
f 675 766 677
f 675 677 676
f 677 766 767
f 677 767 768
f 677 768 769
f 677 769 770
f 677 770 678
f 678 770 679
f 679 770 688
f 681 771 772
f 681 772 682
f 681 689 771
f 682 772 773
f 682 773 774
f 682 774 775
f 682 775 683
f 683 775 776
f 683 776 685
f 683 685 684
f 685 776 777
f 685 777 778
f 685 778 686
f 686 778 779
f 686 779 780
f 686 780 692
f 688 781 689
f 688 770 781
f 689 781 782
f 689 782 783
f 689 783 784
f 689 784 771
f 690 699 700
f 690 700 785
f 690 785 786
f 690 786 764
f 692 780 693
f 693 787 788
f 693 788 694
f 693 780 787
f 694 788 789
f 694 789 695
f 695 789 790
f 695 790 791
f 695 791 712
f 696 792 704
f 696 704 703
f 700 706 793
f 700 793 786
f 700 786 785
f 704 792 705
f 705 792 794
f 705 794 795
f 705 795 796
f 705 796 706
f 706 796 793
f 707 718 717
f 707 717 709
f 708 797 798
f 708 798 799
f 708 799 719
f 708 711 800
f 708 800 801
f 708 801 802
f 708 802 803
f 708 803 797
f 709 717 804
f 709 804 805
f 709 805 806
f 709 806 710
f 710 806 800
f 710 800 711
f 712 807 713
f 712 791 807
f 713 807 714
f 714 807 808
f 714 808 715
f 715 808 791
f 715 791 790
f 715 790 809
f 715 809 810
f 715 810 811
f 715 811 716
f 716 811 717
f 717 811 812
f 717 812 813
f 717 813 814
f 717 814 815
f 717 815 804
f 719 799 722
f 720 724 725
f 722 798 816
f 722 816 723
f 722 799 798
f 723 816 817
f 723 817 818
f 723 818 819
f 723 819 728
f 723 728 724
f 724 728 725
f 725 727 726
f 725 728 727
f 728 819 818
f 728 818 820
f 728 820 730
f 728 730 729
f 730 820 821
f 730 821 822
f 730 822 823
f 730 823 824
f 730 824 744
f 730 744 825
f 730 825 741
f 730 741 732
f 730 732 826
f 730 826 736
f 731 736 732
f 732 736 826
f 732 740 739
f 732 739 733
f 733 739 734
f 734 737 735
f 734 739 737
f 741 825 744
f 741 744 743
f 741 743 742
f 744 824 745
f 745 827 828
f 745 828 746
f 745 824 827
f 746 828 829
f 746 829 763
f 746 763 747
f 747 830 831
f 747 831 748
f 747 762 830
f 748 831 749
f 749 831 754
f 749 754 753
f 749 753 750
f 754 831 756
f 754 756 755
f 756 831 758
f 756 758 757
f 758 831 830
f 758 830 759
f 759 830 760
f 760 830 762
f 761 763 829
f 765 767 766
f 767 832 768
f 768 833 834
f 768 834 835
f 768 835 769
f 768 832 833
f 769 835 836
f 769 836 837
f 769 837 838
f 769 838 839
f 769 839 840
f 769 840 770
f 770 840 839
f 770 839 782
f 770 782 781
f 771 784 773
f 771 773 772
f 773 784 841
f 773 841 842
f 773 842 843
f 773 843 812
f 773 812 844
f 773 844 774
f 774 844 810
f 774 810 775
f 775 810 776
f 776 787 845
f 776 845 777
f 776 810 846
f 776 846 847
f 776 847 848
f 776 848 849
f 776 849 850
f 776 850 788
f 776 788 787
f 777 845 778
f 778 851 779
f 778 845 851
f 779 851 780
f 780 851 845
f 780 845 787
f 782 852 853
f 782 853 854
f 782 854 855
f 782 855 783
f 782 839 856
f 782 856 852
f 783 855 784
f 784 855 841
f 788 850 849
f 788 849 848
f 788 848 857
f 788 857 789
f 789 857 858
f 789 858 790
f 790 858 809
f 791 808 807
f 792 859 794
f 794 859 860
f 794 860 795
f 795 860 861
f 795 861 796
f 796 861 860
f 797 816 798
f 797 803 862
f 797 862 821
f 797 821 817
f 797 817 816
f 800 806 801
f 801 815 802
f 801 806 805
f 801 805 804
f 801 804 815
f 802 815 863
f 802 863 803
f 803 863 864
f 803 864 865
f 803 865 821
f 803 821 866
f 803 866 862
f 809 858 810
f 810 844 812
f 810 812 811
f 810 858 846
f 812 843 813
f 813 843 842
f 813 842 867
f 813 867 868
f 813 868 814
f 814 868 869
f 814 869 870
f 814 870 815
f 815 870 863
f 817 821 818
f 818 821 820
f 821 865 871
f 821 871 822
f 821 862 866
f 822 872 823
f 822 871 873
f 822 873 874
f 822 874 872
f 823 872 824
f 824 872 874
f 824 874 875
f 824 875 876
f 824 876 877
f 824 877 827
f 827 877 828
f 828 878 879
f 828 879 880
f 828 880 881
f 828 881 829
f 828 877 882
f 828 882 876
f 828 876 883
f 828 883 884
f 828 884 885
f 828 885 878
f 832 886 887
f 832 887 833
f 833 888 834
f 833 887 888
f 834 888 889
f 834 889 890
f 834 890 891
f 834 891 892
f 834 892 835
f 835 892 893
f 835 893 894
f 835 894 838
f 835 838 837
f 835 837 836
f 838 895 856
f 838 856 839
f 838 894 895
f 841 896 842
f 841 855 896
f 842 896 897
f 842 897 867
f 846 858 898
f 846 898 899
f 846 899 847
f 847 899 848
f 848 899 898
f 848 898 857
f 852 856 900
f 852 900 901
f 852 901 902
f 852 902 903
f 852 903 904
f 852 904 853
f 853 904 854
f 854 904 870
f 854 870 869
f 854 869 855
f 855 869 896
f 856 895 900
f 857 898 858
f 863 870 864
f 864 870 904
f 864 904 905
f 864 905 865
f 865 905 873
f 865 873 871
f 867 897 868
f 868 897 896
f 868 896 869
f 873 905 906
f 873 906 874
f 874 906 907
f 874 907 908
f 874 908 909
f 874 909 910
f 874 910 911
f 874 911 912
f 874 912 913
f 874 913 914
f 874 914 915
f 874 915 916
f 874 916 875
f 875 916 917
f 875 917 884
f 875 884 883
f 875 883 876
f 876 882 877
f 878 918 879
f 878 885 919
f 878 919 918
f 879 918 920
f 884 917 918
f 884 918 919
f 884 919 885
f 886 921 922
f 886 922 887
f 887 922 888
f 888 923 889
f 888 922 923
f 889 923 924
f 889 924 901
f 889 901 900
f 889 900 925
f 889 925 926
f 889 926 890
f 890 927 928
f 890 928 891
f 890 926 929
f 890 929 930
f 890 930 927
f 891 928 893
f 891 893 892
f 893 928 930
f 893 930 931
f 893 931 894
f 894 931 930
f 894 930 895
f 895 930 929
f 895 929 926
f 895 926 925
f 895 925 900
f 901 924 902
f 902 924 932
f 902 932 933
f 902 933 903
f 903 933 904
f 904 933 934
f 904 934 935
f 904 935 906
f 904 906 905
f 906 935 934
f 906 934 932
f 906 932 936
f 906 936 937
f 906 937 938
f 906 938 907
f 907 938 908
f 908 939 940
f 908 940 941
f 908 941 942
f 908 942 943
f 908 943 909
f 908 938 939
f 909 943 944
f 909 944 945
f 909 945 946
f 909 946 910
f 910 946 947
f 910 947 911
f 911 947 948
f 911 948 912
f 912 948 913
f 913 948 949
f 913 949 914
f 914 917 916
f 914 916 915
f 914 949 918
f 914 918 917
f 918 949 948
f 918 948 950
f 918 950 920
f 920 950 951
f 921 952 922
f 922 952 953
f 922 953 954
f 922 954 955
f 922 955 956
f 922 956 957
f 922 957 923
f 923 957 924
f 924 957 958
f 924 958 959
f 924 959 932
f 927 930 928
f 932 959 942
f 932 942 941
f 932 941 940
f 932 940 936
f 932 934 933
f 936 940 937
f 937 940 939
f 937 939 938
f 942 959 943
f 943 959 944
f 944 959 958
f 944 958 960
f 944 960 961
f 944 961 962
f 944 962 945
f 945 963 964
f 945 964 946
f 945 962 965
f 945 965 963
f 946 964 947
f 947 965 966
f 947 966 951
f 947 951 950
f 947 950 948
f 947 964 965
f 951 966 967
f 951 967 968
f 951 968 969
f 952 970 953
f 953 970 971
f 953 971 954
f 954 971 972
f 954 972 973
f 954 973 955
f 955 973 969
f 955 969 974
f 955 974 957
f 955 957 956
f 957 974 958
f 958 974 960
f 960 974 975
f 960 975 961
f 961 965 962
f 961 975 968
f 961 968 976
f 961 976 965
f 963 965 964
f 965 976 966
f 966 976 968
f 966 968 967
f 968 975 969
f 969 975 974

