# https://github.com/mikedh/trimesh
v 0.03497003 0.02676162 0.05116289
v 0.03497003 0.02672704 0.04929317
v 0.03309891 0.02672210 0.04929317
v 0.02566561 0.02668258 0.04923116
v 0.02566561 0.02668258 0.04929317
v 0.03309891 0.02672704 0.05116289
v 0.03309891 0.02641090 0.05278936
v 0.03497003 0.02644054 0.05271304
v 0.06867862 0.02488455 0.05303738
v 0.07055543 0.02513647 0.05116289
v 0.07055543 0.02543779 0.04929317
v 0.07003220 0.02614910 0.04497658
v 0.07008339 0.02616886 0.04367445
v 0.03309891 0.02652946 0.03993023
v 0.03309891 0.02664801 0.04554418
v 0.06982746 0.02614910 0.04255357
v 0.02935098 0.02649488 0.03993023
v 0.02566561 0.02649982 0.04180473
v 0.03122210 0.02651464 0.03993023
v 0.02566561 0.02651958 0.05116289
v 0.03122210 0.02667765 0.05116289
v 0.03122210 0.02636645 0.05282752
v 0.03122210 0.02602067 0.05376715
v 0.06118846 0.02273580 0.05828883
v 0.06867862 0.02447456 0.05437767
v 0.06992983 0.02436589 0.05417734
v 0.07055543 0.02460793 0.05307554
v 0.07200001 0.02440046 0.05247456
v 0.07254598 0.02456841 0.05125829
v 0.07504271 0.02418806 0.04994662
v 0.07242655 0.02498334 0.04929317
v 0.07242655 0.02531430 0.04741867
v 0.07061230 0.02600091 0.04557279
v 0.07102179 0.02603055 0.04367445
v 0.03309891 0.02631211 0.03840393
v 0.03122210 0.02630223 0.03842778
v 0.07049287 0.02587742 0.04188104
v 0.07055543 0.02540321 0.03993023
v 0.06867862 0.02515129 0.03805574
v 0.06867862 0.02558598 0.03993023
v 0.03497003 0.02628247 0.03848502
v 0.02935098 0.02629235 0.03850409
v 0.02747986 0.02647018 0.03993023
v 0.02566561 0.02643066 0.03993023
v 0.02566561 0.02621826 0.05243640
v 0.02747986 0.02626765 0.05258903
v 0.02935098 0.02631705 0.05274643
v 0.02935098 0.02601079 0.05368607
v 0.02566561 0.02533406 0.05486895
v 0.02566561 0.02459311 0.05622832
v 0.05931165 0.02276050 0.05828883
v 0.06118846 0.02206401 0.05922369
v 0.06305958 0.02207883 0.05915215
v 0.06305958 0.02266664 0.05821251
v 0.06493070 0.02337302 0.05678160
v 0.02566561 0.02456841 0.05626648
v 0.06680750 0.02321989 0.05678160
v 0.06810989 0.02242954 0.05783094
v 0.06867862 0.02390156 0.05531253
v 0.07188058 0.02252339 0.05613769
v 0.07118104 0.02410902 0.05372422
v 0.07254598 0.02390650 0.05307554
v 0.07325121 0.02419300 0.05194989
v 0.06936110 0.02231593 0.05764492
v 0.07055543 0.02142185 0.05865610
v 0.07163602 0.02053765 0.05966728
v 0.07360951 0.01875443 0.06167055
v 0.07617448 0.02338783 0.05116289
v 0.07610054 0.02398059 0.04930747
v 0.07542376 0.02429673 0.04869695
v 0.07242655 0.02554152 0.04554418
v 0.07242655 0.02549707 0.04367445
v 0.07242655 0.02523527 0.04180473
v 0.07320003 0.02420782 0.03731644
v 0.03309891 0.02594658 0.03746906
v 0.03122210 0.02595646 0.03749292
v 0.06680750 0.02475118 0.03618602
v 0.06680750 0.02436095 0.03504606
v 0.07195451 0.02431649 0.03682039
v 0.07055543 0.02489443 0.03805574
v 0.06867862 0.02465733 0.03618602
v 0.02747986 0.02627753 0.03858041
v 0.02566561 0.02642572 0.03988731
v 0.02566561 0.02592682 0.05334265
v 0.02747986 0.02596633 0.05352389
v 0.02566561 0.02591694 0.05337126
v 0.06493070 0.02041910 0.06138913
v 0.06493070 0.02200967 0.05901859
v 0.06680750 0.02039934 0.06132713
v 0.06680750 0.02250364 0.05795018
v 0.02566561 0.02382252 0.05717272
v 0.06867862 0.02024621 0.06108864
v 0.06867862 0.02084885 0.06014901
v 0.06871275 0.02187136 0.05853685
v 0.06680750 0.02192570 0.05888504
v 0.06680750 0.02098716 0.06039227
v 0.07247205 0.02290375 0.05499296
v 0.07383131 0.02068090 0.05806942
v 0.07617448 0.02266664 0.05265581
v 0.07446829 0.02305688 0.05321386
v 0.07055543 0.02005356 0.06078816
v 0.07242655 0.01892238 0.06187565
v 0.07353558 0.01688724 0.06341626
v 0.07419530 0.01759855 0.06234785
v 0.07551476 0.01706013 0.06177548
v 0.07485503 0.01830987 0.06104572
v 0.07719820 0.02243448 0.05223607
v 0.07439436 0.02108595 0.05690085
v 0.07242655 0.01795915 0.06281051
v 0.07758493 0.02271110 0.05116289
v 0.07549769 0.02434119 0.04741867
v 0.07794323 0.02301242 0.04929317
v 0.07643610 0.02394602 0.04741867
v 0.07539532 0.02431649 0.04585898
v 0.07523608 0.02423746 0.04461409
v 0.07392800 0.02451902 0.04180473
v 0.07368344 0.02439552 0.03993023
v 0.07349576 0.02430167 0.03856610
v 0.07418961 0.02383734 0.03798897
v 0.07429767 0.02338783 0.03618602
v 0.07251755 0.02403987 0.03619078
v 0.05369829 0.01698110 0.02096112
v 0.05204898 0.01697616 0.02096112
v 0.02566561 0.02447950 0.03484573
v 0.02566561 0.02514635 0.03618602
v 0.02935098 0.02592682 0.03756923
v 0.06867862 0.02431155 0.03513191
v 0.05394284 0.01697616 0.02096112
v 0.07040188 0.02440540 0.03619078
v 0.06967391 0.02424733 0.03523208
v 0.02566561 0.02624790 0.03866626
v 0.06493070 0.01948551 0.06227153
v 0.06680750 0.01946575 0.06227630
v 0.02566561 0.02289387 0.05827929
v 0.02566561 0.02209364 0.05921892
v 0.02566561 0.02116499 0.06030165
v 0.02566561 0.02032031 0.06127467
v 0.02566561 0.01941635 0.06231446
v 0.02566561 0.01938671 0.06234785
v 0.02566561 0.01857661 0.06325409
v 0.02566561 0.01854203 0.06328748
v 0.06867862 0.01930768 0.06216183
v 0.07055543 0.01911503 0.06204736
v 0.07367776 0.01318744 0.06530984
v 0.07437730 0.01011003 0.06672167
v 0.07430336 0.01212541 0.06567710
v 0.07492896 0.01279721 0.06508566
v 0.07535551 0.01505463 0.06344965
v 0.07478110 0.01629943 0.06302515
v 0.07242655 0.01702061 0.06348781
v 0.07242655 0.01206120 0.06611591
v 0.07606074 0.01569185 0.06232877
v 0.07728919 0.01507933 0.06163239
v 0.07900106 0.01489656 0.05963388
v 0.07929681 0.02102174 0.05059530
v 0.07055543 0.01807770 0.06298222
v 0.07888163 0.02222208 0.04929317
v 0.07786361 0.02300748 0.04741867
v 0.07608349 0.02387686 0.04535816
v 0.07486640 0.02405469 0.04180473
v 0.07462185 0.02392132 0.03993023
v 0.07573656 0.02282471 0.03805574
v 0.07549769 0.02262219 0.03618602
v 0.07417255 0.02271110 0.03441646
v 0.07532707 0.02246412 0.03511283
v 0.07242655 0.02322977 0.03431152
v 0.07092511 0.02413866 0.03557549
v 0.02566561 0.01635376 0.02096112
v 0.02566561 0.02583790 0.03772663
v 0.02747986 0.02588236 0.03764078
v 0.06118846 0.01641798 0.02096112
v 0.05922634 0.01662050 0.02096112
v 0.05847562 0.01669460 0.02096112
v 0.05720735 0.01677857 0.02096112
v 0.05556372 0.01688230 0.02096112
v 0.07242655 0.02251845 0.03314294
v 0.06493070 0.01845806 0.06320639
v 0.06680750 0.01840372 0.06321116
v 0.02566561 0.01763807 0.06391231
v 0.06118846 0.01529667 0.06554355
v 0.07242655 0.01055460 0.06685999
v 0.07380857 0.00942836 0.06715571
v 0.07495171 0.00831694 0.06698400
v 0.07585600 0.01018907 0.06583927
v 0.07550338 0.01154747 0.06546246
v 0.07573656 0.01393333 0.06379783
v 0.07666927 0.01393333 0.06293929
v 0.06493070 0.01612160 0.06482809
v 0.06493070 0.01518800 0.06540046
v 0.06493070 0.01393333 0.06604437
v 0.07055543 0.01206120 0.06633055
v 0.07702757 0.01285154 0.06326363
v 0.07763043 0.01393333 0.06200443
v 0.07856884 0.01393333 0.06091217
v 0.07887595 0.01274287 0.06131282
v 0.07919443 0.01393333 0.05997730
v 0.08088356 0.00746732 0.06150838
v 0.07981435 0.01393333 0.05865610
v 0.08079257 0.01470886 0.05570842
v 0.08105987 0.01534607 0.05445876
v 0.08107693 0.01705025 0.05257949
v 0.08086081 0.01863094 0.05024711
v 0.07879632 0.02209364 0.04741867
v 0.07941624 0.02128354 0.04929317
v 0.07934230 0.02115511 0.04741867
v 0.07764180 0.02284941 0.04554418
v 0.07617448 0.02353108 0.04367445
v 0.07740294 0.02265676 0.04367445
v 0.07722094 0.02248388 0.04229601
v 0.07706170 0.02231099 0.04105112
v 0.07667496 0.02185654 0.03805574
v 0.07643041 0.02157498 0.03618602
v 0.07346733 0.02242460 0.03328603
v 0.07538395 0.02065126 0.03323357
v 0.07471285 0.02189606 0.03386317
v 0.07711289 0.02049813 0.03524162
v 0.07902382 0.01678845 0.03333373
v 0.07721526 0.01873962 0.03326696
v 0.02566561 -0.00637854 0.02096112
v 0.06305958 0.01613148 0.02096112
v 0.06493070 0.01751952 0.06389323
v 0.06305958 0.01529667 0.06550539
v 0.02566561 0.01581534 0.06488056
v 0.06118846 0.01393333 0.06624947
v 0.07055543 0.01071761 0.06696015
v 0.07242655 0.00961607 0.06720818
v 0.07401900 0.00831694 0.06727495
v 0.07242655 0.00831694 0.06754683
v 0.06803596 0.00378727 0.06900159
v 0.07242655 0.00644481 0.06782824
v 0.07242655 0.00456774 0.06787593
v 0.07393937 0.00644481 0.06734650
v 0.07382563 0.00456774 0.06731788
v 0.07371757 0.00269561 0.06728449
v 0.07487778 0.00644481 0.06689815
v 0.07617448 0.00644481 0.06610161
v 0.07729488 0.00644481 0.06535276
v 0.07726644 0.00780321 0.06533368
v 0.07631666 0.00838115 0.06595375
v 0.07703895 0.00905295 0.06513813
v 0.07678871 0.01018907 0.06488056
v 0.07733469 0.01160181 0.06359751
v 0.06305958 0.01393333 0.06619223
v 0.07810816 0.01217481 0.06245278
v 0.07912618 0.01149808 0.06163716
v 0.08106556 0.00644481 0.06175164
v 0.08161154 0.00644481 0.06053059
v 0.08110537 0.00818357 0.06045427
v 0.07986553 0.00818851 0.06234308
v 0.08026934 0.00644481 0.06269127
v 0.08071294 0.01072255 0.05925708
v 0.08049114 0.01208096 0.05864178
v 0.08056507 0.01402224 0.05682930
v 0.08102006 0.01345912 0.05623308
v 0.08129874 0.01402224 0.05501681
v 0.08132717 0.01590425 0.05313755
v 0.08179922 0.01580546 0.05116289
v 0.08117362 0.01767759 0.05098641
v 0.08119068 0.01781096 0.04943149
v 0.08086081 0.01863094 0.05014694
v 0.07858021 0.02186148 0.04554418
v 0.07925700 0.02092295 0.04554418
v 0.07912050 0.02067596 0.04367445
v 0.08042289 0.01937683 0.04943149
v 0.08016696 0.01955466 0.04741867
v 0.08000772 0.01955466 0.04554418
v 0.08086081 0.01675387 0.03893814
v 0.08080394 0.01660074 0.03768847
v 0.07833566 0.02161450 0.04367445
v 0.07803423 0.02141691 0.04184288
v 0.07884751 0.02033512 0.04138977
v 0.07723800 0.02064138 0.03618602
v 0.07347302 0.02059693 0.03139723
v 0.07242655 0.01997947 0.03007125
v 0.06499326 0.01534607 0.02096112
v 0.06325863 0.01606232 0.02096112
v 0.07471854 0.01994489 0.03198390
v 0.07898969 0.01487680 0.03149739
v 0.07656121 0.01803818 0.03201729
v 0.07889870 0.01852227 0.03556595
v 0.07935368 0.01717374 0.03431152
v 0.08036602 0.01581040 0.03421612
v 0.08079257 0.01467922 0.03352452
v 0.07934799 0.01562269 0.03259920
v 0.02566561 -0.01378309 0.02097066
v 0.02724099 -0.01375345 0.02096112
v 0.02566561 0.00762539 0.06909698
v 0.06118846 0.01216987 0.06685045
v 0.06324726 0.01190313 0.06688384
v 0.06493070 0.01206120 0.06677891
v 0.02566561 0.00648433 0.06953579
v 0.02566561 0.00644481 0.06955010
v 0.06680750 0.01206120 0.06667397
v 0.06867862 0.01084110 0.06700308
v 0.07055543 0.00978402 0.06724156
v 0.07055543 0.00831694 0.06766130
v 0.06680750 0.00390088 0.06903497
v 0.06803596 0.00301175 0.06900159
v 0.06866725 0.00251284 0.06888711
v 0.07055543 0.00269561 0.06846261
v 0.07055543 0.00456774 0.06841968
v 0.07242655 0.00269561 0.06781393
v 0.07359245 0.00082842 0.06722249
v 0.07242655 0.00082842 0.06772807
v 0.07242655 -0.00104371 0.06761837
v 0.07617448 0.00456774 0.06592036
v 0.07811954 0.00456774 0.06465162
v 0.07345026 -0.00104371 0.06714140
v 0.07453085 0.00082842 0.06662627
v 0.07949586 0.00456774 0.06371198
v 0.08043427 0.00456774 0.06298222
v 0.07933093 0.00644481 0.06364521
v 0.07764180 0.01018907 0.06394093
v 0.07909775 0.00765996 0.06346873
v 0.07857452 0.01018907 0.06288206
v 0.07884182 0.00890970 0.06317778
v 0.08134992 0.00456774 0.06204736
v 0.08203240 0.00456774 0.06053059
v 0.08170822 0.00831694 0.05865610
v 0.08124186 0.01208096 0.05682930
v 0.08117930 0.01013473 0.05864178
v 0.08093474 0.00947776 0.05977698
v 0.08177647 0.01018907 0.05678160
v 0.08182196 0.01206120 0.05491188
v 0.08184472 0.01393333 0.05303738
v 0.08199827 0.01393333 0.05116289
v 0.08375564 0.00456774 0.03805574
v 0.08182196 0.01580546 0.04929317
v 0.08120205 0.01746518 0.04741867
v 0.08098025 0.01699592 0.04180473
v 0.08080962 0.01852721 0.04890205
v 0.07900676 0.02052283 0.04263943
v 0.08068451 0.01640810 0.03618602
v 0.07964373 0.01781096 0.03619078
v 0.08074707 0.01840372 0.04741867
v 0.08106556 0.01546956 0.03618602
v 0.07921718 0.01889768 0.03805574
v 0.07531001 0.01869516 0.03143062
v 0.07404743 0.01928792 0.03079148
v 0.07337064 0.01862601 0.02962290
v 0.06540843 0.01506451 0.02096112
v 0.08032621 0.01400742 0.03247041
v 0.07930818 0.01393333 0.03120167
v 0.07106729 0.00838609 0.02096112
v 0.07006633 0.00978896 0.02096112
v 0.06916774 0.01088062 0.02096112
v 0.06650608 0.01400248 0.02096112
v 0.08099162 0.01518800 0.03477418
v 0.08117930 0.01400742 0.03421612
v 0.08169116 0.01206120 0.03431152
v 0.08214614 0.01018907 0.03431152
v 0.08095750 0.01343442 0.03311432
v 0.08067882 0.01206120 0.03183128
v 0.02566561 -0.02163715 0.03618602
v 0.02935098 -0.01371887 0.02096112
v 0.06399798 0.01112266 0.06708417
v 0.06493070 0.01106833 0.06706985
v 0.06680750 0.01095471 0.06703647
v 0.02566561 0.00456774 0.06968842
v 0.06680750 0.00483942 0.06877264
v 0.06680750 0.00831694 0.06779008
v 0.06867862 0.00644481 0.06825751
v 0.06493070 0.00269561 0.06906359
v 0.06698381 0.00251284 0.06902067
v 0.06772316 0.00176201 0.06895866
v 0.06867862 0.00082842 0.06870586
v 0.07055543 -0.00104371 0.06819073
v 0.07055543 0.00082842 0.06837199
v 0.07246068 -0.00275283 0.06738466
v 0.07337633 -0.00202177 0.06709370
v 0.07785792 0.00287344 0.06465162
v 0.07939349 0.00269561 0.06362136
v 0.08033189 0.00269561 0.06294406
v 0.08136130 0.00269561 0.06200920
v 0.08206083 0.00269561 0.06053059
v 0.08204946 0.00644481 0.05865610
v 0.08233382 0.00269561 0.05865610
v 0.08226558 0.00456774 0.05865610
v 0.08202671 0.01206120 0.05303738
v 0.08362484 0.00456774 0.03993023
v 0.08335753 0.00269561 0.04554418
v 0.08347128 0.00269561 0.04367445
v 0.08357365 0.00269561 0.04180473
v 0.08367602 0.00269561 0.03993023
v 0.08374427 0.00269561 0.03805574
v 0.08373290 0.00456774 0.03618602
v 0.08345422 0.00644481 0.03805574
v 0.08171390 0.01580546 0.04741867
v 0.08343147 0.00644481 0.03618602
v 0.08272625 0.00924065 0.03541809
v 0.08152054 0.01393333 0.03618602
v 0.06613640 0.01441742 0.02096112
v 0.07965511 0.01197723 0.03051960
v 0.07908638 0.01130049 0.02953705
v 0.07865983 0.01255023 0.02986139
v 0.07109573 0.00834164 0.02096112
v 0.08286843 0.00799092 0.03490773
v 0.08112243 0.01206120 0.03277091
v 0.08081531 0.01092014 0.03157848
v 0.07906363 0.00382679 0.02579760
v 0.02747986 -0.02156799 0.03618602
v 0.02566561 -0.02166184 0.03624325
v 0.03684115 -0.02076283 0.03517961
v 0.03122210 -0.01364972 0.02096112
v 0.06680750 0.00644481 0.06831952
v 0.02566561 -0.00666504 0.06832906
v 0.04807924 0.00269561 0.06928777
v 0.04995605 0.00269561 0.06926869
v 0.05556941 0.00269561 0.06919715
v 0.06305958 0.00269561 0.06909221
v 0.06867862 -0.00104371 0.06835291
v 0.07055543 -0.00291584 0.06788071
v 0.07186351 -0.00416558 0.06726541
v 0.07310903 -0.00326656 0.06694107
v 0.07428630 -0.00288621 0.06616361
v 0.07665222 -0.00104371 0.06485194
v 0.07919443 0.00122359 0.06349735
v 0.07985985 0.00069011 0.06277235
v 0.08107693 0.00082842 0.06171348
v 0.08170822 0.00082842 0.06053059
v 0.08196984 -0.00104371 0.05865610
v 0.08222576 0.00082842 0.05865610
v 0.08243619 0.00082842 0.05678160
v 0.08275468 0.00140636 0.05423458
v 0.08275468 0.00210285 0.05423458
v 0.08281155 0.00271537 0.05300876
v 0.08295374 0.00269561 0.05116289
v 0.08327791 0.00082842 0.04741867
v 0.08315848 0.00082842 0.04929317
v 0.08335753 0.00082842 0.04554418
v 0.08341441 0.00082842 0.04367445
v 0.08345991 0.00082842 0.04180473
v 0.08320966 -0.00104371 0.04367445
v 0.08349403 0.00082842 0.03993023
v 0.08350541 0.00082842 0.03805574
v 0.08368171 0.00269561 0.03618602
v 0.08310730 0.00265609 0.03416366
v 0.08312436 0.00468135 0.03413981
v 0.08305042 0.00644481 0.03454047
v 0.07933662 0.01018907 0.02926041
v 0.07907501 0.00756611 0.02766255
v 0.07207394 0.00668191 0.02096112
v 0.08128168 0.01025328 0.03229871
v 0.08171959 0.00831694 0.03243703
v 0.08075844 0.00644481 0.02981846
v 0.08053663 0.00473075 0.02876435
v 0.08057076 0.00831694 0.03016188
v 0.08094612 0.00421702 0.02943212
v 0.08049682 0.00269561 0.02851633
v 0.07906363 0.00313030 0.02579760
v 0.07250049 0.00456774 0.02096112
v 0.07247774 0.00474557 0.02096112
v 0.07211944 0.00657818 0.02096112
v 0.03122210 -0.02141486 0.03618602
v 0.02747986 -0.02229412 0.03805574
v 0.02566561 -0.02236328 0.03805574
v 0.03784779 -0.02073319 0.03522254
v 0.03497003 -0.02125679 0.03618602
v 0.03309891 -0.02133583 0.03618602
v 0.04596925 -0.01308166 0.02096112
v 0.04620812 -0.01307178 0.02096112
v 0.05744053 -0.01251854 0.02096112
v 0.02566561 -0.00847790 0.06789025
v 0.06867862 -0.00291584 0.06795702
v 0.07055543 -0.00440268 0.06738466
v 0.05487556 -0.00762828 0.06709847
v 0.06305958 -0.00600313 0.06723203
v 0.07055543 -0.00533628 0.06684568
v 0.07233556 -0.00674902 0.06564849
v 0.07290429 -0.00743069 0.06511905
v 0.07515077 -0.00940161 0.06331610
v 0.07370051 -0.00618096 0.06547200
v 0.07405312 -0.00479291 0.06576773
v 0.07544082 -0.00250585 0.06538138
v 0.07781242 -0.00104371 0.06391708
v 0.07894988 -0.00002614 0.06331133
v 0.07896125 -0.00567217 0.06144161
v 0.08089494 -0.00021385 0.06150838
v 0.08123617 -0.00092022 0.06054013
v 0.08174234 -0.00853717 0.05491188
v 0.08123617 -0.00479291 0.05836038
v 0.08116792 -0.00853717 0.05637141
v 0.08129305 -0.01040436 0.05498819
v 0.08202671 -0.00666504 0.05491188
v 0.08219733 -0.00479291 0.05491188
v 0.08229401 -0.00104371 0.05678160
v 0.08264094 0.00079878 0.05487849
v 0.08282862 0.00079878 0.05310893
v 0.08301630 0.00082842 0.05116289
v 0.08304473 -0.00104371 0.04929317
v 0.08311867 -0.00104371 0.04741867
v 0.08274900 -0.00402727 0.04929317
v 0.08264662 -0.00496086 0.04929317
v 0.08277174 -0.00421497 0.04741867
v 0.08266369 -0.00514857 0.04741867
v 0.08278880 -0.00432365 0.04554418
v 0.08266937 -0.00526218 0.04554418
v 0.08344284 0.00082842 0.03618602
v 0.08299355 -0.00291584 0.04180473
v 0.08298218 -0.00291584 0.03805574
v 0.08265231 -0.00516833 0.03618602
v 0.08277743 -0.00423473 0.03618602
v 0.08295374 -0.00291584 0.03618602
v 0.08305042 0.00082842 0.03452616
v 0.08275468 -0.00407172 0.03517961
v 0.08282862 -0.00291584 0.03501744
v 0.08277174 0.00325379 0.03327650
v 0.08240776 -0.00291584 0.03408258
v 0.08251582 -0.00104371 0.03382978
v 0.08262956 0.00082842 0.03359129
v 0.08277174 0.00412811 0.03327650
v 0.08271487 0.00537784 0.03340051
v 0.08262387 0.00644481 0.03360561
v 0.08205514 0.00644481 0.03243703
v 0.08084944 0.00546676 0.02964198
v 0.08043995 0.00092227 0.02885498
v 0.07949586 0.00258200 0.02665137
v 0.08093474 0.00269561 0.02945120
v 0.08087219 0.00160888 0.02958951
v 0.08079825 0.00036409 0.02975168
v 0.07894988 0.00188056 0.02591684
v 0.07217063 0.00068023 0.02096112
v 0.07218200 0.00074444 0.02096112
v 0.07239812 0.00268573 0.02096112
v 0.07241518 0.00293271 0.02096112
v 0.03684115 -0.02116788 0.03618602
v 0.02935098 -0.02220027 0.03805574
v 0.02935098 -0.02251641 0.03929109
v 0.02747986 -0.02255592 0.03913846
v 0.02566561 -0.02237315 0.03808913
v 0.05931165 -0.01239505 0.02096112
v 0.06965684 -0.01885118 0.03709703
v 0.02566561 -0.00854211 0.06786640
v 0.06493070 -0.00584506 0.06715094
v 0.06599422 -0.00575121 0.06709847
v 0.02566561 -0.00968811 0.06730357
v 0.05369829 -0.00859151 0.06659288
v 0.05552960 -0.00836429 0.06661674
v 0.05612108 -0.00751960 0.06706032
v 0.06669376 -0.00649216 0.06656904
v 0.06872412 -0.01057231 0.06383599
v 0.06867862 -0.01382755 0.06184226
v 0.06938385 -0.01130338 0.06331133
v 0.07165308 -0.00765298 0.06524783
v 0.07429767 -0.01205915 0.06191858
v 0.07443417 -0.01035003 0.06293929
v 0.07233556 -0.00838404 0.06464685
v 0.07546357 -0.00815682 0.06352597
v 0.07567969 -0.01172325 0.06170394
v 0.07692521 -0.01101688 0.06132236
v 0.07720957 -0.00976715 0.06156085
v 0.07499153 -0.00479291 0.06500934
v 0.07519626 -0.00375559 0.06518106
v 0.07695932 -0.00535109 0.06321594
v 0.07837546 -0.00291584 0.06284390
v 0.07874514 -0.00104371 0.06314916
v 0.07808541 -0.00488677 0.06243847
v 0.07770436 -0.01039942 0.06063076
v 0.07871670 -0.01040930 0.05918077
v 0.07891576 -0.00929788 0.05949556
v 0.07914325 -0.00804815 0.05984375
v 0.07939349 -0.00666504 0.06023010
v 0.08084375 -0.00381980 0.05957188
v 0.08106556 -0.00257007 0.05992484
v 0.08186178 -0.01040930 0.05303738
v 0.08101437 -0.00617602 0.05797403
v 0.08096319 -0.00978197 0.05601845
v 0.08074138 -0.01102676 0.05566549
v 0.08111674 -0.01165410 0.05442060
v 0.08209496 -0.00853717 0.05303738
v 0.08225420 -0.00666504 0.05303738
v 0.08270919 0.00015662 0.05377669
v 0.08286274 -0.00121166 0.05133460
v 0.08277743 -0.00291584 0.05071454
v 0.08273193 -0.00389884 0.05028049
v 0.08239638 -0.00666504 0.05116289
v 0.08218595 -0.00853717 0.05116289
v 0.08266369 -0.00526218 0.04180473
v 0.08265800 -0.00522760 0.03805574
v 0.08188452 -0.01040930 0.05116289
v 0.08240207 -0.00666504 0.03805574
v 0.08234519 -0.00666504 0.03618602
v 0.08184472 -0.00666504 0.03431152
v 0.08233951 -0.00473364 0.03445939
v 0.08237363 0.00265609 0.03256581
v 0.08145229 0.00269561 0.03056730
v 0.08163997 -0.00291584 0.03243703
v 0.08187315 -0.00104371 0.03243703
v 0.08007597 -0.00104371 0.02869281
v 0.08070156 -0.00104371 0.02994247
v 0.07943899 0.00082842 0.02702818
v 0.08119068 0.00092227 0.03045283
v 0.07903519 -0.00413594 0.02769117
v 0.07888163 -0.00538073 0.02788196
v 0.07173270 -0.00104371 0.02096112
v 0.07186920 -0.00063866 0.02096112
v 0.03684115 -0.02176558 0.03805574
v 0.03497003 -0.02187919 0.03805574
v 0.03309891 -0.02198786 0.03805574
v 0.03122210 -0.02270411 0.04040243
v 0.03684115 -0.02255098 0.04099865
v 0.03580606 -0.02258062 0.04088894
v 0.03684115 -0.02279797 0.04193828
v 0.03309891 -0.02265472 0.04059800
v 0.02566561 -0.02257568 0.03905738
v 0.03684115 -0.02322772 0.04367445
v 0.03497003 -0.02328205 0.04367445
v 0.06118846 -0.01211349 0.02096112
v 0.06305958 -0.01175289 0.02096112
v 0.06423116 -0.01149603 0.02096112
v 0.07324553 -0.01507728 0.03153555
v 0.07189764 -0.01714700 0.03493635
v 0.07248343 -0.01741374 0.03615263
v 0.07102748 -0.01868323 0.03805574
v 0.07145402 -0.01883142 0.03901922
v 0.07242655 -0.01961683 0.04367445
v 0.07055543 -0.01995272 0.04367445
v 0.05744053 -0.00853717 0.06633532
v 0.05931165 -0.00853717 0.06613022
v 0.02566561 -0.01524523 0.06346873
v 0.05369829 -0.01005859 0.06565325
v 0.05556941 -0.00999931 0.06558171
v 0.05744053 -0.00990052 0.06548631
v 0.06680750 -0.01247408 0.06288206
v 0.06118846 -0.00958438 0.06528122
v 0.06493070 -0.00830995 0.06564849
v 0.06867862 -0.01476114 0.06126035
v 0.06305958 -0.01187638 0.06366429
v 0.06680750 -0.01493403 0.06136529
v 0.07055543 -0.01359044 0.06169917
v 0.07195451 -0.01336816 0.06156085
v 0.07320571 -0.01317057 0.06143207
v 0.07429767 -0.01299274 0.06123174
v 0.07669771 -0.00666504 0.06300130
v 0.07626548 -0.01238023 0.06063076
v 0.07744275 -0.01178747 0.06007270
v 0.07909206 -0.01151085 0.05789295
v 0.08079257 -0.00742575 0.05762107
v 0.08066745 -0.00479291 0.05930001
v 0.08128168 -0.01195542 0.05303738
v 0.08125324 -0.01239999 0.05117720
v 0.08098593 -0.01340768 0.04929317
v 0.08134423 -0.01228143 0.04929317
v 0.08035464 -0.01289395 0.05303738
v 0.08070156 -0.01310142 0.05181157
v 0.08094612 -0.01331876 0.05056668
v 0.07685127 -0.01303226 0.05909968
v 0.08195277 -0.00853717 0.03805574
v 0.08106556 -0.01197024 0.03993023
v 0.08099162 -0.01160964 0.03864242
v 0.08151486 -0.00870018 0.03603338
v 0.08120205 -0.00811730 0.03431152
v 0.08092906 -0.00770731 0.03323357
v 0.08112243 -0.00666504 0.03284722
v 0.08082100 -0.00552892 0.03156417
v 0.08129305 -0.00486207 0.03228917
v 0.08102574 -0.00291584 0.03115398
v 0.07978023 -0.00291584 0.02869281
v 0.08092337 -0.00428413 0.03136384
v 0.07940487 -0.00477315 0.02857834
v 0.07922287 -0.00666504 0.02919363
v 0.07902950 -0.00766779 0.02955136
v 0.07848352 -0.00666504 0.02825876
v 0.07754512 -0.00666504 0.02744315
v 0.07086824 -0.00297512 0.02096112
v 0.03509515 -0.02281278 0.04162825
v 0.02566561 -0.02258062 0.03908600
v 0.03309891 -0.02330675 0.04367445
v 0.03684115 -0.02331169 0.04554418
v 0.03497003 -0.02339567 0.04554418
v 0.03122210 -0.02353892 0.04554418
v 0.02935098 -0.02360313 0.04554418
v 0.02747986 -0.02363771 0.04554418
v 0.06437334 -0.01146145 0.02096112
v 0.07432611 -0.01389176 0.03048145
v 0.07429767 -0.01487970 0.03197436
v 0.07429767 -0.01532426 0.03290923
v 0.07242655 -0.01812011 0.03805574
v 0.07314884 -0.01687038 0.03550395
v 0.07365501 -0.01710254 0.03675361
v 0.07428630 -0.01731001 0.03812251
v 0.07714132 -0.01697905 0.04082694
v 0.07748825 -0.01711736 0.04180473
v 0.07246636 -0.01861902 0.03975852
v 0.07186920 -0.01898949 0.04026888
v 0.07246636 -0.01914756 0.04185242
v 0.07420099 -0.01846095 0.04185242
v 0.07617448 -0.01765084 0.04180473
v 0.07378582 -0.01904383 0.04367445
v 0.07242655 -0.01965634 0.04554418
v 0.07055543 -0.02002188 0.04554418
v 0.02566561 -0.01920189 0.05994392
v 0.06493070 -0.01708772 0.05974359
v 0.06493070 -0.01603064 0.06064506
v 0.06493070 -0.01504270 0.06143207
v 0.06118846 -0.01294335 0.06314916
v 0.06858763 -0.01615906 0.06019671
v 0.07055543 -0.01452898 0.06106480
v 0.06680750 -0.01603064 0.06051628
v 0.07055543 -0.01565028 0.06012994
v 0.07560575 -0.01341262 0.05993914
v 0.07190901 -0.01531439 0.05986283
v 0.08094612 -0.01343237 0.04741867
v 0.07966079 -0.01582811 0.04367445
v 0.08057645 -0.01415851 0.04367445
v 0.08082669 -0.01312118 0.04180473
v 0.08150916 -0.01040930 0.03993023
v 0.08001340 -0.01370899 0.05117720
v 0.07929112 -0.01528475 0.04741867
v 0.07717544 -0.01325455 0.05785002
v 0.07860295 -0.01676664 0.04367445
v 0.07959255 -0.01558606 0.04554418
v 0.07316021 -0.01498837 0.05920461
v 0.07620860 -0.01357069 0.05854640
v 0.08043995 -0.01415851 0.04180473
v 0.08066176 -0.01290383 0.03993023
v 0.07974041 -0.01430176 0.03979668
v 0.08028640 -0.01225674 0.03803189
v 0.08071863 -0.01115025 0.03739275
v 0.08111105 -0.00990052 0.03655328
v 0.08082669 -0.00943125 0.03530839
v 0.07994516 -0.00666504 0.03056730
v 0.07992810 -0.00855199 0.03242272
v 0.07929681 -0.00805803 0.03056730
v 0.08047408 -0.00486207 0.03067224
v 0.07724938 -0.01155036 0.03123506
v 0.07767593 -0.01043400 0.03059592
v 0.07684558 -0.01107616 0.02999017
v 0.07735175 -0.00982642 0.02937011
v 0.07716976 -0.00765791 0.02772456
v 0.06730799 -0.00883355 0.02096112
v 0.06793359 -0.00790984 0.02096112
v 0.02747986 -0.02302519 0.04180473
v 0.02566561 -0.02365253 0.04554418
v 0.02935098 -0.02301531 0.04180473
v 0.02935098 -0.02332651 0.04367445
v 0.03497003 -0.02313880 0.04741867
v 0.03122210 -0.02340061 0.04741867
v 0.02935098 -0.02352903 0.04741867
v 0.02747986 -0.02362783 0.04741867
v 0.02566561 -0.02370192 0.04741867
v 0.06531175 -0.01101194 0.02096112
v 0.07496309 -0.01301744 0.02979938
v 0.07556594 -0.01357563 0.03104427
v 0.07525314 -0.01510198 0.03334804
v 0.07429767 -0.01590220 0.03431152
v 0.07608349 -0.01648014 0.03812251
v 0.07539532 -0.01704326 0.03879028
v 0.07664653 -0.01675183 0.03957728
v 0.07627116 -0.01562558 0.03610493
v 0.07842096 -0.01666785 0.04180473
v 0.07766456 -0.01722109 0.04367445
v 0.07617448 -0.01793240 0.04367445
v 0.07472422 -0.01861408 0.04367445
v 0.07311472 -0.01874251 0.04125621
v 0.07372325 -0.01902407 0.04554418
v 0.07243224 -0.01919696 0.04729466
v 0.07180664 -0.01901913 0.04890205
v 0.07055543 -0.01964646 0.04741867
v 0.02566561 -0.02014043 0.05907583
v 0.06680750 -0.01703339 0.05967681
v 0.02566561 -0.02017007 0.05904721
v 0.06790515 -0.01698893 0.05962435
v 0.06915067 -0.01687038 0.05934293
v 0.07049856 -0.01652954 0.05869426
v 0.07952999 -0.01572931 0.04180473
v 0.07738019 -0.01712230 0.04508152
v 0.07903519 -0.01512174 0.04844893
v 0.07802285 -0.01657894 0.04563957
v 0.07342183 -0.01887588 0.04658397
v 0.07465597 -0.01851528 0.04554418
v 0.06983315 -0.01707784 0.05809327
v 0.07925700 -0.01538848 0.04033089
v 0.07892713 -0.01502295 0.03908600
v 0.07931387 -0.01369912 0.03805574
v 0.07904088 -0.01330394 0.03700641
v 0.07714132 -0.01326937 0.03330989
v 0.07681715 -0.01279516 0.03206022
v 0.07559437 -0.01176771 0.02938442
v 0.06635821 -0.01007341 0.02096112
v 0.06648902 -0.00990546 0.02096112
v 0.03480509 -0.02272881 0.04931701
v 0.03407143 -0.02259050 0.05025187
v 0.03122210 -0.02219533 0.05303738
v 0.03122210 -0.02269423 0.05072408
v 0.02747986 -0.02262508 0.05227900
v 0.02566561 -0.02338084 0.04935040
v 0.02566561 -0.02339073 0.04929317
v 0.06623877 -0.01019196 0.02096112
v 0.07696502 -0.01497849 0.03542763
v 0.07732900 -0.01527487 0.03667730
v 0.07134028 -0.01881166 0.05015171
v 0.03122210 -0.02178040 0.05491188
v 0.02747986 -0.02095053 0.05803127
v 0.02935098 -0.02088632 0.05792633
v 0.02566561 -0.02097029 0.05811235
v 0.03122210 -0.02078752 0.05780709
v 0.02935098 -0.02139016 0.05678160
v 0.02935098 -0.02192365 0.05491188
v 0.02566561 -0.02247689 0.05356682
v 0.02919173 -0.02237809 0.05286090
v 0.02970928 -0.02254604 0.05191174
v 0.02566561 -0.02155811 0.05682453
v 0.02747986 -0.02151365 0.05678160
v 0.02747986 -0.02205208 0.05491188
v 0.02566561 -0.02215581 0.05491188
v 0.02566561 -0.02157293 0.05678160
f 1 2 3
f 1 3 4
f 1 4 5
f 1 5 6
f 1 6 7
f 1 7 8
f 1 8 9
f 1 9 10
f 1 10 11
f 1 11 12
f 1 12 13
f 1 13 2
f 2 14 15
f 2 15 3
f 2 13 16
f 2 16 14
f 3 15 4
f 4 17 18
f 4 18 44
f 4 44 83
f 4 83 131
f 4 131 169
f 4 169 125
f 4 125 124
f 4 124 168
f 4 168 219
f 4 219 285
f 4 285 354
f 4 354 402
f 4 402 456
f 4 456 530
f 4 530 605
f 4 605 667
f 4 667 734
f 4 734 741
f 4 741 788
f 4 788 787
f 4 787 800
f 4 800 806
f 4 806 807
f 4 807 803
f 4 803 796
f 4 796 762
f 4 762 760
f 4 760 692
f 4 692 620
f 4 620 536
f 4 536 533
f 4 533 463
f 4 463 406
f 4 406 359
f 4 359 292
f 4 292 291
f 4 291 287
f 4 287 223
f 4 223 179
f 4 179 141
f 4 141 140
f 4 140 139
f 4 139 138
f 4 138 137
f 4 137 136
f 4 136 135
f 4 135 134
f 4 134 91
f 4 91 56
f 4 56 50
f 4 50 49
f 4 49 86
f 4 86 84
f 4 84 45
f 4 45 20
f 4 20 5
f 4 15 14
f 4 14 19
f 4 19 17
f 5 20 21
f 5 21 6
f 6 21 22
f 6 22 7
f 7 22 23
f 7 23 8
f 8 23 24
f 8 24 25
f 8 25 9
f 9 25 26
f 9 26 27
f 9 27 10
f 10 27 28
f 10 28 29
f 10 29 30
f 10 30 31
f 10 31 32
f 10 32 11
f 11 32 33
f 11 33 12
f 12 33 34
f 12 34 13
f 13 34 16
f 14 35 36
f 14 36 19
f 14 16 35
f 16 34 37
f 16 37 38
f 16 38 39
f 16 39 40
f 16 40 41
f 16 41 35
f 17 42 43
f 17 43 18
f 17 19 36
f 17 36 42
f 18 43 44
f 20 45 46
f 20 46 47
f 20 47 22
f 20 22 21
f 22 47 48
f 22 48 23
f 23 48 49
f 23 49 50
f 23 50 24
f 24 51 52
f 24 52 53
f 24 53 54
f 24 54 55
f 24 55 25
f 24 50 56
f 24 56 51
f 25 55 57
f 25 57 58
f 25 58 59
f 25 59 26
f 26 60 61
f 26 61 62
f 26 62 63
f 26 63 28
f 26 28 27
f 26 59 64
f 26 64 65
f 26 65 66
f 26 66 67
f 26 67 60
f 28 63 29
f 29 63 30
f 30 63 68
f 30 68 69
f 30 69 70
f 30 70 32
f 30 32 31
f 32 71 33
f 32 70 71
f 33 71 34
f 34 71 72
f 34 72 73
f 34 73 74
f 34 74 37
f 35 75 76
f 35 76 36
f 35 41 77
f 35 77 78
f 35 78 75
f 36 76 42
f 37 74 38
f 38 79 80
f 38 80 81
f 38 81 39
f 38 74 79
f 39 81 77
f 39 77 41
f 39 41 40
f 42 82 43
f 42 76 82
f 43 82 83
f 43 83 44
f 45 84 46
f 46 85 47
f 46 84 85
f 47 85 48
f 48 85 49
f 49 85 86
f 51 56 52
f 52 87 53
f 52 56 87
f 53 88 54
f 53 87 89
f 53 89 88
f 54 88 90
f 54 90 57
f 54 57 55
f 56 91 87
f 57 90 58
f 58 92 93
f 58 93 94
f 58 94 64
f 58 64 59
f 58 90 95
f 58 95 96
f 58 96 89
f 58 89 92
f 60 97 61
f 60 67 98
f 60 98 99
f 60 99 97
f 61 97 100
f 61 100 62
f 62 100 99
f 62 99 63
f 63 99 68
f 64 94 93
f 64 93 92
f 64 92 65
f 65 92 101
f 65 101 66
f 66 101 102
f 66 102 67
f 67 103 104
f 67 104 105
f 67 105 106
f 67 106 107
f 67 107 99
f 67 99 108
f 67 108 98
f 67 102 109
f 67 109 103
f 68 99 107
f 68 107 110
f 68 110 69
f 69 111 70
f 69 110 112
f 69 112 113
f 69 113 111
f 70 111 71
f 71 111 72
f 72 111 113
f 72 113 114
f 72 114 115
f 72 115 116
f 72 116 117
f 72 117 118
f 72 118 73
f 73 118 74
f 74 118 119
f 74 119 120
f 74 120 121
f 74 121 79
f 75 122 76
f 75 78 122
f 76 122 123
f 76 123 124
f 76 124 125
f 76 125 126
f 76 126 82
f 77 81 127
f 77 127 78
f 78 127 128
f 78 128 122
f 79 121 129
f 79 129 80
f 80 129 81
f 81 129 130
f 81 130 127
f 82 126 131
f 82 131 83
f 84 86 85
f 87 132 133
f 87 133 89
f 87 91 134
f 87 134 135
f 87 135 136
f 87 136 137
f 87 137 138
f 87 138 139
f 87 139 140
f 87 140 141
f 87 141 132
f 88 89 96
f 88 96 95
f 88 95 90
f 89 133 142
f 89 142 143
f 89 143 102
f 89 102 92
f 92 102 101
f 97 99 100
f 98 108 99
f 102 143 109
f 103 144 145
f 103 145 146
f 103 146 147
f 103 147 148
f 103 148 149
f 103 149 104
f 103 109 150
f 103 150 151
f 103 151 144
f 104 149 105
f 105 149 152
f 105 152 153
f 105 153 154
f 105 154 107
f 105 107 106
f 107 154 155
f 107 155 110
f 109 143 142
f 109 142 156
f 109 156 150
f 110 157 112
f 110 155 157
f 112 157 158
f 112 158 113
f 113 158 159
f 113 159 114
f 114 159 115
f 115 159 160
f 115 160 116
f 116 160 117
f 117 160 161
f 117 161 118
f 118 161 119
f 119 161 162
f 119 162 163
f 119 163 120
f 120 164 121
f 120 163 165
f 120 165 164
f 121 166 167
f 121 167 129
f 121 164 166
f 122 128 175
f 122 175 174
f 122 174 173
f 122 173 172
f 122 172 171
f 122 171 220
f 122 220 276
f 122 276 275
f 122 275 341
f 122 341 392
f 122 392 347
f 122 347 346
f 122 346 345
f 122 345 344
f 122 344 396
f 122 396 442
f 122 442 453
f 122 453 452
f 122 452 451
f 122 451 525
f 122 525 524
f 122 524 523
f 122 523 522
f 122 522 596
f 122 596 595
f 122 595 665
f 122 665 732
f 122 732 731
f 122 731 781
f 122 781 780
f 122 780 789
f 122 789 742
f 122 742 674
f 122 674 610
f 122 610 609
f 122 609 608
f 122 608 531
f 122 531 462
f 122 462 461
f 122 461 460
f 122 460 404
f 122 404 355
f 122 355 286
f 122 286 219
f 122 219 168
f 122 168 123
f 123 168 124
f 125 169 170
f 125 170 126
f 126 170 131
f 127 130 171
f 127 171 172
f 127 172 173
f 127 173 174
f 127 174 175
f 127 175 128
f 129 167 130
f 130 167 166
f 130 166 176
f 130 176 171
f 131 170 169
f 132 177 133
f 132 141 177
f 133 178 142
f 133 177 178
f 141 179 180
f 141 180 177
f 142 178 156
f 144 151 145
f 145 151 181
f 145 181 182
f 145 182 183
f 145 183 184
f 145 184 185
f 145 185 147
f 145 147 146
f 147 185 148
f 148 185 186
f 148 186 187
f 148 187 153
f 148 153 152
f 148 152 149
f 150 156 178
f 150 178 188
f 150 188 189
f 150 189 151
f 151 189 190
f 151 190 191
f 151 191 181
f 153 187 192
f 153 192 193
f 153 193 194
f 153 194 154
f 154 194 195
f 154 195 196
f 154 196 197
f 154 197 198
f 154 198 199
f 154 199 200
f 154 200 201
f 154 201 155
f 155 201 202
f 155 202 157
f 157 203 158
f 157 202 204
f 157 204 205
f 157 205 203
f 158 203 206
f 158 206 159
f 159 161 160
f 159 206 207
f 159 207 161
f 161 207 162
f 162 207 206
f 162 206 208
f 162 208 163
f 163 208 209
f 163 209 210
f 163 210 211
f 163 211 212
f 163 212 165
f 164 165 213
f 164 213 166
f 165 214 215
f 165 215 213
f 165 212 216
f 165 216 217
f 165 217 218
f 165 218 214
f 166 213 176
f 171 176 220
f 176 213 220
f 177 180 221
f 177 221 178
f 178 221 222
f 178 222 188
f 179 223 180
f 180 224 222
f 180 222 221
f 180 223 224
f 181 191 190
f 181 190 225
f 181 225 226
f 181 226 182
f 182 227 183
f 182 226 228
f 182 228 229
f 182 229 227
f 183 227 230
f 183 230 231
f 183 231 232
f 183 232 233
f 183 233 234
f 183 234 235
f 183 235 236
f 183 236 237
f 183 237 238
f 183 238 239
f 183 239 184
f 184 239 238
f 184 238 240
f 184 240 241
f 184 241 242
f 184 242 192
f 184 192 185
f 185 192 187
f 185 187 186
f 188 222 189
f 189 222 190
f 190 222 243
f 190 243 225
f 192 242 244
f 192 244 195
f 192 195 193
f 193 195 194
f 195 244 245
f 195 245 197
f 195 197 196
f 197 246 247
f 197 247 248
f 197 248 198
f 197 245 249
f 197 249 250
f 197 250 246
f 198 248 251
f 198 251 252
f 198 252 253
f 198 253 199
f 199 254 200
f 199 253 254
f 200 254 255
f 200 255 256
f 200 256 201
f 201 256 257
f 201 257 258
f 201 258 202
f 202 258 259
f 202 259 260
f 202 260 204
f 203 261 208
f 203 208 206
f 203 205 262
f 203 262 263
f 203 263 261
f 204 260 264
f 204 264 205
f 205 264 265
f 205 265 266
f 205 266 267
f 205 267 268
f 205 268 262
f 208 261 209
f 209 261 269
f 209 269 210
f 210 269 270
f 210 270 271
f 210 271 272
f 210 272 211
f 211 272 212
f 212 272 216
f 213 215 273
f 213 273 274
f 213 274 275
f 213 275 276
f 213 276 220
f 214 277 273
f 214 273 215
f 214 218 278
f 214 278 279
f 214 279 277
f 216 272 280
f 216 280 281
f 216 281 217
f 217 278 218
f 217 281 282
f 217 282 283
f 217 283 284
f 217 284 278
f 219 286 285
f 222 224 243
f 223 287 224
f 224 288 289
f 224 289 290
f 224 290 243
f 224 287 291
f 224 291 292
f 224 292 288
f 225 293 290
f 225 290 294
f 225 294 295
f 225 295 226
f 225 243 293
f 226 295 296
f 226 296 229
f 226 229 228
f 227 229 230
f 229 297 298
f 229 298 299
f 229 299 300
f 229 300 301
f 229 301 230
f 229 296 297
f 230 301 231
f 231 301 300
f 231 300 302
f 231 302 232
f 232 302 233
f 233 302 234
f 234 303 235
f 234 302 304
f 234 304 305
f 234 305 303
f 235 303 236
f 236 306 307
f 236 307 237
f 236 303 308
f 236 308 309
f 236 309 306
f 237 307 310
f 237 310 238
f 238 310 311
f 238 311 312
f 238 312 250
f 238 250 240
f 240 313 241
f 240 250 314
f 240 314 313
f 241 313 242
f 242 313 244
f 243 290 293
f 244 313 245
f 245 313 315
f 245 315 316
f 245 316 249
f 246 250 317
f 246 317 318
f 246 318 247
f 247 318 319
f 247 319 255
f 247 255 320
f 247 320 321
f 247 321 248
f 248 321 322
f 248 322 251
f 249 316 314
f 249 314 250
f 250 312 311
f 250 311 317
f 251 322 254
f 251 254 252
f 252 254 253
f 254 322 321
f 254 321 320
f 254 320 255
f 255 319 323
f 255 323 324
f 255 324 256
f 256 324 325
f 256 325 257
f 257 325 326
f 257 326 327
f 257 327 328
f 257 328 259
f 257 259 258
f 259 329 260
f 259 328 329
f 260 329 330
f 260 330 331
f 260 331 265
f 260 265 264
f 261 263 332
f 261 332 269
f 262 268 263
f 263 268 333
f 263 333 334
f 263 334 332
f 265 331 335
f 265 335 267
f 265 267 266
f 267 335 330
f 267 330 336
f 267 336 268
f 268 336 333
f 269 332 271
f 269 271 270
f 271 332 337
f 271 337 280
f 271 280 272
f 273 277 279
f 273 279 338
f 273 338 339
f 273 339 340
f 273 340 274
f 274 341 275
f 274 340 341
f 278 340 339
f 278 339 338
f 278 338 279
f 278 284 283
f 278 283 342
f 278 342 343
f 278 343 344
f 278 344 345
f 278 345 346
f 278 346 347
f 278 347 340
f 280 337 334
f 280 334 333
f 280 333 282
f 280 282 281
f 282 333 348
f 282 348 283
f 283 348 349
f 283 349 350
f 283 350 351
f 283 351 352
f 283 352 353
f 283 353 342
f 285 286 354
f 286 355 354
f 288 292 289
f 289 356 357
f 289 357 290
f 289 292 356
f 290 357 358
f 290 358 294
f 292 359 297
f 292 297 360
f 292 360 356
f 294 358 295
f 295 358 357
f 295 357 296
f 296 361 362
f 296 362 297
f 296 357 361
f 297 363 364
f 297 364 298
f 297 362 360
f 297 359 363
f 298 364 365
f 298 365 299
f 299 365 366
f 299 366 367
f 299 367 368
f 299 368 300
f 300 368 304
f 300 304 302
f 303 305 308
f 304 368 305
f 305 369 370
f 305 370 308
f 305 368 367
f 305 367 369
f 306 309 307
f 307 309 371
f 307 371 372
f 307 372 310
f 308 370 309
f 309 370 371
f 310 372 373
f 310 373 311
f 311 373 374
f 311 374 317
f 313 314 316
f 313 316 315
f 317 374 375
f 317 375 318
f 318 376 325
f 318 325 324
f 318 324 323
f 318 323 319
f 318 375 377
f 318 377 378
f 318 378 376
f 325 379 326
f 325 376 378
f 325 378 379
f 326 379 380
f 326 380 327
f 327 380 381
f 327 381 382
f 327 382 383
f 327 383 384
f 327 384 385
f 327 385 386
f 327 386 389
f 327 389 387
f 327 387 328
f 328 388 329
f 328 387 389
f 328 389 390
f 328 390 388
f 329 388 330
f 330 335 331
f 330 388 336
f 332 334 337
f 333 336 348
f 336 391 348
f 336 388 391
f 340 347 392
f 340 392 341
f 342 393 343
f 342 353 393
f 343 393 394
f 343 394 395
f 343 395 344
f 344 395 394
f 344 394 396
f 348 391 390
f 348 390 349
f 349 390 350
f 350 390 351
f 351 390 397
f 351 397 352
f 352 398 353
f 352 397 398
f 353 398 399
f 353 399 400
f 353 400 393
f 354 401 402
f 354 355 403
f 354 403 401
f 355 404 403
f 356 360 405
f 356 405 361
f 356 361 357
f 359 406 407
f 359 407 408
f 359 408 409
f 359 409 410
f 359 410 363
f 360 362 405
f 361 405 362
f 363 410 364
f 364 410 365
f 365 411 412
f 365 412 366
f 365 410 409
f 365 409 408
f 365 408 406
f 365 406 411
f 366 412 367
f 367 412 369
f 369 412 413
f 369 413 414
f 369 414 370
f 370 414 415
f 370 415 416
f 370 416 417
f 370 417 372
f 370 372 371
f 372 417 373
f 373 417 418
f 373 418 419
f 373 419 374
f 374 419 420
f 374 420 375
f 375 420 421
f 375 421 422
f 375 422 377
f 377 422 423
f 377 423 424
f 377 424 425
f 377 425 378
f 378 425 426
f 378 426 427
f 378 427 380
f 378 380 379
f 380 427 381
f 381 428 382
f 381 427 429
f 381 429 428
f 382 428 383
f 383 428 384
f 384 428 430
f 384 430 385
f 385 430 431
f 385 431 432
f 385 432 433
f 385 433 434
f 385 434 435
f 385 435 498
f 385 498 436
f 385 436 386
f 386 436 437
f 386 437 438
f 386 438 439
f 386 439 389
f 388 390 391
f 389 439 397
f 389 397 390
f 393 440 394
f 393 400 440
f 394 440 441
f 394 441 442
f 394 442 396
f 397 439 398
f 398 443 399
f 398 439 443
f 399 443 444
f 399 444 445
f 399 445 446
f 399 446 447
f 399 447 400
f 400 441 440
f 400 447 446
f 400 446 448
f 400 448 449
f 400 449 450
f 400 450 451
f 400 451 452
f 400 452 453
f 400 453 442
f 400 442 441
f 401 454 455
f 401 455 402
f 401 403 454
f 402 455 456
f 403 457 458
f 403 458 459
f 403 459 454
f 403 404 460
f 403 460 461
f 403 461 462
f 403 462 457
f 406 408 407
f 406 463 464
f 406 464 411
f 411 464 412
f 412 465 413
f 412 464 466
f 412 466 467
f 412 467 465
f 413 465 468
f 413 468 469
f 413 469 470
f 413 470 471
f 413 471 472
f 413 472 414
f 414 472 473
f 414 473 415
f 415 473 474
f 415 474 416
f 416 474 417
f 417 474 475
f 417 475 476
f 417 476 418
f 418 476 477
f 418 477 419
f 419 478 479
f 419 479 420
f 419 477 478
f 420 480 421
f 420 479 481
f 420 481 482
f 420 482 483
f 420 483 480
f 421 480 484
f 421 484 422
f 422 485 486
f 422 486 423
f 422 484 485
f 423 487 424
f 423 486 487
f 424 488 489
f 424 489 425
f 424 487 488
f 425 489 429
f 425 429 427
f 425 427 426
f 428 429 490
f 428 490 430
f 429 489 490
f 430 490 491
f 430 491 431
f 431 491 492
f 431 492 432
f 432 492 493
f 432 493 433
f 433 493 494
f 433 494 495
f 433 495 434
f 434 495 496
f 434 496 497
f 434 497 435
f 435 497 499
f 435 499 500
f 435 500 501
f 435 501 502
f 435 502 503
f 435 503 498
f 436 504 437
f 436 498 505
f 436 505 506
f 436 506 504
f 437 507 438
f 437 504 506
f 437 506 508
f 437 508 509
f 437 509 510
f 437 510 507
f 438 507 511
f 438 511 512
f 438 512 439
f 439 512 513
f 439 513 443
f 443 513 444
f 444 513 514
f 444 514 515
f 444 515 445
f 445 515 446
f 446 515 512
f 446 512 448
f 448 512 511
f 448 511 507
f 448 507 449
f 449 516 517
f 449 517 450
f 449 507 518
f 449 518 519
f 449 519 520
f 449 520 516
f 450 517 521
f 450 521 522
f 450 522 523
f 450 523 524
f 450 524 525
f 450 525 451
f 454 459 455
f 455 459 458
f 455 458 526
f 455 526 527
f 455 527 528
f 455 528 529
f 455 529 530
f 455 530 456
f 457 526 458
f 457 462 531
f 457 531 532
f 457 532 526
f 463 533 466
f 463 466 464
f 465 467 534
f 465 534 535
f 465 535 468
f 466 533 536
f 466 536 537
f 466 537 538
f 466 538 539
f 466 539 467
f 467 539 534
f 468 540 541
f 468 541 542
f 468 542 543
f 468 543 544
f 468 544 469
f 468 535 540
f 469 544 470
f 470 545 546
f 470 546 471
f 470 544 547
f 470 547 545
f 471 548 473
f 471 473 472
f 471 546 545
f 471 545 549
f 471 549 550
f 471 550 551
f 471 551 548
f 473 548 552
f 473 552 553
f 473 553 474
f 474 553 475
f 475 553 554
f 475 554 555
f 475 555 556
f 475 556 476
f 476 556 477
f 477 556 555
f 477 555 557
f 477 557 551
f 477 551 550
f 477 550 558
f 477 558 559
f 477 559 560
f 477 560 561
f 477 561 562
f 477 562 478
f 478 562 563
f 478 563 564
f 478 564 479
f 479 564 481
f 480 565 484
f 480 483 565
f 481 564 482
f 482 564 566
f 482 566 567
f 482 567 483
f 483 567 568
f 483 568 569
f 483 569 565
f 484 565 570
f 484 570 485
f 485 571 486
f 485 570 571
f 486 571 572
f 486 572 487
f 487 572 488
f 488 572 573
f 488 573 489
f 489 573 490
f 490 573 574
f 490 574 575
f 490 575 491
f 491 575 492
f 492 575 493
f 493 495 494
f 493 575 576
f 493 576 577
f 493 577 495
f 495 577 497
f 495 497 496
f 497 578 499
f 497 577 578
f 498 503 505
f 499 578 579
f 499 579 500
f 500 579 501
f 501 505 502
f 501 579 580
f 501 580 581
f 501 581 582
f 501 582 505
f 502 505 503
f 505 582 583
f 505 583 584
f 505 584 508
f 505 508 506
f 507 510 585
f 507 585 586
f 507 586 518
f 508 584 587
f 508 587 520
f 508 520 588
f 508 588 509
f 509 588 510
f 510 588 585
f 512 514 513
f 512 515 514
f 516 589 517
f 516 520 590
f 516 590 589
f 517 589 591
f 517 591 521
f 518 586 519
f 519 586 585
f 519 585 592
f 519 592 520
f 520 592 588
f 520 587 590
f 521 591 593
f 521 593 594
f 521 594 595
f 521 595 596
f 521 596 522
f 526 597 598
f 526 598 599
f 526 599 527
f 526 532 597
f 527 600 528
f 527 599 601
f 527 601 602
f 527 602 603
f 527 603 604
f 527 604 600
f 528 600 529
f 529 605 530
f 529 600 606
f 529 606 607
f 529 607 605
f 531 608 532
f 532 608 609
f 532 609 610
f 532 610 611
f 532 611 612
f 532 612 613
f 532 613 614
f 532 614 615
f 532 615 616
f 532 616 617
f 532 617 606
f 532 606 603
f 532 603 601
f 532 601 597
f 534 618 535
f 534 539 618
f 535 618 619
f 535 619 540
f 536 620 621
f 536 621 537
f 537 621 622
f 537 622 538
f 538 622 623
f 538 623 618
f 538 618 539
f 540 624 542
f 540 542 541
f 540 619 625
f 540 625 626
f 540 626 624
f 542 627 543
f 542 624 628
f 542 628 629
f 542 629 627
f 543 627 544
f 544 630 631
f 544 631 547
f 544 627 630
f 545 547 631
f 545 631 632
f 545 632 633
f 545 633 549
f 548 553 552
f 548 551 634
f 548 634 554
f 548 554 553
f 549 633 635
f 549 635 550
f 550 635 636
f 550 636 558
f 551 557 634
f 554 634 557
f 554 557 555
f 558 636 559
f 559 636 637
f 559 637 568
f 559 568 638
f 559 638 639
f 559 639 560
f 560 639 561
f 561 639 563
f 561 563 562
f 563 639 638
f 563 638 566
f 563 566 564
f 565 580 577
f 565 577 570
f 565 569 640
f 565 640 641
f 565 641 642
f 565 642 643
f 565 643 580
f 566 638 567
f 567 638 568
f 568 637 569
f 569 644 645
f 569 645 646
f 569 646 640
f 569 637 647
f 569 647 644
f 570 577 576
f 570 576 575
f 570 575 574
f 570 574 571
f 571 574 573
f 571 573 572
f 577 580 579
f 577 579 578
f 580 648 581
f 580 643 648
f 581 648 582
f 582 648 649
f 582 649 650
f 582 650 651
f 582 651 583
f 583 651 652
f 583 652 653
f 583 653 654
f 583 654 655
f 583 655 584
f 584 655 656
f 584 656 587
f 585 588 592
f 587 656 657
f 587 657 590
f 589 658 593
f 589 593 591
f 589 590 657
f 589 657 659
f 589 659 658
f 593 658 660
f 593 660 594
f 594 660 655
f 594 655 661
f 594 661 662
f 594 662 663
f 594 663 664
f 594 664 665
f 594 665 595
f 597 601 598
f 598 601 599
f 600 604 666
f 600 666 606
f 601 603 602
f 603 606 666
f 603 666 604
f 605 607 668
f 605 668 667
f 606 669 670
f 606 670 671
f 606 671 672
f 606 672 607
f 606 617 669
f 607 672 673
f 607 673 668
f 610 674 611
f 611 675 676
f 611 676 677
f 611 677 612
f 611 674 675
f 612 677 613
f 613 678 614
f 613 677 679
f 613 679 680
f 613 680 681
f 613 681 678
f 614 678 615
f 615 678 682
f 615 682 683
f 615 683 684
f 615 684 685
f 615 685 616
f 616 685 686
f 616 686 687
f 616 687 688
f 616 688 683
f 616 683 689
f 616 689 690
f 616 690 691
f 616 691 617
f 617 691 669
f 618 623 628
f 618 628 625
f 618 625 619
f 620 692 693
f 620 693 694
f 620 694 695
f 620 695 621
f 621 695 622
f 622 695 696
f 622 696 629
f 622 629 623
f 623 629 628
f 624 626 625
f 624 625 628
f 627 629 697
f 627 697 698
f 627 698 630
f 629 699 697
f 629 696 695
f 629 695 699
f 630 698 631
f 631 698 632
f 632 698 700
f 632 700 633
f 633 701 635
f 633 700 702
f 633 702 701
f 635 647 636
f 635 701 647
f 636 647 637
f 640 646 641
f 641 646 642
f 642 703 643
f 642 646 704
f 642 704 705
f 642 705 703
f 643 703 706
f 643 706 707
f 643 707 648
f 644 647 645
f 645 708 709
f 645 709 646
f 645 647 710
f 645 710 708
f 646 709 711
f 646 711 712
f 646 712 704
f 647 701 713
f 647 713 714
f 647 714 710
f 648 707 649
f 649 707 706
f 649 706 715
f 649 715 716
f 649 716 650
f 650 716 717
f 650 717 718
f 650 718 719
f 650 719 720
f 650 720 651
f 651 720 652
f 652 720 719
f 652 719 721
f 652 721 653
f 653 722 654
f 653 721 723
f 653 723 724
f 653 724 662
f 653 662 722
f 654 722 655
f 655 659 656
f 655 722 661
f 655 660 725
f 655 725 659
f 656 659 657
f 658 659 725
f 658 725 660
f 661 722 662
f 662 726 727
f 662 727 728
f 662 728 729
f 662 729 663
f 662 724 726
f 663 729 730
f 663 730 664
f 664 730 731
f 664 731 732
f 664 732 665
f 667 733 734
f 667 668 735
f 667 735 733
f 668 673 734
f 668 734 736
f 668 736 733
f 668 733 735
f 669 691 737
f 669 737 738
f 669 738 739
f 669 739 740
f 669 740 670
f 670 740 741
f 670 741 671
f 671 741 672
f 672 741 673
f 673 741 734
f 674 742 675
f 675 743 744
f 675 744 676
f 675 742 743
f 676 744 745
f 676 745 677
f 677 746 679
f 677 745 746
f 678 681 682
f 679 746 680
f 680 746 747
f 680 747 748
f 680 748 681
f 681 748 682
f 682 748 749
f 682 749 745
f 682 745 750
f 682 750 751
f 682 751 683
f 683 688 684
f 683 751 752
f 683 752 753
f 683 753 754
f 683 754 689
f 684 688 687
f 684 687 685
f 685 687 755
f 685 755 686
f 686 755 687
f 689 754 690
f 690 754 753
f 690 753 752
f 690 752 711
f 690 711 756
f 690 756 757
f 690 757 758
f 690 758 759
f 690 759 691
f 691 759 737
f 692 760 693
f 693 761 694
f 693 760 762
f 693 762 761
f 694 761 699
f 694 699 695
f 697 699 763
f 697 763 700
f 697 700 698
f 699 761 763
f 700 763 764
f 700 764 702
f 701 702 713
f 702 764 765
f 702 765 713
f 703 705 706
f 704 766 715
f 704 715 705
f 704 712 711
f 704 711 766
f 705 715 706
f 708 710 767
f 708 767 768
f 708 768 709
f 709 768 769
f 709 769 711
f 710 714 770
f 710 770 771
f 710 771 767
f 711 769 767
f 711 767 771
f 711 771 756
f 711 752 751
f 711 751 766
f 713 765 772
f 713 772 758
f 713 758 714
f 714 758 757
f 714 757 770
f 715 766 716
f 716 766 773
f 716 773 717
f 717 773 774
f 717 774 718
f 718 775 719
f 718 774 775
f 719 775 721
f 721 775 776
f 721 776 726
f 721 726 723
f 723 726 724
f 726 776 775
f 726 775 777
f 726 777 778
f 726 778 728
f 726 728 727
f 728 778 744
f 728 744 743
f 728 743 729
f 729 743 779
f 729 779 780
f 729 780 730
f 730 780 781
f 730 781 731
f 733 736 734
f 737 782 783
f 737 783 784
f 737 784 785
f 737 785 786
f 737 786 787
f 737 787 738
f 737 759 782
f 738 787 739
f 739 787 740
f 740 787 788
f 740 788 741
f 742 789 743
f 743 789 780
f 743 780 779
f 744 778 790
f 744 790 745
f 745 747 746
f 745 790 791
f 745 791 750
f 745 749 747
f 747 749 748
f 750 791 751
f 751 791 773
f 751 773 766
f 756 771 770
f 756 770 757
f 758 772 792
f 758 792 759
f 759 792 772
f 759 772 764
f 759 764 763
f 759 763 793
f 759 793 783
f 759 783 782
f 761 762 794
f 761 794 795
f 761 795 763
f 762 796 794
f 763 795 797
f 763 797 798
f 763 798 793
f 764 772 765
f 767 769 768
f 773 791 790
f 773 790 774
f 774 790 777
f 774 777 775
f 777 790 778
f 783 793 784
f 784 793 799
f 784 799 800
f 784 800 801
f 784 801 802
f 784 802 785
f 785 802 800
f 785 800 786
f 786 800 787
f 793 798 799
f 794 796 803
f 794 803 804
f 794 804 795
f 795 804 798
f 795 798 797
f 798 804 805
f 798 805 799
f 799 805 800
f 800 805 806
f 800 802 801
f 803 807 804
f 804 807 806
f 804 806 805

