# https://github.com/mikedh/trimesh
v 0.00874152 0.00082448 0.07197561
v 0.01436119 0.00269645 0.07152120
v 0.01248673 0.00269645 0.07164604
v 0.01061598 0.00269645 0.07168099
v -0.01225986 0.00082448 0.07172094
v -0.01225986 -0.00104239 0.07171095
v 0.00874152 -0.00104239 0.07174590
v 0.01061598 0.00082448 0.07182581
v 0.01623566 0.00269645 0.07129149
v 0.01810640 0.00456842 0.07114168
v 0.01623566 0.00456842 0.07131147
v 0.01436119 0.00456842 0.07132145
v -0.01225986 0.01361714 0.06861492
v -0.01225986 -0.00814262 0.07035769
v 0.01061598 -0.00104239 0.07152619
v -0.01065636 -0.01513574 0.06897946
v 0.01248673 -0.01977741 0.06771608
v 0.01436119 -0.01977741 0.06764617
v 0.01248673 0.00082448 0.07156614
v 0.01923479 0.00341566 0.07087203
v 0.01963938 0.00456842 0.07092696
v 0.02565992 -0.00660730 0.06833529
v 0.01964680 0.00570079 0.07091697
v 0.01810640 0.00590992 0.07099187
v 0.01623566 0.00596093 0.07099187
v 0.00125482 0.02142637 0.06674233
v -0.00061964 0.02142637 0.06669739
v -0.01225986 0.01550951 0.06797075
v -0.01225986 -0.01228443 0.06953874
v -0.01100156 -0.01513574 0.06897946
v -0.00249410 -0.01977741 0.06781595
v 0.01248673 -0.02124643 0.06738151
v 0.01436119 -0.02114441 0.06731659
v 0.01572714 -0.02094038 0.06719675
v 0.02565992 -0.00666341 0.06832530
v 0.02057475 0.00456842 0.07075718
v 0.02565992 0.00456842 0.06968356
v 0.02560053 0.00456842 0.06969854
v 0.02372607 0.00456842 0.07010302
v 0.02185532 0.00456842 0.07049251
v 0.02565992 0.00462963 0.06968356
v 0.02565992 0.00644550 0.06954873
v 0.02565992 0.00648630 0.06953874
v 0.01623566 0.02329835 0.06633785
v 0.01436119 0.02329835 0.06632786
v 0.01248673 0.02329835 0.06631288
v 0.01061598 0.02329835 0.06628292
v 0.00874152 0.02329835 0.06624797
v -0.00249410 0.02142637 0.06650264
v 0.00500003 0.02329835 0.06615808
v 0.00312557 0.02329835 0.06610315
v 0.00125482 0.02329835 0.06604823
v -0.01225986 0.01675409 0.06742146
v -0.01225986 -0.01403398 0.06915923
v -0.01225986 -0.01478379 0.06871979
v -0.00547468 -0.02081797 0.06716678
v -0.00436485 -0.02102199 0.06731659
v -0.00249410 -0.02119542 0.06742146
v -0.00061964 -0.02121582 0.06741646
v 0.00125482 -0.02122602 0.06741147
v 0.00687078 -0.02124643 0.06739649
v 0.01061598 -0.02125663 0.06738650
v 0.01061598 -0.02219517 0.06672735
v 0.01248673 -0.02218496 0.06668241
v 0.01436119 -0.02207785 0.06660251
v 0.02094593 -0.02260832 0.06523926
v 0.01697801 -0.02040480 0.06703196
v 0.02565992 -0.00847927 0.06789086
v 0.02565992 0.00762377 0.06909431
v 0.01909745 0.02432359 0.06529419
v 0.01810640 0.02458883 0.06552889
v 0.01810640 0.02329835 0.06593836
v 0.01623566 0.02479796 0.06570866
v 0.01436119 0.02476226 0.06568869
v 0.01248673 0.02473166 0.06566371
v -0.00057510 0.02341566 0.06578356
v 0.01061598 0.02469085 0.06562377
v 0.00874152 0.02463984 0.06557883
v 0.00687078 0.02458373 0.06552390
v 0.00500003 0.02451742 0.06546397
v 0.00125482 0.02437460 0.06533913
v 0.00008189 0.02430829 0.06527422
v -0.01225986 0.01701423 0.06725667
v -0.00249410 0.02292599 0.06568369
v -0.01225986 -0.01587025 0.06791083
v -0.00672185 -0.02044051 0.06685219
v -0.00684805 -0.02241450 0.06506948
v -0.00559717 -0.02270014 0.06535411
v -0.00436485 -0.02195543 0.06642774
v -0.00249410 -0.02212885 0.06654759
v -0.00061964 -0.02215436 0.06662748
v 0.00125482 -0.02215946 0.06668241
v 0.00312557 -0.02216966 0.06670738
v 0.00500003 -0.02217476 0.06672735
v 0.00687078 -0.02217986 0.06674233
v 0.00874152 -0.02219006 0.06674233
v 0.00687078 -0.02309800 0.06580354
v 0.00874152 -0.02305209 0.06580853
v 0.01061598 -0.02299088 0.06578855
v 0.01248673 -0.02292967 0.06574861
v 0.01436119 -0.02286336 0.06566871
v 0.01623566 -0.02280215 0.06556884
v 0.01810640 -0.02274604 0.06545399
v 0.01998087 -0.02266953 0.06532415
v 0.00687078 -0.02367948 0.06427550
v 0.02565992 -0.02369988 0.04741715
v 0.02565992 -0.02339384 0.04928974
v 0.02565992 -0.02247570 0.05356425
v 0.02565992 -0.02215436 0.05491252
v 0.02565992 -0.02213906 0.05496745
v 0.02565992 -0.02157287 0.05678512
v 0.02565992 -0.02155757 0.05682007
v 0.02565992 -0.02097099 0.05811341
v 0.02565992 -0.02017017 0.05904721
v 0.02565992 -0.02013957 0.05907717
v 0.02565992 -0.01923163 0.05991610
v 0.02565992 -0.01524285 0.06346654
v 0.02565992 -0.00971365 0.06728663
v 0.02565992 -0.00968815 0.06730162
v 0.02565992 -0.00854048 0.06787088
v 0.02565992 0.00764417 0.06908432
v 0.02565992 0.02286478 0.05831316
v 0.02565992 0.02382372 0.05717462
v 0.02565992 0.02456843 0.05626578
v 0.02565992 0.02459393 0.05622584
v 0.02565992 0.02531314 0.05491252
v 0.02565992 0.02533354 0.05486758
v 0.01723784 0.02614966 0.06343158
v 0.02565992 0.01581556 0.06487972
v 0.02565992 0.01763652 0.06391097
v 0.02565992 0.01854445 0.06328677
v 0.02565992 0.01857506 0.06325681
v 0.02565992 0.01941668 0.06231801
v 0.02565992 0.02032461 0.06127435
v 0.02565992 0.02113563 0.06033556
v 0.02565992 0.02206907 0.05924695
v 0.01623566 0.02573140 0.06444528
v 0.01436119 0.02570079 0.06447025
v 0.01248673 0.02566509 0.06444528
v 0.01061598 0.02562428 0.06442032
v 0.00874152 0.02557838 0.06439535
v 0.00687078 0.02552227 0.06437038
v 0.00500003 0.02545596 0.06434042
v 0.00312557 0.02538455 0.06431045
v 0.00137731 0.02545596 0.06409573
v -0.00116899 0.02411956 0.06510943
v -0.00057510 0.02494588 0.06440034
v -0.00249410 0.02485917 0.06394592
v -0.01225986 0.01775384 0.06677729
v -0.00249410 0.02386453 0.06488472
v -0.01225986 0.01888620 0.06585347
v -0.01225986 -0.01787994 0.06608817
v -0.00913823 -0.02078736 0.06527422
v -0.00811006 -0.02110871 0.06555386
v -0.00811006 -0.02204214 0.06466500
v -0.00811006 -0.02298068 0.06373119
v -0.00622818 -0.02327652 0.06437537
v -0.00436485 -0.02280215 0.06549394
v -0.00249410 -0.02287866 0.06560878
v -0.00061964 -0.02296028 0.06569368
v 0.00125482 -0.02303169 0.06574362
v 0.00312557 -0.02309289 0.06577358
v 0.00500003 -0.02311330 0.06578855
v 0.00312557 -0.02384270 0.06427550
v 0.00500003 -0.02379170 0.06427550
v -0.01225986 -0.02539333 0.05116234
v -0.01225986 -0.02542394 0.04928974
v 0.00975485 -0.02447009 0.02965496
v 0.00975485 -0.02447009 0.02960003
v 0.02560053 -0.02365398 0.04554954
v 0.02565992 -0.02364887 0.04554954
v 0.02565992 0.02592523 0.05334454
v 0.02565992 0.02621597 0.05243570
v 0.02565992 0.02651691 0.05116234
v 0.01623566 0.02643530 0.06240290
v 0.01623566 0.02619046 0.06351148
v 0.01436119 0.02620576 0.06353145
v 0.01061598 0.02618027 0.06348651
v 0.00500003 0.02614456 0.06340661
v 0.00312557 0.02612926 0.06337166
v 0.00208626 0.02611395 0.06334669
v -0.00811006 0.02471125 0.06198344
v -0.00963933 0.02446641 0.06169382
v -0.00436485 0.02452762 0.06360136
v -0.00547097 0.02430829 0.06340162
v -0.00811006 0.02376251 0.06291725
v -0.01088649 0.02422158 0.06143415
v -0.01225986 0.02277807 0.06222313
v -0.01225986 -0.01807887 0.06590341
v -0.01225986 -0.01996614 0.06408075
v -0.01225986 -0.02397022 0.05643557
v -0.01225986 -0.02447520 0.05490254
v -0.00623931 -0.02393452 0.06240290
v -0.01225986 -0.02136374 0.06246782
v -0.01225986 -0.02154227 0.06220316
v -0.01225986 -0.02248591 0.06032557
v -0.01225986 -0.02272564 0.05977627
v -0.00436485 -0.02362847 0.06427550
v -0.00249410 -0.02372029 0.06427550
v -0.00061964 -0.02378660 0.06427550
v 0.00125482 -0.02382740 0.06427550
v -0.01225986 -0.02515359 0.05247565
v -0.00436485 -0.02400083 0.06240290
v -0.00175546 -0.02445989 0.02775240
v -0.00151419 -0.02445989 0.02775240
v 0.00874152 -0.02448540 0.02957006
v -0.01225986 -0.02371009 0.03432396
v -0.00623931 -0.02400083 0.02869119
v 0.01810640 -0.02302659 0.02715317
v 0.01936099 -0.02284296 0.02739286
v 0.02565992 -0.02335303 0.04373687
v 0.02565992 0.02652201 0.05110741
v 0.02565992 0.02668524 0.04928974
v 0.01436119 0.02653731 0.06240290
v 0.00874152 0.02617006 0.06345655
v -0.00249410 0.02643020 0.04554954
v -0.00436485 0.02635879 0.04554954
v -0.00550438 0.02621597 0.04682790
v -0.00623931 0.02528253 0.06053031
v -0.00811006 0.02505300 0.06053031
v -0.01225986 0.02452762 0.06019075
v -0.01225986 0.02392064 0.06112954
v -0.01225986 -0.02505668 0.05295004
v -0.00623931 -0.02331733 0.02694843
v -0.00436485 -0.02349075 0.02685355
v -0.00252009 -0.02354176 0.02682359
v 0.00114346 -0.01810947 0.02096112
v -0.00061964 -0.02266953 0.02582487
v 0.00125482 -0.02268484 0.02580490
v 0.01623566 -0.02310310 0.02706827
v -0.01225986 -0.02315410 0.03229157
v -0.00765722 -0.02297048 0.02726302
v 0.00119172 -0.01810947 0.02096112
v 0.02560053 -0.01378914 0.02096112
v 0.02565992 -0.01378404 0.02097110
v 0.02565992 -0.02163918 0.03618657
v 0.02565992 -0.02236349 0.03805916
v 0.02565992 -0.02237369 0.03808912
v 0.02565992 -0.02257262 0.03905788
v 0.02565992 -0.02274094 0.04004661
v 0.01061598 0.02657812 0.04741715
v 0.02372607 0.02667504 0.04928974
v 0.02565992 0.02649651 0.04174443
v 0.00761314 0.02611395 0.02775240
v -0.00061964 0.02647101 0.04554954
v -0.00550438 0.02621087 0.04554954
v -0.00811006 0.02473675 0.02711821
v -0.01225986 0.02469085 0.04554954
v -0.01225986 0.02469085 0.04557951
v -0.00912710 -0.02077206 0.02584485
v -0.00623931 -0.02222067 0.02600963
v -0.01225986 -0.01193247 0.02096112
v 0.00273583 -0.02264403 0.02583486
v -0.01225986 -0.02262363 0.03143267
v -0.01225986 -0.02094548 0.02901078
v -0.01225986 -0.01953258 0.02707826
v -0.01225986 -0.01932855 0.02682359
v 0.02565992 -0.00637777 0.02096112
v 0.00125482 0.02648631 0.04554954
v 0.02565992 0.02643020 0.03993176
v 0.00788410 0.02611395 0.02775240
v -0.00436485 0.02482857 0.02663383
v -0.00608342 0.02478776 0.02667378
v 0.01248673 0.02447662 0.02555522
v -0.00535219 0.02424198 0.02587980
v -0.01106466 0.02431339 0.02947019
v -0.00660307 0.02411446 0.02594971
v -0.00811006 0.02378802 0.02618441
v -0.00933496 0.02447151 0.02746277
v -0.01225986 0.02359419 0.03096827
v -0.01225986 -0.01868075 0.02610451
v -0.01122055 -0.01907351 0.02572999
v -0.01225986 0.01204101 0.02096112
v 0.02565992 0.01635114 0.02096112
v 0.02565992 0.02642510 0.03988681
v 0.02565992 0.02624657 0.03866339
v 0.01395289 0.02439500 0.02565010
v 0.01248673 0.02336465 0.02462142
v 0.01542277 0.02248733 0.02395727
v 0.01436119 0.02250773 0.02394728
v 0.00687078 0.01813129 0.02096112
v -0.01225986 0.02313512 0.02927045
v -0.00811006 0.02284948 0.02567007
v -0.00917535 0.02251283 0.02581489
v -0.01225986 0.02296680 0.02905573
v -0.01105352 0.02064596 0.02577494
v -0.01225986 0.01946769 0.02578492
v -0.01225986 0.02132436 0.02739785
v -0.01225986 0.01920755 0.02558019
v 0.02565992 0.02448172 0.03484329
v 0.02565992 0.02623637 0.03863842
v 0.02565992 0.02583851 0.03772958
v 0.02565992 0.02514481 0.03618657
f 1 2 3
f 1 3 4
f 1 4 5
f 1 5 6
f 1 6 7
f 1 7 8
f 1 8 2
f 2 8 9
f 2 9 10
f 2 10 11
f 2 11 3
f 3 11 4
f 4 11 12
f 4 12 5
f 5 12 13
f 5 13 28
f 5 28 53
f 5 53 83
f 5 83 149
f 5 149 151
f 5 151 188
f 5 188 222
f 5 222 221
f 5 221 249
f 5 249 248
f 5 248 270
f 5 270 282
f 5 282 285
f 5 285 288
f 5 288 287
f 5 287 289
f 5 289 273
f 5 273 252
f 5 252 271
f 5 271 257
f 5 257 256
f 5 256 255
f 5 255 254
f 5 254 231
f 5 231 207
f 5 207 167
f 5 167 166
f 5 166 202
f 5 202 223
f 5 223 192
f 5 192 191
f 5 191 197
f 5 197 196
f 5 196 195
f 5 195 194
f 5 194 190
f 5 190 189
f 5 189 152
f 5 152 85
f 5 85 55
f 5 55 54
f 5 54 29
f 5 29 14
f 5 14 6
f 6 14 7
f 7 15 8
f 7 14 16
f 7 16 17
f 7 17 18
f 7 18 15
f 8 15 19
f 8 19 9
f 9 20 21
f 9 21 10
f 9 19 22
f 9 22 20
f 10 21 23
f 10 23 11
f 11 23 24
f 11 24 25
f 11 25 12
f 12 25 13
f 13 25 26
f 13 26 27
f 13 27 28
f 14 29 30
f 14 30 16
f 15 22 19
f 15 18 22
f 16 30 31
f 16 31 32
f 16 32 17
f 17 32 18
f 18 32 33
f 18 33 34
f 18 34 35
f 18 35 22
f 20 36 21
f 20 22 36
f 21 36 23
f 22 35 68
f 22 68 120
f 22 120 119
f 22 119 118
f 22 118 117
f 22 117 116
f 22 116 115
f 22 115 114
f 22 114 113
f 22 113 112
f 22 112 111
f 22 111 110
f 22 110 109
f 22 109 108
f 22 108 107
f 22 107 106
f 22 106 171
f 22 171 211
f 22 211 240
f 22 240 239
f 22 239 238
f 22 238 237
f 22 237 236
f 22 236 235
f 22 235 258
f 22 258 274
f 22 274 290
f 22 290 293
f 22 293 292
f 22 292 291
f 22 291 276
f 22 276 275
f 22 275 260
f 22 260 243
f 22 243 213
f 22 213 212
f 22 212 174
f 22 174 173
f 22 173 172
f 22 172 127
f 22 127 126
f 22 126 125
f 22 125 124
f 22 124 123
f 22 123 122
f 22 122 136
f 22 136 135
f 22 135 134
f 22 134 133
f 22 133 132
f 22 132 131
f 22 131 130
f 22 130 129
f 22 129 121
f 22 121 69
f 22 69 43
f 22 43 42
f 22 42 41
f 22 41 37
f 22 37 38
f 22 38 39
f 22 39 40
f 22 40 36
f 23 36 40
f 23 40 39
f 23 39 41
f 23 41 42
f 23 42 43
f 23 43 44
f 23 44 24
f 24 44 25
f 25 44 45
f 25 45 26
f 26 45 46
f 26 46 47
f 26 47 48
f 26 48 27
f 27 49 28
f 27 48 50
f 27 50 51
f 27 51 52
f 27 52 49
f 28 49 53
f 29 54 30
f 30 54 55
f 30 55 56
f 30 56 57
f 30 57 58
f 30 58 31
f 31 58 59
f 31 59 60
f 31 60 61
f 31 61 62
f 31 62 32
f 32 62 63
f 32 63 64
f 32 64 33
f 33 64 65
f 33 65 66
f 33 66 34
f 34 67 68
f 34 68 35
f 34 66 67
f 37 41 38
f 38 41 39
f 43 69 70
f 43 70 71
f 43 71 72
f 43 72 44
f 44 72 71
f 44 71 73
f 44 73 45
f 45 73 46
f 46 73 47
f 47 73 48
f 48 73 74
f 48 74 75
f 48 75 50
f 49 52 76
f 49 76 53
f 50 75 51
f 51 75 52
f 52 75 77
f 52 77 78
f 52 78 79
f 52 79 80
f 52 80 81
f 52 81 82
f 52 82 76
f 53 76 84
f 53 84 83
f 55 85 56
f 56 85 86
f 56 86 87
f 56 87 88
f 56 88 57
f 57 88 89
f 57 89 90
f 57 90 58
f 58 90 91
f 58 91 92
f 58 92 93
f 58 93 94
f 58 94 95
f 58 95 59
f 59 95 96
f 59 96 60
f 60 96 61
f 61 96 62
f 62 96 63
f 63 96 97
f 63 97 98
f 63 98 64
f 64 98 99
f 64 99 100
f 64 100 101
f 64 101 102
f 64 102 103
f 64 103 65
f 65 103 104
f 65 104 66
f 66 104 105
f 66 105 106
f 66 106 107
f 66 107 108
f 66 108 109
f 66 109 110
f 66 110 111
f 66 111 112
f 66 112 113
f 66 113 114
f 66 114 115
f 66 115 116
f 66 116 117
f 66 117 118
f 66 118 119
f 66 119 120
f 66 120 68
f 66 68 67
f 69 121 70
f 70 122 123
f 70 123 124
f 70 124 125
f 70 125 126
f 70 126 127
f 70 127 128
f 70 128 71
f 70 121 129
f 70 129 130
f 70 130 131
f 70 131 132
f 70 132 133
f 70 133 134
f 70 134 135
f 70 135 136
f 70 136 122
f 71 128 137
f 71 137 73
f 73 137 138
f 73 138 75
f 73 75 74
f 75 138 139
f 75 139 140
f 75 140 141
f 75 141 77
f 76 82 84
f 77 141 142
f 77 142 78
f 78 142 143
f 78 143 144
f 78 144 79
f 79 144 80
f 80 144 145
f 80 145 81
f 81 145 82
f 82 146 84
f 82 145 147
f 82 147 148
f 82 148 146
f 83 84 149
f 84 146 150
f 84 150 151
f 84 151 149
f 85 152 153
f 85 153 154
f 85 154 86
f 86 154 87
f 87 154 153
f 87 153 155
f 87 155 156
f 87 156 157
f 87 157 88
f 88 157 158
f 88 158 89
f 89 158 90
f 90 158 159
f 90 159 160
f 90 160 161
f 90 161 91
f 91 161 162
f 91 162 92
f 92 162 163
f 92 163 93
f 93 163 94
f 94 163 95
f 95 163 96
f 96 163 97
f 97 163 164
f 97 164 98
f 98 164 165
f 98 165 99
f 99 165 100
f 100 165 101
f 101 165 102
f 102 165 103
f 103 165 104
f 104 165 105
f 105 165 106
f 106 165 166
f 106 166 167
f 106 167 168
f 106 168 169
f 106 169 170
f 106 170 171
f 127 172 128
f 128 172 173
f 128 173 174
f 128 174 175
f 128 175 176
f 128 176 137
f 137 176 177
f 137 177 138
f 138 177 178
f 138 178 179
f 138 179 180
f 138 180 139
f 139 180 140
f 140 180 181
f 140 181 141
f 141 181 142
f 142 181 143
f 143 181 144
f 144 181 145
f 145 181 147
f 146 148 150
f 147 181 148
f 148 181 182
f 148 182 183
f 148 183 184
f 148 184 150
f 150 184 185
f 150 185 151
f 151 185 186
f 151 186 183
f 151 183 187
f 151 187 188
f 152 189 153
f 153 189 190
f 153 190 156
f 153 156 155
f 156 191 192
f 156 192 193
f 156 193 157
f 156 190 194
f 156 194 195
f 156 195 196
f 156 196 197
f 156 197 191
f 157 193 198
f 157 198 158
f 158 198 159
f 159 198 160
f 160 198 161
f 161 198 199
f 161 199 162
f 162 199 200
f 162 200 201
f 162 201 163
f 163 201 164
f 164 201 166
f 164 166 165
f 166 201 203
f 166 203 193
f 166 193 202
f 167 204 205
f 167 205 206
f 167 206 169
f 167 169 168
f 167 207 208
f 167 208 204
f 169 206 205
f 169 205 209
f 169 209 171
f 169 171 170
f 171 209 210
f 171 210 211
f 174 212 175
f 175 212 213
f 175 213 214
f 175 214 176
f 176 214 177
f 177 214 215
f 177 215 178
f 178 215 179
f 179 215 214
f 179 214 180
f 180 214 181
f 181 214 216
f 181 216 217
f 181 217 218
f 181 218 219
f 181 219 220
f 181 220 221
f 181 221 182
f 182 221 183
f 183 186 185
f 183 185 184
f 183 221 187
f 187 221 222
f 187 222 188
f 192 223 193
f 193 223 202
f 193 203 200
f 193 200 199
f 193 199 198
f 200 203 201
f 204 208 224
f 204 224 225
f 204 225 226
f 204 226 227
f 204 227 228
f 204 228 229
f 204 229 205
f 205 229 230
f 205 230 209
f 207 231 208
f 208 231 232
f 208 232 224
f 209 230 233
f 209 233 234
f 209 234 235
f 209 235 210
f 210 236 237
f 210 237 238
f 210 238 239
f 210 239 240
f 210 240 211
f 210 235 236
f 213 241 242
f 213 242 214
f 213 243 244
f 213 244 241
f 214 242 241
f 214 241 245
f 214 245 216
f 216 245 244
f 216 244 217
f 217 246 218
f 217 244 247
f 217 247 246
f 218 246 248
f 218 248 249
f 218 249 221
f 218 221 220
f 218 220 219
f 224 232 250
f 224 250 251
f 224 251 227
f 224 227 225
f 225 227 226
f 227 250 252
f 227 252 273
f 227 273 281
f 227 281 274
f 227 274 258
f 227 258 234
f 227 234 233
f 227 233 229
f 227 229 228
f 227 251 250
f 229 233 253
f 229 253 230
f 230 253 233
f 231 254 232
f 232 254 255
f 232 255 256
f 232 256 257
f 232 257 250
f 234 258 235
f 241 259 245
f 241 244 259
f 243 260 261
f 243 261 244
f 244 262 263
f 244 263 247
f 244 245 259
f 244 261 264
f 244 264 265
f 244 265 262
f 246 247 266
f 246 266 248
f 247 263 267
f 247 267 268
f 247 268 269
f 247 269 266
f 248 266 270
f 250 257 271
f 250 271 272
f 250 272 252
f 252 272 271
f 260 275 261
f 261 275 276
f 261 276 277
f 261 277 264
f 262 265 263
f 263 265 267
f 264 278 265
f 264 277 279
f 264 279 280
f 264 280 278
f 265 278 281
f 265 281 267
f 266 269 282
f 266 282 270
f 267 283 268
f 267 281 273
f 267 273 283
f 268 283 273
f 268 273 284
f 268 284 269
f 269 285 282
f 269 284 286
f 269 286 287
f 269 287 288
f 269 288 285
f 273 289 284
f 274 281 279
f 274 279 277
f 274 277 290
f 276 291 277
f 277 291 292
f 277 292 293
f 277 293 290
f 278 280 281
f 279 281 280
f 284 289 286
f 286 289 287

