# https://github.com/mikedh/trimesh
v 0.01181441 -0.00022976 0.00723416
v 0.01181441 -0.00260875 0.00712626
v 0.01660556 -0.00560693 0.00678071
v 0.01486339 -0.00021672 0.00709894
v 0.01181441 0.01665455 0.00706207
v 0.01181441 -0.00601103 0.00683125
v 0.01950842 -0.00947197 0.00561706
v 0.01950842 -0.00520283 0.00662638
v 0.01950842 -0.00434248 0.00666052
v 0.01448076 0.02180686 0.00681349
v 0.01181441 0.01943438 0.00697602
v 0.01181441 -0.00641188 0.00651712
v 0.01181441 -0.00904832 0.00395899
v 0.01950842 -0.01133932 0.00380056
v 0.01950842 -0.00020695 0.00597217
v 0.01829124 0.02180686 0.00536985
v 0.01181441 0.02180686 0.00690227
v 0.01181441 -0.00888863 0.00224629
v 0.01950842 -0.01148597 -0.00074205
v 0.01950842 0.00369068 0.00461184
v 0.01926890 0.02180686 0.00215342
v 0.01888099 0.02180686 0.00350419
v 0.01181441 0.02180686 -0.00665728
v 0.01181441 -0.00828574 -0.00158884
v 0.01950842 -0.01085049 -0.00167489
v 0.01950842 0.00619351 -0.00021895
v 0.01950842 0.00024604 -0.00497600
v 0.01881547 0.02180686 -0.00236051
v 0.01313478 0.02180686 -0.00661085
v 0.01181441 0.01956148 -0.00671874
v 0.01181441 -0.00624241 -0.00437368
v 0.01950842 -0.00812605 -0.00523823
v 0.01950842 -0.00604688 -0.00595117
v 0.01717046 0.02180686 -0.00520135
v 0.01870550 0.02180686 -0.00259679
v 0.01305569 0.02148749 -0.00661768
v 0.01346996 0.02180686 -0.00650295
v 0.01181441 -0.00241648 -0.00667914
v 0.01181441 -0.00555805 -0.00524779
v 0.01950842 -0.00803154 -0.00529013
f 1 2 3
f 1 3 4
f 1 4 5
f 1 5 11
f 1 11 17
f 1 17 23
f 1 23 30
f 1 30 38
f 1 38 39
f 1 39 31
f 1 31 24
f 1 24 18
f 1 18 13
f 1 13 12
f 1 12 6
f 1 6 2
f 2 6 3
f 3 6 7
f 3 7 8
f 3 8 4
f 4 8 9
f 4 9 10
f 4 10 5
f 5 10 11
f 6 12 7
f 7 12 13
f 7 13 14
f 7 14 19
f 7 19 25
f 7 25 32
f 7 32 40
f 7 40 33
f 7 33 27
f 7 27 26
f 7 26 20
f 7 20 15
f 7 15 9
f 7 9 8
f 9 15 16
f 9 16 10
f 10 16 22
f 10 22 21
f 10 21 28
f 10 28 35
f 10 35 34
f 10 34 37
f 10 37 29
f 10 29 23
f 10 23 17
f 10 17 11
f 13 18 19
f 13 19 14
f 15 20 21
f 15 21 22
f 15 22 16
f 18 24 19
f 19 24 25
f 20 26 21
f 21 26 27
f 21 27 28
f 23 29 30
f 24 31 25
f 25 31 32
f 27 33 34
f 27 34 35
f 27 35 28
f 29 36 30
f 29 37 33
f 29 33 36
f 30 36 38
f 31 39 32
f 32 39 40
f 33 40 38
f 33 38 36
f 33 37 34
f 38 40 39

