# https://github.com/mikedh/trimesh
v 0.01101333 -0.07150088 0.00240731
v 0.01101333 -0.07138321 0.00403469
v 0.01101333 -0.07099224 -0.00362250
v 0.01177053 -0.07076829 -0.00439990
v 0.01274891 -0.07118203 0.00299036
v 0.01101333 -0.07070376 0.00524877
v 0.01101333 -0.07074172 -0.00501125
v 0.01789786 -0.06758742 -0.00160641
v 0.02014554 -0.06449005 -0.00466437
v 0.01734789 -0.06813401 0.00469278
v 0.01483319 -0.06735587 0.00575556
v 0.01101333 -0.07001672 0.00556982
v 0.01101333 -0.06924618 -0.00659435
v 0.02302488 -0.06184438 0.00144785
v 0.02119565 -0.06073221 -0.00590674
v 0.02587035 -0.05373278 -0.00543070
v 0.02560533 -0.05671247 -0.00264951
v 0.01384685 -0.06737485 -0.00638770
v 0.02144672 -0.06308182 0.00531273
v 0.01101333 -0.06832001 0.00581706
v 0.02648209 -0.05221446 0.00548002
v 0.02951686 -0.03272307 0.00586011
v 0.01101333 -0.06778100 -0.00670628
v 0.02546784 -0.05777529 0.00399041
v 0.02863612 -0.04064109 -0.00536674
v 0.02749235 -0.04689276 -0.00537781
v 0.02848667 -0.04855912 -0.00409976
v 0.02960653 -0.04703700 -0.00003438
v 0.02834520 -0.05108332 0.00408758
v 0.01101333 -0.06593245 0.00401747
v 0.02746844 -0.03272307 0.00503228
v 0.02936941 -0.04564394 0.00525615
v 0.02998911 -0.03789294 0.00566084
v 0.03111494 -0.03272307 0.00478749
v 0.01101333 -0.06712813 -0.00584523
v 0.02592216 -0.03272307 -0.00375904
v 0.02707788 -0.03272307 -0.00499280
v 0.02802837 -0.03272307 -0.00542086
v 0.03007479 -0.03272307 -0.00516747
v 0.03014454 -0.03272307 -0.00508751
v 0.03051517 -0.04026152 -0.00323503
v 0.03048926 -0.04356005 0.00368658
v 0.01101333 -0.06477094 0.00253769
v 0.02524865 -0.03272307 0.00056958
v 0.03124447 -0.03388458 0.00461651
v 0.03125244 -0.03272307 0.00389446
v 0.01101333 -0.06538965 -0.00212304
v 0.02551168 -0.03272307 -0.00156828
v 0.01101333 -0.06529476 -0.00191639
v 0.03091967 -0.03272307 -0.00307143
v 0.03136801 -0.03563444 0.00114033
v 0.03115081 -0.03272307 -0.00144035
v 0.03133413 -0.03272307 0.00114771
f 1 2 6
f 1 6 12
f 1 12 20
f 1 20 30
f 1 30 43
f 1 43 49
f 1 49 47
f 1 47 35
f 1 35 23
f 1 23 13
f 1 13 7
f 1 7 3
f 1 3 4
f 1 4 5
f 1 5 2
f 2 5 6
f 3 7 4
f 4 8 5
f 4 7 9
f 4 9 8
f 5 8 10
f 5 10 6
f 6 10 11
f 6 11 12
f 7 13 9
f 8 9 14
f 8 14 10
f 9 15 16
f 9 16 17
f 9 17 14
f 9 13 18
f 9 18 15
f 10 14 19
f 10 19 11
f 11 20 12
f 11 19 21
f 11 21 22
f 11 22 20
f 13 23 18
f 14 17 24
f 14 24 19
f 15 18 23
f 15 23 25
f 15 25 26
f 15 26 16
f 16 26 27
f 16 27 17
f 17 27 28
f 17 28 29
f 17 29 24
f 19 24 21
f 20 22 31
f 20 31 30
f 21 29 32
f 21 32 33
f 21 33 22
f 21 24 29
f 22 34 46
f 22 46 53
f 22 53 52
f 22 52 50
f 22 50 40
f 22 40 39
f 22 39 38
f 22 38 37
f 22 37 36
f 22 36 48
f 22 48 44
f 22 44 31
f 22 33 34
f 23 35 36
f 23 36 37
f 23 37 38
f 23 38 25
f 25 38 39
f 25 39 27
f 25 27 26
f 27 39 40
f 27 40 41
f 27 41 28
f 28 41 42
f 28 42 29
f 29 42 32
f 30 31 44
f 30 44 43
f 32 42 45
f 32 45 33
f 33 45 34
f 34 45 46
f 35 47 36
f 36 47 49
f 36 49 48
f 40 50 41
f 41 51 42
f 41 50 52
f 41 52 51
f 42 51 45
f 43 44 49
f 44 48 49
f 45 53 46
f 45 51 53
f 51 52 53

