# https://github.com/mikedh/trimesh
v -0.01130500 -0.04019015 -0.00280121
v -0.01006183 -0.03272565 0.00021961
v -0.01065382 -0.03272565 -0.00140198
v -0.01070181 -0.03308430 -0.00160559
v -0.01067781 -0.03272565 -0.00168356
v -0.01070341 -0.03272565 -0.00494264
v -0.01118180 -0.03845626 -0.00552890
v -0.01122340 -0.04769593 -0.00458742
v -0.01040102 -0.05055221 0.00008677
v -0.00552113 -0.04325026 0.00654572
v -0.00378677 -0.03272565 0.00654139
v -0.00926025 -0.04676964 0.00281446
v -0.00982663 -0.03272565 -0.00596787
v -0.00941224 -0.04048430 -0.00682560
v -0.01048422 -0.04991232 -0.00678372
v -0.00905865 -0.03272565 -0.00646460
v -0.00980903 -0.05651245 -0.00454121
v -0.00900745 -0.05826183 0.00053729
v -0.00814347 -0.05645569 0.00498477
v -0.00255160 -0.04246330 0.00706700
v -0.00632911 -0.05395290 0.00662370
v -0.00354357 -0.03272565 0.00658471
v -0.00631471 -0.03272565 -0.00676206
v -0.00791148 -0.05224224 -0.00744796
v -0.00818187 -0.05908233 -0.00739742
v -0.00825387 -0.05908233 -0.00737865
v -0.00833547 -0.05908233 -0.00714183
v -0.00889865 -0.05908233 -0.00445024
v -0.00877546 -0.05908233 -0.00105398
v -0.00861226 -0.05908233 0.00086508
v -0.00838347 -0.05908233 0.00188742
v -0.00728109 -0.05908233 0.00553204
v 0.00079873 -0.03272565 0.00702801
v -0.00483474 -0.05908233 0.00653128
v -0.00542673 -0.05908233 0.00642731
v -0.00511474 -0.05830827 0.00653850
v -0.00603632 -0.03272565 -0.00670575
v -0.00556273 -0.05908233 -0.00768477
v 0.00151711 -0.03272565 0.00673200
v -0.00163802 -0.05908233 0.00511184
v -0.00121083 -0.03272565 -0.00531519
v -0.00343958 -0.05908233 -0.00705952
v 0.00204670 -0.03736226 0.00587138
v 0.00268189 -0.03272565 0.00608798
v -0.00095643 -0.05908233 0.00384835
v 0.00490904 -0.03272565 0.00327798
v 0.00261469 -0.04098227 0.00419491
v 0.00155711 -0.03272565 -0.00381344
v -0.00103483 -0.05908233 -0.00405603
v 0.00258909 -0.03272565 -0.00296438
v 0.00427545 -0.03272565 0.00411405
v -0.00022525 -0.05908233 0.00001890
v 0.00504024 -0.03272565 0.00240581
v -0.00081883 -0.05908233 -0.00347122
v 0.00404666 -0.03272565 -0.00096157
v 0.00462105 -0.03272565 0.00058927
f 1 2 3
f 1 3 4
f 1 4 5
f 1 5 6
f 1 6 7
f 1 7 8
f 1 8 9
f 1 9 2
f 2 10 11
f 2 11 22
f 2 22 33
f 2 33 39
f 2 39 44
f 2 44 51
f 2 51 46
f 2 46 53
f 2 53 56
f 2 56 55
f 2 55 50
f 2 50 48
f 2 48 41
f 2 41 37
f 2 37 23
f 2 23 16
f 2 16 13
f 2 13 6
f 2 6 5
f 2 5 3
f 2 9 12
f 2 12 10
f 3 5 4
f 6 13 7
f 7 14 15
f 7 15 8
f 7 13 16
f 7 16 14
f 8 15 17
f 8 17 9
f 9 17 18
f 9 18 19
f 9 19 12
f 10 20 11
f 10 12 19
f 10 19 21
f 10 21 20
f 11 20 22
f 14 16 23
f 14 23 24
f 14 24 15
f 15 24 25
f 15 25 26
f 15 26 17
f 17 26 27
f 17 27 28
f 17 28 18
f 18 28 29
f 18 29 30
f 18 30 31
f 18 31 19
f 19 31 32
f 19 32 21
f 20 33 22
f 20 21 34
f 20 34 33
f 21 32 35
f 21 35 36
f 21 36 34
f 23 37 38
f 23 38 24
f 24 38 25
f 25 38 42
f 25 42 49
f 25 49 54
f 25 54 52
f 25 52 45
f 25 45 40
f 25 40 34
f 25 34 35
f 25 35 32
f 25 32 31
f 25 31 30
f 25 30 29
f 25 29 28
f 25 28 27
f 25 27 26
f 33 34 39
f 34 36 35
f 34 40 39
f 37 41 38
f 38 41 42
f 39 43 44
f 39 40 43
f 40 45 46
f 40 46 47
f 40 47 43
f 41 48 42
f 42 48 50
f 42 50 49
f 43 47 46
f 43 46 51
f 43 51 44
f 45 52 46
f 46 52 53
f 49 50 55
f 49 55 56
f 49 56 54
f 52 54 53
f 53 54 56

