# https://github.com/mikedh/trimesh
v -0.05382896 -0.03168419 0.00528200
v -0.05100351 -0.02662182 0.00526555
v -0.05345717 -0.02662182 0.00527025
v -0.05381590 -0.02662182 0.00426343
v -0.05478413 -0.03243718 0.00275730
v -0.05345630 -0.03960791 0.00422583
v -0.05239577 -0.03935769 0.00521151
v -0.05055771 -0.02662182 0.00491663
v -0.04588984 -0.04708679 0.00443378
v -0.04588984 -0.04617625 0.00434802
v -0.05469880 -0.02662182 -0.00009517
v -0.05469706 -0.02662182 -0.00021148
v -0.05464133 -0.03233524 -0.00472985
v -0.05385073 -0.03947817 0.00111490
v -0.05184374 -0.04415362 0.00321901
v -0.04903049 -0.04732543 0.00440558
v -0.04588984 -0.04859044 0.00428105
v -0.04816326 -0.02662182 0.00198309
v -0.04588984 -0.04264533 0.00372536
v -0.05421991 -0.02662182 -0.00481914
v -0.05289469 -0.02662182 -0.00668945
v -0.05281720 -0.02810693 -0.00672000
v -0.05368791 -0.03813206 -0.00499066
v -0.05254554 -0.04259900 -0.00262574
v -0.05050372 -0.04659792 0.00172463
v -0.04739965 -0.04950329 0.00241308
v -0.04588984 -0.05029103 0.00250237
v -0.04588984 -0.04073160 0.00289828
v -0.04588984 -0.03537729 0.00050517
v -0.04808228 -0.02662182 -0.00296526
v -0.05203878 -0.02662182 -0.00655905
v -0.04588984 -0.04350490 -0.00628062
v -0.05214153 -0.03344965 -0.00653790
v -0.05041752 -0.04014311 -0.00658020
v -0.05147369 -0.04275191 -0.00558630
v -0.04882064 -0.04786526 -0.00261282
v -0.04588984 -0.04989715 -0.00234613
v -0.04588984 -0.05012653 -0.00062031
v -0.04588984 -0.03877152 -0.00334943
v -0.04588984 -0.04747834 -0.00579071
v -0.04650020 -0.04742968 -0.00578132
v -0.04588984 -0.04872250 -0.00428577
v -0.04588984 -0.04773551 -0.00567323
f 1 2 3
f 1 3 4
f 1 4 5
f 1 5 6
f 1 6 7
f 1 7 2
f 2 8 18
f 2 18 30
f 2 30 31
f 2 31 21
f 2 21 20
f 2 20 12
f 2 12 11
f 2 11 4
f 2 4 3
f 2 7 9
f 2 9 10
f 2 10 8
f 4 11 5
f 5 11 12
f 5 12 13
f 5 13 14
f 5 14 6
f 6 14 15
f 6 15 16
f 6 16 7
f 7 16 17
f 7 17 9
f 8 10 19
f 8 19 18
f 9 17 27
f 9 27 38
f 9 38 37
f 9 37 42
f 9 42 43
f 9 43 40
f 9 40 32
f 9 32 39
f 9 39 29
f 9 29 28
f 9 28 19
f 9 19 10
f 12 20 13
f 13 21 22
f 13 22 23
f 13 23 14
f 13 20 21
f 14 24 15
f 14 23 24
f 15 24 25
f 15 25 16
f 16 25 26
f 16 26 27
f 16 27 17
f 18 19 28
f 18 28 29
f 18 29 30
f 21 31 32
f 21 32 22
f 22 33 23
f 22 32 34
f 22 34 33
f 23 33 34
f 23 34 35
f 23 35 24
f 24 35 36
f 24 36 25
f 25 36 26
f 26 37 38
f 26 38 27
f 26 36 37
f 29 39 30
f 30 39 32
f 30 32 31
f 32 40 41
f 32 41 34
f 34 41 35
f 35 41 36
f 36 41 37
f 37 41 42
f 40 43 41
f 41 43 42

