# https://github.com/mikedh/trimesh
v -0.02270820 -0.00234636 0.00611636
v -0.02270820 -0.00841609 0.00477395
v -0.01644435 -0.01963220 0.00417532
v -0.01572877 -0.01963220 0.00437957
v -0.01484566 -0.01963220 0.00447335
v -0.01137425 -0.01963220 0.00483946
v -0.01309941 -0.00940734 0.00571685
v -0.01201217 0.00626262 0.00566418
v -0.02270820 -0.00034009 0.00611508
v -0.02270820 -0.01310418 0.00241926
v -0.01982923 -0.01963220 0.00190413
v -0.01137425 -0.01549745 0.00517603
v -0.01137425 -0.01963220 -0.00382266
v -0.01137425 -0.00715326 0.00549590
v -0.01137425 0.00656474 0.00561280
v -0.01137425 0.00697890 0.00560509
v -0.02270820 0.00498960 0.00600332
v -0.02270820 -0.00909503 -0.00286435
v -0.01797315 -0.01963220 -0.00258815
v -0.02270820 -0.00908485 -0.00287591
v -0.01219079 -0.01963220 -0.00504433
v -0.01137425 -0.01504935 -0.00518178
v -0.02270820 0.00579415 0.00594294
v -0.02270820 0.00524760 0.00598405
v -0.01137425 0.01386675 0.00507454
v -0.01509972 -0.01963220 -0.00539374
v -0.02270820 -0.00216644 -0.00700721
v -0.01402801 -0.01963220 -0.00550936
v -0.01170819 -0.01618657 -0.00526014
v -0.01137425 -0.00336816 -0.00592043
v -0.02270820 0.00762729 0.00499747
v -0.01137425 0.01407723 0.00489598
v -0.01438192 -0.01774135 -0.00578426
v -0.01846130 0.00453471 -0.00630196
v -0.01137425 0.01024800 -0.00564681
v -0.02227109 -0.00217662 -0.00699180
v -0.02270820 0.00557009 -0.00614781
v -0.01137425 -0.00205781 -0.00595897
v -0.01137425 0.01502435 0.00313607
v -0.02270820 0.00834357 0.00235888
v -0.02270820 0.00701963 -0.00593199
v -0.01137425 0.01419943 -0.00500451
v -0.01137425 0.01504811 -0.00171847
v -0.02270820 0.00828586 -0.00313154
v -0.02270820 0.00827568 -0.00318678
v -0.02270820 0.00828246 -0.00316237
f 1 2 3
f 1 3 4
f 1 4 5
f 1 5 6
f 1 6 7
f 1 7 8
f 1 8 9
f 1 9 17
f 1 17 24
f 1 24 23
f 1 23 31
f 1 31 40
f 1 40 44
f 1 44 46
f 1 46 45
f 1 45 41
f 1 41 37
f 1 37 27
f 1 27 20
f 1 20 18
f 1 18 10
f 1 10 2
f 2 10 11
f 2 11 3
f 3 11 19
f 3 19 26
f 3 26 28
f 3 28 21
f 3 21 13
f 3 13 6
f 3 6 5
f 3 5 4
f 6 12 7
f 6 13 22
f 6 22 30
f 6 30 38
f 6 38 35
f 6 35 42
f 6 42 43
f 6 43 39
f 6 39 32
f 6 32 25
f 6 25 16
f 6 16 15
f 6 15 14
f 6 14 12
f 7 14 15
f 7 15 8
f 7 12 14
f 8 15 16
f 8 16 17
f 8 17 9
f 10 18 11
f 11 18 20
f 11 20 19
f 13 21 22
f 16 23 24
f 16 24 17
f 16 25 23
f 19 20 27
f 19 27 26
f 21 28 29
f 21 29 22
f 22 29 30
f 23 25 31
f 25 32 31
f 26 33 28
f 26 27 33
f 27 34 35
f 27 35 36
f 27 36 33
f 27 37 34
f 28 33 29
f 29 33 30
f 30 33 38
f 31 32 39
f 31 39 40
f 33 36 38
f 34 37 35
f 35 37 41
f 35 41 42
f 35 38 36
f 39 43 40
f 40 43 44
f 41 45 42
f 42 45 46
f 42 46 43
f 43 46 44

