# https://github.com/mikedh/trimesh
v 0.01950842 -0.00434581 0.00666097
v 0.01950842 -0.00520295 0.00662640
v 0.02904397 -0.02755734 0.00605845
v 0.02304503 -0.01135917 0.00648688
v 0.02034424 -0.00508867 0.00658195
v 0.01950842 -0.00020865 0.00597202
v 0.01950842 -0.00947726 0.00561644
v 0.02746957 -0.03271926 0.00503244
v 0.02951629 -0.03271926 0.00585967
v 0.03025834 -0.02503542 0.00591646
v 0.02802408 -0.01723348 0.00602882
v 0.02400588 -0.00845249 0.00591893
v 0.01950842 0.00368471 0.00461142
v 0.01950842 -0.01134012 0.00380024
v 0.02524920 -0.03271926 0.00056912
v 0.03111616 -0.03271926 0.00478674
v 0.03128171 -0.02832687 0.00115805
v 0.03017152 -0.02247922 0.00108521
v 0.02815837 -0.01618586 0.00290017
v 0.01950842 0.00619519 -0.00021860
v 0.01950842 -0.01148869 -0.00074210
v 0.02551083 -0.03271926 -0.00156810
v 0.03125276 -0.03271926 0.00389408
v 0.03101660 -0.03092878 -0.00303241
v 0.02990295 -0.02308875 -0.00366580
v 0.03133496 -0.03271926 0.00114694
v 0.02783191 -0.01586966 -0.00252867
v 0.02322678 -0.00610962 -0.00434610
v 0.01950842 0.00024469 -0.00497578
v 0.02621931 -0.01352299 -0.00497578
v 0.01950842 -0.01085631 -0.00167428
v 0.02592179 -0.03271926 -0.00375963
v 0.03012985 -0.03242212 -0.00516098
v 0.03115089 -0.03271926 -0.00144093
v 0.03092052 -0.03271926 -0.00307192
v 0.02828687 -0.02110016 -0.00551163
v 0.02385886 -0.00964107 -0.00556719
v 0.01950842 -0.00604867 -0.00595240
v 0.01950842 -0.00812868 -0.00523876
v 0.02707713 -0.03271926 -0.00499183
v 0.01950842 -0.00803725 -0.00529062
v 0.03014374 -0.03271926 -0.00508690
v 0.03007544 -0.03271926 -0.00516839
v 0.02802756 -0.03271926 -0.00542150
f 1 2 3
f 1 3 4
f 1 4 5
f 1 5 6
f 1 6 13
f 1 13 20
f 1 20 29
f 1 29 38
f 1 38 41
f 1 41 39
f 1 39 31
f 1 31 21
f 1 21 14
f 1 14 7
f 1 7 2
f 2 7 8
f 2 8 9
f 2 9 3
f 3 9 10
f 3 10 4
f 4 10 11
f 4 11 5
f 5 11 12
f 5 12 6
f 6 12 13
f 7 14 15
f 7 15 8
f 8 15 22
f 8 22 32
f 8 32 40
f 8 40 44
f 8 44 43
f 8 43 42
f 8 42 35
f 8 35 34
f 8 34 26
f 8 26 23
f 8 23 16
f 8 16 9
f 9 16 10
f 10 16 17
f 10 17 18
f 10 18 19
f 10 19 11
f 11 19 20
f 11 20 13
f 11 13 12
f 14 21 15
f 15 21 22
f 16 23 17
f 17 24 25
f 17 25 18
f 17 23 26
f 17 26 24
f 18 25 27
f 18 27 19
f 19 27 20
f 20 28 29
f 20 27 30
f 20 30 28
f 21 31 22
f 22 31 32
f 24 33 25
f 24 26 34
f 24 34 35
f 24 35 33
f 25 33 36
f 25 36 30
f 25 30 27
f 28 30 37
f 28 37 29
f 29 37 38
f 30 36 37
f 31 39 32
f 32 39 41
f 32 41 40
f 33 35 42
f 33 42 43
f 33 43 36
f 36 43 44
f 36 44 38
f 36 38 37
f 38 44 40
f 38 40 41

