# https://github.com/mikedh/trimesh
v -0.01137425 0.00656157 0.00561324
v -0.00448190 0.00009118 0.00526093
v -0.00448190 0.01470378 0.00497072
v -0.01137425 0.00697424 0.00560488
v -0.01137425 -0.00714634 0.00549501
v -0.00448190 -0.00615700 0.00491459
v -0.01137425 -0.02226684 0.00492056
v -0.00448190 0.01526988 0.00492533
v -0.01137425 0.01386787 0.00507462
v -0.00792875 -0.03272104 0.00203516
v -0.00448190 -0.01199252 0.00042049
v -0.01137425 -0.02580625 0.00424698
v -0.00448190 0.01703693 0.00478082
v -0.00979824 0.01498948 0.00495280
v -0.00448190 0.02078796 0.00419563
v -0.01137425 0.01407950 0.00489548
v -0.01137425 -0.02687494 0.00402126
v -0.01137425 -0.03215494 0.00004070
v -0.01006270 -0.03272104 0.00021985
v -0.00792875 -0.03272104 -0.00658759
v -0.00448190 -0.01199252 -0.00575398
v -0.00448190 0.02099429 0.00395796
v -0.01137425 0.01502122 0.00313510
v -0.01137425 -0.03127671 -0.00091234
v -0.01070363 -0.03272104 -0.00494306
v -0.01067732 -0.03272104 -0.00168265
v -0.01065506 -0.03272104 -0.00140200
v -0.01137425 -0.00205680 -0.00595939
v -0.00448190 -0.00197215 -0.00569784
v -0.00905948 -0.03272104 -0.00646338
v -0.00448190 0.02132231 -0.00126704
v -0.01137425 0.01504238 -0.00171848
v -0.01137425 -0.02963134 -0.00248880
v -0.00982792 -0.03272104 -0.00596775
v -0.01137425 -0.02722941 -0.00339287
v -0.01137425 -0.01504519 -0.00518191
v -0.01137425 -0.00336886 -0.00591998
v -0.01137425 0.01024382 -0.00564530
v -0.00448190 0.01579365 -0.00500874
v -0.00448190 0.02011077 -0.00460985
v -0.01137425 0.01419589 -0.00500396
f 1 2 3
f 1 3 4
f 1 4 9
f 1 9 16
f 1 16 23
f 1 23 32
f 1 32 41
f 1 41 38
f 1 38 28
f 1 28 37
f 1 37 36
f 1 36 35
f 1 35 33
f 1 33 24
f 1 24 18
f 1 18 17
f 1 17 12
f 1 12 7
f 1 7 5
f 1 5 2
f 2 6 11
f 2 11 21
f 2 21 29
f 2 29 39
f 2 39 40
f 2 40 31
f 2 31 22
f 2 22 15
f 2 15 13
f 2 13 8
f 2 8 3
f 2 5 7
f 2 7 6
f 3 8 9
f 3 9 4
f 6 7 10
f 6 10 11
f 7 12 10
f 8 13 9
f 9 13 14
f 9 14 15
f 9 15 16
f 10 12 17
f 10 17 18
f 10 18 19
f 10 19 27
f 10 27 26
f 10 26 25
f 10 25 34
f 10 34 30
f 10 30 20
f 10 20 21
f 10 21 11
f 13 15 14
f 15 22 16
f 16 22 23
f 18 24 25
f 18 25 26
f 18 26 27
f 18 27 19
f 20 28 29
f 20 29 21
f 20 30 28
f 22 31 23
f 23 31 32
f 24 33 25
f 25 33 35
f 25 35 36
f 25 36 37
f 25 37 34
f 28 38 29
f 28 30 37
f 29 38 39
f 30 34 37
f 31 40 41
f 31 41 32
f 38 41 40
f 38 40 39

