# https://github.com/mikedh/trimesh
v -0.03323415 -0.00251284 0.00635014
v -0.03323415 -0.00353966 0.00601078
v -0.02270923 -0.00841758 0.00477406
v -0.02270923 -0.00234906 0.00611540
v -0.02419513 -0.00125714 0.00617710
v -0.03323415 0.00077550 0.00629648
v -0.03323415 -0.00716398 0.00468151
v -0.02270923 -0.01310652 0.00241867
v -0.02270923 -0.00033951 0.00611406
v -0.02406529 0.00482609 0.00604699
v -0.02270923 0.00579411 0.00594237
v -0.03323415 0.00128366 0.00614357
v -0.03323415 -0.00816560 0.00404035
v -0.03323415 -0.01020244 0.00091234
v -0.03323415 -0.01030114 0.00067626
v -0.03323415 -0.00978038 -0.00242357
v -0.02270923 -0.00909583 -0.00286353
v -0.02270923 0.00498777 0.00600273
v -0.02270923 0.00525025 0.00598395
v -0.02270923 0.00762937 0.00499672
v -0.02789956 0.00479249 0.00565130
v -0.03323415 0.00204800 0.00500745
v -0.03323415 -0.00772884 -0.00401038
v -0.02270923 -0.00908533 -0.00287695
v -0.02270923 0.00834541 0.00235831
v -0.03323415 0.00220549 0.00422948
v -0.03323415 -0.00238895 -0.00733020
v -0.02270923 -0.00216427 -0.00700693
v -0.02270923 0.00828662 -0.00313046
v -0.03323415 0.00249947 -0.00099102
v -0.03323415 0.00250157 -0.00040351
v -0.02485770 0.00712751 0.00222015
v -0.03262207 -0.00192909 -0.00735300
v -0.03323415 -0.00206768 -0.00728459
v -0.02270923 0.00557153 -0.00614713
v -0.02270923 0.00828242 -0.00316265
v -0.03323415 0.00204380 -0.00428670
v -0.03271893 0.00174353 -0.00678025
v -0.02270923 0.00701832 -0.00593252
v -0.03323415 0.00138235 -0.00676013
v -0.02270923 0.00827612 -0.00318680
v -0.03323415 0.00151674 -0.00650125
f 1 2 3
f 1 3 4
f 1 4 5
f 1 5 6
f 1 6 12
f 1 12 22
f 1 22 26
f 1 26 31
f 1 31 30
f 1 30 37
f 1 37 42
f 1 42 40
f 1 40 34
f 1 34 27
f 1 27 23
f 1 23 16
f 1 16 15
f 1 15 14
f 1 14 13
f 1 13 7
f 1 7 2
f 2 7 3
f 3 8 17
f 3 17 24
f 3 24 28
f 3 28 35
f 3 35 39
f 3 39 41
f 3 41 36
f 3 36 29
f 3 29 25
f 3 25 20
f 3 20 11
f 3 11 19
f 3 19 18
f 3 18 9
f 3 9 4
f 3 7 8
f 4 9 5
f 5 9 10
f 5 10 6
f 6 10 11
f 6 11 12
f 7 13 8
f 8 14 15
f 8 15 16
f 8 16 17
f 8 13 14
f 9 18 10
f 10 18 19
f 10 19 11
f 11 20 21
f 11 21 12
f 12 21 22
f 16 23 24
f 16 24 17
f 20 25 21
f 21 25 22
f 22 25 26
f 23 27 24
f 24 27 28
f 25 29 30
f 25 30 31
f 25 31 32
f 25 32 26
f 26 32 31
f 27 33 28
f 27 34 33
f 28 33 35
f 29 36 30
f 30 36 37
f 33 38 39
f 33 39 35
f 33 34 40
f 33 40 38
f 36 41 38
f 36 38 37
f 37 38 42
f 38 40 42
f 38 41 39

