# https://github.com/mikedh/trimesh
v -0.04588984 -0.05029078 0.00250253
v -0.04588984 -0.04859025 0.00428160
v -0.04588984 -0.05012587 -0.00062028
v -0.04506733 -0.05046598 -0.00227137
v -0.04304948 -0.05177143 0.00266932
v -0.04397479 -0.04936150 0.00420503
v -0.04588984 -0.04708727 0.00443475
v -0.04588984 -0.04989742 -0.00234585
v -0.04588984 -0.04872252 -0.00428541
v -0.04588984 -0.04773484 -0.00567321
v -0.03917975 -0.05109637 -0.00447842
v -0.04053242 -0.05244476 -0.00044090
v -0.03721516 -0.05292400 0.00137908
v -0.03554413 -0.05210981 0.00385991
v -0.03323518 -0.04681244 0.00365326
v -0.04588984 -0.04617689 0.00434769
v -0.03323518 -0.05144678 0.00388404
v -0.04588984 -0.04747890 -0.00579069
v -0.03987590 -0.04796845 -0.00588300
v -0.03323518 -0.04993006 -0.00489381
v -0.03548715 -0.05193461 -0.00274551
v -0.03323518 -0.05240354 0.00127208
v -0.03323518 -0.05226269 0.00186685
v -0.03323518 -0.04139998 0.00175776
v -0.04588984 -0.04264703 0.00372564
v -0.04588984 -0.04350588 -0.00628161
v -0.03323518 -0.04659945 -0.00546761
v -0.03323518 -0.04977203 -0.00496410
v -0.03323518 -0.05013274 -0.00463472
v -0.03323518 -0.05121661 -0.00280215
v -0.03323518 -0.05221974 0.00029234
v -0.03323518 -0.04103755 0.00040563
v -0.04588984 -0.03537602 0.00050528
v -0.04588984 -0.04073351 0.00289905
v -0.04588984 -0.03877362 -0.00334867
v -0.03323518 -0.04155114 -0.00310006
v -0.03323518 -0.04109079 -0.00099161
f 1 2 7
f 1 7 16
f 1 16 25
f 1 25 34
f 1 34 33
f 1 33 35
f 1 35 26
f 1 26 18
f 1 18 10
f 1 10 9
f 1 9 8
f 1 8 3
f 1 3 4
f 1 4 5
f 1 5 2
f 2 5 6
f 2 6 7
f 3 8 4
f 4 8 9
f 4 9 10
f 4 10 11
f 4 11 12
f 4 12 5
f 5 12 13
f 5 13 14
f 5 14 6
f 6 14 7
f 7 15 16
f 7 14 17
f 7 17 15
f 10 18 19
f 10 19 11
f 11 20 21
f 11 21 12
f 11 19 20
f 12 21 13
f 13 21 22
f 13 22 14
f 14 22 23
f 14 23 17
f 15 24 25
f 15 25 16
f 15 17 23
f 15 23 22
f 15 22 31
f 15 31 30
f 15 30 29
f 15 29 20
f 15 20 28
f 15 28 27
f 15 27 36
f 15 36 37
f 15 37 32
f 15 32 24
f 18 26 19
f 19 26 27
f 19 27 28
f 19 28 20
f 20 29 21
f 21 29 30
f 21 30 31
f 21 31 22
f 24 32 33
f 24 33 34
f 24 34 25
f 26 35 36
f 26 36 27
f 32 37 33
f 33 37 36
f 33 36 35

