# https://github.com/mikedh/trimesh
v -0.00448031 -0.01199479 -0.00575431
v -0.00255023 -0.01199479 -0.00639767
v -0.00448031 -0.01199479 0.00042082
v -0.00448031 -0.00196613 -0.00569892
v 0.00296403 -0.01199479 -0.00579834
v -0.00135550 -0.00010665 -0.00636074
v 0.00389079 0.00390680 -0.00708932
v 0.00230207 -0.00545019 -0.00695298
v 0.01181206 -0.00241612 -0.00667887
v -0.00305907 -0.01199479 0.00311640
v -0.00448031 -0.00615825 0.00491583
v -0.00448031 0.01580157 -0.00501011
v 0.00778922 -0.01199479 -0.00238128
v 0.01181206 -0.00555938 -0.00524871
v 0.00565657 0.01821030 -0.00692599
v 0.00828051 -0.00121175 -0.00702115
v 0.00713044 0.01229766 -0.00709500
v 0.01181206 0.01956025 -0.00671864
v 0.00048206 -0.01199479 0.00695101
v -0.00448031 0.00009519 0.00526236
v -0.00448031 0.02011611 -0.00461103
v 0.01181206 -0.00624097 -0.00437385
v 0.01181206 -0.00828575 -0.00158879
v 0.00922959 -0.01199479 0.00383646
v 0.00670933 0.02180686 -0.00676409
v 0.00839057 0.02180686 -0.00677545
v 0.01181206 0.02180686 -0.00665615
v 0.00056819 -0.01199479 0.00698509
v -0.00448031 0.01470639 0.00497122
v -0.00448031 0.02132710 -0.00126782
v -0.00315318 0.02180686 -0.00456842
v 0.00180599 0.02180686 -0.00571312
v 0.00303422 0.02180686 -0.00598723
v 0.01181206 -0.00888793 0.00224581
v 0.00560871 -0.01199479 0.00719387
v 0.01181206 -0.00905005 0.00395860
v 0.01181206 -0.00641302 0.00651784
v 0.01181206 0.02180686 0.00690272
v 0.00062402 -0.01199479 0.00700072
v 0.00352710 0.00516411 0.00711291
v 0.00600270 0.02180686 0.00709729
v -0.00448031 0.01527218 0.00492577
v -0.00448031 0.02099292 0.00395718
v -0.00400018 0.02180686 -0.00123800
v 0.00609522 -0.00873573 0.00741400
v 0.00082660 -0.01199479 0.00701634
v 0.01181206 -0.00600936 0.00683171
v 0.00871597 0.02180686 0.00722653
v 0.00936677 0.01414722 0.00739554
v 0.01181206 0.01665521 0.00706178
v 0.00741915 0.02180686 0.00718818
v 0.00443153 0.02180686 0.00661157
v -0.00448031 0.02079109 0.00419577
v -0.00448031 0.01703902 0.00478233
v -0.00355674 0.02180686 0.00405801
v -0.00354877 0.02180686 0.00407079
v 0.01181206 -0.00260802 0.00712711
v 0.01181206 -0.00022907 0.00723363
v 0.00804284 -0.00024892 0.00739980
f 1 2 5
f 1 5 13
f 1 13 24
f 1 24 35
f 1 35 46
f 1 46 39
f 1 39 28
f 1 28 19
f 1 19 10
f 1 10 3
f 1 3 11
f 1 11 20
f 1 20 29
f 1 29 42
f 1 42 54
f 1 54 53
f 1 53 43
f 1 43 30
f 1 30 21
f 1 21 12
f 1 12 4
f 1 4 2
f 2 4 6
f 2 6 7
f 2 7 8
f 2 8 9
f 2 9 5
f 3 10 11
f 4 12 6
f 5 9 14
f 5 14 13
f 6 12 15
f 6 15 7
f 7 16 8
f 7 15 17
f 7 17 16
f 8 16 9
f 9 16 18
f 9 18 27
f 9 27 38
f 9 38 50
f 9 50 58
f 9 58 57
f 9 57 47
f 9 47 37
f 9 37 36
f 9 36 34
f 9 34 23
f 9 23 22
f 9 22 14
f 10 19 11
f 11 19 20
f 12 21 15
f 13 14 22
f 13 22 23
f 13 23 24
f 15 21 25
f 15 25 26
f 15 26 17
f 16 17 18
f 17 26 27
f 17 27 18
f 19 28 20
f 20 28 29
f 21 30 31
f 21 31 32
f 21 32 33
f 21 33 25
f 23 34 24
f 24 34 36
f 24 36 37
f 24 37 35
f 25 33 32
f 25 32 31
f 25 31 44
f 25 44 55
f 25 55 56
f 25 56 52
f 25 52 41
f 25 41 51
f 25 51 48
f 25 48 38
f 25 38 27
f 25 27 26
f 28 39 29
f 29 40 41
f 29 41 42
f 29 39 40
f 30 43 44
f 30 44 31
f 35 45 46
f 35 37 47
f 35 47 45
f 38 48 49
f 38 49 50
f 39 46 45
f 39 45 40
f 40 49 41
f 40 45 49
f 41 52 53
f 41 53 54
f 41 54 42
f 41 49 51
f 43 55 44
f 43 53 56
f 43 56 55
f 45 47 57
f 45 57 58
f 45 58 59
f 45 59 49
f 48 51 49
f 49 59 58
f 49 58 50
f 52 56 53

