# https://github.com/mikedh/trimesh
v -0.00792909 -0.03272104 -0.00658753
v -0.00792909 -0.03272104 0.00203540
v -0.00792909 -0.02682071 -0.00631593
v -0.00254928 -0.01199480 -0.00639811
v -0.00631498 -0.03272104 -0.00676303
v -0.00448084 -0.03272104 0.00580019
v -0.00792909 -0.02386040 0.00098243
v -0.00792909 -0.02074994 -0.00529221
v -0.00462696 -0.01199480 -0.00571563
v -0.00459169 -0.01474815 -0.00616551
v 0.00296322 -0.01199480 -0.00579781
v -0.00616549 -0.03234973 -0.00675885
v -0.00603616 -0.03272104 -0.00670592
v -0.00378716 -0.03272104 0.00654117
v -0.00363767 -0.03181205 0.00653978
v 0.00048243 -0.01199480 0.00695066
v -0.00305820 -0.01199480 0.00311623
v -0.00792909 -0.01785658 -0.00220155
v -0.00792909 -0.02016558 -0.00513065
v -0.00580605 -0.01199480 -0.00473091
v 0.00778876 -0.01199480 -0.00238122
v 0.00155738 -0.03272104 -0.00381304
v -0.00120894 -0.03272104 -0.00531450
v -0.00354361 -0.03272104 0.00658574
v 0.00184628 -0.01967051 0.00746600
v 0.00060000 -0.01213480 0.00699941
v 0.00056809 -0.01199480 0.00698548
v -0.00568176 -0.01199480 -0.00168899
v -0.00792909 -0.01785049 -0.00245504
v 0.00922987 -0.01199480 0.00383771
v 0.00618473 -0.02426619 0.00013281
v 0.00462100 -0.03272104 0.00058966
v 0.00404658 -0.03272104 -0.00096194
v 0.00258867 -0.03272104 -0.00296342
v 0.00277679 -0.02961261 -0.00338266
v 0.00079988 -0.03272104 0.00702866
v 0.00560862 -0.01199480 0.00719440
v 0.00082507 -0.01199480 0.00701612
v 0.00062520 -0.01199480 0.00700080
v 0.00133735 -0.03115668 0.00702169
v 0.00577658 -0.02959638 0.00293099
v 0.00268105 -0.03272104 0.00608711
v 0.00427500 -0.03272104 0.00411488
v 0.00490990 -0.03272104 0.00327780
v 0.00503923 -0.03272104 0.00240589
v 0.00151707 -0.03272104 0.00673198
f 1 2 7
f 1 7 18
f 1 18 29
f 1 29 19
f 1 19 8
f 1 8 3
f 1 3 4
f 1 4 5
f 1 5 13
f 1 13 23
f 1 23 22
f 1 22 34
f 1 34 33
f 1 33 32
f 1 32 45
f 1 45 44
f 1 44 43
f 1 43 42
f 1 42 46
f 1 46 36
f 1 36 24
f 1 24 14
f 1 14 6
f 1 6 2
f 2 6 7
f 3 8 9
f 3 9 10
f 3 10 4
f 4 10 9
f 4 9 20
f 4 20 28
f 4 28 17
f 4 17 16
f 4 16 27
f 4 27 39
f 4 39 38
f 4 38 37
f 4 37 30
f 4 30 21
f 4 21 11
f 4 11 12
f 4 12 5
f 5 12 13
f 6 14 7
f 7 14 15
f 7 15 16
f 7 16 17
f 7 17 18
f 8 19 20
f 8 20 9
f 11 21 22
f 11 22 23
f 11 23 13
f 11 13 12
f 14 24 25
f 14 25 26
f 14 26 27
f 14 27 16
f 14 16 15
f 17 28 18
f 18 28 20
f 18 20 29
f 19 29 20
f 21 30 31
f 21 31 32
f 21 32 33
f 21 33 34
f 21 34 35
f 21 35 22
f 22 35 34
f 24 36 25
f 25 37 38
f 25 38 39
f 25 39 26
f 25 36 40
f 25 40 37
f 26 39 27
f 30 41 31
f 30 37 42
f 30 42 43
f 30 43 44
f 30 44 41
f 31 41 45
f 31 45 32
f 36 46 40
f 37 40 46
f 37 46 42
f 41 44 45

