# https://github.com/mikedh/trimesh
v -0.00160917 -0.06614082 -0.00774100
v -0.00466929 -0.06435515 -0.00760269
v -0.00551910 -0.05920535 -0.00768791
v 0.00548953 -0.06857393 -0.00732606
v 0.00324219 -0.07001774 -0.00731348
v -0.00151561 -0.06850530 -0.00607564
v -0.00592062 -0.06473327 -0.00447037
v -0.00819135 -0.05933355 -0.00739591
v -0.00556198 -0.05908233 -0.00768372
v 0.01101138 -0.06778275 -0.00670574
v 0.00885761 -0.07066777 -0.00675185
v 0.00363591 -0.07111711 -0.00461287
v -0.00258373 -0.06852602 0.00005767
v 0.00219356 -0.07134630 0.00152184
v -0.00569257 -0.06511267 0.00328080
v -0.00828880 -0.06079807 -0.00438794
v -0.00833558 -0.05908233 -0.00714164
v -0.00825372 -0.05908233 -0.00737915
v -0.00818160 -0.05908233 -0.00739731
v -0.00343939 -0.05908233 -0.00705921
v 0.01101138 -0.06712753 -0.00584512
v 0.01101138 -0.06924598 -0.00659397
v 0.01101138 -0.07074288 -0.00501105
v 0.00659468 -0.07231100 0.00092248
v -0.00204382 -0.06844185 0.00564192
v 0.00261068 -0.07037384 0.00616444
v -0.00644883 -0.06161515 0.00606105
v -0.00838236 -0.05908233 0.00188788
v -0.00861041 -0.05908233 0.00086520
v -0.00877608 -0.05908233 -0.00105443
v -0.00889693 -0.05908233 -0.00444941
v -0.00103223 -0.05908233 -0.00405682
v 0.01101138 -0.06539366 -0.00212322
v 0.01101138 -0.07099409 -0.00362232
v 0.00865490 -0.07166096 0.00545471
v 0.01101138 -0.07150039 0.00240761
v 0.01101138 -0.07138515 0.00403524
v -0.00263051 -0.06515022 0.00647599
v 0.01101138 -0.07001774 0.00556927
v 0.01101138 -0.06832272 0.00581796
v -0.00728111 -0.05908233 0.00553294
v -0.00483496 -0.05908233 0.00653188
v -0.00542749 -0.05908233 0.00642710
v -0.00081783 -0.05908233 -0.00347143
v 0.01101138 -0.06529784 -0.00191645
v 0.01101138 -0.07070403 0.00524793
v 0.01101138 -0.06593493 0.00401708
v -0.00163646 -0.05908233 0.00511102
v -0.00022334 -0.05908233 0.00001855
v 0.01101138 -0.06477470 0.00253754
v -0.00095426 -0.05908233 0.00384803
f 1 2 3
f 1 3 4
f 1 4 5
f 1 5 2
f 2 5 6
f 2 6 7
f 2 7 8
f 2 8 3
f 3 8 9
f 3 9 4
f 4 10 11
f 4 11 5
f 4 9 10
f 5 11 12
f 5 12 6
f 6 13 7
f 6 12 14
f 6 14 13
f 7 15 16
f 7 16 8
f 7 13 15
f 8 16 17
f 8 17 18
f 8 18 19
f 8 19 9
f 9 19 18
f 9 18 17
f 9 17 31
f 9 31 30
f 9 30 29
f 9 29 28
f 9 28 41
f 9 41 43
f 9 43 42
f 9 42 48
f 9 48 51
f 9 51 49
f 9 49 44
f 9 44 32
f 9 32 20
f 9 20 10
f 10 21 33
f 10 33 45
f 10 45 50
f 10 50 47
f 10 47 40
f 10 40 39
f 10 39 46
f 10 46 37
f 10 37 36
f 10 36 34
f 10 34 23
f 10 23 22
f 10 22 11
f 10 20 21
f 11 22 23
f 11 23 24
f 11 24 12
f 12 24 14
f 13 14 25
f 13 25 15
f 14 24 26
f 14 26 25
f 15 27 28
f 15 28 29
f 15 29 30
f 15 30 16
f 15 25 27
f 16 30 31
f 16 31 17
f 20 32 21
f 21 32 33
f 23 34 24
f 24 35 26
f 24 34 36
f 24 36 37
f 24 37 35
f 25 38 27
f 25 26 38
f 26 35 39
f 26 39 40
f 26 40 38
f 27 41 28
f 27 38 42
f 27 42 43
f 27 43 41
f 32 44 45
f 32 45 33
f 35 37 46
f 35 46 39
f 38 40 42
f 40 47 48
f 40 48 42
f 44 49 50
f 44 50 45
f 47 50 48
f 48 50 51
f 49 51 50

