# https://github.com/mikedh/trimesh
v 0.00475100 0.08892900 -0.04803300
v -0.00061600 0.09148100 -0.04611800
v 0.01825900 0.09161400 -0.02392400
v -0.01500500 0.09167600 -0.04374400
v -0.01579100 0.09128700 -0.02494200
v -0.01387400 0.09222700 -0.03544600
v -0.01656100 0.08501300 -0.03309700
v -0.01360900 0.08985500 -0.04763100
v 0.02062100 0.09014700 -0.04726000
v 0.00495400 0.07408900 -0.04803800
v -0.00939700 0.09226000 -0.03438000
v -0.01611200 0.04136800 -0.04678400
v -0.01240000 0.05213500 -0.04752600
v -0.01955200 0.06333900 -0.00571300
v -0.02036200 0.03274400 -0.00772000
v -0.02005700 0.02455600 -0.01763100
v 0.02341700 0.09039400 -0.04484300
v 0.02353600 0.08726400 -0.04562300
v 0.01560800 0.05402700 -0.04725400
v 0.02159900 0.06321900 -0.04650100
v 0.02109900 0.03750700 -0.04581800
v 0.02362500 0.07806100 -0.04231700
v 0.02395000 0.03874000 -0.02613000
v 0.02212000 -0.00063800 -0.02263500
v -0.01442300 0.09226200 -0.00986100
v -0.01736600 0.08584400 -0.01365000
v -0.01813300 0.07826400 -0.02081700
v -0.01281300 0.09177600 0.01542900
v 0.01321100 0.09221400 -0.01063200
v 0.01410200 0.09217500 0.01359600
v 0.02268700 0.09119300 -0.00678700
v 0.02441400 0.08236300 0.01321400
v -0.01767000 0.08987700 0.01922300
v -0.00481400 0.09139300 0.04015200
v 0.02341500 0.09081800 0.01776100
v 0.00552100 0.08857300 0.04356100
v 0.02308400 0.09136100 0.04026900
v 0.02221800 0.08845600 0.04224100
v -0.01917100 0.07550000 0.01110400
v -0.01941600 0.04599200 0.02240300
v -0.01663900 0.09070400 0.03252500
v -0.01220400 0.09008200 0.04279000
v -0.01522300 0.07262600 0.04114300
v -0.01708400 0.05068000 0.03962300
v 0.02427000 0.07298400 0.02417600
v 0.02231200 0.06367800 0.03746400
v 0.02125400 0.06048500 0.04217600
v 0.02362600 0.08997800 -0.03031100
v 0.02496000 0.07508500 -0.02196000
v 0.02519900 0.06704700 -0.01776800
v 0.02504100 0.05728100 0.00878800
v 0.02425900 0.03080400 -0.01029600
v 0.02340400 0.02095400 0.00738900
v 0.02252900 0.02506700 0.02179700
v 0.01953100 0.02449700 0.04312600
v -0.02261400 -0.07838200 0.01164600
v -0.01926100 -0.03852300 -0.04621100
v -0.01972600 -0.05547600 -0.04595800
v -0.01635300 -0.06129300 -0.04634400
v 0.01771100 -0.05308600 -0.04370500
v 0.01702900 -0.06364100 -0.04501700
v 0.00418100 -0.07984600 -0.04577200
v -0.01708200 -0.08238000 -0.04408000
v -0.02179500 -0.08097500 -0.03206000
v -0.02238800 -0.08037200 -0.00375800
v -0.01970000 -0.08221600 -0.02646100
v -0.01250800 -0.08297800 -0.01758000
v 0.01518400 -0.07699300 -0.04528300
v 0.00647500 -0.08267300 -0.04429300
v 0.01662900 -0.08324600 -0.03395300
v 0.01692000 -0.08354700 -0.02180300
v -0.01768600 -0.08239400 0.00808000
v 0.01654500 -0.08294500 -0.00058700
v 0.01664600 -0.08217300 0.00884100
v 0.00293000 -0.08338900 0.01028200
v -0.02144600 -0.08146800 -0.04507700
v -0.02052600 0.02258600 0.01039700
v -0.02302000 -0.08102100 0.03469500
v -0.02280800 -0.07874200 0.04342600
v 0.02146900 -0.01125200 -0.00131700
v 0.01541200 -0.06801500 0.04427900
v 0.00830700 -0.08291300 0.03107400
v -0.01700600 -0.06049900 0.04458200
v 0.00139000 -0.07894100 0.04481900
v 0.01510100 -0.08126200 0.04266200
v 0.01618000 -0.08153400 0.02921800
v 0.01456000 -0.07727400 0.04469900
v 0.01663900 -0.04936100 0.04391600
v -0.01699900 -0.08150600 0.04421800
v -0.00026500 -0.08218300 0.04311700
f 71 67 63
f 75 67 71
f 75 72 67
f 71 63 70
f 67 72 66
f 66 63 67
f 76 63 66
f 78 76 66
f 66 72 78
f 27 7 76
f 26 7 27
f 76 7 4
f 4 7 26
f 25 6 4
f 78 15 56
f 56 65 78
f 15 65 56
f 64 15 76
f 64 65 15
f 64 76 78
f 78 65 64
f 71 74 73
f 73 74 86
f 71 70 24
f 69 63 76
f 69 70 63
f 69 68 70
f 18 49 50
f 47 37 38
f 50 49 32
f 32 51 50
f 39 27 14
f 14 15 39
f 42 41 43
f 43 41 44
f 42 37 34
f 34 41 42
f 37 30 34
f 34 30 25
f 76 15 16
f 16 27 76
f 16 15 14
f 14 27 16
f 76 4 12
f 12 4 8
f 11 6 25
f 5 4 26
f 5 41 25
f 25 4 5
f 86 74 53
f 53 54 86
f 51 54 53
f 38 87 55
f 88 87 81
f 88 55 87
f 37 47 88
f 88 47 38
f 38 55 88
f 45 54 51
f 51 32 45
f 45 32 37
f 76 12 57
f 57 12 8
f 62 69 76
f 68 69 62
f 76 59 62
f 3 37 31
f 70 68 61
f 61 24 70
f 29 37 3
f 29 30 37
f 3 11 29
f 25 30 29
f 29 11 25
f 37 32 35
f 33 39 41
f 33 5 26
f 41 5 33
f 26 27 33
f 27 39 33
f 77 15 78
f 78 39 77
f 77 39 15
f 41 39 40
f 25 41 28
f 28 34 25
f 41 34 28
f 80 74 71
f 80 53 74
f 42 83 36
f 36 87 38
f 38 37 36
f 36 37 42
f 79 83 42
f 42 43 79
f 79 39 78
f 79 40 39
f 41 40 79
f 79 43 44
f 44 41 79
f 72 75 89
f 78 72 89
f 89 79 78
f 83 79 89
f 82 75 71
f 71 73 82
f 82 89 75
f 90 89 82
f 86 54 85
f 54 88 85
f 85 88 81
f 81 87 85
f 90 82 85
f 85 73 86
f 85 82 73
f 37 88 46
f 46 88 54
f 46 45 37
f 54 45 46
f 58 59 76
f 76 57 58
f 58 57 59
f 13 57 8
f 59 57 13
f 9 1 8
f 71 24 52
f 52 80 71
f 53 80 52
f 24 23 52
f 51 53 52
f 50 51 52
f 52 23 50
f 84 89 90
f 84 85 87
f 90 85 84
f 83 89 84
f 87 36 84
f 84 36 83
f 20 61 68
f 68 9 20
f 20 9 18
f 3 31 17
f 18 9 17
f 17 31 37
f 37 35 17
f 49 18 17
f 1 9 10
f 59 13 10
f 10 62 59
f 8 1 10
f 10 13 8
f 22 18 50
f 50 23 22
f 18 61 21
f 21 20 18
f 61 20 21
f 2 11 3
f 3 17 2
f 2 4 6
f 6 11 2
f 2 17 9
f 8 4 2
f 2 9 8
f 48 32 49
f 49 17 48
f 48 35 32
f 48 17 35
f 19 9 68
f 19 10 9
f 68 62 19
f 62 10 19
f 60 22 23
f 24 61 60
f 60 23 24
f 60 61 18
f 18 22 60

