# https://github.com/mikedh/trimesh
v -0.02852500 -0.04071200 -0.01734800
v -0.02862600 -0.03755700 -0.01824800
v -0.02635300 -0.04651500 -0.01838100
v -0.02302400 -0.04738700 -0.01832500
v -0.01616200 -0.04641400 -0.01727800
v -0.02217300 -0.04411200 -0.01844400
v -0.02571500 -0.04894600 -0.01713200
v -0.02112300 -0.04917200 -0.00951200
v -0.03052200 -0.03137200 -0.01787300
v -0.03174500 -0.02738900 -0.01698900
v -0.02748500 -0.04485000 -0.01689700
v -0.03253900 -0.02331300 -0.01755100
v -0.03370000 -0.01911000 -0.01690700
v -0.02219700 -0.04952600 -0.00157300
v -0.02413800 -0.04984000 0.00259600
v -0.02571100 -0.04976400 0.00590400
v -0.02751500 -0.04348000 0.00590900
v -0.02575200 -0.04915500 -0.01344900
v -0.02337600 -0.04930500 -0.01056500
v -0.02336100 -0.04958400 -0.00621000
v -0.02680400 -0.04734700 -0.01709700
v 0.03777400 -0.02510900 -0.01809600
v 0.04177400 -0.02517300 -0.01567700
v 0.03957900 -0.02207200 -0.01800800
v 0.02501300 -0.01756900 -0.01853000
v 0.03293400 -0.01788700 -0.01832300
v 0.02092700 -0.03957000 0.00059600
v 0.04250500 -0.03204600 0.00854000
v 0.00914600 -0.01903600 -0.01848500
v 0.03489100 -0.03279800 0.00875500
v 0.03610400 -0.02698400 0.00940300
v 0.04124200 -0.02949800 0.00906800
v 0.00178000 -0.03978400 -0.01819000
v -0.01044200 -0.04017300 -0.01842500
v 0.03788300 -0.03284600 -0.01680600
v 0.03214300 -0.03358600 -0.01729000
v 0.04043400 -0.02453500 0.00931000
v 0.03736100 -0.01930000 0.00982600
v -0.00092300 -0.04250600 -0.01731300
v 0.01916200 -0.03755700 -0.01699100
v 0.04081100 -0.03469300 0.00198200
v 0.04279800 -0.03410500 0.00277400
v 0.04290300 -0.03381900 0.00568700
v 0.04150500 -0.03431300 0.00479800
v 0.04320800 -0.03160500 0.00746300
v 0.03723800 -0.03586600 -0.01068100
v 0.04262800 -0.02892800 0.00876200
v 0.04084700 -0.03532200 -0.00917200
v 0.04239400 -0.03204300 -0.01618500
v 0.04167900 -0.03010000 -0.01767800
v 0.04253300 -0.02932600 -0.01658700
v 0.04216600 -0.03272000 -0.01384000
v 0.04296300 -0.03057100 -0.01510800
v 0.00911700 -0.04013800 -0.01700000
v -0.00678300 0.03055800 -0.01817300
v -0.02728200 0.01455300 -0.01787700
v -0.00231900 0.01459300 -0.01835800
v 0.00382200 0.03733300 -0.01808000
v 0.00456000 0.04371300 -0.01776400
v -0.01692700 0.02585500 -0.01807900
v -0.01491500 0.00970300 -0.01822300
v 0.01518000 0.04150500 -0.01800500
v 0.02764000 0.02918500 -0.01806500
v 0.02640600 0.02932300 -0.01817800
v 0.02921800 0.02412600 -0.01785700
v 0.00758900 0.02753900 -0.01827700
v 0.03299300 0.00741900 -0.01805300
v 0.03388300 -0.00077600 -0.01832600
v 0.03665900 -0.01044900 -0.01816600
v 0.02960200 0.01913000 -0.01821700
v 0.02898400 0.03021500 -0.01447400
v 0.02447400 0.04027100 -0.01802900
v 0.03581300 -0.00516400 -0.01806200
v 0.01762000 0.04812100 -0.01757200
v 0.03494500 0.00024600 -0.01766700
v 0.02277100 0.01584800 -0.01829500
v 0.02501700 0.04375400 -0.01730100
v 0.02641900 0.04144100 -0.01149300
v 0.02225200 0.04914500 -0.01762300
v 0.02596800 0.04276900 -0.01587100
v 0.02149100 0.05040100 -0.01577800
v 0.02466300 0.04890600 -0.01364100
v 0.02367700 0.05004700 -0.01650500
v 0.02278500 0.05061700 -0.01314100
v -0.02514200 -0.04669400 0.00883800
v -0.02405000 -0.04869400 0.00804600
v -0.01897000 -0.01757400 0.01007700
v -0.02396100 -0.01128700 0.01000300
v -0.02688700 -0.04262500 0.00862900
v -0.02619000 -0.03794200 0.00914700
v -0.03847800 0.00178400 0.00820500
v -0.02407500 -0.02669500 0.00983800
v -0.03195100 -0.01879200 0.00910700
v -0.01837900 -0.03401100 0.00954000
v -0.03395600 -0.01190800 0.00905700
v -0.04097200 0.01499200 0.00903500
v -0.03913600 0.00357300 0.00564300
v -0.01766800 -0.00206300 0.01024400
v -0.02281000 0.00430800 0.01015000
v -0.02849600 -0.02325100 0.00948600
v -0.02640500 -0.04686100 0.00789900
v -0.01123800 -0.03918800 0.00915100
v -0.04193300 0.03564600 0.00721700
v -0.03800700 0.03279800 0.00940900
v -0.03987700 0.03444200 0.00926200
v -0.04086600 0.01469300 -0.01726800
v -0.04507500 0.02975100 0.00889200
v -0.04211600 0.02774600 0.00941600
v -0.04331500 0.03434800 0.00900200
v -0.04215200 0.02484100 -0.01718000
v -0.03926100 0.01688700 -0.01740400
v -0.04356600 0.02460600 -0.01676700
v -0.04436400 0.03066800 -0.01695500
v -0.04532300 0.03045100 -0.01603400
v -0.01039100 0.04267400 0.00803600
v -0.03676100 0.02565700 -0.01736800
v -0.02039400 0.03572200 -0.01768100
v -0.01848100 0.04012800 -0.01699700
v -0.01958800 0.03873800 -0.01745000
v -0.01256700 0.04075500 -0.01747900
v -0.01065000 0.03755500 -0.01786900
v 0.00414000 0.04563200 -0.01690100
v -0.04099600 0.03414600 -0.01699600
v -0.03850700 0.03331100 -0.01718300
v -0.02827600 0.03760600 -0.01713400
v -0.03067800 0.03293300 -0.01747900
v -0.04289200 0.03458700 -0.01644600
v -0.04303600 0.03542500 -0.01309100
v 0.00770400 0.04806400 -0.00037600
v -0.01451100 0.04255900 0.00567900
v -0.03337500 0.03647400 0.00902000
v -0.04377000 0.02239800 0.00144500
v -0.02464000 0.03950300 0.00789700
v -0.02892100 0.02023000 0.00984500
v -0.04421500 0.02430200 0.00658400
v -0.00616000 0.04483700 0.00342600
v 0.00025000 0.04617100 0.00462000
v 0.00474600 0.04559300 0.00853500
v 0.00281200 0.04606300 0.00726400
v -0.04585600 0.03149900 0.00645700
v -0.04589900 0.03265500 0.00331300
v -0.04583200 0.03512400 0.00495500
v -0.00563300 0.04440300 0.00674200
v -0.04442300 0.02633000 -0.01560800
v -0.04500200 0.02835100 -0.01225500
v -0.04586400 0.03421100 0.00881300
v -0.04566100 0.03116600 -0.00972300
v -0.04582600 0.03367400 -0.01252300
v -0.04556700 0.03412800 -0.01625800
v -0.04446700 0.03524800 -0.01073100
v -0.04187800 0.03651500 -0.00585600
v -0.03655800 0.03746900 -0.01053900
v -0.04581800 0.03088200 -0.00092000
v -0.04589500 0.03240600 -0.00501000
v -0.04383400 0.03611100 -0.00157000
v 0.02016600 0.05088900 -0.00488200
v 0.02601000 0.04244900 0.00151100
v 0.02466700 0.04750900 0.00217700
v 0.02833300 0.00684300 0.01111900
v 0.02873400 0.01110500 0.01117100
v 0.01187300 0.03915600 0.00949900
v 0.01324300 0.04818800 -0.01638000
v 0.01774800 0.05044600 -0.00548100
v 0.01658100 0.04707400 0.00897200
v 0.01541800 0.04841300 0.00827800
v 0.02492400 0.04754400 -0.00786200
v 0.02461700 0.04399500 0.00891000
v 0.03317900 0.00247800 0.01014100
v 0.03151200 0.00461000 0.01084300
v 0.01990100 0.05023000 0.00535800
v 0.02575200 0.03926600 0.00893600
v 0.02038300 0.05084800 0.00128000
v 0.02332500 0.05031500 0.00479200
v 0.02681600 0.03796600 0.00727300
v 0.01557200 0.04982900 -0.01122900
v 0.02034800 0.05090500 -0.01059400
v 0.02496200 0.04620300 0.00649400
v 0.02376100 0.04809000 0.00878700
v 0.02291900 0.05030000 0.00765200
f 101 86 85
f 25 57 66
f 66 57 55
f 90 85 92
f 86 101 16
f 89 101 85
f 29 57 25
f 57 29 6
f 6 29 25
f 25 34 6
f 60 6 3
f 55 57 60
f 55 60 121
f 113 124 110
f 51 23 53
f 82 78 71
f 71 78 23
f 173 82 83
f 4 7 3
f 3 6 4
f 4 6 34
f 58 66 55
f 55 121 58
f 44 16 15
f 3 7 21
f 8 7 48
f 15 16 18
f 18 21 7
f 16 21 18
f 174 177 178
f 158 82 173
f 173 177 158
f 158 177 82
f 85 32 31
f 31 32 38
f 31 102 85
f 85 86 28
f 160 159 169
f 169 159 38
f 169 178 160
f 94 159 92
f 38 159 94
f 92 85 94
f 85 102 94
f 94 31 38
f 102 31 94
f 92 159 87
f 87 159 160
f 100 90 92
f 161 104 160
f 134 99 160
f 160 104 134
f 10 153 145
f 57 6 61
f 61 60 57
f 6 60 61
f 123 113 149
f 124 113 123
f 149 113 114
f 144 145 114
f 3 9 2
f 2 60 3
f 2 56 60
f 49 35 50
f 49 50 51
f 51 53 49
f 82 71 80
f 80 83 82
f 80 23 51
f 80 71 23
f 173 83 84
f 151 150 155
f 50 4 33
f 33 4 34
f 22 34 25
f 50 33 22
f 22 33 34
f 64 68 25
f 66 72 64
f 62 72 66
f 66 58 62
f 15 48 27
f 27 44 15
f 42 49 53
f 86 16 43
f 16 44 43
f 43 28 86
f 44 42 43
f 45 28 43
f 43 53 45
f 43 42 53
f 14 48 15
f 14 8 48
f 36 4 50
f 50 35 36
f 36 35 4
f 4 35 39
f 20 18 7
f 15 18 20
f 20 14 15
f 8 14 20
f 142 150 149
f 155 150 142
f 163 151 155
f 30 32 85
f 85 28 30
f 30 28 32
f 38 32 37
f 37 169 38
f 92 87 88
f 160 99 98
f 98 87 160
f 99 88 98
f 98 88 87
f 90 100 93
f 85 90 93
f 93 89 85
f 108 134 104
f 104 105 108
f 99 134 108
f 108 88 99
f 92 88 108
f 108 100 92
f 96 93 108
f 108 93 100
f 104 161 164
f 164 105 104
f 160 178 164
f 164 161 160
f 178 165 164
f 165 138 164
f 165 115 146
f 146 115 133
f 103 142 146
f 146 108 105
f 132 153 10
f 1 132 10
f 10 12 1
f 1 12 9
f 1 9 3
f 3 21 1
f 60 56 126
f 149 125 127
f 127 123 149
f 125 123 127
f 124 123 119
f 119 123 125
f 125 120 119
f 149 114 148
f 148 142 149
f 147 145 153
f 147 114 145
f 147 148 114
f 13 12 10
f 13 114 12
f 144 114 13
f 10 145 13
f 13 145 144
f 112 114 113
f 9 12 112
f 12 114 112
f 111 2 110
f 56 2 111
f 48 7 46
f 46 49 48
f 7 49 46
f 166 78 82
f 166 157 78
f 82 177 166
f 177 157 166
f 176 84 81
f 81 84 83
f 81 162 149
f 83 80 77
f 77 80 51
f 51 50 73
f 72 77 63
f 63 77 65
f 149 150 128
f 128 81 149
f 152 81 128
f 128 151 152
f 150 151 128
f 25 68 26
f 26 22 25
f 68 22 26
f 25 66 76
f 76 64 25
f 66 64 76
f 72 62 79
f 79 77 72
f 83 77 79
f 79 122 162
f 79 81 83
f 162 81 79
f 59 58 121
f 59 62 58
f 59 79 62
f 120 79 59
f 121 119 59
f 59 119 120
f 41 27 48
f 44 27 41
f 48 42 41
f 41 42 44
f 48 49 52
f 52 42 48
f 49 42 52
f 7 4 5
f 5 39 7
f 4 39 5
f 35 49 54
f 54 49 7
f 7 39 54
f 7 8 19
f 19 20 7
f 8 20 19
f 155 142 136
f 136 163 155
f 179 165 178
f 179 177 173
f 178 177 179
f 137 170 172
f 172 136 137
f 170 179 172
f 172 179 173
f 173 84 172
f 172 84 176
f 32 28 47
f 47 37 32
f 47 28 45
f 47 174 178
f 169 37 47
f 177 174 47
f 47 157 177
f 78 157 47
f 23 78 47
f 45 53 47
f 47 53 23
f 95 96 89
f 89 93 95
f 95 93 96
f 135 1 97
f 132 1 135
f 153 132 135
f 103 146 143
f 143 146 133
f 143 170 137
f 143 179 170
f 131 138 165
f 165 146 131
f 105 164 131
f 131 164 138
f 96 108 107
f 108 146 107
f 89 96 107
f 107 135 91
f 101 89 107
f 107 91 101
f 97 1 17
f 17 135 97
f 17 16 101
f 91 135 17
f 101 91 17
f 17 21 16
f 116 126 56
f 116 111 110
f 56 111 116
f 110 124 116
f 124 126 116
f 124 119 117
f 117 119 121
f 117 126 124
f 117 121 60
f 60 126 117
f 154 147 153
f 148 147 154
f 142 148 154
f 141 146 154
f 154 146 142
f 106 112 113
f 106 113 110
f 110 2 106
f 106 2 9
f 9 112 106
f 149 162 118
f 162 122 118
f 118 125 149
f 24 73 50
f 50 22 24
f 24 22 68
f 51 73 75
f 75 77 51
f 70 64 72
f 72 63 70
f 68 64 70
f 175 81 152
f 152 151 175
f 176 81 175
f 175 163 176
f 151 163 175
f 74 120 125
f 74 79 120
f 125 118 74
f 122 79 74
f 74 118 122
f 40 39 35
f 35 54 40
f 40 54 39
f 163 136 129
f 129 172 163
f 136 172 129
f 176 163 156
f 156 172 176
f 163 172 156
f 169 47 168
f 133 115 139
f 139 143 133
f 139 115 165
f 165 179 139
f 179 143 139
f 103 143 130
f 130 142 103
f 130 143 137
f 130 136 142
f 137 136 130
f 109 146 105
f 105 131 109
f 109 131 146
f 140 146 141
f 140 107 146
f 141 154 140
f 140 154 153
f 153 135 140
f 135 107 140
f 11 1 21
f 21 17 11
f 11 17 1
f 69 24 68
f 73 24 69
f 67 70 63
f 67 63 65
f 68 70 67
f 67 75 73
f 67 69 68
f 73 69 67
f 65 77 67
f 77 75 67
f 178 169 167
f 169 168 167
f 171 168 47
f 171 167 168
f 171 47 178
f 178 167 171

