# https://github.com/mikedh/trimesh
v -0.01338932 -0.00399808 -0.00774881
v -0.01237218 -0.00498619 -0.00774881
v -0.00542708 -0.00739954 0.00481403
v -0.00644422 -0.00625802 0.00481403
v -0.00700265 -0.00561138 0.00481403
v -0.00750432 -0.00492680 0.00481403
v -0.00754881 -0.00486577 0.00481403
v -0.00828520 -0.00302153 0.00481403
v -0.01338932 -0.00100408 -0.00574805
v -0.01338932 0.00512251 -0.00774881
v -0.01101292 -0.00629432 -0.00774881
v -0.01015380 -0.00706632 -0.00774881
v -0.00542401 -0.00740449 0.00480543
v -0.00535190 -0.00746058 0.00481403
v -0.00765773 -0.00118058 0.00481403
v -0.01338932 0.00286092 -0.00584888
v -0.01338932 0.00200643 -0.00541971
v -0.01338932 0.00037828 -0.00523279
v -0.01338932 0.00377644 -0.00650802
v -0.00457869 0.00362138 0.00481403
v -0.00451272 0.00370881 0.00481403
v -0.00369962 0.00467877 0.00481403
v -0.00273771 0.00485197 0.00481403
v -0.00418288 0.00657744 -0.00774881
v -0.00965980 -0.00738470 -0.00774881
v -0.00274998 -0.00933121 0.00481403
v -0.00291874 -0.00922069 0.00481403
v -0.00436851 -0.00823094 0.00481403
v -0.00548691 0.00227861 0.00481403
v -0.00477966 0.00332445 0.00481403
v -0.00104554 0.00501693 0.00481403
v -0.00195683 0.00632836 -0.00441995
v -0.00176199 0.00632836 -0.00441995
v -0.00263645 0.00653291 -0.00774881
v -0.00855368 -0.00783668 -0.00774881
v -0.00114833 -0.00996796 0.00481403
v 0.00067424 0.00486847 0.00481403
v 0.00067118 0.00487012 0.00481035
v -0.00103787 0.00501858 0.00480543
v -0.00170216 0.00635640 -0.00535823
v 0.00065583 0.00524457 0.00311210
v 0.00065583 0.00543428 0.00141754
v 0.00065583 0.00559099 -0.00027701
v 0.00065583 0.00573285 -0.00197034
v -0.00176506 0.00634320 -0.00671461
v 0.00131705 0.00537159 -0.00774881
v -0.00374104 -0.00962154 -0.00774881
v -0.00103940 -0.01001084 0.00481403
v 0.00228357 0.00491631 0.00314899
v 0.00150882 0.00460288 0.00481403
v 0.00177116 0.00472495 0.00424959
v 0.00228357 0.00492950 0.00308873
v 0.00228357 0.00508127 0.00138926
v 0.00228357 0.00507302 0.00037597
v 0.00199668 0.00505322 -0.00774881
v -0.00276686 -0.00995641 -0.00774881
v -0.00199058 -0.01018405 -0.00774881
v -0.00103787 -0.01027478 -0.00774881
v -0.00103787 -0.01001084 0.00480543
v 0.00065583 -0.00960504 0.00481403
v 0.00228357 0.00489816 0.00320679
v 0.00225902 0.00426637 0.00481403
v 0.00228357 0.00428121 0.00475378
v 0.00228357 0.00477939 -0.00774881
v -0.00042267 -0.01007023 -0.00774881
v 0.00065583 -0.00962649 0.00311210
v 0.00177730 -0.00913986 -0.00197034
v 0.00175889 -0.00911347 -0.00027701
v 0.00228203 -0.00861199 0.00481403
v 0.00228357 0.00425482 0.00481403
v 0.00228357 -0.00807258 -0.00774881
v 0.00061441 -0.00971227 -0.00774881
v 0.00169292 -0.00910357 -0.00366367
v 0.00228357 -0.00870272 -0.00197034
v 0.00228357 -0.00876375 -0.00027701
v 0.00228357 -0.00860704 0.00480543
v 0.00228357 -0.00855261 0.00481403
f 1 2 3
f 1 3 4
f 1 4 5
f 1 5 6
f 1 6 7
f 1 7 8
f 1 8 9
f 1 9 18
f 1 18 17
f 1 17 16
f 1 16 19
f 1 19 10
f 1 10 24
f 1 24 34
f 1 34 46
f 1 46 55
f 1 55 64
f 1 64 71
f 1 71 72
f 1 72 65
f 1 65 58
f 1 58 57
f 1 57 56
f 1 56 47
f 1 47 35
f 1 35 25
f 1 25 12
f 1 12 11
f 1 11 2
f 2 11 3
f 3 12 13
f 3 13 14
f 3 14 28
f 3 28 27
f 3 27 26
f 3 26 36
f 3 36 48
f 3 48 60
f 3 60 69
f 3 69 77
f 3 77 70
f 3 70 62
f 3 62 50
f 3 50 37
f 3 37 31
f 3 31 23
f 3 23 22
f 3 22 21
f 3 21 20
f 3 20 30
f 3 30 29
f 3 29 15
f 3 15 8
f 3 8 7
f 3 7 6
f 3 6 5
f 3 5 4
f 3 11 12
f 8 15 16
f 8 16 17
f 8 17 18
f 8 18 9
f 10 19 20
f 10 20 21
f 10 21 22
f 10 22 23
f 10 23 24
f 12 25 26
f 12 26 27
f 12 27 28
f 12 28 14
f 12 14 13
f 15 29 19
f 15 19 16
f 19 29 30
f 19 30 20
f 23 31 32
f 23 32 24
f 24 32 33
f 24 33 34
f 25 35 26
f 26 35 36
f 31 37 38
f 31 38 39
f 31 39 32
f 32 39 33
f 33 40 34
f 33 39 41
f 33 41 42
f 33 42 43
f 33 43 44
f 33 44 40
f 34 40 45
f 34 45 46
f 35 47 48
f 35 48 36
f 37 49 38
f 37 50 51
f 37 51 49
f 38 49 52
f 38 52 41
f 38 41 39
f 40 44 45
f 41 52 42
f 42 52 43
f 43 52 53
f 43 53 44
f 44 53 54
f 44 54 46
f 44 46 45
f 46 54 55
f 47 56 48
f 48 56 57
f 48 57 58
f 48 58 59
f 48 59 60
f 49 61 63
f 49 63 70
f 49 70 77
f 49 77 76
f 49 76 75
f 49 75 74
f 49 74 71
f 49 71 64
f 49 64 54
f 49 54 53
f 49 53 52
f 49 51 61
f 50 62 63
f 50 63 51
f 51 63 61
f 54 64 55
f 58 65 66
f 58 66 60
f 58 60 59
f 60 66 67
f 60 67 68
f 60 68 69
f 62 70 63
f 65 72 66
f 66 72 67
f 67 72 73
f 67 73 74
f 67 74 75
f 67 75 68
f 68 75 69
f 69 75 76
f 69 76 77
f 71 74 73
f 71 73 72

