# https://github.com/mikedh/trimesh
v 0.04973093 0.07501357 -0.00307759
v 0.04923954 0.07655919 -0.00307759
v 0.04853931 0.07884324 -0.00196765
v 0.04840769 0.07884324 -0.00080986
v 0.04833925 0.07884324 -0.00024054
v 0.04666325 0.07884324 0.00480444
v 0.04609465 0.07884324 0.00602681
v 0.04428879 0.07884324 0.00768933
v 0.04352012 0.07884324 0.00826583
v 0.04312350 0.07884324 0.00856246
v 0.04230919 0.07884324 0.00912700
v 0.04178622 0.07884324 0.00938295
v 0.04134396 0.07884324 0.00959107
v 0.03962586 0.07884324 0.01025608
v 0.04496445 0.07501357 -0.00307759
v 0.04972566 0.07501357 -0.00310390
v 0.04960457 0.07501357 -0.00365409
v 0.04913951 0.07654115 -0.00349860
v 0.04901666 0.07711950 -0.00307759
v 0.04746352 0.08134375 -0.00196765
v 0.04746878 0.08136404 -0.00061849
v 0.04581210 0.07951966 0.00595026
v 0.04648074 0.08338316 -0.00027642
v 0.04563660 0.08434480 0.00074262
v 0.04372896 0.08218251 0.00699562
v 0.04257595 0.08338316 0.00773239
v 0.04393956 0.08105289 0.00741185
v 0.04411154 0.07999654 0.00754820
v 0.04287956 0.07995032 0.00847873
v 0.04222847 0.07935394 0.00907915
v 0.04201436 0.08048356 0.00896433
v 0.04139661 0.07995032 0.00935425
v 0.04091400 0.08168985 0.00924182
v 0.03962586 0.07999654 0.01013169
v 0.03847285 0.07884324 0.01013169
v 0.03788493 0.07884324 0.00997381
v 0.03185489 0.07501357 -0.01268673
v 0.04916934 0.07501357 -0.00528073
v 0.04901666 0.07593350 -0.00475686
v 0.04731259 0.08098975 -0.00302496
v 0.04708971 0.08219153 -0.00196765
v 0.04652637 0.08338316 -0.00196765
v 0.04395359 0.08435157 0.00415378
v 0.04227761 0.08435720 0.00749318
v 0.04584018 0.08456013 -0.00027642
v 0.04420982 0.08457141 0.00311082
v 0.04310244 0.08164701 0.00789745
v 0.04065075 0.08272252 0.00912221
v 0.04176165 0.08168985 0.00883516
v 0.03952056 0.08184430 0.00946189
v 0.03826927 0.08138208 0.00947625
v 0.03779543 0.07989057 0.00966761
v 0.03756904 0.07884324 0.00973938
v 0.03180399 0.07501357 -0.01274175
v 0.03745146 0.07884324 0.00965087
v 0.04892364 0.07501357 -0.00619691
v 0.04871480 0.07501357 -0.00693129
v 0.04814269 0.07501357 -0.00873734
v 0.04856388 0.07654115 -0.00533575
v 0.04755829 0.08001571 -0.00362060
v 0.04769166 0.07841822 -0.00545057
v 0.04738454 0.07946217 -0.00494823
v 0.04712832 0.08059292 -0.00415404
v 0.04566995 0.08422079 -0.00307759
v 0.04563133 0.08435495 -0.00299387
v 0.04583491 0.08456915 -0.00196765
v 0.04720203 0.07905857 -0.00607731
v 0.04253208 0.08456239 0.00649806
v 0.04131764 0.08488594 0.00649806
v 0.04131764 0.08443612 0.00764149
v 0.04470472 0.08522866 -0.00027642
v 0.04475912 0.08474502 0.00135261
v 0.04389217 0.08595243 -0.00412534
v 0.04470472 0.08534366 -0.00196765
v 0.04001546 0.08272252 0.00912221
v 0.03745146 0.07958956 0.00940687
v 0.03888526 0.08251170 0.00896194
v 0.03805692 0.08184430 0.00831368
v 0.03745146 0.07926375 0.00955518
v 0.03195843 0.07585346 -0.01291159
v 0.03180399 0.07501357 -0.01330150
v 0.04809881 0.07501357 -0.00884499
v 0.04732663 0.07590983 -0.00972050
v 0.04747756 0.07652763 -0.00860338
v 0.04798298 0.07660767 -0.00705329
v 0.04726345 0.07749040 -0.00794316
v 0.04569452 0.08279129 -0.00483101
v 0.04537862 0.08391979 -0.00412534
v 0.04399747 0.08448122 -0.00651746
v 0.04364647 0.08560971 -0.00572806
v 0.04389217 0.08595243 -0.00459898
v 0.04301118 0.08520612 0.00311082
v 0.04031029 0.08437750 0.00759365
v 0.04131764 0.08525910 0.00480444
v 0.04380442 0.08591410 -0.00307759
v 0.04379740 0.08591072 -0.00299387
v 0.04301118 0.08552854 0.00141720
v 0.04305330 0.08619594 -0.00524246
v 0.04314455 0.08611140 -0.00360146
v 0.04370966 0.08593891 -0.00307759
v 0.03862904 0.08268870 0.00783286
v 0.03842371 0.08289839 0.00649806
v 0.03819732 0.08316558 0.00480444
v 0.03700921 0.08437186 -0.00604621
v 0.03371339 0.07911156 -0.01149545
v 0.03366776 0.07920062 -0.01262453
v 0.03195843 0.07585346 -0.01308143
v 0.03342909 0.07830098 -0.01324409
v 0.03282187 0.07649380 -0.01346178
v 0.03284820 0.07501357 -0.01390432
v 0.04747580 0.07501357 -0.01020610
v 0.04555412 0.07915214 -0.00959611
v 0.04700021 0.07703832 -0.00907224
v 0.04550498 0.08076090 -0.00779485
v 0.04614905 0.08011604 -0.00716094
v 0.04524173 0.08174058 -0.00716094
v 0.04512766 0.08336625 -0.00538120
v 0.04433617 0.08343051 -0.00707004
v 0.04372720 0.08402914 -0.00764654
v 0.04336744 0.08505730 -0.00707004
v 0.04225304 0.08602120 -0.00799100
v 0.04249697 0.08618242 -0.00705329
v 0.04009794 0.08455224 0.00649806
v 0.03925205 0.08374617 0.00649806
v 0.04233376 0.08596032 -0.00084096
v 0.04131764 0.08549923 0.00311082
v 0.04031731 0.08595131 -0.00088402
v 0.03874487 0.08594567 -0.00269007
v 0.04351485 0.08585209 -0.00196765
v 0.04294274 0.08576078 -0.00027642
v 0.04131589 0.08653077 -0.00535728
v 0.04131589 0.08647215 -0.00705329
v 0.04299188 0.08608546 -0.00307759
v 0.04266896 0.08603023 -0.00196765
v 0.03899056 0.08401336 0.00480444
v 0.03865888 0.08435157 0.00265153
v 0.03847461 0.08454435 0.00141720
v 0.03827103 0.08480026 -0.00027642
v 0.03692848 0.08448911 -0.00705329
v 0.03504365 0.08152075 -0.01044053
v 0.03547713 0.08236740 -0.01044053
v 0.03616683 0.08338203 -0.00874452
v 0.03366776 0.07920062 -0.01301684
v 0.03601239 0.08338203 -0.01044053
v 0.03518931 0.08119944 -0.01312209
v 0.03454349 0.07830098 -0.01364118
v 0.03454349 0.07660767 -0.01402392
v 0.03454349 0.07501357 -0.01417702
v 0.04688965 0.07501357 -0.01093091
v 0.04196522 0.08397277 -0.00944302
v 0.04616660 0.07501357 -0.01152416
v 0.04568047 0.07592223 -0.01137824
v 0.03956443 0.08324900 -0.01166529
v 0.04008742 0.08372475 -0.01099789
v 0.03895897 0.08438314 -0.01142130
v 0.04131589 0.08611703 -0.00827088
v 0.04131764 0.08571230 0.00141720
v 0.03965394 0.08612717 -0.00307759
v 0.03970132 0.08600880 -0.00206333
v 0.03962586 0.08619482 -0.00366366
v 0.03909411 0.08604488 -0.00307759
v 0.03870275 0.08596934 -0.00307759
v 0.03962586 0.08632559 -0.00535728
v 0.03997159 0.08608321 -0.00830437
v 0.03949424 0.08619257 -0.00713941
v 0.03684249 0.08454548 -0.00874452
v 0.03864132 0.08600542 -0.00366366
v 0.03686004 0.08442823 -0.01171314
v 0.03677405 0.08454210 -0.01044053
v 0.03629669 0.08173269 -0.01316037
v 0.03690040 0.08275521 -0.01301923
v 0.03623703 0.07660767 -0.01398326
v 0.03623703 0.07999541 -0.01349527
v 0.03623703 0.07830098 -0.01374165
v 0.03623703 0.07501357 -0.01413635
v 0.04607008 0.07501357 -0.01159114
v 0.04338148 0.07660767 -0.01263410
v 0.04218810 0.07748702 -0.01300010
v 0.04063145 0.07935619 -0.01307904
v 0.03958725 0.08170563 -0.01247622
v 0.03840265 0.08228285 -0.01287571
v 0.03787616 0.08334483 -0.01257669
v 0.03793232 0.08449362 -0.01170596
v 0.03856937 0.08603811 -0.00535728
v 0.03884139 0.08590283 -0.00776136
v 0.03865010 0.08598626 -0.00663228
v 0.03727421 0.08275521 -0.01301923
v 0.03793232 0.07660767 -0.01391149
v 0.03962586 0.07501357 -0.01399761
v 0.03783053 0.07501357 -0.01407177
v 0.03793232 0.07999541 -0.01342589
v 0.04451343 0.07501357 -0.01258387
v 0.04376055 0.07551637 -0.01291159
v 0.04253383 0.07660767 -0.01319625
v 0.04131589 0.07660767 -0.01360769
v 0.03899758 0.08115435 -0.01307664
v 0.03962586 0.07830098 -0.01355507
v 0.03962586 0.07660767 -0.01383734
v 0.04121586 0.07501357 -0.01391149
v 0.04387462 0.07501357 -0.01297617
v 0.04320773 0.07501357 -0.01331586
v 0.04309541 0.07501357 -0.01336848
v 0.04131589 0.07501357 -0.01389714
v 0.04303751 0.07501357 -0.01338762
f 1 2 3
f 1 3 4
f 1 4 5
f 1 5 6
f 1 6 7
f 1 7 8
f 1 8 9
f 1 9 10
f 1 10 11
f 1 11 12
f 1 12 13
f 1 13 14
f 1 14 15
f 1 15 37
f 1 37 54
f 1 54 81
f 1 81 110
f 1 110 148
f 1 148 175
f 1 175 190
f 1 190 189
f 1 189 199
f 1 199 203
f 1 203 204
f 1 204 202
f 1 202 201
f 1 201 200
f 1 200 192
f 1 192 176
f 1 176 151
f 1 151 149
f 1 149 111
f 1 111 82
f 1 82 58
f 1 58 57
f 1 57 56
f 1 56 38
f 1 38 17
f 1 17 16
f 1 16 2
f 2 16 17
f 2 17 18
f 2 18 19
f 2 19 3
f 3 20 21
f 3 21 4
f 3 19 20
f 4 21 5
f 5 21 6
f 6 22 7
f 6 21 23
f 6 23 24
f 6 24 22
f 7 22 25
f 7 25 26
f 7 26 27
f 7 27 28
f 7 28 8
f 8 28 9
f 9 28 10
f 10 28 29
f 10 29 30
f 10 30 11
f 11 30 12
f 12 30 13
f 13 30 31
f 13 31 32
f 13 32 33
f 13 33 34
f 13 34 14
f 14 34 35
f 14 35 15
f 15 35 36
f 15 36 37
f 17 38 39
f 17 39 18
f 18 39 19
f 19 40 41
f 19 41 20
f 19 39 40
f 20 41 21
f 21 41 42
f 21 42 23
f 22 24 43
f 22 43 44
f 22 44 25
f 23 45 24
f 23 42 45
f 24 45 46
f 24 46 43
f 25 44 26
f 26 47 27
f 26 44 48
f 26 48 49
f 26 49 47
f 27 47 28
f 28 47 29
f 29 31 30
f 29 47 31
f 31 47 49
f 31 49 33
f 31 33 32
f 33 49 48
f 33 48 34
f 34 48 50
f 34 50 51
f 34 51 35
f 35 51 36
f 36 52 53
f 36 53 37
f 36 51 52
f 37 53 55
f 37 55 54
f 38 56 39
f 39 56 57
f 39 57 58
f 39 58 59
f 39 59 40
f 40 42 41
f 40 59 60
f 40 60 61
f 40 61 62
f 40 62 63
f 40 63 42
f 42 64 65
f 42 65 66
f 42 66 45
f 42 63 67
f 42 67 64
f 43 46 68
f 43 68 44
f 44 68 69
f 44 69 70
f 44 70 48
f 45 71 72
f 45 72 46
f 45 66 73
f 45 73 74
f 45 74 71
f 46 72 71
f 46 71 68
f 48 75 50
f 48 70 75
f 50 75 51
f 51 76 52
f 51 75 77
f 51 77 78
f 51 78 76
f 52 76 79
f 52 79 53
f 53 79 55
f 54 55 79
f 54 79 76
f 54 76 80
f 54 80 107
f 54 107 81
f 58 82 83
f 58 83 84
f 58 84 67
f 58 67 85
f 58 85 59
f 59 61 60
f 59 85 61
f 61 85 67
f 61 67 62
f 62 67 63
f 64 67 86
f 64 86 87
f 64 87 88
f 64 88 65
f 65 88 89
f 65 89 90
f 65 90 91
f 65 91 66
f 66 91 73
f 67 84 86
f 68 71 92
f 68 92 69
f 69 93 70
f 69 92 94
f 69 94 93
f 70 93 75
f 71 74 73
f 71 73 95
f 71 95 96
f 71 96 97
f 71 97 92
f 73 91 98
f 73 98 99
f 73 99 100
f 73 100 95
f 75 93 77
f 76 78 80
f 77 93 101
f 77 101 78
f 78 101 102
f 78 102 103
f 78 103 104
f 78 104 80
f 80 104 105
f 80 105 106
f 80 106 143
f 80 143 107
f 81 107 108
f 81 108 109
f 81 109 110
f 82 111 83
f 83 111 112
f 83 112 113
f 83 113 86
f 83 86 84
f 86 113 114
f 86 114 115
f 86 115 87
f 87 115 116
f 87 116 117
f 87 117 88
f 88 117 89
f 89 116 114
f 89 114 118
f 89 118 119
f 89 119 120
f 89 120 90
f 89 117 116
f 90 120 121
f 90 121 91
f 91 121 122
f 91 122 98
f 92 97 94
f 93 94 123
f 93 123 124
f 93 124 101
f 94 97 125
f 94 125 126
f 94 126 127
f 94 127 128
f 94 128 123
f 95 100 96
f 96 129 97
f 96 100 129
f 97 129 130
f 97 130 125
f 98 131 99
f 98 122 132
f 98 132 131
f 99 131 133
f 99 133 100
f 100 133 134
f 100 134 129
f 101 124 135
f 101 135 136
f 101 136 102
f 102 136 137
f 102 137 103
f 103 137 138
f 103 138 104
f 104 139 105
f 104 138 139
f 105 140 141
f 105 141 106
f 105 139 142
f 105 142 140
f 106 141 144
f 106 144 143
f 107 143 108
f 108 143 145
f 108 145 110
f 108 110 109
f 110 145 146
f 110 146 147
f 110 147 148
f 111 149 112
f 112 150 121
f 112 121 119
f 112 119 113
f 112 149 151
f 112 151 152
f 112 152 153
f 112 153 154
f 112 154 150
f 113 119 114
f 114 119 118
f 114 116 115
f 119 121 120
f 121 150 154
f 121 154 155
f 121 155 156
f 121 156 132
f 121 132 122
f 123 137 136
f 123 136 135
f 123 135 124
f 123 128 137
f 125 157 126
f 125 130 129
f 125 129 134
f 125 134 131
f 125 131 157
f 126 157 127
f 127 158 159
f 127 159 128
f 127 157 131
f 127 131 160
f 127 160 158
f 128 138 137
f 128 159 158
f 128 158 161
f 128 161 162
f 128 162 139
f 128 139 138
f 131 163 160
f 131 134 133
f 131 132 163
f 132 156 164
f 132 164 165
f 132 165 163
f 139 166 144
f 139 144 142
f 139 162 167
f 139 167 166
f 140 142 141
f 141 142 144
f 143 144 168
f 143 168 145
f 144 169 168
f 144 166 169
f 145 170 147
f 145 147 146
f 145 168 171
f 145 171 170
f 147 172 175
f 147 175 148
f 147 170 171
f 147 171 173
f 147 173 174
f 147 174 172
f 151 176 177
f 151 177 152
f 152 177 178
f 152 178 179
f 152 179 153
f 153 180 155
f 153 155 154
f 153 179 180
f 155 180 181
f 155 181 182
f 155 182 183
f 155 183 156
f 156 183 164
f 158 160 161
f 160 163 167
f 160 167 161
f 161 167 162
f 163 184 167
f 163 165 184
f 164 185 165
f 164 183 168
f 164 168 185
f 165 186 184
f 165 185 186
f 166 167 184
f 166 184 169
f 168 169 186
f 168 186 185
f 168 183 171
f 169 184 186
f 171 183 182
f 171 182 187
f 171 187 173
f 172 188 189
f 172 189 190
f 172 190 175
f 172 174 188
f 173 191 174
f 173 187 191
f 174 191 188
f 176 192 193
f 176 193 177
f 177 193 178
f 178 193 194
f 178 194 179
f 179 194 195
f 179 195 196
f 179 196 181
f 179 181 180
f 181 187 182
f 181 196 187
f 187 196 197
f 187 197 191
f 188 198 189
f 188 191 198
f 189 198 199
f 191 197 198
f 192 200 193
f 193 200 201
f 193 201 194
f 194 201 202
f 194 202 195
f 195 203 197
f 195 197 196
f 195 202 204
f 195 204 203
f 197 203 199
f 197 199 198

