# https://github.com/mikedh/trimesh
v -0.03697071 -0.02335486 0.00141674
v -0.03658022 -0.02335486 0.00310921
v -0.03675427 -0.02165618 0.00141674
v -0.03667840 -0.02165618 -0.00027416
v -0.03688369 -0.02335486 -0.00027416
v -0.03695956 -0.02504697 0.00141674
v -0.03679443 -0.02674237 0.00310921
v -0.03676766 -0.02504697 0.00310921
v -0.03652890 -0.02674237 0.00480483
v -0.03632807 -0.02504697 0.00480483
v -0.03613617 -0.01996407 0.00311078
v -0.03648873 -0.02092676 0.00214523
v -0.03412792 -0.01033710 0.00574997
v -0.03315279 -0.00363109 0.00480483
v -0.03661815 -0.02092676 0.00141831
v -0.03317957 -0.00363109 -0.00196978
v -0.03303676 -0.00363109 -0.00249573
v -0.03576353 -0.01744726 -0.00102934
v -0.03585725 -0.01857752 -0.00136689
v -0.03597328 -0.01996407 -0.00167461
v -0.03603576 -0.02092676 -0.00192425
v -0.03638163 -0.02335486 -0.00196978
v -0.03598444 -0.02504697 -0.00352566
v -0.03610716 -0.02504697 -0.00310647
v -0.03643964 -0.02504697 -0.00196978
v -0.03681898 -0.02504697 -0.00027416
v -0.03677212 -0.02674237 0.00141674
v -0.03663824 -0.02843448 0.00310921
v -0.03652443 -0.02843448 0.00480483
v -0.03603130 -0.02674237 0.00608125
v -0.03592196 -0.02504697 0.00598548
v -0.03606031 -0.02843448 0.00609224
v -0.03582601 -0.02378528 0.00582219
v -0.03489775 -0.01827196 0.00649887
v -0.03521460 -0.01657656 0.00480483
v -0.03467684 -0.01657656 0.00649887
v -0.03413461 -0.01542330 0.00742361
v -0.03275114 -0.00363109 0.00623354
v -0.03292519 -0.00363109 0.00567618
v -0.03323536 -0.00363109 -0.00027416
v -0.03643295 -0.01996407 0.00141831
v -0.03322197 -0.00363109 -0.00088333
v -0.03268420 -0.00363109 -0.00344245
v -0.03540874 -0.02092676 -0.00362457
v -0.03595320 -0.02311172 -0.00310647
v -0.03607815 -0.02158718 -0.00209381
v -0.03539535 -0.02504697 -0.00535786
v -0.03571890 -0.02504697 -0.00437190
v -0.03598667 -0.02335486 -0.00310647
v -0.03543774 -0.02674237 -0.00535786
v -0.03571890 -0.02674237 -0.00432166
v -0.03632361 -0.02674237 -0.00196978
v -0.03577022 -0.03102686 -0.00283485
v -0.03662708 -0.02674237 -0.00027416
v -0.03641287 -0.02843448 -0.00027416
v -0.03616964 -0.03012659 -0.00027416
v -0.03652666 -0.02843448 0.00141674
v -0.03575906 -0.03262040 -0.00092101
v -0.03577915 -0.03271897 0.00020469
v -0.03633476 -0.03012659 0.00310921
v -0.03610939 -0.03029088 0.00496654
v -0.03595543 -0.02983746 0.00593994
v -0.03484196 -0.02374914 0.00783966
v -0.03550022 -0.02504697 0.00683171
v -0.03471924 -0.02191575 0.00783966
v -0.03552923 -0.02327272 0.00643136
v -0.03531725 -0.02165618 0.00649887
v -0.03460543 -0.03182199 0.00783966
v -0.03473262 -0.03014959 0.00783966
v -0.03546229 -0.02843448 0.00694004
v -0.03484642 -0.02544125 0.00783966
v -0.03423502 -0.01657656 0.00756020
v -0.03131636 -0.00363109 0.00818506
v -0.03217098 -0.00363109 0.00707977
v -0.03226024 -0.00363109 -0.00429026
v -0.03429304 -0.02165618 -0.00662486
v -0.03515213 -0.02335486 -0.00535786
v -0.03561849 -0.02335486 -0.00411127
v -0.03593088 -0.02335486 -0.00326504
v -0.03454742 -0.02490898 -0.00721205
v -0.03482411 -0.02674237 -0.00705191
v -0.03477279 -0.02843448 -0.00705191
v -0.03531948 -0.02843448 -0.00535786
v -0.03587287 -0.02843448 -0.00322108
v -0.03558725 -0.03012659 -0.00381611
v -0.03567873 -0.03129300 -0.00310647
v -0.03532394 -0.03351410 -0.00366382
v -0.03545783 -0.03309683 -0.00310647
v -0.03572559 -0.03224584 -0.00196978
v -0.03554485 -0.03351410 -0.00196978
v -0.03520345 -0.03520950 -0.00196978
v -0.03577915 -0.03271897 0.00102895
v -0.03595989 -0.03164785 0.00310921
v -0.03576130 -0.03265326 0.00215779
v -0.03588179 -0.03131600 0.00450809
v -0.03576130 -0.03096444 0.00563693
v -0.03428188 -0.03351410 0.00781140
v -0.03427073 -0.03351410 0.00783966
v -0.03441577 -0.02092676 0.00818506
v -0.03451841 -0.02092676 0.00804219
v -0.03445816 -0.01996407 0.00795113
v -0.03494907 -0.02092676 0.00712373
v -0.03435552 -0.01827196 0.00775017
v -0.03478618 -0.02843448 0.00783966
v -0.03428858 -0.01996407 0.00818506
v -0.03398287 -0.01827196 0.00818506
v -0.01759996 -0.00363109 0.00818506
v -0.03445147 -0.02335486 -0.00690590
v -0.03197016 -0.00363109 -0.00470631
v -0.03403866 -0.02403499 -0.00785418
v -0.03407436 -0.02422228 -0.00785418
v -0.03408552 -0.02428142 -0.00785418
v -0.03423279 -0.02529340 -0.00785418
v -0.03433544 -0.02624295 -0.00785418
v -0.03438676 -0.02674237 -0.00785418
v -0.03440461 -0.02799421 -0.00785418
v -0.03439345 -0.02843448 -0.00785418
v -0.03427965 -0.02980132 -0.00785418
v -0.03459874 -0.03012659 -0.00705191
v -0.03500932 -0.03182199 -0.00535786
v -0.03517667 -0.03012659 -0.00535786
v -0.03554485 -0.03168071 -0.00350368
v -0.03482857 -0.03351410 -0.00535786
v -0.03462552 -0.03520950 -0.00535786
v -0.03509188 -0.03520950 -0.00366382
v -0.03524138 -0.03465423 -0.00310647
v -0.03512981 -0.03520950 -0.00310647
v -0.03487543 -0.03634634 -0.00310647
v -0.03473932 -0.03690490 -0.00310647
v -0.03478841 -0.03690490 -0.00196978
v -0.03517667 -0.03520950 -0.00027416
v -0.03508072 -0.03520950 0.00141674
v -0.03570551 -0.03249555 0.00310921
v -0.03473486 -0.03690490 -0.00027416
v -0.03465452 -0.03719403 -0.00029143
v -0.03456304 -0.03690490 0.00141674
v -0.03446932 -0.03719403 0.00141674
v -0.03482411 -0.03520950 0.00310921
v -0.03424618 -0.03719403 0.00258483
v -0.03559617 -0.03185813 0.00496654
v -0.03310817 -0.03719403 0.00783966
v -0.03411229 -0.03447680 0.00751938
v -0.03392039 -0.03481194 0.00783966
v -0.02595431 -0.02092676 0.00818506
v -0.03439345 -0.02074605 0.00818506
v -0.01737013 -0.00363109 0.00141831
v -0.01621873 -0.00463650 0.00818506
v -0.01709790 -0.00383480 0.00258169
v -0.01801723 -0.00363109 -0.00470631
v -0.03318180 -0.02092676 -0.00785418
v -0.03340717 -0.02165618 -0.00785418
v -0.03424618 -0.03012659 -0.00785418
v -0.03414576 -0.03102686 -0.00785418
v -0.03435329 -0.03174642 -0.00714140
v -0.03417478 -0.03520950 -0.00644431
v -0.03409891 -0.03616234 -0.00627161
v -0.03430419 -0.03679976 -0.00533588
v -0.03429304 -0.03351410 -0.00672063
v -0.03471254 -0.03690490 -0.00366382
v -0.03463444 -0.03719403 -0.00364812
v -0.03471254 -0.03719403 -0.00196978
v -0.03451172 -0.03719403 0.00112001
v -0.03466791 -0.03719403 -0.00056462
v -0.02275449 -0.03719403 0.00783966
v -0.02418258 -0.02092348 0.00818506
v -0.01734335 -0.00363109 0.00019684
v -0.01605584 -0.00477778 0.00818506
v -0.01709344 -0.00382822 0.00141831
v -0.01798153 -0.00363109 -0.00455716
v -0.01698410 -0.00531005 -0.00470631
v -0.02238408 -0.02092676 -0.00785418
v -0.03405428 -0.03171685 -0.00785418
v -0.03357453 -0.03520950 -0.00785418
v -0.03323312 -0.03688518 -0.00785418
v -0.03320412 -0.03699690 -0.00785418
v -0.03365263 -0.03679976 -0.00692160
v -0.03353436 -0.03719403 -0.00694986
v -0.03402304 -0.03719403 -0.00577549
v -0.03426180 -0.03719403 -0.00514905
v -0.03375304 -0.03392481 -0.00785418
v -0.03393155 -0.03351410 -0.00756844
v -0.03457196 -0.03719403 -0.00394485
v -0.01914409 -0.03719403 0.00273555
v -0.01971086 -0.03348453 0.00783966
v -0.01511642 -0.01092852 0.00818506
v -0.01739467 -0.00363109 -0.00115808
v -0.01498700 -0.00603947 0.00818506
v -0.01711798 -0.00385122 0.00035698
v -0.01749286 -0.00363109 -0.00196978
v -0.01688592 -0.00512934 -0.00366382
v -0.01641063 -0.00632204 -0.00470631
v -0.01565195 -0.00773815 -0.00470631
v -0.01543105 -0.00826057 -0.00470631
v -0.01529493 -0.00858585 -0.00470631
v -0.02201143 -0.03069173 -0.00785418
v -0.03315056 -0.03719403 -0.00785418
v -0.03341387 -0.03719403 -0.00723403
v -0.01858847 -0.03719403 0.00141674
v -0.01969971 -0.03346482 0.00783966
v -0.01427295 -0.00972926 0.00818506
v -0.01716930 -0.00392351 -0.00077186
v -0.01723848 -0.00404508 -0.00196978
v -0.01484642 -0.00629246 0.00818506
v -0.01531724 -0.00704488 -0.00027416
v -0.01579923 -0.00620047 -0.00027416
v -0.01616741 -0.00641403 -0.00366382
v -0.01675203 -0.00489278 -0.00196978
v -0.01548237 -0.00735373 -0.00254754
v -0.01529493 -0.00913456 -0.00470631
v -0.01521683 -0.00839528 -0.00366382
v -0.01486873 -0.00810615 -0.00027416
v -0.01469468 -0.00810615 0.00141831
v -0.02201143 -0.03099729 -0.00785418
v -0.02303341 -0.03719403 -0.00785418
v -0.01867996 -0.03719403 0.00034442
v -0.01425733 -0.00964383 0.00818506
v -0.01417477 -0.00819157 0.00818506
v -0.01539534 -0.00717631 -0.00141713
v -0.01583716 -0.00653232 -0.00197606
v -0.01514096 -0.00799443 -0.00197606
v -0.01521683 -0.00922327 -0.00366382
v -0.01883839 -0.03719403 -0.00012501
v -0.02201590 -0.03124371 -0.00785418
f 1 2 3
f 1 3 4
f 1 4 5
f 1 5 6
f 1 6 7
f 1 7 8
f 1 8 2
f 2 8 9
f 2 9 10
f 2 10 11
f 2 11 12
f 2 12 3
f 3 12 13
f 3 13 14
f 3 14 15
f 3 15 4
f 4 15 16
f 4 16 17
f 4 17 18
f 4 18 19
f 4 19 20
f 4 20 21
f 4 21 22
f 4 22 5
f 5 22 23
f 5 23 24
f 5 24 25
f 5 25 26
f 5 26 6
f 6 26 27
f 6 27 28
f 6 28 7
f 7 28 29
f 7 29 9
f 7 9 8
f 9 30 31
f 9 31 10
f 9 29 32
f 9 32 30
f 10 31 33
f 10 33 34
f 10 34 13
f 10 13 35
f 10 35 11
f 11 35 13
f 11 13 12
f 13 34 36
f 13 36 37
f 13 37 38
f 13 38 39
f 13 39 14
f 14 39 38
f 14 38 74
f 14 74 73
f 14 73 107
f 14 107 146
f 14 146 166
f 14 166 186
f 14 186 189
f 14 189 169
f 14 169 149
f 14 149 109
f 14 109 75
f 14 75 43
f 14 43 17
f 14 17 16
f 14 16 42
f 14 42 40
f 14 40 41
f 14 41 15
f 15 41 42
f 15 42 16
f 17 43 44
f 17 44 45
f 17 45 20
f 17 20 19
f 17 19 18
f 20 45 21
f 21 45 46
f 21 46 22
f 22 47 48
f 22 48 23
f 22 46 45
f 22 45 49
f 22 49 47
f 23 48 50
f 23 50 24
f 24 50 25
f 25 50 51
f 25 51 52
f 25 52 26
f 26 52 53
f 26 53 54
f 26 54 27
f 27 54 55
f 27 55 56
f 27 56 57
f 27 57 28
f 28 57 56
f 28 56 58
f 28 58 59
f 28 59 60
f 28 60 29
f 29 60 61
f 29 61 62
f 29 62 32
f 30 63 64
f 30 64 65
f 30 65 31
f 30 32 63
f 31 65 66
f 31 66 67
f 31 67 33
f 32 62 68
f 32 68 69
f 32 69 70
f 32 70 71
f 32 71 63
f 33 67 34
f 34 67 72
f 34 72 36
f 36 72 37
f 37 72 73
f 37 73 74
f 37 74 38
f 40 42 41
f 43 75 76
f 43 76 77
f 43 77 44
f 44 77 78
f 44 78 45
f 45 78 79
f 45 79 49
f 47 80 81
f 47 81 50
f 47 50 48
f 47 49 79
f 47 79 78
f 47 78 77
f 47 77 80
f 50 81 82
f 50 82 83
f 50 83 51
f 51 83 84
f 51 84 52
f 52 84 53
f 53 84 85
f 53 85 86
f 53 86 87
f 53 87 88
f 53 88 89
f 53 89 54
f 54 89 55
f 55 89 90
f 55 90 58
f 55 58 56
f 58 90 59
f 59 90 91
f 59 91 92
f 59 92 60
f 60 93 61
f 60 92 94
f 60 94 93
f 61 93 95
f 61 95 96
f 61 96 62
f 62 96 97
f 62 97 98
f 62 98 68
f 63 71 99
f 63 99 100
f 63 100 65
f 63 65 64
f 65 100 66
f 66 100 101
f 66 101 102
f 66 102 67
f 67 102 103
f 67 103 72
f 68 98 99
f 68 99 69
f 69 104 70
f 69 99 104
f 70 104 71
f 71 104 99
f 72 103 105
f 72 105 106
f 72 106 73
f 73 106 105
f 73 105 145
f 73 145 99
f 73 99 144
f 73 144 165
f 73 165 185
f 73 185 200
f 73 200 216
f 73 216 217
f 73 217 203
f 73 203 187
f 73 187 167
f 73 167 147
f 73 147 107
f 75 108 76
f 75 109 110
f 75 110 111
f 75 111 112
f 75 112 108
f 76 108 77
f 77 108 80
f 80 112 113
f 80 113 114
f 80 114 81
f 80 108 112
f 81 114 115
f 81 115 116
f 81 116 117
f 81 117 82
f 82 117 118
f 82 118 119
f 82 119 120
f 82 120 121
f 82 121 83
f 83 121 122
f 83 122 85
f 83 85 84
f 85 122 86
f 86 122 87
f 87 123 124
f 87 124 125
f 87 125 88
f 87 122 121
f 87 121 120
f 87 120 123
f 88 125 89
f 89 125 126
f 89 126 90
f 90 126 127
f 90 127 91
f 91 128 129
f 91 129 130
f 91 130 92
f 91 127 128
f 92 130 131
f 92 131 94
f 93 94 132
f 93 132 133
f 93 133 95
f 94 131 134
f 94 134 135
f 94 135 132
f 95 133 136
f 95 136 137
f 95 137 138
f 95 138 139
f 95 139 140
f 95 140 96
f 96 140 141
f 96 141 142
f 96 142 143
f 96 143 97
f 97 143 98
f 98 143 99
f 99 145 100
f 99 143 141
f 99 141 164
f 99 164 144
f 100 145 101
f 101 145 105
f 101 105 103
f 101 103 102
f 107 147 148
f 107 148 146
f 109 149 171
f 109 171 150
f 109 150 151
f 109 151 110
f 110 151 150
f 110 150 171
f 110 171 195
f 110 195 213
f 110 213 223
f 110 223 214
f 110 214 196
f 110 196 175
f 110 175 174
f 110 174 173
f 110 173 180
f 110 180 172
f 110 172 153
f 110 153 152
f 110 152 118
f 110 118 117
f 110 117 116
f 110 116 115
f 110 115 114
f 110 114 113
f 110 113 112
f 110 112 111
f 118 152 119
f 119 152 153
f 119 153 154
f 119 154 124
f 119 124 123
f 119 123 120
f 124 155 156
f 124 156 157
f 124 157 125
f 124 154 158
f 124 158 155
f 125 157 159
f 125 159 127
f 125 127 126
f 127 159 128
f 128 159 129
f 129 159 160
f 129 160 161
f 129 161 130
f 130 134 131
f 130 161 134
f 132 135 162
f 132 162 133
f 133 162 136
f 134 161 163
f 134 163 135
f 135 163 161
f 135 161 160
f 135 160 182
f 135 182 179
f 135 179 178
f 135 178 177
f 135 177 197
f 135 197 196
f 135 196 214
f 135 214 222
f 135 222 215
f 135 215 198
f 135 198 183
f 135 183 164
f 135 164 141
f 135 141 139
f 135 139 137
f 135 137 162
f 136 162 137
f 137 139 138
f 139 141 140
f 141 143 142
f 144 164 165
f 146 148 166
f 147 167 168
f 147 168 148
f 148 168 166
f 149 169 170
f 149 170 171
f 153 172 154
f 154 172 158
f 155 173 156
f 155 158 173
f 156 174 175
f 156 175 176
f 156 176 177
f 156 177 178
f 156 178 157
f 156 173 174
f 157 178 179
f 157 179 159
f 158 180 173
f 158 172 181
f 158 181 180
f 159 179 182
f 159 182 160
f 164 183 184
f 164 184 185
f 164 185 165
f 166 168 186
f 167 187 168
f 168 187 188
f 168 188 186
f 169 189 190
f 169 190 170
f 170 190 191
f 170 191 171
f 171 191 192
f 171 192 193
f 171 193 194
f 171 194 195
f 172 180 181
f 175 196 197
f 175 197 177
f 175 177 176
f 183 198 199
f 183 199 184
f 184 199 200
f 184 200 185
f 186 188 187
f 186 187 201
f 186 201 202
f 186 202 189
f 187 203 204
f 187 204 205
f 187 205 201
f 189 202 190
f 190 206 191
f 190 202 207
f 190 207 206
f 191 206 192
f 192 208 193
f 192 206 208
f 193 208 194
f 194 209 213
f 194 213 195
f 194 208 210
f 194 210 211
f 194 211 212
f 194 212 209
f 198 215 216
f 198 216 200
f 198 200 199
f 201 205 202
f 202 205 207
f 203 217 212
f 203 212 204
f 204 212 211
f 204 211 218
f 204 218 207
f 204 207 205
f 206 207 219
f 206 219 218
f 206 218 208
f 207 218 219
f 208 218 220
f 208 220 210
f 209 212 216
f 209 216 221
f 209 221 215
f 209 215 222
f 209 222 214
f 209 214 223
f 209 223 213
f 210 220 211
f 211 220 218
f 212 217 216
f 215 221 216

