# https://github.com/mikedh/trimesh
v 0.01420342 -0.06062226 0.00649982
v 0.01503953 -0.06143203 0.00221129
v 0.01503953 -0.06150915 0.00221129
v 0.01423167 -0.06231892 0.00649982
v 0.01463842 -0.06231892 0.00755145
v 0.01462995 -0.06062226 0.00752223
v 0.02186961 0.01410027 0.01106024
v 0.02186961 0.01410027 -0.00041666
v 0.01564118 -0.06231892 0.00141358
v 0.01487287 -0.06182534 0.00311348
v 0.01576265 -0.06468653 0.00141358
v 0.01459605 -0.06240375 0.00477070
v 0.01564683 -0.06468653 0.00235173
v 0.01548300 -0.06468653 0.00405051
v 0.01535872 -0.06468653 0.00649982
v 0.01488417 -0.06348345 0.00748516
v 0.01584456 -0.06468653 0.00769414
v 0.01590953 -0.06231892 0.00784244
v 0.02186961 0.00580205 0.01076363
v 0.02945954 -0.01997178 0.00852780
v 0.03115153 -0.01997178 0.00821883
v 0.03545917 -0.02111317 0.00736045
v 0.03792512 -0.02335739 0.00679081
v 0.03792512 -0.02166073 0.00682789
v 0.02247127 0.01410027 0.01092430
v 0.01760152 -0.06468653 0.00797614
v 0.03045101 0.01410027 -0.00041666
v 0.02609534 -0.01475840 -0.00041778
v 0.02186961 -0.00882009 -0.00041666
v 0.01986409 -0.04714151 -0.00036498
v 0.01987821 -0.04848341 -0.00036498
v 0.02270572 -0.05553998 -0.00036498
v 0.02424235 -0.06468653 0.00141358
v 0.01691229 -0.06468653 0.00787502
v 0.02186961 0.00537017 0.01074566
v 0.02777038 -0.01827512 0.00888059
v 0.03115153 -0.02166073 0.00813456
v 0.02777038 -0.01997178 0.00880194
v 0.02437793 -0.05215437 0.00778289
v 0.03516823 -0.02335739 0.00730652
v 0.03466543 -0.02167616 0.00748291
v 0.03792794 -0.03012090 0.00645825
v 0.04047864 -0.03610549 0.00566278
v 0.04049558 -0.03520318 0.00567739
v 0.03935441 -0.02166073 0.00614478
v 0.03792512 -0.01997178 0.00670992
v 0.02330455 0.01410027 0.01064678
v 0.02259556 0.01410027 0.01088610
v 0.04050971 -0.03350652 0.00569087
v 0.03941938 -0.02335739 0.00614253
v 0.01862405 -0.06468653 0.00786828
v 0.01929633 -0.06231892 0.00791322
v 0.03046795 0.01410027 -0.00017398
v 0.04121588 -0.01489722 -0.00041778
v 0.04115656 -0.01475840 -0.00041778
v 0.02843418 -0.02634198 -0.00041778
v 0.03217689 -0.05553998 -0.00036498
v 0.02808392 -0.06467882 0.00141358
v 0.02808392 -0.06468653 0.00142032
v 0.02353335 -0.02758362 0.00904125
v 0.02479316 -0.02504634 0.00898620
v 0.02601060 -0.02180726 0.00896598
v 0.02268595 -0.05553998 0.00785143
v 0.02607275 -0.02335739 0.00888508
v 0.02437793 -0.05384332 0.00766829
v 0.02592869 -0.05215437 0.00748291
v 0.03792794 -0.03350652 0.00627848
v 0.03792794 -0.03181757 0.00636949
v 0.02431862 -0.02690496 0.00896598
v 0.04052101 -0.03787156 0.00414938
v 0.04065094 -0.03676102 0.00474935
v 0.04095601 -0.03520318 0.00480665
v 0.04105204 -0.03350652 0.00480665
v 0.03284351 -0.05045771 0.00624702
v 0.03711726 -0.04463507 0.00568413
v 0.04019899 -0.02166073 0.00516056
v 0.03918493 -0.01997178 0.00604142
v 0.04049558 -0.03181757 0.00568301
v 0.04047864 -0.03068389 0.00566616
v 0.04043626 -0.02955021 0.00562796
v 0.04026678 -0.02335739 0.00532123
v 0.02338365 0.01410027 0.01060072
v 0.01929633 -0.06468653 0.00775818
v 0.03049055 0.01410027 0.00141919
v 0.04118198 -0.01657846 0.00141919
v 0.04164241 -0.01646278 -0.00041778
v 0.03038321 0.01410027 0.00278878
v 0.03026740 0.01410027 0.00348537
v 0.03023915 0.01410027 0.00362582
v 0.04116786 -0.01488180 -0.00027397
v 0.04293611 -0.02634198 -0.00041778
v 0.03684609 -0.04748084 -0.00036498
v 0.02811782 -0.06468653 0.00193377
v 0.03733194 -0.04656310 -0.00036498
v 0.02561232 -0.05384332 0.00742336
v 0.03114870 -0.05215437 0.00646162
v 0.02945389 -0.05215437 0.00679418
v 0.04059727 -0.03805665 0.00311573
v 0.04098143 -0.03689984 0.00311573
v 0.04142208 -0.03520318 0.00311573
v 0.03522472 -0.04937030 0.00530887
v 0.03565125 -0.04879190 0.00476845
v 0.03542810 -0.04969421 0.00417860
v 0.03704382 -0.04613893 0.00369210
v 0.04171303 -0.03350652 0.00311573
v 0.04223559 -0.03137798 0.00241465
v 0.04226101 -0.03012090 0.00245060
v 0.04101815 -0.03181757 0.00480665
v 0.03114870 -0.05384332 0.00631219
v 0.03114870 -0.05553998 0.00610321
v 0.03297910 -0.05227776 0.00598412
v 0.03549872 -0.04824434 0.00573919
v 0.03200458 -0.05640374 0.00566166
v 0.04073003 -0.02335739 0.00447521
v 0.04063400 -0.02166073 0.00431454
v 0.04054078 -0.01997178 0.00410894
v 0.04048146 -0.01904633 0.00398984
v 0.04003234 -0.01997178 0.00495496
v 0.03893071 -0.01827512 0.00582570
v 0.02540894 0.01410027 0.00920641
v 0.02519992 0.01410027 0.00936371
v 0.02474797 0.01410027 0.00968167
v 0.04085715 -0.03012090 0.00496282
v 0.04084585 -0.02634198 0.00463924
v 0.04080630 -0.02504634 0.00457857
v 0.02027084 -0.06468653 0.00756156
v 0.04163393 -0.01657846 -0.00027397
v 0.04056056 -0.01554504 0.00241128
v 0.04070744 -0.01657846 0.00265733
v 0.04078653 -0.01839851 0.00317191
v 0.04143621 -0.01827512 0.00141919
v 0.04166218 -0.01657846 -0.00041778
v 0.02938610 0.01410027 0.00473587
v 0.03025045 0.01391518 0.00369098
v 0.03714833 -0.01212086 0.00573581
v 0.03886574 -0.01378668 0.00408647
v 0.04298696 -0.02671987 -0.00036273
v 0.04306040 -0.02843195 -0.00036273
v 0.04280335 -0.03003607 -0.00036273
v 0.04278923 -0.03012090 -0.00036273
v 0.04116504 -0.03689984 -0.00036273
v 0.04068766 -0.03868133 -0.00036273
v 0.04066506 -0.03875846 -0.00036273
v 0.04017075 -0.04009265 -0.00036273
v 0.03938549 -0.04192813 -0.00036498
v 0.03851831 -0.04394099 -0.00036498
v 0.03792230 -0.04531374 -0.00036498
v 0.02818279 -0.06468653 0.00311348
v 0.03729239 -0.04663251 -0.00027510
v 0.02875055 -0.06346802 0.00480665
v 0.02203627 -0.06468653 0.00720315
v 0.04067354 -0.03829573 0.00141919
v 0.03893636 -0.04192813 0.00311573
v 0.03896743 -0.04192813 0.00287979
v 0.03938549 -0.04192813 -0.00036273
v 0.04041932 -0.03932144 0.00023049
v 0.04109159 -0.03689984 0.00141919
v 0.04230903 -0.03167104 0.00141919
v 0.04278640 -0.03012090 -0.00027397
v 0.03676982 -0.04695642 0.00312247
v 0.04254913 -0.03012090 0.00141919
v 0.04262822 -0.02843195 0.00141919
v 0.04304910 -0.02843195 -0.00027397
v 0.04179212 -0.03012090 0.00329662
v 0.04221864 -0.02843195 0.00237195
v 0.02776473 -0.06231892 0.00620995
v 0.02540047 -0.06468653 0.00651892
v 0.02606992 -0.06468653 0.00636949
v 0.03386887 -0.05179190 0.00577851
v 0.03034367 -0.05986647 0.00569312
v 0.04218757 -0.02728285 0.00231128
v 0.04213955 -0.02614917 0.00221690
v 0.04140231 -0.02335739 0.00311348
v 0.04102098 -0.01997178 0.00311348
v 0.03984026 -0.01839851 0.00465610
v 0.04033740 -0.01791265 0.00377525
v 0.03879230 -0.01735738 0.00567739
v 0.03731216 -0.01319285 0.00589760
v 0.04085715 -0.02674301 0.00465610
v 0.04218757 -0.02233168 0.00066193
v 0.04297283 -0.02674301 -0.00027397
v 0.04014532 -0.01657846 0.00350560
v 0.04198702 -0.02335739 0.00173715
v 0.04239095 -0.02504634 0.00120797
v 0.04226101 -0.02335739 0.00089001
v 0.03841662 -0.01488180 0.00517180
v 0.03904370 -0.01488180 0.00432690
v 0.02817149 -0.06468653 0.00355166
v 0.02868275 -0.06332920 0.00572233
v 0.02812346 -0.06468653 0.00480665
v 0.04246156 -0.02671987 0.00155964
v 0.02705856 -0.06468653 0.00607849
v 0.02886636 -0.06231892 0.00582794
v 0.04224689 -0.02634198 0.00200343
v 0.04208023 -0.02504634 0.00205512
v 0.03920470 -0.01670185 0.00485384
v 0.02754441 -0.06468653 0.00590547
v 0.02801613 -0.06468653 0.00508529
f 1 2 3
f 1 3 4
f 1 4 5
f 1 5 6
f 1 6 7
f 1 7 8
f 1 8 2
f 2 9 3
f 2 8 9
f 3 10 4
f 3 9 11
f 3 11 10
f 4 12 11
f 4 11 13
f 4 13 14
f 4 14 15
f 4 15 16
f 4 16 5
f 4 10 12
f 5 16 17
f 5 17 18
f 5 18 7
f 5 7 6
f 7 19 20
f 7 20 21
f 7 21 22
f 7 22 23
f 7 23 24
f 7 24 25
f 7 25 48
f 7 48 47
f 7 47 82
f 7 82 122
f 7 122 121
f 7 121 120
f 7 120 133
f 7 133 89
f 7 89 88
f 7 88 87
f 7 87 84
f 7 84 53
f 7 53 27
f 7 27 8
f 7 18 26
f 7 26 19
f 8 27 55
f 8 55 28
f 8 28 29
f 8 29 30
f 8 30 9
f 9 30 31
f 9 31 11
f 10 11 12
f 11 31 32
f 11 32 57
f 11 57 33
f 11 33 59
f 11 59 93
f 11 93 148
f 11 148 188
f 11 188 190
f 11 190 198
f 11 198 197
f 11 197 192
f 11 192 168
f 11 168 167
f 11 167 151
f 11 151 126
f 11 126 83
f 11 83 51
f 11 51 26
f 11 26 34
f 11 34 17
f 11 17 15
f 11 15 14
f 11 14 13
f 15 17 16
f 17 34 18
f 18 34 26
f 19 35 36
f 19 36 20
f 19 26 35
f 20 37 21
f 20 36 38
f 20 38 39
f 20 39 37
f 21 37 40
f 21 40 41
f 21 41 22
f 22 41 23
f 23 40 42
f 23 42 43
f 23 43 44
f 23 44 24
f 23 41 40
f 24 45 46
f 24 46 47
f 24 47 48
f 24 48 25
f 24 44 49
f 24 49 50
f 24 50 45
f 26 51 52
f 26 52 35
f 27 53 54
f 27 54 55
f 28 55 54
f 28 54 86
f 28 86 132
f 28 132 91
f 28 91 56
f 28 56 29
f 29 56 31
f 29 31 30
f 31 56 32
f 32 56 91
f 32 91 57
f 33 57 58
f 33 58 59
f 35 60 61
f 35 61 62
f 35 62 36
f 35 52 63
f 35 63 60
f 36 62 38
f 37 42 40
f 37 39 42
f 38 62 64
f 38 64 39
f 39 63 65
f 39 65 66
f 39 66 43
f 39 43 67
f 39 67 68
f 39 68 42
f 39 64 62
f 39 62 61
f 39 61 69
f 39 69 60
f 39 60 63
f 42 68 43
f 43 70 71
f 43 71 72
f 43 72 73
f 43 73 44
f 43 68 67
f 43 66 74
f 43 74 75
f 43 75 70
f 44 73 49
f 45 76 77
f 45 77 47
f 45 47 46
f 45 50 78
f 45 78 79
f 45 79 80
f 45 80 81
f 45 81 76
f 47 77 82
f 49 73 78
f 49 78 50
f 51 83 63
f 51 63 52
f 53 84 54
f 54 85 86
f 54 84 87
f 54 87 88
f 54 88 89
f 54 89 90
f 54 90 85
f 57 91 92
f 57 92 58
f 58 92 59
f 59 92 94
f 59 94 93
f 60 69 61
f 63 83 65
f 65 95 96
f 65 96 97
f 65 97 66
f 65 83 95
f 66 97 74
f 70 98 99
f 70 99 100
f 70 100 71
f 70 75 101
f 70 101 102
f 70 102 103
f 70 103 104
f 70 104 98
f 71 100 72
f 72 100 105
f 72 105 106
f 72 106 73
f 73 106 107
f 73 107 108
f 73 108 78
f 74 97 96
f 74 96 109
f 74 109 110
f 74 110 111
f 74 111 112
f 74 112 75
f 75 112 113
f 75 113 101
f 76 81 114
f 76 114 115
f 76 115 116
f 76 116 117
f 76 117 118
f 76 118 77
f 77 118 119
f 77 119 120
f 77 120 121
f 77 121 122
f 77 122 82
f 78 108 79
f 79 108 123
f 79 123 124
f 79 124 81
f 79 81 80
f 81 124 125
f 81 125 114
f 83 126 96
f 83 96 95
f 85 127 86
f 85 90 128
f 85 128 129
f 85 129 130
f 85 130 131
f 85 131 127
f 86 127 132
f 89 133 134
f 89 134 135
f 89 135 136
f 89 136 128
f 89 128 90
f 91 137 138
f 91 138 139
f 91 139 140
f 91 140 141
f 91 141 142
f 91 142 143
f 91 143 144
f 91 144 145
f 91 145 146
f 91 146 147
f 91 147 94
f 91 94 92
f 91 132 137
f 93 94 148
f 94 147 149
f 94 149 150
f 94 150 148
f 96 126 151
f 96 151 109
f 98 152 99
f 98 104 153
f 98 153 154
f 98 154 155
f 98 155 144
f 98 144 156
f 98 156 152
f 99 157 100
f 99 152 143
f 99 143 142
f 99 142 157
f 100 158 106
f 100 106 105
f 100 157 159
f 100 159 158
f 101 113 102
f 102 113 103
f 103 113 150
f 103 150 149
f 103 149 147
f 103 147 160
f 103 160 104
f 104 160 153
f 106 161 162
f 106 162 107
f 106 158 159
f 106 159 163
f 106 163 161
f 107 164 108
f 107 162 165
f 107 165 164
f 108 164 123
f 109 166 110
f 109 151 167
f 109 167 168
f 109 168 166
f 110 169 111
f 110 166 169
f 111 169 112
f 112 169 113
f 113 169 170
f 113 170 150
f 114 125 171
f 114 171 172
f 114 172 115
f 115 172 173
f 115 173 174
f 115 174 116
f 116 174 117
f 117 175 118
f 117 174 130
f 117 130 129
f 117 129 176
f 117 176 175
f 118 175 119
f 119 175 177
f 119 177 135
f 119 135 178
f 119 178 120
f 120 178 135
f 120 135 133
f 123 164 179
f 123 179 124
f 124 179 164
f 124 164 165
f 124 165 171
f 124 171 125
f 127 131 180
f 127 180 181
f 127 181 132
f 128 136 182
f 128 182 129
f 129 182 176
f 130 174 131
f 131 174 183
f 131 183 184
f 131 184 185
f 131 185 180
f 132 181 137
f 133 135 134
f 135 177 186
f 135 186 187
f 135 187 136
f 136 187 182
f 137 181 163
f 137 163 138
f 138 163 159
f 138 159 139
f 139 159 140
f 140 159 141
f 141 157 142
f 141 159 157
f 143 152 156
f 143 156 144
f 144 155 145
f 145 155 146
f 146 160 147
f 146 155 160
f 148 150 188
f 150 189 190
f 150 190 188
f 150 170 189
f 153 160 154
f 154 160 155
f 161 163 162
f 162 163 181
f 162 181 191
f 162 191 171
f 162 171 165
f 166 168 192
f 166 192 169
f 169 192 193
f 169 193 189
f 169 189 170
f 171 191 194
f 171 194 172
f 172 194 195
f 172 195 174
f 172 174 173
f 174 195 183
f 175 176 196
f 175 196 177
f 176 182 196
f 177 196 186
f 180 185 181
f 181 184 191
f 181 185 184
f 182 187 196
f 183 195 184
f 184 195 191
f 186 196 187
f 189 197 198
f 189 198 190
f 189 193 197
f 191 195 194
f 192 197 193

