# https://github.com/mikedh/trimesh
v 0.01147667 -0.08341467 -0.00079974
v 0.01147667 -0.08341245 -0.00028071
v 0.00743174 -0.08261910 -0.00366850
v 0.01082156 -0.08327428 -0.00197320
v 0.01147667 -0.08338571 -0.00197320
v 0.01082156 -0.08326536 -0.00028071
v 0.01147667 -0.08337010 0.00075452
v 0.00743174 -0.08253664 -0.00197320
v 0.00596765 -0.08211991 -0.00366850
v 0.00481941 -0.08185026 -0.00874313
v 0.00483291 -0.08183689 -0.01013379
v 0.00743174 -0.08258344 -0.00535534
v 0.00912710 -0.08293109 -0.00366850
v 0.01147667 -0.08335228 -0.00265583
v 0.01147667 -0.08304029 0.00649768
v 0.00772510 -0.08195946 0.00649768
v 0.00656066 -0.08181015 0.00407461
v 0.00646528 -0.08185026 0.00310989
v 0.00631140 -0.08191935 0.00141459
v 0.00618002 -0.08198620 -0.00028071
v 0.00606753 -0.08205751 -0.00197320
v 0.00485540 -0.08182798 -0.00759224
v 0.00257333 -0.08061567 -0.01552152
v 0.00490220 -0.08180124 -0.01126211
v 0.00404642 -0.08130205 -0.01552152
v 0.00743174 -0.08247870 -0.00705065
v 0.00912710 -0.08274389 -0.00705065
v 0.00912710 -0.08284418 -0.00535534
v 0.01147667 -0.08329656 -0.00366850
v 0.01147667 -0.08247202 0.00781782
v 0.00912710 -0.08207534 0.00763164
v 0.00796986 -0.08189707 0.00745957
v 0.00672264 -0.08176558 0.00520293
v 0.00687922 -0.08166307 0.00649768
v 0.00589476 -0.08145359 0.00470365
v 0.00561760 -0.08144468 0.00310989
v 0.00546372 -0.08149593 0.00141459
v 0.00440457 -0.08054659 0.00480238
v 0.00264622 -0.08057333 -0.01382622
v 0.00228357 -0.08036831 -0.01552152
v 0.00228357 -0.08019226 -0.01618441
v 0.00276680 -0.08045077 -0.01675704
v 0.00743174 -0.08236728 -0.00874313
v 0.00508757 -0.08177227 -0.01213092
v 0.00586686 -0.08162296 -0.01538895
v 0.00651567 -0.08181238 -0.01473734
v 0.00545022 -0.08171433 -0.01382622
v 0.00404642 -0.08068476 -0.01705604
v 0.00743174 -0.08124189 -0.01721401
v 0.01082156 -0.08168758 -0.01757507
v 0.01082156 -0.08278623 -0.01043843
v 0.01147667 -0.08310268 -0.00705065
v 0.01082156 -0.08289766 -0.00874313
v 0.01147667 -0.08299794 -0.00874313
v 0.01082156 -0.08310268 -0.00535534
v 0.01147667 -0.08320074 -0.00534124
v 0.01082156 -0.08231825 0.00780371
v 0.01147667 -0.08095441 0.00843275
v 0.01082156 -0.08095441 0.00836505
v 0.00912710 -0.08095441 0.00809708
v 0.00574088 -0.08056219 0.00761754
v 0.00469523 -0.08029923 0.00749625
v 0.00574088 -0.08116611 0.00649768
v 0.00452425 -0.08045522 0.00649768
v 0.00348400 -0.07985130 0.00310989
v 0.00228357 -0.08026357 -0.01382622
v 0.00355869 -0.07975770 0.00480238
v 0.00228357 -0.07939446 -0.01705322
v 0.00502908 -0.07969308 -0.01802640
v 0.00615932 -0.08027471 -0.01814769
v 0.00629790 -0.08184804 -0.01382622
v 0.01147667 -0.08172993 -0.01774714
v 0.00743174 -0.08171210 -0.01584027
v 0.00743174 -0.08185695 -0.01499403
v 0.01147667 -0.08253442 -0.01317179
v 0.01147667 -0.08269041 -0.01213092
v 0.01147667 -0.08277510 -0.01147649
v 0.01147667 -0.08287983 -0.01043843
v 0.00743174 -0.08048642 -0.01827745
v 0.01147667 -0.08293109 -0.00978401
v 0.01147667 -0.07926075 0.00858508
v 0.00228357 -0.07372069 0.00909846
v 0.00228357 -0.07456975 0.00896306
v 0.00235106 -0.07587120 0.00864149
v 0.00298907 -0.07862562 0.00755548
v 0.00367567 -0.07963959 0.00649768
v 0.00228357 -0.07586896 0.00861893
v 0.00239515 -0.07752028 0.00788834
v 0.00228357 -0.07889081 0.00141459
v 0.00270381 -0.07891087 0.00480238
v 0.00228357 -0.07871030 0.00310989
v 0.00258413 -0.07900447 0.00310989
v 0.00228357 -0.07934543 -0.01707579
v 0.00418500 -0.07918275 -0.01787125
v 0.00235106 -0.07756486 -0.01759482
v 0.00383405 -0.07756486 -0.01793049
v 0.00743174 -0.07417753 -0.01896008
v 0.00565179 -0.07918275 -0.01819565
v 0.01082156 -0.07926075 -0.01924498
v 0.01147667 -0.07926075 -0.01936064
v 0.00912710 -0.08069813 -0.01844952
v 0.01147667 -0.08135108 -0.01821257
v 0.01147667 -0.08188592 -0.01693757
v 0.00979570 -0.08181907 -0.01646085
v 0.01147667 -0.08242299 -0.01382622
v 0.01147667 -0.07756486 0.00866406
v 0.00228357 -0.07248610 0.00917745
v 0.00235106 -0.07371401 0.00909846
v 0.00228357 -0.07746012 0.00786013
v 0.00228357 -0.07824900 0.00649768
v 0.00282259 -0.07879276 0.00649768
v 0.00228357 -0.07848968 0.00480238
v 0.00228357 -0.07756708 -0.01756943
v 0.00228357 -0.07750023 -0.01758353
v 0.00235106 -0.07587120 -0.01771329
v 0.00355959 -0.07587120 -0.01798409
v 0.00574088 -0.07417753 -0.01857363
v 0.00743174 -0.07248610 -0.01900804
v 0.00912710 -0.07587120 -0.01916600
v 0.00228357 -0.07580657 -0.01770201
v 0.01147667 -0.07822004 -0.01943398
v 0.01147667 -0.08093881 -0.01864416
v 0.01082156 -0.08083853 -0.01862159
v 0.01147667 -0.08224471 -0.01486428
v 0.01147667 -0.07587120 0.00866970
v 0.00229977 -0.06361666 0.00938336
v 0.00228357 -0.06361666 0.00938336
v 0.00228357 -0.07417753 -0.01774714
v 0.00912710 -0.07248610 -0.01907856
v 0.00912710 -0.07417753 -0.01921114
v 0.00228357 -0.07411068 -0.01774714
v 0.00574088 -0.07248610 -0.01859338
v 0.00228357 -0.06733603 -0.01729581
v 0.00228357 -0.06564237 -0.01714349
v 0.00743174 -0.07079244 -0.01874006
v 0.01082156 -0.07587120 -0.01937192
v 0.01147667 -0.07652637 -0.01942552
v 0.01147667 -0.07417753 0.00864149
v 0.01147667 -0.07248610 0.00860764
v 0.01147667 -0.07183315 0.00859072
v 0.01147667 -0.07079244 0.00853148
v 0.01147667 -0.07013726 0.00848353
v 0.00381695 -0.06361666 0.00913231
v 0.00228447 -0.06065053 -0.01428319
v 0.00228357 -0.06361666 -0.01662728
v 0.01082156 -0.07417753 -0.01920832
v 0.00912710 -0.07079244 -0.01878519
v 0.01082156 -0.07079244 -0.01868083
v 0.01082156 -0.07248610 -0.01894598
v 0.00228357 -0.07248610 -0.01768508
v 0.00228357 -0.07241924 -0.01768226
v 0.00228357 -0.07072781 -0.01755814
v 0.00228357 -0.06903192 -0.01742839
v 0.00228357 -0.06390637 -0.01673729
v 0.00228357 -0.06378826 -0.01670908
v 0.01147667 -0.07483271 -0.01925063
v 0.01147667 -0.06909878 0.00835941
v 0.00404012 -0.06361666 0.00909000
v 0.01147667 -0.06502730 -0.01322821
v 0.01147667 -0.06498273 -0.01552152
v 0.00228447 -0.06065053 -0.01433678
v 0.00463314 -0.06361666 0.00897153
v 0.00559960 -0.06361666 0.00806887
v 0.00608553 -0.06361666 0.00649768
v 0.01147667 -0.06521004 -0.00953578
v 0.01147667 -0.06507187 -0.01207450
v 0.00228447 -0.06090680 -0.01539459
v 0.01147667 -0.07144762 -0.01872596
v 0.01117521 -0.06812492 -0.01810820
v 0.01147667 -0.06812492 -0.01810820
v 0.01147667 -0.07079244 -0.01862159
v 0.00228447 -0.06361443 -0.01663010
v 0.01147667 -0.06739174 0.00785731
v 0.01147667 -0.06525684 -0.01623801
v 0.01147667 -0.06649366 0.00740598
v 0.01147667 -0.06641120 0.00649768
v 0.01147667 -0.06571591 -0.01695449
f 1 2 3
f 1 3 4
f 1 4 5
f 1 5 14
f 1 14 29
f 1 29 56
f 1 56 52
f 1 52 54
f 1 54 80
f 1 80 78
f 1 78 77
f 1 77 76
f 1 76 75
f 1 75 105
f 1 105 124
f 1 124 103
f 1 103 72
f 1 72 102
f 1 102 122
f 1 122 100
f 1 100 121
f 1 121 137
f 1 137 156
f 1 156 168
f 1 168 171
f 1 171 170
f 1 170 177
f 1 177 174
f 1 174 160
f 1 160 159
f 1 159 166
f 1 166 165
f 1 165 176
f 1 176 175
f 1 175 173
f 1 173 157
f 1 157 142
f 1 142 141
f 1 141 140
f 1 140 139
f 1 139 138
f 1 138 125
f 1 125 106
f 1 106 81
f 1 81 58
f 1 58 30
f 1 30 15
f 1 15 7
f 1 7 2
f 2 6 3
f 2 7 6
f 3 6 8
f 3 8 9
f 3 9 10
f 3 10 11
f 3 11 12
f 3 12 13
f 3 13 4
f 4 13 5
f 5 13 12
f 5 12 14
f 6 7 8
f 7 15 8
f 8 15 16
f 8 16 17
f 8 17 18
f 8 18 19
f 8 19 20
f 8 20 21
f 8 21 9
f 9 21 22
f 9 22 10
f 10 22 23
f 10 23 11
f 11 24 12
f 11 23 25
f 11 25 24
f 12 24 26
f 12 26 27
f 12 27 28
f 12 28 14
f 14 28 29
f 15 30 31
f 15 31 32
f 15 32 16
f 16 33 17
f 16 32 34
f 16 34 33
f 17 35 18
f 17 33 35
f 18 35 19
f 19 35 36
f 19 36 20
f 20 36 37
f 20 37 21
f 21 37 22
f 22 37 38
f 22 38 39
f 22 39 23
f 23 39 40
f 23 40 41
f 23 41 42
f 23 42 25
f 24 43 26
f 24 25 44
f 24 44 43
f 25 45 46
f 25 46 47
f 25 47 44
f 25 42 48
f 25 48 49
f 25 49 50
f 25 50 45
f 26 43 51
f 26 51 27
f 27 52 28
f 27 51 53
f 27 53 54
f 27 54 52
f 28 52 55
f 28 55 29
f 29 55 56
f 30 57 31
f 30 58 59
f 30 59 57
f 31 57 60
f 31 60 61
f 31 61 32
f 32 61 62
f 32 62 63
f 32 63 34
f 33 34 63
f 33 63 35
f 35 63 64
f 35 64 36
f 36 64 38
f 36 38 37
f 38 65 66
f 38 66 39
f 38 64 67
f 38 67 65
f 39 66 40
f 40 66 89
f 40 89 91
f 40 91 112
f 40 112 110
f 40 110 109
f 40 109 87
f 40 87 83
f 40 83 82
f 40 82 107
f 40 107 127
f 40 127 145
f 40 145 155
f 40 155 154
f 40 154 134
f 40 134 133
f 40 133 153
f 40 153 152
f 40 152 151
f 40 151 150
f 40 150 131
f 40 131 128
f 40 128 120
f 40 120 114
f 40 114 113
f 40 113 93
f 40 93 68
f 40 68 41
f 41 68 42
f 42 68 69
f 42 69 70
f 42 70 48
f 43 44 51
f 44 47 71
f 44 71 51
f 45 50 72
f 45 72 73
f 45 73 46
f 46 71 47
f 46 73 74
f 46 74 75
f 46 75 76
f 46 76 77
f 46 77 78
f 46 78 51
f 46 51 71
f 48 70 79
f 48 79 72
f 48 72 49
f 49 72 50
f 51 78 80
f 51 80 53
f 52 56 55
f 53 80 54
f 57 59 60
f 58 81 82
f 58 82 83
f 58 83 59
f 59 83 84
f 59 84 60
f 60 84 61
f 61 84 62
f 62 85 86
f 62 86 64
f 62 64 63
f 62 84 87
f 62 87 88
f 62 88 85
f 64 86 67
f 65 67 89
f 65 89 66
f 67 86 90
f 67 90 91
f 67 91 92
f 67 92 89
f 68 93 69
f 69 94 95
f 69 95 96
f 69 96 97
f 69 97 98
f 69 98 99
f 69 99 70
f 69 93 94
f 70 99 100
f 70 100 79
f 72 79 101
f 72 101 102
f 72 103 104
f 72 104 73
f 73 104 105
f 73 105 74
f 74 105 75
f 79 100 101
f 81 106 107
f 81 107 108
f 81 108 82
f 82 108 107
f 83 87 84
f 85 88 109
f 85 109 110
f 85 110 111
f 85 111 86
f 86 111 90
f 87 109 88
f 89 92 91
f 90 112 91
f 90 111 112
f 93 113 94
f 94 113 95
f 95 113 114
f 95 114 120
f 95 120 115
f 95 115 96
f 96 115 116
f 96 116 97
f 97 117 118
f 97 118 119
f 97 119 99
f 97 99 98
f 97 116 115
f 97 115 120
f 97 120 117
f 99 119 121
f 99 121 100
f 100 122 123
f 100 123 101
f 101 123 122
f 101 122 102
f 103 124 104
f 104 124 105
f 106 125 126
f 106 126 107
f 107 126 127
f 110 112 111
f 117 120 128
f 117 128 118
f 118 129 130
f 118 130 119
f 118 128 131
f 118 131 132
f 118 132 133
f 118 133 134
f 118 134 135
f 118 135 129
f 119 130 121
f 121 136 137
f 121 130 136
f 125 138 126
f 126 138 139
f 126 139 140
f 126 140 141
f 126 141 142
f 126 142 143
f 126 143 144
f 126 144 127
f 127 144 161
f 127 161 145
f 129 146 137
f 129 137 136
f 129 136 130
f 129 135 147
f 129 147 148
f 129 148 149
f 129 149 146
f 131 150 132
f 132 150 151
f 132 151 152
f 132 152 153
f 132 153 133
f 134 154 135
f 135 154 155
f 135 155 147
f 137 146 156
f 142 157 143
f 143 158 144
f 143 157 158
f 144 159 160
f 144 160 161
f 144 158 162
f 144 162 163
f 144 163 164
f 144 164 165
f 144 165 166
f 144 166 159
f 145 161 167
f 145 167 155
f 146 149 168
f 146 168 156
f 147 155 169
f 147 169 170
f 147 170 148
f 148 168 149
f 148 170 171
f 148 171 168
f 155 167 172
f 155 172 170
f 155 170 169
f 157 162 158
f 157 173 162
f 160 174 167
f 160 167 161
f 162 173 175
f 162 175 163
f 163 175 164
f 164 175 176
f 164 176 165
f 167 174 177
f 167 177 170
f 167 170 172

