# https://github.com/mikedh/trimesh
v -0.00950632 -0.00472021 0.01875621
v -0.00950632 -0.00302610 0.01852140
v -0.01127726 -0.00482552 0.01811581
v -0.01119351 -0.00628793 0.01801856
v -0.00950632 -0.00640829 0.01846210
v 0.00404436 -0.01149059 0.01652192
v 0.00404436 -0.00979649 0.01681603
v 0.00747799 0.00036511 0.01720739
v 0.00747799 0.00577239 0.01755605
v 0.00747799 0.00639226 0.01755605
v 0.00743305 0.00639527 0.01755842
v 0.00573768 0.00638022 0.01755842
v -0.00781299 -0.00133200 0.01831268
v -0.00611763 0.00158980 0.01774580
v -0.00778440 0.00037113 0.01781221
v -0.01338932 0.00929601 0.01356421
v -0.01080542 -0.00302610 0.01793318
v -0.01208409 -0.00545743 0.01756317
v -0.01208409 -0.00564399 0.01756317
v -0.01338932 -0.02092701 0.01308510
v -0.00891600 -0.00922176 0.01763907
v -0.00842169 -0.00922176 0.01763907
v 0.00404436 -0.01256784 0.01597639
v 0.00531486 -0.01245049 0.01589812
v 0.00644443 -0.01226392 0.01578902
v 0.00582347 -0.01161397 0.01616140
v 0.00573768 -0.00979649 0.01649583
v -0.00611763 -0.01388882 0.01576530
v -0.01216784 -0.02092701 0.01305426
v -0.01047247 -0.02092701 0.01295702
v -0.00950632 -0.02092701 0.01288586
v 0.00747799 -0.00971826 0.01601434
v 0.00747799 0.00746950 0.01654801
v 0.00486549 0.00630199 0.01752048
v -0.00611763 0.00036511 0.01809921
v -0.00720021 0.00140023 0.01759163
v 0.00747799 0.00800813 0.01560164
v 0.00747799 0.00829399 0.01496835
v 0.00747799 0.00981055 0.01151730
v -0.01338932 0.00929601 0.01054721
v -0.01338932 -0.00472021 0.01531227
v -0.01338932 -0.00640829 0.01547356
v -0.01338932 -0.02092701 0.00891300
v -0.00781299 -0.02092701 0.01271746
v -0.00612784 -0.02092701 0.01254906
v -0.00521684 -0.02092701 0.01244944
v 0.00747799 -0.01163804 0.01568703
v 0.00747799 -0.01327798 0.01471457
v 0.00747799 -0.01157485 0.01570600
v 0.00701227 -0.01113252 0.01596454
v 0.00747799 -0.01075939 0.01588389
v 0.00747799 -0.00983260 0.01600011
v 0.00747799 0.00913051 0.01015111
v 0.00228363 0.00451761 -0.00547470
v -0.01338932 0.00918768 0.01052586
v -0.00950632 -0.02092701 0.00848844
v -0.01338932 -0.00971525 0.00892011
v 0.00228363 -0.00813248 -0.00547470
v -0.00516986 -0.02092701 0.01237828
v 0.00747799 -0.01527299 0.01143428
v 0.00747799 -0.01488181 0.01240912
v 0.00747799 -0.01446054 0.01335549
v 0.00747799 -0.01435522 0.01351440
v 0.00747799 -0.01398511 0.01406705
v 0.00747799 -0.01343445 0.01457225
v 0.00747799 0.00168007 0.00362138
v 0.00623608 -0.00148847 -0.00547470
v 0.00533937 0.00014545 -0.00547470
v 0.00338664 0.00321770 -0.00547470
v 0.00280449 0.00400607 -0.00547470
v 0.00275547 0.00406626 -0.00547470
v 0.00269623 0.00412343 -0.00547470
v -0.01338932 0.00763199 0.01036932
v -0.01338932 0.00883261 0.01048791
v -0.01338932 -0.00863800 0.00899364
v -0.00776193 -0.02092701 0.00849792
v 0.00243070 -0.00798504 -0.00547470
v 0.00747799 -0.01447558 0.00853350
v -0.00652002 -0.02092701 0.00875883
v -0.00481648 -0.02092701 0.01156711
v -0.00491453 -0.02092701 0.01025310
v 0.00747799 -0.01518873 0.01002777
v 0.00747799 0.00036210 0.00329169
v 0.00747799 -0.00299902 0.00248289
v 0.00623608 -0.00149148 -0.00547470
v 0.00267377 -0.00773829 -0.00547470
v 0.00747799 -0.01450868 0.00858805
v 0.00316195 -0.00722074 -0.00547470
v 0.00380537 -0.00639023 -0.00547470
v 0.00464489 -0.00520466 -0.00547470
v 0.00522294 -0.00435912 -0.00547470
v 0.00528218 -0.00426885 -0.00547470
v 0.00615029 -0.00286061 -0.00547470
v -0.00573566 -0.02092701 0.00942769
v -0.00533939 -0.02092701 0.00980007
v 0.00747799 -0.01514961 0.00993053
v 0.00660375 -0.00224977 -0.00304117
f 1 2 3
f 1 3 4
f 1 4 5
f 1 5 6
f 1 6 7
f 1 7 8
f 1 8 9
f 1 9 10
f 1 10 11
f 1 11 12
f 1 12 2
f 2 13 14
f 2 14 15
f 2 15 16
f 2 16 17
f 2 17 3
f 2 12 13
f 3 18 19
f 3 19 4
f 3 17 16
f 3 16 18
f 4 19 20
f 4 20 5
f 5 20 21
f 5 21 22
f 5 22 6
f 6 23 24
f 6 24 25
f 6 25 26
f 6 26 27
f 6 27 7
f 6 22 28
f 6 28 20
f 6 20 29
f 6 29 30
f 6 30 31
f 6 31 23
f 7 27 8
f 8 27 32
f 8 32 52
f 8 52 51
f 8 51 49
f 8 49 47
f 8 47 48
f 8 48 65
f 8 65 64
f 8 64 63
f 8 63 62
f 8 62 61
f 8 61 60
f 8 60 82
f 8 82 96
f 8 96 87
f 8 87 78
f 8 78 84
f 8 84 83
f 8 83 66
f 8 66 53
f 8 53 39
f 8 39 38
f 8 38 37
f 8 37 33
f 8 33 10
f 8 10 9
f 10 33 11
f 11 33 12
f 12 33 16
f 12 16 34
f 12 34 35
f 12 35 13
f 13 35 14
f 14 36 15
f 14 35 34
f 14 34 16
f 14 16 36
f 15 36 16
f 16 33 37
f 16 37 38
f 16 38 39
f 16 39 40
f 16 40 55
f 16 55 74
f 16 74 73
f 16 73 75
f 16 75 57
f 16 57 43
f 16 43 20
f 16 20 42
f 16 42 41
f 16 41 18
f 18 41 42
f 18 42 19
f 19 42 20
f 20 43 56
f 20 56 76
f 20 76 79
f 20 79 94
f 20 94 95
f 20 95 81
f 20 81 80
f 20 80 59
f 20 59 46
f 20 46 45
f 20 45 44
f 20 44 31
f 20 31 30
f 20 30 29
f 20 28 22
f 20 22 21
f 23 31 44
f 23 44 45
f 23 45 46
f 23 46 24
f 24 46 25
f 25 47 26
f 25 46 48
f 25 48 47
f 26 47 49
f 26 49 50
f 26 50 27
f 27 50 51
f 27 51 52
f 27 52 32
f 39 53 54
f 39 54 40
f 40 54 55
f 43 57 54
f 43 54 58
f 43 58 56
f 46 59 60
f 46 60 61
f 46 61 62
f 46 62 63
f 46 63 64
f 46 64 65
f 46 65 48
f 49 51 50
f 53 66 67
f 53 67 68
f 53 68 69
f 53 69 70
f 53 70 71
f 53 71 72
f 53 72 54
f 54 73 74
f 54 74 55
f 54 72 71
f 54 71 70
f 54 70 69
f 54 69 68
f 54 68 67
f 54 67 85
f 54 85 93
f 54 93 92
f 54 92 91
f 54 91 90
f 54 90 89
f 54 89 88
f 54 88 86
f 54 86 77
f 54 77 58
f 54 57 75
f 54 75 73
f 56 58 76
f 58 77 78
f 58 78 79
f 58 79 76
f 59 80 60
f 60 80 81
f 60 81 82
f 66 83 67
f 67 83 84
f 67 84 85
f 77 86 78
f 78 87 79
f 78 86 88
f 78 88 89
f 78 89 90
f 78 90 91
f 78 91 92
f 78 92 93
f 78 93 84
f 79 87 94
f 81 95 96
f 81 96 82
f 84 93 97
f 84 97 85
f 85 97 93
f 87 96 95
f 87 95 94

