# https://github.com/mikedh/trimesh
v -0.03498934 -0.02092510 -0.00470694
v -0.03469381 -0.02092510 -0.00541654
v -0.03423046 -0.02528927 -0.00785652
v -0.03433626 -0.02623583 -0.00785652
v -0.03438369 -0.02673641 -0.00785652
v -0.03440558 -0.02799241 -0.00785652
v -0.03439099 -0.02843384 -0.00785652
v -0.03427788 -0.02980361 -0.00785652
v -0.03424505 -0.03012217 -0.00785652
v -0.03412465 -0.03120070 -0.00785652
v -0.03375250 -0.03392204 -0.00785652
v -0.03357373 -0.03520536 -0.00785652
v -0.03322712 -0.03688458 -0.00785652
v -0.03320158 -0.03699380 -0.00785652
v -0.03314685 -0.03718948 -0.00785652
v -0.02452549 -0.02092510 -0.00470694
v -0.03196474 -0.00363225 -0.00470694
v -0.03436180 -0.02092510 -0.00616839
v -0.03421586 -0.02092510 -0.00649081
v -0.03408087 -0.02427900 -0.00785652
v -0.03405897 -0.02424715 -0.00788750
v -0.03416478 -0.02537573 -0.00799450
v -0.03425599 -0.02673641 -0.00809728
v -0.03425964 -0.02843384 -0.00813670
v -0.03416113 -0.03012217 -0.00804519
v -0.03409181 -0.03112788 -0.00794804
v -0.03319064 -0.03520536 -0.00874775
v -0.03248648 -0.03647046 -0.00981639
v -0.03277471 -0.03698470 -0.00886321
v -0.03262877 -0.03718948 -0.00908003
v -0.02302596 -0.03718948 -0.00785652
v 0.00228357 -0.00807378 -0.00775093
v -0.01529482 -0.00913866 -0.00470694
v -0.01801294 -0.00363225 -0.00470694
v -0.00418519 0.00657509 -0.00775093
v -0.01339032 0.00929189 -0.00941653
v -0.01339032 0.00929189 -0.01203532
v -0.03153787 -0.00363225 -0.00536163
v -0.03406992 -0.02421529 -0.00785652
v -0.03081182 -0.00363225 -0.00638521
v -0.03058927 -0.00363225 -0.00669074
v -0.02988876 -0.00363225 -0.00764955
v -0.02934513 -0.00363225 -0.00837887
v -0.02910798 -0.00363225 -0.00868158
v -0.02865557 -0.00363225 -0.00922505
v -0.02835275 -0.00363225 -0.00950945
v -0.02780912 -0.00363225 -0.00996000
v -0.03226392 -0.02504353 -0.00950242
v -0.03309213 -0.02667270 -0.00906173
v -0.03265796 -0.03012217 -0.00982484
v -0.03272728 -0.03181960 -0.00992762
v -0.03270174 -0.03351703 -0.00999238
v -0.03260323 -0.03520536 -0.00996563
v -0.03340590 -0.03351703 -0.00874775
v -0.03164733 -0.03718948 -0.01052600
v -0.03239162 -0.03718948 -0.00961787
v -0.01459432 -0.03718948 -0.01005011
v 0.00228357 0.00477754 -0.00775093
v -0.01290142 -0.03718948 -0.01053444
v -0.01195281 -0.03718948 -0.01098499
v -0.01175580 -0.03718948 -0.01107932
v -0.01090570 -0.03718948 -0.01200012
v 0.00228357 -0.01279746 -0.01077520
v -0.01529482 -0.00858801 -0.00470694
v -0.01698042 -0.00531147 -0.00470694
v 0.00199534 0.00505059 -0.00775093
v 0.00131672 0.00536914 -0.00775093
v -0.00263824 0.00652958 -0.00775093
v 0.00228357 0.00799037 -0.01107369
v -0.01320424 0.00929189 -0.00946722
v -0.01131433 0.00929189 -0.01200293
v 0.00228357 0.00824066 -0.01542425
v 0.00228357 0.00816785 -0.01561292
v -0.00568837 0.00809504 -0.01479490
v -0.00273674 0.00662970 -0.01661960
v -0.00384953 0.00642491 -0.01645065
v -0.00442234 0.00552841 -0.01682798
v -0.00782273 0.00384009 -0.01684347
v -0.00950833 0.00334861 -0.01664354
v -0.01067949 0.00306191 -0.01646754
v -0.01123041 0.00213811 -0.01683080
v -0.01181052 0.00275701 -0.01629014
v -0.01230307 0.00162842 -0.01660412
v -0.01256941 0.00036331 -0.01685473
v -0.01120487 0.00036331 -0.01757419
v -0.01120487 -0.00132957 -0.01784170
v -0.01196011 -0.00573924 -0.01805571
v -0.02902772 -0.02054284 -0.01131304
v -0.03141382 -0.02504353 -0.01018246
v -0.03235148 -0.02605835 -0.00957563
v -0.03253391 -0.02843384 -0.00972065
v -0.03168381 -0.02667270 -0.01017682
v -0.03152693 -0.02843384 -0.01050769
v -0.03064764 -0.02951236 -0.01127784
v -0.03137369 -0.03009486 -0.01078928
v -0.03157436 -0.03181960 -0.01077520
v -0.03161449 -0.03351703 -0.01083856
v -0.03166192 -0.03520536 -0.01081181
v -0.03080088 -0.03718948 -0.01134120
v 0.00228357 0.00736237 -0.01023033
v -0.01640761 -0.00632629 -0.00470694
v -0.01565602 -0.00774157 -0.00470694
v -0.01027816 -0.03718948 -0.01284771
v 0.00228357 -0.01365300 -0.01217189
v 0.00228357 0.00840449 -0.01214936
v -0.01250373 0.00929189 -0.00973191
v -0.01116109 0.00929189 -0.01196633
v 0.00228357 0.00860927 -0.01382341
v 0.00228357 0.00736692 -0.01665058
v 0.00187129 0.00784475 -0.01603249
v 0.00228357 0.00719854 -0.01684347
v -0.00104020 0.00677532 -0.01686459
v -0.00273674 0.00544650 -0.01731372
v -0.00950833 0.00205619 -0.01734751
v -0.00781543 0.00205619 -0.01767275
v -0.00950833 0.00036331 -0.01788676
v -0.01020154 -0.00241265 -0.01805290
v -0.01113555 -0.00299969 -0.01797687
v -0.01168647 -0.00471988 -0.01802474
v -0.00958860 -0.00121125 -0.01802896
v -0.01131798 -0.00634449 -0.01814019
v -0.01120487 -0.00810563 -0.01823171
v -0.01208781 -0.00686328 -0.01808246
v -0.02911893 -0.02165322 -0.01136091
v -0.02906055 -0.02092510 -0.01132993
v -0.01052626 -0.00354578 -0.01807965
v -0.03070237 -0.03064095 -0.01130037
v -0.01215713 -0.00810563 -0.01811062
v -0.03081547 -0.03520536 -0.01133697
v -0.03081182 -0.03690279 -0.01134401
v -0.03064764 -0.03718948 -0.01138484
v -0.01215348 -0.00922057 -0.01810781
v -0.01027816 -0.03718948 -0.01307157
v 0.00228357 -0.01387599 -0.01390367
v 0.00228357 -0.01367120 -0.01223947
v 0.00228357 0.00860927 -0.01378258
v -0.01109177 0.00929189 -0.01041899
v -0.01135811 0.00929189 -0.01026834
v -0.01109177 0.00929189 -0.01044433
v 0.00228357 0.00529178 -0.01780932
v 0.00076215 0.00529178 -0.01785578
v 0.00065270 0.00685268 -0.01697722
v -0.00104020 0.00544650 -0.01764037
v -0.00442964 0.00375362 -0.01766149
v -0.00263094 0.00361710 -0.01792477
v -0.00602403 0.00192422 -0.01792900
v -0.00442964 0.00235654 -0.01799658
v -0.00652752 0.00095036 -0.01803741
v -0.00793948 0.00037697 -0.01800784
v -0.00858526 -0.00056959 -0.01805994
v -0.00950833 -0.00471988 -0.01822185
v -0.00907416 -0.00169818 -0.01809373
v -0.00781543 -0.00471988 -0.01835561
v -0.00442964 -0.00979851 -0.01888359
v -0.00612254 -0.00810563 -0.01866535
v -0.00612254 -0.00979851 -0.01874983
v -0.00781543 -0.00810563 -0.01852597
v -0.00781543 -0.00979851 -0.01860341
v -0.00950833 -0.00979851 -0.01844290
v -0.03072791 -0.03181960 -0.01131163
v -0.02983768 -0.03718948 -0.01158055
v -0.01126325 -0.00978941 -0.01820777
v -0.02615636 -0.03718948 -0.01234929
v -0.02644459 -0.03718948 -0.01229579
v -0.02784926 -0.03718948 -0.01200434
v -0.02954580 -0.03718948 -0.01164672
v -0.01101880 -0.03718948 -0.01337005
v 0.00228357 -0.01162336 -0.01848091
v 0.00228357 -0.01169163 -0.01844149
v 0.00228357 -0.01260178 -0.01740524
v 0.00228357 -0.01262453 -0.01736723
v 0.00228357 -0.01338451 -0.01559039
v 0.00228357 -0.01386689 -0.01396984
v 0.00228357 0.00525082 -0.01782481
v 0.00173265 0.00462737 -0.01807120
v 0.00140064 0.00462737 -0.01807120
v 0.00026961 0.00436797 -0.01803459
v -0.00104020 0.00404487 -0.01799517
v 0.00076215 0.00378093 -0.01814019
v 0.00228357 0.00205619 -0.01844994
v -0.00539649 0.00126891 -0.01807120
v 0.00228357 0.00036331 -0.01865691
v -0.00104020 0.00036331 -0.01844712
v -0.00745423 -0.00018278 -0.01809654
v 0.00228357 -0.00126586 -0.01880615
v 0.00228357 -0.00132957 -0.01881178
v 0.00065270 -0.00132957 -0.01870618
v -0.00273674 -0.00132957 -0.01848654
v -0.00442964 -0.00810563 -0.01878644
v -0.00781543 -0.00302700 -0.01825846
v -0.00273674 -0.00979851 -0.01899904
v -0.00273674 -0.01149139 -0.01908352
v -0.00442964 -0.01149139 -0.01893709
v -0.01073422 -0.01079968 -0.01816553
v -0.02475169 -0.03718948 -0.01258583
v -0.01120852 -0.03718948 -0.01343341
v 0.00228357 -0.00979851 -0.01903846
v 0.00228357 0.00459096 -0.01806275
v 0.00228357 0.00392200 -0.01817680
v 0.00228357 -0.00302700 -0.01891456
v 0.00065270 -0.00641276 -0.01901453
v -0.00104020 -0.00979851 -0.01908774
v 0.00065270 -0.00979851 -0.01908915
v -0.00104020 -0.01149139 -0.01904972
v -0.01290142 -0.03718948 -0.01369811
v -0.01459432 -0.03718948 -0.01368262
v -0.01629086 -0.03718948 -0.01358125
v -0.01798011 -0.03718948 -0.01339258
v -0.02074201 -0.03718948 -0.01307016
v -0.02283989 -0.03718948 -0.01282518
v -0.02445981 -0.03718948 -0.01262525
v -0.01260954 -0.03718948 -0.01368121
v 0.00228357 -0.00810563 -0.01907788
v 0.00228357 -0.00471988 -0.01900889
v 0.00065270 -0.00810563 -0.01908915
v 0.00228357 -0.00641276 -0.01907366
f 1 2 3
f 1 3 4
f 1 4 5
f 1 5 6
f 1 6 7
f 1 7 8
f 1 8 9
f 1 9 10
f 1 10 11
f 1 11 12
f 1 12 13
f 1 13 14
f 1 14 15
f 1 15 31
f 1 31 16
f 1 16 33
f 1 33 64
f 1 64 102
f 1 102 101
f 1 101 65
f 1 65 34
f 1 34 17
f 1 17 2
f 2 18 3
f 2 17 18
f 3 18 19
f 3 19 20
f 3 20 21
f 3 21 22
f 3 22 4
f 4 23 5
f 4 22 23
f 5 23 6
f 6 23 24
f 6 24 7
f 7 24 8
f 8 24 25
f 8 25 9
f 9 25 10
f 10 26 27
f 10 27 11
f 10 25 26
f 11 27 12
f 12 28 13
f 12 27 28
f 13 28 29
f 13 29 14
f 14 29 30
f 14 30 15
f 15 30 56
f 15 56 55
f 15 55 99
f 15 99 131
f 15 131 161
f 15 161 166
f 15 166 165
f 15 165 164
f 15 164 163
f 15 163 195
f 15 195 211
f 15 211 210
f 15 210 209
f 15 209 208
f 15 208 207
f 15 207 206
f 15 206 205
f 15 205 212
f 15 212 196
f 15 196 167
f 15 167 133
f 15 133 103
f 15 103 62
f 15 62 61
f 15 61 60
f 15 60 59
f 15 59 57
f 15 57 31
f 16 31 32
f 16 32 33
f 17 34 35
f 17 35 36
f 17 36 37
f 17 37 38
f 17 38 21
f 17 21 19
f 17 19 18
f 19 21 39
f 19 39 20
f 20 39 21
f 21 38 40
f 21 40 41
f 21 41 42
f 21 42 43
f 21 43 44
f 21 44 45
f 21 45 22
f 22 45 46
f 22 46 47
f 22 47 48
f 22 48 49
f 22 49 23
f 23 49 50
f 23 50 51
f 23 51 24
f 24 51 52
f 24 52 53
f 24 53 25
f 25 53 26
f 26 53 54
f 26 54 27
f 27 54 53
f 27 53 28
f 28 53 55
f 28 55 56
f 28 56 30
f 28 30 29
f 31 57 32
f 32 58 64
f 32 64 33
f 32 57 59
f 32 59 60
f 32 60 61
f 32 61 62
f 32 62 63
f 32 63 104
f 32 104 135
f 32 135 134
f 32 134 173
f 32 173 172
f 32 172 171
f 32 171 170
f 32 170 169
f 32 169 168
f 32 168 197
f 32 197 213
f 32 213 216
f 32 216 214
f 32 214 200
f 32 200 186
f 32 186 185
f 32 185 182
f 32 182 180
f 32 180 199
f 32 199 198
f 32 198 174
f 32 174 140
f 32 140 111
f 32 111 109
f 32 109 73
f 32 73 72
f 32 72 108
f 32 108 136
f 32 136 105
f 32 105 69
f 32 69 100
f 32 100 58
f 34 65 58
f 34 58 66
f 34 66 67
f 34 67 68
f 34 68 35
f 35 68 36
f 36 68 69
f 36 69 70
f 36 70 106
f 36 106 138
f 36 138 137
f 36 137 139
f 36 139 107
f 36 107 71
f 36 71 37
f 37 71 72
f 37 72 73
f 37 73 74
f 37 74 75
f 37 75 76
f 37 76 77
f 37 77 78
f 37 78 79
f 37 79 80
f 37 80 81
f 37 81 82
f 37 82 83
f 37 83 47
f 37 47 46
f 37 46 45
f 37 45 44
f 37 44 43
f 37 43 42
f 37 42 41
f 37 41 40
f 37 40 38
f 47 83 84
f 47 84 85
f 47 85 86
f 47 86 87
f 47 87 88
f 47 88 89
f 47 89 48
f 48 89 90
f 48 90 49
f 49 90 91
f 49 91 50
f 50 91 92
f 50 92 93
f 50 93 94
f 50 94 95
f 50 95 51
f 51 96 97
f 51 97 52
f 51 95 96
f 52 97 98
f 52 98 53
f 53 98 99
f 53 99 55
f 58 100 66
f 58 65 101
f 58 101 102
f 58 102 64
f 62 103 63
f 63 103 104
f 66 100 67
f 67 100 68
f 68 100 69
f 69 105 70
f 70 105 106
f 71 107 108
f 71 108 72
f 73 109 110
f 73 110 74
f 74 110 109
f 74 109 111
f 74 111 112
f 74 112 75
f 75 112 113
f 75 113 77
f 75 77 76
f 77 113 78
f 78 114 81
f 78 81 79
f 78 113 114
f 79 81 80
f 81 114 85
f 81 85 83
f 81 83 82
f 83 85 84
f 85 114 115
f 85 115 116
f 85 116 86
f 86 117 118
f 86 118 119
f 86 119 87
f 86 116 120
f 86 120 117
f 87 121 122
f 87 122 123
f 87 123 94
f 87 94 124
f 87 124 125
f 87 125 88
f 87 119 117
f 87 117 126
f 87 126 121
f 88 125 94
f 88 94 89
f 89 94 93
f 89 93 92
f 89 92 90
f 90 92 91
f 94 127 97
f 94 97 96
f 94 96 95
f 94 125 124
f 94 123 128
f 94 128 127
f 97 129 130
f 97 130 98
f 97 127 129
f 98 130 99
f 99 130 132
f 99 132 131
f 103 133 134
f 103 134 135
f 103 135 104
f 105 136 137
f 105 137 138
f 105 138 106
f 107 139 108
f 108 139 137
f 108 137 136
f 111 140 141
f 111 141 142
f 111 142 112
f 112 142 143
f 112 143 113
f 113 143 144
f 113 144 114
f 114 144 115
f 115 144 145
f 115 145 146
f 115 146 116
f 116 146 147
f 116 147 148
f 116 148 149
f 116 149 150
f 116 150 120
f 117 151 126
f 117 119 118
f 117 120 152
f 117 152 153
f 117 153 154
f 117 154 155
f 117 155 156
f 117 156 151
f 120 150 152
f 121 126 122
f 122 128 123
f 122 126 157
f 122 157 158
f 122 158 159
f 122 159 128
f 126 151 157
f 127 160 129
f 127 128 160
f 128 159 132
f 128 132 130
f 128 130 129
f 128 129 160
f 131 132 161
f 132 159 162
f 132 162 163
f 132 163 164
f 132 164 165
f 132 165 166
f 132 166 161
f 133 167 168
f 133 168 169
f 133 169 170
f 133 170 171
f 133 171 172
f 133 172 173
f 133 173 134
f 140 174 141
f 141 143 142
f 141 174 175
f 141 175 176
f 141 176 177
f 141 177 178
f 141 178 143
f 143 178 145
f 143 145 144
f 145 178 146
f 146 178 147
f 147 178 179
f 147 179 180
f 147 180 181
f 147 181 148
f 148 181 182
f 148 182 183
f 148 183 149
f 149 183 184
f 149 184 150
f 150 184 185
f 150 185 186
f 150 186 187
f 150 187 188
f 150 188 189
f 150 189 190
f 150 190 152
f 151 156 157
f 152 190 153
f 153 190 189
f 153 189 154
f 154 191 192
f 154 192 156
f 154 156 155
f 154 189 191
f 156 192 193
f 156 193 158
f 156 158 157
f 158 193 159
f 159 193 162
f 162 193 194
f 162 194 195
f 162 195 163
f 167 196 168
f 168 196 197
f 174 198 175
f 175 198 199
f 175 199 176
f 176 199 180
f 176 180 179
f 176 179 178
f 176 178 177
f 180 182 181
f 182 185 184
f 182 184 183
f 186 200 201
f 186 201 187
f 187 201 188
f 188 201 191
f 188 191 189
f 191 201 192
f 192 201 202
f 192 202 203
f 192 203 204
f 192 204 205
f 192 205 206
f 192 206 207
f 192 207 193
f 193 207 208
f 193 208 209
f 193 209 210
f 193 210 211
f 193 211 195
f 193 195 194
f 196 212 197
f 197 212 204
f 197 204 203
f 197 203 213
f 200 214 201
f 201 214 215
f 201 215 202
f 202 215 203
f 203 215 213
f 204 212 205
f 213 215 216
f 214 216 215

