# https://github.com/mikedh/trimesh
v -0.07072106 0.06305321 0.00819346
v -0.07042340 0.06305321 0.00988818
v -0.07059266 0.06474261 0.00819346
v -0.07060433 0.06370813 0.00715935
v -0.07065102 0.06305321 0.00715935
v -0.07065102 0.06135637 0.00649874
v -0.07042924 0.05626583 0.00480124
v -0.07003235 0.05456899 0.00649874
v -0.06939033 0.05287214 0.00988540
v -0.06911602 0.05287214 0.01158012
v -0.06928528 0.05456899 0.01158012
v -0.07003235 0.06305321 0.01158290
v -0.06989228 0.06127450 0.01171391
v -0.06989811 0.06135637 0.01171391
v -0.07037087 0.06474261 0.00649874
v -0.06982224 0.06421421 0.01171391
v -0.06984558 0.06425886 0.01158290
v -0.07010823 0.06484681 0.00995787
v -0.06983391 0.06588129 0.00944221
v -0.07000900 0.06607478 0.00819346
v -0.06995064 0.06599292 0.00715935
v -0.06990979 0.06594083 0.00649874
v -0.07060433 0.06305321 0.00649874
v -0.07048176 0.05795524 0.00480124
v -0.07023079 0.05626583 0.00310930
v -0.07009072 0.05456899 0.00310930
v -0.07023079 0.05456899 0.00480124
v -0.06971134 0.05314006 0.00715935
v -0.06891758 0.05118274 0.00988540
v -0.06870746 0.05118274 0.01158012
v -0.06906933 0.05287214 0.01171391
v -0.06909267 0.05300610 0.01171391
v -0.06926193 0.05469550 0.01171391
v -0.06999733 0.06305321 0.01171391
v -0.06997982 0.06317973 0.01171391
v -0.06970551 0.06570267 0.00554268
v -0.06982807 0.06474261 0.00530296
v -0.06993897 0.06290436 0.00475664
v -0.07023663 0.06135637 0.00480402
v -0.06939033 0.06493611 0.01171391
v -0.06957710 0.06547196 0.01057109
v -0.06831058 0.06662552 0.01171391
v -0.06808296 0.06748138 0.01101149
v -0.06655962 0.06943870 0.01158290
v -0.06834559 0.06780140 0.00988818
v -0.06773276 0.06864982 0.00988818
v -0.06688647 0.06978849 0.00988818
v -0.06937282 0.06691577 0.00819346
v -0.06932030 0.06678924 0.00649874
v -0.06833392 0.06775675 0.00480402
v -0.06814716 0.06755580 0.00358594
v -0.07042340 0.05965952 0.00480402
v -0.07046425 0.05849852 0.00480402
v -0.06998566 0.05792547 0.00301732
v -0.06978722 0.05626583 0.00204174
v -0.06976387 0.05456899 0.00210028
v -0.06965298 0.05371312 0.00225637
v -0.06976971 0.05352706 0.00310930
v -0.06987476 0.05330379 0.00480124
v -0.06980473 0.05329635 0.00649874
v -0.06887088 0.05118274 0.00819068
v -0.06823470 0.04989522 0.00988540
v -0.06816467 0.05002174 0.01158012
v -0.06814716 0.05005151 0.01171391
v -0.06865493 0.05118274 0.01171391
v -0.06868411 0.05128693 0.01171391
v -0.06629698 0.06902938 0.00053099
v -0.06785533 0.06684878 0.00245985
v -0.06795455 0.06218246 0.00057837
v -0.06954208 0.06336579 0.00416572
v -0.06749930 0.06634271 0.00155117
v -0.06810047 0.06474261 0.00199157
v -0.06806544 0.06105868 0.00034702
v -0.06965882 0.06223455 0.00394273
v -0.06989811 0.05965952 0.00345773
v -0.06996231 0.05849852 0.00315948
v -0.06752848 0.06783861 0.01171391
v -0.06652460 0.06938661 0.01171391
v -0.06595263 0.07011595 0.01171391
v -0.06588842 0.07028713 0.01158290
v -0.06461606 0.07240074 0.01079408
v -0.06623278 0.07063691 0.00988818
v -0.06853236 0.06796513 0.00819346
v -0.06849735 0.06790559 0.00715935
v -0.06847400 0.06786838 0.00649874
v -0.06668802 0.06946103 0.00311209
v -0.06647791 0.06923032 0.00141737
v -0.06968799 0.05733752 0.00217832
v -0.06836311 0.05795524 -0.00009059
v -0.06782031 0.05795524 -0.00093517
v -0.06922108 0.05626583 0.00119160
v -0.06777362 0.05965952 -0.00077071
v -0.06838062 0.05626583 0.00004599
v -0.06901679 0.05456899 0.00125013
v -0.06800124 0.05359404 0.00051984
v -0.06505964 0.05118274 -0.00163480
v -0.06479116 0.04996964 -0.00136163
v -0.02935764 -0.00362982 -0.00837465
v -0.02990044 -0.00362982 -0.00764436
v -0.03060082 -0.00362982 -0.00668272
v -0.03082261 -0.00362982 -0.00637611
v -0.03155218 -0.00362982 -0.00535593
v -0.03227007 -0.00362982 -0.00428837
v -0.03269613 -0.00362982 -0.00344380
v -0.03305216 -0.00362982 -0.00250445
v -0.03318640 -0.00362982 -0.00197764
v -0.06937866 0.05245537 0.00480124
v -0.06873664 0.05118274 0.00649874
v -0.03322726 -0.00362982 -0.00088778
v -0.03323893 -0.00362982 -0.00028292
v -0.03316305 -0.00362982 0.00462563
v -0.06663550 0.04818349 0.01171391
v -0.06541567 0.06967686 0.00141737
v -0.06541567 0.06917822 0.00033866
v -0.06339039 0.06757813 -0.00133097
v -0.06452267 0.06723578 -0.00110520
v -0.06618025 0.06547196 -0.00106338
v -0.06633783 0.06070144 -0.00288632
v -0.06639620 0.06434817 -0.00127522
v -0.06730670 0.06305321 -0.00027735
v -0.06766856 0.06151265 -0.00024111
v -0.06913353 0.05849852 0.00149542
v -0.06958878 0.05849852 0.00240410
v -0.06489621 0.07124718 0.01171391
v -0.06450516 0.07240074 0.01079408
v -0.06461606 0.07240074 0.01059618
v -0.06369973 0.07125462 0.01171391
v -0.06620359 0.07061459 0.00819346
v -0.06696234 0.06977361 0.00819346
v -0.06781447 0.06881355 0.00819346
v -0.06690981 0.06971407 0.00715935
v -0.06678725 0.06957266 0.00480402
v -0.06541567 0.07016061 0.00311209
v -0.06925610 0.05792547 0.00153444
v -0.06705573 0.05965952 -0.00196928
v -0.06639036 0.05965952 -0.00292813
v -0.06635534 0.05853573 -0.00289190
v -0.06669970 0.06130427 -0.00202224
v -0.06763938 0.05626583 -0.00079580
v -0.06817634 0.05456899 0.00034702
v -0.06463357 0.05351962 -0.00286681
v -0.06288261 0.04862258 -0.00281943
v -0.06649542 0.05456899 -0.00136721
v -0.06678725 0.05626583 -0.00166824
v -0.02912418 -0.00362982 -0.00867847
v -0.01785970 -0.00362982 0.00462563
v -0.03547432 0.01150038 0.01052928
v -0.04438085 0.02268616 0.01171391
v -0.04445672 0.02276059 0.01171391
v -0.05256948 0.03184764 0.01171391
v -0.05383017 0.03326912 0.01171391
v -0.06372307 0.06955778 0.00141737
v -0.06372307 0.06914101 0.00035817
v -0.06490789 0.07082297 0.00514130
v -0.06416665 0.07082297 0.00514130
v -0.06203048 0.06764511 -0.00152051
v -0.06189041 0.06629806 -0.00237902
v -0.06386315 0.06658086 -0.00162922
v -0.06477949 0.06242062 -0.00289190
v -0.06504796 0.06610455 -0.00132818
v -0.06541567 0.05965952 -0.00329049
v -0.06536897 0.06130427 -0.00302848
v -0.06450516 0.07240074 0.01059618
v -0.06297600 0.07102392 0.01171391
v -0.06547403 0.05849852 -0.00319572
v -0.06549154 0.05796268 -0.00315112
v -0.01340060 -0.00362982 -0.01676184
v -0.02781680 -0.00362982 -0.00995509
v -0.02835960 -0.00362982 -0.00950354
v -0.02866893 -0.00362982 -0.00921922
v -0.01340060 -0.00362982 -0.00754680
v -0.01340060 -0.00098780 -0.00574895
v -0.01340060 0.00038903 -0.00523607
v -0.01109517 0.00931235 -0.01041222
v -0.03019227 0.01876407 0.00715935
v -0.02956776 0.01726817 0.00715935
v -0.03547432 0.02127213 0.01052928
v -0.04438085 0.03204858 0.01171391
v -0.06286510 0.06898473 0.00055886
v -0.06095656 0.06747393 -0.00144525
v -0.06364720 0.07098670 0.00650432
v -0.06068808 0.06563569 -0.00282500
v -0.06123088 0.06563569 -0.00282500
v -0.06236316 0.06518915 -0.00268006
v -0.06364720 0.06467563 -0.00243756
v -0.06304020 0.06406536 -0.00286402
v -0.06364720 0.06300855 -0.00299503
v -0.06372307 0.06135637 -0.00337969
v -0.06372307 0.05965952 -0.00370581
v -0.06424836 0.05849852 -0.00360825
v -0.06281841 0.07073367 0.00707573
v -0.01109517 0.00931235 -0.01044009
v -0.01155626 0.00985563 -0.01147142
v -0.06221141 0.06970663 0.01171391
v -0.06371140 0.05795524 -0.00375041
v -0.06255577 0.05849852 -0.00399570
v -0.05863363 0.05795524 -0.00479846
v -0.05573871 0.05625839 -0.00543677
v -0.05524261 0.05625839 -0.00552317
v -0.05355002 0.05456899 -0.00590504
v -0.05137300 0.05375778 -0.00622280
v -0.01340060 -0.00327259 -0.01671724
v -0.01117105 0.00931235 -0.01196199
v -0.06260830 0.06911124 0.00141737
v -0.05608891 0.06051538 -0.00451693
v -0.05903051 0.06445981 -0.00303127
v -0.06089236 0.06762279 -0.00027735
v -0.06304020 0.07054760 0.00594406
v -0.05621147 0.06051538 -0.00451693
v -0.05684182 0.05976371 -0.00467860
v -0.05691769 0.05849852 -0.00497685
v -0.05694104 0.05795524 -0.00509949
v -0.06033206 0.06305321 -0.00352184
v -0.06203048 0.06305321 -0.00327098
v -0.06203048 0.06135637 -0.00363613
v -0.06203048 0.05965952 -0.00399570
v -0.05958498 0.05888552 -0.00452251
v -0.05918226 0.05849852 -0.00464237
v -0.05573871 0.05674214 -0.00540332
v -0.05097028 0.05375778 -0.00622280
v -0.01340060 -0.00132271 -0.01646638
v -0.01340060 0.00037414 -0.01605943
v -0.04922516 0.05211302 -0.00627019
v -0.04752673 0.05043107 -0.00628691
v -0.05766477 0.05849852 -0.00488487
v -0.05863946 0.05920554 -0.00459498
f 1 2 3
f 1 3 4
f 1 4 5
f 1 5 6
f 1 6 7
f 1 7 8
f 1 8 9
f 1 9 10
f 1 10 11
f 1 11 2
f 2 12 3
f 2 11 13
f 2 13 14
f 2 14 12
f 3 15 4
f 3 12 16
f 3 16 17
f 3 17 18
f 3 18 19
f 3 19 20
f 3 20 21
f 3 21 22
f 3 22 15
f 4 15 23
f 4 23 5
f 5 23 6
f 6 23 24
f 6 24 7
f 7 24 25
f 7 25 26
f 7 26 27
f 7 27 8
f 8 27 9
f 9 27 28
f 9 28 29
f 9 29 30
f 9 30 10
f 10 30 31
f 10 31 32
f 10 32 33
f 10 33 11
f 11 33 13
f 12 14 34
f 12 34 35
f 12 35 16
f 13 33 32
f 13 32 31
f 13 31 66
f 13 66 65
f 13 65 64
f 13 64 112
f 13 112 151
f 13 151 150
f 13 150 149
f 13 149 148
f 13 148 178
f 13 178 194
f 13 194 164
f 13 164 127
f 13 127 124
f 13 124 79
f 13 79 78
f 13 78 77
f 13 77 42
f 13 42 40
f 13 40 16
f 13 16 35
f 13 35 34
f 13 34 14
f 15 22 36
f 15 36 37
f 15 37 38
f 15 38 39
f 15 39 23
f 16 40 19
f 16 19 17
f 17 19 18
f 19 40 41
f 19 41 42
f 19 42 43
f 19 43 44
f 19 44 45
f 19 45 20
f 20 45 46
f 20 46 47
f 20 47 48
f 20 48 49
f 20 49 21
f 21 49 22
f 22 49 50
f 22 50 51
f 22 51 36
f 23 39 52
f 23 52 53
f 23 53 24
f 24 53 25
f 25 54 55
f 25 55 56
f 25 56 26
f 25 53 52
f 25 52 39
f 25 39 54
f 26 56 57
f 26 57 58
f 26 58 59
f 26 59 27
f 27 59 60
f 27 60 28
f 28 60 29
f 29 61 62
f 29 62 63
f 29 63 30
f 29 60 59
f 29 59 61
f 30 63 64
f 30 64 65
f 30 65 66
f 30 66 31
f 36 51 67
f 36 67 68
f 36 68 37
f 37 69 70
f 37 70 38
f 37 68 71
f 37 71 72
f 37 72 69
f 38 70 69
f 38 69 73
f 38 73 74
f 38 74 75
f 38 75 39
f 39 75 76
f 39 76 54
f 40 42 41
f 42 77 44
f 42 44 43
f 44 46 45
f 44 77 78
f 44 78 79
f 44 79 80
f 44 80 81
f 44 81 47
f 44 47 46
f 47 81 82
f 47 82 48
f 48 83 84
f 48 84 85
f 48 85 49
f 48 82 83
f 49 85 50
f 50 85 86
f 50 86 87
f 50 87 51
f 51 87 67
f 54 76 88
f 54 88 55
f 55 89 90
f 55 90 91
f 55 91 56
f 55 88 92
f 55 92 89
f 56 91 90
f 56 90 93
f 56 93 94
f 56 94 57
f 57 94 95
f 57 95 96
f 57 96 97
f 57 97 98
f 57 98 99
f 57 99 100
f 57 100 101
f 57 101 102
f 57 102 103
f 57 103 104
f 57 104 105
f 57 105 58
f 58 105 106
f 58 106 107
f 58 107 59
f 59 107 61
f 61 107 62
f 62 107 108
f 62 108 106
f 62 106 109
f 62 109 110
f 62 110 111
f 62 111 63
f 63 111 64
f 64 111 112
f 67 87 113
f 67 113 114
f 67 114 115
f 67 115 116
f 67 116 117
f 67 117 118
f 67 118 119
f 67 119 120
f 67 120 71
f 67 71 68
f 69 72 120
f 69 120 121
f 69 121 73
f 71 120 72
f 73 92 74
f 73 121 92
f 74 92 122
f 74 122 123
f 74 123 75
f 75 123 76
f 76 123 88
f 79 124 81
f 79 81 80
f 81 125 163
f 81 163 126
f 81 126 82
f 81 124 127
f 81 127 125
f 82 128 129
f 82 129 130
f 82 130 83
f 82 126 128
f 83 130 84
f 84 130 85
f 85 130 131
f 85 131 132
f 85 132 86
f 86 132 128
f 86 128 126
f 86 126 87
f 87 126 133
f 87 133 113
f 88 123 122
f 88 122 134
f 88 134 92
f 89 92 135
f 89 135 90
f 90 135 136
f 90 136 137
f 90 137 93
f 92 121 138
f 92 138 118
f 92 118 135
f 92 134 122
f 93 139 94
f 93 137 139
f 94 140 95
f 94 139 140
f 95 140 96
f 96 141 142
f 96 142 97
f 96 140 143
f 96 143 144
f 96 144 137
f 96 137 141
f 97 142 145
f 97 145 98
f 98 145 170
f 98 170 169
f 98 169 168
f 98 168 167
f 98 167 171
f 98 171 146
f 98 146 111
f 98 111 110
f 98 110 109
f 98 109 106
f 98 106 105
f 98 105 104
f 98 104 103
f 98 103 102
f 98 102 101
f 98 101 100
f 98 100 99
f 106 108 107
f 111 146 147
f 111 147 148
f 111 148 149
f 111 149 150
f 111 150 151
f 111 151 112
f 113 152 153
f 113 153 114
f 113 133 154
f 113 154 155
f 113 155 152
f 114 153 156
f 114 156 115
f 115 156 157
f 115 157 158
f 115 158 116
f 116 158 159
f 116 159 160
f 116 160 117
f 117 160 118
f 118 161 136
f 118 136 135
f 118 138 120
f 118 120 119
f 118 160 159
f 118 159 162
f 118 162 161
f 120 138 121
f 125 127 164
f 125 164 163
f 126 163 155
f 126 155 154
f 126 154 133
f 128 132 131
f 128 131 129
f 129 131 130
f 136 161 137
f 137 161 165
f 137 165 166
f 137 166 167
f 137 167 141
f 137 144 139
f 139 144 140
f 140 144 143
f 141 167 142
f 142 167 168
f 142 168 169
f 142 169 170
f 142 170 145
f 146 171 172
f 146 172 173
f 146 173 174
f 146 174 175
f 146 175 176
f 146 176 177
f 146 177 147
f 147 177 178
f 147 178 148
f 152 179 153
f 152 155 179
f 153 179 180
f 153 180 156
f 155 163 181
f 155 181 179
f 156 180 182
f 156 182 183
f 156 183 157
f 157 183 184
f 157 184 158
f 158 184 185
f 158 185 159
f 159 185 184
f 159 184 186
f 159 186 187
f 159 187 188
f 159 188 162
f 161 189 190
f 161 190 167
f 161 167 165
f 161 162 189
f 162 188 189
f 163 164 191
f 163 191 181
f 164 192 193
f 164 193 191
f 164 194 174
f 164 174 192
f 165 167 166
f 167 190 195
f 167 195 189
f 167 189 196
f 167 196 197
f 167 197 198
f 167 198 199
f 167 199 200
f 167 200 201
f 167 201 202
f 167 202 203
f 167 203 192
f 167 192 174
f 167 174 171
f 171 174 172
f 172 174 173
f 174 194 175
f 175 177 176
f 175 194 177
f 177 194 178
f 179 181 204
f 179 204 180
f 180 205 206
f 180 206 182
f 180 204 191
f 180 191 207
f 180 207 193
f 180 193 203
f 180 203 205
f 181 191 208
f 181 208 204
f 182 206 205
f 182 205 209
f 182 209 183
f 183 209 210
f 183 210 211
f 183 211 212
f 183 212 213
f 183 213 214
f 183 214 188
f 183 188 186
f 183 186 184
f 186 188 187
f 188 214 215
f 188 215 216
f 188 216 189
f 189 216 217
f 189 217 218
f 189 218 197
f 189 197 196
f 189 195 190
f 191 204 208
f 191 193 207
f 192 203 193
f 197 218 212
f 197 212 219
f 197 219 198
f 198 219 199
f 199 201 200
f 199 219 201
f 201 219 212
f 201 212 211
f 201 211 209
f 201 209 205
f 201 205 220
f 201 220 221
f 201 221 202
f 202 221 203
f 203 221 222
f 203 222 220
f 203 220 223
f 203 223 224
f 203 224 205
f 205 224 223
f 205 223 220
f 209 211 210
f 212 218 217
f 212 217 225
f 212 225 213
f 213 226 215
f 213 215 214
f 213 225 226
f 215 226 216
f 216 226 217
f 217 226 225
f 220 222 221

