# https://github.com/mikedh/trimesh
v -0.07000382 0.06304343 0.01171408
v -0.06990007 0.06135020 0.01171408
v -0.06957727 0.06135020 0.01363773
v -0.06972714 0.06304343 0.01280154
v -0.06967526 0.06393037 0.01248543
v -0.06981936 0.06420891 0.01171408
v -0.03545889 0.02179739 0.00716430
v -0.03545889 0.00930703 0.00716430
v -0.06927753 0.05470920 0.01171408
v -0.06907002 0.06135020 0.01497240
v -0.06945622 0.06304343 0.01364719
v -0.06910461 0.05301596 0.01171408
v -0.06927753 0.05796373 0.01327975
v -0.06892591 0.05965696 0.01497240
v -0.06828608 0.06439216 0.01450905
v -0.06879910 0.06472934 0.01326084
v -0.06782495 0.06707495 0.01214366
v -0.06930059 0.06508118 0.01171408
v -0.03504963 0.02185603 0.00716430
v -0.06753098 0.06784460 0.01171408
v -0.06652800 0.06939123 0.01171408
v -0.06595158 0.07011691 0.01171408
v -0.06489673 0.07124573 0.01171408
v -0.02693938 0.00930703 0.00716430
v -0.03030568 -0.00362313 0.00949187
v -0.06815351 0.05006929 0.01171408
v -0.06866652 0.05119078 0.01171408
v -0.06869534 0.05130807 0.01171408
v -0.06908155 0.05288402 0.01171408
v -0.06829762 0.06135020 0.01611795
v -0.06816504 0.06247902 0.01596530
v -0.06860312 0.06304343 0.01503319
v -0.06823998 0.05965696 0.01617199
v -0.06881063 0.05457726 0.01327975
v -0.06905272 0.05627049 0.01327975
v -0.06864347 0.05796373 0.01497240
v -0.06807857 0.05796373 0.01601664
v -0.06771543 0.06360784 0.01563704
v -0.06788835 0.06552098 0.01403489
v -0.06818233 0.06594612 0.01290555
v -0.03323390 0.02128429 0.00716430
v -0.06369777 0.07126039 0.01171408
v -0.06632625 0.06907604 0.01250839
v -0.06372083 0.07089389 0.01277992
v -0.06466616 0.07076927 0.01250839
v -0.02702584 0.00968819 0.00716430
v -0.01167574 0.00931436 0.01061175
v -0.01339924 -0.00362313 0.00962156
v -0.01587209 -0.00362313 0.00949187
v -0.02943528 -0.00362313 0.01054556
v -0.06802670 0.05025987 0.01251110
v -0.06823421 0.05119078 0.01286908
v -0.06843019 0.05279606 0.01341214
v -0.06659141 0.05627049 0.01787545
v -0.06663752 0.05796373 0.01783222
v -0.06652800 0.05965696 0.01769984
v -0.06637813 0.06078579 0.01759312
v -0.06612450 0.06191461 0.01743101
v -0.06496014 0.06304343 0.01774847
v -0.06466616 0.06398901 0.01757015
v -0.06798058 0.05698883 0.01586534
v -0.06820539 0.05457726 0.01458200
v -0.06830338 0.05636578 0.01504670
v -0.06749062 0.05636578 0.01652322
v -0.06658565 0.06420891 0.01605176
v -0.06723700 0.06486861 0.01506967
v -0.06619368 0.06722155 0.01407272
v -0.03168333 0.02054396 0.00716430
v -0.06297725 0.07102582 0.01171408
v -0.06267174 0.07087189 0.01281910
v -0.06530599 0.06971375 0.01282585
v -0.06141514 0.06909803 0.01597746
v -0.06448747 0.06889279 0.01406326
v -0.06127104 0.06736814 0.01757826
v -0.02707196 0.00987877 0.00716430
v -0.01352605 0.01339718 0.01225173
v -0.01202159 0.01146939 0.01235980
v -0.01111661 0.00931436 0.01160060
v -0.02715265 0.01015731 0.00716430
v -0.02955057 0.01726011 0.00716430
v -0.03018463 0.01876276 0.00716430
v -0.06267174 0.07087189 0.01187618
v -0.01339924 -0.00362313 0.01492648
v -0.02914131 -0.00362313 0.01089004
v -0.06482756 0.04829543 0.01439558
v -0.06636660 0.05020123 0.01423482
v -0.06757132 0.05119078 0.01371608
v -0.06790565 0.05218034 0.01406461
v -0.06120763 0.04522415 0.01584372
v -0.06806705 0.05330916 0.01432803
v -0.06643578 0.05506837 0.01773901
v -0.06531752 0.05626316 0.01877649
v -0.06468922 0.05682757 0.01928713
v -0.06468922 0.05765586 0.01928713
v -0.06531752 0.05811766 0.01878190
v -0.06456240 0.05878469 0.01920202
v -0.06541550 0.05965696 0.01846174
v -0.06442406 0.05965696 0.01912232
v -0.06358249 0.05965696 0.01966943
v -0.06550197 0.06135020 0.01798893
v -0.06404363 0.06135020 0.01889402
v -0.06320205 0.06135020 0.01940060
v -0.06259104 0.06341726 0.01903721
v -0.06146125 0.06431153 0.01937358
v -0.06108082 0.06544035 0.01913312
v -0.06787106 0.05586001 0.01566136
v -0.06772119 0.05457726 0.01542900
v -0.06298301 0.06568957 0.01758906
v -0.06382458 0.06823309 0.01504941
v -0.06100012 0.06909803 0.01597746
v -0.05923051 0.06752941 0.01793219
v -0.06091942 0.06922264 0.01497240
v -0.05919015 0.06761004 0.01666506
v -0.05995103 0.06602675 0.01950327
v -0.06033147 0.06752941 0.01787545
v -0.05863679 0.06612204 0.01967078
v -0.06191087 0.06632728 0.01789301
v -0.01541095 0.01651244 0.01405786
v -0.01202159 0.01146939 0.01247732
v -0.01146823 0.00931436 0.01265699
v -0.02476627 -0.00362313 0.01448879
v -0.01496134 0.01393960 0.01435100
v -0.01629288 0.01393960 0.01465495
v -0.03575286 0.03848052 0.01751612
v -0.05694211 0.06135020 0.02043132
v -0.05863679 0.06135020 0.02068259
v -0.05863679 0.05965696 0.02070150
v -0.05863679 0.05796373 0.02071636
v -0.06075802 0.05850615 0.02096357
v -0.06135174 0.05850615 0.02096357
v -0.02863406 -0.00362313 0.01143174
v -0.06379000 0.04770902 0.01504130
v -0.06624555 0.05206306 0.01579779
v -0.06610721 0.05394687 0.01736077
v -0.02779825 -0.00362313 0.01231657
v -0.02665693 -0.00362313 0.01346887
v -0.02580383 -0.00362313 0.01427535
v -0.06457970 0.05202641 0.01752017
v -0.06549044 0.05453327 0.01810915
v -0.06433183 0.05569875 0.01913583
v -0.06196274 0.05794907 0.02061099
v -0.06374965 0.05626316 0.01950462
v -0.06135174 0.05937109 0.02096357
v -0.06196274 0.05982555 0.02059208
v -0.06202615 0.06135020 0.02009901
v -0.06202615 0.06292615 0.01954514
v -0.06044099 0.06481730 0.01977479
v -0.05756465 0.06585816 0.01952758
v -0.05754159 0.06590214 0.01835907
v -0.05863679 0.06474399 0.02036378
v -0.01541095 0.01651244 0.01415107
v -0.01519767 0.01562551 0.01426319
v -0.02514094 -0.00362313 0.01441584
v -0.01629288 0.01562551 0.01455904
v -0.05697670 0.06465604 0.01974643
v -0.05694211 0.06304343 0.02024895
v -0.05863679 0.06304343 0.02063396
v -0.06075802 0.05937109 0.02096357
v -0.06202615 0.05627049 0.02011116
v -0.06429149 0.04902843 0.01552627
v -0.06498319 0.05135204 0.01657996
v -0.06582477 0.05273009 0.01674476
v -0.06033147 0.06304343 0.02036783
v -0.05656744 0.06439216 0.01957892
v -0.05599678 0.06401832 0.01934251
f 1 2 3
f 1 3 4
f 1 4 5
f 1 5 6
f 1 6 7
f 1 7 8
f 1 8 2
f 2 8 9
f 2 9 3
f 3 10 11
f 3 11 4
f 3 9 12
f 3 12 13
f 3 13 14
f 3 14 10
f 4 11 5
f 5 15 16
f 5 16 17
f 5 17 18
f 5 18 6
f 5 11 15
f 6 18 7
f 7 19 41
f 7 41 68
f 7 68 81
f 7 81 80
f 7 80 79
f 7 79 75
f 7 75 46
f 7 46 24
f 7 24 8
f 7 18 20
f 7 20 21
f 7 21 22
f 7 22 23
f 7 23 19
f 8 24 49
f 8 49 25
f 8 25 26
f 8 26 27
f 8 27 28
f 8 28 29
f 8 29 12
f 8 12 9
f 10 30 31
f 10 31 32
f 10 32 11
f 10 14 33
f 10 33 30
f 11 32 15
f 12 29 34
f 12 34 35
f 12 35 13
f 13 35 14
f 14 35 34
f 14 34 36
f 14 36 37
f 14 37 33
f 15 32 31
f 15 31 38
f 15 38 39
f 15 39 16
f 16 39 40
f 16 40 17
f 17 40 21
f 17 21 20
f 17 20 18
f 19 23 42
f 19 42 41
f 21 43 22
f 21 40 39
f 21 39 43
f 22 43 23
f 23 44 42
f 23 43 45
f 23 45 44
f 24 46 47
f 24 47 48
f 24 48 49
f 25 49 48
f 25 48 83
f 25 83 121
f 25 121 153
f 25 153 137
f 25 137 136
f 25 136 135
f 25 135 131
f 25 131 84
f 25 84 50
f 25 50 51
f 25 51 26
f 26 51 27
f 27 51 52
f 27 52 53
f 27 53 28
f 28 53 29
f 29 53 34
f 30 33 54
f 30 54 55
f 30 55 56
f 30 56 57
f 30 57 31
f 31 58 59
f 31 59 60
f 31 60 38
f 31 57 58
f 33 37 54
f 34 53 36
f 36 61 37
f 36 53 62
f 36 62 63
f 36 63 61
f 37 61 64
f 37 64 54
f 38 60 65
f 38 65 66
f 38 66 39
f 39 66 67
f 39 67 43
f 41 42 69
f 41 69 68
f 42 44 70
f 42 70 69
f 43 67 71
f 43 71 45
f 44 45 72
f 44 72 70
f 45 71 67
f 45 67 73
f 45 73 74
f 45 74 72
f 46 75 47
f 47 76 77
f 47 77 78
f 47 78 48
f 47 75 79
f 47 79 80
f 47 80 81
f 47 81 68
f 47 68 69
f 47 69 82
f 47 82 76
f 48 78 83
f 50 84 51
f 51 85 86
f 51 86 87
f 51 87 88
f 51 88 52
f 51 84 89
f 51 89 85
f 52 88 53
f 53 90 62
f 53 88 90
f 54 91 92
f 54 92 93
f 54 93 94
f 54 94 55
f 54 64 91
f 55 94 95
f 55 95 56
f 56 95 96
f 56 96 97
f 56 97 57
f 57 97 98
f 57 98 99
f 57 99 100
f 57 100 58
f 58 100 101
f 58 101 59
f 59 101 102
f 59 102 103
f 59 103 60
f 60 103 104
f 60 104 105
f 60 105 65
f 61 63 106
f 61 106 64
f 62 90 107
f 62 107 64
f 62 64 106
f 62 106 63
f 64 107 91
f 65 105 108
f 65 108 67
f 65 67 66
f 67 109 73
f 67 108 109
f 69 70 82
f 70 72 110
f 70 110 111
f 70 111 112
f 70 112 113
f 70 113 82
f 72 74 114
f 72 114 115
f 72 115 116
f 72 116 111
f 72 111 110
f 73 109 74
f 74 117 114
f 74 109 108
f 74 108 117
f 76 118 77
f 76 82 118
f 77 118 151
f 77 151 119
f 77 119 78
f 78 119 120
f 78 120 83
f 82 113 118
f 83 120 122
f 83 122 123
f 83 123 124
f 83 124 125
f 83 125 126
f 83 126 127
f 83 127 128
f 83 128 129
f 83 129 130
f 83 130 121
f 84 131 89
f 85 132 133
f 85 133 86
f 85 89 132
f 86 133 87
f 87 133 134
f 87 134 88
f 88 134 91
f 88 91 90
f 89 131 135
f 89 135 136
f 89 136 137
f 89 137 138
f 89 138 132
f 90 91 107
f 91 134 138
f 91 138 139
f 91 139 92
f 92 139 140
f 92 140 93
f 93 141 130
f 93 130 143
f 93 143 94
f 93 140 142
f 93 142 141
f 94 143 144
f 94 144 99
f 94 99 96
f 94 96 95
f 96 99 98
f 96 98 97
f 99 144 102
f 99 102 101
f 99 101 100
f 102 145 103
f 102 144 145
f 103 145 146
f 103 146 104
f 104 147 105
f 104 146 147
f 105 147 114
f 105 114 117
f 105 117 108
f 111 116 148
f 111 148 113
f 111 113 112
f 113 148 149
f 113 149 118
f 114 116 115
f 114 147 150
f 114 150 116
f 116 150 148
f 118 149 151
f 119 151 152
f 119 152 120
f 120 152 122
f 121 130 153
f 122 152 154
f 122 154 123
f 123 154 124
f 124 154 152
f 124 152 151
f 124 151 155
f 124 155 156
f 124 156 125
f 125 156 157
f 125 157 126
f 126 157 158
f 126 158 127
f 127 158 128
f 128 158 129
f 129 158 143
f 129 143 130
f 130 141 159
f 130 159 137
f 130 137 153
f 132 138 160
f 132 160 133
f 133 161 138
f 133 138 162
f 133 162 134
f 133 160 161
f 134 162 138
f 137 159 140
f 137 140 139
f 137 139 138
f 138 161 160
f 140 159 142
f 141 142 159
f 143 158 157
f 143 157 150
f 143 150 163
f 143 163 144
f 144 163 145
f 145 163 147
f 145 147 146
f 147 163 150
f 148 150 155
f 148 155 164
f 148 164 165
f 148 165 151
f 148 151 149
f 150 157 156
f 150 156 155
f 151 165 164
f 151 164 155

