# https://github.com/mikedh/trimesh
v -0.03471656 -0.03720569 -0.00197145
v -0.03409723 -0.03956362 -0.00295694
v -0.03409723 -0.03957208 -0.00197145
v -0.03466947 -0.03720569 -0.00056921
v -0.03463326 -0.03720569 -0.00365000
v -0.03424935 -0.03860439 -0.00357862
v -0.03397771 -0.03917486 -0.00408748
v -0.03377852 -0.04019747 -0.00357862
v -0.03321714 -0.04199761 -0.00366381
v -0.03342358 -0.04199761 -0.00197145
v -0.03387268 -0.04041721 -0.00197145
v -0.03407912 -0.03950024 -0.00102051
v -0.03465861 -0.03720569 -0.00029751
v -0.03457169 -0.03720569 -0.00394472
v -0.03416605 -0.03804238 -0.00475752
v -0.03247829 -0.04312165 -0.00480817
v -0.03261230 -0.04368789 -0.00353257
v -0.03239137 -0.04455838 -0.00287865
v -0.03279339 -0.04369212 -0.00197145
v -0.03239862 -0.04457528 -0.00093762
v -0.03232618 -0.04437668 0.00019062
v -0.03319903 -0.04199761 -0.00027909
v -0.03401393 -0.03928895 0.00010543
v -0.03425659 -0.03868046 -0.00038731
v -0.03450649 -0.03720569 0.00112084
v -0.03425659 -0.03720569 -0.00515125
v -0.03247105 -0.04143983 -0.00648211
v -0.03322438 -0.04030312 -0.00535848
v -0.03266663 -0.04199761 -0.00536769
v -0.03395236 -0.03730288 -0.00588576
v -0.03227910 -0.04077640 -0.00761266
v -0.03058772 -0.04422033 -0.00931653
v -0.03190605 -0.04228074 -0.00733405
v -0.03143884 -0.04368789 -0.00733405
v -0.03134468 -0.04394566 -0.00733405
v -0.03077968 -0.04471473 -0.00818599
v -0.03207628 -0.04368789 -0.00536769
v -0.03225374 -0.04424991 -0.00400919
v -0.03240586 -0.04457951 -0.00197145
v -0.03092093 -0.04491757 -0.00733405
v -0.03096077 -0.04498518 -0.00705084
v -0.02913539 -0.04642190 -0.01044016
v -0.02937081 -0.04674728 -0.00874780
v -0.02946497 -0.04708957 -0.00733405
v -0.02903398 -0.04798964 -0.00639692
v -0.02874424 -0.04928692 -0.00366381
v -0.02747661 -0.05156879 -0.00197145
v -0.02899414 -0.04962497 -0.00115636
v -0.02899414 -0.04962497 -0.00101360
v -0.03097163 -0.04666277 -0.00027909
v -0.03093542 -0.04659938 0.00141557
v -0.03088109 -0.04654445 0.00311023
v -0.03079417 -0.04641768 0.00434899
v -0.03140987 -0.04538662 0.00311023
v -0.03104407 -0.04547958 0.00486937
v -0.03221753 -0.04403440 0.00141557
v -0.03417691 -0.03809731 0.00141557
v -0.03447028 -0.03720569 0.00141557
v -0.03395960 -0.03720569 -0.00592029
v -0.03243121 -0.03964814 -0.00802020
v -0.03337287 -0.03720569 -0.00733405
v -0.03075795 -0.04309207 -0.00976552
v -0.02899776 -0.04624020 -0.01129440
v -0.02846174 -0.04727127 -0.01044016
v -0.02872975 -0.04759242 -0.00874780
v -0.02889635 -0.04779948 -0.00752746
v -0.02735347 -0.05138708 -0.00303292
v -0.02681383 -0.05241393 -0.00197145
v -0.02754181 -0.05164485 -0.00027909
v -0.02944324 -0.04892351 -0.00038271
v -0.02850158 -0.05029686 -0.00038271
v -0.03035955 -0.04744875 0.00141557
v -0.02950843 -0.04868687 0.00141557
v -0.02892170 -0.04953201 0.00141557
v -0.03028712 -0.04738536 0.00311023
v -0.02944324 -0.04852207 0.00311023
v -0.02927302 -0.04824740 0.00480489
v -0.03020019 -0.04701773 0.00486937
v -0.03062032 -0.04610921 0.00547723
v -0.03090644 -0.04510349 0.00577196
v -0.03174307 -0.04272444 0.00577196
v -0.03167064 -0.04369212 0.00480489
v -0.03421313 -0.03769165 0.00194285
v -0.03424572 -0.03720569 0.00258525
v -0.03270285 -0.03720569 -0.00890438
v -0.03220666 -0.03860862 -0.00919219
v -0.03233705 -0.03761136 -0.00950303
v -0.03091006 -0.04199339 -0.01006946
v -0.03055875 -0.04073414 -0.01118618
v -0.03070724 -0.03960588 -0.01130591
v -0.02911366 -0.04538239 -0.01138190
v -0.02377153 -0.05046589 -0.01289927
v -0.02259445 -0.05216038 -0.01314103
v -0.02231195 -0.05312807 -0.01306044
v -0.01212388 -0.06494308 -0.01473669
v -0.01398185 -0.06343028 -0.01342655
v -0.01740082 -0.06011312 -0.01184931
v -0.02008818 -0.05756081 -0.01044016
v -0.02239525 -0.05492821 -0.01004643
v -0.02398159 -0.05309849 -0.00978855
v -0.02715065 -0.04943904 -0.00910700
v -0.02556431 -0.05126877 -0.00947540
v -0.02777722 -0.04883477 -0.00862347
v -0.02741142 -0.04976442 -0.00733405
v -0.02666896 -0.05203784 -0.00362467
v -0.02683918 -0.05249421 -0.00027909
v -0.02573454 -0.05317455 -0.00366381
v -0.02226849 -0.05645368 -0.00640613
v -0.02596633 -0.05338161 -0.00197145
v -0.02744040 -0.05149273 0.00112545
v -0.02876959 -0.04936721 0.00311023
v -0.02913177 -0.04809105 0.00577196
v -0.02981991 -0.04710646 0.00577196
v -0.03056599 -0.04594441 0.00577196
v -0.03221753 -0.04130460 0.00577196
v -0.03354672 -0.03720569 0.00577196
v -0.03239137 -0.03720569 -0.00961586
v -0.03164891 -0.03720569 -0.01052305
v -0.03075071 -0.03860862 -0.01132894
v -0.02813940 -0.04368789 -0.01192760
v -0.02813940 -0.04538239 -0.01179635
v -0.02930924 -0.04368789 -0.01148321
v -0.02292403 -0.05046589 -0.01317787
v -0.02388018 -0.04914325 -0.01297295
v -0.02136667 -0.05216038 -0.01350253
v -0.01391304 -0.06179072 -0.01473669
v -0.00366340 -0.07342825 -0.01641523
v -0.00211327 -0.07528332 -0.01650963
v -0.01054841 -0.06675590 -0.01484491
v -0.01581085 -0.06186678 -0.01213483
v -0.01924430 -0.05858342 -0.01044016
v -0.02039603 -0.05793690 -0.00874780
v -0.02192804 -0.05604379 -0.00874780
v -0.02694059 -0.05035179 -0.00733405
v -0.02731726 -0.04964610 -0.00797876
v -0.02588303 -0.05166176 -0.00733405
v -0.02273932 -0.05555361 -0.00733405
v -0.02210551 -0.05626353 -0.00753897
v -0.02599531 -0.05337316 -0.00027909
v -0.02577075 -0.05317455 0.00141557
v 0.00003444 -0.07815256 -0.01552185
v 0.00087832 -0.07904418 -0.01552185
v 0.00172219 -0.07988932 -0.01552185
v -0.02674864 -0.05209700 0.00158135
v -0.02733537 -0.05135751 0.00194285
v -0.02844001 -0.04886435 0.00577196
v -0.02217433 -0.03720569 0.00577196
v -0.03080503 -0.03720569 -0.01134045
v -0.02983802 -0.03860862 -0.01157992
v -0.02390916 -0.04801499 -0.01298216
v -0.02321378 -0.04865730 -0.01312952
v -0.02136667 -0.05046589 -0.01350483
v -0.01966805 -0.05385489 -0.01381107
v -0.01413759 -0.06062020 -0.01475511
v -0.00422840 -0.07078720 -0.01650503
v -0.00273260 -0.07248170 -0.01675831
v -0.00390968 -0.07248170 -0.01646589
v 0.00228357 -0.07749336 -0.01758722
v 0.00228357 -0.07756519 -0.01757110
v -0.00107382 -0.07585802 -0.01675601
v 0.00058133 -0.07761590 -0.01691949
v -0.00052693 -0.07708347 -0.01660174
v -0.01071863 -0.06692070 -0.01382719
v -0.01156613 -0.06598682 -0.01382719
v -0.01505390 -0.06271192 -0.01213483
v -0.00074062 -0.07730742 -0.01552185
v -0.01852719 -0.05942011 -0.01044016
v -0.01421003 -0.06365002 -0.01213483
v -0.02221416 -0.05639875 0.00228362
v -0.02490153 -0.05401969 0.00141557
v -0.00164244 -0.07649187 -0.01044016
v 0.00228357 -0.07888783 0.00141557
v 0.00165700 -0.07825820 0.00194285
v -0.02568383 -0.05309004 0.00194285
v -0.02589752 -0.05161527 0.00577196
v -0.02604963 -0.05177585 0.00480489
v -0.02638284 -0.05111242 0.00577196
v -0.02685005 -0.05187727 0.00194285
v 0.00109924 -0.07883290 -0.01668693
v 0.00228357 -0.08018934 -0.01618498
v 0.00228357 -0.08036682 -0.01552185
v 0.00228357 -0.08026118 -0.01382719
v 0.00179825 -0.07984283 -0.01382719
v 0.00007428 -0.07816946 -0.01213483
v -0.02728828 -0.05130680 0.00225599
v -0.02753094 -0.04987852 0.00577196
v -0.00532942 -0.04963765 0.00194285
v -0.01913565 -0.03720569 0.00273492
v -0.01518066 -0.05139131 0.00577196
v 0.00228357 -0.06209919 0.00194285
v -0.00451089 -0.05046166 0.00194285
v -0.03064567 -0.03720569 -0.01138420
v -0.02983802 -0.03720569 -0.01158222
v -0.02390916 -0.04783751 -0.01298216
v -0.02386932 -0.04670503 -0.01297295
v -0.02320653 -0.04719521 -0.01310880
v 0.00228357 -0.07410859 -0.01775070
v -0.02369910 -0.04368789 -0.01295222
v -0.02351076 -0.04199339 -0.01293380
v -0.02136667 -0.04877139 -0.01345648
v 0.00228357 -0.07417197 -0.01775070
v -0.01797668 -0.05554938 -0.01411270
v 0.00065014 -0.07417197 -0.01741914
v 0.00228357 -0.07579886 -0.01770465
v -0.00104123 -0.07417197 -0.01704152
v 0.00065014 -0.07586647 -0.01732243
v 0.00228357 -0.07586647 -0.01770004
v 0.00228357 -0.07890051 -0.01720039
v 0.00225822 -0.07933998 -0.01706915
v -0.02009180 -0.05767068 0.00480489
v -0.02373169 -0.05453099 0.00343719
v -0.01518066 -0.06227245 0.00480489
v -0.01563339 -0.06163859 0.00577196
v 0.00228357 -0.07882445 0.00194285
v -0.02505364 -0.05246886 0.00577196
v -0.02674864 -0.05072365 0.00577196
v 0.00228357 -0.07939069 -0.01705534
v -0.01027677 -0.03720569 -0.01284861
v -0.01518066 -0.06203580 0.00577196
v 0.00228357 -0.06064556 -0.01428078
v 0.00175117 -0.05935250 -0.01438900
v -0.02954465 -0.03720569 -0.01164669
v -0.02475303 -0.04368789 -0.01274730
v -0.02813940 -0.03860862 -0.01196444
v -0.02644803 -0.04030312 -0.01234436
v -0.02380775 -0.04538239 -0.01296374
v 0.00228357 -0.07241408 -0.01768393
v -0.02475303 -0.03720569 -0.01258612
v -0.02644803 -0.03720569 -0.01229600
v -0.02615829 -0.03720569 -0.01234896
v 0.00228357 -0.07933998 -0.01707836
v -0.02079080 -0.05666074 0.00577196
v -0.02127250 -0.05618746 0.00577196
v -0.01027677 -0.03720569 -0.01307196
v 0.00228357 -0.06064556 -0.01433605
v 0.00175117 -0.05935250 -0.01504062
v -0.02784966 -0.03720569 -0.01200589
v -0.02644803 -0.03860862 -0.01231903
v -0.00443122 -0.05385489 -0.01590407
v -0.00195392 -0.05777209 -0.01637839
v 0.00228357 -0.07071959 -0.01756189
v -0.02445967 -0.03720569 -0.01262527
v -0.02303631 -0.03720569 -0.01280256
v -0.00507589 -0.04759665 -0.01484951
v -0.01101562 -0.03720569 -0.01337128
v -0.00004886 -0.05615365 -0.01493701
v 0.00228357 -0.06089910 -0.01539291
v 0.00120428 -0.06028637 -0.01617116
v 0.00027348 -0.05724388 -0.01528239
v -0.00443122 -0.05216038 -0.01575210
v -0.00273260 -0.05554938 -0.01616195
v -0.01797668 -0.03720569 -0.01339201
v -0.01628531 -0.03720569 -0.01358082
v 0.00228357 -0.06563609 -0.01714744
v 0.00228357 -0.06733059 -0.01729710
v -0.00672018 -0.04577537 -0.01477122
v -0.01120395 -0.03720569 -0.01343345
v -0.00330122 -0.05077013 -0.01499457
v 0.00007066 -0.05926799 -0.01647280
v -0.00050158 -0.05814818 -0.01635306
v 0.00228357 -0.06378101 -0.01671226
v 0.00152662 -0.06141886 -0.01638300
v -0.01459394 -0.03720569 -0.01368213
v -0.01290256 -0.03720569 -0.01369825
v -0.01260920 -0.03720569 -0.01368213
f 1 2 3
f 1 3 4
f 1 4 13
f 1 13 25
f 1 25 58
f 1 58 84
f 1 84 116
f 1 116 147
f 1 147 188
f 1 188 218
f 1 218 234
f 1 234 245
f 1 245 257
f 1 257 265
f 1 265 264
f 1 264 263
f 1 263 253
f 1 253 252
f 1 252 243
f 1 243 242
f 1 242 228
f 1 228 230
f 1 230 229
f 1 229 237
f 1 237 222
f 1 222 193
f 1 193 192
f 1 192 148
f 1 148 118
f 1 118 117
f 1 117 85
f 1 85 61
f 1 61 59
f 1 59 26
f 1 26 14
f 1 14 5
f 1 5 2
f 2 5 6
f 2 6 7
f 2 7 8
f 2 8 9
f 2 9 10
f 2 10 11
f 2 11 3
f 3 11 12
f 3 12 4
f 4 12 13
f 5 14 15
f 5 15 6
f 6 15 7
f 7 15 9
f 7 9 8
f 9 15 16
f 9 16 17
f 9 17 18
f 9 18 10
f 10 18 19
f 10 19 20
f 10 20 21
f 10 21 22
f 10 22 23
f 10 23 12
f 10 12 11
f 12 23 24
f 12 24 13
f 13 24 25
f 14 26 15
f 15 27 28
f 15 28 29
f 15 29 16
f 15 26 30
f 15 30 31
f 15 31 32
f 15 32 33
f 15 33 27
f 16 34 35
f 16 35 36
f 16 36 37
f 16 37 38
f 16 38 17
f 16 29 34
f 17 38 18
f 18 39 19
f 18 38 40
f 18 40 41
f 18 41 42
f 18 42 43
f 18 43 44
f 18 44 45
f 18 45 46
f 18 46 47
f 18 47 48
f 18 48 39
f 19 39 20
f 20 39 49
f 20 49 50
f 20 50 51
f 20 51 52
f 20 52 53
f 20 53 21
f 21 53 54
f 21 54 55
f 21 55 56
f 21 56 22
f 22 57 58
f 22 58 23
f 22 56 57
f 23 58 24
f 24 58 25
f 26 59 30
f 27 29 28
f 27 33 29
f 29 33 34
f 30 60 31
f 30 59 61
f 30 61 60
f 31 60 62
f 31 62 32
f 32 35 34
f 32 34 33
f 32 62 63
f 32 63 36
f 32 36 35
f 36 63 40
f 36 40 38
f 36 38 37
f 39 48 49
f 40 63 42
f 40 42 41
f 42 64 65
f 42 65 43
f 42 63 64
f 43 65 66
f 43 66 45
f 43 45 44
f 45 66 67
f 45 67 46
f 46 67 47
f 47 67 68
f 47 68 69
f 47 69 48
f 48 69 49
f 49 70 50
f 49 69 71
f 49 71 70
f 50 70 72
f 50 72 51
f 51 72 52
f 52 72 73
f 52 73 74
f 52 74 75
f 52 75 53
f 53 75 76
f 53 76 77
f 53 77 78
f 53 78 79
f 53 79 55
f 53 55 54
f 55 79 80
f 55 80 81
f 55 81 82
f 55 82 56
f 56 82 83
f 56 83 57
f 57 83 58
f 58 83 84
f 60 61 85
f 60 85 86
f 60 86 62
f 62 86 87
f 62 87 88
f 62 88 63
f 63 88 89
f 63 89 90
f 63 90 91
f 63 91 92
f 63 92 93
f 63 93 94
f 63 94 95
f 63 95 96
f 63 96 97
f 63 97 98
f 63 98 99
f 63 99 100
f 63 100 64
f 64 101 65
f 64 100 102
f 64 102 101
f 65 101 103
f 65 103 104
f 65 104 105
f 65 105 67
f 65 67 66
f 67 105 68
f 68 106 69
f 68 105 107
f 68 107 108
f 68 108 109
f 68 109 106
f 69 106 110
f 69 110 76
f 69 76 74
f 69 74 71
f 70 71 72
f 71 74 73
f 71 73 72
f 74 76 75
f 76 110 111
f 76 111 77
f 77 111 112
f 77 112 78
f 78 113 79
f 78 112 113
f 79 114 80
f 79 113 114
f 80 114 113
f 80 113 112
f 80 112 146
f 80 146 186
f 80 186 216
f 80 216 177
f 80 177 175
f 80 175 215
f 80 215 233
f 80 233 232
f 80 232 213
f 80 213 219
f 80 219 189
f 80 189 147
f 80 147 116
f 80 116 115
f 80 115 81
f 81 115 82
f 82 115 116
f 82 116 84
f 82 84 83
f 85 117 87
f 85 87 86
f 87 117 88
f 88 117 89
f 89 117 90
f 90 117 118
f 90 118 119
f 90 119 120
f 90 120 121
f 90 121 122
f 90 122 91
f 91 122 121
f 91 121 92
f 92 123 93
f 92 121 124
f 92 124 123
f 93 123 125
f 93 125 126
f 93 126 94
f 94 126 95
f 95 126 127
f 95 127 128
f 95 128 129
f 95 129 96
f 96 129 130
f 96 130 97
f 97 130 131
f 97 131 98
f 98 132 99
f 98 131 132
f 99 132 100
f 100 132 102
f 101 102 133
f 101 133 134
f 101 134 135
f 101 135 103
f 102 132 133
f 103 135 104
f 104 135 134
f 104 134 105
f 105 134 136
f 105 136 137
f 105 137 138
f 105 138 107
f 106 109 139
f 106 139 140
f 106 140 110
f 107 138 132
f 107 132 108
f 108 132 141
f 108 141 142
f 108 142 109
f 109 142 143
f 109 143 139
f 110 140 144
f 110 144 145
f 110 145 111
f 111 145 112
f 112 145 146
f 118 148 119
f 119 149 124
f 119 124 120
f 119 148 149
f 120 124 121
f 123 124 150
f 123 150 151
f 123 151 125
f 124 149 150
f 125 151 152
f 125 152 153
f 125 153 154
f 125 154 126
f 126 154 155
f 126 155 156
f 126 156 157
f 126 157 127
f 127 157 158
f 127 158 159
f 127 159 160
f 127 160 161
f 127 161 128
f 128 161 162
f 128 162 129
f 129 163 164
f 129 164 165
f 129 165 130
f 129 162 166
f 129 166 163
f 130 167 131
f 130 165 132
f 130 132 167
f 131 167 132
f 132 138 133
f 132 165 168
f 132 168 166
f 132 166 141
f 133 138 137
f 133 137 136
f 133 136 134
f 139 169 170
f 139 170 140
f 139 143 171
f 139 171 172
f 139 172 173
f 139 173 169
f 140 174 175
f 140 175 176
f 140 176 177
f 140 177 178
f 140 178 144
f 140 170 169
f 140 169 174
f 141 166 179
f 141 179 142
f 142 179 143
f 143 179 180
f 143 180 181
f 143 181 182
f 143 182 183
f 143 183 184
f 143 184 171
f 144 178 145
f 145 178 185
f 145 185 186
f 145 186 146
f 147 187 188
f 147 189 190
f 147 190 191
f 147 191 187
f 148 192 149
f 149 192 193
f 149 193 150
f 150 194 151
f 150 193 194
f 151 194 195
f 151 195 196
f 151 196 152
f 152 197 153
f 152 196 198
f 152 198 199
f 152 199 200
f 152 200 197
f 153 197 201
f 153 201 202
f 153 202 154
f 154 203 155
f 154 202 203
f 155 203 156
f 156 203 204
f 156 204 205
f 156 205 157
f 157 205 206
f 157 206 158
f 158 206 207
f 158 207 204
f 158 204 201
f 158 201 197
f 158 197 227
f 158 227 241
f 158 241 255
f 158 255 254
f 158 254 261
f 158 261 247
f 158 247 235
f 158 235 220
f 158 220 190
f 158 190 214
f 158 214 172
f 158 172 182
f 158 182 181
f 158 181 180
f 158 180 217
f 158 217 231
f 158 231 208
f 158 208 159
f 159 208 209
f 159 209 161
f 159 161 160
f 161 209 162
f 162 209 179
f 162 179 166
f 163 168 164
f 163 166 168
f 164 168 165
f 169 210 211
f 169 211 174
f 169 173 212
f 169 212 213
f 169 213 210
f 171 184 172
f 172 184 183
f 172 183 182
f 172 214 173
f 173 214 213
f 173 213 212
f 174 211 215
f 174 215 175
f 175 177 176
f 177 216 178
f 178 216 185
f 179 209 217
f 179 217 180
f 185 216 186
f 187 218 188
f 187 191 218
f 189 219 214
f 189 214 190
f 190 220 221
f 190 221 218
f 190 218 191
f 193 222 194
f 194 223 195
f 194 222 224
f 194 224 225
f 194 225 223
f 195 223 226
f 195 226 196
f 196 226 198
f 197 200 199
f 197 199 228
f 197 228 227
f 198 226 229
f 198 229 230
f 198 230 228
f 198 228 199
f 201 204 203
f 201 203 202
f 204 207 206
f 204 206 205
f 208 231 209
f 209 231 217
f 210 232 233
f 210 233 215
f 210 215 211
f 210 213 232
f 213 214 219
f 218 221 236
f 218 236 234
f 220 235 236
f 220 236 221
f 222 237 224
f 223 225 238
f 223 238 229
f 223 229 226
f 224 237 225
f 225 237 238
f 227 239 240
f 227 240 241
f 227 228 242
f 227 242 243
f 227 243 239
f 229 238 237
f 234 244 245
f 234 236 246
f 234 246 244
f 235 247 236
f 236 247 248
f 236 248 249
f 236 249 246
f 239 250 251
f 239 251 240
f 239 243 252
f 239 252 253
f 239 253 250
f 240 251 254
f 240 254 255
f 240 255 241
f 244 256 257
f 244 257 245
f 244 246 258
f 244 258 248
f 244 248 259
f 244 259 260
f 244 260 256
f 246 249 258
f 247 261 262
f 247 262 248
f 248 258 249
f 248 262 259
f 250 260 251
f 250 253 263
f 250 263 264
f 250 264 265
f 250 265 256
f 250 256 260
f 251 260 259
f 251 259 254
f 254 259 261
f 256 265 257
f 259 262 261

