# https://github.com/mikedh/trimesh
v 0.00621764 0.01410028 -0.01032381
v 0.00649212 0.01497081 -0.01076843
v 0.00649212 0.01497081 -0.01146096
v 0.00627768 0.01410028 -0.01193515
v 0.00624337 0.01410028 -0.01029765
v 0.01810160 0.04272643 -0.01074569
v 0.01653194 0.03935163 -0.01087532
v 0.01672493 0.04027582 -0.01117781
v 0.01672493 0.04027582 -0.01153146
v 0.01490224 0.03552368 -0.01213415
v 0.01342693 0.03161822 -0.01270727
v 0.00750854 0.01410028 -0.01242185
v 0.01499659 0.03527921 -0.01305978
v 0.01323394 0.03049129 -0.01313256
v 0.01305810 0.02917358 -0.01327698
v 0.01121825 0.02240013 -0.01336454
v 0.01076365 0.02054578 -0.01334748
v 0.01083227 0.01900744 -0.01346575
v 0.00752569 0.01410028 -0.00967222
v 0.00828908 0.01650318 -0.00959376
v 0.02399855 0.05286870 -0.00970065
v 0.02440169 0.05452033 -0.00996333
v 0.02329950 0.05456803 -0.01085031
v 0.01834606 0.04379968 -0.01103680
v 0.02349678 0.05550414 -0.01118577
v 0.03179968 0.07500761 -0.01274138
v 0.01647619 0.03942914 -0.01211027
v 0.03179968 0.07500761 -0.01330200
v 0.02183706 0.05204587 -0.01298814
v 0.01841039 0.04368639 -0.01303022
v 0.01253059 0.01410028 -0.01414917
v 0.01481218 0.03426558 -0.01320307
v 0.01659628 0.03892233 -0.01313711
v 0.01448195 0.03256626 -0.01333156
v 0.01422034 0.02917358 -0.01370682
v 0.01253059 0.02240013 -0.01385920
v 0.01253059 0.02070677 -0.01394335
v 0.01253059 0.01731408 -0.01405593
v 0.01253059 0.01562072 -0.01410937
v 0.00756429 0.01410028 -0.00965858
v 0.02212440 0.02748021 -0.00618687
v 0.04493594 0.07491221 -0.00307791
v 0.04496597 0.07500761 -0.00307791
v 0.02491633 0.05796071 -0.01084007
v 0.03013567 0.06938494 -0.01110389
v 0.02515650 0.05896242 -0.01113914
v 0.03185115 0.07500761 -0.01268680
v 0.03284184 0.07500761 -0.01390582
v 0.03178253 0.07491221 -0.01332815
v 0.02344102 0.05565917 -0.01308708
v 0.02001436 0.04729373 -0.01310982
v 0.01404021 0.01410028 -0.01432998
v 0.03284612 0.07491221 -0.01393652
v 0.03284612 0.07321288 -0.01422422
v 0.01591437 0.03426558 -0.01360675
v 0.01422034 0.02748021 -0.01383532
v 0.03284612 0.07151952 -0.01430724
v 0.02944948 0.06135340 -0.01430837
v 0.02944948 0.05966004 -0.01436978
v 0.02210724 0.01410028 -0.00816437
v 0.02127524 0.01410624 -0.00618687
v 0.04300603 0.06577164 -0.00307791
v 0.04973070 0.07500761 -0.00307791
v 0.03454016 0.07500761 -0.01417987
v 0.01422034 0.01410028 -0.01434703
v 0.03454016 0.07491221 -0.01419011
v 0.03454016 0.07321288 -0.01425038
v 0.03284612 0.06982616 -0.01433794
v 0.03114351 0.06304676 -0.01441072
v 0.02514792 0.03537461 -0.01468363
v 0.02919216 0.01410028 -0.00816437
v 0.02984833 0.01410624 -0.00618687
v 0.04915602 0.06577164 -0.00307791
v 0.04972641 0.07500761 -0.00310520
v 0.04976072 0.07491221 -0.00307791
v 0.03623419 0.07500761 -0.01413666
v 0.01930244 0.01410028 -0.01458129
v 0.03623419 0.07491221 -0.01414690
v 0.03623419 0.07321288 -0.01419125
v 0.03454016 0.07151952 -0.01426744
v 0.03284612 0.06813280 -0.01434931
v 0.02697491 0.03903561 -0.01469500
v 0.02674332 0.03903561 -0.01469500
v 0.02514792 0.03501686 -0.01468363
v 0.02898630 0.01410028 -0.00865107
v 0.02959959 0.01410624 -0.00721371
v 0.02965105 0.01410624 -0.00705451
v 0.04914315 0.06577164 -0.00337698
v 0.04914744 0.06577164 -0.00333945
v 0.04968352 0.06754847 -0.00307791
v 0.04960633 0.07500761 -0.00365558
v 0.04996229 0.07321288 -0.00307791
v 0.04985936 0.07321288 -0.00366581
v 0.04963206 0.07491221 -0.00366581
v 0.03782959 0.07500761 -0.01407185
v 0.02099647 0.01410028 -0.01428108
v 0.02527230 0.03501686 -0.01468363
v 0.02697491 0.03829029 -0.01469500
v 0.03792822 0.07491221 -0.01407753
v 0.03962225 0.07321288 -0.01405934
v 0.03792822 0.07321288 -0.01412643
v 0.03454016 0.06982616 -0.01427540
v 0.03284612 0.06643944 -0.01435727
v 0.03792822 0.07151952 -0.01413439
v 0.03962225 0.07151952 -0.01406389
v 0.02674332 0.03829029 -0.01469500
v 0.02919645 0.01410624 -0.00816323
v 0.02853170 0.01410028 -0.00949597
v 0.04390237 0.05357228 -0.00629603
v 0.04391523 0.05350669 -0.00618687
v 0.04926752 0.06643348 -0.00369310
v 0.04977359 0.06813280 -0.00366581
v 0.04984650 0.06813280 -0.00307791
v 0.04892443 0.07500761 -0.00619937
v 0.04904022 0.07435769 -0.00662581
v 0.05000518 0.07151952 -0.00307791
v 0.04991512 0.07151952 -0.00366581
v 0.04946480 0.07321288 -0.00536016
v 0.03962225 0.07500761 -0.01399793
v 0.02245034 0.01410028 -0.01353511
v 0.04131629 0.07151952 -0.01380234
v 0.04131629 0.06982616 -0.01363291
v 0.04315185 0.07311748 -0.01336454
v 0.04401387 0.07361834 -0.01305637
v 0.04725613 0.07233043 -0.01129493
v 0.03962225 0.06982616 -0.01403887
v 0.04131629 0.07321288 -0.01392515
v 0.03962225 0.07491221 -0.01400703
v 0.04131629 0.07491221 -0.01391719
v 0.04549776 0.06064982 -0.00780389
v 0.02769112 0.01410028 -0.01026127
v 0.04702883 0.07120351 -0.01109593
v 0.04743625 0.06982616 -0.00992126
v 0.04728186 0.06886619 -0.00965858
v 0.04558354 0.05868814 -0.00628694
v 0.04903165 0.06699992 -0.00470858
v 0.04884723 0.06587300 -0.00427646
v 0.04915602 0.06828783 -0.00530785
v 0.04904880 0.06982616 -0.00650299
v 0.04944765 0.06982616 -0.00536016
v 0.04994942 0.06982616 -0.00366581
v 0.05003091 0.06982616 -0.00307791
v 0.04871428 0.07500761 -0.00693284
v 0.04910027 0.07321288 -0.00689872
v 0.04889869 0.07321288 -0.00774590
v 0.04861993 0.07321288 -0.00874772
v 0.04818677 0.07491221 -0.00874772
v 0.04868855 0.07491817 -0.00713525
v 0.04951627 0.07151952 -0.00536016
v 0.04121336 0.07500761 -0.01391264
v 0.02276770 0.01410028 -0.01337136
v 0.04312183 0.07493010 -0.01337932
v 0.04401387 0.07438154 -0.01305637
v 0.04639839 0.07321288 -0.01177936
v 0.04726471 0.07321288 -0.01130062
v 0.04783081 0.07321288 -0.01044093
v 0.04762066 0.07166859 -0.01049438
v 0.02661037 0.01410028 -0.01110617
v 0.02652888 0.01410028 -0.01116643
v 0.04131629 0.07500761 -0.01389900
v 0.04600383 0.06126396 -0.00716481
v 0.04718322 0.06577164 -0.00777091
v 0.04848698 0.07151952 -0.00874772
v 0.04803238 0.06982616 -0.00874772
v 0.04834116 0.06577164 -0.00532832
v 0.04894587 0.06895563 -0.00622439
v 0.04868855 0.06982616 -0.00735017
v 0.04887296 0.07151952 -0.00771519
v 0.04913028 0.07151952 -0.00686802
v 0.04813959 0.07500761 -0.00873749
v 0.04726041 0.07408342 -0.01129834
v 0.04751774 0.07475122 -0.01034769
v 0.04747485 0.07500761 -0.01020782
v 0.04810100 0.07500761 -0.00884552
v 0.04303606 0.07500761 -0.01338956
v 0.04309181 0.07500761 -0.01337023
v 0.04320760 0.07500761 -0.01331564
v 0.04387235 0.07500761 -0.01297677
v 0.04451136 0.07500761 -0.01258559
v 0.04606816 0.07500761 -0.01159173
v 0.04616680 0.07500761 -0.01152350
v 0.04688730 0.07500761 -0.01093104
f 1 2 3
f 1 3 4
f 1 4 12
f 1 12 31
f 1 31 52
f 1 52 65
f 1 65 77
f 1 77 96
f 1 96 120
f 1 120 151
f 1 151 159
f 1 159 158
f 1 158 131
f 1 131 108
f 1 108 85
f 1 85 71
f 1 71 60
f 1 60 40
f 1 40 19
f 1 19 5
f 1 5 6
f 1 6 7
f 1 7 8
f 1 8 2
f 2 8 9
f 2 9 3
f 3 9 10
f 3 10 11
f 3 11 4
f 4 11 13
f 4 13 14
f 4 14 15
f 4 15 16
f 4 16 17
f 4 17 18
f 4 18 12
f 5 19 20
f 5 20 21
f 5 21 6
f 6 21 22
f 6 22 23
f 6 23 24
f 6 24 7
f 7 24 8
f 8 24 25
f 8 25 26
f 8 26 28
f 8 28 9
f 9 27 10
f 9 28 29
f 9 29 27
f 10 27 11
f 11 27 30
f 11 30 13
f 12 18 31
f 13 32 14
f 13 30 33
f 13 33 32
f 14 32 15
f 15 32 34
f 15 34 35
f 15 35 36
f 15 36 16
f 16 36 17
f 17 36 18
f 18 36 37
f 18 37 38
f 18 38 39
f 18 39 31
f 19 40 20
f 20 40 41
f 20 41 42
f 20 42 43
f 20 43 21
f 21 43 22
f 22 44 23
f 22 43 45
f 22 45 44
f 23 44 46
f 23 46 25
f 23 25 24
f 25 46 26
f 26 45 47
f 26 47 43
f 26 43 63
f 26 63 74
f 26 74 91
f 26 91 114
f 26 114 143
f 26 143 170
f 26 170 174
f 26 174 173
f 26 173 182
f 26 182 181
f 26 181 180
f 26 180 179
f 26 179 178
f 26 178 177
f 26 177 176
f 26 176 175
f 26 175 160
f 26 160 150
f 26 150 119
f 26 119 95
f 26 95 76
f 26 76 64
f 26 64 48
f 26 48 28
f 26 46 45
f 27 29 30
f 28 48 49
f 28 49 50
f 28 50 29
f 29 50 30
f 30 50 51
f 30 51 33
f 31 39 52
f 32 33 53
f 32 53 54
f 32 54 34
f 33 51 49
f 33 49 53
f 34 54 55
f 34 55 35
f 35 56 36
f 35 55 54
f 35 54 56
f 36 56 54
f 36 54 37
f 37 52 38
f 37 54 57
f 37 57 58
f 37 58 59
f 37 59 52
f 38 52 39
f 40 60 61
f 40 61 41
f 41 61 62
f 41 62 42
f 42 62 73
f 42 73 90
f 42 90 113
f 42 113 142
f 42 142 116
f 42 116 92
f 42 92 75
f 42 75 63
f 42 63 43
f 43 47 45
f 44 45 46
f 48 64 53
f 48 53 49
f 49 51 50
f 52 59 65
f 53 64 54
f 54 64 66
f 54 66 57
f 57 66 67
f 57 67 68
f 57 68 69
f 57 69 59
f 57 59 58
f 59 69 70
f 59 70 65
f 60 71 72
f 60 72 61
f 61 72 73
f 61 73 62
f 63 75 74
f 64 76 78
f 64 78 66
f 65 70 77
f 66 78 67
f 67 78 79
f 67 79 80
f 67 80 68
f 68 80 81
f 68 81 82
f 68 82 83
f 68 83 69
f 69 83 70
f 70 83 106
f 70 106 84
f 70 84 77
f 71 85 86
f 71 86 87
f 71 87 72
f 72 87 88
f 72 88 89
f 72 89 73
f 73 89 90
f 74 75 91
f 75 92 93
f 75 93 94
f 75 94 91
f 76 95 78
f 77 84 97
f 77 97 98
f 77 98 96
f 78 95 99
f 78 99 100
f 78 100 101
f 78 101 79
f 79 101 80
f 80 102 103
f 80 103 81
f 80 101 104
f 80 104 102
f 81 103 82
f 82 98 106
f 82 106 83
f 82 103 104
f 82 104 100
f 82 100 105
f 82 105 98
f 84 106 98
f 84 98 97
f 85 107 86
f 85 108 109
f 85 109 107
f 86 107 109
f 86 109 110
f 86 110 87
f 87 110 88
f 88 111 112
f 88 112 90
f 88 90 89
f 88 110 109
f 88 109 111
f 90 112 113
f 91 94 115
f 91 115 114
f 92 116 117
f 92 117 93
f 93 117 118
f 93 118 115
f 93 115 94
f 95 119 99
f 96 98 121
f 96 121 122
f 96 122 123
f 96 123 124
f 96 124 125
f 96 125 120
f 98 105 126
f 98 126 127
f 98 127 121
f 99 119 128
f 99 128 100
f 100 128 129
f 100 129 127
f 100 127 105
f 100 104 101
f 102 104 103
f 105 127 126
f 108 130 109
f 108 131 125
f 108 125 132
f 108 132 133
f 108 133 134
f 108 134 130
f 109 130 135
f 109 135 136
f 109 136 137
f 109 137 111
f 111 137 136
f 111 136 112
f 112 136 138
f 112 138 139
f 112 139 140
f 112 140 141
f 112 141 142
f 112 142 113
f 114 115 143
f 115 118 144
f 115 144 145
f 115 145 146
f 115 146 147
f 115 147 148
f 115 148 143
f 116 142 141
f 116 141 117
f 117 141 149
f 117 149 118
f 118 149 144
f 119 150 129
f 119 129 128
f 120 125 151
f 121 127 123
f 121 123 122
f 123 127 152
f 123 152 124
f 124 152 153
f 124 153 154
f 124 154 125
f 125 154 155
f 125 155 156
f 125 156 157
f 125 157 133
f 125 133 132
f 125 131 158
f 125 158 159
f 125 159 151
f 127 129 152
f 129 150 160
f 129 160 152
f 130 161 135
f 130 134 162
f 130 162 161
f 133 157 163
f 133 163 164
f 133 164 134
f 134 164 162
f 135 161 162
f 135 162 165
f 135 165 136
f 136 165 164
f 136 164 166
f 136 166 138
f 138 166 139
f 139 166 167
f 139 167 163
f 139 163 168
f 139 168 140
f 140 168 169
f 140 169 141
f 141 169 149
f 143 148 147
f 143 147 170
f 144 149 145
f 145 149 169
f 145 169 146
f 146 169 168
f 146 168 163
f 146 163 156
f 146 156 171
f 146 171 172
f 146 172 147
f 147 173 174
f 147 174 170
f 147 172 173
f 152 160 175
f 152 175 176
f 152 176 177
f 152 177 178
f 152 178 153
f 153 171 154
f 153 178 171
f 154 171 155
f 155 171 156
f 156 163 157
f 162 164 165
f 163 167 164
f 164 167 166
f 171 178 179
f 171 179 180
f 171 180 181
f 171 181 182
f 171 182 173
f 171 173 172

