# https://github.com/mikedh/trimesh
v 0.01147667 -0.08341400 -0.00079836
v 0.01177057 -0.08347162 -0.00027745
v 0.01147667 -0.08340957 -0.00027745
v 0.01147667 -0.08337854 -0.00197112
v 0.01261771 -0.08363119 -0.00027745
v 0.01421403 -0.08395476 0.00141623
v 0.01421403 -0.08385724 0.00650005
v 0.01147667 -0.08336525 0.00075603
v 0.01147667 -0.08334751 -0.00265361
v 0.01192041 -0.08345389 -0.00197112
v 0.01421403 -0.08389714 -0.00027745
v 0.01590831 -0.08411433 0.00310991
v 0.01590831 -0.08400352 0.00480359
v 0.01547033 -0.08369768 0.00766724
v 0.01421403 -0.08367995 0.00764774
v 0.01321993 -0.08353368 0.00742767
v 0.01147667 -0.08303724 0.00650005
v 0.01156599 -0.08322340 -0.00515513
v 0.01147667 -0.08320568 -0.00515513
v 0.01147955 -0.08309930 -0.00705216
v 0.01421403 -0.08370654 -0.00366480
v 0.01472980 -0.08353811 -0.00705216
v 0.01590831 -0.08401238 0.00141623
v 0.01706377 -0.08379520 0.00310991
v 0.01504100 -0.08349378 -0.00791292
v 0.01506405 -0.08349378 -0.00791292
v 0.01696003 -0.08370654 0.00480359
v 0.01598323 -0.08378190 0.00645827
v 0.01681596 -0.08356027 0.00586771
v 0.01659697 -0.08334751 0.00699868
v 0.01704071 -0.08222167 0.00762546
v 0.01598323 -0.08273140 0.00796252
v 0.01421403 -0.08264719 0.00827173
v 0.01147667 -0.08246546 0.00782045
v 0.01251974 -0.08325886 -0.00705216
v 0.01147955 -0.07821917 -0.01943161
v 0.01147955 -0.07925636 -0.01936196
v 0.01147955 -0.08093183 -0.01864605
v 0.01147955 -0.08134848 -0.01821706
v 0.01147955 -0.08172524 -0.01774907
v 0.01147955 -0.08188037 -0.01693845
v 0.01147955 -0.08200005 -0.01626432
v 0.01147955 -0.08242113 -0.01382687
v 0.01147955 -0.08253194 -0.01317224
v 0.01147955 -0.08268708 -0.01213319
v 0.01147955 -0.08277130 -0.01147856
v 0.01147955 -0.08287324 -0.01044230
v 0.01147955 -0.08292643 -0.00978488
v 0.01147955 -0.08299292 -0.00874584
v 0.01147667 -0.06606097 -0.00515513
v 0.01251974 -0.08315692 -0.00874584
v 0.01412759 -0.08359573 -0.00532227
v 0.01251974 -0.08302395 -0.01044230
v 0.01696868 -0.08369768 0.00141623
v 0.01777260 -0.08264719 0.00141623
v 0.01801464 -0.08247875 0.00306255
v 0.01845550 -0.08180946 0.00398461
v 0.01251974 -0.08280232 -0.01213319
v 0.01421403 -0.08308600 -0.01044230
v 0.01421403 -0.08200892 -0.01721701
v 0.01510151 -0.08182718 -0.01818085
v 0.01786192 -0.08247875 0.00465316
v 0.01722801 -0.08273140 0.00645827
v 0.01854770 -0.08025367 0.00744439
v 0.01760259 -0.08086978 0.00776195
v 0.01590831 -0.08094956 0.00841937
v 0.01421403 -0.08094956 0.00861158
v 0.01251974 -0.08094956 0.00854472
v 0.01147667 -0.08094956 0.00843608
v 0.01147955 -0.07652155 -0.01942603
v 0.01251974 -0.07925636 -0.01954860
v 0.01473269 -0.08020934 -0.01978538
v 0.01418521 -0.08084318 -0.01917533
v 0.01255144 -0.08110026 -0.01868505
v 0.01313925 -0.08181832 -0.01812513
v 0.01200973 -0.08176070 -0.01788835
v 0.01255144 -0.08192027 -0.01728108
v 0.01251974 -0.08222167 -0.01552055
v 0.01251974 -0.08251421 -0.01382687
v 0.01147667 -0.06604324 -0.00197112
v 0.01147955 -0.06498389 -0.01552333
v 0.01147955 -0.06525426 -0.01623925
v 0.01147955 -0.06571081 -0.01695516
v 0.01147955 -0.06812206 -0.01811121
v 0.01147955 -0.07079039 -0.01862377
v 0.01147955 -0.07248359 -0.01889119
v 0.01147955 -0.07482835 -0.01925332
v 0.01701766 -0.08041767 -0.01382687
v 0.01818753 -0.08145486 -0.00197112
v 0.01832295 -0.08160999 -0.00027745
v 0.01840939 -0.08172967 0.00141623
v 0.01844685 -0.08179172 0.00246364
v 0.01845550 -0.08180946 0.00359461
v 0.02164236 -0.07639300 0.00480359
v 0.02021605 -0.07852058 0.00589278
v 0.01421403 -0.08183605 -0.01819756
v 0.01538677 -0.08084318 -0.01881041
v 0.01693122 -0.07874663 -0.01842598
v 0.01663731 -0.07987691 -0.01754015
v 0.01676410 -0.08012069 -0.01641196
v 0.01686206 -0.08024037 -0.01552055
v 0.01511303 -0.08020934 -0.01978538
v 0.01815007 -0.08134848 0.00650005
v 0.01871771 -0.08050189 0.00650005
v 0.02204288 -0.07537797 0.00602928
v 0.02529314 -0.07006347 0.00573957
v 0.02701912 -0.06676130 0.00575071
v 0.02022758 -0.07691604 0.00739146
v 0.01881280 -0.07925636 0.00755581
v 0.01590831 -0.07925636 0.00840823
v 0.01421403 -0.07925636 0.00861158
v 0.02606824 -0.06468691 0.00636913
v 0.02539399 -0.06468691 0.00651955
v 0.02026792 -0.06468691 0.00756139
v 0.01929976 -0.06468691 0.00775638
v 0.01862550 -0.06468691 0.00786781
v 0.01251974 -0.07756317 0.00865893
v 0.01251974 -0.07925636 0.00864501
v 0.01147667 -0.07925636 0.00858651
v 0.02606824 -0.05555164 -0.01913911
v 0.01473269 -0.07991237 -0.01978538
v 0.01147667 -0.06609643 -0.00027745
v 0.01149972 -0.05724040 -0.01601918
v 0.01149972 -0.05724040 -0.01660974
v 0.01156599 -0.05609240 -0.01651781
v 0.01242177 -0.05555164 -0.01688830
v 0.01251974 -0.05724040 -0.01716965
v 0.01421691 -0.05555164 -0.01755129
v 0.01738937 -0.05555164 -0.01797749
v 0.02437396 -0.05555164 -0.01891347
v 0.01868889 -0.08042210 -0.00366480
v 0.01891653 -0.07899485 -0.00874584
v 0.01878686 -0.08060826 -0.00197112
v 0.01947841 -0.07925636 -0.00366480
v 0.02013249 -0.07839647 -0.00271489
v 0.01886754 -0.08076339 -0.00027745
v 0.02018724 -0.07847625 -0.00158670
v 0.01971468 -0.07941150 -0.00027745
v 0.02023622 -0.07856934 -0.00027745
v 0.02084997 -0.07756317 -0.00027745
v 0.02159914 -0.07630436 -0.00027745
v 0.02211204 -0.07549322 0.00141623
v 0.02396480 -0.07238608 0.00310991
v 0.02348360 -0.07325483 0.00480359
v 0.02209763 -0.06876033 -0.01831177
v 0.02348936 -0.06650865 -0.01799421
v 0.02178932 -0.06988617 -0.01793571
v 0.02007486 -0.07321938 -0.01780478
v 0.01836041 -0.07654814 -0.01767386
v 0.03897994 -0.04322944 -0.00845056
v 0.03725109 -0.04653161 -0.00837256
v 0.01947841 -0.07756317 -0.01044230
v 0.01983282 -0.07750555 -0.00888790
v 0.01874076 -0.07881755 -0.01044230
v 0.01511303 -0.07991237 -0.01978538
v 0.02606824 -0.05724040 -0.01910290
v 0.02789796 -0.05555164 -0.01876026
v 0.02816305 -0.05555164 -0.01863769
v 0.02749167 -0.05724040 -0.01859312
v 0.02715454 -0.05857900 -0.01836470
v 0.02378327 -0.06538281 -0.01832849
v 0.02397920 -0.07240824 0.00480359
v 0.02482635 -0.07095882 0.00480359
v 0.02531907 -0.07011223 0.00480359
v 0.02709115 -0.06689428 0.00480359
v 0.03792246 -0.04531712 -0.00036937
v 0.03852180 -0.04394307 -0.00036937
v 0.04017286 -0.04010900 -0.00036937
v 0.04064253 -0.03884132 -0.00036937
v 0.02754354 -0.06468691 0.00590392
v 0.02705657 -0.06468691 0.00607942
v 0.01760259 -0.06468691 0.00797645
v 0.01421403 -0.07756317 0.00857258
v 0.01251974 -0.07248359 0.00856422
v 0.01147667 -0.07586998 0.00867286
v 0.01147667 -0.07756317 0.00866729
v 0.01147667 -0.07352078 0.00863108
v 0.02794694 -0.03884132 -0.01192148
v 0.03914419 -0.03884132 -0.01192148
v 0.01147667 -0.06641114 0.00650005
v 0.01156599 -0.05609240 -0.01612782
v 0.01147667 -0.06649535 0.00740817
v 0.01825956 -0.04446609 -0.00632789
v 0.01239872 -0.05555164 -0.01687437
v 0.01925654 -0.07925636 -0.00536405
v 0.01990486 -0.07785571 -0.00705216
v 0.02008639 -0.07830782 -0.00366480
v 0.02060217 -0.07772274 -0.00207976
v 0.02208322 -0.07545776 -0.00027745
v 0.02344902 -0.07319278 0.00141623
v 0.02288138 -0.07417679 0.00141623
v 0.02481194 -0.07091894 0.00310991
v 0.02856933 -0.05633175 -0.01796914
v 0.03704074 -0.04443063 -0.01192148
v 0.03668633 -0.04513982 -0.01192148
v 0.03876960 -0.04282609 -0.00957875
v 0.03927674 -0.04215679 -0.00890740
v 0.03988183 -0.04199279 -0.00705216
v 0.03915860 -0.04351312 -0.00705216
v 0.02529602 -0.07007234 0.00310991
v 0.02584349 -0.06909720 0.00310991
v 0.02661572 -0.06770984 0.00310991
v 0.02707963 -0.06685881 0.00310991
v 0.03919029 -0.04359290 -0.00536127
v 0.03869757 -0.04437301 -0.00366759
v 0.03733465 -0.04657150 -0.00036937
v 0.03862265 -0.04418685 -0.00197112
v 0.03957064 -0.04199279 -0.00197112
v 0.04049846 -0.03951948 -0.00090143
v 0.04065118 -0.03884132 -0.00041116
v 0.02967003 -0.03884132 -0.00036937
v 0.01691393 -0.06468691 0.00787338
v 0.01147667 -0.06739071 0.00785945
v 0.01147667 -0.06909720 0.00836087
v 0.01251974 -0.06909720 0.00839151
v 0.01251974 -0.07079039 0.00851965
v 0.01421403 -0.07079039 0.00839987
v 0.01421403 -0.07417679 0.00848901
v 0.01147667 -0.07248359 0.00861158
v 0.02737353 -0.03884132 -0.00705216
v 0.03886469 -0.03971451 -0.01192148
v 0.03982709 -0.03884132 -0.01016373
v 0.04005184 -0.04016662 -0.00860377
v 0.03920758 -0.04038824 -0.01054537
v 0.03892520 -0.03988738 -0.01164292
v 0.01785616 -0.04531269 -0.00541141
v 0.01825956 -0.04446609 -0.00600754
v 0.01987316 -0.04712999 -0.00036937
v 0.02001723 -0.04616372 -0.00097386
v 0.01836905 -0.04613269 -0.00267868
v 0.01814142 -0.04585788 -0.00366759
v 0.02386395 -0.07225753 -0.00027745
v 0.02525568 -0.07000585 0.00181180
v 0.02392734 -0.07234175 0.00141623
v 0.03871486 -0.04014889 -0.01192148
v 0.03857367 -0.04055224 -0.01192148
v 0.03806077 -0.04201495 -0.01192148
v 0.03740092 -0.04363723 -0.01192148
v 0.03897130 -0.04170025 -0.01005231
v 0.04048694 -0.03951505 -0.00794357
v 0.04034863 -0.04068522 -0.00705216
v 0.03996540 -0.04199279 -0.00536127
v 0.04039473 -0.04087581 -0.00536127
v 0.03909809 -0.04352198 -0.00366759
v 0.03978675 -0.04199279 -0.00366759
v 0.04053592 -0.03963916 -0.00197112
v 0.04075203 -0.03884132 -0.00197112
v 0.02811694 -0.03884132 -0.00356730
v 0.01584204 -0.06468691 0.00769231
v 0.01147667 -0.07013439 0.00848344
v 0.01147667 -0.07079039 0.00853358
v 0.01147667 -0.07182758 0.00859208
v 0.02739947 -0.03884132 -0.00572340
v 0.04033998 -0.03884132 -0.00881269
v 0.03872926 -0.04101765 -0.01118050
v 0.02799304 -0.03884132 -0.00385144
v 0.02744269 -0.03884132 -0.00534734
v 0.04057338 -0.03884132 -0.00818313
v 0.04081830 -0.03884132 -0.00705216
v 0.04056474 -0.03983862 -0.00705216
v 0.04061372 -0.04002478 -0.00536127
v 0.04083559 -0.03884132 -0.00677081
v 0.04091339 -0.03884132 -0.00536127
f 1 2 3
f 1 3 8
f 1 8 17
f 1 17 34
f 1 34 69
f 1 69 119
f 1 119 176
f 1 176 175
f 1 175 177
f 1 177 219
f 1 219 252
f 1 252 251
f 1 251 250
f 1 250 214
f 1 214 213
f 1 213 182
f 1 182 180
f 1 180 122
f 1 122 80
f 1 80 50
f 1 50 19
f 1 19 9
f 1 9 4
f 1 4 5
f 1 5 6
f 1 6 2
f 2 6 7
f 2 7 3
f 3 7 8
f 4 9 10
f 4 10 5
f 5 11 6
f 5 10 11
f 6 11 12
f 6 12 7
f 7 12 13
f 7 13 14
f 7 14 15
f 7 15 16
f 7 16 8
f 8 16 17
f 9 18 10
f 9 19 20
f 9 20 18
f 10 18 11
f 11 21 22
f 11 22 12
f 11 18 21
f 12 23 24
f 12 24 13
f 12 22 25
f 12 25 26
f 12 26 23
f 13 24 27
f 13 27 28
f 13 28 14
f 14 28 29
f 14 29 30
f 14 30 31
f 14 31 32
f 14 32 33
f 14 33 15
f 15 33 34
f 15 34 16
f 16 34 17
f 18 35 21
f 18 20 35
f 19 36 37
f 19 37 38
f 19 38 39
f 19 39 40
f 19 40 41
f 19 41 42
f 19 42 43
f 19 43 44
f 19 44 45
f 19 45 46
f 19 46 47
f 19 47 48
f 19 48 49
f 19 49 20
f 19 50 36
f 20 51 35
f 20 49 51
f 21 52 22
f 21 35 52
f 22 52 51
f 22 51 53
f 22 53 25
f 23 26 54
f 23 54 24
f 24 54 55
f 24 55 56
f 24 56 57
f 24 57 27
f 25 53 58
f 25 58 59
f 25 59 60
f 25 60 26
f 26 60 61
f 26 61 54
f 27 57 62
f 27 62 29
f 27 29 28
f 29 62 63
f 29 63 30
f 30 63 64
f 30 64 31
f 31 64 65
f 31 65 32
f 32 65 66
f 32 66 33
f 33 66 67
f 33 67 68
f 33 68 69
f 33 69 34
f 35 51 52
f 36 70 71
f 36 71 37
f 36 50 70
f 37 71 72
f 37 72 38
f 38 73 74
f 38 74 75
f 38 75 39
f 38 72 73
f 39 75 76
f 39 76 40
f 40 76 41
f 41 76 77
f 41 77 42
f 42 77 78
f 42 78 43
f 43 78 79
f 43 79 58
f 43 58 44
f 44 58 45
f 45 58 53
f 45 53 46
f 46 53 47
f 47 53 48
f 48 53 51
f 48 51 49
f 50 80 81
f 50 81 82
f 50 82 83
f 50 83 84
f 50 84 85
f 50 85 86
f 50 86 87
f 50 87 70
f 54 61 88
f 54 88 89
f 54 89 90
f 54 90 55
f 55 90 91
f 55 91 92
f 55 92 56
f 56 92 93
f 56 93 57
f 57 93 94
f 57 94 95
f 57 95 62
f 58 79 75
f 58 75 60
f 58 60 59
f 60 75 96
f 60 96 61
f 61 97 98
f 61 98 99
f 61 99 100
f 61 100 101
f 61 101 88
f 61 96 102
f 61 102 97
f 62 95 63
f 63 95 103
f 63 103 64
f 64 103 104
f 64 104 95
f 64 95 105
f 64 105 106
f 64 106 107
f 64 107 108
f 64 108 109
f 64 109 65
f 65 109 66
f 66 110 111
f 66 111 67
f 66 109 108
f 66 108 112
f 66 112 113
f 66 113 114
f 66 114 115
f 66 115 116
f 66 116 110
f 67 111 117
f 67 117 118
f 67 118 68
f 68 118 119
f 68 119 69
f 70 87 120
f 70 120 121
f 70 121 71
f 71 121 72
f 72 121 155
f 72 155 102
f 72 102 73
f 73 96 75
f 73 75 74
f 73 102 96
f 75 79 77
f 75 77 76
f 77 79 78
f 80 122 123
f 80 123 124
f 80 124 81
f 81 124 82
f 82 124 83
f 83 124 84
f 84 124 85
f 85 124 86
f 86 124 87
f 87 124 125
f 87 125 126
f 87 126 127
f 87 127 128
f 87 128 129
f 87 129 130
f 87 130 120
f 88 131 89
f 88 101 132
f 88 132 131
f 89 131 90
f 90 131 133
f 90 133 134
f 90 134 135
f 90 135 136
f 90 136 91
f 91 136 137
f 91 137 138
f 91 138 139
f 91 139 92
f 92 139 140
f 92 140 141
f 92 141 142
f 92 142 143
f 92 143 93
f 93 143 144
f 93 144 94
f 94 144 106
f 94 106 95
f 95 106 105
f 95 104 103
f 97 102 98
f 98 102 145
f 98 145 146
f 98 146 147
f 98 147 148
f 98 148 149
f 98 149 99
f 99 149 150
f 99 150 151
f 99 151 100
f 100 151 152
f 100 152 153
f 100 153 154
f 100 154 101
f 101 154 132
f 102 155 120
f 102 120 156
f 102 156 157
f 102 157 158
f 102 158 159
f 102 159 160
f 102 160 161
f 102 161 145
f 106 144 162
f 106 162 163
f 106 163 164
f 106 164 165
f 106 165 107
f 107 165 166
f 107 166 167
f 107 167 168
f 107 168 169
f 107 169 170
f 107 170 108
f 108 170 171
f 108 171 112
f 110 116 111
f 111 116 172
f 111 172 173
f 111 173 174
f 111 174 117
f 112 171 169
f 112 169 113
f 113 169 114
f 114 169 115
f 115 169 116
f 116 169 172
f 117 175 176
f 117 176 118
f 117 174 177
f 117 177 175
f 118 176 119
f 120 157 156
f 120 155 121
f 120 130 178
f 120 178 179
f 120 179 157
f 122 180 123
f 123 181 125
f 123 125 124
f 123 180 182
f 123 182 181
f 125 181 227
f 125 227 183
f 125 183 178
f 125 178 184
f 125 184 126
f 126 128 127
f 126 184 178
f 126 178 128
f 128 178 129
f 129 178 130
f 131 132 185
f 131 185 133
f 132 154 153
f 132 153 186
f 132 186 185
f 133 185 134
f 134 185 187
f 134 187 135
f 135 187 188
f 135 188 137
f 135 137 136
f 137 188 140
f 137 140 139
f 137 139 138
f 140 188 141
f 141 188 189
f 141 189 190
f 141 190 191
f 141 191 142
f 142 191 143
f 143 191 192
f 143 192 164
f 143 164 163
f 143 163 162
f 143 162 144
f 145 161 146
f 146 161 160
f 146 160 193
f 146 193 194
f 146 194 195
f 146 195 196
f 146 196 147
f 147 196 150
f 147 150 148
f 148 150 149
f 150 196 197
f 150 197 198
f 150 198 199
f 150 199 151
f 151 199 153
f 151 153 152
f 153 199 186
f 157 179 158
f 158 193 159
f 158 179 193
f 159 193 160
f 164 192 200
f 164 200 201
f 164 201 202
f 164 202 165
f 165 202 203
f 165 203 204
f 165 204 205
f 165 205 206
f 165 206 166
f 166 206 207
f 166 207 167
f 167 207 208
f 167 208 209
f 167 209 168
f 168 209 210
f 168 210 169
f 169 210 247
f 169 247 263
f 169 263 262
f 169 262 259
f 169 259 258
f 169 258 254
f 169 254 222
f 169 222 179
f 169 179 178
f 169 178 220
f 169 220 253
f 169 253 257
f 169 257 256
f 169 256 248
f 169 248 211
f 169 211 172
f 169 171 170
f 172 211 212
f 172 212 213
f 172 213 214
f 172 214 215
f 172 215 216
f 172 216 217
f 172 217 218
f 172 218 173
f 173 218 174
f 174 219 177
f 174 218 217
f 174 217 216
f 174 216 219
f 178 183 220
f 179 221 193
f 179 222 223
f 179 223 224
f 179 224 225
f 179 225 221
f 181 226 227
f 181 182 226
f 182 213 211
f 182 211 228
f 182 228 229
f 182 229 230
f 182 230 231
f 182 231 226
f 183 227 220
f 185 186 187
f 186 199 187
f 187 199 188
f 188 199 189
f 189 232 233
f 189 233 201
f 189 201 234
f 189 234 200
f 189 200 190
f 189 199 232
f 190 200 192
f 190 192 191
f 193 221 235
f 193 235 236
f 193 236 237
f 193 237 238
f 193 238 194
f 194 238 196
f 194 196 195
f 196 238 237
f 196 237 239
f 196 239 197
f 197 239 224
f 197 224 223
f 197 223 240
f 197 240 241
f 197 241 198
f 198 242 199
f 198 241 243
f 198 243 242
f 199 242 204
f 199 204 203
f 199 203 202
f 199 202 232
f 200 234 201
f 201 233 202
f 202 233 232
f 204 242 205
f 205 242 244
f 205 244 207
f 205 207 206
f 207 244 242
f 207 242 245
f 207 245 208
f 208 245 209
f 209 246 210
f 209 245 242
f 209 242 243
f 209 243 246
f 210 246 247
f 211 248 227
f 211 227 230
f 211 230 229
f 211 229 228
f 211 213 249
f 211 249 212
f 212 249 213
f 214 250 215
f 215 250 251
f 215 251 216
f 216 251 252
f 216 252 219
f 220 227 253
f 221 225 235
f 222 254 240
f 222 240 223
f 224 239 225
f 225 239 255
f 225 255 235
f 226 231 227
f 227 231 230
f 227 248 256
f 227 256 257
f 227 257 253
f 235 255 236
f 236 255 237
f 237 255 239
f 240 254 258
f 240 258 259
f 240 259 260
f 240 260 241
f 241 261 243
f 241 260 262
f 241 262 261
f 243 261 247
f 243 247 246
f 247 261 263
f 259 262 260
f 261 262 263

