# https://github.com/mikedh/trimesh
v 0.01193783 -0.05554627 -0.01556239
v 0.01239702 -0.05554627 -0.01687607
v 0.01278485 -0.05554627 -0.01424319
v 0.01621947 0.01221867 -0.00042007
v 0.01466505 0.01410027 -0.01016782
v 0.01466505 0.01410027 -0.01436646
v 0.01242184 -0.05554627 -0.01688895
v 0.01466505 -0.00133432 -0.01600028
v 0.01466505 -0.00980153 -0.01670496
v 0.01466505 -0.01149224 -0.01684111
v 0.01421827 -0.05554627 -0.01384025
v 0.02966941 -0.03883001 -0.00036671
v 0.01826721 -0.00305230 -0.00042007
v 0.01826101 -0.00303185 -0.00042007
v 0.01786387 -0.00147067 -0.00042007
v 0.01750707 0.00015869 -0.00042007
v 0.01638391 0.01045296 -0.00042007
v 0.02843456 -0.02634054 -0.00036671
v 0.01673451 0.01410027 -0.00042007
v 0.01929729 0.01410027 -0.01458173
v 0.01421827 -0.05553945 -0.01755315
v 0.01421827 -0.05554627 -0.01755315
v 0.02607345 -0.00980153 -0.01708950
v 0.02437941 -0.00980153 -0.01704534
v 0.01929729 -0.00980153 -0.01686871
v 0.01590921 -0.00980153 -0.01674912
v 0.03149065 -0.02193650 -0.01811064
v 0.03453744 -0.03013101 -0.01876564
v 0.03453744 -0.03182172 -0.01885396
v 0.03453744 -0.03351244 -0.01892755
v 0.03453744 -0.03520997 -0.01899747
v 0.03453744 -0.03690069 -0.01906371
v 0.02776439 -0.05215121 -0.01915938
v 0.02607655 -0.05553945 -0.01913730
v 0.02438251 -0.05554627 -0.01891651
v 0.02099133 -0.05553945 -0.01846206
v 0.01591231 -0.05553945 -0.01778130
v 0.02126436 -0.05554627 -0.01213651
v 0.02125816 -0.05553945 -0.01192124
v 0.02985556 -0.05554627 -0.01192124
v 0.04064033 -0.03883001 -0.00036671
v 0.04293008 -0.02634054 -0.00036671
v 0.03044507 0.01410027 -0.00042007
v 0.02098823 0.01410027 -0.01427998
v 0.03284341 -0.01488049 -0.01703062
v 0.03114626 -0.01488049 -0.01731213
v 0.02945222 -0.01318977 -0.01731581
v 0.02776439 -0.01149224 -0.01721645
v 0.01591231 -0.05554627 -0.01778130
v 0.02945222 -0.01657802 -0.01766539
v 0.03246488 -0.02193650 -0.01811064
v 0.03453744 -0.02843348 -0.01863317
v 0.03623148 -0.03182172 -0.01889259
v 0.03623148 -0.03351244 -0.01902139
v 0.03453744 -0.03859822 -0.01908762
v 0.03114936 -0.04705861 -0.01913362
v 0.02776439 -0.05384192 -0.01916306
v 0.02607655 -0.05554627 -0.01913730
v 0.02099133 -0.05554627 -0.01846206
v 0.03110283 -0.05554627 -0.01213651
v 0.03117729 -0.05553945 -0.01192124
v 0.04064964 -0.03883001 -0.00041271
v 0.04066515 -0.03876184 -0.00036671
v 0.04298903 -0.02673595 -0.00036671
v 0.04166420 -0.01657120 -0.00042007
v 0.04164248 -0.01646213 -0.00042007
v 0.04121432 -0.01489412 -0.00042007
v 0.04227542 -0.01375562 -0.00641628
v 0.03036440 0.01410027 -0.00140625
v 0.04219785 -0.01395332 -0.00440712
v 0.04227232 -0.01376925 -0.00536018
v 0.02244957 0.01410027 -0.01353667
v 0.03695440 -0.01599854 -0.01630387
v 0.03582193 -0.01530317 -0.01649153
v 0.03453744 -0.01657802 -0.01700486
v 0.03453744 -0.01826874 -0.01725877
v 0.03463362 -0.02321135 -0.01798369
v 0.03413720 -0.02370220 -0.01813824
v 0.03114626 -0.01657802 -0.01756419
v 0.03295510 -0.02149337 -0.01800025
v 0.02945222 -0.01488049 -0.01750348
v 0.03623148 -0.03013101 -0.01871597
v 0.03744772 -0.03013101 -0.01833327
v 0.03758733 -0.03182172 -0.01845654
v 0.03760595 -0.03351244 -0.01855037
v 0.03623148 -0.03520997 -0.01897539
v 0.03284341 -0.04367718 -0.01910970
v 0.03284341 -0.04536789 -0.01890916
v 0.02945532 -0.05045367 -0.01914834
v 0.03114936 -0.04876296 -0.01890916
v 0.02921952 -0.05384192 -0.01860741
v 0.02789470 -0.05554627 -0.01876012
v 0.03056607 -0.05554627 -0.01362498
v 0.03401930 -0.05020825 -0.01192124
v 0.04081718 -0.03883001 -0.00705288
v 0.04083270 -0.03883001 -0.00677322
v 0.04091026 -0.03883001 -0.00536018
v 0.04075203 -0.03883001 -0.00197294
v 0.04068687 -0.03868684 -0.00036671
v 0.04339857 -0.02673595 -0.00366748
v 0.04288354 -0.01826874 -0.00536018
v 0.04273771 -0.01657120 -0.00536018
v 0.04216062 -0.01572585 -0.00281561
v 0.04305418 -0.02833803 -0.00036671
v 0.04046348 -0.01404877 -0.00959193
v 0.04080167 -0.01318296 -0.00843648
v 0.02854005 0.01410027 -0.00949810
v 0.02899613 0.01410027 -0.00864991
v 0.02960115 0.01410027 -0.00721295
v 0.02964769 0.01410027 -0.00705288
v 0.02997346 0.01410027 -0.00561593
v 0.03001070 0.01410027 -0.00533626
v 0.04252053 -0.01488049 -0.00536018
v 0.04240263 -0.01488049 -0.00673826
v 0.04212959 -0.01586901 -0.00783300
v 0.04197136 -0.01488049 -0.00758461
v 0.03885631 -0.01550769 -0.01312453
v 0.04225680 -0.01505092 -0.00377235
v 0.02276293 0.01410027 -0.01337476
v 0.03688924 -0.02610875 -0.01802049
v 0.03632456 -0.01657120 -0.01659273
v 0.02652023 0.01410027 -0.01116688
v 0.02661020 0.01410027 -0.01110801
v 0.02769613 0.01410027 -0.01026166
v 0.03737015 -0.01488049 -0.01513737
v 0.03759044 -0.01657120 -0.01565254
v 0.03887183 -0.01880049 -0.01479883
v 0.03712815 -0.01713023 -0.01641242
v 0.03714986 -0.02724043 -0.01811616
v 0.03628733 -0.02670186 -0.01822471
v 0.03526656 -0.02432259 -0.01804440
v 0.03623148 -0.02843348 -0.01849334
v 0.03728018 -0.02843348 -0.01820448
v 0.03829474 -0.03013101 -0.01753843
v 0.03812409 -0.02843348 -0.01742436
v 0.03843436 -0.03182172 -0.01756971
v 0.03850261 -0.03362834 -0.01718701
v 0.03743220 -0.03520997 -0.01846758
v 0.03598948 -0.03859822 -0.01859453
v 0.03453744 -0.04029575 -0.01896435
v 0.03285892 -0.04694271 -0.01853750
v 0.03425200 -0.04367718 -0.01859453
v 0.03058468 -0.05184442 -0.01839766
v 0.02886893 -0.05519177 -0.01838662
v 0.02816152 -0.05554627 -0.01863869
v 0.02988969 -0.05554627 -0.01548143
v 0.02969112 -0.05554627 -0.01602604
v 0.03377730 -0.04977194 -0.01321469
v 0.03490355 -0.04853117 -0.01192124
v 0.04220406 -0.03283752 -0.00801883
v 0.04304798 -0.03012419 -0.00705288
v 0.03569473 -0.04702453 -0.01192124
v 0.03668757 -0.04512929 -0.01192124
v 0.03703817 -0.04442028 -0.01192124
v 0.04057518 -0.03883001 -0.00818442
v 0.04116468 -0.03690069 -0.00036671
v 0.04081408 -0.03859140 -0.00197294
v 0.04347924 -0.02843348 -0.00705288
v 0.04308521 -0.03012419 -0.00536018
v 0.04305728 -0.02843348 -0.00036671
v 0.04359714 -0.02673595 -0.00536018
v 0.04363438 -0.02673595 -0.00705288
v 0.04348235 -0.02503841 -0.00705288
v 0.04297041 -0.01995945 -0.00705288
v 0.04279046 -0.01826874 -0.00705288
v 0.03715297 -0.01385788 -0.01479147
v 0.03824820 -0.01492821 -0.01374457
v 0.04249881 -0.01648940 -0.00718168
v 0.04224439 -0.01700070 -0.00808506
v 0.04211098 -0.01946178 -0.00946866
v 0.04130119 -0.02165017 -0.01213467
v 0.04084510 -0.02004126 -0.01217699
v 0.04051622 -0.02066846 -0.01306197
v 0.04064964 -0.01826874 -0.01159374
v 0.04082649 -0.01668710 -0.01046772
v 0.04032386 -0.01619625 -0.01105097
v 0.03852433 -0.01657802 -0.01426158
v 0.03869498 -0.01766880 -0.01454677
v 0.03901765 -0.01997308 -0.01494602
v 0.04066826 -0.02165017 -0.01326436
v 0.04003532 -0.02165017 -0.01410887
v 0.03919140 -0.02165017 -0.01511161
v 0.03837540 -0.02165017 -0.01595797
v 0.03875703 -0.02597240 -0.01635170
v 0.03878805 -0.02634054 -0.01638666
v 0.03895560 -0.02843348 -0.01657801
v 0.03885321 -0.02711090 -0.01645658
v 0.03897421 -0.03182172 -0.01672336
v 0.03900834 -0.03013101 -0.01669208
v 0.03812720 -0.03520997 -0.01721645
v 0.03888734 -0.03313748 -0.01660193
v 0.03722123 -0.03646437 -0.01825967
v 0.03570093 -0.04029575 -0.01843630
v 0.03392933 -0.04536789 -0.01835535
v 0.03224149 -0.04876296 -0.01834063
v 0.03373076 -0.04629506 -0.01812904
v 0.03201190 -0.04964240 -0.01809040
v 0.03029303 -0.05298293 -0.01804256
v 0.02907060 -0.05554627 -0.01761019
v 0.02921332 -0.05554627 -0.01733237
v 0.03005723 -0.05391010 -0.01737284
v 0.04256087 -0.03025372 -0.00888726
v 0.04303867 -0.02843348 -0.00874558
v 0.03217944 -0.04996282 -0.01721645
v 0.03580953 -0.04542925 -0.01383841
v 0.03557682 -0.04489067 -0.01513737
v 0.03691716 -0.04415440 -0.01256152
v 0.03740118 -0.04362264 -0.01192124
v 0.03805894 -0.04200010 -0.01192124
v 0.03857397 -0.04054799 -0.01192124
v 0.04033938 -0.03883001 -0.00881366
v 0.03881288 -0.03618486 -0.01478043
v 0.03862362 -0.03520997 -0.01597820
v 0.03875083 -0.03426235 -0.01630755
v 0.03987088 -0.03351244 -0.01382921
v 0.04091336 -0.03224440 -0.01192124
v 0.04349786 -0.02843348 -0.00536018
v 0.04279046 -0.03012419 -0.00036671
v 0.04320931 -0.02673595 -0.00874558
v 0.04335824 -0.02843348 -0.00366748
v 0.04280597 -0.03003557 -0.00036671
v 0.04310693 -0.02503841 -0.00874742
v 0.04288974 -0.02334088 -0.00874742
v 0.04239022 -0.01995945 -0.00889094
v 0.04234057 -0.01826874 -0.00836657
v 0.04219165 -0.02060029 -0.00967657
v 0.04206754 -0.02334088 -0.01102705
v 0.04194344 -0.02165017 -0.01071795
v 0.04161146 -0.02334088 -0.01213467
v 0.04085751 -0.02334088 -0.01351459
v 0.04018424 -0.02334088 -0.01436094
v 0.04033627 -0.02504523 -0.01451733
v 0.03934033 -0.02334088 -0.01526617
v 0.03948615 -0.02504523 -0.01542072
v 0.03954820 -0.03182172 -0.01552375
v 0.04039522 -0.02673595 -0.01454493
v 0.04035179 -0.02843348 -0.01444557
v 0.04029284 -0.03013101 -0.01431494
v 0.04069928 -0.03013101 -0.01346859
v 0.03887183 -0.03805283 -0.01323124
v 0.03750667 -0.03698250 -0.01730845
v 0.03701335 -0.03759606 -0.01793401
v 0.04129809 -0.03013101 -0.01213651
v 0.04059379 -0.03145358 -0.01326068
v 0.03549616 -0.04145471 -0.01822655
v 0.03529138 -0.04258640 -0.01786225
v 0.03513005 -0.04377944 -0.01726613
v 0.03534103 -0.04440664 -0.01626523
v 0.03390761 -0.04663593 -0.01721645
v 0.04229404 -0.02977650 -0.00990656
v 0.04086062 -0.03194444 -0.01227266
v 0.04241814 -0.02843348 -0.01015126
v 0.03715297 -0.04302271 -0.01316317
v 0.03797516 -0.04198647 -0.01213651
v 0.03868257 -0.03918451 -0.01277495
v 0.03886252 -0.03970945 -0.01192124
v 0.03759044 -0.03874820 -0.01567646
v 0.03982744 -0.03883001 -0.01016414
v 0.04250502 -0.02673595 -0.01029661
v 0.04241504 -0.02634054 -0.01050820
v 0.04212029 -0.02504523 -0.01119448
v 0.04303867 -0.02634054 -0.00912276
v 0.04312244 -0.02621782 -0.00889094
v 0.04305108 -0.02504523 -0.00889094
v 0.04259189 -0.02147973 -0.00889094
v 0.04247709 -0.02504523 -0.01034629
v 0.04169213 -0.02504523 -0.01213467
v 0.04088854 -0.02504523 -0.01367098
v 0.04082649 -0.02673595 -0.01369858
v 0.04160525 -0.02673595 -0.01213651
v 0.04149046 -0.02843348 -0.01213651
v 0.04203342 -0.02843348 -0.01099761
v 0.03921312 -0.03861185 -0.01192124
v 0.03914486 -0.03883001 -0.01192124
v 0.03902075 -0.03921860 -0.01192124
v 0.04209237 -0.02673595 -0.01114296
v 0.04199928 -0.02634054 -0.01137847
v 0.04162697 -0.02634054 -0.01213651
f 1 2 7
f 1 7 22
f 1 22 49
f 1 49 59
f 1 59 35
f 1 35 58
f 1 58 92
f 1 92 145
f 1 145 199
f 1 199 200
f 1 200 147
f 1 147 146
f 1 146 93
f 1 93 60
f 1 60 40
f 1 40 38
f 1 38 11
f 1 11 3
f 1 3 4
f 1 4 5
f 1 5 6
f 1 6 2
f 2 6 8
f 2 8 9
f 2 9 10
f 2 10 7
f 3 11 12
f 3 12 13
f 3 13 14
f 3 14 15
f 3 15 16
f 3 16 17
f 3 17 4
f 4 17 18
f 4 18 19
f 4 19 5
f 5 19 43
f 5 43 69
f 5 69 112
f 5 112 111
f 5 111 110
f 5 110 109
f 5 109 108
f 5 108 107
f 5 107 124
f 5 124 123
f 5 123 122
f 5 122 119
f 5 119 72
f 5 72 44
f 5 44 20
f 5 20 6
f 6 20 8
f 7 21 22
f 7 10 21
f 8 23 24
f 8 24 25
f 8 25 26
f 8 26 9
f 8 20 23
f 9 26 10
f 10 26 25
f 10 25 24
f 10 24 27
f 10 27 28
f 10 28 29
f 10 29 30
f 10 30 31
f 10 31 32
f 10 32 33
f 10 33 34
f 10 34 35
f 10 35 36
f 10 36 37
f 10 37 21
f 11 38 39
f 11 39 12
f 12 39 40
f 12 40 41
f 12 41 63
f 12 63 99
f 12 99 156
f 12 156 218
f 12 218 221
f 12 221 160
f 12 160 104
f 12 104 64
f 12 64 42
f 12 42 18
f 12 18 17
f 12 17 16
f 12 16 15
f 12 15 14
f 12 14 13
f 18 42 43
f 18 43 19
f 20 44 45
f 20 45 46
f 20 46 47
f 20 47 48
f 20 48 23
f 21 37 49
f 21 49 22
f 23 48 50
f 23 50 27
f 23 27 24
f 27 50 51
f 27 51 52
f 27 52 28
f 28 52 53
f 28 53 54
f 28 54 29
f 29 54 30
f 30 54 31
f 31 54 32
f 32 55 33
f 32 54 55
f 33 55 56
f 33 56 57
f 33 57 34
f 34 57 58
f 34 58 35
f 35 59 36
f 36 59 49
f 36 49 37
f 38 40 39
f 40 60 61
f 40 61 41
f 41 62 63
f 41 61 62
f 42 64 65
f 42 65 66
f 42 66 67
f 42 67 43
f 43 68 69
f 43 67 70
f 43 70 71
f 43 71 68
f 44 72 73
f 44 73 74
f 44 74 75
f 44 75 45
f 45 75 46
f 46 75 76
f 46 76 77
f 46 77 78
f 46 78 79
f 46 79 47
f 47 79 80
f 47 80 51
f 47 51 81
f 47 81 48
f 48 81 50
f 50 81 51
f 51 80 82
f 51 82 53
f 51 53 52
f 53 82 83
f 53 83 84
f 53 84 54
f 54 85 86
f 54 86 55
f 54 84 85
f 55 86 87
f 55 87 56
f 56 87 88
f 56 88 89
f 56 89 57
f 57 89 88
f 57 88 90
f 57 90 91
f 57 91 92
f 57 92 58
f 60 93 94
f 60 94 61
f 61 94 95
f 61 95 96
f 61 96 97
f 61 97 98
f 61 98 62
f 62 98 99
f 62 99 63
f 64 100 101
f 64 101 102
f 64 102 103
f 64 103 65
f 64 104 100
f 65 103 66
f 66 103 70
f 66 70 67
f 68 105 106
f 68 106 107
f 68 107 108
f 68 108 109
f 68 109 110
f 68 110 111
f 68 111 112
f 68 112 69
f 68 71 113
f 68 113 114
f 68 114 115
f 68 115 116
f 68 116 117
f 68 117 105
f 70 103 118
f 70 118 113
f 70 113 71
f 72 119 73
f 73 120 121
f 73 121 74
f 73 119 122
f 73 122 123
f 73 123 124
f 73 124 107
f 73 107 125
f 73 125 126
f 73 126 127
f 73 127 128
f 73 128 129
f 73 129 120
f 74 121 75
f 75 121 120
f 75 120 130
f 75 130 131
f 75 131 76
f 76 131 77
f 77 131 78
f 78 80 79
f 78 131 132
f 78 132 80
f 80 132 82
f 82 132 129
f 82 129 133
f 82 133 83
f 83 134 84
f 83 133 135
f 83 135 134
f 84 136 85
f 84 134 136
f 85 137 138
f 85 138 86
f 85 136 137
f 86 138 139
f 86 139 140
f 86 140 87
f 87 140 88
f 88 141 90
f 88 140 142
f 88 142 141
f 90 141 91
f 91 143 144
f 91 144 145
f 91 145 92
f 91 141 143
f 93 146 94
f 94 146 147
f 94 147 148
f 94 148 149
f 94 149 95
f 95 150 151
f 95 151 96
f 95 149 152
f 95 152 153
f 95 153 154
f 95 154 155
f 95 155 150
f 96 151 97
f 97 156 157
f 97 157 98
f 97 151 158
f 97 158 159
f 97 159 156
f 98 157 156
f 98 156 99
f 100 104 160
f 100 160 161
f 100 161 101
f 101 161 162
f 101 162 102
f 102 162 163
f 102 163 164
f 102 164 165
f 102 165 114
f 102 114 113
f 102 113 118
f 102 118 103
f 105 125 166
f 105 166 107
f 105 107 106
f 105 117 167
f 105 167 125
f 107 166 125
f 114 165 168
f 114 168 169
f 114 169 115
f 115 169 170
f 115 170 171
f 115 171 172
f 115 172 173
f 115 173 174
f 115 174 116
f 116 174 175
f 116 175 176
f 116 176 117
f 117 176 177
f 117 177 125
f 117 125 167
f 120 129 132
f 120 132 130
f 125 177 126
f 126 177 178
f 126 178 127
f 127 179 128
f 127 178 173
f 127 173 180
f 127 180 181
f 127 181 179
f 128 179 182
f 128 182 183
f 128 183 184
f 128 184 185
f 128 185 135
f 128 135 133
f 128 133 129
f 130 132 131
f 134 135 186
f 134 186 136
f 135 187 186
f 135 185 187
f 136 188 137
f 136 186 189
f 136 189 188
f 137 190 138
f 137 188 191
f 137 191 190
f 138 190 192
f 138 192 193
f 138 193 142
f 138 142 139
f 139 142 140
f 141 142 194
f 141 194 195
f 141 195 143
f 142 193 194
f 143 195 144
f 144 195 196
f 144 196 197
f 144 197 198
f 144 198 199
f 144 199 145
f 147 200 148
f 148 200 201
f 148 201 198
f 148 198 153
f 148 153 152
f 148 152 149
f 150 202 203
f 150 203 158
f 150 158 151
f 150 155 202
f 153 198 204
f 153 204 205
f 153 205 154
f 154 205 206
f 154 206 207
f 154 207 208
f 154 208 155
f 155 208 209
f 155 209 210
f 155 210 211
f 155 211 212
f 155 212 213
f 155 213 214
f 155 214 215
f 155 215 216
f 155 216 202
f 156 159 217
f 156 217 218
f 158 217 159
f 158 203 219
f 158 219 162
f 158 162 217
f 160 220 161
f 160 221 220
f 161 220 217
f 161 217 162
f 162 219 222
f 162 222 163
f 163 222 164
f 164 222 165
f 165 222 223
f 165 223 224
f 165 224 225
f 165 225 168
f 168 225 169
f 169 225 170
f 170 225 224
f 170 224 226
f 170 226 227
f 170 227 228
f 170 228 229
f 170 229 171
f 171 229 230
f 171 230 180
f 171 180 172
f 172 180 173
f 173 178 174
f 174 178 177
f 174 177 176
f 174 176 175
f 179 181 231
f 179 231 182
f 180 230 181
f 181 230 231
f 182 231 232
f 182 232 233
f 182 233 183
f 183 233 184
f 184 233 185
f 185 233 234
f 185 234 187
f 186 187 232
f 186 232 189
f 187 234 232
f 188 235 191
f 188 189 236
f 188 236 237
f 188 237 238
f 188 238 239
f 188 239 235
f 189 232 236
f 190 191 214
f 190 214 213
f 190 213 212
f 190 212 240
f 190 240 241
f 190 241 242
f 190 242 192
f 191 235 239
f 191 239 243
f 191 243 203
f 191 203 244
f 191 244 214
f 192 242 245
f 192 245 193
f 193 245 194
f 194 196 195
f 194 245 196
f 196 245 246
f 196 246 247
f 196 247 248
f 196 248 206
f 196 206 205
f 196 205 249
f 196 249 197
f 197 204 198
f 197 249 204
f 198 201 200
f 198 200 199
f 202 250 203
f 202 216 251
f 202 251 250
f 203 250 244
f 203 243 252
f 203 252 219
f 204 249 205
f 206 248 207
f 207 248 208
f 208 248 253
f 208 253 209
f 209 253 248
f 209 248 254
f 209 254 210
f 210 255 256
f 210 256 211
f 210 254 257
f 210 257 241
f 210 241 255
f 211 258 212
f 211 256 258
f 212 258 240
f 214 244 250
f 214 250 251
f 214 251 215
f 215 251 216
f 217 220 221
f 217 221 218
f 219 252 259
f 219 259 260
f 219 260 261
f 219 261 262
f 219 262 263
f 219 263 222
f 222 263 264
f 222 264 227
f 222 227 223
f 223 227 265
f 223 265 224
f 224 265 226
f 226 265 227
f 227 264 266
f 227 266 229
f 227 229 228
f 229 266 261
f 229 261 267
f 229 267 268
f 229 268 230
f 230 268 232
f 230 232 231
f 232 234 233
f 232 268 236
f 236 269 237
f 236 268 267
f 236 267 269
f 237 269 270
f 237 270 271
f 237 271 238
f 238 271 239
f 239 271 272
f 239 272 252
f 239 252 243
f 240 258 273
f 240 273 274
f 240 274 275
f 240 275 256
f 240 256 255
f 240 255 241
f 241 257 247
f 241 247 246
f 241 246 242
f 242 246 245
f 247 257 248
f 248 257 254
f 252 272 259
f 256 275 258
f 258 275 274
f 258 274 273
f 259 272 271
f 259 271 276
f 259 276 277
f 259 277 267
f 259 267 260
f 260 267 261
f 261 266 262
f 262 266 264
f 262 264 263
f 267 277 278
f 267 278 269
f 269 278 270
f 270 278 277
f 270 277 276
f 270 276 271

