# https://github.com/mikedh/trimesh
v 0.00228357 0.00451756 -0.00547697
v 0.00269791 0.00412512 -0.00547697
v 0.01466065 0.01410027 -0.01016942
v 0.01438927 0.01410027 -0.01014700
v 0.01251502 0.01410027 -0.00999423
v 0.01082128 0.01410027 -0.00986528
v 0.00911180 0.01410027 -0.00974054
v 0.00755255 0.01410027 -0.00965925
v 0.00641976 0.01357939 -0.00951910
v 0.00621380 0.01410027 -0.01032360
v 0.00482901 0.01150302 -0.00953732
v 0.00228357 0.00799602 -0.01107203
v 0.00228357 -0.00813333 -0.00547697
v 0.00275728 0.00406804 -0.00547697
v 0.01466065 0.01410027 -0.01436713
v 0.00280574 0.00400739 -0.00547697
v 0.00338728 0.00321894 -0.00547697
v 0.00534149 0.00014719 -0.00547697
v 0.00623682 -0.00148680 -0.00547697
v 0.01466065 -0.00837950 -0.00971952
v 0.00751620 0.01410027 -0.00967327
v 0.00623803 0.01410027 -0.01029697
v 0.00626590 0.01410027 -0.01193821
v 0.00228357 0.00861322 -0.01382332
v 0.00228357 0.00861322 -0.01378407
v 0.00228357 0.00840630 -0.01214984
v 0.00228357 -0.01279625 -0.01077350
v 0.01466065 -0.02223626 -0.01398590
v 0.01466065 -0.02051308 -0.01288567
v 0.00234778 -0.00806911 -0.00547697
v 0.01420996 0.01410027 -0.01434891
v 0.01466065 -0.00132982 -0.01600276
v 0.01189228 -0.00011325 -0.01824527
v 0.01082128 -0.00132982 -0.01905958
v 0.01092063 0.00041476 -0.01871199
v 0.00912755 0.00036481 -0.01921656
v 0.00286511 0.00455680 -0.01805466
v 0.00228357 0.00459605 -0.01806306
v 0.00228357 0.00529531 -0.01781078
v 0.00615201 -0.00286034 -0.00547697
v 0.01466065 -0.00939628 -0.00978680
v 0.00750046 0.01410027 -0.01242455
v 0.00642703 0.01325117 -0.01309170
v 0.00228357 0.00736455 -0.01665168
v 0.00228357 0.00817084 -0.01561312
v 0.00228357 0.00824219 -0.01542391
v 0.00228357 0.00826003 -0.01536084
v 0.00228357 -0.01364892 -0.01217227
v 0.00228357 -0.01367033 -0.01223954
v 0.00228357 -0.01387368 -0.01390321
v 0.01466065 -0.02234685 -0.01496419
v 0.00316315 -0.00722358 -0.00547697
v 0.00267490 -0.00773732 -0.00547697
v 0.00243259 -0.00798349 -0.00547697
v 0.01402944 0.01410027 -0.01433209
v 0.00228357 0.00720043 -0.01684370
v 0.01466065 -0.00979586 -0.01670634
v 0.01466065 -0.01149049 -0.01684230
v 0.00839336 -0.00582863 -0.01979400
v 0.00839336 -0.00528278 -0.01979400
v 0.00912755 -0.00302445 -0.01954873
v 0.00912755 -0.00132982 -0.01947725
v 0.00228357 0.00392533 -0.01817799
v 0.00228357 0.00394317 -0.01817519
v 0.00528455 -0.00426600 -0.00547697
v 0.00522519 -0.00435519 -0.00547697
v 0.00464607 -0.00520429 -0.00547697
v 0.00380647 -0.00639232 -0.00547697
v 0.01251502 0.01410027 -0.01414988
v 0.00300444 0.00805310 -0.01642743
v 0.00228357 -0.01386298 -0.01397048
v 0.00228357 -0.01162250 -0.01848213
v 0.00404515 -0.00979586 -0.01902174
v 0.00743382 -0.00810122 -0.01929925
v 0.01466065 -0.02181884 -0.01506931
v 0.00228357 -0.01340275 -0.01552342
v 0.00228357 -0.01338135 -0.01559070
v 0.00228357 -0.01263214 -0.01733565
v 0.00228357 -0.01261787 -0.01736789
v 0.00228357 -0.01260003 -0.01740433
v 0.00228357 -0.01168671 -0.01844289
v 0.01466065 -0.01304242 -0.01660403
v 0.00815105 -0.00582863 -0.01979400
v 0.00228357 -0.00979586 -0.01903856
v 0.00815105 -0.00528278 -0.01979400
v 0.00228357 0.00036481 -0.01865733
v 0.00228357 0.00205945 -0.01844990
v 0.00228357 0.00213080 -0.01844009
v 0.00228357 -0.00810122 -0.01907780
v 0.00228357 -0.00471552 -0.01900912
v 0.00228357 -0.00295667 -0.01891101
v 0.00228357 -0.00132982 -0.01881150
v 0.00228357 -0.00126203 -0.01880590
v 0.00228357 -0.00641016 -0.01907360
f 1 2 3
f 1 3 4
f 1 4 5
f 1 5 6
f 1 6 7
f 1 7 8
f 1 8 9
f 1 9 10
f 1 10 11
f 1 11 12
f 1 12 26
f 1 26 25
f 1 25 24
f 1 24 47
f 1 47 46
f 1 46 45
f 1 45 44
f 1 44 56
f 1 56 39
f 1 39 38
f 1 38 64
f 1 64 63
f 1 63 88
f 1 88 87
f 1 87 86
f 1 86 93
f 1 93 92
f 1 92 91
f 1 91 90
f 1 90 94
f 1 94 89
f 1 89 84
f 1 84 72
f 1 72 81
f 1 81 80
f 1 80 79
f 1 79 78
f 1 78 77
f 1 77 76
f 1 76 71
f 1 71 50
f 1 50 49
f 1 49 48
f 1 48 27
f 1 27 13
f 1 13 30
f 1 30 54
f 1 54 53
f 1 53 52
f 1 52 68
f 1 68 67
f 1 67 66
f 1 66 65
f 1 65 40
f 1 40 19
f 1 19 18
f 1 18 17
f 1 17 16
f 1 16 14
f 1 14 2
f 2 14 3
f 3 15 31
f 3 31 55
f 3 55 69
f 3 69 42
f 3 42 23
f 3 23 10
f 3 10 22
f 3 22 21
f 3 21 8
f 3 8 7
f 3 7 6
f 3 6 5
f 3 5 4
f 3 14 16
f 3 16 17
f 3 17 18
f 3 18 19
f 3 19 20
f 3 20 41
f 3 41 29
f 3 29 28
f 3 28 51
f 3 51 75
f 3 75 82
f 3 82 58
f 3 58 57
f 3 57 32
f 3 32 15
f 8 21 9
f 9 21 22
f 9 22 10
f 10 23 24
f 10 24 25
f 10 25 26
f 10 26 12
f 10 12 11
f 13 27 28
f 13 28 29
f 13 29 30
f 15 32 33
f 15 33 34
f 15 34 35
f 15 35 36
f 15 36 37
f 15 37 38
f 15 38 39
f 15 39 31
f 19 40 20
f 20 40 41
f 23 42 43
f 23 43 44
f 23 44 45
f 23 45 46
f 23 46 47
f 23 47 24
f 27 48 28
f 28 48 49
f 28 49 50
f 28 50 51
f 29 41 52
f 29 52 53
f 29 53 54
f 29 54 30
f 31 39 56
f 31 56 55
f 32 57 33
f 33 57 58
f 33 58 34
f 34 58 59
f 34 59 60
f 34 60 61
f 34 61 62
f 34 62 36
f 34 36 35
f 36 63 64
f 36 64 38
f 36 38 37
f 36 62 63
f 40 65 41
f 41 65 66
f 41 66 67
f 41 67 68
f 41 68 52
f 42 69 43
f 43 69 70
f 43 70 44
f 44 70 56
f 50 71 51
f 51 72 73
f 51 73 74
f 51 74 59
f 51 59 75
f 51 71 76
f 51 76 77
f 51 77 78
f 51 78 79
f 51 79 80
f 51 80 81
f 51 81 72
f 55 56 69
f 56 70 69
f 58 82 59
f 59 83 85
f 59 85 60
f 59 82 75
f 59 74 73
f 59 73 84
f 59 84 83
f 60 62 61
f 60 85 62
f 62 85 86
f 62 86 87
f 62 87 88
f 62 88 63
f 72 84 73
f 83 89 85
f 83 84 89
f 85 90 91
f 85 91 92
f 85 92 93
f 85 93 86
f 85 89 94
f 85 94 90

