# https://github.com/mikedh/trimesh
v 0.00747850 -0.01526882 0.01143434
v 0.01841157 -0.02593976 0.00724846
v 0.01841157 -0.02593976 0.00738094
v 0.00747850 -0.01487476 0.01240818
v 0.00747850 -0.01517549 0.01002588
v 0.00747850 -0.01514438 0.00993059
v 0.00747850 -0.01450143 0.00858953
v 0.01898082 -0.02634420 0.00683941
v 0.01899338 -0.02634420 0.00753434
v 0.00747850 -0.01444958 0.01335645
v 0.00747850 -0.01447032 0.00853839
v 0.01919011 -0.02634420 0.00657445
v 0.02163456 -0.02634420 0.00912641
v 0.00747850 -0.01398292 0.01406765
v 0.02021979 -0.02634420 0.00570752
v 0.00747850 -0.00300088 0.00248386
v 0.02186896 -0.02634420 0.00913571
v 0.00747850 -0.01162888 0.01568762
v 0.00747850 -0.01326738 0.01471611
v 0.02024909 -0.02634420 0.00568660
v 0.02186896 -0.00880819 -0.00041441
v 0.00747850 0.00035906 0.00329036
v 0.02212848 0.02747714 -0.00618539
v 0.02127878 0.01410995 -0.00618539
v 0.01520532 -0.00421419 0.01594096
v 0.01466117 -0.00450456 0.01600836
v 0.01421330 -0.00475344 0.01605949
v 0.00747850 -0.01156666 0.01570389
v 0.02186896 -0.02634420 0.00538678
v 0.04950720 0.06642760 -0.00196697
v 0.04997599 0.06811794 -0.00196697
v 0.04900491 0.06534910 -0.00083741
v 0.04966206 0.06811794 -0.00027031
v 0.04969137 0.06980829 0.00142171
v 0.04968299 0.07151937 0.00311837
v 0.04901747 0.07036828 0.00406664
v 0.04918490 0.07151937 0.00426652
v 0.04939418 0.07320971 0.00448500
v 0.04857378 0.07320971 0.00533100
v 0.04581958 0.07151937 0.00760639
v 0.04492384 0.07151937 0.00845472
v 0.04407833 0.07151937 0.00922171
v 0.02074301 -0.02634420 0.00558899
v 0.02097322 -0.02634420 0.00554715
v 0.02985111 0.01410995 -0.00618539
v 0.00747850 0.00168645 0.00362039
v 0.01676240 0.02154538 -0.00111632
v 0.01641498 0.02240611 0.00001092
v 0.03744398 0.07959776 0.00853607
v 0.04456387 0.07884073 -0.00307561
v 0.03491163 0.05418040 -0.00618539
v 0.01421330 -0.00302162 0.01631748
v 0.04300679 0.07151937 0.00973303
v 0.04131158 0.06980829 0.01023041
v 0.01251809 -0.00302162 0.01659406
v 0.01251809 -0.00471196 0.01632677
v 0.00747850 -0.01075779 0.01588518
v 0.04391927 0.05349596 -0.00618539
v 0.04566471 0.05680406 -0.00476763
v 0.04734737 0.06185435 -0.00473741
v 0.04913885 0.06577428 -0.00337311
v 0.04905095 0.06528688 -0.00314534
v 0.04905514 0.06527651 -0.00307561
v 0.04984205 0.06811794 -0.00307561
v 0.05016853 0.06980829 -0.00196697
v 0.05004715 0.06980829 -0.00027031
v 0.05005552 0.07151937 0.00142171
v 0.05001785 0.07320971 0.00311837
v 0.04923094 0.07490005 0.00429441
v 0.04849006 0.07490005 0.00514274
v 0.04764455 0.07490005 0.00597016
v 0.04772827 0.07320971 0.00607939
v 0.04591586 0.07320971 0.00767147
v 0.04491966 0.07320971 0.00851980
v 0.04407414 0.07320971 0.00920776
v 0.00747850 0.00913225 0.01014906
v 0.02009422 0.04030507 0.00897767
v 0.02352650 0.04865308 0.00902880
v 0.02512544 0.05227228 0.00892189
v 0.03024038 0.06401135 0.00894745
v 0.03705890 0.07924517 0.00902183
v 0.03744398 0.07959776 0.00857093
v 0.04853192 0.07884073 -0.00196697
v 0.04822218 0.07884073 -0.00307561
v 0.04290633 0.06577428 -0.00618539
v 0.01251809 -0.00133128 0.01670097
v 0.04300679 0.07320971 0.00970514
v 0.04131158 0.07490005 0.01008398
v 0.03961637 0.07829111 0.01031408
v 0.03878341 0.06899941 0.01073476
v 0.00830308 0.00633230 0.01752141
v 0.01082288 -0.00133128 0.01689620
v 0.01082288 -0.00302162 0.01673583
v 0.00747850 -0.00971040 0.01601533
v 0.00913185 -0.00471196 0.01660568
v 0.00913185 -0.00302162 0.01681950
v 0.04561030 0.05861884 -0.00618539
v 0.04540102 0.05756108 -0.00589719
v 0.04581958 0.05805886 -0.00534171
v 0.04689531 0.06131509 -0.00532544
v 0.04648093 0.06128399 -0.00618539
v 0.04743945 0.06424986 -0.00618539
v 0.04833520 0.06577428 -0.00532544
v 0.04882492 0.06577428 -0.00422377
v 0.04792918 0.06577428 -0.00618539
v 0.05002204 0.06980829 -0.00307561
v 0.05017272 0.07151937 -0.00196697
v 0.05023969 0.07320971 -0.00027031
v 0.05020621 0.07151937 -0.00027031
v 0.05020202 0.07320971 0.00142171
v 0.05004296 0.07490005 -0.00027031
v 0.04985461 0.07490005 0.00142171
v 0.04964532 0.07490005 0.00311837
v 0.04895887 0.07579189 0.00401086
v 0.04724691 0.07746149 0.00565871
v 0.04738085 0.07660077 0.00576330
v 0.04391509 0.07426748 0.00908923
v 0.04540939 0.07700521 0.00723684
v 0.04230359 0.07884073 0.00912641
v 0.04266775 0.07660077 0.00934024
v 0.04309887 0.07485857 0.00942159
v 0.00747850 0.00981669 0.01151569
v 0.00826123 0.01141370 0.01068595
v 0.01499603 0.02849342 0.01057904
v 0.02352650 0.04865308 0.00905669
v 0.03024038 0.06401135 0.00929376
v 0.03705890 0.07924517 0.00911479
v 0.03744398 0.07957702 0.00940299
v 0.04833101 0.07884073 -0.00023545
v 0.04839798 0.07884073 -0.00080720
v 0.04906351 0.07775186 -0.00084206
v 0.04949464 0.07660077 -0.00196697
v 0.04893794 0.07744076 -0.00282228
v 0.04874540 0.07770001 -0.00307561
v 0.00830308 0.00610416 0.01752141
v 0.01082288 0.00036944 0.01698452
v 0.04131158 0.07660077 0.00997010
v 0.03961637 0.07884073 0.01025597
v 0.03283970 0.06473726 0.01167606
v 0.00747850 0.00639452 0.01755860
v 0.00913185 0.00205978 0.01722391
v 0.00913185 0.00036944 0.01712630
v 0.00913185 -0.00133128 0.01699614
v 0.00747850 0.00036944 0.01720532
v 0.00747850 0.00041092 0.01720997
v 0.04900910 0.07709854 -0.00307561
v 0.04923512 0.07654892 -0.00307561
v 0.04975415 0.07490005 -0.00307561
v 0.04995925 0.07320971 -0.00307561
v 0.04999692 0.07151937 -0.00307561
v 0.05015179 0.07320971 -0.00196697
v 0.04999692 0.07490005 -0.00196697
v 0.04665673 0.07884073 0.00480341
v 0.04608747 0.07884073 0.00602594
v 0.04427925 0.07884073 0.00768774
v 0.04351745 0.07884073 0.00826414
v 0.04311562 0.07884073 0.00856163
v 0.04178038 0.07884073 0.00938208
v 0.04131158 0.07829111 0.00970514
v 0.00747850 0.00830264 0.01496944
v 0.01499603 0.02849342 0.01082540
v 0.03037432 0.06374172 0.01042332
v 0.03155888 0.06657278 0.01002588
v 0.03201512 0.06725722 0.01068130
v 0.03378149 0.07063790 0.01069757
v 0.03744398 0.07925554 0.00955407
v 0.03787511 0.07884073 0.00997242
v 0.03846529 0.07884073 0.01013047
v 0.04133669 0.07884073 0.00958893
v 0.00747850 0.00578268 0.01755860
v 0.03792115 0.07829111 0.01013047
v 0.03345082 0.06949718 0.01090442
v 0.00747850 0.00747302 0.01654757
v 0.03175142 0.06612687 0.01102296
v 0.00747850 0.00801227 0.01560162
f 1 2 3
f 1 3 4
f 1 4 10
f 1 10 14
f 1 14 19
f 1 19 18
f 1 18 28
f 1 28 57
f 1 57 94
f 1 94 144
f 1 144 145
f 1 145 170
f 1 170 140
f 1 140 173
f 1 173 175
f 1 175 160
f 1 160 122
f 1 122 76
f 1 76 46
f 1 46 22
f 1 22 16
f 1 16 11
f 1 11 7
f 1 7 6
f 1 6 5
f 1 5 2
f 2 5 6
f 2 6 7
f 2 7 8
f 2 8 3
f 3 8 9
f 3 9 4
f 4 9 10
f 7 11 8
f 8 11 12
f 8 12 15
f 8 15 20
f 8 20 43
f 8 43 44
f 8 44 29
f 8 29 17
f 8 17 13
f 8 13 9
f 9 13 14
f 9 14 10
f 11 15 12
f 11 16 15
f 13 17 18
f 13 18 19
f 13 19 14
f 15 16 20
f 16 21 20
f 16 22 23
f 16 23 24
f 16 24 21
f 17 25 26
f 17 26 27
f 17 27 28
f 17 28 18
f 17 29 30
f 17 30 31
f 17 31 32
f 17 32 33
f 17 33 34
f 17 34 35
f 17 35 36
f 17 36 37
f 17 37 38
f 17 38 39
f 17 39 40
f 17 40 41
f 17 41 42
f 17 42 25
f 20 21 43
f 21 29 44
f 21 44 43
f 21 24 45
f 21 45 29
f 22 46 23
f 23 46 47
f 23 47 48
f 23 48 49
f 23 49 50
f 23 50 51
f 23 51 85
f 23 85 105
f 23 105 102
f 23 102 101
f 23 101 97
f 23 97 58
f 23 58 45
f 23 45 24
f 25 52 26
f 25 42 53
f 25 53 54
f 25 54 52
f 26 52 27
f 27 52 55
f 27 55 56
f 27 56 57
f 27 57 28
f 29 45 58
f 29 58 59
f 29 59 60
f 29 60 61
f 29 61 62
f 29 62 63
f 29 63 30
f 30 63 62
f 30 62 31
f 31 33 32
f 31 62 64
f 31 64 65
f 31 65 66
f 31 66 33
f 33 66 34
f 34 66 67
f 34 67 35
f 35 67 68
f 35 68 37
f 35 37 36
f 37 68 38
f 38 68 69
f 38 69 70
f 38 70 39
f 39 70 71
f 39 71 72
f 39 72 42
f 39 42 41
f 39 41 40
f 42 72 73
f 42 73 74
f 42 74 75
f 42 75 53
f 46 76 48
f 46 48 47
f 48 77 78
f 48 78 79
f 48 79 80
f 48 80 49
f 48 76 77
f 49 80 81
f 49 81 127
f 49 127 82
f 49 82 83
f 49 83 84
f 49 84 50
f 50 84 105
f 50 105 85
f 50 85 51
f 52 86 55
f 52 54 86
f 53 75 87
f 53 87 54
f 54 87 88
f 54 88 89
f 54 89 90
f 54 90 91
f 54 91 86
f 55 86 92
f 55 92 93
f 55 93 57
f 55 57 56
f 57 93 95
f 57 95 96
f 57 96 94
f 58 97 98
f 58 98 59
f 59 98 99
f 59 99 60
f 60 99 98
f 60 98 100
f 60 100 101
f 60 101 102
f 60 102 103
f 60 103 104
f 60 104 61
f 61 104 64
f 61 64 62
f 64 104 103
f 64 103 105
f 64 105 106
f 64 106 65
f 65 106 107
f 65 107 108
f 65 108 109
f 65 109 66
f 66 109 67
f 67 109 110
f 67 110 68
f 68 110 111
f 68 111 112
f 68 112 113
f 68 113 69
f 69 113 114
f 69 114 115
f 69 115 70
f 70 115 116
f 70 116 71
f 71 117 75
f 71 75 74
f 71 74 73
f 71 73 72
f 71 116 118
f 71 118 117
f 75 117 119
f 75 119 120
f 75 120 121
f 75 121 87
f 76 122 123
f 76 123 124
f 76 124 77
f 77 124 78
f 78 124 161
f 78 161 125
f 78 125 126
f 78 126 80
f 78 80 79
f 80 126 127
f 80 127 81
f 82 127 128
f 82 128 129
f 82 129 130
f 82 130 83
f 83 130 131
f 83 131 132
f 83 132 133
f 83 133 84
f 84 133 134
f 84 134 105
f 86 91 135
f 86 135 136
f 86 136 92
f 87 121 137
f 87 137 88
f 88 137 89
f 89 137 138
f 89 138 139
f 89 139 140
f 89 140 91
f 89 91 90
f 91 140 170
f 91 170 135
f 92 136 135
f 92 135 141
f 92 141 142
f 92 142 143
f 92 143 93
f 93 143 96
f 93 96 95
f 94 96 144
f 96 143 145
f 96 145 144
f 97 101 98
f 98 101 100
f 102 105 103
f 105 134 146
f 105 146 147
f 105 147 148
f 105 148 149
f 105 149 150
f 105 150 106
f 106 150 151
f 106 151 107
f 107 151 108
f 108 110 109
f 108 151 152
f 108 152 111
f 108 111 110
f 111 152 132
f 111 132 131
f 111 131 112
f 112 131 113
f 113 131 114
f 114 131 129
f 114 129 153
f 114 153 115
f 115 153 154
f 115 154 155
f 115 155 116
f 116 155 118
f 117 118 155
f 117 155 156
f 117 156 157
f 117 157 119
f 119 158 120
f 119 157 128
f 119 128 158
f 120 158 159
f 120 159 121
f 121 159 137
f 122 160 161
f 122 161 124
f 122 124 123
f 125 161 126
f 126 162 163
f 126 163 127
f 126 161 162
f 127 163 164
f 127 164 128
f 128 164 165
f 128 165 166
f 128 166 167
f 128 167 168
f 128 168 138
f 128 138 169
f 128 169 158
f 128 157 156
f 128 156 155
f 128 155 154
f 128 154 153
f 128 153 129
f 129 131 130
f 132 152 148
f 132 148 147
f 132 147 133
f 133 147 146
f 133 146 134
f 135 170 142
f 135 142 141
f 137 159 138
f 138 159 169
f 138 168 139
f 139 168 171
f 139 171 172
f 139 172 140
f 140 172 165
f 140 165 174
f 140 174 164
f 140 164 173
f 142 170 145
f 142 145 143
f 148 152 149
f 149 151 150
f 149 152 151
f 158 169 159
f 160 175 161
f 161 175 173
f 161 173 162
f 162 164 163
f 162 173 164
f 164 174 165
f 165 172 167
f 165 167 166
f 167 171 168
f 167 172 171

