# https://github.com/mikedh/trimesh
v -0.03687735 0.00929517 0.00462827
v -0.03355090 -0.03719719 0.00577483
v -0.03460224 -0.03182340 0.00784233
v -0.03473261 -0.03015002 0.00784233
v -0.03478307 -0.02843351 0.00784233
v -0.03484615 -0.02544903 0.00784233
v -0.03472420 0.00929517 0.00876483
v -0.02648167 0.00929517 0.00462827
v 0.00227468 -0.06360899 -0.00031180
v -0.01517762 -0.06253079 0.00194731
v -0.03392097 -0.03480788 0.00784233
v -0.03427002 -0.03352266 0.00784233
v -0.03221780 -0.04129439 0.00577483
v -0.03451393 -0.03182340 0.00803549
v -0.03394200 -0.03352266 0.00865976
v -0.03460224 -0.03013277 0.00805867
v -0.03431628 0.00929517 0.00949109
v -0.02641018 0.00929517 0.00949109
v -0.01339454 -0.00363471 0.00962088
v -0.01785644 -0.00363471 0.00462827
v 0.00507967 -0.06360899 0.00375677
v 0.00227468 -0.07882468 0.00194731
v -0.00743973 -0.06987986 0.00194731
v -0.00919337 -0.06824961 0.00194731
v -0.01267122 -0.06493735 0.00194731
v -0.01439963 -0.06328984 0.00194731
v -0.00534546 -0.02092918 0.00980013
v -0.00492071 -0.02092918 0.01025134
v -0.01517762 -0.06247041 0.00311550
v -0.02590132 -0.05161931 0.00577483
v -0.02674660 -0.05072225 0.00577483
v -0.02752460 -0.04987693 0.00577483
v -0.02913105 -0.04808279 0.00577483
v -0.02981653 -0.04709946 0.00577483
v -0.03056509 -0.04593500 0.00577483
v -0.03090993 -0.04509831 0.00577483
v -0.03175100 -0.04271762 0.00577483
v -0.03374435 -0.03510115 0.00812975
v -0.03241545 -0.03956063 0.00747457
v -0.03303364 -0.03719719 0.00817919
v -0.03247432 -0.03800801 0.00925930
v -0.03318924 -0.03352266 0.00988821
v -0.03396303 -0.03182340 0.00888381
v -0.03265936 -0.03689529 0.00959307
v -0.03286122 -0.03526504 0.01003037
v -0.02579198 -0.00363471 0.01427355
v -0.02512754 -0.00363471 0.01441417
v -0.02475326 -0.00363471 0.01448679
v -0.01339454 -0.00363471 0.01492409
v -0.03247432 -0.03352266 0.01084161
v -0.03184352 -0.02843351 0.01173475
v -0.03098983 -0.02843351 0.01271597
v -0.03096880 -0.02674288 0.01270515
v -0.02983335 -0.02674288 0.01328770
v -0.00481978 -0.02092918 0.01156477
v 0.00568945 -0.06360899 0.00473335
v 0.00227468 -0.07870392 0.00311550
v 0.00608475 -0.06360899 0.00650108
v -0.00884853 -0.06841349 0.00311550
v 0.00227468 -0.07847965 0.00480752
v 0.00227889 -0.07835027 0.00577483
v -0.01483278 -0.06259979 0.00480752
v -0.01236002 -0.06513574 0.00311550
v -0.01409684 -0.06350549 0.00311550
v -0.01517762 -0.06227202 0.00480752
v -0.02079179 -0.05666533 0.00577483
v -0.02505184 -0.05246463 0.00577483
v -0.02563218 -0.05134329 0.00745448
v -0.02605692 -0.05009257 0.00988666
v -0.02663727 -0.05060148 0.00650108
v -0.02729330 -0.04961816 0.00735095
v -0.02741946 -0.04975617 0.00650108
v -0.02909741 -0.04803966 0.00601897
v -0.02892499 -0.04780677 0.00714698
v -0.02871893 -0.04717709 0.00829199
v -0.02921095 -0.04668543 0.00779134
v -0.03039687 -0.04547784 0.00657680
v -0.03086787 -0.04496892 0.00606533
v -0.03261310 -0.03719719 0.00950499
v -0.03258366 -0.03858593 0.00810039
v -0.03086787 -0.04323516 0.00771254
v -0.03084264 -0.04148415 0.00935974
v -0.02724284 -0.04782402 0.01065000
v -0.02887032 -0.04432200 0.01057120
v -0.03048518 -0.04075959 0.01048930
v -0.03075012 -0.03963826 0.01078907
v -0.03219256 -0.03719719 0.01012772
v -0.03244068 -0.03474750 0.01079680
v -0.03231032 -0.03586884 0.01068554
v -0.02580460 -0.00473017 0.01427973
v -0.02814279 -0.02336162 0.01376053
v -0.02581722 -0.00642080 0.01428746
v -0.02475326 -0.00473017 0.01448215
v -0.01339454 -0.00642080 0.01547419
v -0.01339454 -0.00473017 0.01531039
v -0.02582983 -0.00811143 0.01428900
v -0.02583824 -0.00980206 0.01428746
v -0.00521929 -0.02092918 0.01245019
v -0.00517724 -0.02092918 0.01237911
v -0.03084264 -0.03013277 0.01255835
v -0.02983335 -0.02843351 0.01323825
v -0.02814279 -0.02674288 0.01370182
v -0.02814279 -0.02505225 0.01374663
v 0.00489043 -0.06145258 0.00904297
v 0.00504182 -0.06077978 0.00804785
v 0.00559272 -0.06360899 0.00807257
v 0.00227889 -0.07745320 0.00786397
v 0.00227889 -0.07823813 0.00650108
v -0.01385293 -0.06325534 0.00604679
v -0.01562339 -0.06164234 0.00577483
v -0.01559395 -0.06160784 0.00602670
v -0.01370574 -0.06310871 0.00717634
v -0.02067404 -0.05654457 0.00650108
v -0.02544714 -0.05116215 0.00858250
v -0.02712509 -0.04939389 0.00847897
v -0.01008071 -0.06626570 0.00819310
v -0.00898310 -0.06684362 0.00935511
v -0.02581301 -0.04984242 0.01096368
v -0.02695267 -0.04880735 0.01000719
v -0.02753301 -0.04827255 0.00952199
v -0.02786944 -0.04718572 0.01000719
v -0.03058191 -0.04262274 0.00884364
v -0.02751198 -0.04670268 0.01093741
v -0.02914367 -0.04319203 0.01086633
v -0.02614524 -0.04876422 0.01120628
v -0.03209163 -0.03689529 0.01043985
v -0.02420656 -0.04839331 0.01260316
v -0.02445468 -0.04707358 0.01273605
v -0.02688118 -0.01827247 0.01407267
v -0.02475326 -0.00642080 0.01446979
v -0.02583824 -0.01150132 0.01427973
v -0.02585507 -0.01319195 0.01426582
v -0.02475326 -0.00811143 0.01445280
v -0.02475326 -0.00980206 0.01443116
v -0.02475326 -0.01150132 0.01440489
v -0.02604010 -0.01657321 0.01420556
v -0.02603590 -0.01827247 0.01417002
v -0.02582983 -0.01962670 0.01414375
v -0.02644802 -0.02843351 0.01378062
v -0.02305429 -0.04537433 0.01313781
v -0.02305429 -0.04707358 0.01303583
v -0.02136373 -0.04876422 0.01284576
v 0.00227889 -0.07371828 0.00910169
v 0.00227889 -0.07247618 0.00918050
v 0.00489043 -0.06153883 0.00904297
v -0.02814279 -0.02843351 0.01361374
v 0.00477688 -0.06266880 0.00900589
v 0.00462969 -0.06360899 0.00897189
v 0.00227889 -0.07456359 0.00896726
v 0.00227889 -0.07586608 0.00862267
v 0.00065141 -0.07471886 0.00891317
v -0.00103915 -0.07364065 0.00913569
v -0.00194331 -0.07337326 0.00908006
v 0.00129483 -0.07691840 0.00762909
v -0.00923543 -0.06706789 0.00819310
v -0.01198574 -0.06478208 0.00702646
v -0.02052686 -0.05639793 0.00736177
v -0.00548423 -0.07012138 0.00921449
v -0.01360481 -0.06137495 0.01062064
v -0.02381546 -0.04952327 0.01238529
v -0.02476167 -0.04887635 0.01210406
v -0.02268421 -0.05005806 0.01259080
v -0.02317204 -0.04887635 0.01274378
v -0.02139316 -0.05055835 0.01261862
v -0.02085067 -0.05161069 0.01249345
v -0.01999698 -0.05161069 0.01249345
v 0.00065141 -0.07387354 0.00915114
v -0.00103915 -0.07247618 0.00936592
v -0.01247356 -0.06185798 0.01084470
v -0.00371797 -0.07175163 0.00914805
v -0.02198192 -0.05118803 0.01234202
f 1 2 3
f 1 3 4
f 1 4 5
f 1 5 6
f 1 6 7
f 1 7 17
f 1 17 18
f 1 18 8
f 1 8 9
f 1 9 10
f 1 10 2
f 2 11 12
f 2 12 3
f 2 10 13
f 2 13 11
f 3 14 4
f 3 12 15
f 3 15 14
f 4 14 16
f 4 16 5
f 5 16 6
f 6 16 17
f 6 17 7
f 8 18 19
f 8 19 20
f 8 20 9
f 9 21 22
f 9 22 23
f 9 23 24
f 9 24 25
f 9 25 26
f 9 26 10
f 9 20 27
f 9 27 28
f 9 28 21
f 10 26 29
f 10 29 30
f 10 30 31
f 10 31 32
f 10 32 33
f 10 33 34
f 10 34 35
f 10 35 36
f 10 36 37
f 10 37 13
f 11 38 12
f 11 13 37
f 11 37 39
f 11 39 40
f 11 40 41
f 11 41 38
f 12 38 15
f 14 15 42
f 14 42 43
f 14 43 16
f 15 38 44
f 15 44 45
f 15 45 42
f 16 43 17
f 17 46 47
f 17 47 48
f 17 48 49
f 17 49 18
f 17 43 42
f 17 42 50
f 17 50 51
f 17 51 52
f 17 52 53
f 17 53 54
f 17 54 46
f 18 49 19
f 19 55 28
f 19 28 20
f 19 49 55
f 20 28 27
f 21 56 22
f 21 28 56
f 22 57 23
f 22 56 58
f 22 58 57
f 23 59 24
f 23 57 60
f 23 60 61
f 23 61 59
f 24 59 62
f 24 62 63
f 24 63 64
f 24 64 25
f 25 64 26
f 26 64 29
f 28 55 58
f 28 58 56
f 29 65 66
f 29 66 67
f 29 67 30
f 29 64 65
f 30 67 68
f 30 68 69
f 30 69 70
f 30 70 31
f 31 70 71
f 31 71 72
f 31 72 32
f 32 72 33
f 33 72 71
f 33 71 73
f 33 73 34
f 34 73 74
f 34 74 35
f 35 74 75
f 35 75 76
f 35 76 77
f 35 77 78
f 35 78 36
f 36 78 41
f 36 41 39
f 36 39 37
f 38 41 79
f 38 79 44
f 39 41 80
f 39 80 40
f 40 80 41
f 41 78 81
f 41 81 82
f 41 82 83
f 41 83 84
f 41 84 85
f 41 85 86
f 41 86 87
f 41 87 79
f 42 45 88
f 42 88 50
f 44 79 89
f 44 89 45
f 45 89 88
f 46 90 47
f 46 54 91
f 46 91 90
f 47 90 92
f 47 92 48
f 48 93 94
f 48 94 95
f 48 95 49
f 48 92 96
f 48 96 97
f 48 97 93
f 49 95 98
f 49 98 99
f 49 99 55
f 50 88 52
f 50 52 51
f 52 88 100
f 52 100 101
f 52 101 54
f 52 54 53
f 54 102 103
f 54 103 91
f 54 101 102
f 55 99 104
f 55 104 105
f 55 105 58
f 57 61 60
f 57 58 61
f 58 105 104
f 58 104 106
f 58 106 107
f 58 107 108
f 58 108 61
f 59 61 62
f 61 108 62
f 62 109 110
f 62 110 65
f 62 65 64
f 62 64 63
f 62 108 109
f 65 110 66
f 66 110 111
f 66 111 112
f 66 112 113
f 66 113 114
f 66 114 67
f 67 114 68
f 68 114 69
f 69 115 71
f 69 71 70
f 69 114 112
f 69 112 116
f 69 116 117
f 69 117 118
f 69 118 74
f 69 74 115
f 71 115 73
f 73 115 74
f 74 83 75
f 74 118 119
f 74 119 120
f 74 120 83
f 75 83 76
f 76 83 77
f 77 83 121
f 77 121 81
f 77 81 78
f 79 87 89
f 81 121 122
f 81 122 82
f 82 122 83
f 83 123 124
f 83 124 84
f 83 122 121
f 83 120 119
f 83 119 118
f 83 118 125
f 83 125 123
f 84 124 85
f 85 124 86
f 86 89 126
f 86 126 87
f 86 124 127
f 86 127 128
f 86 128 89
f 87 126 89
f 88 89 100
f 89 128 100
f 90 91 92
f 91 103 129
f 91 129 92
f 92 129 96
f 93 130 94
f 93 97 131
f 93 131 132
f 93 132 130
f 94 98 95
f 94 130 133
f 94 133 134
f 94 134 135
f 94 135 136
f 94 136 137
f 94 137 138
f 94 138 139
f 94 139 140
f 94 140 141
f 94 141 142
f 94 142 143
f 94 143 144
f 94 144 145
f 94 145 104
f 94 104 98
f 96 129 97
f 97 129 131
f 98 104 99
f 100 128 101
f 101 146 102
f 101 128 146
f 102 146 139
f 102 139 138
f 102 138 137
f 102 137 129
f 102 129 103
f 104 145 106
f 106 145 147
f 106 147 148
f 106 148 149
f 106 149 150
f 106 150 107
f 107 150 151
f 107 151 152
f 107 152 153
f 107 153 154
f 107 154 108
f 108 154 155
f 108 155 156
f 108 156 109
f 109 111 110
f 109 156 111
f 111 156 112
f 112 157 113
f 112 156 155
f 112 155 116
f 112 114 157
f 113 157 114
f 116 155 117
f 117 155 158
f 117 158 159
f 117 159 118
f 118 160 161
f 118 161 125
f 118 159 160
f 123 125 161
f 123 161 127
f 123 127 124
f 127 161 160
f 127 160 162
f 127 162 163
f 127 163 141
f 127 141 128
f 128 141 146
f 129 137 136
f 129 136 132
f 129 132 131
f 130 132 133
f 132 136 133
f 133 136 134
f 134 136 135
f 139 146 140
f 140 146 141
f 141 163 164
f 141 164 165
f 141 165 142
f 142 165 166
f 142 166 143
f 143 167 149
f 143 149 148
f 143 148 147
f 143 147 145
f 143 145 144
f 143 166 167
f 149 167 150
f 150 167 151
f 151 167 152
f 152 168 165
f 152 165 169
f 152 169 153
f 152 167 168
f 153 170 154
f 153 169 159
f 153 159 170
f 154 170 158
f 154 158 155
f 158 170 159
f 159 169 171
f 159 171 160
f 160 171 162
f 162 171 169
f 162 169 165
f 162 165 163
f 163 165 164
f 165 168 166
f 166 168 167

