# https://github.com/mikedh/trimesh
v 0.01026816 -0.00806385 -0.00973649
v 0.01026816 -0.00999741 -0.00905970
v 0.01026816 -0.00806385 -0.01229474
v 0.00801309 -0.00806385 -0.00885667
v 0.01026375 -0.02225304 -0.00601171
v 0.01026816 -0.01209766 -0.00899326
v 0.01026816 -0.00871392 -0.01313395
v 0.00504450 -0.00806385 -0.01732263
v -0.00272931 -0.00806385 -0.00766060
v 0.01026375 -0.03556295 -0.00601171
v 0.01026816 -0.01838174 -0.00897603
v 0.01026816 -0.01630233 -0.00897972
v 0.01026816 -0.01396872 -0.00898710
v -0.00469369 -0.00806385 -0.00746126
v -0.01100523 -0.02662439 -0.00601171
v 0.01026816 -0.00981405 -0.01371229
v 0.00496082 -0.00806385 -0.01739277
v 0.01026375 -0.03481286 -0.00706380
v 0.01026816 -0.01838174 -0.01385996
v -0.01648434 -0.04648925 -0.00601171
v -0.02269458 -0.04884786 -0.00644239
v -0.02348298 -0.04847282 -0.00766307
v -0.02510821 -0.04871868 -0.00838292
v -0.02000788 -0.04488490 -0.01109375
v -0.00680781 -0.00806385 -0.00753263
v -0.01278022 -0.02720362 -0.00601171
v 0.01026816 -0.00985573 -0.01372337
v 0.00382448 -0.00806385 -0.01816062
v 0.01026816 -0.01209766 -0.01405561
v 0.01026375 -0.03152497 -0.01167209
v 0.01026375 -0.03034567 -0.01325331
v 0.01026375 -0.02892466 -0.01373321
v 0.01026375 -0.02682441 -0.01385380
v 0.01026816 -0.01233102 -0.01405438
v -0.02198988 -0.04871868 -0.00601171
v -0.02249638 -0.04891870 -0.00601171
v -0.02312181 -0.04914374 -0.00601171
v -0.02572483 -0.04998967 -0.00601171
v -0.02409519 -0.04910206 -0.00698013
v -0.02651763 -0.04900622 -0.00884190
v -0.02311741 -0.04658093 -0.01045142
v -0.02150979 -0.04520160 -0.01152443
v -0.01814481 -0.04269714 -0.01297521
v -0.00705886 -0.00806385 -0.00754370
v -0.03472748 -0.03837162 -0.00601171
v 0.00371877 -0.00806385 -0.01822460
v -0.00048305 -0.01209766 -0.01834396
v 0.00161786 -0.00999741 -0.01858268
v 0.00371877 -0.00999741 -0.01807202
v -0.01940888 -0.04288049 -0.01305889
v -0.02777730 -0.05048973 -0.00601171
v -0.02577768 -0.04934793 -0.00766307
v -0.02571162 -0.04708516 -0.01119342
v -0.02451802 -0.04685596 -0.01087472
v -0.02782134 -0.04981882 -0.00763845
v -0.02782134 -0.04909373 -0.00902156
v -0.02782134 -0.04845616 -0.01007242
v -0.02782134 -0.04740186 -0.01159826
v -0.02273863 -0.04462653 -0.01286693
v -0.01309734 -0.00806385 -0.00885421
v -0.03472748 -0.02352819 -0.00859211
v -0.03472748 -0.05005634 -0.00601171
v 0.00161786 -0.00806385 -0.01857038
v -0.00258837 -0.01209766 -0.01839318
v -0.02150979 -0.04327637 -0.01310196
v -0.02413483 -0.04477655 -0.01293953
v -0.02571162 -0.04490156 -0.01297029
v -0.02782134 -0.04512659 -0.01298506
v -0.00679460 -0.01209766 -0.01836611
v -0.02992225 -0.05063141 -0.00601171
v -0.02992225 -0.04979381 -0.00763845
v -0.02992225 -0.04850616 -0.01005396
v -0.02992225 -0.04745187 -0.01169547
v -0.02992225 -0.04630173 -0.01274511
v -0.02782134 -0.04617672 -0.01264913
v -0.01326911 -0.00806385 -0.00889974
v -0.03472748 -0.02321148 -0.00934641
v -0.01534800 -0.00806385 -0.00982755
v -0.01554179 -0.00806385 -0.00994814
v -0.01586332 -0.00806385 -0.01018071
v -0.01638744 -0.00806385 -0.01063723
v -0.03237111 -0.05035638 -0.00601171
v -0.03472748 -0.04932709 -0.00738497
v -0.01099642 -0.00999741 -0.01817046
v -0.00889111 -0.00806385 -0.01807448
v -0.02992225 -0.04525161 -0.01299982
v -0.03202757 -0.04517660 -0.01301459
v -0.03472748 -0.04467237 -0.01309580
v -0.03472748 -0.04364308 -0.01325454
v -0.03204078 -0.05039805 -0.00601171
v -0.03213768 -0.04941877 -0.00782549
v -0.03472748 -0.04806861 -0.00974141
v -0.03472748 -0.04783525 -0.01015610
v -0.03472748 -0.04715183 -0.01135708
v -0.03412848 -0.04718933 -0.01141615
v -0.03202757 -0.04732269 -0.01159088
v -0.03202757 -0.04622672 -0.01264174
v -0.03472748 -0.04505575 -0.01303305
v -0.03472748 -0.02311147 -0.00969342
v -0.01676182 -0.00806385 -0.01175946
v -0.01309734 -0.00999741 -0.01772009
v -0.01099642 -0.00806385 -0.01795881
v -0.03472748 -0.04153866 -0.01332591
v -0.03472748 -0.04686847 -0.01165364
v -0.03412848 -0.04613087 -0.01246578
v -0.03472748 -0.04611004 -0.01240794
v -0.03472748 -0.04581001 -0.01262944
v -0.03472748 -0.02309897 -0.01184437
v -0.01688074 -0.00806385 -0.01394609
v -0.01299163 -0.00806385 -0.01740877
v -0.03472748 -0.02682441 -0.01317579
v -0.03472748 -0.02472000 -0.01313272
v -0.03472748 -0.02440329 -0.01309580
v -0.03472748 -0.02352402 -0.01299244
v -0.01648434 -0.00806385 -0.01523075
v -0.01300044 -0.00806385 -0.01740508
v -0.01421166 -0.00887644 -0.01714667
v -0.01638304 -0.00806385 -0.01531689
v -0.01503088 -0.00806385 -0.01623116
f 1 2 6
f 1 6 13
f 1 13 12
f 1 12 11
f 1 11 19
f 1 19 34
f 1 34 29
f 1 29 27
f 1 27 16
f 1 16 7
f 1 7 3
f 1 3 8
f 1 8 17
f 1 17 28
f 1 28 46
f 1 46 63
f 1 63 85
f 1 85 102
f 1 102 110
f 1 110 116
f 1 116 119
f 1 119 118
f 1 118 115
f 1 115 109
f 1 109 100
f 1 100 81
f 1 81 80
f 1 80 79
f 1 79 78
f 1 78 76
f 1 76 60
f 1 60 44
f 1 44 25
f 1 25 14
f 1 14 9
f 1 9 4
f 1 4 2
f 2 4 5
f 2 5 6
f 3 7 8
f 4 9 5
f 5 10 11
f 5 11 12
f 5 12 13
f 5 13 6
f 5 9 14
f 5 14 15
f 5 15 26
f 5 26 45
f 5 45 62
f 5 62 82
f 5 82 90
f 5 90 70
f 5 70 51
f 5 51 38
f 5 38 37
f 5 37 36
f 5 36 35
f 5 35 20
f 5 20 10
f 7 16 8
f 8 16 17
f 10 18 19
f 10 19 11
f 10 20 21
f 10 21 22
f 10 22 23
f 10 23 24
f 10 24 18
f 14 25 26
f 14 26 15
f 16 27 17
f 17 27 29
f 17 29 28
f 18 30 19
f 18 24 30
f 19 30 31
f 19 31 32
f 19 32 33
f 19 33 34
f 20 35 21
f 21 35 36
f 21 36 37
f 21 37 38
f 21 38 39
f 21 39 23
f 21 23 22
f 23 39 40
f 23 40 41
f 23 41 24
f 24 41 42
f 24 42 43
f 24 43 30
f 25 44 26
f 26 44 45
f 28 29 34
f 28 34 33
f 28 33 46
f 30 43 31
f 31 43 32
f 32 47 48
f 32 48 49
f 32 49 46
f 32 46 33
f 32 43 50
f 32 50 47
f 38 51 52
f 38 52 39
f 39 52 40
f 40 53 54
f 40 54 41
f 40 52 55
f 40 55 56
f 40 56 57
f 40 57 58
f 40 58 53
f 41 54 42
f 42 54 53
f 42 53 59
f 42 59 43
f 43 59 50
f 44 60 61
f 44 61 45
f 45 61 77
f 45 77 99
f 45 99 108
f 45 108 114
f 45 114 113
f 45 113 112
f 45 112 111
f 45 111 103
f 45 103 89
f 45 89 88
f 45 88 98
f 45 98 107
f 45 107 106
f 45 106 104
f 45 104 94
f 45 94 93
f 45 93 92
f 45 92 83
f 45 83 62
f 46 49 48
f 46 48 63
f 47 64 48
f 47 50 65
f 47 65 66
f 47 66 67
f 47 67 68
f 47 68 64
f 48 64 69
f 48 69 63
f 50 59 66
f 50 66 65
f 51 70 55
f 51 55 52
f 53 58 59
f 55 70 71
f 55 71 56
f 56 71 72
f 56 72 57
f 57 72 73
f 57 73 58
f 58 73 74
f 58 74 75
f 58 75 59
f 59 75 66
f 60 76 61
f 61 76 78
f 61 78 79
f 61 79 80
f 61 80 81
f 61 81 77
f 62 83 82
f 63 69 84
f 63 84 85
f 64 68 86
f 64 86 87
f 64 87 88
f 64 88 69
f 66 75 74
f 66 74 67
f 67 74 68
f 68 74 86
f 69 88 89
f 69 89 84
f 70 90 71
f 71 90 72
f 72 90 91
f 72 91 92
f 72 92 93
f 72 93 94
f 72 94 95
f 72 95 96
f 72 96 73
f 73 96 97
f 73 97 74
f 74 97 98
f 74 98 87
f 74 87 86
f 77 81 99
f 81 100 99
f 82 83 90
f 83 92 91
f 83 91 90
f 84 101 102
f 84 102 85
f 84 89 103
f 84 103 101
f 87 98 88
f 94 104 95
f 95 104 96
f 96 105 97
f 96 104 106
f 96 106 105
f 97 105 107
f 97 107 98
f 99 100 109
f 99 109 108
f 101 110 102
f 101 103 111
f 101 111 112
f 101 112 113
f 101 113 114
f 101 114 110
f 105 106 107
f 108 109 115
f 108 115 114
f 110 114 117
f 110 117 116
f 114 115 118
f 114 118 119
f 114 119 117
f 116 117 119

