# https://github.com/mikedh/trimesh
v -0.05363554 0.03959657 0.00143877
v -0.05363554 0.03959657 0.00141889
v -0.05412967 0.03942929 0.00183918
v -0.05363554 0.03957689 0.00221119
v -0.05280169 0.03946373 -0.00071096
v -0.05412967 0.03942929 0.00180510
v -0.05818056 0.03514391 -0.00643883
v -0.05669815 0.03763346 0.00246677
v -0.05363554 0.03916852 0.00328180
v -0.05784084 0.03700861 0.00077425
v -0.05280169 0.03793851 -0.00643883
v -0.05363554 0.03831243 0.00496580
v -0.05363554 0.03718574 0.00700761
v -0.05280169 0.02800489 -0.00071096
v -0.05678566 0.03766298 0.00077425
v -0.05852543 0.03533579 -0.00493374
v -0.05723347 0.03691021 -0.00144931
v -0.05708419 0.03716113 -0.00071096
v -0.05932840 0.03449446 -0.00643883
v -0.10143286 -0.00648477 -0.01430791
v -0.06011078 0.03499139 0.00287855
v -0.05905559 0.03578844 0.00287855
v -0.06102698 0.03359409 0.00498000
v -0.05870558 0.03545879 0.00437796
v -0.05880337 0.03553259 -0.00342865
v -0.05909677 0.03578352 -0.00132436
v -0.06014681 0.03500123 -0.00132436
v -0.06262263 0.03319064 -0.00071096
v -0.05921516 0.03595572 0.00077425
v -0.05280169 0.03118817 -0.00643883
v -0.08881697 -0.00788699 -0.01390466
v -0.08881697 -0.00648477 -0.01389330
v -0.09021701 -0.00648477 -0.01403245
v -0.09091704 -0.00648477 -0.01410061
v -0.09862762 -0.00648477 -0.01432211
v -0.09932764 -0.00648477 -0.01433915
v -0.06065639 0.03325952 0.00629482
v -0.06138729 0.03243787 0.00700761
v -0.09174575 -0.01066683 0.01457851
v -0.09091704 -0.01061763 0.01459839
v -0.08881697 -0.01066683 0.01467223
v -0.08732426 -0.01066683 0.01459271
v -0.08729853 -0.01066683 0.01458987
v -0.05363554 0.02582038 0.00700761
v -0.09682608 -0.00242572 0.01249410
v -0.09618267 -0.00242572 0.01257078
v -0.09794818 -0.01066683 0.01432009
v -0.09667680 -0.01066683 0.01437973
v -0.09478262 -0.01066683 0.01445924
v -0.09289358 -0.01066683 0.01453592
v -0.05280169 0.02829518 -0.00140387
v -0.07458998 -0.00242572 0.00967702
v -0.08561023 -0.01066683 -0.01090299
v -0.06092404 0.03348585 -0.00643883
v -0.10143286 -0.00788699 -0.01431643
v -0.10353294 -0.00998786 -0.01395294
v -0.10371824 -0.00773447 -0.01365476
v -0.10337852 -0.00648477 -0.01358660
v -0.06262263 0.03319064 0.00034261
v -0.06137185 0.03394341 0.00287855
v -0.06650365 0.02872814 0.00700761
v -0.06540214 0.02960883 0.00700761
v -0.06207702 0.03281180 0.00498000
v -0.06403812 0.03061745 0.00700761
v -0.06293661 0.03140958 0.00700761
v -0.06141817 0.03241819 0.00700761
v -0.06103728 0.03357441 -0.00553294
v -0.06208217 0.03276752 -0.00553294
v -0.06378591 0.03178842 -0.00359051
v -0.06477418 0.03111929 -0.00299984
v -0.06489772 0.03123246 -0.00132436
v -0.06595290 0.03034684 -0.00132436
v -0.06824342 0.02839850 -0.00132436
v -0.05325979 0.03042064 -0.00643883
v -0.08731911 -0.00998786 -0.01322595
v -0.08881697 -0.00998786 -0.01377403
v -0.09091704 -0.00998786 -0.01400689
v -0.09091704 -0.00788699 -0.01410913
v -0.09932764 -0.00788699 -0.01428803
v -0.08637203 -0.01066683 0.01365842
v -0.07463116 -0.00242572 0.01059144
v -0.07485249 -0.00276028 0.01039549
v -0.07458998 -0.00242572 0.00996668
v -0.09732536 -0.00242572 0.01234927
v -0.10475798 -0.00873817 0.01249126
v -0.10353294 -0.00831996 0.01265597
v -0.10143286 -0.00998786 0.01355051
v -0.09866365 -0.01066683 0.01425478
v -0.07485249 -0.00276028 0.00994112
v -0.08540434 -0.01066683 -0.00902873
v -0.08583671 -0.01066683 -0.01122105
v -0.06137700 0.03314636 -0.00643883
v -0.10143286 -0.00998786 -0.01408925
v -0.09722756 -0.00998786 -0.01409493
v -0.09932764 -0.00998786 -0.01409777
v -0.10143286 -0.01066683 -0.01395010
v -0.10285865 -0.01066683 -0.01385638
v -0.10355867 -0.01066683 -0.01377687
v -0.10493814 -0.01066683 -0.01328842
v -0.10498961 -0.00998786 -0.01335658
v -0.10483519 -0.00833472 -0.01321175
v -0.10426385 -0.00648477 -0.01184297
v -0.08165200 0.01648210 -0.00643883
v -0.07920706 0.01853376 -0.00643883
v -0.06330722 0.03163590 -0.00643883
v -0.06197408 0.03268387 -0.00643883
v -0.06252484 0.03310208 0.00174547
v -0.06946847 0.02735052 -0.00132436
v -0.07052365 0.02643047 -0.00132436
v -0.06485654 0.03120785 0.00077425
v -0.09032511 0.00830003 0.00498000
v -0.08571318 0.01215244 0.00620111
v -0.06447050 0.03087329 0.00498000
v -0.08792649 0.01014505 0.00648509
v -0.08664997 0.01108970 0.00700761
v -0.09809230 -0.00282916 0.01219876
v -0.06461976 0.03099629 -0.00439986
v -0.07729743 0.02054115 -0.00464408
v -0.08754559 -0.01066683 -0.01304988
v -0.08884270 -0.01066683 -0.01356673
v -0.09091704 -0.01066683 -0.01389614
v -0.09301712 -0.01066683 -0.01395578
v -0.09444805 -0.01066683 -0.01397849
v -0.09512234 -0.00998786 -0.01406653
v -0.08583671 -0.01066683 0.01283772
v -0.08553302 -0.01066683 0.01173587
v -0.08545066 -0.01066683 0.01128719
v -0.08473520 -0.01066683 0.00715244
v -0.08446754 -0.01066683 0.00497716
v -0.08435430 -0.01066683 0.00380432
v -0.08427194 -0.01066683 0.00287571
v -0.10492785 -0.00846756 0.01128719
v -0.10508741 -0.00998786 0.01128719
v -0.10478887 -0.00998786 0.01253954
v -0.10353294 -0.00998786 0.01304502
v -0.08853901 0.00943164 0.00700761
v -0.08953758 0.00855095 0.00700761
v -0.09049496 0.00767026 0.00700761
v -0.09175604 0.00647468 0.00700761
v -0.09227591 0.00610076 0.00670659
v -0.10143286 -0.01066683 0.01366694
v -0.08431313 -0.01066683 0.00177954
v -0.09654813 -0.01066683 -0.01398985
v -0.09865335 -0.01066683 -0.01397566
v -0.10075342 -0.01066683 -0.01395862
v -0.10516976 -0.01066683 -0.01240809
v -0.10538595 -0.00998786 -0.01184297
v -0.10452121 -0.00697678 -0.01184297
v -0.10495873 -0.00802476 -0.01184297
v -0.10453150 -0.00696202 -0.00973868
v -0.10453666 -0.00694726 -0.00763723
v -0.10454695 -0.00691774 -0.00342865
v -0.10384177 -0.00578613 -0.00885834
v -0.10283806 -0.00432487 -0.00885834
v -0.10189611 -0.00327197 -0.00885834
v -0.10145860 -0.00278980 -0.00885834
v -0.10110859 -0.00242572 -0.00885834
v -0.08382414 0.01446487 -0.00643883
v -0.08172406 0.01654606 -0.00553294
v -0.06447564 0.03087329 -0.00553294
v -0.07729743 0.02054115 -0.00396821
v -0.08923389 0.00943164 0.00287855
v -0.09137000 0.00735045 0.00498000
v -0.09012436 0.00812290 0.00672931
v -0.09431422 0.00397037 0.00666684
v -0.10319837 -0.00609117 0.00918574
v -0.10356897 -0.00648477 0.00918290
v -0.10425355 -0.00722278 0.00918290
v -0.10500505 -0.00827568 0.00918290
v -0.10518520 -0.00998786 0.00918290
v -0.10493814 -0.01066683 0.01128719
v -0.10473740 -0.01066683 0.01249978
v -0.10357412 -0.01066683 0.01301378
v -0.09247665 0.00629756 0.00498000
v -0.10525212 -0.01066683 -0.01184297
v -0.10523668 -0.01066683 -0.00973868
v -0.10499475 -0.00802476 0.00076858
v -0.10498961 -0.00797555 -0.00132720
v -0.10498446 -0.00797064 -0.00342865
v -0.10497931 -0.00798540 -0.00553294
v -0.10454180 -0.00692266 -0.00132720
v -0.10094387 -0.00242572 -0.00380350
v -0.10103138 -0.00242572 -0.00599014
v -0.10451092 -0.00697186 0.00076858
v -0.10275056 -0.00441835 -0.00553294
v -0.10079460 -0.00242080 -0.00071096
v -0.10067622 -0.00228304 -0.00071096
v -0.10091299 -0.00227812 -0.00643883
v -0.10110344 -0.00242572 -0.00816543
v -0.09922469 -0.00046753 -0.00643883
v -0.09776288 0.00105769 -0.00553294
v -0.09774744 0.00105277 -0.00643883
v -0.09714521 0.00165794 -0.00643883
v -0.08550214 0.01285601 -0.00643883
v -0.08387561 0.01450915 -0.00553294
v -0.08277410 0.01556204 -0.00553294
v -0.08277410 0.01559156 -0.00342865
v -0.08172406 0.01654114 -0.00342865
v -0.08392193 0.01453867 -0.00342865
v -0.08603231 0.01242796 0.00077425
v -0.09038687 0.00837875 0.00287855
v -0.09143177 0.00738489 0.00287855
v -0.10045488 -0.00254380 0.00624655
v -0.10433591 -0.00717358 0.00708429
v -0.10238510 -0.00483163 0.00708145
v -0.10328587 -0.00588453 0.00708145
v -0.10500505 -0.01066683 0.00918290
v -0.10522123 -0.01066683 -0.00835570
v -0.09252298 0.00633692 0.00287855
v -0.09862762 -0.00016741 0.00287855
v -0.09851952 -0.00026581 0.00498000
v -0.09968280 -0.00133838 0.00287855
v -0.09974457 -0.00122522 -0.00071096
v -0.09975486 -0.00121046 -0.00132436
v -0.10354838 -0.00578613 0.00077425
v -0.10248805 -0.00472831 0.00397187
v -0.10052180 -0.00246508 0.00498000
v -0.10080490 -0.00216004 -0.00643883
v -0.09981663 -0.00111698 -0.00553294
v -0.09876144 0.00000479 -0.00553294
v -0.09671799 0.00212042 -0.00553294
v -0.09563706 0.00317332 -0.00553294
v -0.09458703 0.00418685 -0.00553294
v -0.09349581 0.00523974 -0.00553294
v -0.08711322 0.01147347 -0.00342865
v -0.08496683 0.01353990 -0.00342865
v -0.08928022 0.00944148 0.00077425
v -0.09037658 0.00838859 0.00077425
v -0.09956956 -0.00140727 0.00498000
v -0.09251268 0.00632216 0.00077425
v -0.09461791 0.00421637 -0.00342865
v -0.09873570 -0.00002965 -0.00342865
v -0.09869968 -0.00006901 -0.00132436
v -0.09036629 0.00837875 -0.00071096
f 1 2 6
f 1 6 3
f 1 3 4
f 1 4 5
f 1 5 2
f 2 5 7
f 2 7 6
f 3 8 9
f 3 9 4
f 3 6 10
f 3 10 8
f 4 9 5
f 5 11 7
f 5 9 12
f 5 12 13
f 5 13 44
f 5 44 14
f 5 14 51
f 5 51 30
f 5 30 11
f 6 15 10
f 6 7 16
f 6 16 17
f 6 17 18
f 6 18 15
f 7 19 16
f 7 11 20
f 7 20 19
f 8 10 21
f 8 21 22
f 8 22 23
f 8 23 24
f 8 24 9
f 9 24 12
f 10 25 26
f 10 26 27
f 10 27 28
f 10 28 29
f 10 29 21
f 10 15 25
f 11 30 31
f 11 31 32
f 11 32 33
f 11 33 34
f 11 34 35
f 11 35 36
f 11 36 20
f 12 24 37
f 12 37 38
f 12 38 13
f 13 39 40
f 13 40 41
f 13 41 42
f 13 42 43
f 13 43 44
f 13 38 45
f 13 45 46
f 13 46 47
f 13 47 48
f 13 48 49
f 13 49 50
f 13 50 39
f 14 44 52
f 14 52 53
f 14 53 51
f 15 18 25
f 16 25 17
f 16 19 25
f 17 25 18
f 19 54 25
f 19 20 54
f 20 36 55
f 20 55 56
f 20 56 57
f 20 57 58
f 20 58 54
f 21 29 59
f 21 59 60
f 21 60 61
f 21 61 62
f 21 62 63
f 21 63 22
f 22 63 23
f 23 63 62
f 23 62 64
f 23 64 65
f 23 65 24
f 24 65 66
f 24 66 37
f 25 54 26
f 26 54 67
f 26 67 27
f 27 67 68
f 27 68 69
f 27 69 28
f 28 69 70
f 28 70 71
f 28 71 72
f 28 72 73
f 28 73 59
f 28 59 29
f 30 51 74
f 30 74 75
f 30 75 76
f 30 76 31
f 31 76 77
f 31 77 78
f 31 78 34
f 31 34 33
f 31 33 32
f 34 78 35
f 35 78 36
f 36 78 79
f 36 79 55
f 37 66 38
f 38 66 45
f 39 41 40
f 39 50 49
f 39 49 48
f 39 48 47
f 39 47 88
f 39 88 141
f 39 141 173
f 39 173 172
f 39 172 171
f 39 171 207
f 39 207 208
f 39 208 176
f 39 176 175
f 39 175 146
f 39 146 99
f 39 99 98
f 39 98 97
f 39 97 96
f 39 96 145
f 39 145 144
f 39 144 143
f 39 143 123
f 39 123 122
f 39 122 121
f 39 121 120
f 39 120 119
f 39 119 91
f 39 91 53
f 39 53 90
f 39 90 142
f 39 142 131
f 39 131 130
f 39 130 129
f 39 129 128
f 39 128 127
f 39 127 126
f 39 126 125
f 39 125 80
f 39 80 43
f 39 43 42
f 39 42 41
f 43 80 81
f 43 81 44
f 44 81 82
f 44 82 83
f 44 83 52
f 45 84 85
f 45 85 86
f 45 86 87
f 45 87 88
f 45 88 46
f 45 66 84
f 46 88 47
f 51 53 74
f 52 83 82
f 52 82 89
f 52 89 53
f 53 91 74
f 53 89 90
f 54 92 67
f 54 58 92
f 55 93 56
f 55 79 124
f 55 124 94
f 55 94 95
f 55 95 93
f 56 93 96
f 56 96 97
f 56 97 98
f 56 98 99
f 56 99 100
f 56 100 57
f 57 100 101
f 57 101 58
f 58 101 102
f 58 102 103
f 58 103 104
f 58 104 105
f 58 105 106
f 58 106 92
f 59 107 60
f 59 73 108
f 59 108 109
f 59 109 110
f 59 110 107
f 60 107 110
f 60 110 111
f 60 111 112
f 60 112 113
f 60 113 61
f 61 113 112
f 61 112 114
f 61 114 115
f 61 115 85
f 61 85 116
f 61 116 62
f 62 116 84
f 62 84 64
f 64 84 65
f 65 84 66
f 67 92 68
f 68 92 106
f 68 106 117
f 68 117 69
f 69 117 70
f 70 117 118
f 70 118 71
f 71 118 72
f 72 118 73
f 73 118 108
f 74 91 119
f 74 119 75
f 75 119 120
f 75 120 76
f 76 120 121
f 76 121 77
f 77 121 122
f 77 122 123
f 77 123 124
f 77 124 79
f 77 79 78
f 80 125 82
f 80 82 81
f 82 125 126
f 82 126 127
f 82 127 128
f 82 128 129
f 82 129 130
f 82 130 131
f 82 131 89
f 84 116 85
f 85 132 133
f 85 133 134
f 85 134 135
f 85 135 87
f 85 87 86
f 85 115 136
f 85 136 137
f 85 137 138
f 85 138 139
f 85 139 140
f 85 140 132
f 87 135 141
f 87 141 88
f 89 131 142
f 89 142 90
f 93 95 143
f 93 143 144
f 93 144 145
f 93 145 96
f 94 124 123
f 94 123 143
f 94 143 95
f 99 146 100
f 100 146 147
f 100 147 101
f 101 148 102
f 101 147 149
f 101 149 148
f 102 148 150
f 102 150 151
f 102 151 152
f 102 152 153
f 102 153 154
f 102 154 155
f 102 155 156
f 102 156 157
f 102 157 103
f 103 158 159
f 103 159 118
f 103 118 104
f 103 157 158
f 104 118 105
f 105 118 160
f 105 160 117
f 105 117 106
f 108 118 161
f 108 161 109
f 109 161 162
f 109 162 111
f 109 111 110
f 111 162 163
f 111 163 164
f 111 164 114
f 111 114 112
f 114 164 137
f 114 137 136
f 114 136 115
f 117 160 118
f 118 159 161
f 132 165 166
f 132 166 167
f 132 167 168
f 132 168 169
f 132 169 170
f 132 170 133
f 132 140 165
f 133 170 171
f 133 171 172
f 133 172 134
f 134 172 173
f 134 173 135
f 135 173 141
f 137 164 138
f 138 164 140
f 138 140 139
f 140 164 163
f 140 163 174
f 140 174 165
f 146 175 147
f 147 175 176
f 147 176 170
f 147 170 169
f 147 169 177
f 147 177 178
f 147 178 179
f 147 179 180
f 147 180 149
f 148 149 150
f 149 180 150
f 150 180 151
f 151 180 179
f 151 179 152
f 152 181 153
f 152 179 178
f 152 178 181
f 153 181 154
f 154 182 183
f 154 183 155
f 154 181 184
f 154 184 185
f 154 185 186
f 154 186 187
f 154 187 182
f 155 183 188
f 155 188 156
f 156 188 189
f 156 189 190
f 156 190 191
f 156 191 157
f 157 191 192
f 157 192 193
f 157 193 194
f 157 194 158
f 158 194 195
f 158 195 196
f 158 196 159
f 159 197 198
f 159 198 161
f 159 196 199
f 159 199 197
f 161 198 200
f 161 200 162
f 162 201 163
f 162 200 198
f 162 198 197
f 162 197 201
f 163 201 202
f 163 202 174
f 165 167 166
f 165 174 167
f 167 174 203
f 167 203 168
f 168 204 169
f 168 203 205
f 168 205 206
f 168 206 204
f 169 204 184
f 169 184 181
f 169 181 177
f 170 207 171
f 170 176 208
f 170 208 207
f 174 202 209
f 174 209 210
f 174 210 211
f 174 211 203
f 177 181 178
f 182 187 212
f 182 212 213
f 182 213 183
f 183 213 214
f 183 214 188
f 184 204 215
f 184 215 185
f 185 215 206
f 185 206 216
f 185 216 217
f 185 217 212
f 185 212 186
f 186 212 187
f 188 214 218
f 188 218 189
f 189 218 219
f 189 219 220
f 189 220 190
f 190 220 191
f 191 209 221
f 191 221 192
f 191 220 209
f 192 221 193
f 193 221 222
f 193 222 223
f 193 223 224
f 193 224 195
f 193 195 194
f 195 225 226
f 195 226 199
f 195 199 196
f 195 224 225
f 197 199 201
f 199 226 227
f 199 227 201
f 201 227 202
f 202 227 228
f 202 228 209
f 203 211 229
f 203 229 217
f 203 217 205
f 204 206 215
f 205 217 206
f 206 217 216
f 209 230 231
f 209 231 221
f 209 220 232
f 209 232 233
f 209 233 210
f 209 228 230
f 210 233 214
f 210 214 213
f 210 213 212
f 210 212 229
f 210 229 211
f 212 217 229
f 214 233 219
f 214 219 218
f 219 233 232
f 219 232 220
f 221 231 222
f 222 231 225
f 222 225 223
f 223 225 224
f 225 234 226
f 225 231 234
f 226 234 228
f 226 228 227
f 228 234 230
f 230 234 231

