# https://github.com/mikedh/trimesh
v -0.03264537 0.04506847 -0.00071614
v -0.03414021 0.04494736 -0.00132805
v -0.03414021 0.04506342 -0.00071614
v -0.03203553 0.04504828 -0.00071614
v -0.03203553 0.04495240 -0.00132805
v -0.03414021 0.04441749 -0.00343232
v -0.03624490 0.04389268 -0.00535623
v -0.03624490 0.04437208 -0.00343232
v -0.03624490 0.04479597 -0.00132805
v -0.03624490 0.04488680 -0.00071614
v -0.03054812 0.04497259 -0.00071614
v -0.02993084 0.04484643 -0.00132805
v -0.03203553 0.04438217 -0.00343232
v -0.03624490 0.04355962 -0.00640770
v -0.03834214 0.04356467 -0.00626074
v -0.03834214 0.04380689 -0.00520927
v -0.03834214 0.04415004 -0.00343232
v -0.03834214 0.04449319 -0.00132805
v -0.03834214 0.04458402 -0.00071614
v -0.02844344 0.04472532 -0.00071614
v -0.02828726 0.04470009 -0.00086711
v -0.02828726 0.04467485 -0.00132805
v -0.02993084 0.04427115 -0.00343232
v -0.02828726 0.04420050 -0.00314507
v -0.03203553 0.04386240 -0.00490331
v -0.02993084 0.04376147 -0.00468954
v -0.03624490 0.04278249 -0.00762751
v -0.03834214 0.04283800 -0.00763687
v -0.03835702 0.04284304 -0.00762885
v -0.04189705 0.04164202 -0.00883664
v -0.04045426 0.04249485 -0.00762751
v -0.04328778 0.04145026 -0.00838772
v -0.04035758 0.04328207 -0.00549384
v -0.03959900 0.04369587 -0.00476570
v -0.04044683 0.04422573 -0.00071614
v -0.03895942 0.04448814 -0.00071614
v -0.02828726 0.04468999 -0.00071614
v -0.02828726 0.04408948 -0.00354455
v -0.03414021 0.04246962 -0.00762751
v -0.02828726 0.04385735 -0.00406561
v -0.02865911 0.04367064 -0.00453590
v -0.03625233 0.04179846 -0.00906376
v -0.03834214 0.04185901 -0.00912255
v -0.04044683 0.04176313 -0.00899028
v -0.04605436 0.03950743 -0.01089014
v -0.04746740 0.03934595 -0.01053342
v -0.04465619 0.04119795 -0.00762885
v -0.04362244 0.04155623 -0.00762751
v -0.04255151 0.04250999 -0.00553393
v -0.04526603 0.04281277 -0.00071614
v -0.04235815 0.04316601 -0.00325329
v -0.04153263 0.04365045 -0.00243429
v -0.04193424 0.04377661 -0.00132805
v -0.04215735 0.04383717 -0.00071614
v -0.04111616 0.04407939 -0.00071614
v -0.04044683 0.04411976 -0.00132805
v -0.02828726 0.03060574 -0.00071614
v -0.02993084 0.04306508 -0.00574101
v -0.03152981 0.04205077 -0.00762751
v -0.03297260 0.04154614 -0.00871372
v -0.02828726 0.04364036 -0.00449181
v -0.02828726 0.04334263 -0.00493671
v -0.02993084 0.03951752 -0.01091553
v -0.03203553 0.03967396 -0.01113598
v -0.03414021 0.03983544 -0.01134173
v -0.03625233 0.04103646 -0.01011390
v -0.03625233 0.03998683 -0.01148602
v -0.03834214 0.04104656 -0.01017268
v -0.04044683 0.04092040 -0.01004175
v -0.04464876 0.03961340 -0.01101840
v -0.04676831 0.03853349 -0.01149938
v -0.04885813 0.03803895 -0.01146732
v -0.05053890 0.03765039 -0.01117739
v -0.05195194 0.03728201 -0.01064698
v -0.04882094 0.03904317 -0.00979726
v -0.04809211 0.03954276 -0.00913324
v -0.04676831 0.04044100 -0.00762885
v -0.04775744 0.04151586 -0.00231538
v -0.04461901 0.04180350 -0.00542437
v -0.04693193 0.04202554 -0.00150040
v -0.04464876 0.04232327 -0.00343232
v -0.04687243 0.04225263 -0.00071614
v -0.04321341 0.04350916 -0.00071614
v -0.04299030 0.04343346 -0.00132805
v -0.02828726 0.01595629 -0.00864558
v -0.05279976 0.02801698 -0.00071614
v -0.08410972 -0.00241733 -0.00644110
v -0.02929126 0.04168744 -0.00762751
v -0.02828726 0.04116767 -0.00815124
v -0.02828726 0.04014327 -0.00964628
v -0.02828726 0.03939137 -0.01073783
v -0.02828726 0.03882618 -0.01133772
v -0.02828726 0.03866470 -0.01150606
v -0.02828726 0.03850826 -0.01165303
v -0.03625233 0.03837706 -0.01246802
v -0.03834214 0.03999692 -0.01146197
v -0.02993084 0.03837706 -0.01193226
v -0.03203553 0.03837706 -0.01214736
v -0.03414021 0.03837706 -0.01234510
v -0.04044683 0.03987076 -0.01131901
v -0.04255151 0.03974461 -0.01116938
v -0.04464876 0.03837706 -0.01189886
v -0.04885813 0.03627274 -0.01245733
v -0.05414587 0.03312889 -0.01289822
v -0.05308237 0.03593464 -0.01146732
v -0.05469621 0.03551075 -0.01111994
v -0.05091819 0.04047128 -0.00071614
v -0.04990675 0.03943174 -0.00658540
v -0.05113386 0.03791280 -0.00986406
v -0.05610925 0.03513228 -0.01054544
v -0.05645135 0.03533413 -0.00914393
v -0.04960183 0.03928539 -0.00762885
v -0.04854577 0.03974965 -0.00762751
v -0.04828547 0.04172276 -0.00071614
v -0.02828726 0.01487134 -0.00959418
v -0.08576819 -0.00648466 -0.00886068
v -0.05279976 0.03946201 -0.00071614
v -0.10103644 -0.00241733 -0.00644110
v -0.02828726 0.03654524 -0.01268846
v -0.04255151 0.03627274 -0.01273389
v -0.03834214 0.03837706 -0.01243862
v -0.02828726 0.03615163 -0.01285948
v -0.02993084 0.03627274 -0.01285280
v -0.03203553 0.03627274 -0.01283810
v -0.03414021 0.03627274 -0.01282207
v -0.04044683 0.03837706 -0.01230502
v -0.04255151 0.03837706 -0.01212198
v -0.04675344 0.03627274 -0.01262567
v -0.08039864 -0.00157460 -0.01430775
v -0.08249589 -0.00157460 -0.01429707
v -0.09932592 -0.00578322 -0.01436387
v -0.10143060 -0.00578322 -0.01430375
v -0.09932592 -0.00367891 -0.01420087
v -0.06466928 0.02682100 -0.01290223
v -0.05809493 0.03083282 -0.01287284
v -0.05735867 0.03192787 -0.01248672
v -0.05513499 0.03412806 -0.01191623
v -0.04464876 0.03627274 -0.01268579
v -0.05728430 0.03374454 -0.01134707
v -0.05879402 0.03334084 -0.01101306
v -0.04921510 0.04131401 -0.00071614
v -0.05787926 0.03498594 -0.00763820
v -0.05818418 0.03514237 -0.00644110
v -0.06017731 0.03295227 -0.01040783
v -0.06057147 0.03320459 -0.00900899
v -0.02828726 0.01446258 -0.01184274
v -0.07699991 -0.00495562 -0.01054678
v -0.10423437 -0.00648466 -0.00886068
v -0.08581281 -0.00648466 -0.00964094
v -0.07699991 -0.00495562 -0.01119476
v -0.05932205 0.03448635 -0.00644110
v -0.06092101 0.03348213 -0.00644110
v -0.06198451 0.03268482 -0.00644110
v -0.06330831 0.03163014 -0.00644110
v -0.06436436 0.03076722 -0.00644110
v -0.07919384 0.01852991 -0.00644110
v -0.08164806 0.01648616 -0.00644110
v -0.08381968 0.01446763 -0.00644110
v -0.08428078 0.01403365 -0.00644110
v -0.09500500 0.00371899 -0.00644110
v -0.09713943 0.00166009 -0.00644110
v -0.09774927 0.00105453 -0.00644110
v -0.09921436 -0.00045936 -0.00644110
v -0.10081333 -0.00215492 -0.00644110
v -0.10283620 -0.00431979 -0.00886068
v -0.10384021 -0.00578322 -0.00886068
v -0.02828726 0.03563691 -0.01287685
v -0.08249589 -0.00367891 -0.01429707
v -0.02828726 0.03473867 -0.01290490
v -0.02828726 0.01781333 -0.01332175
v -0.02828726 0.01735917 -0.01332175
v -0.09932592 -0.00648466 -0.01433715
v -0.10143060 -0.00648466 -0.01430775
v -0.10337168 -0.00648466 -0.01358762
v -0.10318575 -0.00578322 -0.01355022
v -0.10276927 -0.00442576 -0.01326029
v -0.10138598 -0.00370414 -0.01359564
v -0.08880250 0.00835655 -0.01308527
v -0.08624416 0.01044067 -0.01310531
v -0.08396098 0.01241378 -0.01307725
v -0.08169268 0.01438689 -0.01302248
v -0.08243639 0.01312026 -0.01319349
v -0.07102052 0.02265779 -0.01292895
v -0.06148623 0.03147875 -0.01114533
v -0.05944848 0.03217514 -0.01156885
v -0.06263897 0.03109523 -0.01087010
v -0.06285464 0.03127690 -0.00974114
v -0.06183577 0.03257380 -0.00763820
v -0.06078715 0.03336102 -0.00763820
v -0.02828726 0.01449286 -0.01195631
v -0.10426412 -0.00648466 -0.00974114
v -0.08610285 -0.00648466 -0.01154080
v -0.08617722 -0.00648466 -0.01184274
v -0.08663832 -0.00648466 -0.01297304
v -0.08691349 -0.00648466 -0.01341527
v -0.07824933 -0.00510197 -0.01187347
v -0.07891867 -0.00499600 -0.01322956
v -0.06314469 0.03152417 -0.00763820
v -0.08158856 0.01644074 -0.00709042
v -0.08376018 0.01440707 -0.00763820
v -0.10082820 -0.00219529 -0.01184274
v -0.09771952 0.00104444 -0.00763820
v -0.09878302 -0.00000519 -0.00763820
v -0.10112569 -0.00241733 -0.00974114
v -0.10190657 -0.00323988 -0.00974114
v -0.10285852 -0.00429456 -0.00974114
v -0.10289570 -0.00427437 -0.01184274
v -0.10389227 -0.00578322 -0.01184274
v -0.08039864 -0.00367891 -0.01422625
v -0.09091462 -0.00648466 -0.01409933
v -0.09862684 -0.00648466 -0.01432111
v -0.02828726 0.01578472 -0.01317746
v -0.10426412 -0.00648466 -0.01184274
v -0.10186195 -0.00322474 -0.01184274
v -0.10064228 -0.00236687 -0.01319215
v -0.09203762 0.00585357 -0.01295968
v -0.08986600 0.00790238 -0.01290089
v -0.09069895 0.00667108 -0.01311333
v -0.07941695 0.01636000 -0.01293964
v -0.08764232 0.00990072 -0.01255486
v -0.08567894 0.01212614 -0.01089014
v -0.08364863 0.01429101 -0.00900498
v -0.02828726 0.01545671 -0.01313470
v -0.08880250 -0.00648466 -0.01389358
v -0.08039864 -0.00516757 -0.01347807
v -0.09865659 -0.00016163 -0.01184274
v -0.09634367 0.00174588 -0.01307057
v -0.10111825 -0.00241733 -0.01028358
f 1 2 3
f 1 3 10
f 1 10 19
f 1 19 36
f 1 36 35
f 1 35 55
f 1 55 54
f 1 54 83
f 1 83 50
f 1 50 82
f 1 82 114
f 1 114 141
f 1 141 107
f 1 107 117
f 1 117 86
f 1 86 57
f 1 57 37
f 1 37 20
f 1 20 11
f 1 11 4
f 1 4 5
f 1 5 2
f 2 5 6
f 2 6 7
f 2 7 8
f 2 8 9
f 2 9 3
f 3 9 10
f 4 11 12
f 4 12 5
f 5 13 6
f 5 12 13
f 6 13 7
f 7 13 14
f 7 14 15
f 7 15 8
f 8 15 16
f 8 16 9
f 9 16 17
f 9 17 18
f 9 18 19
f 9 19 10
f 11 20 21
f 11 21 22
f 11 22 12
f 12 23 13
f 12 22 24
f 12 24 23
f 13 23 14
f 14 23 25
f 14 25 26
f 14 26 27
f 14 27 28
f 14 28 29
f 14 29 15
f 15 29 30
f 15 30 31
f 15 31 32
f 15 32 33
f 15 33 34
f 15 34 16
f 16 34 17
f 17 34 35
f 17 35 36
f 17 36 18
f 18 36 19
f 20 37 21
f 21 37 57
f 21 57 85
f 21 85 115
f 21 115 146
f 21 146 190
f 21 190 223
f 21 223 212
f 21 212 171
f 21 171 170
f 21 170 169
f 21 169 167
f 21 167 122
f 21 122 119
f 21 119 94
f 21 94 93
f 21 93 92
f 21 92 91
f 21 91 90
f 21 90 89
f 21 89 62
f 21 62 61
f 21 61 40
f 21 40 38
f 21 38 24
f 21 24 22
f 23 24 38
f 23 38 25
f 25 38 26
f 26 39 27
f 26 38 40
f 26 40 41
f 26 41 39
f 27 42 43
f 27 43 28
f 27 39 42
f 28 43 29
f 29 43 44
f 29 44 30
f 30 45 46
f 30 46 32
f 30 32 31
f 30 44 45
f 32 47 48
f 32 48 33
f 32 46 47
f 33 48 47
f 33 47 49
f 33 49 50
f 33 50 51
f 33 51 52
f 33 52 34
f 34 52 53
f 34 53 54
f 34 54 55
f 34 55 56
f 34 56 35
f 35 56 55
f 39 41 58
f 39 58 59
f 39 59 60
f 39 60 42
f 40 61 41
f 41 61 62
f 41 62 58
f 42 60 63
f 42 63 64
f 42 64 65
f 42 65 66
f 42 66 43
f 43 66 67
f 43 67 68
f 43 68 44
f 44 68 69
f 44 69 70
f 44 70 45
f 45 70 71
f 45 71 72
f 45 72 46
f 46 72 73
f 46 73 74
f 46 74 75
f 46 75 76
f 46 76 47
f 47 77 78
f 47 78 79
f 47 79 49
f 47 76 77
f 49 79 78
f 49 78 80
f 49 80 81
f 49 81 82
f 49 82 50
f 50 83 84
f 50 84 51
f 51 84 52
f 52 84 83
f 52 83 53
f 53 83 54
f 57 86 87
f 57 87 85
f 58 62 59
f 59 62 88
f 59 88 60
f 60 88 89
f 60 89 90
f 60 90 91
f 60 91 63
f 62 89 88
f 63 91 92
f 63 92 64
f 64 92 93
f 64 93 65
f 65 93 94
f 65 94 67
f 65 67 66
f 67 95 96
f 67 96 68
f 67 94 97
f 67 97 98
f 67 98 99
f 67 99 95
f 68 96 69
f 69 96 100
f 69 100 101
f 69 101 70
f 70 101 102
f 70 102 71
f 71 103 72
f 71 102 103
f 72 103 104
f 72 104 105
f 72 105 73
f 73 105 106
f 73 106 74
f 74 107 108
f 74 108 109
f 74 109 75
f 74 106 110
f 74 110 111
f 74 111 107
f 75 112 76
f 75 109 112
f 76 112 113
f 76 113 114
f 76 114 78
f 76 78 77
f 78 114 82
f 78 82 80
f 80 82 81
f 85 87 116
f 85 116 115
f 86 117 118
f 86 118 87
f 87 118 148
f 87 148 116
f 94 119 97
f 95 120 121
f 95 121 96
f 95 99 122
f 95 122 123
f 95 123 124
f 95 124 125
f 95 125 120
f 96 121 126
f 96 126 127
f 96 127 102
f 96 102 100
f 97 119 98
f 98 119 99
f 99 119 122
f 100 102 101
f 102 127 103
f 103 127 126
f 103 126 128
f 103 128 104
f 104 129 130
f 104 130 131
f 104 131 132
f 104 132 133
f 104 133 134
f 104 134 135
f 104 135 136
f 104 136 137
f 104 137 105
f 104 128 138
f 104 138 120
f 104 120 125
f 104 125 124
f 104 124 123
f 104 123 129
f 105 137 139
f 105 139 106
f 106 139 140
f 106 140 110
f 107 141 108
f 107 111 142
f 107 142 143
f 107 143 117
f 108 141 112
f 108 112 109
f 110 140 144
f 110 144 145
f 110 145 111
f 111 145 142
f 112 141 114
f 112 114 113
f 115 116 147
f 115 147 146
f 116 148 191
f 116 191 213
f 116 213 174
f 116 174 173
f 116 173 172
f 116 172 211
f 116 211 210
f 116 210 224
f 116 224 195
f 116 195 194
f 116 194 193
f 116 193 192
f 116 192 149
f 116 149 150
f 116 150 147
f 117 143 151
f 117 151 152
f 117 152 153
f 117 153 154
f 117 154 155
f 117 155 156
f 117 156 157
f 117 157 158
f 117 158 159
f 117 159 160
f 117 160 161
f 117 161 162
f 117 162 163
f 117 163 164
f 117 164 118
f 118 164 165
f 118 165 166
f 118 166 148
f 120 138 121
f 121 138 128
f 121 128 126
f 122 167 129
f 122 129 123
f 129 168 131
f 129 131 130
f 129 167 169
f 129 169 170
f 129 170 171
f 129 171 168
f 131 168 172
f 131 172 173
f 131 173 132
f 132 173 174
f 132 174 175
f 132 175 176
f 132 176 177
f 132 177 133
f 133 177 178
f 133 178 179
f 133 179 180
f 133 180 181
f 133 181 182
f 133 182 183
f 133 183 134
f 134 183 184
f 134 184 185
f 134 185 136
f 134 136 135
f 136 185 137
f 137 185 139
f 139 185 140
f 140 185 184
f 140 184 186
f 140 186 144
f 142 145 143
f 143 145 151
f 144 186 145
f 145 186 187
f 145 187 188
f 145 188 189
f 145 189 151
f 146 147 150
f 146 150 190
f 148 166 191
f 149 192 150
f 150 192 193
f 150 193 194
f 150 194 195
f 150 195 196
f 150 196 197
f 150 197 190
f 151 189 152
f 152 189 153
f 153 189 188
f 153 188 154
f 154 198 155
f 154 188 198
f 155 198 199
f 155 199 156
f 156 199 157
f 157 200 158
f 157 199 200
f 158 200 159
f 159 200 201
f 159 201 202
f 159 202 160
f 160 202 161
f 161 202 203
f 161 203 162
f 162 203 163
f 163 203 204
f 163 204 205
f 163 205 164
f 164 205 206
f 164 206 165
f 165 206 166
f 166 206 207
f 166 207 208
f 166 208 191
f 168 171 209
f 168 209 210
f 168 210 211
f 168 211 172
f 171 212 209
f 174 213 175
f 175 213 176
f 176 214 201
f 176 201 215
f 176 215 177
f 176 213 208
f 176 208 207
f 176 207 214
f 177 215 216
f 177 216 217
f 177 217 218
f 177 218 178
f 178 218 217
f 178 217 180
f 178 180 179
f 180 217 181
f 181 219 183
f 181 183 182
f 181 217 219
f 183 186 184
f 183 219 186
f 186 219 220
f 186 220 221
f 186 221 187
f 187 198 188
f 187 221 222
f 187 222 199
f 187 199 198
f 190 197 223
f 191 208 213
f 195 224 225
f 195 225 197
f 195 197 196
f 197 225 223
f 199 222 200
f 200 222 221
f 200 221 226
f 200 226 201
f 201 226 217
f 201 217 216
f 201 216 227
f 201 227 215
f 201 214 228
f 201 228 202
f 202 228 203
f 203 228 204
f 204 228 207
f 204 207 205
f 205 207 206
f 207 228 214
f 209 225 224
f 209 224 210
f 209 212 223
f 209 223 225
f 215 227 216
f 217 221 220
f 217 220 219
f 217 226 221

