# https://github.com/mikedh/trimesh
v 0.01026375 -0.01007052 0.01351521
v 0.01026815 -0.02471996 0.01292012
v 0.01026815 -0.02261605 0.01297795
v 0.01026815 -0.02051624 0.01299240
v 0.01026815 -0.01841233 0.01299722
v 0.01026815 -0.01838772 0.01299722
v 0.01026815 -0.01838363 0.00684401
v 0.01026375 -0.01007052 0.00827992
v 0.00352938 -0.01007052 0.01698452
v 0.01026815 -0.02682386 0.01282616
v 0.01026815 -0.01838363 0.00003067
v 0.00902170 -0.01312180 0.00389751
v 0.00483749 -0.01101790 0.00390955
v 0.00408874 -0.01007052 0.00470460
v 0.01026815 -0.02225514 -0.00600930
v 0.00154739 -0.01007052 0.01792894
v 0.01026815 -0.02877603 0.01257078
v 0.00171035 -0.01007052 0.00415771
v -0.00032890 -0.01007052 0.00408784
v -0.00031569 -0.01007052 0.00408784
v 0.00161345 -0.01007052 0.00414084
v 0.01026815 -0.03556349 -0.00600930
v -0.01100083 -0.02662701 -0.00600930
v -0.00048306 -0.01007052 0.01842524
v -0.00048306 -0.01210061 0.01811204
v 0.01026815 -0.02900159 0.01253705
v -0.00262361 -0.01007052 0.00482748
v -0.01278022 -0.02720527 -0.00600930
v 0.01026815 -0.03574394 -0.00575151
v -0.01647994 -0.04648905 -0.00600930
v -0.00055793 -0.01007052 0.01843970
v -0.00258837 -0.01210061 0.01850957
v 0.01026815 -0.02988745 0.01232022
v -0.01309293 -0.01007052 0.00851844
v -0.01529074 -0.01007052 0.00933999
v -0.03472748 -0.03836870 -0.00600930
v 0.01026815 -0.03636732 -0.00469867
v -0.01587213 -0.04692787 -0.00474686
v -0.02198988 -0.04872009 -0.00600930
v -0.00258837 -0.01007052 0.01854089
v -0.00469809 -0.01007052 0.01857221
v -0.00679460 -0.01007052 0.01859871
v -0.00469809 -0.01210061 0.01850234
v -0.03472748 -0.04574673 0.01290326
v -0.03412848 -0.04574673 0.01288880
v -0.03412848 -0.04714113 0.01258524
v -0.03202757 -0.04574673 0.01276834
v -0.03001915 -0.04581645 0.01257319
v 0.01026815 -0.03101938 0.01126497
v -0.01729476 -0.04091554 0.01245755
v -0.01597343 -0.04063666 0.01238045
v -0.01729476 -0.04196954 0.01215157
v -0.02361511 -0.04574673 0.01153722
v -0.02361511 -0.04717394 0.01062412
v -0.01537883 -0.01007052 0.00940022
v -0.03472748 -0.05005708 -0.00600930
v -0.03472748 -0.02316561 0.00958332
v 0.01026815 -0.03636732 -0.00392289
v -0.01650636 -0.04879801 0.00077513
v -0.01755902 -0.04926145 0.00077513
v -0.01519384 -0.04781373 -0.00132573
v -0.01382847 -0.04690737 -0.00272309
v -0.01311936 -0.04638652 -0.00342659
v -0.01447592 -0.04666539 -0.00412527
v -0.02249638 -0.04891695 -0.00600930
v -0.00891313 -0.01007052 0.01849270
v -0.03472748 -0.04423340 0.01295626
v -0.03472748 -0.04714113 0.01259247
v -0.01086870 -0.01007052 0.01833851
v -0.01100083 -0.01007052 0.01832406
v -0.03412848 -0.04801879 0.01128907
v -0.02782134 -0.04870368 0.00962669
v -0.02782134 -0.04764968 0.01110115
v -0.02571602 -0.04753074 0.01093250
v -0.03202757 -0.04697709 0.01245755
v -0.03078111 -0.04684175 0.01236841
v 0.01026815 -0.03204877 0.01020250
v -0.02237747 -0.04688276 0.01035428
v -0.02937610 -0.04656697 0.01226481
v -0.02782134 -0.04621836 0.01215398
v -0.02571602 -0.04562779 0.01202629
v -0.02571602 -0.04858475 0.00945081
v -0.02376046 -0.04824436 0.00902438
v -0.01642268 -0.01007052 0.01128907
v -0.03472748 -0.05010219 -0.00592979
v -0.03236671 -0.05035646 -0.00600930
v -0.03472748 -0.02292774 0.01128907
v 0.01026815 -0.03549787 0.00287840
v -0.01769996 -0.04923274 0.00251942
v -0.01519384 -0.04817873 0.00077513
v -0.01940448 -0.04994634 0.00077513
v -0.01794661 -0.04904409 -0.00071619
v -0.01518063 -0.04716164 -0.00342659
v -0.02312181 -0.04914251 -0.00600930
v -0.03472748 -0.04363872 0.01297313
v -0.01111975 -0.01007052 0.01830237
v -0.03472748 -0.04800238 0.01128907
v -0.03412848 -0.04872419 0.00964837
v -0.03202757 -0.04872829 0.00969174
v -0.02992225 -0.04871599 0.00966524
v -0.02992225 -0.04904818 0.00861481
v -0.02992225 -0.05018831 0.00498408
v -0.02782134 -0.04903178 0.00857626
v -0.02571602 -0.04898256 0.00840279
v 0.01026815 -0.03453819 0.00650913
v -0.02143051 -0.04841250 0.00709698
v -0.02161110 -0.04726417 0.00915689
v -0.02455766 -0.04892925 0.00821246
v -0.02315705 -0.04870779 0.00780771
v -0.01670456 -0.01007052 0.01314418
v -0.03202316 -0.05110698 -0.00467699
v -0.03328283 -0.05102495 -0.00453002
v -0.03472748 -0.05091833 -0.00434692
v -0.03204078 -0.05039337 -0.00600930
v -0.03472748 -0.02302206 0.01163359
v -0.01657683 -0.01007052 0.01545947
v -0.01659005 -0.01007052 0.01541128
v 0.01026815 -0.03514927 0.00498408
v -0.01836503 -0.04889644 0.00392160
v -0.01920187 -0.04958954 0.00308318
v -0.02150979 -0.05022933 0.00287840
v -0.02150979 -0.05047540 0.00077513
v -0.02431541 -0.05109878 -0.00064873
v -0.02361511 -0.05071736 -0.00133778
v -0.02150979 -0.05007758 -0.00132573
v -0.01933841 -0.04931886 -0.00138114
v -0.02140849 -0.04935577 -0.00352055
v -0.01999467 -0.04906459 -0.00287728
v -0.02063772 -0.04883083 -0.00427946
v -0.02204273 -0.04908099 -0.00503837
v -0.02348298 -0.04938858 -0.00565514
v -0.02571602 -0.05017601 -0.00553227
v -0.02572483 -0.04998736 -0.00600930
v -0.03472748 -0.04213359 0.01298517
v -0.01307972 -0.01007052 0.01778920
v -0.03472748 -0.02531463 0.01295626
v -0.03472748 -0.02682386 0.01303095
v -0.03472748 -0.02741853 0.01303818
v -0.03472748 -0.02952654 0.01303818
v -0.03472748 -0.03161405 0.01303095
v -0.03472748 -0.04870779 0.00958814
v -0.03412848 -0.04956084 0.00684401
v -0.03202316 -0.05145558 0.00077513
v -0.03202316 -0.05019242 0.00498408
v -0.03202757 -0.04962235 0.00684642
v -0.03016449 -0.04960595 0.00684642
v -0.02992225 -0.05075838 0.00313378
v -0.02782134 -0.04955673 0.00684642
v -0.02992225 -0.05147609 0.00077513
v -0.02571602 -0.04943780 0.00684642
v -0.02361511 -0.04981101 0.00498408
v -0.02782134 -0.05011860 0.00498408
v -0.02831023 -0.05104546 0.00197493
v -0.02127636 -0.04849453 0.00684642
v -0.02067736 -0.04879801 0.00587309
v -0.02207796 -0.04907689 0.00640071
v -0.02166835 -0.04865447 0.00684642
v -0.02992225 -0.05063124 -0.00600930
v -0.02992225 -0.05067636 -0.00592016
v -0.02992225 -0.05118080 -0.00486973
v -0.03202316 -0.05168935 -0.00342900
v -0.03472748 -0.05093473 -0.00430597
v -0.03467903 -0.05093883 -0.00431560
v -0.03472748 -0.02342808 0.01256115
v -0.01507052 -0.01007052 0.01699897
v -0.01976564 -0.04919172 0.00447091
v -0.02143051 -0.04940909 0.00509490
v -0.02361511 -0.05042208 0.00287840
v -0.02768480 -0.05129154 0.00096305
v -0.02571602 -0.05121771 0.00053180
v -0.02431541 -0.05109878 0.00014150
v -0.02776408 -0.05132844 -0.00347237
v -0.02636788 -0.05111518 -0.00280019
v -0.02496727 -0.05091833 -0.00205091
v -0.02782134 -0.05164424 -0.00132573
v -0.02992225 -0.05175086 -0.00342900
v -0.02568519 -0.05073787 -0.00347237
v -0.02702414 -0.05092653 -0.00420237
v -0.02842474 -0.05112749 -0.00478540
v -0.02776408 -0.05070096 -0.00550336
v -0.02777730 -0.05049180 -0.00600930
v -0.01491196 -0.01007052 0.01707848
v -0.03472748 -0.02471996 0.01290567
v -0.03472748 -0.04944600 0.00708494
v -0.03412848 -0.05011039 0.00498408
v -0.03346341 -0.05103316 0.00193879
v -0.03414169 -0.05126283 0.00092932
v -0.03472748 -0.05125052 0.00080645
v -0.03202316 -0.05196823 -0.00132573
v -0.02992225 -0.05196823 -0.00132573
v -0.03412848 -0.05169755 -0.00132573
v -0.03472748 -0.05155401 -0.00177144
v -0.03472748 -0.05128743 -0.00333986
v -0.03404039 -0.05133254 -0.00353983
v -0.03472748 -0.05116850 -0.00366992
v -0.03472748 -0.02376848 0.01265752
v -0.03472748 -0.05006118 0.00498408
v -0.03472748 -0.05093063 0.00193157
v -0.03472748 -0.05161553 -0.00132573
f 1 2 3
f 1 3 4
f 1 4 5
f 1 5 6
f 1 6 7
f 1 7 11
f 1 11 8
f 1 8 14
f 1 14 18
f 1 18 21
f 1 21 20
f 1 20 19
f 1 19 27
f 1 27 34
f 1 34 35
f 1 35 55
f 1 55 84
f 1 84 110
f 1 110 117
f 1 117 116
f 1 116 165
f 1 165 182
f 1 182 135
f 1 135 96
f 1 96 70
f 1 70 69
f 1 69 66
f 1 66 42
f 1 42 41
f 1 41 40
f 1 40 31
f 1 31 24
f 1 24 16
f 1 16 9
f 1 9 2
f 2 10 17
f 2 17 26
f 2 26 33
f 2 33 49
f 2 49 77
f 2 77 105
f 2 105 118
f 2 118 88
f 2 88 58
f 2 58 37
f 2 37 29
f 2 29 22
f 2 22 15
f 2 15 11
f 2 11 7
f 2 7 6
f 2 6 5
f 2 5 4
f 2 4 3
f 2 9 10
f 8 12 13
f 8 13 14
f 8 11 15
f 8 15 12
f 9 16 10
f 10 16 17
f 12 15 13
f 13 18 14
f 13 15 18
f 15 19 20
f 15 20 21
f 15 21 18
f 15 22 30
f 15 30 39
f 15 39 65
f 15 65 94
f 15 94 133
f 15 133 181
f 15 181 158
f 15 158 114
f 15 114 86
f 15 86 56
f 15 56 36
f 15 36 28
f 15 28 23
f 15 23 19
f 16 24 25
f 16 25 26
f 16 26 17
f 19 23 28
f 19 28 27
f 22 29 30
f 24 31 25
f 25 31 32
f 25 32 26
f 26 32 33
f 27 28 34
f 28 35 34
f 28 36 35
f 29 37 30
f 30 38 39
f 30 37 38
f 31 40 32
f 32 40 41
f 32 41 42
f 32 42 43
f 32 43 44
f 32 44 45
f 32 45 46
f 32 46 47
f 32 47 48
f 32 48 33
f 33 48 50
f 33 50 51
f 33 51 52
f 33 52 53
f 33 53 54
f 33 54 49
f 35 36 55
f 36 56 85
f 36 85 113
f 36 113 162
f 36 162 195
f 36 195 193
f 36 193 192
f 36 192 199
f 36 199 188
f 36 188 198
f 36 198 197
f 36 197 184
f 36 184 141
f 36 141 97
f 36 97 68
f 36 68 44
f 36 44 67
f 36 67 95
f 36 95 134
f 36 134 140
f 36 140 139
f 36 139 138
f 36 138 137
f 36 137 136
f 36 136 183
f 36 183 196
f 36 196 164
f 36 164 115
f 36 115 87
f 36 87 57
f 36 57 55
f 37 58 59
f 37 59 60
f 37 60 61
f 37 61 62
f 37 62 63
f 37 63 64
f 37 64 38
f 38 64 65
f 38 65 39
f 42 66 43
f 43 66 44
f 44 68 46
f 44 46 45
f 44 66 69
f 44 69 70
f 44 70 67
f 46 71 72
f 46 72 73
f 46 73 74
f 46 74 75
f 46 75 47
f 46 68 71
f 47 75 48
f 48 75 76
f 48 76 51
f 48 51 50
f 49 54 78
f 49 78 77
f 51 76 52
f 52 76 79
f 52 79 80
f 52 80 81
f 52 81 53
f 53 81 80
f 53 80 74
f 53 74 54
f 54 74 82
f 54 82 83
f 54 83 78
f 55 57 84
f 56 86 85
f 57 87 84
f 58 88 89
f 58 89 90
f 58 90 59
f 59 90 89
f 59 89 60
f 60 89 91
f 60 91 92
f 60 92 61
f 61 92 62
f 62 92 93
f 62 93 64
f 62 64 63
f 64 93 65
f 65 93 94
f 67 70 96
f 67 96 95
f 68 97 71
f 71 97 98
f 71 98 99
f 71 99 100
f 71 100 72
f 72 100 101
f 72 101 102
f 72 102 103
f 72 103 104
f 72 104 82
f 72 82 74
f 72 74 73
f 74 80 79
f 74 79 76
f 74 76 75
f 77 78 105
f 78 106 107
f 78 107 105
f 78 83 106
f 82 104 108
f 82 108 83
f 83 108 109
f 83 109 106
f 84 87 110
f 85 86 111
f 85 111 112
f 85 112 113
f 86 114 111
f 87 115 116
f 87 116 117
f 87 117 110
f 88 118 89
f 89 118 105
f 89 105 119
f 89 119 120
f 89 120 91
f 91 120 121
f 91 121 122
f 91 122 123
f 91 123 124
f 91 124 125
f 91 125 92
f 92 125 126
f 92 126 127
f 92 127 128
f 92 128 93
f 93 128 129
f 93 129 130
f 93 130 94
f 94 130 131
f 94 131 132
f 94 132 133
f 95 96 134
f 96 135 136
f 96 136 137
f 96 137 138
f 96 138 139
f 96 139 140
f 96 140 134
f 97 141 98
f 98 142 143
f 98 143 144
f 98 144 145
f 98 145 99
f 98 141 142
f 99 145 101
f 99 101 100
f 101 146 102
f 101 145 146
f 102 147 103
f 102 146 145
f 102 145 147
f 103 148 104
f 103 147 149
f 103 149 148
f 104 150 151
f 104 151 108
f 104 148 152
f 104 152 153
f 104 153 150
f 105 107 154
f 105 154 155
f 105 155 119
f 106 154 107
f 106 109 154
f 108 151 121
f 108 121 156
f 108 156 109
f 109 156 157
f 109 157 154
f 111 158 159
f 111 159 160
f 111 160 161
f 111 161 112
f 111 114 158
f 112 161 113
f 113 161 163
f 113 163 162
f 115 164 116
f 116 164 165
f 119 155 166
f 119 166 120
f 120 166 156
f 120 156 167
f 120 167 121
f 121 167 156
f 121 151 168
f 121 168 169
f 121 169 170
f 121 170 171
f 121 171 122
f 122 171 123
f 123 172 173
f 123 173 174
f 123 174 124
f 123 171 175
f 123 175 176
f 123 176 172
f 124 174 177
f 124 177 132
f 124 132 125
f 125 131 127
f 125 127 126
f 125 132 131
f 127 131 130
f 127 130 128
f 128 130 129
f 132 177 178
f 132 178 179
f 132 179 180
f 132 180 133
f 133 180 181
f 135 182 183
f 135 183 136
f 141 184 185
f 141 185 142
f 142 185 143
f 143 149 144
f 143 185 186
f 143 186 187
f 143 187 188
f 143 188 189
f 143 189 149
f 144 149 147
f 144 147 145
f 148 149 152
f 149 189 190
f 149 190 169
f 149 169 153
f 149 153 152
f 150 169 168
f 150 168 151
f 150 153 169
f 154 157 156
f 154 156 155
f 155 156 166
f 158 181 159
f 159 181 179
f 159 179 160
f 160 176 161
f 160 179 176
f 161 189 191
f 161 191 192
f 161 192 193
f 161 193 194
f 161 194 163
f 161 176 189
f 162 163 194
f 162 194 195
f 164 196 182
f 164 182 165
f 169 190 170
f 170 190 171
f 171 190 175
f 172 178 173
f 172 176 179
f 172 179 178
f 173 178 174
f 174 178 177
f 175 190 176
f 176 190 189
f 179 181 180
f 182 196 183
f 184 197 185
f 185 197 186
f 186 197 198
f 186 198 188
f 186 188 187
f 188 199 191
f 188 191 189
f 191 199 192
f 193 195 194

