# https://github.com/mikedh/trimesh
v -0.02828486 0.01669867 -0.01326320
v -0.02828108 0.01577616 -0.01317840
v -0.02828108 0.01544816 -0.01313247
v -0.02828108 0.01448978 -0.01195593
v -0.02828108 0.01445903 -0.01184287
v -0.02828486 0.01669867 -0.00860120
v -0.02828486 0.01735468 -0.01332150
v -0.01630803 0.00515707 -0.01923070
v -0.01417982 -0.00077773 -0.01922010
v -0.01638349 -0.00806041 -0.01531596
v -0.01648160 -0.00806041 -0.01523117
v -0.01687781 -0.00806041 -0.01394686
v -0.02828108 0.01485878 -0.00959755
v -0.01676084 -0.00806041 -0.01175454
v -0.02828108 0.01595041 -0.00864713
v -0.02828486 0.03125379 -0.00277855
v -0.02828486 0.01781593 -0.01332150
v -0.01630803 0.00683296 -0.01923070
v -0.01531562 0.00697134 -0.01923777
v -0.01099128 -0.00475988 -0.01921480
v -0.01207803 -0.00475476 -0.01921304
v -0.01502507 -0.00806041 -0.01623105
v -0.01638727 -0.00806041 -0.01063276
v -0.00836498 -0.00534414 -0.00119040
v -0.00930456 -0.00367850 -0.00119040
v -0.02828486 0.04429703 -0.00277855
v -0.00978001 -0.00242287 -0.00119040
v -0.02828486 0.03425707 -0.01291695
v -0.01627407 0.00789897 -0.01921304
v -0.01519864 0.00793485 -0.01922540
v -0.02828486 0.03474395 -0.01290458
v -0.01309307 0.00799122 -0.01922540
v 0.00161571 0.00263043 -0.01916357
v 0.00371750 0.00052916 -0.01915121
v -0.00959134 -0.00474963 -0.01920774
v 0.00161571 -0.00806041 -0.01856647
v -0.00889703 -0.00806041 -0.01807536
v -0.01099128 -0.00806041 -0.01795877
v -0.01299874 -0.00806041 -0.01740406
v -0.01585899 -0.00806041 -0.01018229
v -0.00713108 -0.00639990 -0.00119040
v 0.00815127 0.04289277 -0.00277855
v 0.00815127 0.04278514 -0.00323080
v -0.02828486 0.04419965 -0.00314600
v 0.00577024 -0.00242287 -0.00119040
v -0.00469345 0.01104062 -0.01904344
v -0.02828486 0.03615846 -0.01286042
v -0.00259165 0.01104062 -0.01903814
v -0.00902910 0.00875998 -0.01917240
v -0.01099128 0.00799635 -0.01921304
v 0.00161571 0.00473169 -0.01915297
v 0.00371750 0.00263043 -0.01914591
v 0.00546837 0.00683296 -0.01809303
v 0.00528724 0.00052916 -0.01811069
v 0.00524574 -0.00157723 -0.01810363
v 0.00371750 -0.00157723 -0.01911587
v 0.00372128 -0.00367850 -0.01899045
v 0.00161571 -0.00577977 -0.01881909
v 0.00372128 -0.00577977 -0.01862830
v 0.00372128 -0.00806041 -0.01822552
v -0.01554202 -0.00806041 -0.00994910
v -0.00468967 -0.00767091 -0.00119040
v -0.00599528 -0.00706103 -0.00119040
v -0.00614621 -0.00697903 -0.00119040
v 0.00815127 0.02550350 -0.00277855
v 0.01026438 -0.00806041 -0.00973534
v 0.01026438 -0.00789641 -0.00979010
v 0.01026438 -0.00781954 -0.01198243
v 0.00815127 0.04268776 -0.00346045
v -0.02828486 0.04409203 -0.00354525
v 0.00566459 -0.00367850 -0.00119040
v -0.00259165 0.01314189 -0.01863713
v -0.02828486 0.03654796 -0.01268729
v -0.02571516 0.03643009 -0.01280919
v -0.00048986 0.01104062 -0.01896748
v 0.00161571 0.00893423 -0.01906641
v -0.00048986 0.00893423 -0.01909468
v 0.00161571 0.00683296 -0.01913707
v 0.00371750 0.00473169 -0.01913177
v 0.00371750 0.00683296 -0.01911234
v 0.00687963 0.00999511 -0.01710727
v 0.00687963 0.00995411 -0.01710727
v 0.00523064 -0.00242287 -0.01807183
v 0.00520045 -0.00367850 -0.01802413
v 0.00372128 -0.00242287 -0.01906464
v 0.00382316 -0.00806041 -0.01815839
v -0.01534958 -0.00806041 -0.00982897
v -0.00455383 -0.00770166 -0.00119040
v 0.01026438 -0.00806041 -0.01229158
v 0.00562685 -0.00378100 -0.00119040
v 0.00509480 -0.00507764 -0.00119040
v 0.00370618 -0.00576439 -0.00119040
v -0.00047477 -0.00718915 -0.00119040
v -0.00245204 -0.00784004 -0.00119040
v -0.00258788 -0.00787079 -0.00119040
v 0.00801165 -0.00806041 -0.00885558
v 0.01026438 -0.00785029 -0.01202836
v 0.00815127 0.04146288 -0.00535246
v 0.00815127 0.04237514 -0.00396923
v -0.02828486 0.04364102 -0.00449213
v -0.02828486 0.04385628 -0.00406639
v -0.01622124 0.03523083 -0.01289752
v 0.00815127 0.03416994 -0.01207782
v -0.02828486 0.03850573 -0.01165208
v -0.02571516 0.03814185 -0.01175631
v 0.00815127 0.03638909 -0.01121573
v 0.00815127 0.03621484 -0.01130053
v 0.00371750 0.00893423 -0.01876079
v 0.00815127 0.02958816 -0.01303884
v 0.00815127 0.02941903 -0.01306711
v 0.00815127 0.02786101 -0.01330736
v 0.00815127 0.02764064 -0.01333033
v 0.00815127 0.02575975 -0.01348402
v 0.00504197 -0.00806041 -0.01731926
v 0.00495518 -0.00806041 -0.01739346
v -0.01326665 -0.00806041 -0.00890152
v 0.00815127 0.03206868 -0.01252124
v 0.00815127 0.03809573 -0.00950215
v 0.00815127 0.03961274 -0.00764018
v 0.00815127 0.04021237 -0.00690175
v -0.01309307 -0.00806041 -0.00885558
v -0.00705561 -0.00806041 -0.00754478
v -0.00680656 -0.00806041 -0.00753242
v -0.00468967 -0.00806041 -0.00746529
v -0.00273127 -0.00806041 -0.00766138
v -0.02828486 0.03939236 -0.01073876
v -0.02828486 0.04014574 -0.00964701
v -0.02828486 0.04117075 -0.00815249
v -0.02828486 0.04211376 -0.00676042
v -0.02828486 0.03866973 -0.01150722
f 1 2 3
f 1 3 4
f 1 4 5
f 1 5 6
f 1 6 16
f 1 16 26
f 1 26 44
f 1 44 70
f 1 70 101
f 1 101 100
f 1 100 129
f 1 129 128
f 1 128 127
f 1 127 126
f 1 126 130
f 1 130 104
f 1 104 73
f 1 73 47
f 1 47 31
f 1 31 28
f 1 28 17
f 1 17 7
f 1 7 8
f 1 8 2
f 2 8 3
f 3 8 9
f 3 9 10
f 3 10 11
f 3 11 4
f 4 11 12
f 4 12 5
f 5 13 6
f 5 12 14
f 5 14 13
f 6 13 15
f 6 15 16
f 7 17 18
f 7 18 8
f 8 18 19
f 8 19 9
f 9 19 20
f 9 20 21
f 9 21 22
f 9 22 10
f 10 22 39
f 10 39 38
f 10 38 37
f 10 37 36
f 10 36 60
f 10 60 86
f 10 86 115
f 10 115 114
f 10 114 89
f 10 89 66
f 10 66 96
f 10 96 125
f 10 125 124
f 10 124 123
f 10 123 122
f 10 122 121
f 10 121 116
f 10 116 87
f 10 87 61
f 10 61 40
f 10 40 23
f 10 23 14
f 10 14 12
f 10 12 11
f 13 14 23
f 13 23 15
f 15 23 24
f 15 24 25
f 15 25 16
f 16 25 27
f 16 27 26
f 17 28 18
f 18 29 30
f 18 30 19
f 18 28 31
f 18 31 29
f 19 30 32
f 19 32 33
f 19 33 20
f 20 33 34
f 20 34 35
f 20 35 36
f 20 36 21
f 21 36 37
f 21 37 38
f 21 38 39
f 21 39 22
f 23 40 24
f 24 40 41
f 24 41 64
f 24 64 63
f 24 63 62
f 24 62 88
f 24 88 95
f 24 95 94
f 24 94 93
f 24 93 92
f 24 92 91
f 24 91 90
f 24 90 71
f 24 71 45
f 24 45 27
f 24 27 25
f 26 42 43
f 26 43 44
f 26 27 45
f 26 45 42
f 29 46 30
f 29 31 47
f 29 47 46
f 30 46 32
f 32 46 48
f 32 48 49
f 32 49 50
f 32 50 33
f 33 51 52
f 33 52 34
f 33 50 51
f 34 52 53
f 34 53 54
f 34 54 55
f 34 55 56
f 34 56 35
f 35 56 57
f 35 57 58
f 35 58 36
f 36 58 57
f 36 57 59
f 36 59 60
f 40 61 62
f 40 62 63
f 40 63 64
f 40 64 41
f 42 45 65
f 42 65 66
f 42 66 67
f 42 67 68
f 42 68 43
f 43 68 69
f 43 69 70
f 43 70 44
f 45 71 66
f 45 66 65
f 46 72 48
f 46 47 72
f 47 73 74
f 47 74 72
f 48 72 75
f 48 75 76
f 48 76 77
f 48 77 49
f 49 77 50
f 50 77 78
f 50 78 51
f 51 79 52
f 51 78 79
f 52 79 53
f 53 80 81
f 53 81 82
f 53 82 55
f 53 55 54
f 53 79 80
f 55 82 83
f 55 83 56
f 56 83 84
f 56 84 85
f 56 85 57
f 57 85 84
f 57 84 59
f 59 86 60
f 59 84 86
f 61 87 88
f 61 88 62
f 66 89 97
f 66 97 68
f 66 68 67
f 66 71 90
f 66 90 91
f 66 91 92
f 66 92 93
f 66 93 94
f 66 94 95
f 66 95 96
f 68 97 98
f 68 98 99
f 68 99 69
f 69 99 100
f 69 100 101
f 69 101 70
f 72 74 102
f 72 102 103
f 72 103 75
f 73 104 74
f 74 104 105
f 74 105 106
f 74 106 107
f 74 107 102
f 75 108 76
f 75 103 108
f 76 108 80
f 76 80 77
f 77 80 78
f 78 80 79
f 80 108 81
f 81 89 82
f 81 108 109
f 81 109 110
f 81 110 111
f 81 111 112
f 81 112 113
f 81 113 89
f 82 84 83
f 82 89 84
f 84 89 114
f 84 114 115
f 84 115 86
f 87 116 95
f 87 95 88
f 89 113 112
f 89 112 111
f 89 111 110
f 89 110 109
f 89 109 117
f 89 117 103
f 89 103 107
f 89 107 106
f 89 106 118
f 89 118 119
f 89 119 120
f 89 120 98
f 89 98 97
f 95 116 121
f 95 121 122
f 95 122 123
f 95 123 124
f 95 124 125
f 95 125 96
f 98 120 126
f 98 126 127
f 98 127 128
f 98 128 129
f 98 129 100
f 98 100 99
f 102 107 103
f 103 117 108
f 104 130 106
f 104 106 105
f 106 130 118
f 108 117 109
f 118 130 126
f 118 126 119
f 119 126 120

