# https://github.com/mikedh/trimesh
v 0.00815106 0.01669571 0.01290253
v 0.00358478 0.01110031 0.01714325
v 0.00521883 0.01044018 0.01698749
v 0.00535091 0.00893392 0.01721919
v 0.00735479 -0.00368194 0.01707121
v 0.00931716 -0.00618363 0.01474641
v 0.01026815 -0.00788111 0.01335814
v 0.01026815 -0.00786278 0.01335425
v 0.01026815 -0.00690139 0.01129035
v 0.00815106 0.01669571 0.00824512
v -0.00258914 0.01669571 0.01384296
v -0.00469114 0.01266157 0.01700306
v -0.00258914 0.01252798 0.01690571
v -0.00048714 0.01239700 0.01680057
v 0.00161863 0.01224768 0.01668569
v 0.00279228 0.01213766 0.01660002
v 0.00372063 0.00893392 0.01799997
v 0.00161863 0.01103744 0.01743921
v 0.00582263 -0.00157842 0.01785588
v 0.00728686 -0.00540561 0.01683172
v 0.01026815 -0.00980388 0.01357037
v 0.00582641 -0.00368194 0.01800776
v 0.01026815 -0.00701403 0.01083863
v 0.00792841 0.01669571 0.00824512
v 0.01026815 -0.00781824 0.00926734
v 0.01026815 -0.00796756 0.00917777
v 0.01026815 -0.01002392 0.00828796
v 0.00577357 -0.00242454 -0.00118845
v -0.00366090 0.01669571 0.01393448
v -0.00679691 0.01279255 0.01708484
v 0.00161863 0.00893392 0.01811874
v 0.00372063 0.00262861 0.01829592
v -0.00048714 0.01103744 0.01755214
v 0.01026815 -0.01006584 0.01351391
v 0.00602264 -0.00597930 0.01731265
v 0.00372063 0.00052510 0.01836407
v 0.00372063 -0.00157842 0.01842248
v 0.00372441 -0.00242454 0.01843027
v 0.00372441 -0.00368194 0.01844195
v 0.00372441 -0.00578545 0.01825114
v 0.00372441 -0.00788897 0.01771180
v -0.00978198 -0.00242454 -0.00118845
v -0.02361291 0.01669571 0.00827822
v 0.01026815 -0.01006584 0.00828212
v 0.00566791 -0.00368194 -0.00118845
v -0.00469114 0.01669571 0.01399873
v -0.00889891 0.01282923 0.01714520
v -0.00679691 0.01103744 0.01782084
v -0.00469114 0.01103744 0.01774490
v -0.00258914 0.01103744 0.01765339
v -0.00889891 0.01103744 0.01787730
v -0.00048714 0.00893392 0.01812263
v -0.00258914 0.00683303 0.01824140
v -0.00048714 0.00683303 0.01823167
v 0.00161863 0.00683303 0.01821220
v 0.00369422 -0.00989032 0.01697191
v 0.00353572 -0.01006584 0.01698359
v 0.00161863 0.00262861 0.01833292
v -0.00048714 0.00052510 0.01842248
v -0.00258914 -0.00157842 0.01850231
v -0.00133247 -0.00242454 0.01850231
v 0.00077330 -0.00242454 0.01847505
v 0.00287530 -0.00242454 0.01844779
v -0.00469114 0.00052510 0.01847895
v 0.00161863 -0.00368194 0.01848090
v 0.00161863 -0.00578545 0.01848479
v -0.00055884 -0.01006584 0.01843806
v -0.00048337 -0.00999249 0.01843611
v 0.00161863 -0.00788897 0.01834849
v 0.00154693 -0.01006584 0.01792793
v 0.00162241 -0.01006584 0.01789288
v -0.00930648 -0.00368194 -0.00118845
v -0.02828486 0.01570552 0.00853719
v -0.02828486 0.01669571 0.00839310
v -0.02716782 0.01669571 0.00829964
v -0.02506204 0.01669571 0.00828017
v 0.00409046 -0.01006584 0.00470534
v 0.00370931 -0.00576712 -0.00118845
v 0.00509807 -0.00508079 -0.00118845
v 0.00563017 -0.00378148 -0.00118845
v -0.02782068 0.01669571 0.01311086
v -0.01099336 0.01103744 0.01768065
v -0.01099336 0.00893392 0.01805448
v -0.00889891 0.00893392 0.01808174
v -0.00679691 0.00893392 0.01809343
v -0.00469114 0.00683303 0.01824335
v -0.00679691 0.00683303 0.01823556
v -0.00679691 0.00472951 0.01836212
v -0.00889891 0.00262861 0.01846921
v -0.00679691 0.00262861 0.01844779
v -0.00343447 -0.00242454 0.01852762
v -0.01099336 0.00052510 0.01855488
v -0.00889891 -0.00157842 0.01857435
v -0.01309914 -0.00578545 0.01870286
v -0.00258914 -0.00368194 0.01853931
v -0.00048337 -0.00368194 0.01851010
v -0.00945743 -0.00627531 0.01865808
v -0.00468737 -0.00578545 0.01858604
v -0.00258914 -0.00578545 0.01855488
v -0.00048337 -0.00578545 0.01852178
v -0.00048337 -0.00788897 0.01851399
v -0.00258914 -0.01006584 0.01854125
v -0.00048337 -0.01006584 0.01842443
v -0.00836681 -0.00534799 -0.00118845
v -0.01537850 -0.01006584 0.00940169
v -0.02828486 0.01521304 0.00875526
v -0.02828486 0.01669571 0.01304856
v 0.00170920 -0.01006584 0.00415821
v -0.00258914 -0.00787325 -0.00118845
v -0.00244951 -0.00784444 -0.00118845
v -0.00047205 -0.00719216 -0.00118845
v -0.01309536 0.00893392 0.01777216
v -0.01099336 0.00683303 0.01820441
v -0.01309536 0.00683303 0.01814405
v -0.01309536 0.00472951 0.01830371
v -0.01099336 0.00472951 0.01835239
v -0.00889891 0.00683303 0.01822388
v -0.00889891 0.00472951 0.01836407
v -0.01099336 0.00262861 0.01847895
v -0.01099336 -0.00157842 0.01859772
v -0.01418221 -0.00438398 0.01866392
v -0.01309914 -0.00423467 0.01866587
v -0.01427656 -0.00578545 0.01868144
v -0.01428411 -0.00724194 0.01867755
v -0.01308404 -0.00792040 0.01868923
v -0.01099714 -0.00788897 0.01868728
v -0.00679314 -0.00788897 0.01861914
v -0.00468737 -0.01006584 0.01857435
v -0.00679314 -0.00999249 0.01861135
v -0.00712901 -0.00639843 -0.00118845
v -0.01529171 -0.01006584 0.00934133
v -0.01642384 -0.01006584 0.01129035
v -0.02828486 0.01394778 0.00951072
v -0.00614405 -0.00697998 -0.00118845
v -0.00607612 -0.00701927 -0.00118845
v -0.02828486 0.01521566 0.01300767
v -0.01520114 0.00472951 0.01816157
v -0.01520114 0.00683303 0.01783252
v 0.00161486 -0.01006584 0.00414069
v -0.00455151 -0.00770560 -0.00118845
v -0.00031355 -0.01006584 0.00408812
v -0.00032864 -0.01006584 0.00408812
v -0.01377464 -0.00864341 0.01862108
v -0.01237080 -0.00898657 0.01866781
v -0.01642384 -0.00924329 0.01684925
v -0.01099714 -0.00902848 0.01866781
v -0.00959706 -0.00901277 0.01865613
v -0.00679314 -0.01006584 0.01859772
v -0.00889891 -0.00982483 0.01859967
v -0.01309914 -0.01006584 0.00851966
v -0.00598932 -0.00706380 -0.00118845
v -0.00468737 -0.00767416 -0.00118845
v -0.01661253 -0.01006584 0.01250922
v -0.02828486 0.01333480 0.01084836
v -0.02828486 0.01376441 0.00970348
v -0.02828486 0.01365701 0.01265330
v -0.00262688 -0.01006584 0.00482801
v -0.01499358 -0.00996367 0.01713352
v -0.01308404 -0.00980912 0.01799218
v -0.01111412 -0.01006584 0.01830176
v -0.01099714 -0.01006584 0.01832708
v -0.01086505 -0.01006584 0.01833876
v -0.01659744 -0.01006584 0.01541036
v -0.01657857 -0.01006584 0.01545903
v -0.01643139 -0.01006584 0.01561091
v -0.01507660 -0.01006584 0.01699917
v -0.00891401 -0.01006584 0.01849258
v -0.01670688 -0.01006584 0.01314591
v -0.02828486 0.01321954 0.01129035
v -0.01491433 -0.01006584 0.01707900
v -0.01308404 -0.01006584 0.01778774
f 1 2 3
f 1 3 4
f 1 4 5
f 1 5 6
f 1 6 7
f 1 7 8
f 1 8 9
f 1 9 10
f 1 10 24
f 1 24 43
f 1 43 76
f 1 76 75
f 1 75 74
f 1 74 107
f 1 107 81
f 1 81 46
f 1 46 29
f 1 29 11
f 1 11 12
f 1 12 13
f 1 13 14
f 1 14 15
f 1 15 16
f 1 16 2
f 2 17 3
f 2 16 15
f 2 15 18
f 2 18 17
f 3 17 4
f 4 17 19
f 4 19 5
f 5 20 21
f 5 21 6
f 5 19 22
f 5 22 20
f 6 21 7
f 7 21 34
f 7 34 44
f 7 44 27
f 7 27 26
f 7 26 25
f 7 25 23
f 7 23 9
f 7 9 8
f 9 23 10
f 10 23 25
f 10 25 26
f 10 26 27
f 10 27 28
f 10 28 42
f 10 42 24
f 11 29 12
f 12 18 13
f 12 29 30
f 12 30 18
f 13 18 14
f 14 18 15
f 17 18 31
f 17 31 32
f 17 32 22
f 17 22 19
f 18 30 33
f 18 33 31
f 20 34 21
f 20 22 35
f 20 35 34
f 22 32 36
f 22 36 37
f 22 37 38
f 22 38 39
f 22 39 40
f 22 40 41
f 22 41 35
f 24 42 43
f 27 44 28
f 28 44 45
f 28 45 80
f 28 80 79
f 28 79 78
f 28 78 111
f 28 111 110
f 28 110 109
f 28 109 140
f 28 140 152
f 28 152 151
f 28 151 135
f 28 135 134
f 28 134 130
f 28 130 104
f 28 104 72
f 28 72 42
f 29 46 30
f 30 47 48
f 30 48 49
f 30 49 50
f 30 50 33
f 30 46 47
f 31 33 50
f 31 50 49
f 31 49 48
f 31 48 51
f 31 51 52
f 31 52 53
f 31 53 54
f 31 54 55
f 31 55 32
f 32 55 36
f 34 35 56
f 34 56 57
f 34 57 71
f 34 71 70
f 34 70 103
f 34 103 67
f 34 67 102
f 34 102 128
f 34 128 148
f 34 148 167
f 34 167 162
f 34 162 161
f 34 161 160
f 34 160 171
f 34 171 170
f 34 170 166
f 34 166 165
f 34 165 164
f 34 164 163
f 34 163 168
f 34 168 153
f 34 153 132
f 34 132 105
f 34 105 131
f 34 131 150
f 34 150 157
f 34 157 142
f 34 142 141
f 34 141 139
f 34 139 108
f 34 108 77
f 34 77 44
f 35 41 57
f 35 57 56
f 36 55 58
f 36 58 59
f 36 59 37
f 37 60 61
f 37 61 62
f 37 62 63
f 37 63 38
f 37 59 64
f 37 64 60
f 38 63 39
f 39 63 65
f 39 65 66
f 39 66 67
f 39 67 68
f 39 68 69
f 39 69 40
f 40 69 70
f 40 70 41
f 41 70 71
f 41 71 57
f 42 72 73
f 42 73 74
f 42 74 75
f 42 75 76
f 42 76 43
f 44 77 78
f 44 78 79
f 44 79 80
f 44 80 45
f 46 81 47
f 47 82 51
f 47 51 48
f 47 81 82
f 51 82 83
f 51 83 84
f 51 84 85
f 51 85 52
f 52 86 53
f 52 85 87
f 52 87 86
f 53 86 118
f 53 118 88
f 53 88 54
f 54 88 89
f 54 89 55
f 55 59 58
f 55 89 90
f 55 90 59
f 59 90 64
f 60 91 61
f 60 64 92
f 60 92 93
f 60 93 94
f 60 94 91
f 61 95 62
f 61 91 94
f 61 94 95
f 62 95 63
f 63 95 96
f 63 96 65
f 64 90 92
f 65 96 97
f 65 97 98
f 65 98 99
f 65 99 100
f 65 100 66
f 66 100 101
f 66 101 102
f 66 102 67
f 67 103 68
f 68 103 69
f 69 103 70
f 72 104 105
f 72 105 106
f 72 106 73
f 73 106 133
f 73 133 155
f 73 155 154
f 73 154 169
f 73 169 156
f 73 156 136
f 73 136 107
f 73 107 74
f 77 108 109
f 77 109 110
f 77 110 111
f 77 111 78
f 81 107 82
f 82 107 112
f 82 112 83
f 83 113 84
f 83 112 114
f 83 114 115
f 83 115 113
f 84 113 116
f 84 116 117
f 84 117 87
f 84 87 85
f 86 87 118
f 87 117 118
f 88 118 119
f 88 119 89
f 89 119 92
f 89 92 90
f 92 120 93
f 92 119 121
f 92 121 122
f 92 122 94
f 92 94 120
f 93 120 94
f 94 122 121
f 94 121 123
f 94 123 124
f 94 124 125
f 94 125 126
f 94 126 97
f 94 97 95
f 95 97 96
f 97 126 98
f 98 126 99
f 99 126 100
f 100 102 101
f 100 126 127
f 100 127 102
f 102 127 129
f 102 129 128
f 104 130 105
f 105 132 133
f 105 133 106
f 105 130 134
f 105 134 135
f 105 135 131
f 107 136 124
f 107 124 123
f 107 123 137
f 107 137 138
f 107 138 112
f 108 139 109
f 109 139 141
f 109 141 142
f 109 142 140
f 112 138 114
f 113 115 116
f 114 138 137
f 114 137 115
f 115 137 121
f 115 121 119
f 115 119 116
f 116 119 118
f 116 118 117
f 121 137 123
f 124 143 144
f 124 144 125
f 124 136 145
f 124 145 143
f 125 144 146
f 125 146 126
f 126 146 147
f 126 147 129
f 126 129 127
f 128 129 148
f 129 147 146
f 129 146 144
f 129 144 149
f 129 149 148
f 131 135 151
f 131 151 152
f 131 152 140
f 131 140 150
f 132 153 154
f 132 154 155
f 132 155 133
f 136 156 145
f 140 157 150
f 140 142 157
f 143 145 158
f 143 158 159
f 143 159 160
f 143 160 161
f 143 161 144
f 144 161 162
f 144 162 149
f 145 156 163
f 145 163 164
f 145 164 165
f 145 165 166
f 145 166 158
f 148 149 167
f 149 162 167
f 153 168 154
f 154 168 169
f 156 169 163
f 158 166 170
f 158 170 171
f 158 171 159
f 159 171 160
f 163 169 168

