# https://github.com/mikedh/trimesh
v 0.01026816 -0.00690815 0.01129078
v 0.01026816 -0.00702231 0.01083873
v 0.01026816 -0.00787848 0.01335482
v 0.02173088 -0.01309164 0.01240049
v 0.02176672 -0.01306627 0.01129078
v 0.02584455 -0.01524159 0.01030820
v 0.02584455 -0.01524159 0.01021402
v 0.01353938 -0.00876637 0.00987185
v 0.01026816 -0.00782775 0.00926912
v 0.01214127 -0.00839219 0.00950456
v 0.01026816 -0.00789117 0.01335953
v 0.04504169 -0.02772906 0.01242875
v 0.03265586 -0.01915463 0.01062212
v 0.08272796 -0.04881000 0.01033331
v 0.03265586 -0.01915463 0.00986243
v 0.03230633 -0.02569327 -0.00036045
v 0.03650067 -0.02778614 -0.00040283
v 0.01027712 -0.02058793 -0.00246373
v 0.01026816 -0.00797361 0.00917808
v 0.01629975 -0.02070208 -0.00246373
v 0.01509881 -0.02028351 -0.00246373
v 0.01425636 -0.01999177 -0.00246373
v 0.01295683 -0.02006788 -0.00246373
v 0.01208749 -0.02018204 -0.00246373
v 0.01085070 -0.02042303 -0.00246373
v 0.01026816 -0.00981915 0.01357142
v 0.06373695 -0.04043216 0.01236753
v 0.09790106 -0.05884944 0.01065352
v 0.09564257 -0.05707367 0.01041807
v 0.09959492 -0.05927436 0.00858477
v 0.08272796 -0.04881000 0.01008846
v 0.05740064 -0.03415354 0.00811545
v 0.07023458 -0.04667907 -0.00044835
v 0.03528180 -0.02746269 -0.00066339
v 0.04486245 -0.03412818 -0.00243077
v 0.01027712 -0.03618300 -0.00246373
v 0.01026816 -0.01352924 0.00676716
v 0.04492518 -0.03419794 -0.00246373
v 0.01026816 -0.02472294 0.01292004
v 0.06524261 -0.04491598 0.01235655
v 0.05840441 -0.03943012 0.01254647
v 0.06260771 -0.04153568 0.01246642
v 0.06260771 -0.04015311 0.01241619
v 0.06415818 -0.04153568 0.01239422
v 0.09626096 -0.06046032 0.01121544
v 0.09808926 -0.06046032 0.01073827
v 0.09914681 -0.06046032 0.00991109
v 0.09983690 -0.06046032 0.00886102
v 0.10162935 -0.06129112 0.00623035
v 0.10161143 -0.06127210 0.00623035
v 0.09959492 -0.05927436 0.00775130
v 0.10098407 -0.06066326 0.00623035
v 0.07267231 -0.04844216 -0.00064926
v 0.07083505 -0.04794114 -0.00124885
v 0.06891713 -0.04743378 -0.00185943
v 0.06754591 -0.04699617 -0.00221417
v 0.08400060 -0.07169841 -0.00107777
v 0.08041570 -0.06996703 -0.00018152
v 0.01027712 -0.03604347 -0.00132263
v 0.01026816 -0.03435015 0.00676716
v 0.03028086 -0.04473206 -0.00246373
v 0.08400060 -0.07136228 -0.00246216
v 0.08278174 -0.07082321 -0.00246216
v 0.08021853 -0.06966896 -0.00246216
v 0.08053221 -0.06990361 -0.00206976
v 0.06645251 -0.04665370 -0.00246216
v 0.06230299 -0.04473206 -0.00246373
v 0.01026816 -0.02682215 0.01282743
v 0.06595959 -0.04491598 0.01235655
v 0.07100533 -0.05205077 0.01202536
v 0.06595959 -0.04473206 0.01235811
v 0.06595959 -0.04423738 0.01235811
v 0.09204871 -0.06467143 0.01111655
v 0.09432512 -0.06483632 0.01076653
v 0.09637747 -0.06267369 0.01077438
v 0.07311147 -0.05205077 0.01201594
v 0.07522656 -0.05415633 0.01189351
v 0.09842983 -0.06267369 0.00979808
v 0.09990860 -0.06255953 0.00870092
v 0.09775766 -0.06203948 0.01048871
v 0.10163831 -0.06614912 0.00623035
v 0.10168312 -0.06595886 0.00623035
v 0.10174586 -0.06467143 0.00634022
v 0.10182652 -0.06467143 0.00623035
v 0.10171001 -0.06255953 0.00634022
v 0.10176378 -0.06255953 0.00623035
v 0.08400060 -0.06555297 -0.00246216
v 0.07003741 -0.04884171 -0.00241194
v 0.09342889 -0.06995434 0.00623035
v 0.09241616 -0.07003679 0.00623035
v 0.08400060 -0.07148278 0.00041180
v 0.08400060 -0.07164133 -0.00138541
v 0.09834020 -0.06850837 0.00623035
v 0.09628785 -0.06912354 0.00623035
v 0.09453124 -0.06964359 0.00623035
v 0.01027712 -0.03514924 0.00498251
v 0.01027712 -0.03550440 0.00287923
v 0.01026816 -0.03206067 0.01020147
v 0.01027712 -0.03454041 0.00650974
v 0.10087652 -0.06717020 0.00623035
v 0.09989068 -0.06798831 0.00623035
v 0.09984587 -0.06801369 0.00623035
v 0.06978647 -0.04876560 -0.00246216
v 0.07012703 -0.04911441 -0.00246216
v 0.01026816 -0.02876916 0.01257001
v 0.06890817 -0.05205077 0.01193746
v 0.08994257 -0.06467143 0.01111655
v 0.09203974 -0.06694822 0.01062526
v 0.09373361 -0.06636476 0.01054050
v 0.09575908 -0.06424017 0.01052167
v 0.09921850 -0.06550224 0.00803226
v 0.09970246 -0.06410065 0.00836973
v 0.09514068 -0.06564811 0.01020304
v 0.09715719 -0.06344742 0.01015595
v 0.09411003 -0.06935185 0.00695708
v 0.09272984 -0.06776635 0.01018891
v 0.09203974 -0.06831810 0.00936800
v 0.09204871 -0.06947235 0.00730396
v 0.09204871 -0.07006216 0.00623035
v 0.09054304 -0.06998606 0.00623035
v 0.09044446 -0.06997972 0.00623035
v 0.08928833 -0.06978311 0.00623035
v 0.08400060 -0.07034756 0.00251194
v 0.08363315 -0.07029048 0.00240206
v 0.08235155 -0.07004314 0.00201908
v 0.09983690 -0.06800734 0.00624604
v 0.09836709 -0.06824834 0.00664473
v 0.09414587 -0.06824200 0.00880137
v 0.01026816 -0.03102058 0.01126723
v 0.07448269 -0.06340302 0.00795064
v 0.07656193 -0.06562274 0.00580969
v 0.07360439 -0.06390405 0.00654898
v 0.07875769 -0.06767755 0.00354474
v 0.09782040 -0.06628865 0.00841682
v 0.09713030 -0.06768390 0.00803697
v 0.01026816 -0.02899747 0.01253705
v 0.08785437 -0.06467143 0.01099726
v 0.09012182 -0.06679602 0.01059701
v 0.09091946 -0.06785513 0.01026739
v 0.09131380 -0.06785513 0.01026739
v 0.09432512 -0.06694822 0.00990795
v 0.09572323 -0.06800100 0.00837287
v 0.08778267 -0.06932015 0.00623035
v 0.08363315 -0.06963090 0.00345370
v 0.07796901 -0.06586374 0.00626488
v 0.08015580 -0.06795661 0.00414119
v 0.01026816 -0.02989169 0.01232044
v 0.07588976 -0.06374550 0.00825201
v 0.07519967 -0.06422749 0.00718310
v 0.08063080 -0.06566079 0.00805267
v 0.08824871 -0.06805173 0.00849216
v 0.08357938 -0.06862252 0.00501704
v 0.07728788 -0.06512172 0.00701359
f 1 2 9
f 1 9 19
f 1 19 37
f 1 37 60
f 1 60 98
f 1 98 129
f 1 129 147
f 1 147 136
f 1 136 105
f 1 105 68
f 1 68 39
f 1 39 26
f 1 26 11
f 1 11 3
f 1 3 4
f 1 4 5
f 1 5 6
f 1 6 7
f 1 7 8
f 1 8 2
f 2 8 10
f 2 10 9
f 3 11 12
f 3 12 4
f 4 13 6
f 4 6 5
f 4 12 14
f 4 14 13
f 6 13 15
f 6 15 7
f 7 15 8
f 8 16 10
f 8 15 17
f 8 17 16
f 9 18 19
f 9 10 20
f 9 20 21
f 9 21 22
f 9 22 23
f 9 23 24
f 9 24 25
f 9 25 18
f 10 16 20
f 11 26 27
f 11 27 12
f 12 27 28
f 12 28 29
f 12 29 14
f 13 14 31
f 13 31 15
f 14 29 30
f 14 30 51
f 14 51 31
f 15 31 32
f 15 32 33
f 15 33 17
f 16 34 20
f 16 17 34
f 17 33 35
f 17 35 34
f 18 36 60
f 18 60 37
f 18 37 19
f 18 25 24
f 18 24 23
f 18 23 22
f 18 22 21
f 18 21 20
f 18 20 38
f 18 38 67
f 18 67 61
f 18 61 36
f 20 34 35
f 20 35 38
f 26 39 40
f 26 40 41
f 26 41 42
f 26 42 43
f 26 43 27
f 27 43 44
f 27 44 45
f 27 45 28
f 28 45 46
f 28 46 47
f 28 47 30
f 28 30 29
f 30 48 49
f 30 49 50
f 30 50 51
f 30 47 48
f 31 51 32
f 32 51 52
f 32 52 33
f 33 53 54
f 33 54 55
f 33 55 56
f 33 56 38
f 33 38 35
f 33 52 53
f 36 57 58
f 36 58 59
f 36 59 60
f 36 61 62
f 36 62 63
f 36 63 64
f 36 64 65
f 36 65 57
f 38 56 66
f 38 66 67
f 39 68 40
f 40 69 41
f 40 68 70
f 40 70 69
f 41 69 42
f 42 69 71
f 42 71 72
f 42 72 44
f 42 44 43
f 44 72 45
f 45 73 74
f 45 74 75
f 45 75 46
f 45 72 71
f 45 71 69
f 45 69 76
f 45 76 77
f 45 77 73
f 46 78 79
f 46 79 47
f 46 75 80
f 46 80 78
f 47 79 81
f 47 81 82
f 47 82 83
f 47 83 84
f 47 84 85
f 47 85 48
f 48 85 49
f 49 85 86
f 49 86 87
f 49 87 88
f 49 88 50
f 50 52 51
f 50 88 52
f 52 88 53
f 53 88 54
f 54 88 55
f 55 88 56
f 56 88 66
f 57 89 90
f 57 90 91
f 57 91 58
f 57 65 92
f 57 92 93
f 57 93 94
f 57 94 95
f 57 95 89
f 58 91 96
f 58 96 97
f 58 97 59
f 59 97 60
f 60 97 96
f 60 96 99
f 60 99 98
f 61 67 62
f 62 92 63
f 62 67 87
f 62 87 84
f 62 84 82
f 62 82 81
f 62 81 100
f 62 100 101
f 62 101 102
f 62 102 92
f 63 92 64
f 64 92 65
f 66 88 103
f 66 103 67
f 67 103 104
f 67 104 87
f 68 105 70
f 69 70 76
f 70 106 107
f 70 107 77
f 70 77 76
f 70 105 106
f 73 108 109
f 73 109 74
f 73 77 107
f 73 107 108
f 74 109 75
f 75 109 110
f 75 110 80
f 78 111 112
f 78 112 79
f 78 80 111
f 79 112 81
f 80 110 113
f 80 113 114
f 80 114 111
f 81 112 111
f 81 111 100
f 82 84 83
f 84 87 86
f 84 86 85
f 87 104 88
f 88 104 103
f 89 95 115
f 89 115 116
f 89 116 117
f 89 117 118
f 89 118 90
f 90 118 119
f 90 119 91
f 91 119 120
f 91 120 121
f 91 121 122
f 91 122 123
f 91 123 124
f 91 124 125
f 91 125 99
f 91 99 96
f 92 102 93
f 93 102 126
f 93 126 127
f 93 127 128
f 93 128 115
f 93 115 94
f 94 115 95
f 98 99 130
f 98 130 129
f 99 131 132
f 99 132 130
f 99 125 133
f 99 133 131
f 100 111 134
f 100 134 135
f 100 135 101
f 101 135 126
f 101 126 102
f 105 136 107
f 105 107 106
f 107 137 138
f 107 138 108
f 107 136 137
f 108 138 139
f 108 139 140
f 108 140 116
f 108 116 109
f 109 116 141
f 109 141 135
f 109 135 113
f 109 113 110
f 111 114 113
f 111 113 134
f 113 135 134
f 115 128 116
f 116 128 142
f 116 142 135
f 116 135 141
f 116 140 117
f 117 140 118
f 118 140 119
f 119 140 139
f 119 139 120
f 120 139 121
f 121 139 122
f 122 139 143
f 122 143 123
f 123 143 124
f 124 143 144
f 124 144 145
f 124 145 146
f 124 146 131
f 124 131 125
f 125 131 133
f 126 135 142
f 126 142 127
f 127 142 128
f 129 130 148
f 129 148 147
f 130 132 149
f 130 149 148
f 131 149 132
f 131 146 145
f 131 145 149
f 136 147 137
f 137 147 138
f 138 147 139
f 139 147 148
f 139 148 150
f 139 150 151
f 139 151 143
f 143 151 144
f 144 151 152
f 144 152 145
f 145 152 151
f 145 151 150
f 145 150 153
f 145 153 149
f 148 149 150
f 149 153 150

