# https://github.com/mikedh/trimesh
v 0.00815447 0.01101253 -0.01393961
v 0.00815447 0.01114802 -0.01423115
v 0.02810816 0.02871332 -0.01120207
v 0.02597967 0.02667307 -0.01110489
v 0.02375864 0.02468064 -0.01085264
v 0.01377823 0.01578640 -0.01033366
v 0.01148601 0.01400118 -0.01047219
v 0.00815447 0.01127553 -0.01188645
v 0.00815447 0.01318827 -0.01440483
v 0.07311965 0.07623689 -0.01216145
v 0.07305558 0.07418866 -0.01143984
v 0.07444373 0.07492985 -0.01106147
v 0.05561479 0.05589014 -0.01126409
v 0.05352189 0.05381801 -0.01128891
v 0.02810816 0.02871332 -0.01049700
v 0.05774328 0.05795430 -0.00974025
v 0.02597967 0.02667307 -0.01057764
v 0.02375864 0.02468064 -0.01072651
v 0.03699940 0.04301104 0.00671812
v 0.00962803 0.02587610 0.00671812
v 0.00815447 0.01186529 -0.01073065
v 0.00815447 0.01134726 -0.01171277
v 0.00815447 0.02576452 -0.01348473
v 0.04789100 0.06150881 -0.01264941
v 0.04998390 0.06150881 -0.01269283
v 0.06891250 0.07412491 -0.01240543
v 0.07102676 0.07623689 -0.01230205
v 0.07311965 0.07833293 -0.01207668
v 0.07523390 0.08043694 -0.01165901
v 0.07523390 0.07833293 -0.01172931
v 0.07517695 0.07639629 -0.01130131
v 0.07633730 0.07719326 -0.01085264
v 0.07885020 0.07888284 -0.00908894
v 0.07885020 0.07888284 -0.00829704
v 0.08087902 0.08142519 -0.00810268
v 0.05360731 0.06424243 0.00671812
v 0.00815447 0.02535806 0.00671812
v 0.00815447 0.02764538 -0.01333173
v 0.04578387 0.06150881 -0.01244471
v 0.05419105 0.06991689 -0.01208494
v 0.05629818 0.07202089 -0.01199397
v 0.06051245 0.07412491 -0.01209942
v 0.00815447 0.02786853 -0.01330692
v 0.04159096 0.05730078 -0.01262253
v 0.06891250 0.07623689 -0.01221314
v 0.06471247 0.07623689 -0.01203325
v 0.06261246 0.07623689 -0.01193608
v 0.06891250 0.07833293 -0.01186991
v 0.07311965 0.08142519 -0.01142951
v 0.07523390 0.08142519 -0.01149153
v 0.07719154 0.08142519 -0.01114624
v 0.07695662 0.08043694 -0.01121034
v 0.07657933 0.07833293 -0.01105940
v 0.08072241 0.08117813 -0.00885323
v 0.08072241 0.08117813 -0.00820193
v 0.08078648 0.08142519 -0.00888838
v 0.06851386 0.09240749 0.00182196
v 0.06851386 0.09243140 0.00287645
v 0.06851386 0.09239155 0.00329205
v 0.06851386 0.09226403 0.00448921
v 0.06851386 0.09207276 0.00509709
v 0.06851386 0.09188149 0.00562847
v 0.06851386 0.09124391 0.00671812
v 0.06851386 0.08439790 0.00671812
v 0.00815447 0.04068388 0.00671812
v 0.03527668 0.05309276 -0.01256257
v 0.05840531 0.07412491 -0.01189472
v 0.02686239 0.04679667 -0.01257291
v 0.06051245 0.07623689 -0.01173965
v 0.00815447 0.02943060 -0.01306707
v 0.06261246 0.07833293 -0.01144605
v 0.06471247 0.07833293 -0.01163213
v 0.06681961 0.07833293 -0.01176653
v 0.07103387 0.08142519 -0.01130752
v 0.07102676 0.08043694 -0.01153289
v 0.06891250 0.08043694 -0.01141297
v 0.07817392 0.08142519 -0.01064794
v 0.06770945 0.09212058 0.00182196
v 0.06891250 0.08142519 -0.01116278
v 0.06681961 0.08142519 -0.01096636
v 0.06559519 0.08142519 -0.01082576
v 0.06436366 0.08142519 -0.01066448
v 0.06254839 0.08142519 -0.01021374
v 0.06054804 0.08142519 -0.00940529
v 0.05928091 0.08142519 -0.00878293
v 0.06778063 0.09207276 0.00287645
v 0.06784470 0.09201698 0.00396609
v 0.06816504 0.09176194 0.00536795
v 0.06725385 0.09033536 0.00671812
v 0.00815447 0.04128160 0.00548580
v 0.03197361 0.06095093 0.00671812
v 0.05843379 0.07623689 -0.01122688
v 0.02265524 0.04470062 -0.01228137
v 0.00815447 0.03418057 -0.01207874
v 0.01004092 0.03628458 -0.01190506
v 0.00815447 0.02959796 -0.01303812
v 0.00815447 0.03208452 -0.01252122
v 0.06061923 0.07827714 -0.01109248
v 0.06140228 0.07952042 -0.01085677
v 0.06261246 0.07984718 -0.01095809
v 0.06486909 0.08050867 -0.01103252
v 0.06681961 0.08043694 -0.01125169
v 0.05821311 0.08142519 -0.00763747
v 0.05720226 0.08142519 -0.00646098
v 0.05543682 0.08142519 -0.00424241
v 0.05462528 0.08142519 -0.00311555
v 0.05414833 0.08142519 -0.00132912
v 0.06427112 0.08125782 -0.01071411
v 0.06261246 0.08089121 -0.01050114
v 0.06061923 0.08030943 -0.01006900
v 0.00882362 0.03748004 -0.01091053
v 0.02153761 0.05210451 -0.00664707
v 0.03677873 0.06639426 0.00287645
v 0.06560943 0.09003250 0.00434240
v 0.06587994 0.08980139 0.00574426
v 0.01106601 0.04577654 -0.00020019
v 0.00878803 0.04380801 0.00018026
v 0.06531044 0.08875735 0.00671812
v 0.00815447 0.04151273 0.00497923
v 0.03374616 0.06244127 0.00671812
v 0.03364650 0.06304696 0.00497923
v 0.00815447 0.04238143 0.00277307
v 0.00815447 0.03622879 -0.01130131
v 0.00815447 0.03640412 -0.01121654
v 0.01290975 0.04596781 -0.00482962
v 0.04675201 0.07524864 -0.00248285
v 0.00815447 0.04333780 -0.00132912
v 0.01106601 0.04577654 -0.00040075
v 0.00815447 0.03810168 -0.00950247
v 0.00815447 0.03814950 -0.00945285
v 0.01336535 0.04350516 -0.00851828
v 0.01562909 0.04550557 -0.00841903
v 0.01929522 0.05011208 -0.00676699
v 0.01066736 0.04399929 -0.00494334
v 0.03227971 0.06242533 0.00350915
v 0.00815447 0.04311464 0.00072198
v 0.06286161 0.08671710 0.00671812
v 0.03489939 0.06409897 0.00497923
v 0.00815447 0.04332983 -0.00070883
v 0.00815447 0.04272413 0.00182196
v 0.00927210 0.04340156 -0.00394054
v 0.00815447 0.04270819 -0.00346085
v 0.00815447 0.04280382 -0.00322927
v 0.00891616 0.04371238 -0.00253868
v 0.00815447 0.03963187 -0.00763747
v 0.00895888 0.03946450 -0.00871677
v 0.01115855 0.04148882 -0.00861752
v 0.01490298 0.04610330 -0.00701511
v 0.01709554 0.04811167 -0.00688485
v 0.00847481 0.04199888 -0.00504465
v 0.00815447 0.04304292 0.00093081
v 0.00815447 0.04238940 -0.00396535
v 0.00815447 0.04077951 -0.00621700
v 0.00815447 0.04148085 -0.00534653
f 1 2 3
f 1 3 4
f 1 4 5
f 1 5 6
f 1 6 7
f 1 7 8
f 1 8 22
f 1 22 21
f 1 21 37
f 1 37 65
f 1 65 90
f 1 90 119
f 1 119 122
f 1 122 140
f 1 140 151
f 1 151 136
f 1 136 139
f 1 139 127
f 1 127 143
f 1 143 142
f 1 142 152
f 1 152 154
f 1 154 153
f 1 153 145
f 1 145 130
f 1 130 129
f 1 129 124
f 1 124 123
f 1 123 94
f 1 94 97
f 1 97 96
f 1 96 70
f 1 70 43
f 1 43 38
f 1 38 23
f 1 23 9
f 1 9 2
f 2 9 10
f 2 10 11
f 2 11 12
f 2 12 13
f 2 13 14
f 2 14 3
f 3 15 17
f 3 17 4
f 3 14 16
f 3 16 15
f 4 17 18
f 4 18 5
f 5 18 6
f 6 18 17
f 6 17 19
f 6 19 7
f 7 20 21
f 7 21 22
f 7 22 8
f 7 19 20
f 9 23 24
f 9 24 25
f 9 25 26
f 9 26 10
f 10 26 27
f 10 27 28
f 10 28 29
f 10 29 30
f 10 30 31
f 10 31 11
f 11 31 12
f 12 31 32
f 12 32 33
f 12 33 13
f 13 16 14
f 13 33 16
f 15 16 34
f 15 34 19
f 15 19 17
f 16 33 34
f 19 34 35
f 19 35 36
f 19 36 64
f 19 64 63
f 19 63 89
f 19 89 118
f 19 118 137
f 19 137 120
f 19 120 91
f 19 91 65
f 19 65 37
f 19 37 20
f 20 37 21
f 23 38 24
f 24 39 40
f 24 40 41
f 24 41 42
f 24 42 26
f 24 26 25
f 24 38 43
f 24 43 44
f 24 44 39
f 26 42 27
f 27 42 45
f 27 45 28
f 28 45 46
f 28 46 47
f 28 47 48
f 28 48 49
f 28 49 50
f 28 50 29
f 29 50 51
f 29 51 30
f 30 51 52
f 30 52 53
f 30 53 31
f 31 53 32
f 32 53 54
f 32 54 33
f 33 54 55
f 33 55 34
f 34 55 35
f 35 54 56
f 35 56 57
f 35 57 58
f 35 58 59
f 35 59 60
f 35 60 61
f 35 61 62
f 35 62 63
f 35 63 64
f 35 64 36
f 35 55 54
f 39 44 66
f 39 66 40
f 40 66 41
f 41 67 42
f 41 66 68
f 41 68 67
f 42 67 69
f 42 69 47
f 42 47 46
f 42 46 45
f 43 70 68
f 43 68 66
f 43 66 44
f 47 69 71
f 47 71 72
f 47 72 73
f 47 73 48
f 48 73 49
f 49 74 57
f 49 57 50
f 49 73 75
f 49 75 76
f 49 76 74
f 50 57 51
f 51 77 52
f 51 57 77
f 52 77 53
f 53 77 56
f 53 56 54
f 56 77 57
f 57 78 58
f 57 74 79
f 57 79 80
f 57 80 81
f 57 81 82
f 57 82 83
f 57 83 84
f 57 84 85
f 57 85 78
f 58 78 86
f 58 86 87
f 58 87 59
f 59 87 60
f 60 87 61
f 61 87 88
f 61 88 62
f 62 88 89
f 62 89 63
f 65 91 90
f 67 92 69
f 67 68 93
f 67 93 94
f 67 94 95
f 67 95 92
f 68 70 96
f 68 96 97
f 68 97 94
f 68 94 93
f 69 98 99
f 69 99 71
f 69 92 98
f 71 99 100
f 71 100 101
f 71 101 80
f 71 80 102
f 71 102 72
f 72 102 79
f 72 79 76
f 72 76 73
f 73 76 75
f 74 76 79
f 78 87 86
f 78 85 103
f 78 103 104
f 78 104 105
f 78 105 106
f 78 106 107
f 78 107 87
f 79 102 80
f 80 101 81
f 81 101 108
f 81 108 82
f 82 108 99
f 82 99 109
f 82 109 83
f 83 109 99
f 83 99 84
f 84 99 110
f 84 110 111
f 84 111 85
f 85 111 112
f 85 112 103
f 87 113 114
f 87 114 115
f 87 115 88
f 87 107 116
f 87 116 117
f 87 117 113
f 88 115 89
f 89 115 118
f 90 91 119
f 91 120 121
f 91 121 122
f 91 122 119
f 92 99 98
f 92 95 99
f 94 123 95
f 95 123 99
f 99 108 100
f 99 123 124
f 99 124 110
f 100 108 101
f 103 112 104
f 104 112 105
f 105 112 106
f 106 112 125
f 106 125 126
f 106 126 107
f 107 126 127
f 107 127 128
f 107 128 116
f 110 124 111
f 111 124 129
f 111 129 130
f 111 130 131
f 111 131 132
f 111 132 112
f 112 132 133
f 112 133 134
f 112 134 125
f 113 135 114
f 113 117 136
f 113 136 135
f 114 135 115
f 115 137 118
f 115 135 138
f 115 138 120
f 115 120 137
f 116 128 127
f 116 127 139
f 116 139 117
f 117 139 136
f 120 138 121
f 121 138 135
f 121 135 140
f 121 140 122
f 125 134 141
f 125 141 126
f 126 141 142
f 126 142 143
f 126 143 144
f 126 144 127
f 127 144 143
f 130 145 146
f 130 146 147
f 130 147 131
f 131 147 148
f 131 148 149
f 131 149 133
f 131 133 132
f 133 149 134
f 134 149 148
f 134 148 150
f 134 150 141
f 135 136 151
f 135 151 140
f 141 150 142
f 142 150 152
f 145 153 148
f 145 148 146
f 146 148 147
f 148 153 154
f 148 154 150
f 150 154 152

