# https://github.com/mikedh/trimesh
v -0.08427246 -0.01067023 0.00288178
v -0.08431385 -0.01067023 0.00178524
v -0.08435524 -0.01067023 0.00381159
v -0.03472749 -0.02292387 0.01129070
v -0.08518996 -0.01067023 -0.00687590
v -0.08446562 -0.01067023 0.00498081
v -0.03472749 -0.02302007 0.01163484
v -0.03472749 -0.02316838 0.00958498
v -0.08473466 -0.01067023 0.00715678
v -0.08552799 -0.01067023 0.01173744
v -0.08583841 -0.01067023 0.01284039
v -0.08636960 -0.01067023 0.01365905
v -0.08729400 -0.01067023 0.01458887
v -0.06996499 -0.02233864 -0.00687590
v -0.10520248 -0.01067023 -0.00687590
v -0.03472749 -0.03832810 -0.00265221
v -0.03472749 -0.02342892 0.01256252
v -0.08732159 -0.01067023 0.01459314
v -0.06996499 -0.03637601 -0.00687590
v -0.10503691 -0.01145587 -0.00687590
v -0.10500243 -0.01067023 0.00918741
v -0.03472749 -0.05140346 -0.00265221
v -0.03472749 -0.02376964 0.01265657
v -0.08881166 -0.01067023 0.01467009
v -0.08881166 -0.01209722 0.01496079
v -0.03472749 -0.02472363 0.01290452
v -0.07718771 -0.03270032 -0.00687590
v -0.03590713 -0.05127118 -0.00265221
v -0.03718336 -0.05109882 -0.00265221
v -0.03770074 -0.05100262 -0.00265221
v -0.04184674 -0.05014482 -0.00265221
v -0.04255728 -0.04996445 -0.00265221
v -0.04399217 -0.04953154 -0.00265221
v -0.04551673 -0.04896635 -0.00265221
v -0.04591684 -0.04881404 -0.00265221
v -0.04964893 -0.04716259 -0.00265221
v -0.05244282 -0.04592399 -0.00265221
v -0.05569890 -0.04446494 -0.00265221
v -0.05672678 -0.04397993 -0.00265221
v -0.05726486 -0.04372339 -0.00265221
v -0.05889291 -0.04290167 -0.00265221
v -0.10494723 -0.01187675 -0.00687590
v -0.10474718 -0.01153604 0.01129070
v -0.10493344 -0.01067023 0.01129070
v -0.03472749 -0.05155176 -0.00177156
v -0.08902552 -0.01067023 0.01466368
v -0.09301975 -0.01074238 0.01455680
v -0.09722782 -0.01097487 0.01447344
v -0.09830399 -0.01103499 0.01444993
v -0.09091571 -0.01209722 0.01488812
v -0.09512379 -0.01420162 0.01481972
v -0.09301975 -0.01420162 0.01488812
v -0.09091571 -0.01420162 0.01491163
v -0.08881166 -0.01420162 0.01490094
v -0.04045324 -0.04363921 0.01321445
v -0.04045324 -0.04153481 0.01322514
v -0.03472749 -0.02952167 0.01303704
v -0.03472749 -0.02741727 0.01303918
v -0.03472749 -0.02682804 0.01303063
v -0.03472749 -0.02531287 0.01295795
v -0.07988502 -0.03128937 -0.00687590
v -0.03472749 -0.05161991 -0.00132482
v -0.04001174 -0.05105473 -0.00057242
v -0.03759726 -0.05106274 -0.00254106
v -0.04061190 -0.05082224 -0.00129489
v -0.04255728 -0.05032120 -0.00132482
v -0.04574438 -0.04891425 -0.00248120
v -0.05033878 -0.04698621 -0.00132482
v -0.04692403 -0.04850940 -0.00132482
v -0.04886250 -0.04764760 -0.00132482
v -0.05580928 -0.04450502 -0.00132482
v -0.05726486 -0.04379955 -0.00132482
v -0.05726486 -0.04390376 0.00077848
v -0.05894809 -0.04293373 -0.00132482
v -0.07504228 -0.03411929 -0.00343025
v -0.06996499 -0.03686504 -0.00349652
v -0.07093767 -0.03627981 -0.00448832
v -0.10395386 -0.01420162 -0.00687590
v -0.10262934 -0.01754461 0.00288178
v -0.10263624 -0.01756466 0.00498081
v -0.10262934 -0.01763680 0.01129070
v -0.10313983 -0.01630602 0.01129070
v -0.10468510 -0.01135566 0.01245992
v -0.10258105 -0.01755664 0.01269290
v -0.10473339 -0.01067023 0.01250267
v -0.09091571 -0.01067023 0.01460597
v -0.09174352 -0.01067023 0.01458032
v -0.09288868 -0.01067023 0.01453543
v -0.09667595 -0.01067023 0.01438153
v -0.09866271 -0.01067023 0.01425542
v -0.10142901 -0.01067023 0.01366974
v -0.10142901 -0.01209722 0.01392410
v -0.10052530 -0.01497925 0.01447772
v -0.09932497 -0.01424972 0.01454184
v -0.09722782 -0.01420162 0.01470002
v -0.09722782 -0.01209722 0.01457604
v -0.09512379 -0.01209722 0.01468078
v -0.09795216 -0.01067023 0.01432382
v -0.09932497 -0.01630602 0.01464230
v -0.09931117 -0.01845853 0.01455894
v -0.09415110 -0.02158106 0.01445207
v -0.04255728 -0.04363921 0.01325079
v -0.03624516 -0.04574362 0.01293872
v -0.03472749 -0.04574362 0.01290452
v -0.03472749 -0.04423646 0.01295582
v -0.03472749 -0.04363921 0.01297292
v -0.03472749 -0.04213206 0.01298360
v -0.03472749 -0.03312521 0.01302422
v -0.03472749 -0.03162207 0.01303063
v -0.08131990 -0.03051575 -0.00687590
v -0.03472749 -0.05125114 0.00080841
v -0.03624516 -0.05121907 0.00048351
v -0.03834920 -0.05113088 0.00017571
v -0.04001174 -0.05105473 -0.00007866
v -0.04255728 -0.05032921 0.00077848
v -0.04466132 -0.04953154 0.00077848
v -0.04466132 -0.04950749 -0.00132482
v -0.05046295 -0.04704634 0.00077848
v -0.05593346 -0.04456515 0.00077848
v -0.05726486 -0.04399596 0.00287964
v -0.05912056 -0.04302593 0.00287964
v -0.08338945 -0.02988243 0.00288178
v -0.07811900 -0.03254801 -0.00132482
v -0.07619433 -0.03349399 -0.00343025
v -0.07897442 -0.03186658 -0.00553355
v -0.10296737 -0.01624990 -0.00687590
v -0.10258105 -0.01746444 -0.00132482
v -0.10261555 -0.01751655 0.00077848
v -0.10174634 -0.01868700 0.01129070
v -0.10280871 -0.01630602 0.01298574
v -0.10176703 -0.01630602 0.01403739
v -0.10062878 -0.01962497 0.01287245
v -0.10136003 -0.01837034 0.01348378
v -0.10067707 -0.01778913 0.01451619
v -0.10357444 -0.01067023 0.01301567
v -0.10071156 -0.01630602 0.01452260
v -0.10130483 -0.01424972 0.01417205
v -0.09860752 -0.01954881 0.01448413
v -0.06996499 -0.03488089 0.01294299
v -0.06988220 -0.03489291 0.01295154
v -0.06568103 -0.03522561 0.01347737
v -0.05936890 -0.03733001 0.01348805
v -0.04886250 -0.04153481 0.01330850
v -0.04466132 -0.04363921 0.01310758
v -0.04255728 -0.04530670 0.01277627
v -0.03624516 -0.04714254 0.01260954
v -0.03472749 -0.04714254 0.01259244
v -0.08226499 -0.03000268 -0.00687590
v -0.03472749 -0.05093047 0.00193487
v -0.03624516 -0.04866974 0.00943535
v -0.03749379 -0.04891825 0.00819988
v -0.04045324 -0.05017689 0.00287964
v -0.04061190 -0.05078616 0.00068657
v -0.04255728 -0.04988829 0.00287964
v -0.04370933 -0.04893028 0.00613292
v -0.04408875 -0.04907459 0.00498081
v -0.04477169 -0.04924294 0.00284117
v -0.04582027 -0.04894231 0.00211442
v -0.05038707 -0.04699824 0.00287964
v -0.05603004 -0.04460924 0.00287964
v -0.04697921 -0.04854548 0.00077848
v -0.04886250 -0.04774380 0.00077848
v -0.05996217 -0.04238459 0.00498081
v -0.06147295 -0.04162700 0.00498081
v -0.07530442 -0.03426359 0.00649629
v -0.07941592 -0.03210708 0.00624193
v -0.08046449 -0.03154190 0.00498081
v -0.08461048 -0.02930923 0.00498081
v -0.08645238 -0.02830713 0.00498081
v -0.08461048 -0.02921704 0.00288178
v -0.08329287 -0.02983433 0.00077848
v -0.07802242 -0.03249590 -0.00343025
v -0.10273972 -0.01664673 -0.00687590
v -0.10248447 -0.01736023 -0.00451824
v -0.10251897 -0.01740031 -0.00343025
v -0.09771762 -0.02109605 -0.00687590
v -0.10069777 -0.01966505 0.01129070
v -0.10000792 -0.01919206 0.01427465
v -0.09932497 -0.02051082 0.01129070
v -0.09791768 -0.02135659 0.01129070
v -0.09686910 -0.02197388 0.01129070
v -0.09409591 -0.02368145 0.01031814
v -0.09492373 -0.02308821 0.01112825
v -0.09386136 -0.02355720 0.01172034
v -0.09660696 -0.02178949 0.01289810
v -0.07161373 -0.03451612 0.01271642
v -0.06724698 -0.03647222 0.01258389
v -0.06568103 -0.03676884 0.01283398
v -0.04886250 -0.04320631 0.01279550
v -0.05096654 -0.04153481 0.01309689
v -0.05516772 -0.03943442 0.01329782
v -0.03834920 -0.04694613 0.01246847
v -0.04466132 -0.04500607 0.01261168
v -0.03624516 -0.04796426 0.01129070
v -0.03472749 -0.04800034 0.01129070
v -0.08461048 -0.02911282 0.00077848
v -0.08293415 -0.02963391 -0.00687590
v -0.03472749 -0.05006065 0.00498081
v -0.04045324 -0.04834506 0.00918741
v -0.03825952 -0.04860961 0.00901427
v -0.03472749 -0.04944736 0.00708411
v -0.03472749 -0.04901847 0.00853547
v -0.03472749 -0.04870581 0.00958925
v -0.04255728 -0.04889421 0.00669081
v -0.04045324 -0.04957563 0.00498081
v -0.04255728 -0.04899041 0.00635094
v -0.04426810 -0.04864569 0.00669081
v -0.04255728 -0.04868577 0.00740259
v -0.04255728 -0.04809253 0.00918741
v -0.04446126 -0.04858957 0.00669081
v -0.04675846 -0.04779591 0.00708411
v -0.04675846 -0.04786005 0.00669081
v -0.04675846 -0.04812861 0.00498081
v -0.05013182 -0.04688199 0.00448063
v -0.04886250 -0.04761954 0.00287964
v -0.05306368 -0.04558328 0.00498081
v -0.05463654 -0.04490586 0.00498081
v -0.05568511 -0.04442887 0.00498081
v -0.05726486 -0.04367929 0.00498081
v -0.05891360 -0.04288964 0.00498081
v -0.06281815 -0.04063292 0.00656256
v -0.06700553 -0.03852050 0.00662882
v -0.07117912 -0.03640407 0.00657752
v -0.07505607 -0.03413533 0.00789849
v -0.08741817 -0.02768583 0.00708411
v -0.08881166 -0.02688816 0.00708411
v -0.08750785 -0.02769385 0.00498081
v -0.09512379 -0.02297197 -0.00553355
v -0.10236720 -0.01722795 -0.00687590
v -0.09666904 -0.02194181 -0.00687590
v -0.09667595 -0.02200194 -0.00553355
v -0.08415518 -0.02819089 0.01284680
v -0.07999539 -0.03030331 0.01279337
v -0.09134341 -0.02538903 0.00708411
v -0.09029484 -0.02602235 0.00708411
v -0.09410971 -0.02368947 0.00918741
v -0.08243056 -0.02957378 0.01141895
v -0.08555558 -0.02781811 0.01204310
v -0.08139579 -0.02994656 0.01220769
v -0.07301412 -0.03415938 0.01228464
v -0.06864737 -0.03619163 0.01212433
v -0.04724825 -0.04658537 0.00985003
v -0.04584786 -0.04684192 0.01029463
v -0.05211169 -0.04262108 0.01237869
v -0.05096654 -0.04283353 0.01255610
v -0.05516772 -0.04094157 0.01273779
v -0.03943226 -0.04680183 0.01235090
v -0.04255728 -0.04725077 0.01082687
v -0.03834920 -0.04767165 0.01129070
v -0.04466132 -0.04606028 0.01154720
v -0.04255728 -0.04636091 0.01187852
v -0.04595824 -0.04478160 0.01242785
v -0.09610337 -0.02229054 -0.00687590
v -0.04466132 -0.04772376 0.00918741
v -0.04450955 -0.04851742 0.00693448
v -0.04663429 -0.04715457 0.00916389
v -0.04808297 -0.04692609 0.00844783
v -0.04849688 -0.04708242 0.00708411
v -0.04985588 -0.04676976 0.00588069
v -0.05088376 -0.04647715 0.00510051
v -0.06239734 -0.04043651 0.00796476
v -0.06278366 -0.04061689 0.00669081
v -0.06296992 -0.04052870 0.00669081
v -0.06586038 -0.03896142 0.00723159
v -0.06996499 -0.03688909 0.00720167
v -0.07720840 -0.03205097 0.01225258
v -0.06668820 -0.03835616 0.00803102
v -0.04466132 -0.04701428 0.01049555
f 1 2 5
f 1 5 15
f 1 15 21
f 1 21 44
f 1 44 85
f 1 85 135
f 1 135 91
f 1 91 90
f 1 90 98
f 1 98 89
f 1 89 88
f 1 88 87
f 1 87 86
f 1 86 46
f 1 46 24
f 1 24 18
f 1 18 13
f 1 13 12
f 1 12 11
f 1 11 10
f 1 10 9
f 1 9 6
f 1 6 3
f 1 3 4
f 1 4 2
f 2 4 5
f 3 6 4
f 4 7 17
f 4 17 23
f 4 23 26
f 4 26 60
f 4 60 59
f 4 59 58
f 4 58 57
f 4 57 109
f 4 109 108
f 4 108 107
f 4 107 106
f 4 106 105
f 4 105 104
f 4 104 147
f 4 147 195
f 4 195 203
f 4 203 202
f 4 202 201
f 4 201 198
f 4 198 149
f 4 149 111
f 4 111 62
f 4 62 45
f 4 45 22
f 4 22 16
f 4 16 8
f 4 8 5
f 4 6 9
f 4 9 10
f 4 10 11
f 4 11 12
f 4 12 13
f 4 13 7
f 5 14 19
f 5 19 27
f 5 27 61
f 5 61 110
f 5 110 148
f 5 148 197
f 5 197 253
f 5 253 230
f 5 230 176
f 5 176 229
f 5 229 173
f 5 173 126
f 5 126 78
f 5 78 42
f 5 42 20
f 5 20 15
f 5 8 16
f 5 16 14
f 7 13 17
f 13 18 17
f 14 16 22
f 14 22 19
f 15 20 21
f 17 18 23
f 18 24 25
f 18 25 26
f 18 26 23
f 19 22 28
f 19 28 29
f 19 29 30
f 19 30 31
f 19 31 32
f 19 32 33
f 19 33 34
f 19 34 35
f 19 35 36
f 19 36 37
f 19 37 38
f 19 38 39
f 19 39 40
f 19 40 41
f 19 41 27
f 20 42 21
f 21 42 43
f 21 43 44
f 22 45 28
f 24 46 25
f 25 46 47
f 25 47 48
f 25 48 49
f 25 49 50
f 25 50 51
f 25 51 52
f 25 52 53
f 25 53 54
f 25 54 55
f 25 55 56
f 25 56 57
f 25 57 58
f 25 58 59
f 25 59 60
f 25 60 26
f 27 41 61
f 28 45 62
f 28 62 63
f 28 63 64
f 28 64 29
f 29 64 30
f 30 64 31
f 31 65 66
f 31 66 32
f 31 64 65
f 32 66 33
f 33 66 34
f 34 66 67
f 34 67 35
f 35 67 36
f 36 67 37
f 37 68 38
f 37 67 69
f 37 69 70
f 37 70 68
f 38 71 39
f 38 68 71
f 39 71 40
f 40 72 41
f 40 71 72
f 41 72 73
f 41 73 74
f 41 74 75
f 41 75 76
f 41 76 77
f 41 77 61
f 42 78 79
f 42 79 80
f 42 80 81
f 42 81 82
f 42 82 43
f 43 83 44
f 43 82 84
f 43 84 83
f 44 83 85
f 46 86 47
f 47 86 87
f 47 87 88
f 47 88 48
f 48 88 89
f 48 89 49
f 49 90 91
f 49 91 92
f 49 92 93
f 49 93 94
f 49 94 95
f 49 95 96
f 49 96 97
f 49 97 50
f 49 89 98
f 49 98 90
f 50 97 51
f 51 97 96
f 51 96 95
f 51 95 99
f 51 99 52
f 52 99 100
f 52 100 101
f 52 101 53
f 53 101 102
f 53 102 54
f 54 102 55
f 55 102 103
f 55 103 104
f 55 104 105
f 55 105 106
f 55 106 107
f 55 107 56
f 56 107 108
f 56 108 109
f 56 109 57
f 61 77 110
f 62 111 112
f 62 112 113
f 62 113 114
f 62 114 63
f 63 114 115
f 63 115 66
f 63 66 65
f 63 65 64
f 66 115 116
f 66 116 117
f 66 117 67
f 67 117 69
f 68 118 119
f 68 119 71
f 68 70 118
f 69 118 70
f 69 117 118
f 71 119 72
f 72 119 73
f 73 120 74
f 73 119 120
f 74 120 121
f 74 121 122
f 74 122 123
f 74 123 75
f 75 123 124
f 75 124 125
f 75 125 76
f 76 125 77
f 77 125 110
f 78 126 127
f 78 127 128
f 78 128 79
f 79 128 129
f 79 129 80
f 80 129 81
f 81 129 84
f 81 84 82
f 83 84 130
f 83 130 131
f 83 131 85
f 84 129 132
f 84 132 133
f 84 133 134
f 84 134 131
f 84 131 130
f 85 131 136
f 85 136 135
f 91 135 92
f 92 137 93
f 92 135 137
f 93 99 94
f 93 137 136
f 93 136 99
f 94 99 95
f 99 136 134
f 99 134 100
f 100 138 101
f 100 134 138
f 101 138 139
f 101 139 140
f 101 140 141
f 101 141 142
f 101 142 143
f 101 143 102
f 102 143 144
f 102 144 145
f 102 145 146
f 102 146 103
f 103 146 147
f 103 147 104
f 110 125 148
f 111 149 112
f 112 149 150
f 112 150 151
f 112 151 113
f 113 152 153
f 113 153 114
f 113 151 152
f 114 153 115
f 115 153 154
f 115 154 155
f 115 155 156
f 115 156 157
f 115 157 158
f 115 158 116
f 116 158 159
f 116 159 160
f 116 160 161
f 116 161 117
f 117 161 162
f 117 162 118
f 118 162 160
f 118 160 119
f 119 160 120
f 120 160 163
f 120 163 164
f 120 164 121
f 121 164 165
f 121 165 166
f 121 166 167
f 121 167 168
f 121 168 122
f 122 168 169
f 122 169 170
f 122 170 171
f 122 171 123
f 123 171 124
f 124 171 172
f 124 172 148
f 124 148 125
f 126 173 174
f 126 174 175
f 126 175 127
f 127 175 176
f 127 176 177
f 127 177 128
f 128 177 129
f 129 177 132
f 131 134 136
f 132 178 133
f 132 177 179
f 132 179 180
f 132 180 181
f 132 181 182
f 132 182 183
f 132 183 184
f 132 184 185
f 132 185 178
f 133 178 134
f 134 178 138
f 135 136 137
f 138 178 186
f 138 186 139
f 139 186 187
f 139 187 188
f 139 188 140
f 140 188 141
f 141 188 189
f 141 189 190
f 141 190 191
f 141 191 142
f 142 191 143
f 143 191 144
f 144 191 190
f 144 190 189
f 144 189 145
f 145 192 146
f 145 189 193
f 145 193 192
f 146 194 195
f 146 195 147
f 146 192 194
f 148 171 196
f 148 196 197
f 148 172 171
f 149 198 150
f 150 194 199
f 150 199 200
f 150 200 151
f 150 198 201
f 150 201 202
f 150 202 203
f 150 203 194
f 151 200 204
f 151 204 205
f 151 205 152
f 152 205 204
f 152 204 153
f 153 204 206
f 153 206 155
f 153 155 154
f 155 207 156
f 155 206 204
f 155 204 208
f 155 208 209
f 155 209 207
f 156 207 210
f 156 210 211
f 156 211 157
f 157 211 212
f 157 212 213
f 157 213 214
f 157 214 158
f 158 214 215
f 158 215 159
f 159 215 214
f 159 214 216
f 159 216 160
f 160 162 161
f 160 216 217
f 160 217 218
f 160 218 219
f 160 219 220
f 160 220 163
f 163 221 222
f 163 222 164
f 163 220 221
f 164 222 223
f 164 223 165
f 165 223 224
f 165 224 184
f 165 184 182
f 165 182 166
f 166 182 225
f 166 225 169
f 166 169 168
f 166 168 167
f 169 225 226
f 169 226 227
f 169 227 228
f 169 228 196
f 169 196 170
f 170 196 171
f 173 229 174
f 174 229 176
f 174 176 175
f 176 230 177
f 177 230 231
f 177 231 228
f 177 228 179
f 178 185 232
f 178 232 233
f 178 233 186
f 179 234 235
f 179 235 236
f 179 236 182
f 179 182 180
f 179 228 234
f 180 182 181
f 182 184 183
f 182 236 235
f 182 235 226
f 182 226 225
f 184 224 237
f 184 237 238
f 184 238 185
f 185 238 239
f 185 239 232
f 186 233 240
f 186 240 241
f 186 241 187
f 187 241 242
f 187 242 243
f 187 243 244
f 187 244 188
f 188 244 245
f 188 245 246
f 188 246 189
f 189 246 245
f 189 245 193
f 192 193 247
f 192 247 248
f 192 248 249
f 192 249 194
f 193 250 251
f 193 251 247
f 193 245 252
f 193 252 250
f 194 203 195
f 194 249 209
f 194 209 199
f 196 228 197
f 197 228 253
f 199 209 208
f 199 208 200
f 200 208 204
f 207 209 254
f 207 254 255
f 207 255 210
f 209 249 248
f 209 248 254
f 210 255 211
f 211 256 257
f 211 257 258
f 211 258 259
f 211 259 212
f 211 255 256
f 212 259 214
f 212 214 213
f 214 259 260
f 214 260 216
f 216 260 259
f 216 259 217
f 217 259 258
f 217 258 257
f 217 257 218
f 218 257 261
f 218 261 262
f 218 262 263
f 218 263 219
f 219 263 221
f 219 221 220
f 221 263 222
f 222 263 264
f 222 264 239
f 222 239 265
f 222 265 223
f 223 265 224
f 224 239 237
f 224 265 239
f 226 235 227
f 227 235 234
f 227 234 228
f 228 231 230
f 228 230 253
f 232 239 266
f 232 266 240
f 232 240 233
f 237 239 238
f 239 264 267
f 239 267 266
f 240 266 267
f 240 267 263
f 240 263 261
f 240 261 257
f 240 257 241
f 241 257 242
f 242 257 256
f 242 256 243
f 243 252 244
f 243 256 254
f 243 254 268
f 243 268 250
f 243 250 252
f 244 252 245
f 247 251 268
f 247 268 248
f 248 268 254
f 250 268 251
f 254 256 255
f 261 263 262
f 263 267 264

