# https://github.com/mikedh/trimesh
v -0.03413688 0.04534249 0.00077800
v -0.03413688 0.04506194 -0.00071310
v -0.03623449 0.04488893 -0.00071310
v -0.03623449 0.04512272 0.00077800
v -0.03413688 0.04498245 0.00287998
v -0.03203926 0.04528638 0.00077800
v -0.03203926 0.04504791 -0.00071310
v -0.03264312 0.04506194 -0.00071310
v -0.02828897 0.04429510 -0.00277731
v -0.03834271 0.04458033 -0.00071310
v -0.03834271 0.04480477 0.00077800
v -0.04254853 0.04393507 0.00255812
v -0.03834271 0.04446811 0.00287998
v -0.03623449 0.04475801 0.00287998
v -0.03623449 0.04395377 0.00456157
v -0.03413688 0.04405664 0.00476192
v -0.03203926 0.04405196 0.00473729
v -0.03203926 0.04490764 0.00287998
v 0.00815447 0.04309809 0.00072709
v 0.00815447 0.04331785 -0.00070653
v 0.00815447 0.04332253 -0.00132563
v -0.02787581 0.04424835 -0.00277731
v -0.02828897 0.03125421 -0.00277731
v -0.05362988 0.03901609 -0.00071310
v -0.05348156 0.03909558 -0.00071310
v -0.05090722 0.04046560 -0.00071310
v -0.04920158 0.04131192 -0.00071310
v -0.04826930 0.04171872 -0.00071310
v -0.04686030 0.04224709 -0.00071310
v -0.04526060 0.04281287 -0.00071310
v -0.04349140 0.04341137 -0.00071310
v -0.04320536 0.04350489 -0.00071310
v -0.04215656 0.04383219 -0.00071310
v -0.04111834 0.04407534 -0.00071310
v -0.04044032 0.04422497 -0.00071310
v -0.03895716 0.04448681 -0.00071310
v 0.00815447 0.04289235 -0.00277567
v -0.04044032 0.04448681 0.00077800
v -0.04254853 0.04350489 0.00360911
v -0.04055686 0.04408469 0.00306227
v -0.04394695 0.04374803 0.00214593
v -0.04837525 0.04177951 0.00442527
v -0.04666961 0.04194784 0.00506901
v -0.04133022 0.04360776 0.00388664
v -0.03993181 0.04370595 0.00407549
v -0.03834271 0.04381349 0.00428733
v -0.03624509 0.04241074 0.00761931
v -0.03414747 0.04259778 0.00761931
v -0.03624509 0.04184029 0.00874584
v -0.03414747 0.04139141 0.00997090
v -0.03265371 0.04257440 0.00761931
v -0.03203926 0.04256037 0.00761931
v 0.00815447 0.04059652 0.00686062
v 0.00815447 0.04126517 0.00548940
v 0.00815447 0.04149428 0.00498525
v 0.00815447 0.04236398 0.00277653
v 0.00815447 0.04247621 0.00248094
v -0.02595829 0.04400520 -0.00277731
v -0.02357463 0.02937921 -0.00277731
v -0.05362988 0.02773331 -0.00071310
v -0.05362988 0.03906285 -0.00054888
v -0.10007408 -0.00242579 0.00700842
v -0.09477708 0.00332548 0.00700842
v -0.09377064 0.00439157 0.00700842
v -0.09265827 0.00556053 0.00700842
v -0.09174718 0.00647699 0.00700842
v -0.09048649 0.00766933 0.00700842
v -0.08953303 0.00854838 0.00700842
v -0.04999613 0.04158312 0.00163029
v -0.04959356 0.04139609 0.00022787
v -0.04887317 0.04187770 0.00086832
v -0.04673317 0.04267727 0.00077800
v -0.04464615 0.04336461 0.00069425
v -0.04394695 0.04374803 0.00134291
v -0.04266507 0.04397715 0.00069425
v 0.00815447 0.02550294 -0.00277567
v -0.00743994 0.03898804 -0.00277731
v -0.02515315 0.04383219 -0.00277731
v -0.02571463 0.04395844 -0.00277731
v -0.04464615 0.04242477 0.00498361
v -0.04999613 0.04158312 0.00218042
v -0.04897911 0.04192446 0.00287998
v -0.04673317 0.04271935 0.00287998
v -0.04977366 0.04147090 0.00358119
v -0.04897911 0.04115762 0.00506901
v -0.04824812 0.03967071 0.00861939
v -0.04728406 0.03930132 0.01002181
v -0.04731584 0.04142882 0.00582441
v -0.04665901 0.04066666 0.00761931
v -0.04254853 0.04283157 0.00498361
v -0.04254853 0.04144752 0.00761931
v -0.04015428 0.04183562 0.00761931
v -0.03834271 0.04019908 0.01128957
v -0.03834271 0.04113892 0.00949796
v -0.03624509 0.04052638 0.01128957
v -0.03834271 0.04211617 0.00761931
v -0.03624509 0.04129789 0.00979683
v -0.03414747 0.04069939 0.01128957
v -0.03203926 0.04135868 0.00992164
v 0.00815447 0.04049833 0.00704454
v -0.02143464 0.02857964 -0.00277731
v -0.01531130 0.02629783 -0.00277731
v -0.05362988 0.03959122 0.00142173
v -0.09929013 -0.00242579 0.00918758
v -0.09612251 0.00153932 0.00800029
v -0.01471803 0.02609677 -0.00277731
v -0.01310774 0.02557776 -0.00277731
v -0.01246150 0.02541878 -0.00277731
v -0.00258787 0.02468000 -0.00277567
v -0.00049026 0.02466129 -0.00277567
v -0.08102603 -0.00242579 0.00700842
v -0.09194847 0.00577562 0.00811196
v -0.08986145 0.00788909 0.00813495
v -0.09403550 0.00365279 0.00807090
v -0.08853719 0.00942744 0.00700842
v -0.08413008 0.01260701 0.00918758
v 0.00815447 0.01670303 0.00824169
v 0.00585556 0.02482962 -0.00277567
v -0.00743994 0.02536734 -0.00277731
v -0.04589624 0.03946497 0.01031576
v -0.05362988 0.03959122 0.00143980
v -0.05362988 0.03958187 0.00221654
v -0.05362988 0.03916572 0.00328396
v -0.05227385 0.03960525 0.00424299
v -0.05094959 0.04006348 0.00495898
v -0.05026098 0.03966603 0.00645008
v -0.04964653 0.03926859 0.00785414
v -0.04883079 0.03787051 0.01123538
v -0.04811040 0.03751515 0.01259182
v -0.04664842 0.03884308 0.01112535
v -0.04664842 0.03983436 0.00926805
v -0.04465674 0.03957251 0.01051611
v -0.03947627 0.03944159 0.01236355
v -0.04465674 0.03901609 0.01156710
v -0.03834271 0.03953043 0.01249164
v -0.03624509 0.03970344 0.01269692
v -0.03414747 0.03978293 0.01276589
v 0.00815447 0.03963798 0.00828275
v -0.08664086 0.01109204 0.00700842
v -0.06648044 0.02871991 0.00700842
v -0.09871805 -0.00242579 0.01060643
v -0.09855914 -0.00233227 0.01079692
v -0.09584707 0.00125877 0.00918758
v -0.01035329 0.02531123 -0.00277731
v 0.00371557 0.02468935 -0.00277567
v -0.07618456 -0.00242579 0.00887393
v 0.00582378 0.02482495 -0.00277567
v -0.08960719 0.00763660 0.00918758
v -0.08568740 0.01002595 0.01236684
v -0.08593106 0.01025039 0.01129121
v -0.08380167 0.01232178 0.01084290
v -0.08636542 0.01062913 0.00918758
v -0.07747703 0.01860609 0.00874912
v -0.07940514 0.01635702 0.01038802
v -0.08068702 0.01563694 0.00918758
v 0.00815447 0.01670303 0.01290219
v -0.07457427 -0.00242579 0.00968024
v -0.06648044 0.02871991 0.00708560
v -0.06539984 0.02960832 0.00700842
v -0.06401203 0.03060895 0.00708560
v -0.06295262 0.03135708 0.00708560
v -0.06137412 0.03243720 0.00700842
v -0.06258183 0.03105315 0.00821377
v -0.06197797 0.03066506 0.00961619
v -0.06056897 0.03110926 0.01038966
v -0.05206197 0.03525205 0.01238326
v -0.04950881 0.03708030 0.01189882
v -0.04675436 0.03774427 0.01285292
v -0.05094959 0.03558871 0.01268870
v -0.04883079 0.03633684 0.01304670
v -0.04465674 0.03796870 0.01302535
v -0.03624509 0.03837083 0.01336364
v -0.03414747 0.03837083 0.01341455
v 0.00815447 0.03418596 0.01267885
v 0.00815447 0.03420466 0.01266900
v 0.00815447 0.03502293 0.01216321
v -0.09861211 -0.00242579 0.01084290
v -0.09783875 -0.00242579 0.01198914
v -0.09602716 -0.00067703 0.01223218
v -0.08985085 0.00577562 0.01233564
v -0.09021105 0.00614968 0.01093158
v -0.08776383 0.00790312 0.01235370
v -0.08651373 0.00874009 0.01247194
v -0.08459622 0.01047950 0.01250478
v -0.07537941 0.01860609 0.01245059
v -0.07317586 0.02062605 0.01241446
v -0.07098290 0.02264601 0.01237012
v -0.08345206 0.01201785 0.01224532
v -0.06919250 0.02507744 0.01076736
v -0.07720159 0.01837698 0.01014990
v -0.06833439 0.02641473 0.00918758
v 0.00815447 0.01945710 0.01314195
v -0.00365787 0.01670303 0.01393512
v -0.07908732 -0.00242579 0.01177565
v -0.07726515 -0.00242579 0.01141273
v -0.07524169 -0.00242579 0.01084290
v -0.07461664 -0.00242579 0.01059165
v -0.07457427 -0.00242579 0.00996926
v -0.06727499 0.02730781 0.00918758
v -0.06543162 0.02956156 0.00708560
v -0.06508203 0.02922490 0.00869329
v -0.06353529 0.02994498 0.00915474
v -0.06447816 0.02881811 0.01009571
v -0.06694657 0.02696180 0.01044713
v -0.06554816 0.02732184 0.01120418
v -0.05841838 0.03107653 0.01240625
v -0.05453038 0.03339574 0.01260003
v -0.04675436 0.03627138 0.01359190
v -0.06087620 0.02921555 0.01257211
v -0.05094959 0.03416726 0.01333737
v -0.04465674 0.03627138 0.01374955
v -0.04254853 0.03627138 0.01378404
v -0.02994164 0.03627138 0.01360504
v 0.00815447 0.03228757 0.01319942
v 0.00815447 0.03416258 0.01268870
v -0.09731964 -0.00242579 0.01235042
v -0.09667341 -0.00207510 0.01247851
v -0.09049708 0.00437754 0.01250478
v -0.08828293 0.00683703 0.01247851
v -0.08459622 0.00894583 0.01276589
v -0.08264692 0.01120426 0.01266900
v -0.05305780 0.03206313 0.01344903
v -0.06476420 0.02690102 0.01241610
v 0.00815447 0.01967686 0.01315344
v 0.00815447 0.02155654 0.01324048
v 0.00815447 0.02177631 0.01324212
v -0.00469608 0.01670303 0.01399916
v -0.08110019 -0.00242579 0.01193495
v -0.04885198 0.03416726 0.01368386
v -0.04675436 0.03416726 0.01372656
v 0.00815447 0.03206781 0.01322734
v -0.09682172 -0.00242579 0.01249657
v -0.09617548 -0.00242579 0.01257047
v -0.08248800 0.00894583 0.01287099
v -0.09385539 -0.00242579 0.01266900
v -0.09182134 -0.00242579 0.01256062
v -0.09091025 -0.00242579 0.01250807
v -0.09300787 -0.00157479 0.01268870
f 1 2 3
f 1 3 4
f 1 4 5
f 1 5 6
f 1 6 7
f 1 7 8
f 1 8 2
f 2 8 9
f 2 9 3
f 3 9 10
f 3 10 4
f 4 10 11
f 4 11 12
f 4 12 13
f 4 13 14
f 4 14 5
f 5 14 15
f 5 15 16
f 5 16 17
f 5 17 18
f 5 18 6
f 6 18 19
f 6 19 20
f 6 20 21
f 6 21 7
f 7 21 9
f 7 9 8
f 9 22 58
f 9 58 79
f 9 79 78
f 9 78 77
f 9 77 119
f 9 119 144
f 9 144 108
f 9 108 107
f 9 107 106
f 9 106 102
f 9 102 101
f 9 101 59
f 9 59 23
f 9 23 60
f 9 60 24
f 9 24 25
f 9 25 26
f 9 26 27
f 9 27 28
f 9 28 29
f 9 29 30
f 9 30 31
f 9 31 32
f 9 32 33
f 9 33 34
f 9 34 35
f 9 35 36
f 9 36 10
f 9 21 37
f 9 37 22
f 10 36 38
f 10 38 11
f 11 38 12
f 12 39 40
f 12 40 13
f 12 38 41
f 12 41 42
f 12 42 43
f 12 43 39
f 13 40 14
f 14 40 44
f 14 44 45
f 14 45 46
f 14 46 15
f 15 46 47
f 15 47 16
f 16 48 17
f 16 47 49
f 16 49 48
f 17 48 50
f 17 50 51
f 17 51 52
f 17 52 53
f 17 53 54
f 17 54 18
f 18 54 55
f 18 55 56
f 18 56 57
f 18 57 19
f 19 57 56
f 19 56 55
f 19 55 54
f 19 54 53
f 19 53 100
f 19 100 138
f 19 138 176
f 19 176 175
f 19 175 174
f 19 174 215
f 19 215 214
f 19 214 231
f 19 231 226
f 19 226 225
f 19 225 224
f 19 224 192
f 19 192 156
f 19 156 117
f 19 117 76
f 19 76 37
f 19 37 21
f 19 21 20
f 22 37 58
f 23 59 60
f 24 61 25
f 24 60 62
f 24 62 63
f 24 63 64
f 24 64 65
f 24 65 66
f 24 66 67
f 24 67 68
f 24 68 61
f 25 61 26
f 26 61 69
f 26 69 70
f 26 70 27
f 27 70 28
f 28 71 72
f 28 72 29
f 28 70 71
f 29 72 30
f 30 72 73
f 30 73 31
f 31 73 74
f 31 74 32
f 32 74 33
f 33 74 75
f 33 75 34
f 34 38 35
f 34 75 38
f 35 38 36
f 37 76 119
f 37 119 77
f 37 77 78
f 37 78 79
f 37 79 58
f 38 75 74
f 38 74 41
f 39 44 40
f 39 43 80
f 39 80 44
f 41 74 69
f 41 69 81
f 41 81 82
f 41 82 83
f 41 83 42
f 42 82 84
f 42 84 85
f 42 85 86
f 42 86 87
f 42 87 88
f 42 88 43
f 42 83 82
f 43 88 89
f 43 89 80
f 44 80 90
f 44 90 91
f 44 91 92
f 44 92 93
f 44 93 94
f 44 94 95
f 44 95 96
f 44 96 97
f 44 97 49
f 44 49 45
f 45 49 47
f 45 47 46
f 48 49 50
f 49 97 50
f 50 98 99
f 50 99 52
f 50 52 51
f 50 97 95
f 50 95 98
f 52 99 53
f 53 99 100
f 59 101 60
f 60 101 102
f 60 102 62
f 61 103 69
f 61 68 103
f 62 104 105
f 62 105 63
f 62 102 106
f 62 106 107
f 62 107 108
f 62 108 109
f 62 109 110
f 62 110 111
f 62 111 146
f 62 146 157
f 62 157 198
f 62 198 197
f 62 197 196
f 62 196 195
f 62 195 194
f 62 194 228
f 62 228 237
f 62 237 236
f 62 236 235
f 62 235 233
f 62 233 232
f 62 232 216
f 62 216 178
f 62 178 177
f 62 177 141
f 62 141 104
f 63 105 64
f 64 105 65
f 65 112 113
f 65 113 66
f 65 105 114
f 65 114 112
f 66 113 67
f 67 113 68
f 68 115 103
f 68 113 116
f 68 116 115
f 69 103 121
f 69 121 81
f 69 74 72
f 69 72 71
f 69 71 70
f 72 74 73
f 76 117 118
f 76 118 119
f 80 89 120
f 80 120 90
f 81 121 122
f 81 122 84
f 81 84 82
f 84 122 123
f 84 123 124
f 84 124 125
f 84 125 85
f 85 125 126
f 85 126 127
f 85 127 86
f 86 128 129
f 86 129 87
f 86 127 128
f 87 129 130
f 87 130 120
f 87 120 131
f 87 131 88
f 88 131 89
f 89 131 120
f 90 120 132
f 90 132 91
f 91 93 92
f 91 132 93
f 93 133 95
f 93 95 94
f 93 132 134
f 93 134 133
f 95 97 96
f 95 133 135
f 95 135 136
f 95 136 98
f 98 136 137
f 98 137 100
f 98 100 99
f 100 137 138
f 103 115 139
f 103 139 140
f 103 140 158
f 103 158 121
f 104 141 142
f 104 142 105
f 105 142 143
f 105 143 114
f 108 144 109
f 109 144 110
f 110 144 145
f 110 145 111
f 111 145 147
f 111 147 118
f 111 118 117
f 111 117 146
f 112 114 143
f 112 143 148
f 112 148 113
f 113 148 149
f 113 149 150
f 113 150 151
f 113 151 152
f 113 152 116
f 115 116 153
f 115 153 139
f 116 152 151
f 116 151 154
f 116 154 155
f 116 155 153
f 117 156 198
f 117 198 157
f 117 157 146
f 118 147 119
f 119 147 145
f 119 145 144
f 120 130 134
f 120 134 132
f 121 158 122
f 122 158 159
f 122 159 160
f 122 160 161
f 122 161 123
f 123 161 162
f 123 162 124
f 124 162 163
f 124 163 125
f 125 163 164
f 125 164 126
f 126 164 165
f 126 165 127
f 127 165 166
f 127 166 128
f 128 166 167
f 128 167 129
f 129 168 130
f 129 167 166
f 129 166 169
f 129 169 170
f 129 170 168
f 130 168 134
f 133 134 168
f 133 168 171
f 133 171 135
f 135 171 136
f 136 172 137
f 136 171 172
f 137 172 173
f 137 173 174
f 137 174 175
f 137 175 176
f 137 176 138
f 139 153 158
f 139 158 140
f 141 177 142
f 142 177 178
f 142 178 179
f 142 179 180
f 142 180 149
f 142 149 181
f 142 181 143
f 143 181 148
f 148 181 149
f 149 180 182
f 149 182 183
f 149 183 184
f 149 184 185
f 149 185 186
f 149 186 187
f 149 187 188
f 149 188 189
f 149 189 154
f 149 154 151
f 149 151 150
f 153 155 190
f 153 190 191
f 153 191 158
f 154 189 190
f 154 190 155
f 156 192 193
f 156 193 194
f 156 194 195
f 156 195 196
f 156 196 197
f 156 197 198
f 158 191 199
f 158 199 200
f 158 200 159
f 159 200 160
f 160 200 201
f 160 201 161
f 161 201 162
f 162 201 163
f 163 202 164
f 163 201 202
f 164 202 203
f 164 203 165
f 165 203 166
f 166 203 204
f 166 204 205
f 166 205 206
f 166 206 207
f 166 207 169
f 168 170 208
f 168 208 171
f 169 207 170
f 170 207 209
f 170 209 210
f 170 210 208
f 171 208 211
f 171 211 172
f 172 211 173
f 173 211 212
f 173 212 213
f 173 213 214
f 173 214 215
f 173 215 174
f 178 216 179
f 179 216 217
f 179 217 180
f 180 218 219
f 180 219 183
f 180 183 182
f 180 217 218
f 183 219 218
f 183 218 220
f 183 220 184
f 184 220 221
f 184 221 222
f 184 222 185
f 185 222 186
f 186 222 187
f 187 222 210
f 187 210 223
f 187 223 204
f 187 204 189
f 187 189 188
f 189 204 199
f 189 199 191
f 189 191 190
f 192 224 193
f 193 224 225
f 193 225 226
f 193 226 227
f 193 227 228
f 193 228 194
f 199 204 201
f 199 201 200
f 201 204 203
f 201 203 202
f 204 223 205
f 205 223 206
f 206 223 207
f 207 223 209
f 208 210 222
f 208 222 229
f 208 229 211
f 209 223 210
f 211 229 230
f 211 230 212
f 212 227 231
f 212 231 213
f 212 230 227
f 213 231 214
f 216 232 217
f 217 232 220
f 217 220 218
f 220 232 233
f 220 233 234
f 220 234 229
f 220 229 222
f 220 222 221
f 226 231 227
f 227 230 235
f 227 235 236
f 227 236 237
f 227 237 228
f 229 234 238
f 229 238 230
f 230 238 235
f 233 235 238
f 233 238 234

