# https://github.com/mikedh/trimesh
v 0.07522939 0.08142869 -0.01149273
v 0.07312992 0.08142869 -0.01142855
v 0.07522939 0.08254953 -0.01130021
v 0.07834927 0.08571315 -0.01079217
v 0.07839165 0.08571315 -0.01079217
v 0.07851554 0.08465315 -0.01087061
v 0.07855140 0.08318599 -0.01089556
v 0.07719195 0.08142869 -0.01114691
v 0.07103044 0.08142869 -0.01130734
v 0.07312992 0.08254953 -0.01119325
v 0.07695070 0.08554935 -0.01075830
v 0.07752447 0.08655086 -0.01051944
v 0.07923275 0.08655086 -0.01047131
v 0.08154087 0.08675677 -0.00965310
v 0.07817649 0.08142869 -0.01064778
v 0.08289379 0.08675677 -0.00887590
v 0.08272753 0.08535163 -0.00875825
v 0.07312992 0.08392191 -0.01087952
v 0.06892770 0.08142869 -0.01116117
v 0.07522939 0.08529196 -0.01068700
v 0.07175417 0.08372185 -0.01082961
v 0.07522939 0.08675677 -0.01023957
v 0.07733539 0.08867319 -0.00942493
v 0.07944139 0.08871999 -0.00950872
v 0.08154087 0.08840410 -0.00924133
v 0.08286119 0.08800864 -0.00886699
v 0.08109424 0.08254953 -0.00904346
v 0.08078780 0.08142869 -0.00888659
v 0.08394353 0.08675677 -0.00803452
v 0.08503891 0.08533525 -0.00693467
v 0.08246020 0.08394765 -0.00847125
v 0.06892770 0.08212834 -0.01098291
v 0.06682496 0.08142869 -0.01096508
v 0.07104022 0.08451509 -0.01047666
v 0.07312992 0.08675677 -0.00998645
v 0.06682496 0.08174576 -0.01087239
v 0.06568394 0.08153165 -0.01080287
v 0.06892770 0.08804608 -0.00888659
v 0.07102392 0.08820871 -0.00902385
v 0.07312992 0.08837017 -0.00915933
v 0.07522939 0.08852695 -0.00929302
v 0.07733539 0.08972383 -0.00834469
v 0.07944139 0.08977180 -0.00835182
v 0.08153109 0.08942783 -0.00768692
v 0.08359471 0.08829061 -0.00753362
v 0.08484331 0.08790919 -0.00676532
v 0.08506173 0.08675677 -0.00698280
v 0.08684825 0.08566986 -0.00065107
v 0.08715470 0.08534110 0.00498188
v 0.08087582 0.08142869 -0.00810048
v 0.08688085 0.08675677 -0.00075803
v 0.06560243 0.08142869 -0.01082604
v 0.06892770 0.08465315 -0.01016292
v 0.07102392 0.08675677 -0.00971906
v 0.06437013 0.08142869 -0.01066561
v 0.06682496 0.08465315 -0.00989553
v 0.06897985 0.08922191 -0.00745697
v 0.07102392 0.08926169 -0.00782061
v 0.07312992 0.08942081 -0.00802917
v 0.07522939 0.08957876 -0.00820565
v 0.06759759 0.08791037 -0.00877607
v 0.07312992 0.09018129 -0.00697923
v 0.06892770 0.09170110 -0.00386507
v 0.07102392 0.09177012 -0.00386328
v 0.07944139 0.09016959 -0.00730010
v 0.08082040 0.09006663 -0.00702023
v 0.07102392 0.09217026 -0.00281334
v 0.08222222 0.08970979 -0.00602377
v 0.08348713 0.08920670 -0.00540521
v 0.08297856 0.09017076 -0.00343012
v 0.08510411 0.08812915 -0.00553178
v 0.08685803 0.08786474 -0.00054412
v 0.08746440 0.08675677 0.00287844
v 0.08728184 0.08676964 0.00500327
v 0.08700473 0.08538438 0.00633308
v 0.08468031 0.08351944 0.00671811
v 0.08045527 0.08142869 -0.00773683
v 0.08388811 0.08328311 0.00671811
v 0.08354254 0.08321642 0.00671811
v 0.06892770 0.08675677 -0.00944989
v 0.06256406 0.08142869 -0.01021283
v 0.06686734 0.08681527 -0.00908090
v 0.06831481 0.08984551 -0.00649615
v 0.07102392 0.09004324 -0.00676711
v 0.06523079 0.08615423 -0.00892581
v 0.06619902 0.08755469 -0.00840886
v 0.06686734 0.08841463 -0.00767979
v 0.06897985 0.09052527 -0.00569043
v 0.06766931 0.09212696 -0.00262974
v 0.06892770 0.09218897 -0.00281334
v 0.07944139 0.09198072 -0.00229639
v 0.07312992 0.09174321 -0.00374029
v 0.07733539 0.09090551 -0.00553178
v 0.07829711 0.09200763 -0.00236948
v 0.07944139 0.09235979 -0.00124467
v 0.08090516 0.09222641 -0.00087568
v 0.07312992 0.09256337 -0.00132845
v 0.07733539 0.09310741 0.00077321
v 0.07944139 0.09306646 0.00077321
v 0.07522939 0.09251657 -0.00132845
v 0.07749188 0.09234692 -0.00153345
v 0.07312992 0.09212345 -0.00268856
v 0.08267863 0.08995900 -0.00462266
v 0.08157999 0.09163909 -0.00147641
v 0.08130288 0.09251657 0.00077321
v 0.08235588 0.09185904 0.00077321
v 0.08543664 0.08841697 -0.00343012
v 0.08588979 0.08851758 -0.00127854
v 0.08560291 0.08919267 0.00073043
v 0.08701777 0.08800748 0.00077321
v 0.08724272 0.08738505 0.00182315
v 0.08722316 0.08816542 0.00287844
v 0.08713187 0.08807416 0.00431698
v 0.08700473 0.08607701 0.00633308
v 0.08634946 0.08644906 0.00671811
v 0.08621580 0.08484034 0.00671811
v 0.06412563 0.08142869 0.00182315
v 0.08341540 0.08321642 0.00671811
v 0.06298786 0.08416644 -0.00901672
v 0.06055912 0.08142869 -0.00940533
v 0.06682496 0.08954014 -0.00600773
v 0.06682496 0.09025383 -0.00495779
v 0.06158604 0.08358613 -0.00867269
v 0.06382896 0.08556924 -0.00854969
v 0.06463746 0.08682346 -0.00777783
v 0.06544921 0.08807767 -0.00700597
v 0.07102718 0.09318112 0.00287844
v 0.06892770 0.09246626 -0.00132845
v 0.06575892 0.08992156 -0.00450145
v 0.06543291 0.09018597 -0.00343012
v 0.05940180 0.08575761 -0.00248000
v 0.06652830 0.09144136 -0.00132845
v 0.06758129 0.09219599 -0.00132845
v 0.07102392 0.09256102 -0.00132845
v 0.07522939 0.09207783 -0.00255665
v 0.07522939 0.09309102 0.00077321
v 0.07733865 0.09338118 0.00287844
v 0.07943813 0.09328290 0.00287844
v 0.07944139 0.09317410 0.00182315
v 0.08037377 0.09289915 0.00182315
v 0.08134200 0.09255752 0.00182315
v 0.08242760 0.09189297 0.00287844
v 0.08364361 0.09096401 0.00287844
v 0.08482375 0.09001048 0.00182315
v 0.08481071 0.09000111 0.00140068
v 0.08380987 0.09068322 0.00073043
v 0.08137786 0.09259847 0.00287844
v 0.08462489 0.08984902 -0.00000221
v 0.08712210 0.08808703 0.00182315
v 0.08512368 0.08977765 0.00182315
v 0.08590609 0.08921723 0.00287844
v 0.08479441 0.08998123 0.00403177
v 0.08563551 0.08877381 0.00487493
v 0.08507478 0.08807183 0.00639725
v 0.08647660 0.08747864 0.00571987
v 0.08593869 0.08696619 0.00671811
v 0.05487684 0.08142869 0.00182315
v 0.08210812 0.08331937 0.00671811
v 0.06051674 0.08206750 -0.00902385
v 0.05928444 0.08142869 -0.00878142
v 0.05937898 0.08157260 -0.00874577
v 0.05823144 0.08142869 -0.00763522
v 0.05737404 0.08148836 -0.00656924
v 0.06037655 0.08315324 -0.00783844
v 0.06098619 0.08409507 -0.00727158
v 0.06320955 0.08608988 -0.00714858
v 0.06181099 0.08549788 -0.00626085
v 0.06404739 0.08748917 -0.00608260
v 0.07102392 0.09305125 0.00182315
v 0.06892770 0.09259379 0.00077321
v 0.06892770 0.09261485 0.00182315
v 0.06892770 0.09263474 0.00287844
v 0.07102718 0.09300913 0.00498188
v 0.07312992 0.09328992 0.00287844
v 0.07208344 0.09310624 0.00182315
v 0.07102392 0.09292138 0.00077321
v 0.07312992 0.09303019 0.00077321
v 0.06266512 0.08671699 -0.00547117
v 0.05764463 0.08336266 -0.00409858
v 0.05489639 0.08179138 -0.00288108
v 0.05714584 0.08377801 -0.00269569
v 0.05416289 0.08142869 -0.00132845
v 0.05940180 0.08575761 -0.00180619
v 0.06517863 0.09038955 -0.00132845
v 0.06766279 0.09216909 0.00077321
v 0.07523591 0.09322558 0.00182315
v 0.07523591 0.09336012 0.00287844
v 0.07312992 0.09300913 0.00498188
v 0.07523591 0.09295063 0.00498188
v 0.07929795 0.09248147 0.00505497
v 0.08100296 0.09233522 0.00440433
v 0.07733865 0.09280205 0.00498188
v 0.08485309 0.09003271 0.00287844
v 0.08163867 0.09144604 0.00505497
v 0.08348387 0.09032754 0.00483214
v 0.08236240 0.08974606 0.00671811
v 0.08417826 0.08846845 0.00671811
v 0.08490851 0.08793962 0.00671811
v 0.05734797 0.08361187 0.00182315
v 0.05487032 0.08142869 0.00180532
v 0.06852019 0.08441213 0.00671811
v 0.06852019 0.09124831 0.00671811
v 0.06852019 0.09189414 0.00562896
v 0.05743924 0.08142869 -0.00672254
v 0.05958437 0.08349721 -0.00642842
v 0.05721756 0.08142869 -0.00645872
v 0.05545061 0.08142869 -0.00424297
v 0.06852019 0.09243701 0.00287844
v 0.06852019 0.09240191 0.00329199
v 0.06852019 0.09227087 0.00449167
v 0.06890162 0.09241244 0.00479293
v 0.07102718 0.09236096 0.00668246
v 0.06958623 0.09225449 0.00644894
v 0.07312992 0.09316006 0.00182315
v 0.05464211 0.08142869 -0.00311460
v 0.05436501 0.08142869 -0.00020186
v 0.05724038 0.08369962 0.00077321
v 0.05955177 0.08563242 0.00077321
v 0.05474969 0.08191189 -0.00132845
v 0.05708390 0.08382715 -0.00132845
v 0.05948004 0.08569326 -0.00040508
v 0.06177512 0.08763659 -0.00132845
v 0.06282812 0.08848834 -0.00132845
v 0.06060151 0.08648534 0.00077321
v 0.06660979 0.09133723 0.00077321
v 0.06772473 0.09212463 0.00182315
v 0.07523591 0.09224163 0.00647925
v 0.07312992 0.09231065 0.00663612
v 0.07990432 0.09184734 0.00580722
v 0.07733865 0.09213047 0.00624395
v 0.07850249 0.09204156 0.00607460
v 0.08139743 0.09041412 0.00671811
v 0.05618738 0.08281277 0.00077321
v 0.05493878 0.08175980 0.00077321
v 0.05455083 0.08142869 0.00077321
v 0.06852019 0.09207783 0.00509775
v 0.06252820 0.08788346 0.00182315
v 0.06931238 0.09187659 0.00671811
v 0.06719987 0.09170694 0.00182315
v 0.06485588 0.08980222 0.00182315
v 0.07102718 0.09234107 0.00671811
v 0.07312992 0.09227087 0.00671811
v 0.07523591 0.09211293 0.00671811
v 0.07656276 0.09196317 0.00671811
v 0.07481863 0.09215271 0.00671811
v 0.07912191 0.09141913 0.00671811
v 0.07939901 0.09134308 0.00671811
v 0.07788960 0.09173619 0.00671811
f 1 2 3
f 1 3 4
f 1 4 5
f 1 5 6
f 1 6 7
f 1 7 8
f 1 8 15
f 1 15 28
f 1 28 50
f 1 50 77
f 1 77 117
f 1 117 157
f 1 157 200
f 1 200 235
f 1 235 216
f 1 216 182
f 1 182 215
f 1 215 207
f 1 207 206
f 1 206 204
f 1 204 162
f 1 162 160
f 1 160 120
f 1 120 81
f 1 81 55
f 1 55 52
f 1 52 33
f 1 33 19
f 1 19 9
f 1 9 2
f 2 9 10
f 2 10 11
f 2 11 3
f 3 11 4
f 4 11 12
f 4 12 5
f 5 12 13
f 5 13 6
f 6 13 14
f 6 14 7
f 7 15 8
f 7 14 16
f 7 16 17
f 7 17 15
f 9 18 10
f 9 19 18
f 10 18 11
f 11 20 12
f 11 18 21
f 11 21 20
f 12 20 22
f 12 22 23
f 12 23 24
f 12 24 13
f 13 24 25
f 13 25 14
f 14 25 26
f 14 26 16
f 15 17 27
f 15 27 28
f 16 26 29
f 16 29 30
f 16 30 17
f 17 30 31
f 17 31 27
f 18 19 21
f 19 32 21
f 19 33 32
f 20 21 22
f 21 34 35
f 21 35 22
f 21 32 33
f 21 33 36
f 21 36 37
f 21 37 34
f 22 35 38
f 22 38 39
f 22 39 40
f 22 40 41
f 22 41 23
f 23 41 42
f 23 42 24
f 24 43 25
f 24 42 43
f 25 43 44
f 25 44 26
f 26 45 46
f 26 46 47
f 26 47 29
f 26 44 45
f 27 31 28
f 28 31 30
f 28 30 48
f 28 48 49
f 28 49 50
f 29 47 30
f 30 47 51
f 30 51 48
f 33 52 36
f 34 37 53
f 34 53 35
f 35 53 54
f 35 54 38
f 36 52 37
f 37 52 55
f 37 55 56
f 37 56 53
f 38 57 58
f 38 58 59
f 38 59 60
f 38 60 39
f 38 54 61
f 38 61 57
f 39 60 40
f 40 60 41
f 41 60 42
f 42 60 62
f 42 62 63
f 42 63 64
f 42 64 43
f 43 65 66
f 43 66 44
f 43 64 67
f 43 67 65
f 44 66 68
f 44 68 46
f 44 46 45
f 46 68 69
f 46 69 70
f 46 70 71
f 46 71 72
f 46 72 47
f 47 72 51
f 48 51 73
f 48 73 49
f 49 73 74
f 49 74 75
f 49 75 76
f 49 76 50
f 50 76 78
f 50 78 79
f 50 79 77
f 51 72 73
f 53 56 54
f 54 56 80
f 54 80 61
f 55 81 82
f 55 82 56
f 56 82 80
f 57 61 83
f 57 83 58
f 58 83 59
f 59 83 84
f 59 84 62
f 59 62 60
f 61 80 82
f 61 82 85
f 61 85 86
f 61 86 87
f 61 87 83
f 62 84 88
f 62 88 63
f 63 88 83
f 63 83 89
f 63 89 90
f 63 90 64
f 64 90 67
f 65 91 66
f 65 67 92
f 65 92 93
f 65 93 94
f 65 94 91
f 66 91 95
f 66 95 96
f 66 96 68
f 67 97 98
f 67 98 99
f 67 99 100
f 67 100 101
f 67 101 102
f 67 102 92
f 67 90 97
f 68 103 69
f 68 96 103
f 69 103 70
f 70 103 104
f 70 104 105
f 70 105 106
f 70 106 71
f 71 107 72
f 71 106 107
f 72 107 108
f 72 108 109
f 72 109 110
f 72 110 111
f 72 111 73
f 73 111 112
f 73 112 113
f 73 113 74
f 74 113 114
f 74 114 75
f 75 115 116
f 75 116 76
f 75 114 115
f 76 116 115
f 76 115 156
f 76 156 198
f 76 198 197
f 76 197 196
f 76 196 232
f 76 232 247
f 76 247 246
f 76 246 248
f 76 248 244
f 76 244 243
f 76 243 245
f 76 245 242
f 76 242 241
f 76 241 238
f 76 238 202
f 76 202 201
f 76 201 158
f 76 158 118
f 76 118 79
f 76 79 78
f 77 79 117
f 79 118 157
f 79 157 117
f 81 119 85
f 81 85 82
f 81 120 119
f 83 87 121
f 83 121 122
f 83 122 89
f 83 88 84
f 85 119 123
f 85 123 124
f 85 124 86
f 86 124 125
f 86 125 126
f 86 126 122
f 86 122 121
f 86 121 87
f 89 127 128
f 89 128 90
f 89 122 129
f 89 129 130
f 89 130 131
f 89 131 132
f 89 132 133
f 89 133 127
f 90 128 134
f 90 134 98
f 90 98 97
f 91 94 101
f 91 101 95
f 92 102 135
f 92 135 93
f 93 135 101
f 93 101 94
f 95 99 96
f 95 101 99
f 96 105 104
f 96 104 103
f 96 99 105
f 98 136 137
f 98 137 99
f 98 134 136
f 99 138 139
f 99 139 140
f 99 140 105
f 99 101 100
f 99 137 138
f 101 135 102
f 105 141 106
f 105 140 141
f 106 142 143
f 106 143 144
f 106 144 145
f 106 145 146
f 106 146 107
f 106 141 147
f 106 147 142
f 107 146 148
f 107 148 108
f 108 148 145
f 108 145 109
f 109 145 110
f 110 149 111
f 110 145 149
f 111 149 112
f 112 149 145
f 112 145 150
f 112 150 151
f 112 151 152
f 112 152 113
f 113 153 154
f 113 154 155
f 113 155 114
f 113 152 153
f 114 155 115
f 115 155 156
f 118 158 157
f 119 120 159
f 119 159 123
f 120 160 159
f 122 126 129
f 123 159 161
f 123 161 162
f 123 162 163
f 123 163 164
f 123 164 165
f 123 165 166
f 123 166 124
f 124 166 125
f 125 166 126
f 126 166 167
f 126 167 168
f 126 168 129
f 127 169 128
f 127 133 170
f 127 170 171
f 127 171 172
f 127 172 173
f 127 173 174
f 127 174 175
f 127 175 169
f 128 169 176
f 128 176 177
f 128 177 134
f 129 168 178
f 129 178 179
f 129 179 180
f 129 180 181
f 129 181 131
f 129 131 130
f 131 181 182
f 131 182 183
f 131 183 184
f 131 184 132
f 132 184 185
f 132 185 133
f 133 185 172
f 133 172 171
f 133 171 170
f 134 177 136
f 136 186 137
f 136 177 186
f 137 186 187
f 137 187 173
f 137 173 188
f 137 188 189
f 137 189 138
f 138 190 191
f 138 191 147
f 138 147 141
f 138 141 140
f 138 140 139
f 138 189 192
f 138 192 190
f 142 152 143
f 142 147 152
f 143 152 193
f 143 193 144
f 144 193 151
f 144 151 150
f 144 150 145
f 145 148 146
f 147 191 152
f 151 193 152
f 152 191 194
f 152 194 195
f 152 195 154
f 152 154 153
f 154 195 196
f 154 196 197
f 154 197 198
f 154 198 155
f 155 198 156
f 157 199 200
f 157 158 201
f 157 201 202
f 157 202 203
f 157 203 199
f 159 160 161
f 160 162 161
f 162 204 163
f 163 205 165
f 163 165 164
f 163 204 206
f 163 206 207
f 163 207 205
f 165 205 166
f 166 205 167
f 167 178 168
f 167 205 207
f 167 207 178
f 169 175 176
f 172 185 208
f 172 208 209
f 172 209 210
f 172 210 211
f 172 211 173
f 173 212 188
f 173 187 174
f 173 211 213
f 173 213 212
f 174 214 175
f 174 187 214
f 175 214 177
f 175 177 176
f 177 214 187
f 177 187 186
f 178 207 179
f 179 207 180
f 180 215 182
f 180 182 181
f 180 207 215
f 182 216 217
f 182 217 218
f 182 218 219
f 182 219 183
f 183 219 220
f 183 220 221
f 183 221 222
f 183 222 223
f 183 223 184
f 184 223 221
f 184 221 224
f 184 224 225
f 184 225 185
f 185 226 208
f 185 225 226
f 188 212 189
f 189 227 192
f 189 212 228
f 189 228 227
f 190 229 191
f 190 192 230
f 190 230 231
f 190 231 229
f 191 232 194
f 191 229 232
f 192 227 230
f 194 232 196
f 194 196 195
f 199 218 217
f 199 217 233
f 199 233 234
f 199 234 235
f 199 235 200
f 199 203 236
f 199 236 210
f 199 210 237
f 199 237 218
f 202 238 213
f 202 213 203
f 203 213 236
f 208 226 209
f 209 226 210
f 210 236 211
f 210 226 239
f 210 239 240
f 210 240 237
f 211 236 213
f 212 241 242
f 212 242 228
f 212 213 241
f 213 238 241
f 216 235 234
f 216 234 233
f 216 233 217
f 218 224 221
f 218 221 220
f 218 220 219
f 218 237 240
f 218 240 239
f 218 239 224
f 221 223 222
f 224 239 225
f 225 239 226
f 227 243 244
f 227 244 230
f 227 228 242
f 227 242 245
f 227 245 243
f 229 231 246
f 229 246 247
f 229 247 232
f 230 244 231
f 231 244 248
f 231 248 246

