# https://github.com/mikedh/trimesh
v 0.01027735 -0.00782264 -0.01198339
v 0.01027735 -0.00785387 -0.01202881
v 0.01027735 -0.00790385 -0.00978759
v 0.01347042 -0.00880966 -0.01049825
v 0.01347042 -0.00880966 -0.01103216
v 0.02159573 -0.01316381 -0.01283520
v 0.01027735 -0.00871596 -0.01313346
v 0.01635983 -0.01061504 -0.01019017
v 0.01027735 -0.02058523 -0.00246373
v 0.01085707 -0.02041656 -0.00246373
v 0.01209013 -0.02018542 -0.00246373
v 0.01295511 -0.02006673 -0.00246373
v 0.01425259 -0.01999801 -0.00246373
v 0.01509916 -0.02028537 -0.00246373
v 0.01630462 -0.02069767 -0.00246373
v 0.04492263 -0.03419740 -0.00246373
v 0.02056511 -0.01275151 -0.01023681
v 0.02177977 -0.01306386 -0.01059521
v 0.02177977 -0.01306386 -0.01143229
v 0.02256193 -0.01353863 -0.01201776
v 0.02578261 -0.01528778 -0.01267442
v 0.02848797 -0.01706192 -0.01319606
v 0.02438391 -0.01490047 -0.01322306
v 0.02018783 -0.01288269 -0.01314696
v 0.01027735 -0.00982167 -0.01371279
v 0.01027735 -0.03618394 -0.00246373
v 0.06645515 -0.04665389 -0.00246373
v 0.10427509 -0.06292104 -0.00709591
v 0.02477039 -0.01490672 -0.01033132
v 0.02590223 -0.01521907 -0.01070568
v 0.02590223 -0.01521907 -0.01127150
v 0.02495443 -0.01476304 -0.01192080
v 0.04481220 -0.02573899 -0.01294567
v 0.04074495 -0.02355879 -0.01304386
v 0.03666849 -0.02137859 -0.01311259
v 0.03257363 -0.01921713 -0.01315801
v 0.03949349 -0.02322770 -0.01329548
v 0.03527900 -0.02102876 -0.01333353
v 0.02267236 -0.01448192 -0.01340349
v 0.04369877 -0.02682596 -0.01386130
v 0.02687764 -0.01663713 -0.01338630
v 0.01027735 -0.00986540 -0.01372384
v 0.02267236 -0.01630604 -0.01392513
v 0.01027735 -0.03637760 -0.00392556
v 0.08022124 -0.06966778 -0.00246373
v 0.06978625 -0.04877162 -0.00246373
v 0.10427509 -0.06411421 -0.00709591
v 0.10377819 -0.06314593 -0.00908797
v 0.10410025 -0.06289605 -0.00763842
v 0.10202062 -0.06116563 -0.01128255
v 0.10202062 -0.06116563 -0.01038778
v 0.09956370 -0.05931028 -0.01067008
v 0.09345362 -0.05494364 -0.01253572
v 0.06999789 -0.04046313 -0.01286221
v 0.07013592 -0.04911520 -0.00246373
v 0.08453695 -0.06574467 -0.00246373
v 0.08456455 -0.06771872 -0.00246373
v 0.04481220 -0.02573899 -0.01284134
v 0.04369877 -0.02543913 -0.01322429
v 0.06999789 -0.04046313 -0.01292358
v 0.07269406 -0.04224977 -0.01323288
v 0.04738874 -0.02755061 -0.01324147
v 0.04562197 -0.02683846 -0.01339121
v 0.04150871 -0.02468325 -0.01345872
v 0.03949349 -0.02472698 -0.01389322
v 0.02687764 -0.01841127 -0.01391776
v 0.04579681 -0.02893120 -0.01413747
v 0.09315915 -0.05729875 -0.01500278
v 0.01027735 -0.01210182 -0.01405523
v 0.01027735 -0.03637760 -0.00470250
v 0.07942987 -0.06909306 -0.00343215
v 0.08064453 -0.06986144 -0.00246373
v 0.08456455 -0.07164183 -0.00246373
v 0.10271076 -0.06523242 -0.00709591
v 0.10377819 -0.06377062 -0.00908797
v 0.10226907 -0.06257121 -0.01134147
v 0.09970173 -0.06045973 -0.01303895
v 0.09947168 -0.05936650 -0.01296040
v 0.09957290 -0.05930404 -0.01184224
v 0.09345362 -0.05494364 -0.01323288
v 0.09205493 -0.05454384 -0.01364160
v 0.09400574 -0.05640543 -0.01406505
v 0.09632462 -0.05826079 -0.01407610
v 0.09835825 -0.06045973 -0.01380239
v 0.09625100 -0.06045973 -0.01454373
v 0.09397813 -0.05817958 -0.01488372
v 0.09315915 -0.05735497 -0.01500278
v 0.09303033 -0.05729875 -0.01500278
v 0.01027735 -0.01233296 -0.01405523
v 0.01027735 -0.03575915 -0.00575192
v 0.07412956 -0.06574467 -0.00662460
v 0.07802198 -0.06800608 -0.00505476
v 0.08091138 -0.06976773 -0.00343215
v 0.08363516 -0.07092968 -0.00343215
v 0.08456455 -0.07127950 -0.00344442
v 0.08774842 -0.07073602 -0.00709591
v 0.08992928 -0.07109834 -0.00709591
v 0.09044458 -0.07107335 -0.00709591
v 0.09209173 -0.07079848 -0.00709591
v 0.09276347 -0.07054861 -0.00709591
v 0.09361925 -0.07018003 -0.00709591
v 0.09464067 -0.06969277 -0.00709591
v 0.09637063 -0.06885567 -0.00709591
v 0.09787975 -0.06811853 -0.00709591
v 0.09888276 -0.06761253 -0.00709591
v 0.10053911 -0.06663799 -0.00709591
v 0.10175376 -0.06588211 -0.00709591
v 0.10241630 -0.06543857 -0.00709591
v 0.08196040 -0.07022376 -0.00343215
v 0.07849128 -0.06778744 -0.00645644
v 0.10250832 -0.06515121 -0.00770593
v 0.10133967 -0.06561349 -0.00845218
v 0.10264635 -0.06421416 -0.00977040
v 0.10200221 -0.06387058 -0.01103462
v 0.09973854 -0.06175910 -0.01302054
v 0.09835825 -0.05899168 -0.01345872
v 0.09566208 -0.05691144 -0.01349431
v 0.09638904 -0.06273363 -0.01349431
v 0.09312235 -0.06573218 -0.01290148
v 0.09205493 -0.06591334 -0.01295426
v 0.09415296 -0.06257121 -0.01397300
v 0.09415296 -0.06045973 -0.01461247
v 0.09835825 -0.06217140 -0.01323779
v 0.09303033 -0.05735497 -0.01500278
v 0.01027735 -0.02682596 -0.01385394
v 0.01027735 -0.03153619 -0.01167164
v 0.07217875 -0.06356448 -0.00861420
v 0.07522459 -0.06598831 -0.00709591
v 0.07522459 -0.06601954 -0.00703945
v 0.07732263 -0.06750008 -0.00566723
v 0.08239290 -0.06999262 -0.00463990
v 0.08456455 -0.07077974 -0.00462640
v 0.08692025 -0.06988642 -0.00858842
v 0.08832814 -0.07010507 -0.00914812
v 0.08994769 -0.07089843 -0.00763842
v 0.08994769 -0.07021127 -0.00933345
v 0.09144760 -0.07012381 -0.00908920
v 0.09284629 -0.06981146 -0.00846937
v 0.09635223 -0.06852458 -0.00774521
v 0.09787975 -0.06811228 -0.00711678
v 0.09994098 -0.06599455 -0.00918985
v 0.08077335 -0.06769998 -0.00845464
v 0.07988997 -0.06803732 -0.00705050
v 0.08162913 -0.06938667 -0.00541807
v 0.10057591 -0.06531363 -0.00983055
v 0.09919562 -0.06559475 -0.01059153
v 0.09777853 -0.06595082 -0.01103585
v 0.09205493 -0.06838090 -0.01137461
v 0.09205493 -0.06696908 -0.01242648
v 0.09452104 -0.06534487 -0.01269528
v 0.09638904 -0.06465770 -0.01247926
v 0.09835825 -0.06322089 -0.01268546
v 0.09579091 -0.06394554 -0.01306350
v 0.08994769 -0.06708777 -0.01265723
v 0.09205493 -0.06467019 -0.01336912
v 0.09205493 -0.06257121 -0.01400982
v 0.08994769 -0.06257121 -0.01393004
v 0.08784044 -0.06257121 -0.01384535
v 0.08573319 -0.06257121 -0.01374225
v 0.09205493 -0.06045973 -0.01450078
v 0.09222056 -0.05817958 -0.01485304
v 0.01027735 -0.02893120 -0.01373243
v 0.01027735 -0.03035551 -0.01325375
v 0.07110213 -0.06214641 -0.00977531
v 0.08468418 -0.06783117 -0.01079159
v 0.08456455 -0.07041742 -0.00546348
v 0.08573319 -0.06967403 -0.00810974
v 0.08149110 -0.06832468 -0.00770716
v 0.08771161 -0.06960531 -0.00980600
v 0.08994769 -0.06973025 -0.01038533
v 0.09211013 -0.06945538 -0.00977040
v 0.09712519 -0.06773746 -0.00851846
v 0.08217205 -0.06798109 -0.00893332
v 0.08368116 -0.06938667 -0.00709591
v 0.09491672 -0.06768749 -0.01054121
v 0.09351803 -0.06802482 -0.01103339
v 0.08994769 -0.06867451 -0.01160536
v 0.08784044 -0.06695034 -0.01255045
v 0.08485901 -0.06569470 -0.01288553
v 0.08784044 -0.06590085 -0.01294444
v 0.08994769 -0.06603203 -0.01298372
v 0.08994769 -0.06467019 -0.01335930
v 0.08564118 -0.06487010 -0.01314328
v 0.08364436 -0.06257121 -0.01362687
v 0.08994769 -0.06045973 -0.01438172
v 0.08784044 -0.06045973 -0.01425775
v 0.08573319 -0.06045973 -0.01411783
v 0.08152792 -0.06257121 -0.01348940
v 0.08018443 -0.06375813 -0.01299967
v 0.08609207 -0.06814352 -0.01118436
v 0.08784044 -0.06851209 -0.01149857
v 0.09418977 -0.06844337 -0.00979986
v 0.08152792 -0.06398303 -0.01309050
f 1 2 7
f 1 7 25
f 1 25 42
f 1 42 69
f 1 69 89
f 1 89 125
f 1 125 162
f 1 162 163
f 1 163 126
f 1 126 90
f 1 90 70
f 1 70 44
f 1 44 26
f 1 26 9
f 1 9 3
f 1 3 4
f 1 4 5
f 1 5 6
f 1 6 2
f 2 6 7
f 3 8 4
f 3 9 10
f 3 10 11
f 3 11 12
f 3 12 13
f 3 13 14
f 3 14 15
f 3 15 16
f 3 16 8
f 4 8 17
f 4 17 18
f 4 18 19
f 4 19 5
f 5 19 20
f 5 20 6
f 6 20 21
f 6 21 22
f 6 22 23
f 6 23 24
f 6 24 7
f 7 24 25
f 8 16 17
f 9 26 45
f 9 45 72
f 9 72 73
f 9 73 57
f 9 57 56
f 9 56 55
f 9 55 46
f 9 46 27
f 9 27 16
f 9 16 15
f 9 15 14
f 9 14 13
f 9 13 12
f 9 12 11
f 9 11 10
f 16 27 28
f 16 28 29
f 16 29 17
f 17 29 18
f 18 29 30
f 18 30 31
f 18 31 19
f 19 31 32
f 19 32 20
f 20 32 21
f 21 32 31
f 21 31 33
f 21 33 34
f 21 34 35
f 21 35 36
f 21 36 22
f 22 36 37
f 22 37 38
f 22 38 23
f 23 39 24
f 23 38 40
f 23 40 41
f 23 41 39
f 24 39 25
f 25 39 43
f 25 43 42
f 26 44 45
f 27 46 28
f 28 47 75
f 28 75 48
f 28 48 49
f 28 49 50
f 28 50 51
f 28 51 52
f 28 52 53
f 28 53 54
f 28 54 30
f 28 30 29
f 28 46 55
f 28 55 56
f 28 56 57
f 28 57 73
f 28 73 47
f 30 54 58
f 30 58 33
f 30 33 31
f 33 59 34
f 33 58 54
f 33 54 60
f 33 60 61
f 33 61 62
f 33 62 59
f 34 59 35
f 35 59 37
f 35 37 36
f 37 59 63
f 37 63 64
f 37 64 38
f 38 64 40
f 39 41 40
f 39 40 65
f 39 65 66
f 39 66 43
f 40 67 65
f 40 64 63
f 40 63 68
f 40 68 67
f 42 43 69
f 43 66 67
f 43 67 68
f 43 68 69
f 44 70 45
f 45 71 72
f 45 70 71
f 47 73 74
f 47 74 75
f 48 75 76
f 48 76 50
f 48 50 49
f 50 76 77
f 50 77 78
f 50 78 79
f 50 79 51
f 51 79 52
f 52 79 53
f 53 79 80
f 53 80 60
f 53 60 54
f 59 62 63
f 60 80 61
f 61 80 81
f 61 81 68
f 61 68 62
f 62 68 63
f 65 67 66
f 68 82 83
f 68 83 84
f 68 84 85
f 68 85 86
f 68 86 87
f 68 87 124
f 68 124 88
f 68 88 69
f 68 81 82
f 69 88 124
f 69 124 89
f 70 90 91
f 70 91 92
f 70 92 71
f 71 92 93
f 71 93 72
f 72 93 73
f 73 94 95
f 73 95 96
f 73 96 97
f 73 97 98
f 73 98 99
f 73 99 100
f 73 100 101
f 73 101 102
f 73 102 103
f 73 103 104
f 73 104 105
f 73 105 106
f 73 106 107
f 73 107 108
f 73 108 74
f 73 93 109
f 73 109 110
f 73 110 94
f 74 108 75
f 75 108 111
f 75 111 112
f 75 112 113
f 75 113 114
f 75 114 76
f 76 114 115
f 76 115 77
f 77 115 84
f 77 84 78
f 78 84 116
f 78 116 117
f 78 117 80
f 78 80 79
f 80 117 82
f 80 82 81
f 82 117 116
f 82 116 83
f 83 116 84
f 84 115 85
f 85 118 119
f 85 119 120
f 85 120 121
f 85 121 122
f 85 122 86
f 85 115 123
f 85 123 118
f 86 122 87
f 87 122 124
f 89 124 125
f 90 126 127
f 90 127 128
f 90 128 91
f 91 128 129
f 91 129 110
f 91 110 130
f 91 130 92
f 92 130 110
f 92 110 93
f 93 110 109
f 94 110 131
f 94 131 95
f 95 132 133
f 95 133 134
f 95 134 96
f 95 131 132
f 96 134 97
f 97 134 135
f 97 135 98
f 98 135 136
f 98 136 137
f 98 137 99
f 99 137 100
f 100 137 101
f 101 137 138
f 101 138 102
f 102 139 103
f 102 138 139
f 103 139 140
f 103 140 104
f 104 140 105
f 105 141 112
f 105 112 106
f 105 140 141
f 106 112 107
f 107 111 108
f 107 112 111
f 110 129 142
f 110 142 143
f 110 143 144
f 110 144 131
f 112 141 113
f 113 141 145
f 113 145 114
f 114 145 146
f 114 146 147
f 114 147 148
f 114 148 149
f 114 149 150
f 114 150 151
f 114 151 152
f 114 152 115
f 115 152 123
f 118 153 119
f 118 123 153
f 119 153 150
f 119 150 149
f 119 149 154
f 119 154 120
f 120 154 155
f 120 155 121
f 121 155 156
f 121 156 122
f 122 156 157
f 122 157 158
f 122 158 159
f 122 159 160
f 122 160 161
f 122 161 124
f 123 152 153
f 124 161 162
f 124 162 125
f 126 163 127
f 127 142 128
f 127 163 164
f 127 164 165
f 127 165 142
f 128 142 129
f 131 144 132
f 132 166 133
f 132 144 166
f 133 166 167
f 133 167 168
f 133 168 169
f 133 169 134
f 134 170 136
f 134 136 135
f 134 169 170
f 136 170 137
f 137 171 138
f 137 170 171
f 138 171 172
f 138 172 139
f 139 172 140
f 140 172 141
f 141 146 145
f 141 172 146
f 142 173 169
f 142 169 168
f 142 168 143
f 142 165 173
f 143 168 174
f 143 174 144
f 144 174 166
f 146 172 175
f 146 175 176
f 146 176 147
f 147 176 148
f 148 171 170
f 148 170 177
f 148 177 149
f 148 176 171
f 149 177 154
f 150 153 152
f 150 152 151
f 154 177 178
f 154 178 179
f 154 179 180
f 154 180 181
f 154 181 155
f 155 181 156
f 156 181 182
f 156 182 183
f 156 183 157
f 157 183 158
f 158 183 159
f 159 183 184
f 159 184 160
f 160 184 185
f 160 185 161
f 161 185 186
f 161 186 162
f 162 186 187
f 162 187 188
f 162 188 189
f 162 189 163
f 163 189 165
f 163 165 164
f 165 190 173
f 165 189 190
f 166 174 167
f 167 174 168
f 169 190 191
f 169 191 170
f 169 173 190
f 170 191 177
f 171 176 175
f 171 175 192
f 171 192 172
f 172 192 175
f 177 191 178
f 178 191 179
f 179 184 183
f 179 183 180
f 179 191 189
f 179 189 193
f 179 193 188
f 179 188 184
f 180 182 181
f 180 183 182
f 184 186 185
f 184 188 186
f 186 188 187
f 188 193 189
f 189 191 190

