# https://github.com/mikedh/trimesh
v -0.08519534 -0.01066764 -0.00687680
v -0.07394881 -0.01269756 -0.00957237
v -0.07089727 -0.01313625 -0.01072428
v -0.07089727 -0.01313625 -0.01080419
v -0.08520224 -0.01066764 -0.00696336
v -0.10519607 -0.01066764 -0.00687680
v -0.06995833 -0.02328186 -0.00265423
v -0.03472748 -0.02352513 -0.00859025
v -0.03472748 -0.02321007 -0.00934376
v -0.03472748 -0.02311436 -0.00969111
v -0.03472748 -0.02310240 -0.01184291
v -0.08883372 -0.01066764 -0.01356745
v -0.08754268 -0.01066764 -0.01305142
v -0.08583050 -0.01066764 -0.01122256
v -0.08560958 -0.01066764 -0.01090184
v -0.08540246 -0.01066764 -0.00902860
v -0.03472748 -0.02352513 -0.01299260
v -0.10521678 -0.01066764 -0.00835831
v -0.10498206 -0.01196376 -0.00973994
v -0.10503729 -0.01145329 -0.00687680
v -0.06995833 -0.03690107 -0.00265423
v -0.03472748 -0.03833278 -0.00265423
v -0.09091181 -0.01066764 -0.01389704
v -0.03472748 -0.02440649 -0.01309692
v -0.10525822 -0.01066764 -0.01184291
v -0.10500967 -0.01194382 -0.01184291
v -0.10401550 -0.01420505 -0.00973994
v -0.10396027 -0.01420505 -0.00687680
v -0.10494753 -0.01187602 -0.00687680
v -0.05889130 -0.04289910 -0.00265423
v -0.10297301 -0.01624693 -0.00687680
v -0.10274518 -0.01664573 -0.00687680
v -0.10236546 -0.01722799 -0.00687680
v -0.09771910 -0.02109640 -0.00687680
v -0.09666970 -0.02194187 -0.00687680
v -0.09610358 -0.02229282 -0.00687680
v -0.08293084 -0.02963084 -0.00687680
v -0.08188145 -0.03020911 -0.00687680
v -0.08132223 -0.03051619 -0.00687680
v -0.06995833 -0.03686517 -0.00350207
v -0.03472748 -0.05140961 -0.00265423
v -0.09301752 -0.01066764 -0.01395697
v -0.03472748 -0.02471756 -0.01313243
v -0.10516847 -0.01066764 -0.01240887
v -0.10487159 -0.01160882 -0.01319457
v -0.10439522 -0.01299268 -0.01184291
v -0.10284874 -0.01579229 -0.01139124
v -0.10302134 -0.01607145 -0.00973994
v -0.05885678 -0.04287916 -0.00343216
v -0.05826995 -0.04321814 -0.00265423
v -0.09899633 -0.02007945 -0.00973994
v -0.09771220 -0.02112033 -0.00763809
v -0.10226880 -0.01712430 -0.00973994
v -0.10121941 -0.01810536 -0.00973994
v -0.10004573 -0.01915821 -0.00973994
v -0.09666280 -0.02190598 -0.00763809
v -0.09757412 -0.02113230 -0.00973994
v -0.08566481 -0.02787610 -0.01079753
v -0.08289632 -0.02961090 -0.00763809
v -0.08184692 -0.03018917 -0.00763809
v -0.03590806 -0.05127402 -0.00265423
v -0.03623945 -0.05119426 -0.00290503
v -0.03472748 -0.05128598 -0.00334560
v -0.09444663 -0.01066764 -0.01397916
v -0.03472748 -0.02682325 -0.01317460
v -0.03472748 -0.04153917 -0.01332552
v -0.10494064 -0.01066764 -0.01328890
v -0.10355985 -0.01066764 -0.01377719
v -0.10360817 -0.01222697 -0.01337102
v -0.10295920 -0.01365070 -0.01304032
v -0.10092944 -0.01787406 -0.01130024
v -0.05857372 -0.04272363 -0.00553512
v -0.05726887 -0.04367677 -0.00343216
v -0.08275134 -0.02955507 -0.00973994
v -0.08170194 -0.03010542 -0.00973994
v -0.08155696 -0.03002167 -0.01085523
v -0.05726887 -0.04372064 -0.00265423
v -0.09878231 -0.01986010 -0.01124697
v -0.09652472 -0.02175842 -0.00973994
v -0.09634522 -0.02166271 -0.01095400
v -0.09232021 -0.02386411 -0.01105832
v -0.08828831 -0.02606951 -0.01112046
v -0.08460850 -0.02817520 -0.01106830
v -0.03718529 -0.05110253 -0.00265423
v -0.04254965 -0.04876952 -0.00622871
v -0.04137598 -0.04888118 -0.00653722
v -0.03623945 -0.05080741 -0.00395707
v -0.03472748 -0.05093503 -0.00430886
v -0.09655233 -0.01066764 -0.01399137
v -0.03472748 -0.04364088 -0.01325450
v -0.03623945 -0.04364088 -0.01326671
v -0.03834515 -0.04364088 -0.01328335
v -0.03623945 -0.04153917 -0.01332885
v -0.10286254 -0.01066764 -0.01385598
v -0.05262251 -0.04069769 -0.01299593
v -0.05823543 -0.03826498 -0.01288052
v -0.09722202 -0.01840845 -0.01246991
v -0.09711846 -0.02054206 -0.01147225
v -0.09942438 -0.01850815 -0.01173970
v -0.05380309 -0.04453420 -0.00799542
v -0.05726887 -0.04337368 -0.00553512
v -0.05534958 -0.04428694 -0.00553512
v -0.05563264 -0.04443849 -0.00343216
v -0.05673037 -0.04398385 -0.00265423
v -0.08040400 -0.03028089 -0.01110493
v -0.05036493 -0.04486920 -0.01093735
v -0.05176643 -0.04457807 -0.01059777
v -0.05240159 -0.04488914 -0.00919506
v -0.09091181 -0.02425494 -0.01132576
v -0.08235782 -0.02895287 -0.01128692
v -0.03770308 -0.05099884 -0.00265423
v -0.04045085 -0.05018528 -0.00343216
v -0.04254965 -0.04914838 -0.00517778
v -0.04787950 -0.04681936 -0.00873673
v -0.03997448 -0.04898487 -0.00675251
v -0.04675416 -0.04691906 -0.00893649
v -0.03472748 -0.05091509 -0.00434992
v -0.09865804 -0.01066764 -0.01397583
v -0.03834515 -0.04153917 -0.01333329
v -0.04045085 -0.04153917 -0.01333551
v -0.04045085 -0.04364088 -0.01328557
v -0.03472748 -0.04467379 -0.01309692
v -0.03472748 -0.04506062 -0.01303255
v -0.03834515 -0.04496092 -0.01305808
v -0.10142652 -0.01066764 -0.01394920
v -0.04675416 -0.04153917 -0.01324007
v -0.04675416 -0.04294696 -0.01305475
v -0.04814185 -0.04272363 -0.01297041
v -0.05402402 -0.04038264 -0.01287608
v -0.08040400 -0.02892097 -0.01178187
v -0.05308508 -0.04499283 -0.00743278
v -0.05412067 -0.04469373 -0.00659493
v -0.05430017 -0.04477349 -0.00553512
v -0.05115888 -0.04642055 -0.00343216
v -0.04964691 -0.04716632 -0.00265423
v -0.05244301 -0.04592204 -0.00265423
v -0.05402402 -0.04521616 -0.00265423
v -0.05570167 -0.04446241 -0.00265423
v -0.05523221 -0.04167875 -0.01157213
v -0.05306437 -0.04318624 -0.01123477
v -0.05102770 -0.04378445 -0.01148890
v -0.04884606 -0.04350927 -0.01228236
v -0.04362667 -0.04469771 -0.01289938
v -0.04885986 -0.04508854 -0.01115154
v -0.04675416 -0.04635275 -0.00998741
v -0.04869417 -0.04615335 -0.00955794
v -0.05102770 -0.04522015 -0.00983427
v -0.04927410 -0.04658007 -0.00763809
v -0.05096557 -0.04589812 -0.00763809
v -0.04183855 -0.05014141 -0.00265423
v -0.04254965 -0.04975457 -0.00343216
v -0.04822470 -0.04696691 -0.00763809
v -0.04397877 -0.04899684 -0.00475719
v -0.04254965 -0.04996593 -0.00265423
v -0.04538027 -0.04881339 -0.00388826
v -0.04465536 -0.04708257 -0.00923501
v -0.03834515 -0.04910052 -0.00696003
v -0.03472748 -0.05009754 -0.00593130
v -0.10075684 -0.01066764 -0.01395919
v -0.04045085 -0.04491705 -0.01305919
v -0.04254965 -0.04364088 -0.01320234
v -0.03472748 -0.04581038 -0.01262860
v -0.04254965 -0.04479741 -0.01297817
v -0.05322316 -0.04145542 -0.01239667
v -0.04969524 -0.04670370 -0.00594351
v -0.05306437 -0.04530788 -0.00553512
v -0.04656775 -0.04844250 -0.00328456
v -0.05010948 -0.04688317 -0.00343216
v -0.04591188 -0.04881339 -0.00265423
v -0.04254965 -0.04570270 -0.01184291
v -0.04446205 -0.04530788 -0.01193501
v -0.04675416 -0.04530390 -0.01141898
v -0.04465536 -0.04650829 -0.01028705
v -0.04398568 -0.04953522 -0.00265423
v -0.04551145 -0.04896892 -0.00265423
v -0.04254965 -0.04665186 -0.01053563
v -0.04112744 -0.04674757 -0.01070320
v -0.04254965 -0.04721817 -0.00948470
v -0.03834515 -0.04761697 -0.00973883
v -0.03472748 -0.04807161 -0.00973883
v -0.03472748 -0.04916833 -0.00768248
v -0.03472748 -0.04610949 -0.01240777
v -0.03472748 -0.04687120 -0.01165314
v -0.03472748 -0.04715037 -0.01135573
v -0.03972594 -0.04683531 -0.01085634
v -0.03623945 -0.04705466 -0.01120591
v -0.03472748 -0.04783631 -0.01015499
f 1 2 3
f 1 3 4
f 1 4 5
f 1 5 16
f 1 16 15
f 1 15 14
f 1 14 13
f 1 13 12
f 1 12 23
f 1 23 42
f 1 42 64
f 1 64 89
f 1 89 118
f 1 118 159
f 1 159 125
f 1 125 94
f 1 94 68
f 1 68 67
f 1 67 44
f 1 44 25
f 1 25 18
f 1 18 6
f 1 6 7
f 1 7 8
f 1 8 9
f 1 9 2
f 2 9 3
f 3 9 10
f 3 10 11
f 3 11 4
f 4 12 13
f 4 13 14
f 4 14 15
f 4 15 16
f 4 16 5
f 4 11 17
f 4 17 12
f 6 18 19
f 6 19 20
f 6 20 21
f 6 21 7
f 7 21 30
f 7 30 50
f 7 50 77
f 7 77 104
f 7 104 138
f 7 138 137
f 7 137 136
f 7 136 135
f 7 135 169
f 7 169 175
f 7 175 174
f 7 174 154
f 7 154 150
f 7 150 111
f 7 111 84
f 7 84 61
f 7 61 41
f 7 41 22
f 7 22 8
f 8 22 41
f 8 41 63
f 8 63 88
f 8 88 117
f 8 117 158
f 8 158 181
f 8 181 180
f 8 180 187
f 8 187 184
f 8 184 183
f 8 183 182
f 8 182 162
f 8 162 123
f 8 123 122
f 8 122 90
f 8 90 66
f 8 66 65
f 8 65 43
f 8 43 24
f 8 24 17
f 8 17 11
f 8 11 10
f 8 10 9
f 12 17 23
f 17 24 23
f 18 25 19
f 19 25 26
f 19 26 27
f 19 27 28
f 19 28 29
f 19 29 20
f 20 29 21
f 21 29 28
f 21 28 31
f 21 31 32
f 21 32 33
f 21 33 34
f 21 34 35
f 21 35 36
f 21 36 37
f 21 37 38
f 21 38 39
f 21 39 40
f 21 40 30
f 23 24 43
f 23 43 42
f 25 44 45
f 25 45 26
f 26 45 46
f 26 46 47
f 26 47 48
f 26 48 27
f 27 48 31
f 27 31 28
f 30 49 50
f 30 40 49
f 31 48 32
f 32 48 33
f 33 51 52
f 33 52 34
f 33 48 53
f 33 53 54
f 33 54 55
f 33 55 51
f 34 52 35
f 35 56 36
f 35 52 51
f 35 51 57
f 35 57 56
f 36 56 58
f 36 58 59
f 36 59 37
f 37 59 60
f 37 60 38
f 38 60 39
f 39 60 40
f 40 60 49
f 41 61 62
f 41 62 63
f 42 43 65
f 42 65 66
f 42 66 64
f 44 67 45
f 45 67 68
f 45 68 69
f 45 69 70
f 45 70 71
f 45 71 47
f 45 47 46
f 47 71 53
f 47 53 48
f 49 72 73
f 49 73 50
f 49 60 74
f 49 74 75
f 49 75 76
f 49 76 72
f 50 73 77
f 51 55 78
f 51 78 57
f 53 71 54
f 54 71 78
f 54 78 55
f 56 79 58
f 56 57 79
f 57 78 80
f 57 80 79
f 58 79 80
f 58 80 81
f 58 81 82
f 58 82 83
f 58 83 76
f 58 76 75
f 58 75 74
f 58 74 59
f 59 74 60
f 61 84 62
f 62 84 85
f 62 85 86
f 62 86 87
f 62 87 88
f 62 88 63
f 64 66 89
f 66 90 91
f 66 91 92
f 66 92 93
f 66 93 89
f 68 94 95
f 68 95 96
f 68 96 69
f 69 96 70
f 70 97 98
f 70 98 99
f 70 99 78
f 70 78 71
f 70 96 97
f 72 100 101
f 72 101 73
f 72 76 100
f 73 101 102
f 73 102 103
f 73 103 104
f 73 104 77
f 76 83 105
f 76 105 106
f 76 106 107
f 76 107 108
f 76 108 100
f 78 99 98
f 78 98 80
f 80 98 81
f 81 98 82
f 82 98 109
f 82 109 83
f 83 110 105
f 83 109 110
f 84 111 112
f 84 112 113
f 84 113 85
f 85 113 114
f 85 114 86
f 86 115 88
f 86 88 87
f 86 114 116
f 86 116 115
f 88 115 117
f 89 93 119
f 89 119 120
f 89 120 121
f 89 121 118
f 90 122 91
f 91 122 92
f 92 119 93
f 92 122 123
f 92 123 124
f 92 124 121
f 92 121 120
f 92 120 119
f 94 125 95
f 95 126 127
f 95 127 128
f 95 128 129
f 95 129 96
f 95 125 126
f 96 129 105
f 96 105 110
f 96 110 130
f 96 130 97
f 97 130 110
f 97 110 109
f 97 109 98
f 100 108 131
f 100 131 132
f 100 132 101
f 101 132 102
f 102 132 133
f 102 133 103
f 103 133 134
f 103 134 135
f 103 135 136
f 103 136 137
f 103 137 138
f 103 138 104
f 105 129 139
f 105 139 140
f 105 140 106
f 106 140 141
f 106 141 142
f 106 142 143
f 106 143 144
f 106 144 145
f 106 145 146
f 106 146 107
f 107 146 147
f 107 147 108
f 108 147 114
f 108 114 148
f 108 148 149
f 108 149 131
f 111 150 151
f 111 151 112
f 112 151 114
f 112 114 113
f 114 152 148
f 114 147 146
f 114 146 145
f 114 145 116
f 114 151 153
f 114 153 154
f 114 154 155
f 114 155 152
f 115 116 156
f 115 156 157
f 115 157 117
f 116 145 156
f 117 157 158
f 118 121 159
f 121 124 160
f 121 160 161
f 121 161 126
f 121 126 125
f 121 125 159
f 123 162 124
f 124 162 160
f 126 161 127
f 127 161 163
f 127 163 143
f 127 143 128
f 128 142 129
f 128 143 142
f 129 142 141
f 129 141 164
f 129 164 139
f 131 149 132
f 132 149 165
f 132 165 166
f 132 166 133
f 133 166 167
f 133 167 168
f 133 168 134
f 134 168 169
f 134 169 135
f 139 164 140
f 140 164 141
f 143 163 170
f 143 170 171
f 143 171 172
f 143 172 144
f 144 172 145
f 145 172 173
f 145 173 156
f 148 152 155
f 148 155 167
f 148 167 149
f 149 167 165
f 150 154 151
f 151 154 153
f 154 174 155
f 155 174 175
f 155 175 169
f 155 169 167
f 156 173 176
f 156 176 177
f 156 177 178
f 156 178 157
f 157 178 179
f 157 179 180
f 157 180 181
f 157 181 158
f 160 163 161
f 160 162 182
f 160 182 183
f 160 183 163
f 163 183 184
f 163 184 170
f 165 167 166
f 167 169 168
f 170 185 177
f 170 177 176
f 170 176 173
f 170 173 172
f 170 172 171
f 170 184 186
f 170 186 185
f 177 185 180
f 177 180 179
f 177 179 178
f 180 185 187
f 184 187 186
f 185 186 187

