# https://github.com/mikedh/trimesh
v 0.08457935 -0.06891320 -0.00709573
v 0.08457935 -0.06970692 -0.00708529
v 0.08401733 -0.07137059 -0.00246273
v 0.08457935 -0.06360719 -0.00709573
v 0.08556288 -0.07005565 -0.00709573
v 0.08457935 -0.06987691 -0.00670052
v 0.08575310 -0.07012440 -0.00709573
v 0.08401733 -0.06556085 -0.00246273
v 0.08457935 -0.07042064 -0.00546140
v 0.08457935 -0.07078562 -0.00462532
v 0.08457935 -0.07128185 -0.00344228
v 0.08446262 -0.07159683 -0.00246273
v 0.08401733 -0.07164808 -0.00138534
v 0.08401733 -0.06176727 0.00622937
v 0.09882865 -0.06043483 0.00622937
v 0.10257471 -0.06250224 -0.00709573
v 0.08575310 -0.07080937 -0.00553313
v 0.08585686 -0.07015815 -0.00709573
v 0.08567096 -0.07168808 -0.00345663
v 0.08457935 -0.07150183 -0.00284359
v 0.08631944 -0.07219056 -0.00277316
v 0.08491656 -0.07196432 -0.00192404
v 0.08401733 -0.07170308 -0.00107752
v 0.08401733 -0.06800324 0.00622937
v 0.10036987 -0.06057733 0.00622937
v 0.10376576 -0.06141229 0.00145550
v 0.10427374 -0.06293097 -0.00709573
v 0.08776555 -0.07074062 -0.00709573
v 0.08664584 -0.07232305 -0.00246273
v 0.08618542 -0.07221805 -0.00246273
v 0.08580714 -0.07210806 -0.00246273
v 0.08785634 -0.07138559 -0.00553313
v 0.08785634 -0.07192057 -0.00419619
v 0.08785634 -0.07232055 -0.00314489
v 0.08462042 -0.07207681 -0.00052187
v 0.08567312 -0.07232305 -0.00126404
v 0.08401733 -0.07149184 0.00040942
v 0.08462042 -0.07207681 -0.00019709
v 0.08401733 -0.06959192 0.00371852
v 0.08414270 -0.06804824 0.00622937
v 0.10100107 -0.06067482 0.00622937
v 0.10376576 -0.06141229 0.00213506
v 0.10609813 -0.06318721 -0.00343054
v 0.10584738 -0.06342970 -0.00477923
v 0.10427374 -0.06411592 -0.00709573
v 0.08994878 -0.07110686 -0.00709573
v 0.08785634 -0.07250304 -0.00246273
v 0.08785634 -0.07280678 -0.00132665
v 0.08917708 -0.07201181 -0.00440749
v 0.08991203 -0.07237055 -0.00359619
v 0.08993581 -0.07270178 -0.00246273
v 0.08995958 -0.07303177 -0.00132665
v 0.08401733 -0.07035314 0.00251201
v 0.08575310 -0.07227930 0.00019290
v 0.08575310 -0.07171682 0.00124420
v 0.08492737 -0.06985566 0.00380591
v 0.08456205 -0.06819574 0.00622937
v 0.10161928 -0.06127729 0.00622937
v 0.10578038 -0.06351594 -0.00019318
v 0.10604626 -0.06325221 -0.00132665
v 0.10163874 -0.06129105 0.00621633
v 0.10607435 -0.06321721 -0.00246273
v 0.10609813 -0.06407092 -0.00343054
v 0.10584738 -0.06377343 -0.00477923
v 0.10465850 -0.06520337 -0.00357272
v 0.10271954 -0.06524212 -0.00709573
v 0.09046324 -0.07107810 -0.00709573
v 0.09132139 -0.07207931 -0.00460053
v 0.09057996 -0.07207931 -0.00460053
v 0.08991203 -0.07173308 -0.00539357
v 0.08995958 -0.07274053 0.00077464
v 0.09206282 -0.07320426 -0.00132665
v 0.09206282 -0.07296427 0.00077464
v 0.08567961 -0.07061812 0.00301418
v 0.08737214 -0.07194557 0.00167332
v 0.08798604 -0.07243805 0.00089333
v 0.08909927 -0.06990066 0.00597894
v 0.08785634 -0.06970192 0.00566329
v 0.08633025 -0.07010065 0.00419200
v 0.08678635 -0.06897195 0.00622937
v 0.10163009 -0.06130354 0.00622937
v 0.10578038 -0.06379968 -0.00019318
v 0.10178140 -0.06257599 0.00622937
v 0.10411162 -0.06467839 0.00261505
v 0.10604626 -0.06408967 -0.00132665
v 0.10164522 -0.06141729 0.00622937
v 0.10607435 -0.06407967 -0.00246273
v 0.10527023 -0.06514213 -0.00132665
v 0.10421969 -0.06614708 -0.00132665
v 0.10402947 -0.06600583 -0.00246273
v 0.10394517 -0.06594333 -0.00296490
v 0.10242556 -0.06544336 -0.00709573
v 0.09210174 -0.07080187 -0.00709573
v 0.09203905 -0.07161183 -0.00539357
v 0.09272428 -0.07197557 -0.00436967
v 0.09203905 -0.07241930 -0.00357272
v 0.08995958 -0.07213056 0.00200723
v 0.08877287 -0.07205681 0.00186506
v 0.09376185 -0.07234055 -0.00296750
v 0.09395640 -0.07244055 -0.00246273
v 0.09434332 -0.07263304 -0.00148056
v 0.09432819 -0.07255429 0.00093637
v 0.09373375 -0.07220680 0.00213375
v 0.09206282 -0.07224305 0.00220941
v 0.09050215 -0.07001441 0.00618763
v 0.08929165 -0.06978941 0.00622937
v 0.08779582 -0.06932194 0.00622937
v 0.10395814 -0.06614208 0.00237375
v 0.10182463 -0.06467839 0.00622937
v 0.10264173 -0.06467839 0.00498112
v 0.10346097 -0.06467839 0.00366635
v 0.10224183 -0.06681205 0.00507895
v 0.10168845 -0.06613208 0.00621372
v 0.10423050 -0.06629707 0.00077464
v 0.10210132 -0.06825574 0.00287723
v 0.10296813 -0.06734702 0.00077464
v 0.10191975 -0.06810449 0.00077464
v 0.09929124 -0.06984441 0.00029203
v 0.10170791 -0.06795824 -0.00087405
v 0.10247528 -0.06730953 -0.00147534
v 0.10148959 -0.06780700 -0.00227621
v 0.10274764 -0.06651831 -0.00357272
v 0.10176411 -0.06588959 -0.00709573
v 0.09515824 -0.07200931 -0.00228534
v 0.09763112 -0.07014190 -0.00294924
v 0.09277400 -0.07055188 -0.00709573
v 0.08995958 -0.07158558 0.00305853
v 0.09363864 -0.07018690 -0.00709573
v 0.09434332 -0.07174558 -0.00357272
v 0.09505016 -0.07197307 -0.00246273
v 0.09547384 -0.07221431 -0.00088318
v 0.09547384 -0.07221431 0.00034290
v 0.09513447 -0.07201432 0.00174506
v 0.09339005 -0.07001190 0.00616807
v 0.09206282 -0.07006440 0.00622937
v 0.09206282 -0.07074187 0.00498112
v 0.09206282 -0.07167558 0.00325940
v 0.09760518 -0.07001565 0.00407200
v 0.09432819 -0.07163558 0.00285114
v 0.09056051 -0.06999440 0.00622937
v 0.09046973 -0.06998441 0.00622937
v 0.10195001 -0.06815949 0.00444373
v 0.10169494 -0.06597084 0.00622937
v 0.10124533 -0.06753327 0.00584590
v 0.10164955 -0.06615458 0.00622937
v 0.10028125 -0.06936319 0.00272984
v 0.09945119 -0.06995441 0.00193028
v 0.09945119 -0.06995441 0.00169550
v 0.10043256 -0.06730578 -0.00563357
v 0.09722474 -0.06988691 -0.00435141
v 0.09928907 -0.06776450 -0.00640052
v 0.10053848 -0.06664830 -0.00709573
v 0.09368619 -0.07016439 -0.00709573
v 0.09428063 -0.07065563 -0.00565835
v 0.09505665 -0.06985691 -0.00644226
v 0.09637739 -0.06886320 -0.00709573
v 0.09789700 -0.06812324 -0.00709573
v 0.09900806 -0.06981816 0.00333244
v 0.10051470 -0.06849072 0.00507895
v 0.09344409 -0.06996190 0.00622937
v 0.09242598 -0.07004065 0.00622937
v 0.09833148 -0.06936443 0.00485590
v 0.09479293 -0.06981441 0.00582111
v 0.09412068 -0.07043439 0.00506460
v 0.09990513 -0.06799575 0.00622937
v 0.10088650 -0.06717953 0.00622937
v 0.09888269 -0.06761701 -0.00709573
v 0.09428063 -0.06987816 -0.00709573
v 0.09985326 -0.06802324 0.00622937
v 0.09982515 -0.06803324 0.00622937
v 0.09455083 -0.06964942 0.00622937
v 0.09835958 -0.06851447 0.00622937
v 0.09630822 -0.06913320 0.00622937
f 1 2 3
f 1 3 8
f 1 8 4
f 1 4 16
f 1 16 27
f 1 27 45
f 1 45 66
f 1 66 92
f 1 92 123
f 1 123 152
f 1 152 167
f 1 167 157
f 1 157 156
f 1 156 168
f 1 168 153
f 1 153 128
f 1 128 126
f 1 126 93
f 1 93 67
f 1 67 46
f 1 46 28
f 1 28 18
f 1 18 7
f 1 7 5
f 1 5 2
f 2 6 3
f 2 5 7
f 2 7 6
f 3 6 9
f 3 9 10
f 3 10 11
f 3 11 12
f 3 12 13
f 3 13 23
f 3 23 37
f 3 37 53
f 3 53 39
f 3 39 24
f 3 24 14
f 3 14 8
f 4 8 14
f 4 14 15
f 4 15 16
f 6 7 9
f 7 17 9
f 7 18 17
f 9 17 19
f 9 19 10
f 10 19 11
f 11 20 12
f 11 19 21
f 11 21 20
f 12 20 21
f 12 21 22
f 12 22 13
f 13 22 23
f 14 24 40
f 14 40 57
f 14 57 80
f 14 80 107
f 14 107 106
f 14 106 141
f 14 141 140
f 14 140 135
f 14 135 161
f 14 161 160
f 14 160 171
f 14 171 173
f 14 173 172
f 14 172 170
f 14 170 169
f 14 169 165
f 14 165 166
f 14 166 145
f 14 145 143
f 14 143 109
f 14 109 83
f 14 83 86
f 14 86 81
f 14 81 58
f 14 58 41
f 14 41 25
f 14 25 15
f 15 25 26
f 15 26 16
f 16 26 27
f 17 18 21
f 17 21 19
f 18 28 21
f 21 29 30
f 21 30 31
f 21 31 22
f 21 28 32
f 21 32 33
f 21 33 34
f 21 34 29
f 22 35 23
f 22 31 30
f 22 30 36
f 22 36 35
f 23 35 38
f 23 38 37
f 24 39 40
f 25 41 26
f 26 42 43
f 26 43 27
f 26 41 42
f 27 43 44
f 27 44 64
f 27 64 45
f 28 46 32
f 29 36 30
f 29 34 47
f 29 47 48
f 29 48 36
f 32 46 33
f 33 46 34
f 34 46 49
f 34 49 50
f 34 50 51
f 34 51 52
f 34 52 47
f 35 36 38
f 36 48 38
f 37 38 53
f 38 48 54
f 38 54 55
f 38 55 53
f 39 53 56
f 39 56 57
f 39 57 40
f 41 58 42
f 42 59 60
f 42 60 43
f 42 58 61
f 42 61 59
f 43 60 62
f 43 62 87
f 43 87 63
f 43 63 64
f 43 64 44
f 45 64 65
f 45 65 66
f 46 67 68
f 46 68 69
f 46 69 70
f 46 70 49
f 47 52 48
f 48 52 71
f 48 71 54
f 49 70 69
f 49 69 50
f 50 69 72
f 50 72 51
f 51 72 52
f 52 72 73
f 52 73 71
f 53 55 74
f 53 74 56
f 54 75 55
f 54 71 76
f 54 76 75
f 55 75 77
f 55 77 78
f 55 78 74
f 56 74 79
f 56 79 80
f 56 80 57
f 58 81 61
f 59 82 85
f 59 85 60
f 59 61 83
f 59 83 84
f 59 84 82
f 60 85 87
f 60 87 62
f 61 81 86
f 61 86 83
f 63 65 64
f 63 87 88
f 63 88 89
f 63 89 90
f 63 90 91
f 63 91 65
f 65 91 66
f 66 91 92
f 67 93 94
f 67 94 95
f 67 95 68
f 68 95 96
f 68 96 72
f 68 72 69
f 71 97 98
f 71 98 76
f 71 73 97
f 72 96 99
f 72 99 100
f 72 100 101
f 72 101 102
f 72 102 73
f 73 102 103
f 73 103 104
f 73 104 97
f 74 78 79
f 75 76 98
f 75 98 105
f 75 105 77
f 77 105 106
f 77 106 107
f 77 107 78
f 78 107 80
f 78 80 79
f 82 84 108
f 82 108 85
f 83 109 110
f 83 110 111
f 83 111 84
f 84 112 108
f 84 111 113
f 84 113 112
f 85 108 114
f 85 114 88
f 85 88 87
f 88 114 89
f 89 114 115
f 89 115 116
f 89 116 117
f 89 117 118
f 89 118 119
f 89 119 120
f 89 120 121
f 89 121 90
f 90 121 91
f 91 122 123
f 91 123 92
f 91 121 124
f 91 124 125
f 91 125 122
f 93 126 99
f 93 99 95
f 93 95 94
f 95 99 96
f 97 127 98
f 97 104 127
f 98 127 105
f 99 126 128
f 99 128 129
f 99 129 130
f 99 130 124
f 99 124 101
f 99 101 100
f 101 124 131
f 101 131 132
f 101 132 102
f 102 132 133
f 102 133 103
f 103 134 135
f 103 135 136
f 103 136 137
f 103 137 104
f 103 133 138
f 103 138 139
f 103 139 134
f 104 137 105
f 104 105 127
f 105 140 141
f 105 141 106
f 105 137 136
f 105 136 135
f 105 135 140
f 108 112 142
f 108 142 114
f 109 143 110
f 110 143 113
f 110 113 111
f 112 113 144
f 112 144 142
f 113 145 144
f 113 143 145
f 114 142 115
f 115 117 116
f 115 142 146
f 115 146 147
f 115 147 148
f 115 148 117
f 117 148 118
f 118 148 131
f 118 131 119
f 119 131 120
f 120 131 121
f 121 131 124
f 122 125 149
f 122 149 123
f 123 149 125
f 123 125 150
f 123 150 151
f 123 151 152
f 124 130 150
f 124 150 125
f 128 153 154
f 128 154 129
f 129 154 155
f 129 155 156
f 129 156 157
f 129 157 130
f 130 157 150
f 131 148 147
f 131 147 132
f 132 147 158
f 132 158 133
f 133 158 159
f 133 159 138
f 134 160 161
f 134 161 135
f 134 139 160
f 138 162 163
f 138 163 139
f 138 159 162
f 139 163 164
f 139 164 160
f 142 144 165
f 142 165 159
f 142 159 158
f 142 158 147
f 142 147 146
f 144 145 166
f 144 166 165
f 150 157 167
f 150 167 151
f 151 167 152
f 153 168 154
f 154 168 155
f 155 168 156
f 159 165 169
f 159 169 170
f 159 170 162
f 160 164 163
f 160 163 171
f 162 172 173
f 162 173 171
f 162 171 163
f 162 170 172

