# https://github.com/mikedh/trimesh
v 0.03024549 0.06936207 0.01793553
v 0.03053953 0.06936207 0.01634350
v 0.02474178 0.06936207 0.01793553
v 0.02889292 0.03366939 0.01793553
v 0.03287455 0.01196749 -0.00788353
v 0.03063639 0.06936207 0.01580575
v 0.01298022 0.06936207 0.01639303
v 0.01235755 0.06679366 0.01793553
v 0.01605206 0.03094193 0.01793553
v 0.00126710 0.01329293 -0.00902978
v 0.00126710 0.01068328 -0.01820690
v 0.03463186 0.00918701 -0.01820690
v 0.03463532 0.00923413 -0.01820690
v 0.01266889 0.02640597 0.01356277
v 0.00126710 0.01731049 -0.00246712
v 0.03088200 0.06936207 0.01444015
v 0.01149619 0.06936207 0.01591543
v 0.01086660 0.06936207 0.01571023
v 0.00126710 0.06936207 0.01148607
v 0.00126710 0.05510621 0.01793553
v 0.00126710 0.02982266 0.01793553
v 0.00126710 0.06936207 -0.01820690
v 0.03660711 0.06936207 -0.01820690
f 1 2 6
f 1 6 16
f 1 16 23
f 1 23 22
f 1 22 19
f 1 19 18
f 1 18 17
f 1 17 7
f 1 7 3
f 1 3 8
f 1 8 20
f 1 20 21
f 1 21 9
f 1 9 4
f 1 4 5
f 1 5 2
f 2 5 6
f 3 7 8
f 4 9 5
f 5 10 11
f 5 11 12
f 5 12 13
f 5 13 6
f 5 9 14
f 5 14 15
f 5 15 10
f 6 13 16
f 7 17 8
f 8 17 18
f 8 18 19
f 8 19 20
f 9 21 14
f 10 15 21
f 10 21 20
f 10 20 19
f 10 19 22
f 10 22 11
f 11 22 23
f 11 23 13
f 11 13 12
f 13 23 16
f 14 21 15

