# https://github.com/mikedh/trimesh
v -0.00487352 0.00596115 -0.05289988
v 0.01048442 0.00596115 -0.05038324
v -0.00487352 0.00596115 -0.04082612
v -0.00487352 0.00933099 -0.05286931
v 0.04535155 0.00596115 -0.04466051
v -0.00487352 0.01602537 -0.05280479
v -0.00487352 0.06949887 -0.05228855
v 0.03997598 0.00596115 -0.02104619
v 0.00288233 0.00754643 -0.02730553
v -0.00487352 0.00852477 -0.02558702
v 0.05044808 0.00596115 -0.04382163
v 0.05330100 0.09709166 -0.04246991
v -0.00487352 0.09850482 -0.05200666
v 0.04014682 0.00596115 -0.02101902
v -0.00487352 0.01096156 -0.01820691
v 0.04976475 0.00596115 -0.03995327
v 0.04743002 0.03570086 -0.02096468
v -0.00487352 0.09674743 -0.02826329
v 0.04395071 0.09507157 -0.01820691
v 0.04868850 0.09489040 -0.01944995
v 0.04036890 0.00596115 -0.02098846
v 0.03462890 0.00918605 -0.01820691
v -0.00487352 0.09584156 -0.01820691
v 0.04616016 0.00596115 -0.02044166
v -0.00487352 0.09623109 -0.02249980
v 0.03463459 0.00923135 -0.01820691
f 1 2 5
f 1 5 11
f 1 11 16
f 1 16 24
f 1 24 21
f 1 21 14
f 1 14 8
f 1 8 3
f 1 3 10
f 1 10 15
f 1 15 23
f 1 23 25
f 1 25 18
f 1 18 13
f 1 13 7
f 1 7 6
f 1 6 4
f 1 4 2
f 2 4 6
f 2 6 7
f 2 7 5
f 3 8 9
f 3 9 10
f 5 7 12
f 5 12 11
f 7 13 12
f 8 10 9
f 8 14 15
f 8 15 10
f 11 12 17
f 11 17 16
f 12 13 18
f 12 18 19
f 12 19 20
f 12 20 17
f 14 21 15
f 15 22 26
f 15 26 19
f 15 19 23
f 15 21 24
f 15 24 22
f 16 17 24
f 17 20 24
f 18 25 19
f 19 25 23
f 19 26 24
f 19 24 20
f 22 24 26

