# https://github.com/mikedh/trimesh
v -0.01051825 -0.03795250 0.03030017
v -0.01209137 -0.02539039 0.03936688
v -0.00241262 -0.00490594 0.04256378
v -0.00584226 -0.03795250 0.03049915
v -0.01757705 -0.03795250 0.04588006
v -0.01659675 -0.01391626 0.05346107
v -0.01577837 0.00024228 0.05906558
v 0.00295161 -0.02305743 0.04168828
v 0.00431652 -0.03795250 0.03478378
v -0.00246757 0.00024228 0.04961419
v 0.00106617 0.00024228 0.05339474
v -0.01826530 -0.03795250 0.05009173
v -0.02086210 0.00024228 0.08430910
v 0.00587807 0.00024228 0.06603640
v 0.00601977 -0.03795250 0.04320713
v -0.02083029 -0.03795250 0.06987665
v -0.02120622 -0.02159933 0.07736481
v -0.02120912 -0.00115600 0.08607999
v -0.02263476 -0.00019142 0.09805176
v -0.02258271 0.00024228 0.09805176
v 0.00543274 0.00024228 0.07378986
v 0.00615279 -0.02038425 0.05998088
v 0.00633787 -0.03795250 0.05151773
v -0.01839832 -0.03795250 0.08274382
v -0.02294707 -0.02413045 0.09805176
v -0.02320443 -0.01103370 0.09805176
v -0.02266078 -0.00066623 0.09805176
v 0.00238193 0.00024228 0.09805176
v 0.00443797 0.00024228 0.08197444
v 0.00380468 -0.02414540 0.07780919
v 0.00406494 -0.03795250 0.06970421
v -0.00693824 -0.03795250 0.08678305
v -0.01919644 -0.02768597 0.09805176
v -0.02002638 -0.02739061 0.09805176
v 0.00162139 -0.01569963 0.09805176
v 0.00017551 -0.02430990 0.09805176
v -0.00060527 -0.02865430 0.09805176
v 0.00131197 -0.03795250 0.08100609
v -0.00539404 -0.02857952 0.09805176
f 1 2 3
f 1 3 4
f 1 4 9
f 1 9 15
f 1 15 23
f 1 23 31
f 1 31 38
f 1 38 32
f 1 32 24
f 1 24 16
f 1 16 12
f 1 12 5
f 1 5 6
f 1 6 2
f 2 6 7
f 2 7 3
f 3 8 9
f 3 9 4
f 3 7 10
f 3 10 11
f 3 11 8
f 5 12 13
f 5 13 6
f 6 13 7
f 7 13 20
f 7 20 28
f 7 28 29
f 7 29 21
f 7 21 14
f 7 14 11
f 7 11 10
f 8 11 14
f 8 14 9
f 9 14 15
f 12 16 17
f 12 17 18
f 12 18 13
f 13 18 19
f 13 19 20
f 14 21 22
f 14 22 23
f 14 23 15
f 16 24 25
f 16 25 26
f 16 26 17
f 17 26 27
f 17 27 18
f 18 27 19
f 19 27 26
f 19 26 25
f 19 25 34
f 19 34 33
f 19 33 39
f 19 39 37
f 19 37 36
f 19 36 35
f 19 35 28
f 19 28 20
f 21 29 22
f 22 29 30
f 22 30 23
f 23 30 31
f 24 32 33
f 24 33 34
f 24 34 25
f 28 35 29
f 29 35 30
f 30 35 31
f 31 35 36
f 31 36 37
f 31 37 38
f 32 37 39
f 32 39 33
f 32 38 37

