# https://github.com/mikedh/trimesh
v 0.04966005 -0.01970787 -0.04419892
v 0.04846284 -0.01970787 -0.03702829
v 0.04718107 -0.03364562 -0.03209740
v 0.04656244 -0.05244074 -0.03209740
v 0.04865421 -0.05244074 -0.04467761
v 0.02804801 -0.04510020 -0.04798952
v 0.02804356 -0.01970787 -0.04774629
v 0.04752821 -0.01970787 -0.03209740
v 0.04728788 -0.02950595 -0.03209740
v 0.03813303 -0.05244074 -0.03209740
v 0.02804801 -0.05244074 -0.04805957
v 0.00419288 -0.05244074 -0.05197472
v 0.00593750 -0.01970787 -0.05137343
v 0.03961508 -0.01970787 -0.03209740
v 0.03631274 -0.04605822 -0.03209740
v 0.00419288 -0.05244074 -0.03921937
v 0.00419288 -0.01970787 -0.05165948
v 0.03650857 -0.04264267 -0.03209740
v 0.00419288 -0.01970787 -0.04587434
v 0.00768213 -0.04359748 -0.03821724
v 0.03633054 -0.04571538 -0.03209740
v 0.00419288 -0.04664456 -0.03894695
f 1 2 3
f 1 3 4
f 1 4 5
f 1 5 6
f 1 6 7
f 1 7 13
f 1 13 17
f 1 17 19
f 1 19 14
f 1 14 8
f 1 8 2
f 2 8 9
f 2 9 3
f 3 9 8
f 3 8 14
f 3 14 18
f 3 18 21
f 3 21 15
f 3 15 10
f 3 10 4
f 4 10 16
f 4 16 12
f 4 12 11
f 4 11 5
f 5 11 6
f 6 11 12
f 6 12 7
f 7 12 13
f 10 15 16
f 12 16 22
f 12 22 19
f 12 19 17
f 12 17 13
f 14 19 20
f 14 20 18
f 15 21 20
f 15 20 22
f 15 22 16
f 18 20 21
f 19 22 20

