# https://github.com/mikedh/trimesh
v 0.03616261 0.00596115 -0.03113600
v 0.03616261 0.00596115 -0.04616682
v 0.02538942 0.00596115 -0.03244983
v 0.03616261 0.00595613 -0.02930878
v 0.03616261 0.00195440 -0.04620649
v 0.02538942 0.00596115 -0.04793570
v -0.00487351 0.00596115 -0.04082984
v 0.03616261 -0.01268594 -0.03313357
v 0.01058733 -0.00768692 -0.03195509
v 0.03616261 -0.01970216 -0.04641418
v -0.00487351 -0.01970216 -0.05314900
v -0.00487351 0.00596115 -0.05290164
v -0.00487351 -0.01501212 -0.03972837
v 0.03616261 -0.01970216 -0.03483245
v -0.00487351 -0.01970216 -0.04277374
f 1 2 6
f 1 6 12
f 1 12 7
f 1 7 3
f 1 3 4
f 1 4 8
f 1 8 14
f 1 14 10
f 1 10 5
f 1 5 2
f 2 5 6
f 3 7 4
f 4 7 9
f 4 9 8
f 5 10 11
f 5 11 6
f 6 11 12
f 7 12 11
f 7 11 15
f 7 15 13
f 7 13 9
f 8 9 14
f 9 13 15
f 9 15 14
f 10 14 15
f 10 15 11

