# https://github.com/mikedh/trimesh
v 0.04558142 -0.00770178 -0.02020357
v 0.04616459 0.00596115 -0.02044474
v 0.04037625 0.00596115 -0.02098868
v 0.04014969 0.00596115 -0.02102203
v 0.04397596 -0.01971258 -0.02043705
v 0.04529893 -0.01971258 -0.02029593
v 0.04976709 0.00596115 -0.03995204
v 0.04452836 -0.05244074 -0.02054994
v 0.04545416 -0.05244074 -0.02544024
v 0.03998327 0.00596115 -0.02104769
v 0.03940850 -0.01971258 -0.02111953
v 0.03867709 -0.05244074 -0.02121447
v 0.03959589 -0.05244074 -0.02107848
v 0.05045096 0.00596115 -0.04382118
v 0.04580378 -0.05244074 -0.02753644
v 0.03616400 0.00596115 -0.03113874
v 0.03616400 0.00595544 -0.02931193
v 0.03631364 -0.04605518 -0.03209576
v 0.03819601 -0.05244074 -0.02610733
v 0.05025517 -0.00024719 -0.04391355
v 0.03616400 -0.01086312 -0.04633047
v 0.03616400 0.00596115 -0.04616626
v 0.04656176 -0.05244074 -0.03209576
v 0.04965801 -0.01970687 -0.04419577
v 0.03616400 -0.01269247 -0.03313488
v 0.03616400 -0.01970687 -0.04641258
v 0.03813587 -0.05244074 -0.03209576
v 0.03616400 -0.01735158 -0.03425867
v 0.03616400 -0.01970687 -0.03482827
f 1 2 3
f 1 3 4
f 1 4 5
f 1 5 6
f 1 6 2
f 2 7 14
f 2 14 22
f 2 22 16
f 2 16 10
f 2 10 4
f 2 4 3
f 2 6 8
f 2 8 9
f 2 9 7
f 4 10 11
f 4 11 5
f 5 11 12
f 5 12 13
f 5 13 8
f 5 8 6
f 7 9 14
f 8 13 12
f 8 12 19
f 8 19 27
f 8 27 23
f 8 23 15
f 8 15 9
f 9 15 14
f 10 16 17
f 10 17 11
f 11 17 12
f 12 18 19
f 12 17 18
f 14 20 21
f 14 21 22
f 14 15 23
f 14 23 24
f 14 24 20
f 16 22 21
f 16 21 26
f 16 26 29
f 16 29 28
f 16 28 25
f 16 25 17
f 17 25 18
f 18 26 27
f 18 27 19
f 18 25 28
f 18 28 29
f 18 29 26
f 20 24 21
f 21 24 26
f 23 26 24
f 23 27 26

