# https://github.com/mikedh/trimesh
v -0.02254891 0.01059588 -0.02228919
v -0.02254891 0.09681387 -0.02674068
v -0.02924853 0.09707410 -0.02951932
v -0.03500778 -0.06192742 -0.02909401
v -0.02358197 -0.05934137 -0.02970362
v -0.02254891 -0.01968857 -0.04228192
v -0.02254891 0.09767589 -0.03814231
v -0.02824474 0.09905837 -0.05583486
v -0.03308559 0.02433936 -0.05735178
v -0.03132440 0.04252305 -0.03002259
v -0.03385276 -0.01968857 -0.05789757
v -0.03467481 -0.06703447 -0.05849300
v -0.03418085 -0.06470865 -0.04098120
v -0.02358197 -0.06472491 -0.03708969
v -0.02358197 -0.06709953 -0.05666775
v -0.02254891 -0.01968857 -0.05604397
v -0.02254891 0.09892825 -0.05489920
v -0.02254891 0.09185320 -0.05497009
v -0.02254891 0.04120563 -0.05546273
v -0.03385154 -0.01968857 -0.05790112
v -0.02254891 0.00791224 -0.05578170
v -0.02358197 -0.03252125 -0.05633813
f 1 2 3
f 1 3 4
f 1 4 5
f 1 5 6
f 1 6 16
f 1 16 21
f 1 21 19
f 1 19 18
f 1 18 17
f 1 17 7
f 1 7 2
f 2 7 8
f 2 8 3
f 3 8 9
f 3 9 10
f 3 10 4
f 4 11 12
f 4 12 13
f 4 13 14
f 4 14 5
f 4 10 9
f 4 9 11
f 5 14 6
f 6 14 15
f 6 15 16
f 7 17 8
f 8 17 18
f 8 18 19
f 8 19 9
f 9 19 12
f 9 12 20
f 9 20 11
f 11 20 12
f 12 19 21
f 12 21 22
f 12 22 15
f 12 15 14
f 12 14 13
f 15 22 21
f 15 21 16

