# https://github.com/mikedh/trimesh
v -0.02358029 -0.05678226 -0.05657198
v -0.02358029 -0.05678226 -0.03736192
v -0.02358029 -0.01969795 -0.05621659
v -0.02357213 -0.04679861 -0.05647608
v -0.01001178 -0.05678226 -0.05434560
v -0.02358029 -0.01969795 -0.04224341
v 0.00419288 -0.05678226 -0.03942471
v 0.00419016 -0.04663095 -0.03894709
v -0.00487364 0.09759091 -0.03969925
v -0.01456271 0.09771285 -0.03969925
v -0.02254722 0.09780430 -0.03969925
v -0.02254722 0.09893223 -0.05490408
v -0.02254722 0.02122741 -0.05565623
v -0.02254722 -0.01969795 -0.05604923
v 0.00419288 -0.05678226 -0.05201392
v 0.00419288 -0.04681385 -0.03895649
v 0.00419288 -0.01969795 -0.04587821
v -0.00487364 0.09849020 -0.05200452
v -0.00487364 0.06948427 -0.05228658
v -0.00487364 0.01602981 -0.05280556
v -0.00487364 -0.00748893 -0.05303121
v 0.00419288 -0.01969795 -0.05165853
f 1 2 6
f 1 6 3
f 1 3 4
f 1 4 5
f 1 5 15
f 1 15 7
f 1 7 2
f 2 7 8
f 2 8 9
f 2 9 10
f 2 10 11
f 2 11 6
f 3 6 12
f 3 12 13
f 3 13 4
f 4 13 14
f 4 14 5
f 5 14 15
f 6 11 12
f 7 16 8
f 7 15 22
f 7 22 17
f 7 17 16
f 8 16 17
f 8 17 9
f 9 17 18
f 9 18 12
f 9 12 10
f 10 12 11
f 12 18 19
f 12 19 20
f 12 20 13
f 13 20 14
f 14 20 21
f 14 21 15
f 15 21 22
f 17 22 18
f 18 22 19
f 19 22 20
f 20 22 21

