# https://github.com/mikedh/trimesh
v -0.01301085 0.04843491 0.03439790
v 0.00126537 0.02982916 0.01793279
v 0.00126537 0.05509402 0.01793279
v 0.00126294 0.09195554 0.01042557
v -0.01301085 0.04889840 0.03418030
v -0.02101440 0.09183257 0.01594538
v -0.02144835 0.08454918 0.01793279
v -0.02364000 0.04758361 0.02799319
v -0.01019509 0.02480646 0.01793279
v -0.00975871 0.02461728 0.01793279
v -0.00738910 0.02410649 0.01793279
v -0.00170396 0.02672662 0.01793279
v 0.00126294 0.01330437 -0.00902791
v 0.00126537 0.02191202 0.00442705
v 0.00126537 0.06437324 0.01136126
v 0.00126294 0.09333655 0.00852520
v -0.01397868 0.09379057 0.00598653
v -0.02254539 0.09681744 -0.02672609
v -0.02254539 0.00116854 -0.03968783
v -0.02334745 0.03917460 0.01793279
v -0.02254539 0.09780117 -0.03968783
v -0.02295008 0.02795629 0.00449959
v -0.02295008 0.02790899 0.00442705
v -0.02254539 0.01058966 -0.02227979
v 0.00126294 0.01070316 -0.01819615
v 0.00126537 0.06437324 0.00442705
v 0.00126294 0.09572966 -0.01819615
v -0.00487564 0.09674177 -0.02825655
v -0.01736002 0.09604181 -0.01819615
v -0.01831079 0.09665664 -0.02497078
v -0.00487564 0.00666419 -0.03968783
v -0.02295252 0.02791845 0.00441255
v -0.01245745 0.09767820 -0.03968783
v -0.00487564 0.09758361 -0.03968783
f 1 2 3
f 1 3 4
f 1 4 5
f 1 5 6
f 1 6 7
f 1 7 8
f 1 8 9
f 1 9 10
f 1 10 11
f 1 11 12
f 1 12 2
f 2 12 13
f 2 13 14
f 2 14 26
f 2 26 15
f 2 15 3
f 3 15 4
f 4 15 16
f 4 16 6
f 4 6 5
f 6 16 17
f 6 17 18
f 6 18 7
f 7 18 8
f 8 19 20
f 8 20 9
f 8 18 21
f 8 21 19
f 9 20 22
f 9 22 23
f 9 23 24
f 9 24 19
f 9 19 10
f 10 19 11
f 11 19 13
f 11 13 12
f 13 19 25
f 13 25 14
f 14 25 27
f 14 27 26
f 15 26 27
f 15 27 16
f 16 27 28
f 16 28 29
f 16 29 17
f 17 29 18
f 18 29 30
f 18 30 21
f 19 31 25
f 19 24 23
f 19 23 32
f 19 32 20
f 19 21 33
f 19 33 34
f 19 34 31
f 20 32 23
f 20 23 22
f 21 30 28
f 21 28 33
f 25 31 34
f 25 34 27
f 27 34 28
f 28 34 33
f 28 30 29

