# https://github.com/mikedh/trimesh
v 0.03710493 0.08743010 -0.01820690
v 0.03700320 0.08148287 -0.01820690
v 0.00126710 0.08743010 -0.01820690
v 0.03082560 0.08743010 0.01793553
v 0.03076946 0.08469257 0.01793553
v 0.03088172 0.06936384 0.01444015
v 0.03660329 0.06936384 -0.01820690
v 0.00126710 0.06936384 -0.01820690
v 0.00126710 0.08743010 0.01063345
v 0.02335353 0.08743010 0.01793553
v 0.03047830 0.07580269 0.01793553
v 0.03038709 0.07312882 0.01793553
v 0.03063616 0.06936384 0.01580575
v 0.00126710 0.06936384 0.01148253
v 0.00126710 0.07624302 0.01164527
v 0.01086852 0.06936384 0.01570670
v 0.02271157 0.08601889 0.01793553
v 0.03024326 0.06936384 0.01793553
v 0.03053794 0.06936384 0.01634350
v 0.01149646 0.06936384 0.01591189
v 0.02474270 0.06936384 0.01793553
v 0.01297684 0.06936384 0.01638950
f 1 2 7
f 1 7 8
f 1 8 3
f 1 3 9
f 1 9 10
f 1 10 4
f 1 4 2
f 2 4 5
f 2 5 6
f 2 6 7
f 3 8 14
f 3 14 15
f 3 15 9
f 4 10 17
f 4 17 21
f 4 21 18
f 4 18 12
f 4 12 11
f 4 11 5
f 5 11 6
f 6 11 12
f 6 12 13
f 6 13 19
f 6 19 18
f 6 18 21
f 6 21 22
f 6 22 20
f 6 20 16
f 6 16 14
f 6 14 8
f 6 8 7
f 9 15 16
f 9 16 17
f 9 17 10
f 12 18 19
f 12 19 13
f 14 16 15
f 16 20 17
f 17 20 22
f 17 22 21

