# https://github.com/mikedh/trimesh
v -0.02358029 -0.06709646 -0.05667266
v 0.03321906 -0.06734108 -0.04735204
v 0.00420069 -0.06721657 -0.05211135
v 0.04420701 -0.06596414 -0.02065247
v -0.02358029 -0.06473074 -0.03708732
v -0.02358029 -0.05678546 -0.05657012
v 0.00420069 -0.05244075 -0.05196991
v 0.03493725 -0.05244075 -0.04692772
v 0.04819491 -0.06740407 -0.04489458
v 0.04865451 -0.05244075 -0.04467536
v 0.04545146 -0.05244075 -0.02544361
v 0.04452519 -0.05244075 -0.02054993
v 0.03848677 -0.06067021 -0.02123943
v 0.03321906 -0.06050908 -0.02195368
v -0.02358029 -0.05877178 -0.02965840
v -0.02358029 -0.05935332 -0.02970437
v 0.00670374 -0.06475858 -0.02595278
v 0.00420069 -0.06475711 -0.02687565
v 0.00420069 -0.06431326 -0.02626394
v -0.02358029 -0.05678546 -0.03736666
v 0.00420069 -0.05244075 -0.03921593
v 0.03958981 -0.05244075 -0.02108031
v 0.03867061 -0.05244075 -0.02121468
f 1 2 3
f 1 3 4
f 1 4 5
f 1 5 16
f 1 16 15
f 1 15 20
f 1 20 6
f 1 6 7
f 1 7 8
f 1 8 9
f 1 9 2
f 2 9 4
f 2 4 3
f 4 9 10
f 4 10 11
f 4 11 12
f 4 12 13
f 4 13 14
f 4 14 15
f 4 15 16
f 4 16 17
f 4 17 18
f 4 18 5
f 5 18 17
f 5 17 19
f 5 19 16
f 6 20 21
f 6 21 7
f 7 21 23
f 7 23 22
f 7 22 12
f 7 12 11
f 7 11 10
f 7 10 8
f 8 10 9
f 12 22 13
f 13 22 14
f 14 22 15
f 15 21 20
f 15 22 23
f 15 23 21
f 16 19 17

