# https://github.com/mikedh/trimesh
v -0.01286081 -0.03025002 0.11699170
v -0.00265837 -0.02443812 0.11387469
v -0.00275410 0.00024228 0.12783187
v -0.00484382 0.00024228 0.12913910
v -0.01437066 0.00024228 0.12955224
v -0.02433240 -0.02614557 0.11454680
v -0.01919562 -0.02768586 0.09805840
v -0.00539361 -0.02858137 0.09805840
v -0.00060420 -0.02865600 0.09805840
v -0.00051668 -0.00742632 0.11787038
v 0.00017807 -0.02430976 0.09805840
v -0.00164086 0.00024228 0.12498926
v -0.02556053 0.00024228 0.12276326
v -0.02294837 -0.02413066 0.09805840
v -0.02002714 -0.02739034 0.09805840
v 0.00161955 -0.01569491 0.09805840
v 0.00221856 -0.00319352 0.09805840
v 0.00238268 0.00024228 0.09805840
v 0.00119558 0.00024228 0.10732927
v -0.02533077 0.00024228 0.12012104
v -0.02320275 -0.01103226 0.09805840
v -0.02258459 0.00024228 0.09805840
v -0.02327113 0.00024228 0.10340449
v -0.02266117 -0.00066518 0.09805840
v -0.02263382 -0.00019055 0.09805840
f 1 2 3
f 1 3 4
f 1 4 5
f 1 5 6
f 1 6 7
f 1 7 8
f 1 8 9
f 1 9 2
f 2 10 3
f 2 9 11
f 2 11 10
f 3 12 19
f 3 19 18
f 3 18 22
f 3 22 23
f 3 23 20
f 3 20 13
f 3 13 5
f 3 5 4
f 3 10 12
f 5 13 6
f 6 13 14
f 6 14 15
f 6 15 7
f 7 15 14
f 7 14 21
f 7 21 24
f 7 24 25
f 7 25 22
f 7 22 18
f 7 18 17
f 7 17 16
f 7 16 11
f 7 11 9
f 7 9 8
f 10 11 16
f 10 16 17
f 10 17 18
f 10 18 19
f 10 19 12
f 13 20 21
f 13 21 14
f 20 23 24
f 20 24 21
f 22 25 23
f 23 25 24

