# https://github.com/mikedh/trimesh
v -0.01300712 0.02934325 0.01793771
v 0.01784339 0.03132700 0.01793553
v -0.01018964 0.02479910 0.01793771
v -0.01286109 0.01545706 0.04025283
v -0.01299423 0.02602933 0.04025283
v -0.01300712 0.03025055 0.01906068
v -0.01300712 0.05450910 0.01793771
v 0.01784339 0.06133686 0.01793553
v 0.02889426 0.03367981 0.01793553
v -0.00738075 0.02410710 0.01793771
v -0.00975156 0.02461457 0.01793771
v -0.00538790 0.01231998 0.04025283
v -0.01286538 0.04126108 0.04025283
v -0.01300712 0.04842716 0.03440423
v -0.01300712 0.03874681 0.02623979
v -0.01300712 0.05470132 0.02141585
v 0.02384771 0.08850951 0.01793553
v 0.02270955 0.08601830 0.01793553
v 0.01011681 0.01962446 0.04025283
v 0.00291420 0.01052846 0.04025283
v 0.00806812 0.01657195 0.02623979
v 0.00811966 0.01663347 0.02609560
v 0.03038460 0.07311629 0.01793553
v 0.02675968 0.04530546 0.03177378
v -0.01232852 0.04604360 0.04025283
v -0.01300712 0.04888850 0.03418575
v -0.01300712 0.05355567 0.02393487
v -0.00233421 0.05997592 0.03320480
v 0.00077962 0.05320198 0.04025283
v 0.02989498 0.08514177 0.02301072
v 0.03086134 0.08907850 0.01793553
v 0.01155132 0.02988917 0.04025283
v 0.03047909 0.07579204 0.01793553
v 0.01304595 0.04404447 0.04025283
v 0.00360998 0.05192562 0.04025283
v 0.03077114 0.08468812 0.01793553
f 1 2 3
f 1 3 4
f 1 4 5
f 1 5 6
f 1 6 15
f 1 15 14
f 1 14 26
f 1 26 27
f 1 27 16
f 1 16 7
f 1 7 8
f 1 8 2
f 2 8 18
f 2 18 17
f 2 17 31
f 2 31 36
f 2 36 33
f 2 33 23
f 2 23 9
f 2 9 10
f 2 10 11
f 2 11 3
f 3 11 4
f 4 11 12
f 4 12 20
f 4 20 19
f 4 19 32
f 4 32 34
f 4 34 35
f 4 35 29
f 4 29 25
f 4 25 13
f 4 13 5
f 5 13 14
f 5 14 15
f 5 15 6
f 7 16 17
f 7 17 18
f 7 18 8
f 9 19 20
f 9 20 21
f 9 21 22
f 9 22 10
f 9 23 24
f 9 24 19
f 10 22 20
f 10 20 11
f 11 20 12
f 13 25 26
f 13 26 14
f 16 27 28
f 16 28 17
f 17 28 29
f 17 29 30
f 17 30 31
f 19 24 32
f 20 22 21
f 23 33 30
f 23 30 24
f 24 30 34
f 24 34 32
f 25 29 28
f 25 28 26
f 26 28 27
f 29 35 30
f 30 33 36
f 30 36 31
f 30 35 34

