# https://github.com/mikedh/trimesh
v -0.00693963 -0.03795250 0.08677977
v 0.00130776 -0.03795250 0.08100437
v -0.01839404 -0.03795250 0.08274662
v -0.01422437 -0.08507743 0.05686321
v -0.00542806 -0.08507743 0.05858620
v -0.00542536 -0.08507743 0.05858620
v 0.00079939 -0.08507743 0.05500546
v 0.00255703 -0.09576839 0.04779584
v 0.00406319 -0.03795250 0.06970385
v -0.02082769 -0.03795250 0.06986748
v -0.02058973 -0.04820849 0.06517978
v -0.01925393 -0.09338753 0.04276161
v -0.01586574 -0.09569971 0.05011562
v -0.00500893 -0.09802333 0.05082792
v -0.00905150 -0.15488917 -0.00913996
v 0.00064526 -0.14971538 -0.01137311
v 0.00575323 -0.08507743 0.03476269
v 0.00324657 -0.08507743 0.04994236
v 0.00633461 -0.03795250 0.05151134
v 0.00456615 -0.06464556 0.05402364
v 0.00679430 -0.08158627 0.03050814
v -0.01826154 -0.03795250 0.05008674
v -0.01780996 -0.08102540 0.02702365
v -0.01950000 -0.08507743 0.04687177
v -0.01950000 -0.08507743 0.04688140
v -0.00441945 -0.14303068 -0.01155600
v -0.01195296 -0.06077667 0.01687821
v 0.00608313 -0.07453527 0.01514559
v 0.00601553 -0.03795250 0.04320439
v -0.01757471 -0.03795250 0.04587070
v -0.01770180 -0.04107737 0.04488889
v -0.00969777 -0.04449985 0.02558943
v -0.01051710 -0.03795250 0.03030601
v -0.00584449 -0.03795250 0.03049852
v 0.00431467 -0.03795250 0.03479157
v 0.00588573 -0.05511069 0.02684077
f 1 2 9
f 1 9 19
f 1 19 29
f 1 29 35
f 1 35 34
f 1 34 33
f 1 33 30
f 1 30 22
f 1 22 10
f 1 10 3
f 1 3 4
f 1 4 5
f 1 5 6
f 1 6 7
f 1 7 8
f 1 8 2
f 2 8 9
f 3 10 11
f 3 11 12
f 3 12 13
f 3 13 4
f 4 13 5
f 5 13 14
f 5 14 6
f 6 14 8
f 6 8 7
f 8 14 15
f 8 15 16
f 8 16 17
f 8 17 18
f 8 18 9
f 9 18 20
f 9 20 21
f 9 21 19
f 10 22 23
f 10 23 11
f 11 23 24
f 11 24 25
f 11 25 12
f 12 15 13
f 12 25 24
f 12 24 23
f 12 23 15
f 13 15 14
f 15 26 16
f 15 23 27
f 15 27 26
f 16 26 28
f 16 28 21
f 16 21 17
f 17 21 20
f 17 20 18
f 19 21 28
f 19 28 29
f 22 30 31
f 22 31 23
f 23 31 30
f 23 30 27
f 26 27 28
f 27 32 28
f 27 30 33
f 27 33 32
f 28 32 34
f 28 34 35
f 28 35 36
f 28 36 29
f 29 36 35
f 32 33 34

