# https://github.com/mikedh/trimesh
v 0.00126710 0.08743010 -0.01820690
v 0.00126710 0.08743010 0.01063699
v 0.00126710 0.09574584 -0.01820690
v 0.03710301 0.08743010 -0.01820690
v 0.00126710 0.09197461 0.01043180
v 0.02335275 0.08743010 0.01793553
v 0.00126710 0.09334538 0.00853906
v 0.03168814 0.09242882 0.01361230
v 0.04395098 0.09507755 -0.01820690
v 0.03082326 0.08743010 0.01793553
v 0.02214109 0.08947159 0.01649563
v 0.02384995 0.08851596 0.01793553
v 0.03086505 0.08907925 0.01793553
f 1 2 5
f 1 5 7
f 1 7 3
f 1 3 9
f 1 9 4
f 1 4 10
f 1 10 6
f 1 6 2
f 2 6 5
f 3 7 8
f 3 8 9
f 4 9 10
f 5 11 8
f 5 8 7
f 5 6 12
f 5 12 11
f 6 10 13
f 6 13 12
f 8 12 13
f 8 13 9
f 8 11 12
f 9 13 10

