# https://github.com/mikedh/trimesh
v -0.00246649 0.00024228 0.04961483
v 0.00106673 0.00024228 0.05339423
v -0.01577759 0.00024228 0.05906798
v -0.01286543 0.01544417 0.04026434
v -0.00539001 0.01230735 0.04026434
v 0.00291475 0.01052896 0.04026434
v 0.01012131 0.01962313 0.04026434
v 0.00587993 0.00024228 0.06603886
v -0.02086345 0.00024228 0.08431992
v -0.01299419 0.02602120 0.04026434
v 0.01155656 0.02987352 0.04026434
v 0.01026521 0.01983571 0.04127218
v 0.00543307 0.00024228 0.07379361
v -0.02327195 0.00024228 0.10339418
v -0.01286922 0.04125938 0.04026434
v 0.01304861 0.04404362 0.04026434
v 0.00443711 0.00024228 0.08198696
v -0.02533204 0.00024228 0.12011683
v -0.02563500 0.00184957 0.12326165
v -0.01233147 0.04604497 0.04026434
v 0.00360777 0.05193492 0.04026434
v -0.00408730 0.02776848 0.10149049
v -0.00278459 0.00807136 0.13224821
v -0.00164094 0.00024228 0.12498805
v 0.00119548 0.00024228 0.10732288
v -0.02555926 0.00024228 0.12275774
v -0.01509594 0.01488939 0.13557967
v -0.01723556 0.02463166 0.10506458
v -0.01993187 0.02012606 0.09596604
v 0.00077135 0.05320520 0.04026434
v -0.01437263 0.00024228 0.12955131
v -0.00484469 0.00024228 0.12913138
v -0.00275430 0.00024228 0.12782492
f 1 2 8
f 1 8 13
f 1 13 17
f 1 17 25
f 1 25 24
f 1 24 33
f 1 33 32
f 1 32 31
f 1 31 26
f 1 26 18
f 1 18 14
f 1 14 9
f 1 9 3
f 1 3 4
f 1 4 5
f 1 5 6
f 1 6 2
f 2 6 7
f 2 7 8
f 3 9 4
f 4 9 10
f 4 10 15
f 4 15 20
f 4 20 30
f 4 30 21
f 4 21 16
f 4 16 11
f 4 11 7
f 4 7 6
f 4 6 5
f 7 11 12
f 7 12 8
f 8 12 13
f 9 14 15
f 9 15 10
f 11 16 13
f 11 13 12
f 13 16 17
f 14 18 19
f 14 19 15
f 15 19 20
f 16 21 22
f 16 22 23
f 16 23 24
f 16 24 25
f 16 25 17
f 18 26 19
f 19 26 27
f 19 27 28
f 19 28 29
f 19 29 20
f 20 29 28
f 20 28 30
f 21 30 22
f 22 27 23
f 22 30 27
f 23 27 31
f 23 31 32
f 23 32 33
f 23 33 24
f 26 31 27
f 27 30 28

